<svg width="276" height="95" viewBox="0 0 276 95" fill="none" xmlns="http://www.w3.org/2000/svg">
<mask id="path-1-outside-1_13_140" maskUnits="userSpaceOnUse" x="0" y="0" width="276" height="95" fill="black">
<rect fill="white" width="276" height="95"/>
<path d="M62.2892 94.416C51.3452 94.416 47.0252 85.776 47.0252 75.192C47.0252 66.84 49.7612 57.336 54.1532 50.064C61.4972 37.752 74.3852 29.328 85.4732 29.328C88.1372 29.328 90.6572 29.832 93.0332 30.84C90.2972 28.464 87.9932 24.072 87.9932 18.384C87.9932 16.656 88.2092 14.856 88.7132 12.912C77.1932 10.968 46.6652 2.256 24.9932 2.256C13.4732 2.256 4.47322 4.776 2.24122 12.048C2.09722 12.408 1.95322 12.552 1.73722 12.552C1.59322 12.552 1.44922 12.408 1.44922 12.12L1.52122 11.832C3.96922 3.768 13.5452 1.032 25.6412 1.032C47.3852 1.032 77.3372 9.816 89.1452 11.688C91.5212 6.216 96.3452 3.48 100.737 3.336H101.169C105.273 3.336 108.513 5.856 108.513 8.736V9.096C108.009 12.84 103.257 13.776 98.5772 13.776C95.5532 13.776 92.6012 13.416 90.8732 13.128C90.0812 15.288 89.7212 17.304 89.7212 19.104C89.7212 25.008 93.0332 29.112 95.4092 31.128C95.4812 31.272 95.5532 31.416 95.5532 31.632C95.5532 32.28 94.9772 33.144 94.3292 33.144L93.8972 33C92.8172 32.352 90.3692 30.984 86.2652 30.984C83.8172 30.984 80.6492 31.56 76.9772 33.072C67.9052 36.744 62.4332 43.584 57.7532 50.136C51.8492 58.488 48.9692 67.776 48.9692 75.48C48.9692 82.896 51.6332 88.872 56.6732 91.248C58.4012 92.112 60.3452 92.472 62.5052 92.472C81.6572 92.472 113.265 60.72 123.417 49.056C123.489 48.912 123.561 48.912 123.633 48.912C123.921 48.912 124.137 49.128 124.137 49.344L124.065 49.632C111.681 64.608 82.0172 92.688 64.3772 94.344C63.6572 94.416 62.9372 94.416 62.2892 94.416ZM98.1452 12.408C102.609 12.408 107.361 11.76 107.361 8.88C107.361 8.592 107.289 8.232 107.217 7.872C106.713 6.648 104.481 5.06399 101.601 5.06399H100.953C97.4252 5.424 93.1052 8.088 91.3772 11.976C92.6012 12.192 95.3372 12.408 98.1452 12.408ZM120.278 61.512L120.062 61.44C119.846 61.368 119.774 61.008 119.774 60.576C119.774 57.408 123.878 46.896 124.238 46.32C124.454 45.96 124.814 45.816 125.174 45.816C125.678 45.816 126.038 46.032 126.038 46.536C126.038 46.68 126.038 46.824 125.966 46.968C124.022 51.432 122.438 55.68 121.07 60.216C125.318 57.336 130.358 52.872 133.31 48.624C133.094 47.976 133.022 47.472 133.022 46.968C133.022 45.384 134.03 44.52 134.75 44.52C135.326 44.52 135.758 44.88 135.758 45.744C135.758 46.464 135.398 47.472 134.462 48.84C135.902 50.856 138.278 51.504 140.87 51.504C144.614 51.504 148.718 49.992 150.59 48.912L150.806 48.84C150.95 48.84 151.022 48.912 151.022 48.984C151.022 49.056 150.95 49.2 150.662 49.344C148.934 50.424 144.686 52.152 140.654 52.152C138.134 52.152 135.614 51.504 133.958 49.488C132.086 52.44 122.51 61.512 120.278 61.512ZM133.958 47.832C134.678 46.68 134.894 45.96 134.894 45.6C134.894 45.312 134.822 45.24 134.678 45.24C134.318 45.24 133.814 45.816 133.814 46.824C133.814 47.112 133.814 47.472 133.958 47.832ZM150.734 61.152C149.942 61.152 149.222 61.008 148.574 60.72C147.062 60.072 146.486 58.632 146.486 56.976C146.486 55.32 147.062 53.592 147.854 52.152C150.734 47.04 154.262 45.456 156.494 45.456C157.79 45.456 158.654 45.96 158.654 46.68C158.654 48.48 155.486 51.432 149.582 52.584C148.646 54.456 148.286 55.896 148.286 56.976C148.286 58.992 149.51 59.856 151.166 59.928H151.526C156.926 59.928 166.718 53.808 173.198 48.984L173.558 48.84C173.702 48.84 173.846 48.984 173.846 49.056C173.846 49.2 173.774 49.344 173.558 49.488C166.574 54.816 156.494 61.152 150.734 61.152ZM150.158 51.504C153.542 51.216 157.862 48.552 157.862 47.184C157.862 47.04 157.79 46.896 157.646 46.752C157.502 46.608 157.214 46.464 156.854 46.464C155.414 46.464 152.606 47.832 150.158 51.504ZM166.314 63.024C166.026 63.024 165.738 62.736 165.738 62.376V62.16C166.386 60.432 166.89 58.776 168.402 56.256C170.85 52.08 173.442 48.12 173.874 47.616C174.09 47.4 174.234 47.328 174.45 47.328C174.882 47.328 175.386 47.76 175.386 48.12C175.386 48.192 175.314 48.336 175.242 48.408C172.362 52.296 169.122 57.048 166.962 61.368C168.906 59.136 177.114 50.136 180.498 50.136C180.786 50.136 181.002 50.136 181.218 50.28C181.434 50.424 181.722 50.496 181.722 51L181.65 51.504C181.434 52.512 181.29 53.736 181.29 54.96C181.29 58.128 182.226 61.296 184.89 61.368C190.146 61.368 200.658 51.288 205.05 48.84H205.266C205.41 48.84 205.554 48.912 205.554 49.056C205.554 49.128 205.482 49.2 205.338 49.272C200.298 52.656 190.002 62.376 184.602 62.376H184.458C179.922 62.232 179.274 57.12 179.274 53.52V51.864C174.378 54.672 168.978 60.576 166.674 62.88L166.314 63.024ZM192.339 84.552C192.195 84.552 192.051 84.408 191.907 84.12C191.547 83.184 191.403 82.104 191.403 80.952C191.403 66.048 215.523 31.776 222.075 22.056C214.299 20.544 205.299 18.816 196.875 18.816C190.323 18.816 184.131 19.824 179.163 22.92L178.803 23.064C178.587 23.064 178.515 22.92 178.515 22.776C178.515 22.632 178.659 22.416 178.875 22.272C184.275 18.888 191.043 17.736 198.171 17.736C206.523 17.736 215.307 19.32 222.939 20.688C225.531 16.944 231.075 9.312 234.099 5.496C234.387 5.208 234.747 5.06399 235.107 5.06399C235.683 5.06399 236.259 5.424 236.259 5.856C236.259 6 236.187 6.216 236.043 6.36C232.659 10.824 227.763 17.664 225.459 21.192C226.683 21.336 227.835 21.624 228.987 21.768C235.683 22.848 246.771 24.504 256.635 24.504C264.123 24.504 270.963 23.568 274.635 20.688C274.851 20.544 274.995 20.472 275.139 20.472C275.283 20.472 275.427 20.616 275.427 20.76C275.427 20.904 275.355 21.12 275.139 21.264C270.891 24.576 262.971 25.656 254.547 25.656C245.115 25.656 234.963 24.288 228.627 23.208C227.331 22.992 225.963 22.704 224.523 22.488C217.539 32.208 192.195 68.424 192.195 81.312C192.195 82.248 192.339 83.112 192.627 83.76L192.699 84.048C192.699 84.336 192.555 84.552 192.339 84.552ZM212.022 71.736C210.006 71.736 208.566 70.44 208.566 68.496C208.566 66.912 209.502 64.824 211.878 62.664C213.75 60.864 216.486 59.136 220.518 57.48C220.95 54.6 220.878 50.856 221.886 48.12C222.966 45.24 225.558 43.512 227.142 43.512C227.718 43.512 228.15 43.728 228.366 44.232L228.438 44.664C228.438 46.536 224.118 48.696 223.398 48.984C222.822 51.36 222.894 53.52 222.39 56.76C230.238 54.456 240.174 51.216 242.91 48.84C242.982 48.768 243.054 48.768 243.126 48.768C243.27 48.768 243.342 48.84 243.342 48.984L243.27 49.2C239.31 52.8 227.646 55.608 222.174 57.768C220.302 68.064 215.406 71.736 212.022 71.736ZM223.614 48.048C224.406 47.688 227.79 45.888 227.79 44.808V44.664C227.718 44.304 227.502 44.16 227.214 44.16C226.134 44.16 223.974 46.464 223.614 48.048ZM212.022 70.872C215.19 70.872 219.582 64.968 220.374 58.56C217.854 59.568 214.398 61.368 212.31 63.456C210.294 65.544 209.574 67.2 209.574 68.352C209.574 69.288 209.934 69.864 210.51 70.296C210.942 70.656 211.446 70.872 212.022 70.872Z"/>
</mask>
<path d="M62.2892 94.416C51.3452 94.416 47.0252 85.776 47.0252 75.192C47.0252 66.84 49.7612 57.336 54.1532 50.064C61.4972 37.752 74.3852 29.328 85.4732 29.328C88.1372 29.328 90.6572 29.832 93.0332 30.84C90.2972 28.464 87.9932 24.072 87.9932 18.384C87.9932 16.656 88.2092 14.856 88.7132 12.912C77.1932 10.968 46.6652 2.256 24.9932 2.256C13.4732 2.256 4.47322 4.776 2.24122 12.048C2.09722 12.408 1.95322 12.552 1.73722 12.552C1.59322 12.552 1.44922 12.408 1.44922 12.12L1.52122 11.832C3.96922 3.768 13.5452 1.032 25.6412 1.032C47.3852 1.032 77.3372 9.816 89.1452 11.688C91.5212 6.216 96.3452 3.48 100.737 3.336H101.169C105.273 3.336 108.513 5.856 108.513 8.736V9.096C108.009 12.84 103.257 13.776 98.5772 13.776C95.5532 13.776 92.6012 13.416 90.8732 13.128C90.0812 15.288 89.7212 17.304 89.7212 19.104C89.7212 25.008 93.0332 29.112 95.4092 31.128C95.4812 31.272 95.5532 31.416 95.5532 31.632C95.5532 32.28 94.9772 33.144 94.3292 33.144L93.8972 33C92.8172 32.352 90.3692 30.984 86.2652 30.984C83.8172 30.984 80.6492 31.56 76.9772 33.072C67.9052 36.744 62.4332 43.584 57.7532 50.136C51.8492 58.488 48.9692 67.776 48.9692 75.48C48.9692 82.896 51.6332 88.872 56.6732 91.248C58.4012 92.112 60.3452 92.472 62.5052 92.472C81.6572 92.472 113.265 60.72 123.417 49.056C123.489 48.912 123.561 48.912 123.633 48.912C123.921 48.912 124.137 49.128 124.137 49.344L124.065 49.632C111.681 64.608 82.0172 92.688 64.3772 94.344C63.6572 94.416 62.9372 94.416 62.2892 94.416ZM98.1452 12.408C102.609 12.408 107.361 11.76 107.361 8.88C107.361 8.592 107.289 8.232 107.217 7.872C106.713 6.648 104.481 5.06399 101.601 5.06399H100.953C97.4252 5.424 93.1052 8.088 91.3772 11.976C92.6012 12.192 95.3372 12.408 98.1452 12.408ZM120.278 61.512L120.062 61.44C119.846 61.368 119.774 61.008 119.774 60.576C119.774 57.408 123.878 46.896 124.238 46.32C124.454 45.96 124.814 45.816 125.174 45.816C125.678 45.816 126.038 46.032 126.038 46.536C126.038 46.68 126.038 46.824 125.966 46.968C124.022 51.432 122.438 55.68 121.07 60.216C125.318 57.336 130.358 52.872 133.31 48.624C133.094 47.976 133.022 47.472 133.022 46.968C133.022 45.384 134.03 44.52 134.75 44.52C135.326 44.52 135.758 44.88 135.758 45.744C135.758 46.464 135.398 47.472 134.462 48.84C135.902 50.856 138.278 51.504 140.87 51.504C144.614 51.504 148.718 49.992 150.59 48.912L150.806 48.84C150.95 48.84 151.022 48.912 151.022 48.984C151.022 49.056 150.95 49.2 150.662 49.344C148.934 50.424 144.686 52.152 140.654 52.152C138.134 52.152 135.614 51.504 133.958 49.488C132.086 52.44 122.51 61.512 120.278 61.512ZM133.958 47.832C134.678 46.68 134.894 45.96 134.894 45.6C134.894 45.312 134.822 45.24 134.678 45.24C134.318 45.24 133.814 45.816 133.814 46.824C133.814 47.112 133.814 47.472 133.958 47.832ZM150.734 61.152C149.942 61.152 149.222 61.008 148.574 60.72C147.062 60.072 146.486 58.632 146.486 56.976C146.486 55.32 147.062 53.592 147.854 52.152C150.734 47.04 154.262 45.456 156.494 45.456C157.79 45.456 158.654 45.96 158.654 46.68C158.654 48.48 155.486 51.432 149.582 52.584C148.646 54.456 148.286 55.896 148.286 56.976C148.286 58.992 149.51 59.856 151.166 59.928H151.526C156.926 59.928 166.718 53.808 173.198 48.984L173.558 48.84C173.702 48.84 173.846 48.984 173.846 49.056C173.846 49.2 173.774 49.344 173.558 49.488C166.574 54.816 156.494 61.152 150.734 61.152ZM150.158 51.504C153.542 51.216 157.862 48.552 157.862 47.184C157.862 47.04 157.79 46.896 157.646 46.752C157.502 46.608 157.214 46.464 156.854 46.464C155.414 46.464 152.606 47.832 150.158 51.504ZM166.314 63.024C166.026 63.024 165.738 62.736 165.738 62.376V62.16C166.386 60.432 166.89 58.776 168.402 56.256C170.85 52.08 173.442 48.12 173.874 47.616C174.09 47.4 174.234 47.328 174.45 47.328C174.882 47.328 175.386 47.76 175.386 48.12C175.386 48.192 175.314 48.336 175.242 48.408C172.362 52.296 169.122 57.048 166.962 61.368C168.906 59.136 177.114 50.136 180.498 50.136C180.786 50.136 181.002 50.136 181.218 50.28C181.434 50.424 181.722 50.496 181.722 51L181.65 51.504C181.434 52.512 181.29 53.736 181.29 54.96C181.29 58.128 182.226 61.296 184.89 61.368C190.146 61.368 200.658 51.288 205.05 48.84H205.266C205.41 48.84 205.554 48.912 205.554 49.056C205.554 49.128 205.482 49.2 205.338 49.272C200.298 52.656 190.002 62.376 184.602 62.376H184.458C179.922 62.232 179.274 57.12 179.274 53.52V51.864C174.378 54.672 168.978 60.576 166.674 62.88L166.314 63.024ZM192.339 84.552C192.195 84.552 192.051 84.408 191.907 84.12C191.547 83.184 191.403 82.104 191.403 80.952C191.403 66.048 215.523 31.776 222.075 22.056C214.299 20.544 205.299 18.816 196.875 18.816C190.323 18.816 184.131 19.824 179.163 22.92L178.803 23.064C178.587 23.064 178.515 22.92 178.515 22.776C178.515 22.632 178.659 22.416 178.875 22.272C184.275 18.888 191.043 17.736 198.171 17.736C206.523 17.736 215.307 19.32 222.939 20.688C225.531 16.944 231.075 9.312 234.099 5.496C234.387 5.208 234.747 5.06399 235.107 5.06399C235.683 5.06399 236.259 5.424 236.259 5.856C236.259 6 236.187 6.216 236.043 6.36C232.659 10.824 227.763 17.664 225.459 21.192C226.683 21.336 227.835 21.624 228.987 21.768C235.683 22.848 246.771 24.504 256.635 24.504C264.123 24.504 270.963 23.568 274.635 20.688C274.851 20.544 274.995 20.472 275.139 20.472C275.283 20.472 275.427 20.616 275.427 20.76C275.427 20.904 275.355 21.12 275.139 21.264C270.891 24.576 262.971 25.656 254.547 25.656C245.115 25.656 234.963 24.288 228.627 23.208C227.331 22.992 225.963 22.704 224.523 22.488C217.539 32.208 192.195 68.424 192.195 81.312C192.195 82.248 192.339 83.112 192.627 83.76L192.699 84.048C192.699 84.336 192.555 84.552 192.339 84.552ZM212.022 71.736C210.006 71.736 208.566 70.44 208.566 68.496C208.566 66.912 209.502 64.824 211.878 62.664C213.75 60.864 216.486 59.136 220.518 57.48C220.95 54.6 220.878 50.856 221.886 48.12C222.966 45.24 225.558 43.512 227.142 43.512C227.718 43.512 228.15 43.728 228.366 44.232L228.438 44.664C228.438 46.536 224.118 48.696 223.398 48.984C222.822 51.36 222.894 53.52 222.39 56.76C230.238 54.456 240.174 51.216 242.91 48.84C242.982 48.768 243.054 48.768 243.126 48.768C243.27 48.768 243.342 48.84 243.342 48.984L243.27 49.2C239.31 52.8 227.646 55.608 222.174 57.768C220.302 68.064 215.406 71.736 212.022 71.736ZM223.614 48.048C224.406 47.688 227.79 45.888 227.79 44.808V44.664C227.718 44.304 227.502 44.16 227.214 44.16C226.134 44.16 223.974 46.464 223.614 48.048ZM212.022 70.872C215.19 70.872 219.582 64.968 220.374 58.56C217.854 59.568 214.398 61.368 212.31 63.456C210.294 65.544 209.574 67.2 209.574 68.352C209.574 69.288 209.934 69.864 210.51 70.296C210.942 70.656 211.446 70.872 212.022 70.872Z" fill="#8B9B68"/>
<path d="M54.1532 50.064L54.5812 50.3225L54.5826 50.3201L54.1532 50.064ZM93.0332 30.84L92.8379 31.3003L93.3611 30.4625L93.0332 30.84ZM88.7132 12.912L89.1972 13.0375L89.3341 12.5097L88.7964 12.419L88.7132 12.912ZM2.24122 12.048L2.70546 12.2337L2.71314 12.2145L2.71921 12.1947L2.24122 12.048ZM1.44922 12.12L0.964147 11.9987L0.949219 12.0584V12.12H1.44922ZM1.52122 11.832L1.04278 11.6868L1.03916 11.6987L1.03615 11.7107L1.52122 11.832ZM89.1452 11.688L89.0669 12.1818L89.4496 12.2425L89.6039 11.8871L89.1452 11.688ZM100.737 3.336V2.836H100.729L100.721 2.83626L100.737 3.336ZM108.513 9.096L109.009 9.16271L109.013 9.1295V9.096H108.513ZM90.8732 13.128L90.9554 12.6348L90.5465 12.5666L90.4038 12.9559L90.8732 13.128ZM95.4092 31.128L95.8564 30.9044L95.8107 30.8129L95.7327 30.7467L95.4092 31.128ZM94.3292 33.144L94.1711 33.6183L94.2481 33.644H94.3292V33.144ZM93.8972 33L93.64 33.4287L93.687 33.457L93.7391 33.4743L93.8972 33ZM76.9772 33.072L77.1648 33.5355L77.1676 33.5343L76.9772 33.072ZM57.7532 50.136L57.3464 49.8454L57.3449 49.8474L57.7532 50.136ZM56.6732 91.248L56.8969 90.8007L56.8864 90.7957L56.6732 91.248ZM123.417 49.056L123.794 49.3843L123.836 49.3364L123.864 49.2796L123.417 49.056ZM124.137 49.344L124.622 49.4653L124.637 49.4056V49.344H124.137ZM124.065 49.632L124.451 49.9506L124.523 49.8633L124.55 49.7533L124.065 49.632ZM64.3772 94.344L64.3305 93.8462L64.3275 93.8465L64.3772 94.344ZM107.217 7.872L107.708 7.77395L107.698 7.72643L107.68 7.68162L107.217 7.872ZM100.953 5.06399V4.56399H100.928L100.902 4.56658L100.953 5.06399ZM91.3772 11.976L90.9203 11.7729L90.6606 12.3573L91.2903 12.4684L91.3772 11.976ZM62.2892 94.416V93.916C56.9693 93.916 53.3107 91.8268 50.9623 88.4855C48.5955 85.1181 47.5252 80.4276 47.5252 75.192H47.0252H46.5252C46.5252 80.5404 47.6149 85.4619 50.1442 89.0605C52.6918 92.6852 56.6651 94.916 62.2892 94.916V94.416ZM47.0252 75.192H47.5252C47.5252 66.9351 50.2342 57.52 54.5812 50.3225L54.1532 50.064L53.7252 49.8055C49.2882 57.152 46.5252 66.7449 46.5252 75.192H47.0252ZM54.1532 50.064L54.5826 50.3201C61.8641 38.113 74.6094 29.828 85.4732 29.828V29.328V28.828C74.1611 28.828 61.1303 37.391 53.7238 49.8079L54.1532 50.064ZM85.4732 29.328V29.828C88.0723 29.828 90.5257 30.3193 92.8379 31.3003L93.0332 30.84L93.2285 30.3797C90.7887 29.3447 88.2021 28.828 85.4732 28.828V29.328ZM93.0332 30.84L93.3611 30.4625C90.7435 28.1894 88.4932 23.9397 88.4932 18.384H87.9932H87.4932C87.4932 24.2043 89.8509 28.7386 92.7054 31.2175L93.0332 30.84ZM87.9932 18.384H88.4932C88.4932 16.6991 88.7036 14.9413 89.1972 13.0375L88.7132 12.912L88.2292 12.7865C87.7148 14.7707 87.4932 16.6129 87.4932 18.384H87.9932ZM88.7132 12.912L88.7964 12.419C83.0409 11.4477 72.5864 8.79537 60.7609 6.36523C48.9753 3.9433 35.8833 1.756 24.9932 1.756V2.256V2.756C35.7752 2.756 48.7831 4.92469 60.5596 7.34476C72.2961 9.75662 82.8656 12.4323 88.63 13.405L88.7132 12.912ZM24.9932 2.256V1.756C19.2063 1.756 14.0055 2.38761 9.95346 3.95882C5.89064 5.53419 2.93759 8.07514 1.76323 11.9013L2.24122 12.048L2.71921 12.1947C3.77685 8.74886 6.4398 6.3938 10.315 4.89118C14.2009 3.38439 19.2602 2.756 24.9932 2.756V2.256ZM2.24122 12.048L1.77698 11.8623C1.74691 11.9375 1.72099 11.9908 1.69938 12.0281C1.67769 12.0656 1.66457 12.0795 1.66267 12.0814C1.6625 12.0816 1.67342 12.0711 1.69534 12.062C1.71735 12.0529 1.73405 12.052 1.73722 12.052V12.552V13.052C1.97808 13.052 2.19519 12.9631 2.36977 12.7886C2.52266 12.6357 2.62508 12.4346 2.70546 12.2337L2.24122 12.048ZM1.73722 12.552V12.052C1.84169 12.052 1.91086 12.1062 1.93922 12.144C1.96522 12.1787 1.94922 12.184 1.94922 12.12H1.44922H0.949219C0.949219 12.5413 1.19322 13.052 1.73722 13.052V12.552ZM1.44922 12.12L1.93429 12.2413L2.00629 11.9533L1.52122 11.832L1.03615 11.7107L0.964147 11.9987L1.44922 12.12ZM1.52122 11.832L1.99966 11.9772C3.16795 8.12876 6.03607 5.52441 10.1496 3.87196C14.2764 2.2142 19.6213 1.532 25.6412 1.532V1.032V0.531995C19.5651 0.531995 14.0741 1.21779 9.77684 2.94403C5.46637 4.67559 2.32249 7.47123 1.04278 11.6868L1.52122 11.832ZM25.6412 1.032V1.532C36.4585 1.532 49.3398 3.71844 61.0174 6.14752C72.6573 8.56876 83.1512 11.244 89.0669 12.1818L89.1452 11.688L89.2235 11.1942C83.3312 10.26 72.9451 7.60723 61.221 5.16847C49.5346 2.73755 36.568 0.531995 25.6412 0.531995V1.032ZM89.1452 11.688L89.6039 11.8871C91.902 6.59447 96.5524 3.97347 100.754 3.83573L100.737 3.336L100.721 2.83626C96.138 2.98652 91.1405 5.83752 88.6866 11.4889L89.1452 11.688ZM100.737 3.336V3.836H101.169V3.336V2.836H100.737V3.336ZM101.169 3.336V3.836C103.122 3.836 104.851 4.43605 106.081 5.35632C107.313 6.27864 108.013 7.4934 108.013 8.736H108.513H109.013C109.013 7.0986 108.093 5.61335 106.68 4.55567C105.264 3.49594 103.321 2.836 101.169 2.836V3.336ZM108.513 8.736H108.013V9.096H108.513H109.013V8.736H108.513ZM108.513 9.096L108.018 9.02929C107.799 10.6528 106.672 11.7079 104.933 12.373C103.182 13.0424 100.896 13.276 98.5772 13.276V13.776V14.276C100.938 14.276 103.369 14.0416 105.29 13.307C107.222 12.5681 108.723 11.2832 109.009 9.16271L108.513 9.096ZM98.5772 13.776V13.276C95.5881 13.276 92.6646 12.9197 90.9554 12.6348L90.8732 13.128L90.791 13.6212C92.5379 13.9123 95.5184 14.276 98.5772 14.276V13.776ZM90.8732 13.128L90.4038 12.9559C89.5943 15.1636 89.2212 17.2379 89.2212 19.104H89.7212H90.2212C90.2212 17.3701 90.5682 15.4124 91.3427 13.3001L90.8732 13.128ZM89.7212 19.104H89.2212C89.2212 25.2057 92.6434 29.437 95.0857 31.5093L95.4092 31.128L95.7327 30.7467C93.423 28.787 90.2212 24.8103 90.2212 19.104H89.7212ZM95.4092 31.128L94.962 31.3516C95 31.4276 95.0198 31.4689 95.0339 31.5111C95.0457 31.5465 95.0532 31.5831 95.0532 31.632H95.5532H96.0532C96.0532 31.2886 95.9304 31.0523 95.8564 30.9044L95.4092 31.128ZM95.5532 31.632H95.0532C95.0532 31.8253 94.9593 32.0999 94.7857 32.3291C94.6061 32.5661 94.4302 32.644 94.3292 32.644V33.144V33.644C94.8763 33.644 95.3124 33.2899 95.5828 32.9329C95.8591 32.5681 96.0532 32.0867 96.0532 31.632H95.5532ZM94.3292 33.144L94.4873 32.6697L94.0553 32.5257L93.8972 33L93.7391 33.4743L94.1711 33.6183L94.3292 33.144ZM93.8972 33L94.1545 32.5713C93.0317 31.8976 90.4934 30.484 86.2652 30.484V30.984V31.484C90.2451 31.484 92.6028 32.8064 93.64 33.4287L93.8972 33ZM86.2652 30.984V30.484C83.7419 30.484 80.5092 31.0769 76.7868 32.6097L76.9772 33.072L77.1676 33.5343C80.7893 32.0431 83.8926 31.484 86.2652 31.484V30.984ZM76.9772 33.072L76.7896 32.6085C67.5758 36.3379 62.0335 43.2834 57.3464 49.8454L57.7532 50.136L58.1601 50.4266C62.8329 43.8846 68.2347 37.1501 77.1648 33.5355L76.9772 33.072ZM57.7532 50.136L57.3449 49.8474C51.3884 58.2737 48.4692 67.6609 48.4692 75.48H48.9692H49.4692C49.4692 67.8911 52.3101 58.7023 58.1615 50.4246L57.7532 50.136ZM48.9692 75.48H48.4692C48.4692 82.9859 51.1674 89.2052 56.46 91.7003L56.6732 91.248L56.8864 90.7957C52.099 88.5388 49.4692 82.8061 49.4692 75.48H48.9692ZM56.6732 91.248L56.4496 91.6952C58.2647 92.6028 60.2901 92.972 62.5052 92.972V92.472V91.972C60.4003 91.972 58.5377 91.6212 56.8968 90.8008L56.6732 91.248ZM62.5052 92.472V92.972C67.4171 92.972 73.0718 90.9413 78.9135 87.7679C84.7655 84.5889 90.8556 80.2349 96.6515 75.5261C108.243 66.1083 118.704 55.2331 123.794 49.3843L123.417 49.056L123.04 48.7277C117.979 54.5429 107.559 65.3757 96.0209 74.7499C90.2518 79.4371 84.2145 83.7501 78.4362 86.8891C72.6477 90.0337 67.1693 91.972 62.5052 91.972V92.472ZM123.417 49.056L123.864 49.2796C123.872 49.2642 123.843 49.33 123.749 49.3772C123.665 49.4193 123.585 49.412 123.633 49.412V48.912V48.412C123.61 48.412 123.458 48.4047 123.302 48.4828C123.135 48.566 123.034 48.7038 122.97 48.8324L123.417 49.056ZM123.633 48.912V49.412C123.642 49.412 123.648 49.4136 123.652 49.4151C123.654 49.4159 123.656 49.4168 123.657 49.4175C123.658 49.4182 123.659 49.4187 123.659 49.4186C123.659 49.4186 123.658 49.4178 123.656 49.4158C123.655 49.4139 123.652 49.4104 123.65 49.405C123.645 49.3944 123.637 49.3737 123.637 49.344H124.137H124.637C124.637 48.8036 124.147 48.412 123.633 48.412V48.912ZM124.137 49.344L123.652 49.2227L123.58 49.5107L124.065 49.632L124.55 49.7533L124.622 49.4653L124.137 49.344ZM124.065 49.632L123.68 49.3134C117.509 56.7762 107.02 67.5171 95.8764 76.5954C90.3052 81.134 84.58 85.2492 79.1568 88.3304C73.7251 91.4165 68.6366 93.4419 64.3305 93.8462L64.3772 94.344L64.424 94.8418C68.9379 94.4181 74.1723 92.3125 79.6508 89.1999C85.138 86.0823 90.9102 81.931 96.508 77.3706C107.702 68.2509 118.238 57.4638 124.451 49.9506L124.065 49.632ZM64.3772 94.344L64.3275 93.8465C63.6362 93.9156 62.9407 93.916 62.2892 93.916V94.416V94.916C62.9338 94.916 63.6783 94.9164 64.427 94.8415L64.3772 94.344ZM98.1452 12.408V12.908C100.389 12.908 102.753 12.7466 104.57 12.203C105.479 11.9313 106.292 11.5527 106.884 11.0172C107.491 10.4685 107.861 9.75815 107.861 8.88H107.361H106.861C106.861 9.44185 106.637 9.8925 106.214 10.2753C105.776 10.6713 105.121 10.9947 104.284 11.2449C102.61 11.7454 100.365 11.908 98.1452 11.908V12.408ZM107.361 8.88H107.861C107.861 8.53164 107.776 8.11709 107.708 7.77395L107.217 7.872L106.727 7.97005C106.802 8.34691 106.861 8.65235 106.861 8.88H107.361ZM107.217 7.872L107.68 7.68162C107.368 6.92602 106.579 6.15152 105.544 5.57267C104.494 4.98468 103.132 4.56399 101.601 4.56399V5.06399V5.56399C102.95 5.56399 104.145 5.93531 105.056 6.44532C105.984 6.96448 106.562 7.59397 106.755 8.06237L107.217 7.872ZM101.601 5.06399V4.56399H100.953V5.06399V5.56399H101.601V5.06399ZM100.953 5.06399L100.902 4.56658C97.2147 4.94289 92.7284 7.70471 90.9203 11.7729L91.3772 11.976L91.8341 12.1791C93.482 8.47128 97.6358 5.90511 101.004 5.56141L100.953 5.06399ZM91.3772 11.976L91.2903 12.4684C92.5543 12.6914 95.3224 12.908 98.1452 12.908V12.408V11.908C95.352 11.908 92.6481 11.6925 91.4641 11.4836L91.3772 11.976ZM120.278 61.512L120.12 61.9863L120.197 62.012H120.278V61.512ZM120.062 61.44L119.904 61.9143L119.904 61.9143L120.062 61.44ZM124.238 46.32L124.663 46.585L124.667 46.5772L124.238 46.32ZM125.966 46.968L125.519 46.7444L125.513 46.7562L125.508 46.7684L125.966 46.968ZM121.07 60.216L120.592 60.0716L120.185 61.4204L121.351 60.6299L121.07 60.216ZM133.31 48.624L133.721 48.9093L133.864 48.7036L133.785 48.4659L133.31 48.624ZM134.462 48.84L134.05 48.5577L133.852 48.8462L134.056 49.1306L134.462 48.84ZM150.59 48.912L150.432 48.4377L150.384 48.4536L150.341 48.4789L150.59 48.912ZM150.806 48.84V48.34H150.725L150.648 48.3657L150.806 48.84ZM150.662 49.344L150.439 48.8968L150.418 48.9074L150.397 48.92L150.662 49.344ZM133.958 49.488L134.345 49.1706L133.906 48.6367L133.536 49.2202L133.958 49.488ZM133.958 47.832L133.494 48.0177L133.86 48.9326L134.382 48.097L133.958 47.832ZM120.278 61.512L120.437 61.0377L120.221 60.9657L120.062 61.44L119.904 61.9143L120.12 61.9863L120.278 61.512ZM120.062 61.44L120.221 60.9657C120.284 60.9868 120.319 61.0247 120.33 61.0397C120.337 61.0505 120.329 61.0436 120.317 61.0019C120.292 60.9158 120.274 60.7728 120.274 60.576H119.774H119.274C119.274 60.8112 119.293 61.0642 119.358 61.2841C119.417 61.4846 119.558 61.7987 119.904 61.9143L120.062 61.44ZM119.774 60.576H120.274C120.274 59.858 120.513 58.6653 120.904 57.2238C121.29 55.799 121.81 54.1818 122.344 52.6395C122.877 51.0981 123.422 49.6372 123.855 48.5267C124.072 47.9714 124.26 47.5054 124.404 47.1618C124.477 46.9898 124.537 46.8507 124.584 46.7475C124.608 46.6958 124.627 46.6552 124.642 46.6251C124.658 46.5917 124.665 46.5817 124.662 46.585L124.238 46.32L123.814 46.055C123.743 46.1694 123.622 46.4421 123.482 46.7742C123.334 47.1281 123.142 47.6026 122.923 48.1633C122.486 49.2848 121.937 50.7579 121.399 52.3125C120.861 53.8662 120.333 55.507 119.939 56.9622C119.549 58.4007 119.274 59.71 119.274 60.576H119.774ZM124.238 46.32L124.667 46.5772C124.773 46.4002 124.949 46.316 125.174 46.316V45.816V45.316C124.68 45.316 124.135 45.5198 123.81 46.0627L124.238 46.32ZM125.174 45.816V46.316C125.366 46.316 125.458 46.3586 125.492 46.3842C125.505 46.3945 125.513 46.4044 125.52 46.4186C125.527 46.4345 125.538 46.4697 125.538 46.536H126.038H126.538C126.538 46.1516 126.393 45.8148 126.099 45.5898C125.827 45.3814 125.487 45.316 125.174 45.316V45.816ZM126.038 46.536H125.538C125.538 46.6926 125.531 46.7206 125.519 46.7444L125.966 46.968L126.414 47.1916C126.546 46.9274 126.538 46.6674 126.538 46.536H126.038ZM125.966 46.968L125.508 46.7684C123.557 51.2486 121.966 55.515 120.592 60.0716L121.07 60.216L121.549 60.3604C122.911 55.845 124.488 51.6154 126.425 47.1676L125.966 46.968ZM121.07 60.216L121.351 60.6299C125.631 57.7281 130.723 53.2236 133.721 48.9093L133.31 48.624L132.9 48.3387C129.994 52.5204 125.006 56.9439 120.79 59.8021L121.07 60.216ZM133.31 48.624L133.785 48.4659C133.585 47.8661 133.522 47.4154 133.522 46.968H133.022H132.522C132.522 47.5286 132.604 48.0859 132.836 48.7821L133.31 48.624ZM133.022 46.968H133.522C133.522 45.5665 134.392 45.02 134.75 45.02V44.52V44.02C133.669 44.02 132.522 45.2015 132.522 46.968H133.022ZM134.75 44.52V45.02C134.933 45.02 135.036 45.0739 135.1 45.1443C135.17 45.2209 135.258 45.39 135.258 45.744H135.758H136.258C136.258 45.234 136.131 44.7911 135.84 44.4717C135.544 44.1461 135.144 44.02 134.75 44.02V44.52ZM135.758 45.744H135.258C135.258 46.3129 134.966 47.2183 134.05 48.5577L134.462 48.84L134.875 49.1223C135.831 47.7257 136.258 46.6151 136.258 45.744H135.758ZM134.462 48.84L134.056 49.1306C135.634 51.3401 138.212 52.004 140.87 52.004V51.504V51.004C138.345 51.004 136.171 50.3719 134.869 48.5494L134.462 48.84ZM140.87 51.504V52.004C144.72 52.004 148.909 50.4592 150.84 49.3451L150.59 48.912L150.341 48.4789C148.528 49.5248 144.509 51.004 140.87 51.004V51.504ZM150.59 48.912L150.749 49.3863L150.965 49.3143L150.806 48.84L150.648 48.3657L150.432 48.4377L150.59 48.912ZM150.806 48.84V49.34C150.798 49.34 150.739 49.338 150.668 49.285C150.595 49.2296 150.522 49.1245 150.522 48.984H151.022H151.522C151.522 48.512 151.084 48.34 150.806 48.34V48.84ZM151.022 48.984H150.522C150.522 48.9211 150.537 48.8757 150.548 48.851C150.56 48.8249 150.57 48.8124 150.571 48.8116C150.571 48.811 150.541 48.8458 150.439 48.8968L150.662 49.344L150.886 49.7912C151.222 49.6234 151.522 49.3512 151.522 48.984H151.022ZM150.662 49.344L150.397 48.92C148.731 49.9614 144.574 51.652 140.654 51.652V52.152V52.652C144.799 52.652 149.138 50.8866 150.927 49.768L150.662 49.344ZM140.654 52.152V51.652C138.206 51.652 135.865 51.0217 134.345 49.1706L133.958 49.488L133.572 49.8054C135.364 51.9863 138.063 52.652 140.654 52.652V52.152ZM133.958 49.488L133.536 49.2202C133.096 49.9142 132.176 51.0048 130.982 52.2687C129.795 53.5243 128.362 54.9261 126.918 56.2367C125.471 57.5484 124.022 58.7614 122.802 59.6431C122.191 60.0845 121.647 60.4358 121.196 60.6746C120.724 60.9248 120.425 61.012 120.278 61.012V61.512V62.012C120.69 62.012 121.178 61.8157 121.664 61.5582C122.172 61.2893 122.757 60.9088 123.387 60.4536C124.649 59.5421 126.128 58.3026 127.589 56.9773C129.052 55.6509 130.503 54.2312 131.709 52.9555C132.906 51.6882 133.885 50.5378 134.381 49.7558L133.958 49.488ZM133.958 47.832L134.382 48.097C135.113 46.9288 135.394 46.1076 135.394 45.6H134.894H134.394C134.394 45.8124 134.244 46.4312 133.534 47.567L133.958 47.832ZM134.894 45.6H135.394C135.394 45.4437 135.381 45.2213 135.256 45.0346C135.091 44.7863 134.838 44.74 134.678 44.74V45.24V45.74C134.677 45.74 134.636 45.7404 134.581 45.7173C134.516 45.6903 134.461 45.6439 134.424 45.5893C134.393 45.5429 134.389 45.5093 134.39 45.5158C134.391 45.5215 134.394 45.5461 134.394 45.6H134.894ZM134.678 45.24V44.74C134.248 44.74 133.9 45.054 133.689 45.3865C133.461 45.747 133.314 46.2385 133.314 46.824H133.814H134.314C134.314 46.4015 134.42 46.101 134.534 45.9215C134.665 45.714 134.749 45.74 134.678 45.74V45.24ZM133.814 46.824H133.314C133.314 47.1049 133.31 47.5568 133.494 48.0177L133.958 47.832L134.423 47.6463C134.319 47.3872 134.314 47.1191 134.314 46.824H133.814ZM148.574 60.72L148.778 60.2631L148.771 60.2604L148.574 60.72ZM147.854 52.152L147.419 51.9066L147.416 51.911L147.854 52.152ZM149.582 52.584L149.487 52.0933L149.245 52.1404L149.135 52.3604L149.582 52.584ZM151.166 59.928L151.145 60.4275L151.156 60.428H151.166V59.928ZM173.198 48.984L173.013 48.5198L172.952 48.544L172.9 48.5829L173.198 48.984ZM173.558 48.84V48.34H173.462L173.373 48.3758L173.558 48.84ZM173.558 49.488L173.281 49.072L173.268 49.0808L173.255 49.0905L173.558 49.488ZM150.158 51.504L149.742 51.2266L149.167 52.0902L150.201 52.0022L150.158 51.504ZM157.646 46.752L158 46.3984L158 46.3984L157.646 46.752ZM150.734 61.152V60.652C150.004 60.652 149.355 60.5195 148.778 60.2631L148.574 60.72L148.371 61.1769C149.09 61.4965 149.881 61.652 150.734 61.652V61.152ZM148.574 60.72L148.771 60.2604C147.516 59.7224 146.986 58.5254 146.986 56.976H146.486H145.986C145.986 58.7386 146.609 60.4216 148.378 61.1796L148.574 60.72ZM146.486 56.976H146.986C146.986 55.4279 147.528 53.7831 148.293 52.393L147.854 52.152L147.416 51.911C146.597 53.4009 145.986 55.2121 145.986 56.976H146.486ZM147.854 52.152L148.29 52.3974C151.109 47.3939 154.493 45.956 156.494 45.956V45.456V44.956C154.032 44.956 150.36 46.6861 147.419 51.9066L147.854 52.152ZM156.494 45.456V45.956C157.086 45.956 157.533 46.0722 157.812 46.2321C158.086 46.3886 158.154 46.5518 158.154 46.68H158.654H159.154C159.154 46.0882 158.791 45.6394 158.309 45.3639C157.832 45.0918 157.199 44.956 156.494 44.956V45.456ZM158.654 46.68H158.154C158.154 46.9892 158.015 47.4108 157.66 47.9103C157.309 48.4039 156.771 48.9405 156.039 49.4699C154.577 50.5279 152.379 51.5289 149.487 52.0933L149.582 52.584L149.678 53.0747C152.69 52.4871 155.028 51.4361 156.626 50.2801C157.424 49.7025 158.047 49.0916 158.475 48.4895C158.898 47.8932 159.154 47.2708 159.154 46.68H158.654ZM149.582 52.584L149.135 52.3604C148.18 54.2717 147.786 55.7906 147.786 56.976H148.286H148.786C148.786 56.0014 149.113 54.6403 150.03 52.8076L149.582 52.584ZM148.286 56.976H147.786C147.786 58.0896 148.128 58.955 148.765 59.5472C149.392 60.1306 150.242 60.3883 151.145 60.4275L151.166 59.928L151.188 59.4285C150.435 59.3957 149.845 59.1854 149.446 58.8148C149.057 58.453 148.786 57.8784 148.786 56.976H148.286ZM151.166 59.928V60.428H151.526V59.928V59.428H151.166V59.928ZM151.526 59.928V60.428C152.961 60.428 154.648 60.024 156.451 59.3661C158.26 58.7059 160.216 57.7783 162.196 56.7045C166.156 54.5569 170.244 51.8066 173.497 49.3851L173.198 48.984L172.9 48.5829C169.673 50.9854 165.625 53.7071 161.719 55.8255C159.766 56.8847 157.856 57.7886 156.108 58.4267C154.354 59.067 152.792 59.428 151.526 59.428V59.928ZM173.198 48.984L173.384 49.4482L173.744 49.3042L173.558 48.84L173.373 48.3758L173.013 48.5198L173.198 48.984ZM173.558 48.84V49.34C173.512 49.34 173.48 49.3288 173.465 49.3224C173.45 49.3159 173.442 49.3094 173.436 49.3051C173.432 49.3015 173.42 49.2913 173.406 49.2692C173.398 49.2579 173.386 49.2374 173.374 49.2076C173.363 49.1799 173.346 49.1269 173.346 49.056H173.846H174.346C174.346 48.8923 174.274 48.7697 174.238 48.7145C174.192 48.6452 174.135 48.5855 174.077 48.5369C173.969 48.4473 173.787 48.34 173.558 48.34V48.84ZM173.846 49.056H173.346C173.346 49.0497 173.347 49.0399 173.351 49.0286C173.354 49.0173 173.358 49.0098 173.359 49.007C173.362 49.0026 173.348 49.0272 173.281 49.072L173.558 49.488L173.836 49.904C174.146 49.6972 174.346 49.4148 174.346 49.056H173.846ZM173.558 49.488L173.255 49.0905C169.777 51.7441 165.532 54.6448 161.448 56.8793C157.338 59.1277 153.476 60.652 150.734 60.652V61.152V61.652C153.753 61.652 157.811 60.0083 161.927 57.7567C166.069 55.4912 170.356 52.5599 173.862 49.8855L173.558 49.488ZM150.158 51.504L150.201 52.0022C151.988 51.8501 153.986 51.0787 155.531 50.1814C156.305 49.7313 156.988 49.2374 157.484 48.7535C157.732 48.5118 157.944 48.2621 158.097 48.0111C158.247 47.7648 158.362 47.4819 158.362 47.184H157.862H157.362C157.362 47.2281 157.343 47.3277 157.243 47.4901C157.147 47.6478 156.996 47.8328 156.785 48.0377C156.366 48.4471 155.756 48.8937 155.028 49.3166C153.567 50.1653 151.713 50.8699 150.116 51.0058L150.158 51.504ZM157.862 47.184H158.362C158.362 46.8606 158.199 46.5969 158 46.3984L157.646 46.752L157.293 47.1056C157.337 47.1491 157.355 47.1785 157.361 47.1916C157.367 47.2025 157.362 47.1984 157.362 47.184H157.862ZM157.646 46.752L158 46.3984C157.756 46.1545 157.338 45.964 156.854 45.964V46.464V46.964C157.091 46.964 157.249 47.0614 157.293 47.1056L157.646 46.752ZM156.854 46.464V45.964C155.999 45.964 154.84 46.3597 153.605 47.1924C152.358 48.0331 150.999 49.3416 149.742 51.2266L150.158 51.504L150.574 51.7813C151.766 49.9944 153.035 48.7829 154.164 48.0216C155.305 47.2523 156.27 46.964 156.854 46.964V46.464ZM166.314 63.024V63.524H166.41L166.5 63.4882L166.314 63.024ZM165.738 62.16L165.27 61.9844L165.238 62.0693V62.16H165.738ZM168.402 56.256L168.831 56.5133L168.833 56.5089L168.402 56.256ZM173.874 47.616L173.52 47.2624L173.507 47.276L173.494 47.2906L173.874 47.616ZM175.242 48.408L174.888 48.0544L174.862 48.0806L174.84 48.1104L175.242 48.408ZM166.962 61.368L166.515 61.1444L167.339 61.6964L166.962 61.368ZM181.722 51L182.217 51.0707L182.222 51.0355V51H181.722ZM181.65 51.504L182.139 51.6088L182.143 51.5918L182.145 51.5747L181.65 51.504ZM184.89 61.368L184.877 61.868H184.89V61.368ZM205.05 48.84V48.34H204.92L204.807 48.4033L205.05 48.84ZM205.338 49.272L205.114 48.8248L205.086 48.8391L205.059 48.8569L205.338 49.272ZM184.458 62.376L184.442 62.8757L184.45 62.876H184.458V62.376ZM179.274 51.864H179.774V51.0008L179.025 51.4303L179.274 51.864ZM166.674 62.88L166.86 63.3442L166.955 63.3061L167.028 63.2336L166.674 62.88ZM166.314 63.024V62.524C166.336 62.524 166.318 62.5312 166.285 62.4959C166.256 62.4644 166.238 62.4213 166.238 62.376H165.738H165.238C165.238 62.9737 165.713 63.524 166.314 63.524V63.024ZM165.738 62.376H166.238V62.16H165.738H165.238V62.376H165.738ZM165.738 62.16L166.206 62.3356C166.86 60.5933 167.347 58.9858 168.831 56.5132L168.402 56.256L167.973 55.9988C166.433 58.5662 165.913 60.2707 165.27 61.9844L165.738 62.16ZM168.402 56.256L168.833 56.5089C170.054 54.4272 171.31 52.3988 172.315 50.8285C172.818 50.0433 173.256 49.3741 173.596 48.8708C173.943 48.3558 174.168 48.0408 174.254 47.9414L173.874 47.616L173.494 47.2906C173.364 47.4432 173.103 47.8122 172.766 48.3119C172.422 48.8234 171.978 49.4997 171.473 50.2895C170.462 51.8692 169.198 53.9088 167.971 56.0031L168.402 56.256ZM173.874 47.616L174.228 47.9696C174.32 47.8772 174.366 47.8483 174.386 47.8382C174.394 47.834 174.405 47.828 174.45 47.828V47.328V46.828C174.279 46.828 174.11 46.858 173.938 46.9438C173.779 47.0237 173.644 47.1388 173.52 47.2624L173.874 47.616ZM174.45 47.328V47.828C174.513 47.828 174.637 47.8685 174.756 47.97C174.811 48.0165 174.849 48.0629 174.87 48.0993C174.893 48.1379 174.886 48.1445 174.886 48.12H175.386H175.886C175.886 47.7269 175.632 47.4024 175.404 47.208C175.163 47.0035 174.819 46.828 174.45 46.828V47.328ZM175.386 48.12H174.886C174.886 48.0892 174.89 48.0667 174.892 48.0557C174.894 48.0437 174.896 48.0362 174.897 48.0336C174.899 48.0292 174.898 48.0319 174.894 48.0404C174.89 48.0483 174.885 48.0558 174.882 48.0611C174.877 48.0674 174.879 48.064 174.888 48.0544L175.242 48.408L175.596 48.7616C175.681 48.6761 175.746 48.5726 175.788 48.4876C175.823 48.4184 175.886 48.2774 175.886 48.12H175.386ZM175.242 48.408L174.84 48.1104C171.955 52.0056 168.694 56.7852 166.515 61.1444L166.962 61.368L167.409 61.5916C169.55 57.3108 172.769 52.5864 175.644 48.7056L175.242 48.408ZM166.962 61.368L167.339 61.6964C168.305 60.5874 170.83 57.7937 173.531 55.281C174.882 54.0239 176.265 52.8477 177.512 51.9889C178.136 51.5595 178.715 51.2165 179.231 50.9824C179.753 50.7455 180.177 50.636 180.498 50.636V50.136V49.636C179.973 49.636 179.4 49.8077 178.818 50.0717C178.23 50.3385 177.597 50.7161 176.945 51.1653C175.641 52.0638 174.216 53.2771 172.849 54.5489C170.114 57.0943 167.563 59.9166 166.585 61.0396L166.962 61.368ZM180.498 50.136V50.636C180.808 50.636 180.869 50.6485 180.941 50.696L181.218 50.28L181.495 49.864C181.135 49.6235 180.764 49.636 180.498 49.636V50.136ZM181.218 50.28L180.941 50.696C180.98 50.7223 181.018 50.7451 181.049 50.763C181.083 50.7831 181.104 50.7949 181.128 50.8096C181.173 50.8369 181.19 50.8508 181.197 50.8586C181.201 50.8623 181.203 50.8642 181.206 50.8728C181.211 50.8847 181.222 50.9213 181.222 51H181.722H182.222C182.222 50.6373 182.112 50.3586 181.905 50.1514C181.813 50.0602 181.718 49.9976 181.648 49.9551C181.557 49.8998 181.541 49.8945 181.495 49.864L181.218 50.28ZM181.722 51L181.227 50.9293L181.155 51.4333L181.65 51.504L182.145 51.5747L182.217 51.0707L181.722 51ZM181.65 51.504L181.161 51.3992C180.938 52.4405 180.79 53.6996 180.79 54.96H181.29H181.79C181.79 53.7724 181.93 52.5835 182.139 51.6088L181.65 51.504ZM181.29 54.96H180.79C180.79 56.581 181.028 58.2482 181.639 59.539C182.259 60.8467 183.298 61.8252 184.877 61.8678L184.89 61.368L184.904 60.8682C183.818 60.8388 183.058 60.1973 182.543 59.111C182.02 58.0078 181.79 56.507 181.79 54.96H181.29ZM184.89 61.368V61.868C186.338 61.868 188.074 61.1833 189.88 60.1932C191.703 59.1937 193.668 57.8416 195.591 56.4245C197.512 55.0081 199.413 53.5105 201.09 52.2274C202.781 50.9341 204.233 49.8681 205.293 49.2767L205.05 48.84L204.807 48.4033C203.672 49.0359 202.162 50.1479 200.482 51.4331C198.789 52.7285 196.91 54.2099 194.997 55.6195C193.086 57.0284 191.163 58.3493 189.399 59.3163C187.619 60.2927 186.07 60.868 184.89 60.868V61.368ZM205.05 48.84V49.34H205.266V48.84V48.34H205.05V48.84ZM205.266 48.84V49.34C205.264 49.34 205.233 49.341 205.187 49.31C205.161 49.2926 205.126 49.262 205.097 49.2134C205.068 49.1626 205.054 49.1069 205.054 49.056H205.554H206.054C206.054 48.79 205.911 48.5908 205.741 48.478C205.587 48.375 205.412 48.34 205.266 48.34V48.84ZM205.554 49.056H205.054C205.054 48.9126 205.128 48.8289 205.146 48.8104C205.164 48.793 205.163 48.8005 205.114 48.8248L205.338 49.272L205.562 49.7192C205.657 49.6714 205.764 49.607 205.854 49.5176C205.944 49.4271 206.054 49.2714 206.054 49.056H205.554ZM205.338 49.272L205.059 48.8569C203.78 49.7157 202.176 50.9707 200.421 52.3546C198.661 53.7437 196.74 55.2699 194.809 56.6902C192.877 58.1114 190.948 59.4159 189.176 60.3634C187.389 61.3186 185.824 61.876 184.602 61.876V62.376V62.876C186.08 62.876 187.827 62.2183 189.647 61.2453C191.482 60.2646 193.455 58.9276 195.401 57.4958C197.349 56.0631 199.285 54.5248 201.041 53.1397C202.803 51.7493 204.376 50.5203 205.617 49.6871L205.338 49.272ZM184.602 62.376V61.876H184.458V62.376V62.876H184.602V62.376ZM184.458 62.376L184.474 61.8763C183.44 61.8434 182.654 61.5307 182.046 61.0465C181.431 60.5573 180.968 59.8706 180.626 59.0514C179.937 57.4006 179.774 55.3054 179.774 53.52H179.274H178.774C178.774 55.3346 178.935 57.5954 179.704 59.4366C180.091 60.3634 180.641 61.2067 181.423 61.829C182.212 62.4563 183.208 62.8366 184.442 62.8757L184.458 62.376ZM179.274 53.52H179.774V51.864H179.274H178.774V53.52H179.274ZM179.274 51.864L179.025 51.4303C174.054 54.2812 168.589 60.2577 166.32 62.5264L166.674 62.88L167.028 63.2336C169.367 60.8943 174.702 55.0628 179.523 52.2977L179.274 51.864ZM166.674 62.88L166.488 62.4158L166.128 62.5598L166.314 63.024L166.5 63.4882L166.86 63.3442L166.674 62.88ZM191.907 84.12L191.44 84.2995L191.449 84.322L191.459 84.3436L191.907 84.12ZM222.075 22.056L222.489 22.3355L222.911 21.7093L222.17 21.5652L222.075 22.056ZM179.163 22.92L179.348 23.3842L179.389 23.3678L179.427 23.3443L179.163 22.92ZM178.803 23.064V23.564H178.899L178.988 23.5282L178.803 23.064ZM178.875 22.272L178.609 21.8481L178.597 21.856L178.875 22.272ZM222.939 20.688L222.85 21.1802L223.167 21.2369L223.35 20.9726L222.939 20.688ZM234.099 5.496L233.745 5.14244L233.725 5.16285L233.707 5.18546L234.099 5.496ZM236.043 6.36L235.689 6.00644L235.665 6.03065L235.644 6.05794L236.043 6.36ZM225.459 21.192L225.04 20.9186L224.599 21.5943L225.4 21.6886L225.459 21.192ZM228.987 21.768L229.066 21.2744L229.057 21.273L229.049 21.2719L228.987 21.768ZM274.635 20.688L274.357 20.272L274.341 20.2827L274.326 20.2946L274.635 20.688ZM275.139 21.264L274.861 20.848L274.846 20.8583L274.831 20.8697L275.139 21.264ZM228.627 23.208L228.711 22.7151L228.709 22.7148L228.627 23.208ZM224.523 22.488L224.597 21.9935L224.295 21.9482L224.117 22.1962L224.523 22.488ZM192.627 83.76L193.112 83.6387L193.101 83.5966L193.084 83.5569L192.627 83.76ZM192.699 84.048H193.199V83.9864L193.184 83.9267L192.699 84.048ZM192.339 84.552V84.052C192.446 84.052 192.494 84.1079 192.476 84.0904C192.469 84.0831 192.453 84.0653 192.431 84.0317C192.409 83.9984 192.383 83.9541 192.354 83.8964L191.907 84.12L191.459 84.3436C191.543 84.5111 191.644 84.6721 191.769 84.7976C191.896 84.9241 192.087 85.052 192.339 85.052V84.552ZM191.907 84.12L192.373 83.9405C192.043 83.0804 191.903 82.0664 191.903 80.952H191.403H190.903C190.903 82.1416 191.051 83.2876 191.44 84.2995L191.907 84.12ZM191.403 80.952H191.903C191.903 77.3342 193.374 72.4772 195.733 67.0274C198.085 61.5931 201.293 55.6278 204.713 49.8135C211.552 38.1844 219.208 27.2034 222.489 22.3355L222.075 22.056L221.66 21.7765C218.389 26.6286 210.71 37.6436 203.851 49.3065C200.421 55.1382 197.19 61.1429 194.815 66.6301C192.447 72.1018 190.903 77.1178 190.903 80.952H191.403ZM222.075 22.056L222.17 21.5652C214.402 20.0548 205.355 18.316 196.875 18.316V18.816V19.316C205.242 19.316 214.195 21.0332 221.979 22.5468L222.075 22.056ZM196.875 18.816V18.316C190.282 18.316 183.981 19.3283 178.898 22.4957L179.163 22.92L179.427 23.3443C184.281 20.3197 190.363 19.316 196.875 19.316V18.816ZM179.163 22.92L178.977 22.4558L178.617 22.5998L178.803 23.064L178.988 23.5282L179.348 23.3842L179.163 22.92ZM178.803 23.064V22.564C178.804 22.564 178.827 22.5643 178.862 22.579C178.898 22.5943 178.933 22.62 178.962 22.6539C179.015 22.7178 179.015 22.7737 179.015 22.776H178.515H178.015C178.015 22.9223 178.05 23.1221 178.194 23.2941C178.35 23.4821 178.574 23.564 178.803 23.564V23.064ZM178.515 22.776H179.015C179.015 22.7992 179.012 22.8161 179.01 22.8255C179.008 22.8352 179.006 22.8401 179.006 22.8403C179.005 22.8407 179.007 22.8379 179.01 22.8324C179.013 22.8269 179.017 22.8196 179.023 22.8107C179.05 22.7726 179.095 22.7261 179.152 22.688L178.875 22.272L178.597 21.856C178.438 21.9619 178.303 22.0954 178.204 22.2373C178.114 22.3664 178.015 22.5576 178.015 22.776H178.515ZM178.875 22.272L179.14 22.6957C184.427 19.3828 191.086 18.236 198.171 18.236V17.736V17.236C190.999 17.236 184.123 18.3932 178.609 21.8483L178.875 22.272ZM198.171 17.736V18.236C206.47 18.236 215.21 19.8106 222.85 21.1802L222.939 20.688L223.027 20.1958C215.404 18.8294 206.575 17.236 198.171 17.236V17.736ZM222.939 20.688L223.35 20.9726C225.938 17.2338 231.475 9.61124 234.491 5.80654L234.099 5.496L233.707 5.18546C230.674 9.01275 225.123 16.6542 222.528 20.4034L222.939 20.688ZM234.099 5.496L234.452 5.84955C234.649 5.65232 234.883 5.56399 235.107 5.56399V5.06399V4.56399C234.61 4.56399 234.124 4.76367 233.745 5.14244L234.099 5.496ZM235.107 5.06399V5.56399C235.298 5.56399 235.489 5.62576 235.621 5.71402C235.764 5.8094 235.759 5.87352 235.759 5.856H236.259H236.759C236.759 5.40648 236.465 5.07459 236.176 4.88197C235.876 4.68224 235.492 4.56399 235.107 4.56399V5.06399ZM236.259 5.856H235.759C235.759 5.85195 235.759 5.85759 235.756 5.87224C235.753 5.88615 235.748 5.90351 235.74 5.9223C235.724 5.96243 235.704 5.99132 235.689 6.00644L236.043 6.36L236.396 6.71355C236.64 6.46965 236.759 6.12368 236.759 5.856H236.259ZM236.043 6.36L235.644 6.05794C232.256 10.5274 227.353 17.3774 225.04 20.9186L225.459 21.192L225.877 21.4654C228.173 17.9505 233.061 11.1206 236.441 6.66205L236.043 6.36ZM225.459 21.192L225.4 21.6886C225.994 21.7584 226.573 21.8635 227.159 21.9717C227.74 22.079 228.331 22.19 228.925 22.2641L228.987 21.768L229.049 21.2719C228.49 21.202 227.929 21.097 227.34 20.9883C226.757 20.8805 226.147 20.7696 225.517 20.6954L225.459 21.192ZM228.987 21.768L228.907 22.2616C235.603 23.3416 246.726 25.004 256.635 25.004V24.504V24.004C246.815 24.004 235.762 22.3544 229.066 21.2744L228.987 21.768ZM256.635 24.504V25.004C260.396 25.004 264.012 24.7692 267.16 24.1671C270.299 23.5665 273.017 22.5923 274.943 21.0814L274.635 20.688L274.326 20.2946C272.58 21.6637 270.042 22.5975 266.972 23.1849C263.909 23.7708 260.361 24.004 256.635 24.004V24.504ZM274.635 20.688L274.912 21.104C275.013 21.0364 275.075 21.0013 275.117 20.9829C275.153 20.9668 275.155 20.972 275.139 20.972V20.472V19.972C274.827 19.972 274.569 20.1309 274.357 20.272L274.635 20.688ZM275.139 20.472V20.972C275.048 20.972 274.999 20.9317 274.983 20.9156C274.967 20.8994 274.927 20.8506 274.927 20.76H275.427H275.927C275.927 20.5254 275.814 20.3326 275.69 20.2084C275.566 20.0843 275.373 19.972 275.139 19.972V20.472ZM275.427 20.76H274.927C274.927 20.7539 274.927 20.7674 274.916 20.7884C274.908 20.8057 274.892 20.8273 274.861 20.848L275.139 21.264L275.416 21.68C275.788 21.432 275.927 21.0496 275.927 20.76H275.427ZM275.139 21.264L274.831 20.8697C272.797 22.4555 269.845 23.5335 266.314 24.211C262.792 24.8869 258.74 25.156 254.547 25.156V25.656V26.156C258.777 26.156 262.897 25.8851 266.503 25.193C270.101 24.5025 273.232 23.3845 275.446 21.6583L275.139 21.264ZM254.547 25.656V25.156C245.155 25.156 235.034 23.793 228.711 22.7151L228.627 23.208L228.543 23.7009C234.891 24.783 245.074 26.156 254.547 26.156V25.656ZM228.627 23.208L228.709 22.7148C227.452 22.5054 226.03 22.2086 224.597 21.9935L224.523 22.488L224.448 22.9825C225.895 23.1994 227.209 23.4786 228.544 23.7012L228.627 23.208ZM224.523 22.488L224.117 22.1962C220.622 27.0602 212.531 38.5563 205.312 50.4526C201.703 56.4 198.306 62.4568 195.81 67.8402C193.325 73.2001 191.695 77.9693 191.695 81.312H192.195H192.695C192.695 78.2107 194.232 73.6199 196.717 68.2608C199.191 62.9252 202.567 56.904 206.167 50.9714C213.366 39.1077 221.44 27.6358 224.929 22.7798L224.523 22.488ZM192.195 81.312H191.695C191.695 82.2906 191.844 83.2302 192.17 83.9631L192.627 83.76L193.084 83.5569C192.833 82.9938 192.695 82.2054 192.695 81.312H192.195ZM192.627 83.76L192.142 83.8813L192.214 84.1693L192.699 84.048L193.184 83.9267L193.112 83.6387L192.627 83.76ZM192.699 84.048H192.199C192.199 84.1148 192.181 84.1339 192.19 84.1213C192.196 84.1132 192.211 84.0948 192.24 84.0783C192.271 84.0608 192.306 84.052 192.339 84.052V84.552V85.052C192.634 85.052 192.868 84.8971 193.009 84.6947C193.144 84.5021 193.199 84.2692 193.199 84.048H192.699ZM211.878 62.664L212.214 63.0341L212.224 63.0244L211.878 62.664ZM220.518 57.48L220.708 57.9425L220.97 57.8347L221.012 57.5542L220.518 57.48ZM221.886 48.12L221.417 47.9444L221.416 47.9471L221.886 48.12ZM228.366 44.232L228.859 44.1498L228.849 44.0904L228.825 44.035L228.366 44.232ZM228.438 44.664H228.938V44.6226L228.931 44.5818L228.438 44.664ZM223.398 48.984L223.212 48.5198L222.972 48.6155L222.912 48.8662L223.398 48.984ZM222.39 56.76L221.896 56.6831L221.774 57.4617L222.531 57.2398L222.39 56.76ZM242.91 48.84L243.237 49.2175L243.251 49.206L243.263 49.1936L242.91 48.84ZM243.342 48.984L243.816 49.1421L243.842 49.0651V48.984H243.342ZM243.27 49.2L243.606 49.57L243.703 49.4821L243.744 49.3581L243.27 49.2ZM222.174 57.768L221.99 57.3029L221.731 57.405L221.682 57.6786L222.174 57.768ZM223.614 48.048L223.126 47.9372L222.903 48.9204L223.821 48.5032L223.614 48.048ZM227.79 44.664H228.29V44.6145L228.28 44.5659L227.79 44.664ZM220.374 58.56L220.87 58.6213L220.974 57.7815L220.188 58.0958L220.374 58.56ZM212.31 63.456L211.956 63.1024L211.95 63.1087L212.31 63.456ZM210.51 70.296L210.83 69.9119L210.82 69.9037L210.81 69.896L210.51 70.296ZM212.022 71.736V71.236C211.121 71.236 210.384 70.9476 209.877 70.4782C209.374 70.0121 209.066 69.3382 209.066 68.496H208.566H208.066C208.066 69.5978 208.477 70.5439 209.198 71.2118C209.915 71.8764 210.906 72.236 212.022 72.236V71.736ZM208.566 68.496H209.066C209.066 67.1034 209.898 65.1395 212.214 63.034L211.878 62.664L211.541 62.294C209.105 64.5085 208.066 66.7206 208.066 68.496H208.566ZM211.878 62.664L212.224 63.0244C214.037 61.2817 216.712 59.5835 220.708 57.9425L220.518 57.48L220.328 57.0175C216.259 58.6885 213.463 60.4463 211.531 62.3036L211.878 62.664ZM220.518 57.48L221.012 57.5542C221.23 56.0993 221.325 54.3996 221.483 52.7952C221.645 51.163 221.874 49.5972 222.355 48.2929L221.886 48.12L221.416 47.9471C220.889 49.3788 220.651 51.053 220.488 52.6968C220.323 54.3684 220.237 55.9807 220.023 57.4058L220.518 57.48ZM221.886 48.12L222.354 48.2956C222.86 46.9468 223.721 45.8662 224.639 45.125C225.57 44.373 226.506 44.012 227.142 44.012V43.512V43.012C226.193 43.012 225.041 43.515 224.011 44.347C222.967 45.1898 221.992 46.4132 221.417 47.9444L221.886 48.12ZM227.142 43.512V44.012C227.37 44.012 227.531 44.055 227.643 44.1183C227.748 44.1777 227.838 44.2705 227.906 44.429L228.366 44.232L228.825 44.035C228.677 43.6895 228.444 43.4223 228.135 43.2477C227.833 43.077 227.49 43.012 227.142 43.012V43.512ZM228.366 44.232L227.872 44.3142L227.944 44.7462L228.438 44.664L228.931 44.5818L228.859 44.1498L228.366 44.232ZM228.438 44.664H227.938C227.938 44.9472 227.767 45.3165 227.377 45.7568C226.998 46.1847 226.472 46.613 225.903 47.0069C224.764 47.7957 223.537 48.3898 223.212 48.5198L223.398 48.984L223.583 49.4482C223.978 49.2902 225.272 48.6603 226.472 47.8291C227.073 47.413 227.672 46.9323 228.126 46.4197C228.568 45.9195 228.938 45.3168 228.938 44.664H228.438ZM223.398 48.984L222.912 48.8662C222.615 50.0917 222.486 51.2565 222.369 52.5011C222.251 53.75 222.145 55.0818 221.896 56.6831L222.39 56.76L222.884 56.8369C223.139 55.1982 223.248 53.83 223.364 52.5949C223.481 51.3555 223.605 50.2523 223.884 49.1018L223.398 48.984ZM222.39 56.76L222.531 57.2398C226.459 56.0865 230.917 54.697 234.739 53.2965C236.649 52.5963 238.408 51.891 239.865 51.2087C241.311 50.5313 242.498 49.8594 243.237 49.2175L242.91 48.84L242.582 48.4625C241.953 49.0086 240.872 49.6327 239.441 50.3031C238.02 50.9685 236.291 51.6627 234.395 52.3575C230.603 53.747 226.169 55.1295 222.249 56.2802L222.39 56.76ZM242.91 48.84L243.263 49.1936C243.251 49.2056 243.233 49.2205 243.209 49.2342C243.184 49.2479 243.16 49.2568 243.139 49.2621C243.119 49.2671 243.105 49.268 243.103 49.2681C243.103 49.2682 243.105 49.268 243.126 49.268V48.768V48.268C243.046 48.268 242.784 48.259 242.556 48.4864L242.91 48.84ZM243.126 48.768V49.268C243.121 49.268 243.025 49.2664 242.934 49.1756C242.843 49.0847 242.842 48.9891 242.842 48.984H243.342H243.842C243.842 48.8349 243.804 48.6313 243.641 48.4684C243.478 48.3056 243.275 48.268 243.126 48.268V48.768ZM243.342 48.984L242.867 48.8259L242.795 49.0419L243.27 49.2L243.744 49.3581L243.816 49.1421L243.342 48.984ZM243.27 49.2L242.933 48.83C242 49.6785 240.583 50.5035 238.862 51.3C237.148 52.0931 235.166 52.8429 233.125 53.5517C229.076 54.9575 224.732 56.2204 221.99 57.3029L222.174 57.768L222.357 58.2331C225.087 57.1556 229.311 55.9344 233.453 54.4963C235.507 53.7831 237.525 53.0209 239.282 52.2075C241.033 51.3975 242.559 50.5215 243.606 49.57L243.27 49.2ZM222.174 57.768L221.682 57.6786C219.824 67.8951 215.033 71.236 212.022 71.236V71.736V72.236C215.779 72.236 220.779 68.2329 222.666 57.8574L222.174 57.768ZM223.614 48.048L223.821 48.5032C224.239 48.3131 225.307 47.7602 226.276 47.114C226.76 46.7915 227.238 46.4335 227.6 46.0746C227.782 45.8952 227.947 45.7034 228.069 45.5041C228.189 45.3085 228.29 45.0703 228.29 44.808H227.79H227.29C227.29 44.8157 227.285 44.87 227.217 44.981C227.151 45.0883 227.045 45.2171 226.897 45.3639C226.6 45.6575 226.183 45.9745 225.721 46.282C224.801 46.8958 223.78 47.4229 223.407 47.5928L223.614 48.048ZM227.79 44.808H228.29V44.664H227.79H227.29V44.808H227.79ZM227.79 44.664L228.28 44.5659C228.228 44.3042 228.11 44.0625 227.899 43.89C227.689 43.7178 227.441 43.66 227.214 43.66V44.16V44.66C227.275 44.66 227.279 44.6742 227.266 44.664C227.253 44.6535 227.28 44.6638 227.299 44.7621L227.79 44.664ZM227.214 44.16V43.66C226.791 43.66 226.351 43.8735 225.968 44.1291C225.568 44.3965 225.157 44.7617 224.778 45.1694C224.032 45.971 223.334 47.0207 223.126 47.9372L223.614 48.048L224.101 48.1588C224.253 47.4913 224.815 46.597 225.51 45.8506C225.85 45.4843 226.204 45.1745 226.524 44.9604C226.862 44.7345 227.096 44.66 227.214 44.66V44.16ZM212.022 70.872V71.372C212.964 71.372 213.937 70.937 214.852 70.2491C215.774 69.5562 216.68 68.5757 217.498 67.4056C219.135 65.0665 220.463 61.9119 220.87 58.6213L220.374 58.56L219.877 58.4987C219.492 61.6161 218.228 64.6175 216.679 66.8324C215.905 67.9393 215.069 68.8353 214.251 69.4497C213.427 70.069 212.663 70.372 212.022 70.372V70.872ZM220.374 58.56L220.188 58.0958C217.646 59.1127 214.115 60.9432 211.956 63.1024L212.31 63.456L212.663 63.8096C214.68 61.7928 218.062 60.0233 220.559 59.0242L220.374 58.56ZM212.31 63.456L211.95 63.1087C209.901 65.2309 209.074 67.0068 209.074 68.352H209.574H210.074C210.074 67.3932 210.686 65.8571 212.669 63.8033L212.31 63.456ZM209.574 68.352H209.074C209.074 68.8861 209.177 69.3449 209.381 69.7417C209.585 70.1381 209.875 70.4451 210.21 70.696L210.51 70.296L210.81 69.896C210.568 69.7149 210.39 69.5179 210.27 69.2843C210.15 69.0511 210.074 68.7539 210.074 68.352H209.574ZM210.51 70.296L210.19 70.6801C210.696 71.1023 211.31 71.372 212.022 71.372V70.872V70.372C211.581 70.372 211.187 70.2097 210.83 69.9119L210.51 70.296Z" fill="#8B9B68" mask="url(#path-1-outside-1_13_140)"/>
</svg>
