<svg width="271" height="111" viewBox="0 0 271 111" fill="none" xmlns="http://www.w3.org/2000/svg">
<mask id="path-1-outside-1_2093_442" maskUnits="userSpaceOnUse" x="0" y="0" width="271" height="111" fill="black">
<rect fill="white" width="271" height="111"/>
<path d="M118.756 100.952C109.396 100.952 101.116 97.064 95.2117 86.552C87.5077 72.728 81.8917 49.832 68.2117 49.832L67.1317 49.904C57.6997 62.072 40.7797 81.944 28.7557 81.944H28.3237C27.9637 81.944 27.8197 81.656 27.8197 81.44C27.8197 81.224 28.0357 80.936 28.3957 80.936H28.8277C48.3397 80.936 78.9397 28.664 90.8917 14.192C59.7157 20.816 16.2997 16.928 1.89969 44.288C1.82769 44.576 1.61169 44.648 1.46769 44.648C1.32369 44.648 1.17969 44.504 1.17969 44.288C1.17969 44.144 1.17969 44 1.25169 43.856C12.2677 22.904 38.8357 19.808 65.3317 16.712C74.9077 15.56 83.1877 14.696 91.9717 12.752C91.9717 12.752 101.404 1.304 106.588 1.304C107.452 1.304 108.244 1.592 108.748 2.384C109.036 2.74399 109.18 3.176 109.18 3.608C109.18 6.488 104.14 11.096 96.1477 13.04L93.8437 13.616L82.9717 28.16C88.7317 23.624 97.8037 19.808 104.14 19.808C108.1 19.808 111.052 21.32 111.34 25.208L111.412 26.288C111.412 41.624 82.4677 47.816 73.0357 48.968C84.7717 52.424 89.1637 71.504 95.1397 83.744C100.972 95.552 109.684 99.944 119.836 99.944C123.508 99.944 127.324 99.368 131.284 98.36L131.572 98.288C131.86 98.288 131.932 98.432 131.932 98.576C131.932 98.72 131.788 98.936 131.356 99.008C127.036 100.232 122.788 100.952 118.756 100.952ZM68.1397 48.536C78.7237 47.096 109.108 40.256 109.396 25.712V25.568C109.396 22.544 107.02 21.248 103.42 21.248C96.8677 21.248 86.4277 25.712 79.8757 32.552C76.1317 37.88 72.1717 43.28 68.1397 48.536ZM95.2117 12.032C103.924 9.944 108.028 5.624 108.028 3.824C108.028 3.32 107.668 3.032 107.092 3.032C105.364 3.032 101.332 5.336 95.2117 12.032ZM107.785 63.152C106.993 63.152 106.273 63.008 105.625 62.72C104.113 62.072 103.537 60.632 103.537 58.976C103.537 57.32 104.113 55.592 104.905 54.152C107.785 49.04 111.313 47.456 113.545 47.456C114.841 47.456 115.705 47.96 115.705 48.68C115.705 50.48 112.537 53.432 106.633 54.584C105.697 56.456 105.337 57.896 105.337 58.976C105.337 60.992 106.561 61.856 108.217 61.928H108.577C113.977 61.928 123.769 55.808 130.249 50.984L130.609 50.84C130.753 50.84 130.897 50.984 130.897 51.056C130.897 51.2 130.825 51.344 130.609 51.488C123.625 56.816 113.545 63.152 107.785 63.152ZM107.209 53.504C110.593 53.216 114.913 50.552 114.913 49.184C114.913 49.04 114.841 48.896 114.697 48.752C114.553 48.608 114.265 48.464 113.905 48.464C112.465 48.464 109.657 49.832 107.209 53.504ZM100.613 109.592C100.181 109.592 99.8208 109.592 99.3888 109.448C97.4448 108.872 96.6528 107.648 96.6528 105.992C96.6528 99.8 107.885 87.776 110.693 84.968C123.653 72.152 135.533 64.016 136.685 63.152L142.445 53.504C139.781 56.096 132.941 60.632 129.125 60.632C128.333 60.632 127.613 60.344 127.109 59.84C126.533 59.192 126.317 58.4 126.317 57.608C126.317 55.016 128.621 51.992 130.637 50.48C132.941 48.824 135.461 47.888 137.909 47.888C140.285 47.888 142.445 48.752 144.101 50.696C144.677 49.904 145.109 49.04 145.469 48.752C145.541 48.68 145.685 48.608 145.829 48.608C146.261 48.608 146.837 48.824 146.837 49.184L146.765 49.328C144.605 53.216 141.869 57.896 139.565 61.712C143.525 59.192 150.149 55.52 157.925 50.912L158.141 50.84C158.285 50.84 158.429 50.984 158.429 51.128L158.285 51.416C150.509 56.312 145.901 58.4 138.413 63.584L134.381 70.28C130.997 76.184 111.413 109.592 100.613 109.592ZM100.973 108.512C111.197 108.512 130.061 74.24 135.389 65.24C128.333 70.28 118.973 77.984 111.413 85.688C108.245 88.928 97.7328 100.304 97.7328 105.704C97.7328 107 98.3088 107.936 99.8208 108.368C100.181 108.44 100.541 108.512 100.973 108.512ZM129.845 59.48C133.301 59.48 140.789 54.152 143.597 51.488C142.013 49.616 140.285 48.896 138.629 48.896C136.181 48.896 133.805 50.408 131.645 52.208C130.349 53.288 127.973 55.88 127.973 57.824C127.973 58.256 128.117 58.616 128.405 58.976C128.765 59.336 129.197 59.48 129.845 59.48ZM164.753 44.576C164.393 44.576 164.033 44.504 163.817 44.36C163.529 44.144 163.313 43.784 163.313 43.424C163.313 43.136 163.457 42.776 163.601 42.56C163.889 42.272 164.105 42.2 164.393 42.2C164.825 42.2 165.185 42.416 165.401 42.704C165.617 42.92 165.833 43.208 165.833 43.568C165.833 43.784 165.761 44 165.617 44.216C165.473 44.504 165.113 44.576 164.753 44.576ZM156.977 63.584C156.545 63.584 156.041 63.512 155.681 63.296C154.529 62.648 154.025 61.496 154.025 60.128C154.025 55.664 158.993 48.464 160.937 46.304C161.081 46.16 161.225 46.088 161.369 46.088C161.873 46.088 162.377 46.592 162.377 47.024L162.233 47.312C159.497 50.408 155.249 56.744 155.249 60.128C155.249 61.136 155.609 61.856 156.329 62.216C156.617 62.36 156.977 62.432 157.409 62.432C162.233 62.432 173.465 52.496 177.929 50.912L178.289 50.84C178.505 50.84 178.649 50.912 178.649 51.056C178.649 51.2 178.505 51.416 178.145 51.488C173.681 53.144 162.305 63.584 156.977 63.584ZM168.299 73.736C166.283 73.736 164.843 72.44 164.843 70.496C164.843 68.912 165.779 66.824 168.155 64.664C170.027 62.864 172.763 61.136 176.795 59.48C177.227 56.6 177.155 52.856 178.163 50.12C179.243 47.24 181.835 45.512 183.419 45.512C183.995 45.512 184.427 45.728 184.643 46.232L184.715 46.664C184.715 48.536 180.395 50.696 179.675 50.984C179.099 53.36 179.171 55.52 178.667 58.76C186.515 56.456 196.451 53.216 199.187 50.84C199.259 50.768 199.331 50.768 199.403 50.768C199.547 50.768 199.619 50.84 199.619 50.984L199.547 51.2C195.587 54.8 183.923 57.608 178.451 59.768C176.579 70.064 171.683 73.736 168.299 73.736ZM179.891 50.048C180.683 49.688 184.067 47.888 184.067 46.808V46.664C183.995 46.304 183.779 46.16 183.491 46.16C182.411 46.16 180.251 48.464 179.891 50.048ZM168.299 72.872C171.467 72.872 175.859 66.968 176.651 60.56C174.131 61.568 170.675 63.368 168.587 65.456C166.571 67.544 165.851 69.2 165.851 70.352C165.851 71.288 166.211 71.864 166.787 72.296C167.219 72.656 167.723 72.872 168.299 72.872ZM186.444 86.552C186.3 86.552 186.156 86.408 186.012 86.12C185.652 85.184 185.508 84.104 185.508 82.952C185.508 68.048 209.628 33.776 216.18 24.056C208.404 22.544 199.404 20.816 190.98 20.816C184.428 20.816 178.236 21.824 173.268 24.92L172.908 25.064C172.692 25.064 172.62 24.92 172.62 24.776C172.62 24.632 172.764 24.416 172.98 24.272C178.38 20.888 185.148 19.736 192.276 19.736C200.628 19.736 209.412 21.32 217.044 22.688C219.636 18.944 225.18 11.312 228.204 7.496C228.492 7.208 228.852 7.06399 229.212 7.06399C229.788 7.06399 230.364 7.424 230.364 7.856C230.364 8 230.292 8.216 230.148 8.36C226.764 12.824 221.868 19.664 219.564 23.192C220.788 23.336 221.94 23.624 223.092 23.768C229.788 24.848 240.876 26.504 250.74 26.504C258.228 26.504 265.068 25.568 268.74 22.688C268.956 22.544 269.1 22.472 269.244 22.472C269.388 22.472 269.532 22.616 269.532 22.76C269.532 22.904 269.46 23.12 269.244 23.264C264.996 26.576 257.076 27.656 248.652 27.656C239.22 27.656 229.068 26.288 222.732 25.208C221.436 24.992 220.068 24.704 218.628 24.488C211.644 34.208 186.3 70.424 186.3 83.312C186.3 84.248 186.444 85.112 186.732 85.76L186.804 86.048C186.804 86.336 186.66 86.552 186.444 86.552ZM215.127 66.032L214.263 65.888C213.111 65.528 212.679 64.664 212.679 63.584C212.679 60.776 215.487 56.312 216.135 54.296C216.279 53.792 216.423 53.216 216.423 52.784C216.423 52.28 216.279 51.92 215.991 51.704C215.487 51.416 215.271 50.984 215.271 50.48C215.271 48.752 217.647 46.088 219.447 46.088L219.807 46.16C220.095 46.232 220.239 46.376 220.239 46.664C220.239 47.744 218.007 50.192 216.927 50.84C217.503 51.344 217.719 52.064 217.719 52.856C217.719 56.168 213.759 61.208 213.759 63.512C213.759 64.16 213.975 64.52 214.623 64.736C214.839 64.808 215.055 64.808 215.343 64.808C220.239 64.808 235.503 53.792 239.463 51.056C239.679 50.912 239.823 50.912 239.967 50.912C240.111 50.912 240.183 50.912 240.183 51.056C240.183 51.128 240.111 51.344 239.823 51.488C235.503 54.512 220.671 66.032 215.127 66.032ZM216.567 50.192C217.647 49.616 219.159 47.528 219.159 47.24C219.159 47.168 219.159 47.168 219.087 47.168C218.295 47.6 216.567 49.616 216.567 50.12V50.192ZM212.326 109.736C211.75 109.736 211.174 109.664 210.598 109.448C207.934 108.512 206.854 106.496 206.854 103.904C206.854 99.008 210.742 92.168 214.63 87.416C225.214 74.672 240.406 65.6 245.59 62.792C247.318 59.552 248.758 56.672 250.486 53.144C246.598 57.104 241.198 62.072 237.958 62.072C237.166 62.072 236.446 61.784 236.014 61.064C235.726 60.632 235.51 59.984 235.51 59.264C235.51 56.744 237.31 52.856 241.27 48.392C241.414 48.248 241.558 48.176 241.774 48.176C242.134 48.176 242.494 48.392 242.494 48.68L242.35 48.968C240.982 50.552 237.094 57.032 237.094 59.768C237.094 60.056 237.094 60.272 237.166 60.416C237.382 60.992 237.742 61.28 238.318 61.28C240.622 61.28 245.806 56.6 252.43 50.12C252.574 49.976 252.718 49.904 252.862 49.904C253.15 49.904 253.51 50.264 253.51 50.552L253.438 50.84L248.038 61.424C255.094 57.104 258.766 55.448 266.83 50.984C266.974 50.84 267.118 50.84 267.262 50.84C267.406 50.84 267.478 50.912 267.478 51.056C267.478 51.2 267.406 51.344 267.118 51.488C258.766 56.384 254.374 58.544 247.318 63.008C241.846 73.376 224.206 109.736 212.326 109.736ZM212.398 108.44C223.126 108.44 239.902 73.736 244.726 64.592C234.07 70.712 223.198 79.352 216.286 87.56C212.398 92.24 208.078 99.296 208.078 103.976C208.078 105.992 208.87 107.504 210.886 108.224C211.39 108.368 211.894 108.44 212.398 108.44Z"/>
</mask>
<path d="M118.756 100.952C109.396 100.952 101.116 97.064 95.2117 86.552C87.5077 72.728 81.8917 49.832 68.2117 49.832L67.1317 49.904C57.6997 62.072 40.7797 81.944 28.7557 81.944H28.3237C27.9637 81.944 27.8197 81.656 27.8197 81.44C27.8197 81.224 28.0357 80.936 28.3957 80.936H28.8277C48.3397 80.936 78.9397 28.664 90.8917 14.192C59.7157 20.816 16.2997 16.928 1.89969 44.288C1.82769 44.576 1.61169 44.648 1.46769 44.648C1.32369 44.648 1.17969 44.504 1.17969 44.288C1.17969 44.144 1.17969 44 1.25169 43.856C12.2677 22.904 38.8357 19.808 65.3317 16.712C74.9077 15.56 83.1877 14.696 91.9717 12.752C91.9717 12.752 101.404 1.304 106.588 1.304C107.452 1.304 108.244 1.592 108.748 2.384C109.036 2.74399 109.18 3.176 109.18 3.608C109.18 6.488 104.14 11.096 96.1477 13.04L93.8437 13.616L82.9717 28.16C88.7317 23.624 97.8037 19.808 104.14 19.808C108.1 19.808 111.052 21.32 111.34 25.208L111.412 26.288C111.412 41.624 82.4677 47.816 73.0357 48.968C84.7717 52.424 89.1637 71.504 95.1397 83.744C100.972 95.552 109.684 99.944 119.836 99.944C123.508 99.944 127.324 99.368 131.284 98.36L131.572 98.288C131.86 98.288 131.932 98.432 131.932 98.576C131.932 98.72 131.788 98.936 131.356 99.008C127.036 100.232 122.788 100.952 118.756 100.952ZM68.1397 48.536C78.7237 47.096 109.108 40.256 109.396 25.712V25.568C109.396 22.544 107.02 21.248 103.42 21.248C96.8677 21.248 86.4277 25.712 79.8757 32.552C76.1317 37.88 72.1717 43.28 68.1397 48.536ZM95.2117 12.032C103.924 9.944 108.028 5.624 108.028 3.824C108.028 3.32 107.668 3.032 107.092 3.032C105.364 3.032 101.332 5.336 95.2117 12.032ZM107.785 63.152C106.993 63.152 106.273 63.008 105.625 62.72C104.113 62.072 103.537 60.632 103.537 58.976C103.537 57.32 104.113 55.592 104.905 54.152C107.785 49.04 111.313 47.456 113.545 47.456C114.841 47.456 115.705 47.96 115.705 48.68C115.705 50.48 112.537 53.432 106.633 54.584C105.697 56.456 105.337 57.896 105.337 58.976C105.337 60.992 106.561 61.856 108.217 61.928H108.577C113.977 61.928 123.769 55.808 130.249 50.984L130.609 50.84C130.753 50.84 130.897 50.984 130.897 51.056C130.897 51.2 130.825 51.344 130.609 51.488C123.625 56.816 113.545 63.152 107.785 63.152ZM107.209 53.504C110.593 53.216 114.913 50.552 114.913 49.184C114.913 49.04 114.841 48.896 114.697 48.752C114.553 48.608 114.265 48.464 113.905 48.464C112.465 48.464 109.657 49.832 107.209 53.504ZM100.613 109.592C100.181 109.592 99.8208 109.592 99.3888 109.448C97.4448 108.872 96.6528 107.648 96.6528 105.992C96.6528 99.8 107.885 87.776 110.693 84.968C123.653 72.152 135.533 64.016 136.685 63.152L142.445 53.504C139.781 56.096 132.941 60.632 129.125 60.632C128.333 60.632 127.613 60.344 127.109 59.84C126.533 59.192 126.317 58.4 126.317 57.608C126.317 55.016 128.621 51.992 130.637 50.48C132.941 48.824 135.461 47.888 137.909 47.888C140.285 47.888 142.445 48.752 144.101 50.696C144.677 49.904 145.109 49.04 145.469 48.752C145.541 48.68 145.685 48.608 145.829 48.608C146.261 48.608 146.837 48.824 146.837 49.184L146.765 49.328C144.605 53.216 141.869 57.896 139.565 61.712C143.525 59.192 150.149 55.52 157.925 50.912L158.141 50.84C158.285 50.84 158.429 50.984 158.429 51.128L158.285 51.416C150.509 56.312 145.901 58.4 138.413 63.584L134.381 70.28C130.997 76.184 111.413 109.592 100.613 109.592ZM100.973 108.512C111.197 108.512 130.061 74.24 135.389 65.24C128.333 70.28 118.973 77.984 111.413 85.688C108.245 88.928 97.7328 100.304 97.7328 105.704C97.7328 107 98.3088 107.936 99.8208 108.368C100.181 108.44 100.541 108.512 100.973 108.512ZM129.845 59.48C133.301 59.48 140.789 54.152 143.597 51.488C142.013 49.616 140.285 48.896 138.629 48.896C136.181 48.896 133.805 50.408 131.645 52.208C130.349 53.288 127.973 55.88 127.973 57.824C127.973 58.256 128.117 58.616 128.405 58.976C128.765 59.336 129.197 59.48 129.845 59.48ZM164.753 44.576C164.393 44.576 164.033 44.504 163.817 44.36C163.529 44.144 163.313 43.784 163.313 43.424C163.313 43.136 163.457 42.776 163.601 42.56C163.889 42.272 164.105 42.2 164.393 42.2C164.825 42.2 165.185 42.416 165.401 42.704C165.617 42.92 165.833 43.208 165.833 43.568C165.833 43.784 165.761 44 165.617 44.216C165.473 44.504 165.113 44.576 164.753 44.576ZM156.977 63.584C156.545 63.584 156.041 63.512 155.681 63.296C154.529 62.648 154.025 61.496 154.025 60.128C154.025 55.664 158.993 48.464 160.937 46.304C161.081 46.16 161.225 46.088 161.369 46.088C161.873 46.088 162.377 46.592 162.377 47.024L162.233 47.312C159.497 50.408 155.249 56.744 155.249 60.128C155.249 61.136 155.609 61.856 156.329 62.216C156.617 62.36 156.977 62.432 157.409 62.432C162.233 62.432 173.465 52.496 177.929 50.912L178.289 50.84C178.505 50.84 178.649 50.912 178.649 51.056C178.649 51.2 178.505 51.416 178.145 51.488C173.681 53.144 162.305 63.584 156.977 63.584ZM168.299 73.736C166.283 73.736 164.843 72.44 164.843 70.496C164.843 68.912 165.779 66.824 168.155 64.664C170.027 62.864 172.763 61.136 176.795 59.48C177.227 56.6 177.155 52.856 178.163 50.12C179.243 47.24 181.835 45.512 183.419 45.512C183.995 45.512 184.427 45.728 184.643 46.232L184.715 46.664C184.715 48.536 180.395 50.696 179.675 50.984C179.099 53.36 179.171 55.52 178.667 58.76C186.515 56.456 196.451 53.216 199.187 50.84C199.259 50.768 199.331 50.768 199.403 50.768C199.547 50.768 199.619 50.84 199.619 50.984L199.547 51.2C195.587 54.8 183.923 57.608 178.451 59.768C176.579 70.064 171.683 73.736 168.299 73.736ZM179.891 50.048C180.683 49.688 184.067 47.888 184.067 46.808V46.664C183.995 46.304 183.779 46.16 183.491 46.16C182.411 46.16 180.251 48.464 179.891 50.048ZM168.299 72.872C171.467 72.872 175.859 66.968 176.651 60.56C174.131 61.568 170.675 63.368 168.587 65.456C166.571 67.544 165.851 69.2 165.851 70.352C165.851 71.288 166.211 71.864 166.787 72.296C167.219 72.656 167.723 72.872 168.299 72.872ZM186.444 86.552C186.3 86.552 186.156 86.408 186.012 86.12C185.652 85.184 185.508 84.104 185.508 82.952C185.508 68.048 209.628 33.776 216.18 24.056C208.404 22.544 199.404 20.816 190.98 20.816C184.428 20.816 178.236 21.824 173.268 24.92L172.908 25.064C172.692 25.064 172.62 24.92 172.62 24.776C172.62 24.632 172.764 24.416 172.98 24.272C178.38 20.888 185.148 19.736 192.276 19.736C200.628 19.736 209.412 21.32 217.044 22.688C219.636 18.944 225.18 11.312 228.204 7.496C228.492 7.208 228.852 7.06399 229.212 7.06399C229.788 7.06399 230.364 7.424 230.364 7.856C230.364 8 230.292 8.216 230.148 8.36C226.764 12.824 221.868 19.664 219.564 23.192C220.788 23.336 221.94 23.624 223.092 23.768C229.788 24.848 240.876 26.504 250.74 26.504C258.228 26.504 265.068 25.568 268.74 22.688C268.956 22.544 269.1 22.472 269.244 22.472C269.388 22.472 269.532 22.616 269.532 22.76C269.532 22.904 269.46 23.12 269.244 23.264C264.996 26.576 257.076 27.656 248.652 27.656C239.22 27.656 229.068 26.288 222.732 25.208C221.436 24.992 220.068 24.704 218.628 24.488C211.644 34.208 186.3 70.424 186.3 83.312C186.3 84.248 186.444 85.112 186.732 85.76L186.804 86.048C186.804 86.336 186.66 86.552 186.444 86.552ZM215.127 66.032L214.263 65.888C213.111 65.528 212.679 64.664 212.679 63.584C212.679 60.776 215.487 56.312 216.135 54.296C216.279 53.792 216.423 53.216 216.423 52.784C216.423 52.28 216.279 51.92 215.991 51.704C215.487 51.416 215.271 50.984 215.271 50.48C215.271 48.752 217.647 46.088 219.447 46.088L219.807 46.16C220.095 46.232 220.239 46.376 220.239 46.664C220.239 47.744 218.007 50.192 216.927 50.84C217.503 51.344 217.719 52.064 217.719 52.856C217.719 56.168 213.759 61.208 213.759 63.512C213.759 64.16 213.975 64.52 214.623 64.736C214.839 64.808 215.055 64.808 215.343 64.808C220.239 64.808 235.503 53.792 239.463 51.056C239.679 50.912 239.823 50.912 239.967 50.912C240.111 50.912 240.183 50.912 240.183 51.056C240.183 51.128 240.111 51.344 239.823 51.488C235.503 54.512 220.671 66.032 215.127 66.032ZM216.567 50.192C217.647 49.616 219.159 47.528 219.159 47.24C219.159 47.168 219.159 47.168 219.087 47.168C218.295 47.6 216.567 49.616 216.567 50.12V50.192ZM212.326 109.736C211.75 109.736 211.174 109.664 210.598 109.448C207.934 108.512 206.854 106.496 206.854 103.904C206.854 99.008 210.742 92.168 214.63 87.416C225.214 74.672 240.406 65.6 245.59 62.792C247.318 59.552 248.758 56.672 250.486 53.144C246.598 57.104 241.198 62.072 237.958 62.072C237.166 62.072 236.446 61.784 236.014 61.064C235.726 60.632 235.51 59.984 235.51 59.264C235.51 56.744 237.31 52.856 241.27 48.392C241.414 48.248 241.558 48.176 241.774 48.176C242.134 48.176 242.494 48.392 242.494 48.68L242.35 48.968C240.982 50.552 237.094 57.032 237.094 59.768C237.094 60.056 237.094 60.272 237.166 60.416C237.382 60.992 237.742 61.28 238.318 61.28C240.622 61.28 245.806 56.6 252.43 50.12C252.574 49.976 252.718 49.904 252.862 49.904C253.15 49.904 253.51 50.264 253.51 50.552L253.438 50.84L248.038 61.424C255.094 57.104 258.766 55.448 266.83 50.984C266.974 50.84 267.118 50.84 267.262 50.84C267.406 50.84 267.478 50.912 267.478 51.056C267.478 51.2 267.406 51.344 267.118 51.488C258.766 56.384 254.374 58.544 247.318 63.008C241.846 73.376 224.206 109.736 212.326 109.736ZM212.398 108.44C223.126 108.44 239.902 73.736 244.726 64.592C234.07 70.712 223.198 79.352 216.286 87.56C212.398 92.24 208.078 99.296 208.078 103.976C208.078 105.992 208.87 107.504 210.886 108.224C211.39 108.368 211.894 108.44 212.398 108.44Z" fill="#8B9B68"/>
<path d="M95.2117 86.552L94.7749 86.7954L94.7757 86.7968L95.2117 86.552ZM68.2117 49.832V49.332H68.195L68.1784 49.3331L68.2117 49.832ZM67.1317 49.904L67.0984 49.4051L66.8742 49.4201L66.7365 49.5977L67.1317 49.904ZM90.8917 14.192L91.2772 14.5104L92.1902 13.4049L90.7878 13.7029L90.8917 14.192ZM1.89969 44.288L1.45723 44.0551L1.42921 44.1084L1.41462 44.1667L1.89969 44.288ZM1.25169 43.856L0.809037 43.6233L0.804475 43.6324L1.25169 43.856ZM65.3317 16.712L65.3897 17.2086L65.3914 17.2084L65.3317 16.712ZM91.9717 12.752L92.0797 13.2402L92.248 13.2029L92.3576 13.0699L91.9717 12.752ZM108.748 2.384L108.326 2.65243L108.34 2.67523L108.357 2.69634L108.748 2.384ZM96.1477 13.04L96.0295 12.5542L96.0264 12.5549L96.1477 13.04ZM93.8437 13.616L93.7224 13.1309L93.5498 13.1741L93.4432 13.3166L93.8437 13.616ZM82.9717 28.16L82.5712 27.8606L83.281 28.5528L82.9717 28.16ZM111.34 25.208L111.839 25.1747L111.838 25.1711L111.34 25.208ZM111.412 26.288H111.912V26.2714L111.911 26.2547L111.412 26.288ZM73.0357 48.968L72.9751 48.4717L72.8944 49.4476L73.0357 48.968ZM95.1397 83.744L94.6904 83.9634L94.6914 83.9654L95.1397 83.744ZM131.284 98.36L131.162 97.8749L131.16 97.8755L131.284 98.36ZM131.572 98.288V97.788H131.51L131.45 97.8029L131.572 98.288ZM131.356 99.008L131.273 98.5148L131.246 98.5194L131.219 98.5269L131.356 99.008ZM68.1397 48.536L67.743 48.2317L67.0039 49.1951L68.2071 49.0314L68.1397 48.536ZM109.396 25.712L109.896 25.7219V25.712H109.396ZM79.8757 32.552L79.5146 32.2061L79.4884 32.2335L79.4666 32.2645L79.8757 32.552ZM95.2117 12.032L94.8426 11.6947L93.7426 12.8983L95.3282 12.5182L95.2117 12.032ZM118.756 100.952V100.452C114.146 100.452 109.826 99.4953 105.937 97.2605C102.049 95.0261 98.5626 91.4971 95.6476 86.3072L95.2117 86.552L94.7757 86.7968C97.7648 92.1189 101.371 95.7899 105.439 98.1275C109.506 100.465 114.005 101.452 118.756 101.452V100.952ZM95.2117 86.552L95.6485 86.3086C93.7354 82.8758 91.9491 78.8743 90.1232 74.7789C88.3015 70.6926 86.4414 66.5151 84.3913 62.768C80.317 55.3209 75.3664 49.332 68.2117 49.332V49.832V50.332C74.737 50.332 79.4343 55.7911 83.514 63.248C85.541 66.9529 87.3844 71.0914 89.2099 75.1861C91.0313 79.2717 92.836 83.3162 94.7749 86.7954L95.2117 86.552ZM68.2117 49.832L68.1784 49.3331L67.0984 49.4051L67.1317 49.904L67.165 50.4029L68.2449 50.3309L68.2117 49.832ZM67.1317 49.904L66.7365 49.5977C62.0255 55.6753 55.4565 63.6606 48.5735 70.1225C45.1318 73.3535 41.6238 76.192 38.2411 78.22C34.8516 80.2522 31.6318 81.444 28.7557 81.444V81.944V82.444C31.8916 82.444 35.2958 81.1518 38.7553 79.0777C42.2216 76.9995 45.7876 74.1095 49.2579 70.8515C56.1989 64.3354 62.8059 56.3007 67.5269 50.2103L67.1317 49.904ZM28.7557 81.944V81.444H28.3237V81.944V82.444H28.7557V81.944ZM28.3237 81.944V81.444C28.3122 81.444 28.306 81.4429 28.3043 81.4425C28.3026 81.4421 28.3039 81.4422 28.3071 81.4438C28.3103 81.4453 28.3138 81.4474 28.3171 81.45C28.3203 81.4526 28.3224 81.4549 28.3237 81.4564C28.3258 81.459 28.3242 81.4579 28.3222 81.4518C28.3212 81.449 28.3205 81.4461 28.3201 81.4434C28.3197 81.4408 28.3197 81.4395 28.3197 81.44H27.8197H27.3197C27.3197 81.648 27.3864 81.8901 27.5497 82.0896C27.7257 82.3048 27.9938 82.444 28.3237 82.444V81.944ZM27.8197 81.44H28.3197C28.3197 81.4672 28.3136 81.4785 28.3149 81.4757C28.3156 81.474 28.319 81.4678 28.3262 81.4606C28.333 81.4538 28.3412 81.4481 28.3508 81.4439C28.3596 81.4402 28.3736 81.436 28.3957 81.436V80.936V80.436C27.7595 80.436 27.3197 80.9479 27.3197 81.44H27.8197ZM28.3957 80.936V81.436H28.8277V80.936V80.436H28.3957V80.936ZM28.8277 80.936V81.436C33.9037 81.436 39.5968 78.0534 45.4072 72.917C51.2411 67.7599 57.2911 60.7452 63.0892 53.2982C68.8895 45.8484 74.4514 37.948 79.3055 31.0128C84.1669 24.0672 88.3054 18.1088 91.2772 14.5104L90.8917 14.192L90.5062 13.8736C87.502 17.5112 83.3335 23.5138 78.4862 30.4394C73.6315 37.3755 68.0829 45.2566 62.3002 52.6838C56.5153 60.1138 50.5098 67.0716 44.7449 72.1678C38.9566 77.2846 33.5077 80.436 28.8277 80.436V80.936ZM90.8917 14.192L90.7878 13.7029C83.0211 15.3531 74.4861 16.3497 65.8024 17.3447C57.1281 18.3387 48.3069 19.3308 40.0076 20.9735C23.4263 24.2555 8.76899 30.1628 1.45723 44.0551L1.89969 44.288L2.34215 44.5209C9.43039 31.0532 23.6811 25.2245 40.2018 21.9545C48.4535 20.3212 57.2318 19.3333 65.9162 18.3382C74.5913 17.3442 83.1743 16.3429 90.9956 14.6811L90.8917 14.192ZM1.89969 44.288L1.41462 44.1667C1.40988 44.1857 1.4062 44.188 1.41061 44.1817C1.41518 44.175 1.42305 44.1668 1.43334 44.16C1.44279 44.1537 1.45077 44.1508 1.45536 44.1496C1.45946 44.1485 1.46306 44.148 1.46769 44.148V44.648V45.148C1.61644 45.148 1.80836 45.1118 1.98804 44.992C2.17816 44.8653 2.32027 44.6672 2.38476 44.4093L1.89969 44.288ZM1.46769 44.648V44.148C1.56469 44.148 1.62442 44.1946 1.64932 44.2236C1.6774 44.2564 1.67969 44.2836 1.67969 44.288H1.17969H0.679688C0.679688 44.7051 0.978012 45.148 1.46769 45.148V44.648ZM1.17969 44.288H1.67969C1.67969 44.1314 1.68699 44.1034 1.6989 44.0796L1.25169 43.856L0.804475 43.6324C0.672388 43.8966 0.679688 44.1566 0.679688 44.288H1.17969ZM1.25169 43.856L1.69425 44.0887C7.12116 33.7669 16.3854 27.8185 27.6449 24.0623C38.9175 20.3018 52.1286 18.7582 65.3897 17.2086L65.3317 16.712L65.2737 16.2154C52.0388 17.7618 38.7179 19.3142 27.3285 23.1137C15.926 26.9175 6.39822 32.9931 0.809129 43.6233L1.25169 43.856ZM65.3317 16.712L65.3914 17.2084C74.9561 16.0578 83.2658 15.1908 92.0797 13.2402L91.9717 12.752L91.8636 12.2638C83.1096 14.2012 74.8593 15.0622 65.272 16.2156L65.3317 16.712ZM91.9717 12.752C92.3576 13.0699 92.3576 13.0699 92.3576 13.0699C92.3577 13.0698 92.3577 13.0698 92.3578 13.0696C92.3581 13.0693 92.3585 13.0689 92.359 13.0683C92.36 13.067 92.3616 13.0651 92.3638 13.0625C92.3681 13.0572 92.3747 13.0493 92.3834 13.0388C92.4009 13.0177 92.4273 12.9861 92.4619 12.9448C92.5313 12.8622 92.634 12.7405 92.7669 12.5853C93.0326 12.2749 93.4186 11.8308 93.8982 11.2976C94.8579 10.2306 96.1896 8.80954 97.6805 7.39012C99.1734 5.96866 100.815 4.55959 102.394 3.50904C103.993 2.4455 105.448 1.804 106.588 1.804V1.304V0.803996C105.135 0.803996 103.468 1.59349 101.84 2.67645C100.193 3.7724 98.5039 5.22533 96.9909 6.66588C95.4758 8.10846 94.1255 9.54945 93.1547 10.6289C92.669 11.1689 92.2776 11.6192 92.0073 11.9349C91.8721 12.0928 91.7672 12.217 91.6958 12.3021C91.6602 12.3446 91.6329 12.3773 91.6144 12.3995C91.6052 12.4107 91.5981 12.4192 91.5933 12.4249C91.5909 12.4278 91.5891 12.43 91.5879 12.4316C91.5872 12.4323 91.5867 12.4329 91.5864 12.4333C91.5862 12.4335 91.5861 12.4337 91.586 12.4338C91.5859 12.434 91.5858 12.4341 91.9717 12.752ZM106.588 1.304V1.804C107.336 1.804 107.94 2.0456 108.326 2.65243L108.748 2.384L109.17 2.11556C108.548 1.1384 107.568 0.803996 106.588 0.803996V1.304ZM108.748 2.384L108.357 2.69634C108.573 2.96624 108.68 3.28767 108.68 3.608H109.18H109.68C109.68 3.06433 109.498 2.52175 109.138 2.07165L108.748 2.384ZM109.18 3.608H108.68C108.68 4.18876 108.422 4.91786 107.856 5.73977C107.294 6.55525 106.453 7.42603 105.354 8.28015C103.156 9.98771 99.9638 11.5972 96.0295 12.5542L96.1477 13.04L96.2659 13.5258C100.324 12.5388 103.647 10.8723 105.967 9.06984C107.127 8.16897 108.046 7.22625 108.679 6.30698C109.308 5.39414 109.68 4.46723 109.68 3.608H109.18ZM96.1477 13.04L96.0264 12.5549L93.7224 13.1309L93.8437 13.616L93.965 14.1011L96.269 13.5251L96.1477 13.04ZM93.8437 13.616L93.4432 13.3166L82.5712 27.8606L82.9717 28.16L83.3722 28.4594L94.2442 13.9154L93.8437 13.616ZM82.9717 28.16L83.281 28.5528C86.1187 26.3182 89.784 24.2527 93.5263 22.7469C97.2738 21.239 101.059 20.308 104.14 20.308V19.808V19.308C100.884 19.308 96.9656 20.285 93.153 21.8191C89.3354 23.3553 85.5847 25.4658 82.6623 27.7672L82.9717 28.16ZM104.14 19.808V20.308C106.067 20.308 107.681 20.6776 108.835 21.4633C109.966 22.2333 110.707 23.4378 110.841 25.2449L111.34 25.208L111.838 25.1711C111.684 23.0902 110.805 21.5947 109.398 20.6367C108.014 19.6944 106.173 19.308 104.14 19.308V19.808ZM111.34 25.208L110.841 25.2413L110.913 26.3213L111.412 26.288L111.911 26.2547L111.839 25.1747L111.34 25.208ZM111.412 26.288H110.912C110.912 29.9478 109.19 33.0882 106.395 35.7795C103.595 38.4761 99.7429 40.6951 95.5636 42.4875C87.2062 46.0718 77.6621 47.8992 72.9751 48.4717L73.0357 48.968L73.0963 49.4643C77.8412 48.8848 87.4852 47.0402 95.9578 43.4065C100.193 41.5899 104.167 39.3134 107.089 36.4998C110.016 33.6808 111.912 30.2962 111.912 26.288H111.412ZM73.0357 48.968L72.8944 49.4476C78.5406 51.1103 82.4915 56.5597 85.799 63.2827C87.4456 66.6295 88.915 70.253 90.3514 73.8193C91.7848 77.3781 93.1869 80.884 94.6904 83.9634L95.1397 83.744L95.589 83.5246C94.1045 80.484 92.7166 77.0149 91.279 73.4457C89.8444 69.884 88.3618 66.2265 86.6963 62.8413C83.3799 56.1003 79.2667 50.2817 73.1769 48.4884L73.0357 48.968ZM95.1397 83.744L94.6914 83.9654C97.6411 89.9376 101.335 94.0658 105.605 96.6976C109.875 99.3294 114.686 100.444 119.836 100.444V99.944V99.444C114.833 99.444 110.212 98.3626 106.13 95.8464C102.048 93.3302 98.4703 89.3584 95.588 83.5226L95.1397 83.744ZM119.836 99.944V100.444C123.559 100.444 127.418 99.86 131.407 98.8446L131.284 98.36L131.16 97.8755C127.23 98.876 123.456 99.444 119.836 99.444V99.944ZM131.284 98.36L131.405 98.8451L131.693 98.7731L131.572 98.288L131.45 97.8029L131.162 97.8749L131.284 98.36ZM131.572 98.288V98.788C131.639 98.788 131.579 98.8044 131.506 98.7316C131.433 98.6587 131.432 98.5811 131.432 98.576H131.932H132.432C132.432 98.4269 132.394 98.2053 132.213 98.0244C132.032 97.8436 131.793 97.788 131.572 97.788V98.288ZM131.932 98.576H131.432C131.432 98.4825 131.475 98.4441 131.471 98.4474C131.469 98.4494 131.421 98.4902 131.273 98.5148L131.356 99.008L131.438 99.5012C131.986 99.4099 132.432 99.0727 132.432 98.576H131.932ZM131.356 99.008L131.219 98.5269C126.931 99.7421 122.73 100.452 118.756 100.452V100.952V101.452C122.846 101.452 127.141 100.722 131.492 99.4891L131.356 99.008ZM68.1397 48.536L68.2071 49.0314C73.5257 48.3078 83.8128 46.2296 92.82 42.5C97.3223 40.6357 101.535 38.3466 104.648 35.5856C107.763 32.8231 109.82 29.5471 109.896 25.7219L109.396 25.712L108.896 25.7021C108.828 29.1489 106.979 32.1819 103.985 34.8374C100.989 37.4943 96.8901 39.7323 92.4374 41.576C83.5346 45.2624 73.3376 47.3242 68.0723 48.0406L68.1397 48.536ZM109.396 25.712H109.896V25.568H109.396H108.896V25.712H109.396ZM109.396 25.568H109.896C109.896 23.903 109.23 22.6613 108.037 21.8591C106.875 21.078 105.266 20.748 103.42 20.748V21.248V21.748C105.173 21.748 106.552 22.066 107.479 22.6889C108.374 23.2907 108.896 24.209 108.896 25.568H109.396ZM103.42 21.248V20.748C100.047 20.748 95.7246 21.8922 91.4372 23.8814C87.1438 25.8735 82.8414 28.7332 79.5146 32.2061L79.8757 32.552L80.2368 32.8979C83.462 29.5308 87.6556 26.7385 91.8581 24.7886C96.0667 22.8358 100.241 21.748 103.42 21.748V21.248ZM79.8757 32.552L79.4666 32.2645C75.7265 37.587 71.7706 42.9813 67.743 48.2317L68.1397 48.536L68.5364 48.8403C72.5728 43.5787 76.5369 38.173 80.2848 32.8395L79.8757 32.552ZM95.2117 12.032L95.3282 12.5182C99.7413 11.4606 103.009 9.83266 105.184 8.22184C106.271 7.41715 107.094 6.61057 107.65 5.87329C108.192 5.1534 108.528 4.43758 108.528 3.824H108.028H107.528C107.528 4.11042 107.35 4.60959 106.851 5.27121C106.365 5.91542 105.617 6.65684 104.589 7.41816C102.535 8.93933 99.3941 10.5154 95.0952 11.5458L95.2117 12.032ZM108.028 3.824H108.528C108.528 3.44345 108.386 3.09689 108.096 2.85489C107.818 2.62298 107.457 2.532 107.092 2.532V3.032V3.532C107.302 3.532 107.41 3.58501 107.456 3.62311C107.489 3.6511 107.528 3.70054 107.528 3.824H108.028ZM107.092 3.032V2.532C106.56 2.532 105.91 2.7058 105.163 3.04022C104.408 3.37781 103.522 3.89365 102.509 4.61338C100.483 6.05296 97.9183 8.32949 94.8426 11.6947L95.2117 12.032L95.5808 12.3693C98.6251 9.0385 101.137 6.81503 103.088 5.42861C104.064 4.73534 104.893 4.25668 105.571 3.95302C106.257 3.64619 106.759 3.532 107.092 3.532V3.032ZM105.625 62.72L105.828 62.2631L105.822 62.2604L105.625 62.72ZM104.905 54.152L104.47 53.9066L104.467 53.911L104.905 54.152ZM106.633 54.584L106.537 54.0933L106.296 54.1404L106.186 54.3604L106.633 54.584ZM108.217 61.928L108.196 62.4275L108.206 62.428H108.217V61.928ZM130.249 50.984L130.064 50.5198L130.003 50.544L129.951 50.5829L130.249 50.984ZM130.609 50.84V50.34H130.513L130.424 50.3758L130.609 50.84ZM130.609 51.488L130.332 51.072L130.319 51.0808L130.306 51.0905L130.609 51.488ZM107.209 53.504L106.793 53.2266L106.218 54.0902L107.252 54.0022L107.209 53.504ZM114.697 48.752L115.051 48.3984L114.697 48.752ZM107.785 63.152V62.652C107.055 62.652 106.405 62.5195 105.828 62.2631L105.625 62.72L105.422 63.1769C106.141 63.4965 106.931 63.652 107.785 63.652V63.152ZM105.625 62.72L105.822 62.2604C104.567 61.7224 104.037 60.5254 104.037 58.976H103.537H103.037C103.037 60.7386 103.66 62.4216 105.428 63.1796L105.625 62.72ZM103.537 58.976H104.037C104.037 57.4279 104.579 55.7831 105.343 54.393L104.905 54.152L104.467 53.911C103.648 55.4009 103.037 57.2121 103.037 58.976H103.537ZM104.905 54.152L105.341 54.3974C108.16 49.3939 111.544 47.956 113.545 47.956V47.456V46.956C111.083 46.956 107.411 48.6861 104.47 53.9066L104.905 54.152ZM113.545 47.456V47.956C114.137 47.956 114.583 48.0722 114.863 48.2321C115.137 48.3886 115.205 48.5518 115.205 48.68H115.705H116.205C116.205 48.0882 115.842 47.6394 115.359 47.3639C114.883 47.0918 114.25 46.956 113.545 46.956V47.456ZM115.705 48.68H115.205C115.205 48.9892 115.065 49.4108 114.71 49.9103C114.36 50.4039 113.822 50.9405 113.09 51.4699C111.628 52.5279 109.43 53.5289 106.537 54.0933L106.633 54.584L106.729 55.0747C109.74 54.4871 112.079 53.4361 113.676 52.2801C114.475 51.7025 115.098 51.0916 115.526 50.4895C115.949 49.8932 116.205 49.2708 116.205 48.68H115.705ZM106.633 54.584L106.186 54.3604C105.23 56.2717 104.837 57.7906 104.837 58.976H105.337H105.837C105.837 58.0014 106.164 56.6403 107.08 54.8076L106.633 54.584ZM105.337 58.976H104.837C104.837 60.0896 105.179 60.955 105.816 61.5472C106.443 62.1306 107.292 62.3883 108.196 62.4275L108.217 61.928L108.239 61.4285C107.486 61.3957 106.895 61.1854 106.497 60.8148C106.108 60.453 105.837 59.8784 105.837 58.976H105.337ZM108.217 61.928V62.428H108.577V61.928V61.428H108.217V61.928ZM108.577 61.928V62.428C110.011 62.428 111.699 62.024 113.502 61.3661C115.311 60.7059 117.267 59.7783 119.247 58.7045C123.207 56.5569 127.295 53.8066 130.548 51.3851L130.249 50.984L129.951 50.5829C126.723 52.9854 122.676 55.7071 118.77 57.8255C116.817 58.8847 114.907 59.7886 113.159 60.4267C111.404 61.067 109.843 61.428 108.577 61.428V61.928ZM130.249 50.984L130.435 51.4482L130.795 51.3042L130.609 50.84L130.424 50.3758L130.064 50.5198L130.249 50.984ZM130.609 50.84V51.34C130.563 51.34 130.531 51.3288 130.516 51.3224C130.501 51.3159 130.492 51.3094 130.487 51.3051C130.483 51.3015 130.471 51.2913 130.456 51.2692C130.449 51.2579 130.436 51.2374 130.425 51.2076C130.414 51.1799 130.397 51.1269 130.397 51.056H130.897H131.397C131.397 50.8923 131.325 50.7697 131.289 50.7145C131.242 50.6452 131.186 50.5855 131.127 50.5369C131.02 50.4473 130.838 50.34 130.609 50.34V50.84ZM130.897 51.056H130.397C130.397 51.0497 130.398 51.0399 130.401 51.0286C130.404 51.0173 130.409 51.0098 130.41 51.007C130.413 51.0026 130.399 51.0272 130.332 51.072L130.609 51.488L130.887 51.904C131.197 51.6972 131.397 51.4148 131.397 51.056H130.897ZM130.609 51.488L130.306 51.0905C126.828 53.7441 122.583 56.6448 118.498 58.8793C114.388 61.1277 110.527 62.652 107.785 62.652V63.152V63.652C110.804 63.652 114.862 62.0083 118.978 59.7567C123.119 57.4912 127.407 54.5599 130.913 51.8855L130.609 51.488ZM107.209 53.504L107.252 54.0022C109.039 53.8501 111.036 53.0787 112.581 52.1814C113.356 51.7313 114.038 51.2374 114.535 50.7535C114.782 50.5118 114.995 50.2621 115.148 50.0111C115.298 49.7648 115.413 49.4819 115.413 49.184H114.913H114.413C114.413 49.2281 114.393 49.3277 114.294 49.4901C114.198 49.6478 114.046 49.8328 113.836 50.0377C113.417 50.4471 112.807 50.8937 112.079 51.3166C110.618 52.1653 108.764 52.8699 107.167 53.0058L107.209 53.504ZM114.913 49.184H115.413C115.413 48.8606 115.249 48.5969 115.051 48.3984L114.697 48.752L114.344 49.1056C114.387 49.1491 114.405 49.1785 114.412 49.1916C114.417 49.2025 114.413 49.1984 114.413 49.184H114.913ZM114.697 48.752L115.051 48.3984C114.807 48.1545 114.389 47.964 113.905 47.964V48.464V48.964C114.142 48.964 114.3 49.0615 114.344 49.1056L114.697 48.752ZM113.905 48.464V47.964C113.05 47.964 111.891 48.3597 110.656 49.1924C109.409 50.0331 108.05 51.3416 106.793 53.2266L107.209 53.504L107.625 53.7813C108.817 51.9944 110.086 50.7829 111.215 50.0216C112.356 49.2523 113.32 48.964 113.905 48.964V48.464ZM99.3888 109.448L99.5469 108.974L99.5389 108.971L99.5309 108.969L99.3888 109.448ZM110.693 84.968L110.341 84.6125L110.339 84.6144L110.693 84.968ZM136.685 63.152L136.985 63.552L137.064 63.4929L137.114 63.4083L136.685 63.152ZM142.445 53.504L142.874 53.7603L142.096 53.1456L142.445 53.504ZM127.109 59.84L126.735 60.1722L126.745 60.1832L126.755 60.1936L127.109 59.84ZM130.637 50.48L130.345 50.0739L130.337 50.08L130.637 50.48ZM144.101 50.696L143.72 51.0202L144.132 51.5035L144.505 50.9901L144.101 50.696ZM145.469 48.752L145.781 49.1424L145.803 49.1251L145.822 49.1056L145.469 48.752ZM146.837 49.184L147.284 49.4076L147.337 49.302V49.184H146.837ZM146.765 49.328L147.202 49.5708L147.207 49.5613L147.212 49.5516L146.765 49.328ZM139.565 61.712L139.137 61.4536L139.833 62.1338L139.565 61.712ZM157.925 50.912L157.767 50.4377L157.716 50.4546L157.67 50.4819L157.925 50.912ZM158.141 50.84V50.34H158.06L157.983 50.3657L158.141 50.84ZM158.429 51.128L158.876 51.3516L158.929 51.246V51.128H158.429ZM158.285 51.416L158.551 51.8391L158.67 51.7646L158.732 51.6396L158.285 51.416ZM138.413 63.584L138.128 63.1729L138.04 63.234L137.984 63.3261L138.413 63.584ZM134.381 70.28L133.952 70.022L133.947 70.0314L134.381 70.28ZM135.389 65.24L135.819 65.4947L135.098 64.8331L135.389 65.24ZM111.413 85.688L111.056 85.3378L111.055 85.3384L111.413 85.688ZM99.8208 108.368L99.6834 108.849L99.7029 108.854L99.7228 108.858L99.8208 108.368ZM143.597 51.488L143.941 51.8507L144.284 51.5256L143.979 51.165L143.597 51.488ZM131.645 52.208L131.965 52.5921L131.645 52.208ZM128.405 58.976L128.014 59.2883L128.032 59.31L128.051 59.3296L128.405 58.976ZM100.613 109.592V109.092C100.177 109.092 99.8927 109.089 99.5469 108.974L99.3888 109.448L99.2307 109.922C99.7489 110.095 100.185 110.092 100.613 110.092V109.592ZM99.3888 109.448L99.5309 108.969C98.6338 108.703 98.0522 108.303 97.6911 107.824C97.3305 107.346 97.1528 106.739 97.1528 105.992H96.6528H96.1528C96.1528 106.901 96.3712 107.734 96.8925 108.426C97.4134 109.117 98.1998 109.617 99.2468 109.927L99.3888 109.448ZM96.6528 105.992H97.1528C97.1528 104.572 97.8047 102.751 98.8922 100.726C99.9715 98.7169 101.446 96.5692 103.017 94.5147C106.159 90.4064 109.653 86.7153 111.046 85.3216L110.693 84.968L110.339 84.6144C108.925 86.0287 105.399 89.7536 102.223 93.9073C100.635 95.9838 99.1256 98.1786 98.0112 100.253C96.9049 102.312 96.1528 104.316 96.1528 105.992H96.6528ZM110.693 84.968L111.044 85.3235C123.974 72.5373 135.821 64.4247 136.985 63.552L136.685 63.152L136.385 62.752C135.244 63.6073 123.331 71.7667 110.341 84.6125L110.693 84.968ZM136.685 63.152L137.114 63.4083L142.874 53.7603L142.445 53.504L142.016 53.2477L136.256 62.8957L136.685 63.152ZM142.445 53.504L142.096 53.1456C140.8 54.4064 138.46 56.1646 135.966 57.6072C134.722 58.3271 133.451 58.962 132.263 59.4157C131.068 59.8719 129.991 60.132 129.125 60.132V60.632V61.132C130.167 61.132 131.375 60.8251 132.62 60.3498C133.871 59.872 135.192 59.2109 136.467 58.4728C139.014 56.9994 141.425 55.1936 142.793 53.8624L142.445 53.504ZM129.125 60.632V60.132C128.453 60.132 127.864 59.8883 127.462 59.4865L127.109 59.84L126.755 60.1936C127.361 60.7997 128.213 61.132 129.125 61.132V60.632ZM127.109 59.84L127.483 59.5078C127.006 58.9723 126.817 58.3088 126.817 57.608H126.317H125.817C125.817 58.4912 126.059 59.4117 126.735 60.1722L127.109 59.84ZM126.317 57.608H126.817C126.817 56.4487 127.338 55.1412 128.14 53.9122C128.937 52.6903 129.977 51.5997 130.937 50.88L130.637 50.48L130.337 50.08C129.28 50.8723 128.161 52.0497 127.302 53.3658C126.448 54.6748 125.817 56.1753 125.817 57.608H126.317ZM130.637 50.48L130.929 50.886C133.168 49.2764 135.588 48.388 137.909 48.388V47.888V47.388C135.333 47.388 132.714 48.3716 130.345 50.074L130.637 50.48ZM137.909 47.888V48.388C140.152 48.388 142.168 49.1978 143.72 51.0202L144.101 50.696L144.481 50.3718C142.722 48.3062 140.418 47.388 137.909 47.388V47.888ZM144.101 50.696L144.505 50.9901C144.805 50.5783 145.07 50.143 145.287 49.8048C145.525 49.4338 145.678 49.2247 145.781 49.1424L145.469 48.752L145.156 48.3616C144.899 48.5673 144.657 48.9342 144.445 49.2652C144.212 49.629 143.973 50.0217 143.696 50.4019L144.101 50.696ZM145.469 48.752L145.822 49.1056C145.817 49.1111 145.813 49.1145 145.811 49.1161C145.809 49.1177 145.808 49.1182 145.808 49.1179C145.81 49.1172 145.813 49.115 145.819 49.1126C145.824 49.1102 145.829 49.1088 145.832 49.1081C145.835 49.1074 145.834 49.108 145.829 49.108V48.608V48.108C145.544 48.108 145.275 48.239 145.115 48.3984L145.469 48.752ZM145.829 48.608V49.108C145.974 49.108 146.149 49.1469 146.271 49.2082C146.331 49.2382 146.356 49.2622 146.36 49.2675C146.361 49.268 146.337 49.2375 146.337 49.184H146.837H147.337C147.337 48.7088 146.964 48.4366 146.718 48.3138C146.445 48.1771 146.115 48.108 145.829 48.108V48.608ZM146.837 49.184L146.39 48.9604L146.318 49.1044L146.765 49.328L147.212 49.5516L147.284 49.4076L146.837 49.184ZM146.765 49.328L146.328 49.0852C144.171 52.9667 141.438 57.6414 139.137 61.4536L139.565 61.712L139.993 61.9704C142.299 58.1506 145.038 53.4653 147.202 49.5708L146.765 49.328ZM139.565 61.712L139.833 62.1338C143.786 59.6184 150.381 55.9633 158.18 51.3421L157.925 50.912L157.67 50.4819C149.916 55.0766 143.264 58.7656 139.296 61.2902L139.565 61.712ZM157.925 50.912L158.083 51.3863L158.299 51.3143L158.141 50.84L157.983 50.3657L157.767 50.4377L157.925 50.912ZM158.141 50.84V51.34C158.05 51.34 158.001 51.2997 157.985 51.2836C157.969 51.2674 157.929 51.2186 157.929 51.128H158.429H158.929C158.929 50.8934 158.817 50.7006 158.692 50.5764C158.568 50.4523 158.375 50.34 158.141 50.34V50.84ZM158.429 51.128L157.982 50.9044L157.838 51.1924L158.285 51.416L158.732 51.6396L158.876 51.3516L158.429 51.128ZM158.285 51.416L158.018 50.9929C154.14 53.4349 151.055 55.1746 147.989 56.9599C144.924 58.7451 141.887 60.5704 138.128 63.1729L138.413 63.584L138.697 63.9951C142.426 61.4136 145.438 59.6029 148.492 57.8241C151.547 56.0454 154.654 54.2931 158.551 51.8391L158.285 51.416ZM138.413 63.584L137.984 63.3261L133.952 70.0221L134.381 70.28L134.809 70.5379L138.841 63.8419L138.413 63.584ZM134.381 70.28L133.947 70.0314C132.258 72.9787 126.527 82.7873 119.875 91.8542C116.547 96.3894 113.002 100.722 109.626 103.917C107.938 105.514 106.304 106.815 104.773 107.714C103.236 108.616 101.839 109.092 100.613 109.092V109.592V110.092C102.087 110.092 103.664 109.524 105.279 108.576C106.899 107.625 108.593 106.27 110.313 104.643C113.752 101.389 117.339 97.0006 120.681 92.4458C127.367 83.3327 133.12 73.4853 134.815 70.5286L134.381 70.28ZM100.973 108.512V109.012C102.385 109.012 103.893 108.423 105.436 107.444C106.985 106.461 108.612 105.058 110.271 103.367C113.591 99.9823 117.093 95.3895 120.429 90.5341C127.102 80.8228 133.164 69.9801 135.819 65.4947L135.389 65.24L134.959 64.9853C132.286 69.4999 126.252 80.2933 119.605 89.9678C116.281 94.8055 112.817 99.3432 109.557 102.666C107.927 104.328 106.361 105.673 104.901 106.6C103.434 107.53 102.116 108.012 100.973 108.012V108.512ZM135.389 65.24L135.098 64.8331C128.022 69.8875 118.639 77.6101 111.056 85.3378L111.413 85.688L111.77 86.0382C119.306 78.3579 128.644 70.6725 135.679 65.6469L135.389 65.24ZM111.413 85.688L111.055 85.3384C109.464 86.966 106.029 90.6354 102.989 94.5808C101.469 96.5529 100.039 98.6049 98.987 100.513C97.9447 102.402 97.2328 104.22 97.2328 105.704H97.7328H98.2328C98.2328 104.488 98.8349 102.859 99.8626 100.995C100.88 99.1501 102.277 97.1431 103.781 95.1912C106.788 91.2886 110.194 87.65 111.77 86.0376L111.413 85.688ZM97.7328 105.704H97.2328C97.2328 106.425 97.3937 107.098 97.8079 107.657C98.2229 108.218 98.8515 108.611 99.6834 108.849L99.8208 108.368L99.9582 107.887C99.2782 107.693 98.8628 107.402 98.6117 107.063C98.36 106.722 98.2328 106.279 98.2328 105.704H97.7328ZM99.8208 108.368L99.7228 108.858C100.08 108.93 100.485 109.012 100.973 109.012V108.512V108.012C100.596 108.012 100.281 107.95 99.9189 107.878L99.8208 108.368ZM129.845 59.48V59.98C130.815 59.98 132.009 59.6121 133.258 59.0637C134.519 58.5095 135.889 57.7469 137.229 56.9066C139.907 55.2277 142.508 53.21 143.941 51.8507L143.597 51.488L143.253 51.1253C141.877 52.43 139.331 54.4083 136.698 56.0594C135.383 56.8841 134.058 57.62 132.856 58.1481C131.64 58.6819 130.602 58.98 129.845 58.98V59.48ZM143.597 51.488L143.979 51.165C142.312 49.1952 140.45 48.396 138.629 48.396V48.896V49.396C140.12 49.396 141.714 50.0368 143.215 51.811L143.597 51.488ZM138.629 48.896V48.396C135.989 48.396 133.492 50.0175 131.325 51.8239L131.645 52.208L131.965 52.5921C134.117 50.7985 136.372 49.396 138.629 49.396V48.896ZM131.645 52.208L131.325 51.8239C130.649 52.3872 129.702 53.3341 128.92 54.3954C128.154 55.4349 127.473 56.6811 127.473 57.824H127.973H128.473C128.473 57.0229 128.979 56.0011 129.725 54.9886C130.455 53.9979 131.345 53.1088 131.965 52.5921L131.645 52.208ZM127.973 57.824H127.473C127.473 58.3876 127.668 58.8549 128.014 59.2883L128.405 58.976L128.795 58.6637C128.566 58.3771 128.473 58.1244 128.473 57.824H127.973ZM128.405 58.976L128.051 59.3296C128.533 59.8115 129.11 59.98 129.845 59.98V59.48V58.98C129.283 58.98 128.996 58.8605 128.758 58.6224L128.405 58.976ZM163.817 44.36L163.517 44.76L163.528 44.7683L163.54 44.776L163.817 44.36ZM163.601 42.56L163.247 42.2064L163.212 42.2415L163.185 42.2826L163.601 42.56ZM165.401 42.704L165.001 43.004L165.022 43.0324L165.047 43.0576L165.401 42.704ZM165.617 44.216L165.201 43.9387L165.184 43.9646L165.17 43.9924L165.617 44.216ZM155.681 63.296L155.938 62.8671L155.926 62.8602L155.681 63.296ZM160.937 46.304L160.583 45.9504L160.574 45.9597L160.565 45.9695L160.937 46.304ZM162.377 47.024L162.824 47.2476L162.877 47.142V47.024H162.377ZM162.233 47.312L162.608 47.6431L162.651 47.5941L162.68 47.5356L162.233 47.312ZM156.329 62.216L156.553 61.7688L156.329 62.216ZM177.929 50.912L177.831 50.4217L177.796 50.4288L177.762 50.4408L177.929 50.912ZM178.289 50.84V50.34H178.239L178.191 50.3497L178.289 50.84ZM178.145 51.488L178.047 50.9977L178.008 51.0055L177.971 51.0192L178.145 51.488ZM164.753 44.576V44.076C164.433 44.076 164.19 44.0078 164.094 43.944L163.817 44.36L163.54 44.776C163.876 45.0002 164.353 45.076 164.753 45.076V44.576ZM163.817 44.36L164.117 43.96C163.928 43.8182 163.813 43.5956 163.813 43.424H163.313H162.813C162.813 43.9723 163.13 44.4698 163.517 44.76L163.817 44.36ZM163.313 43.424H163.813C163.813 43.2639 163.909 42.9994 164.017 42.8373L163.601 42.56L163.185 42.2826C163.005 42.5526 162.813 43.0081 162.813 43.424H163.313ZM163.601 42.56L163.955 42.9136C164.07 42.7981 164.145 42.7528 164.194 42.7316C164.239 42.7121 164.293 42.7 164.393 42.7V42.2V41.7C164.205 41.7 164.007 41.7239 163.8 41.8124C163.597 41.8992 163.42 42.0339 163.247 42.2064L163.601 42.56ZM164.393 42.2V42.7C164.652 42.7 164.87 42.8292 165.001 43.004L165.401 42.704L165.801 42.404C165.5 42.0028 164.998 41.7 164.393 41.7V42.2ZM165.401 42.704L165.047 43.0576C165.239 43.2495 165.333 43.4143 165.333 43.568H165.833H166.333C166.333 43.0017 165.995 42.5905 165.755 42.3504L165.401 42.704ZM165.833 43.568H165.333C165.333 43.6668 165.301 43.788 165.201 43.9387L165.617 44.216L166.033 44.4933C166.221 44.212 166.333 43.9012 166.333 43.568H165.833ZM165.617 44.216L165.17 43.9924C165.169 43.9948 165.167 43.9971 165.161 44.0019C165.154 44.0081 165.135 44.0199 165.1 44.0325C165.023 44.0596 164.907 44.076 164.753 44.076V44.576V45.076C164.959 45.076 165.203 45.0564 165.432 44.9755C165.669 44.8919 165.918 44.7314 166.064 44.4396L165.617 44.216ZM156.977 63.584V63.084C156.579 63.084 156.183 63.0141 155.938 62.8673L155.681 63.296L155.424 63.7247C155.899 64.0099 156.511 64.084 156.977 64.084V63.584ZM155.681 63.296L155.926 62.8602C154.973 62.3242 154.525 61.3688 154.525 60.128H154.025H153.525C153.525 61.6232 154.085 62.9718 155.436 63.7318L155.681 63.296ZM154.025 60.128H154.525C154.525 58.0372 155.705 55.2208 157.187 52.598C158.658 49.9959 160.365 47.6868 161.309 46.6385L160.937 46.304L160.565 45.9695C159.565 47.0812 157.816 49.4521 156.317 52.106C154.829 54.7392 153.525 57.7548 153.525 60.128H154.025ZM160.937 46.304L161.291 46.6576C161.334 46.614 161.363 46.5958 161.377 46.5892C161.387 46.5838 161.383 46.588 161.369 46.588V46.088V45.588C161.046 45.588 160.782 45.7519 160.583 45.9504L160.937 46.304ZM161.369 46.088V46.588C161.46 46.588 161.595 46.6393 161.717 46.7561C161.845 46.8778 161.877 46.9896 161.877 47.024H162.377H162.877C162.877 46.6264 162.657 46.2702 162.407 46.0319C162.151 45.7887 161.782 45.588 161.369 45.588V46.088ZM162.377 47.024L161.93 46.8004L161.786 47.0884L162.233 47.312L162.68 47.5356L162.824 47.2476L162.377 47.024ZM162.233 47.312L161.858 46.9809C160.469 48.5534 158.704 50.9377 157.284 53.3591C156.573 54.5704 155.944 55.8003 155.49 56.9498C155.04 58.0915 154.749 59.1902 154.749 60.128H155.249H155.749C155.749 59.3738 155.989 58.4115 156.421 57.3167C156.849 56.2297 157.453 55.0476 158.146 53.8649C159.534 51.4983 161.261 49.1666 162.608 47.6431L162.233 47.312ZM155.249 60.128H154.749C154.749 61.2589 155.164 62.1924 156.105 62.6632L156.329 62.216L156.553 61.7688C156.054 61.5196 155.749 61.0131 155.749 60.128H155.249ZM156.329 62.216L156.105 62.6632C156.482 62.8517 156.925 62.932 157.409 62.932V62.432V61.932C157.029 61.932 156.752 61.8683 156.553 61.7688L156.329 62.216ZM157.409 62.432V62.932C158.75 62.932 160.453 62.2543 162.257 61.2964C164.083 60.3269 166.097 59.0227 168.084 57.6803C170.082 56.3299 172.038 54.9515 173.792 53.7981C175.554 52.6404 177.045 51.7561 178.096 51.3832L177.929 50.912L177.762 50.4408C176.581 50.8599 174.994 51.8116 173.243 52.9624C171.486 54.1175 169.495 55.5201 167.524 56.8517C165.542 58.1913 163.564 59.4701 161.788 60.4131C159.99 61.3677 158.48 61.932 157.409 61.932V62.432ZM177.929 50.912L178.027 51.4023L178.387 51.3303L178.289 50.84L178.191 50.3497L177.831 50.4217L177.929 50.912ZM178.289 50.84V51.34C178.354 51.34 178.345 51.3528 178.302 51.3281C178.276 51.313 178.234 51.2819 178.199 51.2265C178.163 51.1687 178.149 51.1072 178.149 51.056H178.649H179.149C179.149 50.78 178.994 50.572 178.798 50.4599C178.629 50.3632 178.44 50.34 178.289 50.34V50.84ZM178.649 51.056H178.149C178.149 51.0103 178.16 50.9799 178.167 50.9654C178.174 50.9496 178.18 50.944 178.178 50.9454C178.177 50.9468 178.145 50.9781 178.047 50.9977L178.145 51.488L178.243 51.9783C178.748 51.8772 179.149 51.5182 179.149 51.056H178.649ZM178.145 51.488L177.971 51.0192C176.789 51.4577 175.193 52.4564 173.422 53.6635C171.65 54.8709 169.613 56.3524 167.6 57.7459C165.569 59.1523 163.528 60.4953 161.669 61.4856C159.792 62.486 158.176 63.084 156.977 63.084V63.584V64.084C158.442 64.084 160.246 63.377 162.14 62.3681C164.052 61.3492 166.133 59.9787 168.17 58.5681C170.225 57.1446 172.202 55.7056 173.985 54.4898C175.769 53.2736 177.269 52.3463 178.319 51.9568L178.145 51.488ZM168.155 64.664L168.491 65.0341L168.502 65.0244L168.155 64.664ZM176.795 59.48L176.985 59.9425L177.247 59.8347L177.289 59.5542L176.795 59.48ZM178.163 50.12L177.695 49.9444L177.694 49.9471L178.163 50.12ZM184.643 46.232L185.136 46.1498L185.126 46.0904L185.103 46.035L184.643 46.232ZM184.715 46.664H185.215V46.6226L185.208 46.5818L184.715 46.664ZM179.675 50.984L179.489 50.5198L179.25 50.6155L179.189 50.8662L179.675 50.984ZM178.667 58.76L178.173 58.6831L178.052 59.4617L178.808 59.2398L178.667 58.76ZM199.187 50.84L199.515 51.2175L199.528 51.206L199.541 51.1936L199.187 50.84ZM199.619 50.984L200.093 51.1421L200.119 51.0651V50.984H199.619ZM199.547 51.2L199.883 51.57L199.98 51.4821L200.021 51.3581L199.547 51.2ZM178.451 59.768L178.267 59.3029L178.009 59.405L177.959 59.6786L178.451 59.768ZM179.891 50.048L179.403 49.9372L179.18 50.9204L180.098 50.5032L179.891 50.048ZM184.067 46.664H184.567V46.6145L184.557 46.5659L184.067 46.664ZM176.651 60.56L177.147 60.6213L177.251 59.7815L176.465 60.0958L176.651 60.56ZM168.587 65.456L168.233 65.1024L168.227 65.1087L168.587 65.456ZM166.787 72.296L167.107 71.9119L167.097 71.9037L167.087 71.896L166.787 72.296ZM168.299 73.736V73.236C167.398 73.236 166.661 72.9476 166.155 72.4782C165.652 72.0121 165.343 71.3382 165.343 70.496H164.843H164.343C164.343 71.5978 164.754 72.5439 165.475 73.2118C166.193 73.8764 167.184 74.236 168.299 74.236V73.736ZM164.843 70.496H165.343C165.343 69.1034 166.175 67.1395 168.491 65.034L168.155 64.664L167.819 64.294C165.383 66.5085 164.343 68.7206 164.343 70.496H164.843ZM168.155 64.664L168.502 65.0244C170.314 63.2817 172.99 61.5835 176.985 59.9425L176.795 59.48L176.605 59.0175C172.536 60.6885 169.74 62.4463 167.808 64.3036L168.155 64.664ZM176.795 59.48L177.289 59.5542C177.508 58.0993 177.602 56.3996 177.761 54.7952C177.922 53.163 178.152 51.5972 178.632 50.2929L178.163 50.12L177.694 49.9471C177.166 51.3788 176.928 53.053 176.765 54.6968C176.6 56.3684 176.514 57.9807 176.301 59.4058L176.795 59.48ZM178.163 50.12L178.631 50.2956C179.137 48.9468 179.998 47.8662 180.916 47.125C181.848 46.373 182.783 46.012 183.419 46.012V45.512V45.012C182.471 45.012 181.318 45.515 180.288 46.347C179.244 47.1898 178.269 48.4132 177.695 49.9444L178.163 50.12ZM183.419 45.512V46.012C183.647 46.012 183.808 46.055 183.92 46.1183C184.025 46.1777 184.116 46.2705 184.183 46.429L184.643 46.232L185.103 46.035C184.954 45.6895 184.721 45.4223 184.412 45.2477C184.11 45.077 183.767 45.012 183.419 45.012V45.512ZM184.643 46.232L184.15 46.3142L184.222 46.7462L184.715 46.664L185.208 46.5818L185.136 46.1498L184.643 46.232ZM184.715 46.664H184.215C184.215 46.9472 184.044 47.3165 183.654 47.7568C183.276 48.1847 182.749 48.613 182.18 49.0069C181.041 49.7957 179.814 50.3898 179.489 50.5198L179.675 50.984L179.861 51.4482C180.256 51.2902 181.549 50.6603 182.75 49.8291C183.351 49.413 183.949 48.9323 184.403 48.4197C184.846 47.9195 185.215 47.3168 185.215 46.664H184.715ZM179.675 50.984L179.189 50.8662C178.892 52.0917 178.763 53.2565 178.646 54.5011C178.529 55.75 178.422 57.0818 178.173 58.6831L178.667 58.76L179.161 58.8369C179.416 57.1982 179.525 55.83 179.642 54.5949C179.759 53.3555 179.882 52.2523 180.161 51.1018L179.675 50.984ZM178.667 58.76L178.808 59.2398C182.736 58.0865 187.194 56.697 191.016 55.2965C192.927 54.5963 194.685 53.891 196.142 53.2087C197.589 52.5313 198.776 51.8594 199.515 51.2175L199.187 50.84L198.859 50.4625C198.23 51.0086 197.149 51.6327 195.718 52.3031C194.297 52.9685 192.568 53.6627 190.672 54.3575C186.88 55.747 182.446 57.1295 178.526 58.2803L178.667 58.76ZM199.187 50.84L199.541 51.1936C199.529 51.2056 199.51 51.2205 199.486 51.2342C199.462 51.2479 199.437 51.2568 199.416 51.2621C199.396 51.2671 199.383 51.268 199.38 51.2682C199.38 51.2682 199.382 51.268 199.403 51.268V50.768V50.268C199.324 50.268 199.061 50.259 198.833 50.4864L199.187 50.84ZM199.403 50.768V51.268C199.398 51.268 199.302 51.2664 199.211 51.1756C199.121 51.0847 199.119 50.9891 199.119 50.984H199.619H200.119C200.119 50.8349 200.081 50.6313 199.919 50.4684C199.756 50.3056 199.552 50.268 199.403 50.268V50.768ZM199.619 50.984L199.145 50.8259L199.073 51.0419L199.547 51.2L200.021 51.3581L200.093 51.1421L199.619 50.984ZM199.547 51.2L199.211 50.83C198.277 51.6785 196.861 52.5035 195.14 53.3C193.426 54.0931 191.443 54.8429 189.402 55.5517C185.353 56.9576 181.01 58.2204 178.267 59.3029L178.451 59.768L178.635 60.2331C181.364 59.1556 185.589 57.9344 189.73 56.4963C191.784 55.7831 193.802 55.0209 195.56 54.2075C197.31 53.3975 198.837 52.5215 199.883 51.57L199.547 51.2ZM178.451 59.768L177.959 59.6786C176.102 69.8951 171.31 73.236 168.299 73.236V73.736V74.236C172.056 74.236 177.057 70.2328 178.943 59.8574L178.451 59.768ZM179.891 50.048L180.098 50.5032C180.516 50.3131 181.584 49.7602 182.553 49.114C183.037 48.7915 183.515 48.4335 183.878 48.0746C184.059 47.8952 184.224 47.7034 184.346 47.5041C184.466 47.3085 184.567 47.0703 184.567 46.808H184.067H183.567C183.567 46.8157 183.562 46.87 183.494 46.981C183.428 47.0883 183.322 47.2171 183.174 47.3639C182.878 47.6575 182.46 47.9745 181.999 48.282C181.078 48.8958 180.058 49.4229 179.684 49.5928L179.891 50.048ZM184.067 46.808H184.567V46.664H184.067H183.567V46.808H184.067ZM184.067 46.664L184.557 46.5659C184.505 46.3042 184.387 46.0625 184.177 45.89C183.966 45.7178 183.718 45.66 183.491 45.66V46.16V46.66C183.552 46.66 183.556 46.6742 183.543 46.664C183.531 46.6535 183.557 46.6638 183.577 46.7621L184.067 46.664ZM183.491 46.16V45.66C183.069 45.66 182.628 45.8735 182.246 46.1291C181.846 46.3965 181.434 46.7617 181.055 47.1694C180.309 47.971 179.612 49.0206 179.403 49.9372L179.891 50.048L180.379 50.1588C180.53 49.4913 181.093 48.597 181.787 47.8506C182.128 47.4843 182.481 47.1745 182.801 46.9604C183.139 46.7345 183.373 46.66 183.491 46.66V46.16ZM168.299 72.872V73.372C169.241 73.372 170.214 72.937 171.13 72.2491C172.051 71.5562 172.957 70.5757 173.776 69.4056C175.412 67.0665 176.741 63.9119 177.147 60.6213L176.651 60.56L176.155 60.4987C175.769 63.6161 174.506 66.6175 172.956 68.8324C172.182 69.9393 171.346 70.8353 170.529 71.4497C169.705 72.069 168.941 72.372 168.299 72.372V72.872ZM176.651 60.56L176.465 60.0958C173.923 61.1127 170.393 62.9432 168.233 65.1024L168.587 65.456L168.941 65.8096C170.957 63.7928 174.339 62.0233 176.837 61.0242L176.651 60.56ZM168.587 65.456L168.227 65.1087C166.178 67.2309 165.351 69.0068 165.351 70.352H165.851H166.351C166.351 69.3932 166.964 67.8571 168.947 65.8033L168.587 65.456ZM165.851 70.352H165.351C165.351 70.8861 165.454 71.3449 165.658 71.7417C165.862 72.1381 166.152 72.4451 166.487 72.696L166.787 72.296L167.087 71.896C166.846 71.7149 166.668 71.5179 166.548 71.2843C166.428 71.0511 166.351 70.7539 166.351 70.352H165.851ZM166.787 72.296L166.467 72.6801C166.974 73.1023 167.588 73.372 168.299 73.372V72.872V72.372C167.858 72.372 167.464 72.2097 167.107 71.9119L166.787 72.296ZM186.012 86.12L185.545 86.2995L185.554 86.322L185.565 86.3436L186.012 86.12ZM216.18 24.056L216.595 24.3355L217.017 23.7093L216.276 23.5652L216.18 24.056ZM173.268 24.92L173.454 25.3842L173.495 25.3678L173.533 25.3443L173.268 24.92ZM172.908 25.064V25.564H173.004L173.094 25.5282L172.908 25.064ZM172.98 24.272L172.715 23.8481L172.703 23.856L172.98 24.272ZM217.044 22.688L216.956 23.1802L217.272 23.2369L217.455 22.9726L217.044 22.688ZM228.204 7.496L227.851 7.14244L227.83 7.16285L227.812 7.18546L228.204 7.496ZM230.148 8.35999L229.795 8.00644L229.77 8.03065L229.75 8.05794L230.148 8.35999ZM219.564 23.192L219.145 22.9186L218.704 23.5943L219.506 23.6886L219.564 23.192ZM223.092 23.768L223.172 23.2744L223.163 23.273L223.154 23.2719L223.092 23.768ZM268.74 22.688L268.463 22.272L268.447 22.2827L268.432 22.2946L268.74 22.688ZM269.244 23.264L268.967 22.848L268.951 22.8583L268.937 22.8697L269.244 23.264ZM222.732 25.208L222.816 24.7151L222.814 24.7148L222.732 25.208ZM218.628 24.488L218.702 23.9935L218.4 23.9482L218.222 24.1962L218.628 24.488ZM186.732 85.76L187.217 85.6387L187.207 85.5966L187.189 85.5569L186.732 85.76ZM186.804 86.048H187.304V85.9865L187.289 85.9267L186.804 86.048ZM186.444 86.552V86.052C186.551 86.052 186.599 86.1079 186.582 86.0904C186.574 86.0831 186.559 86.0653 186.536 86.0317C186.514 85.9984 186.488 85.9541 186.459 85.8964L186.012 86.12L185.565 86.3436C185.649 86.5111 185.749 86.6721 185.875 86.7976C186.001 86.9241 186.193 87.052 186.444 87.052V86.552ZM186.012 86.12L186.479 85.9405C186.148 85.0804 186.008 84.0664 186.008 82.952H185.508H185.008C185.008 84.1416 185.156 85.2876 185.545 86.2995L186.012 86.12ZM185.508 82.952H186.008C186.008 79.3342 187.479 74.4772 189.838 69.0274C192.19 63.5931 195.399 57.6278 198.818 51.8135C205.657 40.1844 213.313 29.2034 216.595 24.3355L216.18 24.056L215.766 23.7765C212.495 28.6286 204.815 39.6436 197.956 51.3065C194.527 57.1382 191.295 63.1429 188.92 68.6301C186.552 74.1018 185.008 79.1178 185.008 82.952H185.508ZM216.18 24.056L216.276 23.5652C208.508 22.0548 199.46 20.316 190.98 20.316V20.816V21.316C199.348 21.316 208.301 23.0332 216.085 24.5468L216.18 24.056ZM190.98 20.816V20.316C184.387 20.316 178.086 21.3283 173.004 24.4957L173.268 24.92L173.533 25.3443C178.386 22.3197 184.469 21.316 190.98 21.316V20.816ZM173.268 24.92L173.082 24.4558L172.722 24.5998L172.908 25.064L173.094 25.5282L173.454 25.3842L173.268 24.92ZM172.908 25.064V24.564C172.91 24.564 172.933 24.5643 172.967 24.579C173.004 24.5943 173.039 24.62 173.067 24.6539C173.121 24.7178 173.12 24.7737 173.12 24.776H172.62H172.12C172.12 24.9223 172.156 25.1221 172.299 25.2941C172.456 25.4821 172.68 25.564 172.908 25.564V25.064ZM172.62 24.776H173.12C173.12 24.7992 173.117 24.8161 173.115 24.8255C173.113 24.8352 173.111 24.8401 173.111 24.8403C173.111 24.8407 173.112 24.8379 173.115 24.8324C173.118 24.8269 173.123 24.8196 173.129 24.8107C173.155 24.7726 173.2 24.7261 173.257 24.688L172.98 24.272L172.703 23.856C172.544 23.9619 172.409 24.0954 172.31 24.2373C172.219 24.3664 172.12 24.5576 172.12 24.776H172.62ZM172.98 24.272L173.246 24.6957C178.532 21.3828 185.192 20.236 192.276 20.236V19.736V19.236C185.104 19.236 178.228 20.3932 172.715 23.8483L172.98 24.272ZM192.276 19.736V20.236C200.576 20.236 209.315 21.8106 216.956 23.1802L217.044 22.688L217.132 22.1958C209.509 20.8294 200.68 19.236 192.276 19.236V19.736ZM217.044 22.688L217.455 22.9726C220.044 19.2338 225.581 11.6112 228.596 7.80654L228.204 7.496L227.812 7.18546C224.779 11.0128 219.229 18.6542 216.633 22.4034L217.044 22.688ZM228.204 7.496L228.558 7.84955C228.755 7.65232 228.989 7.564 229.212 7.564V7.064V6.564C228.715 6.564 228.229 6.76367 227.851 7.14244L228.204 7.496ZM229.212 7.064V7.564C229.403 7.564 229.594 7.62576 229.727 7.71402C229.87 7.8094 229.864 7.87352 229.864 7.856H230.364H230.864C230.864 7.40648 230.57 7.07459 230.281 6.88197C229.982 6.68224 229.597 6.564 229.212 6.564V7.064ZM230.364 7.856H229.864C229.864 7.85195 229.864 7.85759 229.861 7.87224C229.858 7.88615 229.853 7.90351 229.846 7.9223C229.83 7.96243 229.81 7.99132 229.795 8.00644L230.148 8.35999L230.502 8.71355C230.746 8.46965 230.864 8.12368 230.864 7.856H230.364ZM230.148 8.35999L229.75 8.05794C226.362 12.5274 221.458 19.3774 219.145 22.9186L219.564 23.192L219.983 23.4654C222.278 19.9505 227.167 13.1206 230.547 8.66205L230.148 8.35999ZM219.564 23.192L219.506 23.6886C220.099 23.7584 220.678 23.8635 221.264 23.9717C221.845 24.079 222.437 24.19 223.03 24.2641L223.092 23.768L223.154 23.2719C222.595 23.202 222.035 23.097 221.446 22.9883C220.862 22.8805 220.253 22.7696 219.623 22.6954L219.564 23.192ZM223.092 23.768L223.013 24.2616C229.709 25.3416 240.832 27.004 250.74 27.004V26.504V26.004C240.92 26.004 229.868 24.3544 223.172 23.2744L223.092 23.768ZM250.74 26.504V27.004C254.502 27.004 258.118 26.7692 261.265 26.1671C264.405 25.5665 267.122 24.5923 269.049 23.0814L268.74 22.688L268.432 22.2946C266.686 23.6637 264.148 24.5975 261.077 25.1849C258.014 25.7708 254.466 26.004 250.74 26.004V26.504ZM268.74 22.688L269.017 23.104C269.119 23.0364 269.181 23.0013 269.222 22.9829C269.258 22.9668 269.26 22.972 269.244 22.972V22.472V21.972C268.933 21.972 268.674 22.1309 268.463 22.272L268.74 22.688ZM269.244 22.472V22.972C269.154 22.972 269.105 22.9317 269.089 22.9156C269.072 22.8994 269.032 22.8506 269.032 22.76H269.532H270.032C270.032 22.5254 269.92 22.3326 269.796 22.2084C269.672 22.0843 269.479 21.972 269.244 21.972V22.472ZM269.532 22.76H269.032C269.032 22.7539 269.032 22.7674 269.022 22.7884C269.013 22.8057 268.998 22.8273 268.967 22.848L269.244 23.264L269.521 23.68C269.894 23.432 270.032 23.0496 270.032 22.76H269.532ZM269.244 23.264L268.937 22.8697C266.903 24.4555 263.95 25.5335 260.42 26.211C256.898 26.8869 252.846 27.156 248.652 27.156V27.656V28.156C252.882 28.156 257.002 27.8851 260.608 27.193C264.206 26.5025 267.338 25.3845 269.552 23.6583L269.244 23.264ZM248.652 27.656V27.156C239.261 27.156 229.14 25.793 222.816 24.7151L222.732 25.208L222.648 25.7009C228.996 26.783 239.18 28.156 248.652 28.156V27.656ZM222.732 25.208L222.814 24.7148C221.558 24.5054 220.136 24.2086 218.702 23.9935L218.628 24.488L218.554 24.9825C220 25.1994 221.314 25.4786 222.65 25.7012L222.732 25.208ZM218.628 24.488L218.222 24.1962C214.727 29.0602 206.637 40.5563 199.418 52.4526C195.809 58.4 192.412 64.4568 189.916 69.8402C187.43 75.2001 185.8 79.9693 185.8 83.312H186.3H186.8C186.8 80.2107 188.338 75.6199 190.823 70.2608C193.297 64.9252 196.673 58.904 200.273 52.9714C207.472 41.1077 215.545 29.6358 219.034 24.7798L218.628 24.488ZM186.3 83.312H185.8C185.8 84.2906 185.949 85.2301 186.275 85.9631L186.732 85.76L187.189 85.5569C186.939 84.9939 186.8 84.2054 186.8 83.312H186.3ZM186.732 85.76L186.247 85.8813L186.319 86.1693L186.804 86.048L187.289 85.9267L187.217 85.6387L186.732 85.76ZM186.804 86.048H186.304C186.304 86.1148 186.287 86.1339 186.296 86.1213C186.301 86.1132 186.316 86.0948 186.346 86.0783C186.377 86.0608 186.412 86.052 186.444 86.052V86.552V87.052C186.74 87.052 186.973 86.8971 187.115 86.6947C187.25 86.5021 187.304 86.2692 187.304 86.048H186.804ZM215.127 66.032L215.045 66.5252L215.086 66.532H215.127V66.032ZM214.263 65.888L214.114 66.3652L214.147 66.3755L214.181 66.3812L214.263 65.888ZM216.135 54.296L216.611 54.449L216.614 54.4412L216.616 54.4334L216.135 54.296ZM215.991 51.704L216.291 51.304L216.266 51.2853L216.239 51.2699L215.991 51.704ZM219.447 46.088L219.545 45.5977L219.497 45.588H219.447V46.088ZM219.807 46.16L219.928 45.6749L219.917 45.672L219.905 45.6697L219.807 46.16ZM216.927 50.84L216.67 50.4113L216.081 50.7644L216.598 51.2163L216.927 50.84ZM214.623 64.736L214.781 64.2617L214.623 64.736ZM239.463 51.056L239.186 50.6399L239.179 50.6446L239.463 51.056ZM239.823 51.488L239.6 51.0408L239.567 51.0573L239.536 51.0784L239.823 51.488ZM216.567 50.192H216.067V51.0253L216.802 50.6332L216.567 50.192ZM219.087 47.168V46.668H218.96L218.848 46.729L219.087 47.168ZM215.127 66.032L215.209 65.5388L214.345 65.3948L214.263 65.888L214.181 66.3812L215.045 66.5252L215.127 66.032ZM214.263 65.888L214.412 65.4108C213.935 65.2615 213.642 65.0219 213.461 64.7376C213.275 64.445 213.179 64.0608 213.179 63.584H212.679H212.179C212.179 64.1872 212.299 64.775 212.617 65.2744C212.94 65.7821 213.44 66.1545 214.114 66.3652L214.263 65.888ZM212.679 63.584H213.179C213.179 62.3036 213.831 60.5798 214.619 58.8503C215.009 57.9952 215.415 57.1726 215.773 56.4174C216.126 55.6751 216.437 54.9893 216.611 54.449L216.135 54.296L215.659 54.143C215.509 54.6107 215.226 55.2389 214.87 55.9883C214.52 56.7249 214.103 57.5718 213.709 58.4357C212.931 60.1442 212.179 62.0564 212.179 63.584H212.679ZM216.135 54.296L216.616 54.4334C216.758 53.9364 216.923 53.296 216.923 52.784H216.423H215.923C215.923 53.136 215.8 53.6476 215.654 54.1586L216.135 54.296ZM216.423 52.784H216.923C216.923 52.1897 216.75 51.6485 216.291 51.304L215.991 51.704L215.691 52.104C215.808 52.1915 215.923 52.3703 215.923 52.784H216.423ZM215.991 51.704L216.239 51.2699C215.899 51.0752 215.771 50.8134 215.771 50.48H215.271H214.771C214.771 51.1546 215.076 51.7568 215.743 52.1381L215.991 51.704ZM215.271 50.48H215.771C215.771 50.1545 215.886 49.7438 216.116 49.2916C216.344 48.8448 216.669 48.3874 217.051 47.9762C217.433 47.5648 217.861 47.2112 218.287 46.9635C218.717 46.7132 219.115 46.588 219.447 46.588V46.088V45.588C218.879 45.588 218.305 45.7958 217.784 46.099C217.258 46.4048 216.755 46.8252 216.318 47.2958C215.881 47.7666 215.499 48.2991 215.225 48.8379C214.953 49.3712 214.771 49.9415 214.771 50.48H215.271ZM219.447 46.088L219.349 46.5783L219.709 46.6503L219.807 46.16L219.905 45.6697L219.545 45.5977L219.447 46.088ZM219.807 46.16L219.686 46.6451C219.731 46.6563 219.755 46.6666 219.765 46.6721C219.774 46.6769 219.768 46.6753 219.757 46.6632C219.752 46.6574 219.748 46.6508 219.744 46.6439C219.74 46.6371 219.738 46.6318 219.737 46.6291C219.735 46.624 219.739 46.633 219.739 46.664H220.239H220.739C220.739 46.4337 220.679 46.1952 220.505 45.9988C220.339 45.8126 220.122 45.7233 219.928 45.6749L219.807 46.16ZM220.239 46.664H219.739C219.739 46.7942 219.659 47.0521 219.441 47.4309C219.233 47.7896 218.94 48.193 218.605 48.5931C217.926 49.4044 217.14 50.1293 216.67 50.4113L216.927 50.84L217.184 51.2687C217.794 50.9027 218.665 50.0796 219.372 49.2349C219.73 48.807 220.061 48.3554 220.306 47.9311C220.54 47.5269 220.739 47.0738 220.739 46.664H220.239ZM216.927 50.84L216.598 51.2163C217.028 51.593 217.219 52.1505 217.219 52.856H217.719H218.219C218.219 51.9775 217.978 51.095 217.256 50.4637L216.927 50.84ZM217.719 52.856H217.219C217.219 53.5941 216.996 54.4633 216.633 55.4162C216.272 56.3641 215.787 57.3563 215.293 58.3368C214.803 59.3075 214.298 60.2756 213.92 61.1403C213.548 61.9904 213.259 62.822 213.259 63.512H213.759H214.259C214.259 63.05 214.465 62.3876 214.836 61.5412C215.2 60.7094 215.685 59.7785 216.186 58.7872C216.681 57.8057 217.186 56.7729 217.568 55.7723C217.947 54.7767 218.219 53.7739 218.219 52.856H217.719ZM213.759 63.512H213.259C213.259 63.885 213.32 64.2524 213.535 64.5677C213.753 64.8874 214.08 65.082 214.465 65.2103L214.623 64.736L214.781 64.2617C214.518 64.174 214.413 64.0806 214.361 64.0043C214.306 63.9236 214.259 63.787 214.259 63.512H213.759ZM214.623 64.736L214.465 65.2103C214.772 65.3126 215.073 65.308 215.343 65.308V64.808V64.308C215.037 64.308 214.906 64.3034 214.781 64.2617L214.623 64.736ZM215.343 64.808V65.308C216.036 65.308 216.872 65.1156 217.785 64.8023C218.706 64.4864 219.74 64.0357 220.842 63.4925C223.045 62.4059 225.553 60.9331 228.02 59.3813C232.955 56.2777 237.776 52.8293 239.747 51.4674L239.463 51.056L239.179 50.6446C237.19 52.0187 232.399 55.4463 227.488 58.5347C225.033 60.0789 222.558 61.5311 220.399 62.5955C219.32 63.1278 218.327 63.5591 217.461 63.8564C216.587 64.1561 215.874 64.308 215.343 64.308V64.808ZM239.463 51.056L239.74 51.472C239.803 51.4303 239.837 51.4212 239.851 51.4181C239.871 51.4135 239.892 51.412 239.967 51.412V50.912V50.412C239.899 50.412 239.775 50.4105 239.634 50.4419C239.486 50.4748 239.339 50.5377 239.186 50.64L239.463 51.056ZM239.967 50.912V51.412C239.986 51.412 239.998 51.412 240.009 51.4122C240.019 51.4124 240.022 51.4127 240.02 51.4125C240.019 51.4124 240.007 51.4114 239.989 51.4074C239.971 51.4033 239.941 51.3949 239.906 51.3772C239.821 51.3351 239.751 51.263 239.713 51.1758C239.696 51.1391 239.689 51.1082 239.686 51.089C239.683 51.07 239.683 51.0579 239.683 51.056H240.183H240.683C240.683 50.9858 240.676 50.88 240.627 50.7697C240.57 50.642 240.473 50.5429 240.353 50.4828C240.251 50.4317 240.154 50.4202 240.103 50.416C240.051 50.4116 239.997 50.412 239.967 50.412V50.912ZM240.183 51.056H239.683C239.683 51.026 239.687 51.0047 239.689 50.9943C239.691 50.9825 239.693 50.9747 239.695 50.9706C239.697 50.9625 239.699 50.9624 239.695 50.9677C239.69 50.9757 239.666 51.0074 239.6 51.0408L239.823 51.488L240.047 51.9352C240.479 51.7189 240.683 51.3436 240.683 51.056H240.183ZM239.823 51.488L239.536 51.0784C237.349 52.6099 232.596 56.2208 227.659 59.4766C225.195 61.1011 222.705 62.6236 220.492 63.7382C218.255 64.865 216.383 65.532 215.127 65.532V66.032V66.532C216.643 66.532 218.704 65.7589 220.942 64.6313C223.205 63.4914 225.732 61.9449 228.209 60.3114C233.154 57.0512 237.978 53.3901 240.11 51.8976L239.823 51.488ZM216.567 50.192L216.802 50.6332C217.438 50.2943 218.139 49.5582 218.656 48.9237C218.922 48.597 219.156 48.2763 219.326 48.0133C219.41 47.8826 219.484 47.7591 219.538 47.6518C219.565 47.5986 219.591 47.5416 219.612 47.4848C219.628 47.4393 219.659 47.3475 219.659 47.24H219.159H218.659C218.659 47.1685 218.678 47.1267 218.672 47.1438C218.67 47.1495 218.662 47.1674 218.646 47.2C218.613 47.2643 218.56 47.3556 218.486 47.4702C218.339 47.6977 218.127 47.989 217.88 48.2923C217.371 48.9178 216.777 49.5136 216.332 49.7508L216.567 50.192ZM219.159 47.24H219.659C219.659 47.2342 219.66 47.1875 219.655 47.1432C219.65 47.1025 219.632 46.9519 219.504 46.8234C219.375 46.695 219.225 46.6767 219.184 46.6722C219.14 46.6673 219.093 46.668 219.087 46.668V47.168V47.668C219.117 47.668 219.098 47.6687 219.074 47.6661C219.053 47.6638 218.916 47.65 218.797 47.5305C218.677 47.4111 218.663 47.274 218.661 47.2536C218.658 47.2295 218.659 47.2098 218.659 47.24H219.159ZM219.087 47.168L218.848 46.729C218.591 46.8689 218.297 47.1125 218.016 47.3767C217.728 47.6485 217.425 47.9701 217.15 48.2921C216.876 48.6131 216.621 48.9433 216.431 49.2332C216.337 49.3775 216.253 49.5209 216.19 49.6541C216.135 49.7711 216.067 49.9415 216.067 50.12H216.567H217.067C217.067 50.1725 217.053 50.1696 217.096 50.0782C217.131 50.003 217.188 49.9028 217.268 49.7805C217.427 49.5372 217.654 49.2419 217.91 48.9419C218.166 48.6429 218.444 48.348 218.702 48.1045C218.968 47.8535 219.187 47.6831 219.327 47.6069L219.087 47.168ZM216.567 50.12H216.067V50.192H216.567H217.067V50.12H216.567ZM210.598 109.448L210.774 108.98L210.764 108.976L210.598 109.448ZM214.63 87.416L214.246 87.0965L214.243 87.0994L214.63 87.416ZM245.59 62.792L245.829 63.2316L245.961 63.16L246.032 63.0273L245.59 62.792ZM250.486 53.144L250.935 53.3639L250.13 52.7937L250.486 53.144ZM236.014 61.064L236.443 60.8068L236.437 60.7965L236.43 60.7867L236.014 61.064ZM241.27 48.392L240.917 48.0384L240.906 48.049L240.896 48.0602L241.27 48.392ZM242.494 48.68L242.942 48.9036L242.994 48.798V48.68H242.494ZM242.35 48.968L242.729 49.2948L242.77 49.2475L242.798 49.1916L242.35 48.968ZM237.166 60.416L237.635 60.2404L237.625 60.2159L237.614 60.1924L237.166 60.416ZM252.43 50.12L252.78 50.4774L252.784 50.4736L252.43 50.12ZM253.51 50.552L253.996 50.6733L254.01 50.6136V50.552H253.51ZM253.438 50.84L253.884 51.0672L253.91 51.0165L253.924 50.9613L253.438 50.84ZM248.038 61.424L247.593 61.1968L246.787 62.7764L248.3 61.8504L248.038 61.424ZM266.83 50.984L267.073 51.4214L267.134 51.3873L267.184 51.3376L266.83 50.984ZM267.118 51.488L266.895 51.0408L266.88 51.0482L266.866 51.0566L267.118 51.488ZM247.318 63.008L247.051 62.5855L246.938 62.6567L246.876 62.7746L247.318 63.008ZM244.726 64.592L245.169 64.8253L245.974 63.299L244.477 64.1584L244.726 64.592ZM216.286 87.56L215.904 87.2379L215.902 87.2405L216.286 87.56ZM210.886 108.224L210.718 108.695L210.734 108.7L210.749 108.705L210.886 108.224ZM212.326 109.736V109.236C211.793 109.236 211.279 109.169 210.774 108.98L210.598 109.448L210.423 109.916C211.069 110.159 211.708 110.236 212.326 110.236V109.736ZM210.598 109.448L210.764 108.976C209.523 108.54 208.684 107.867 208.149 107.028C207.61 106.184 207.354 105.132 207.354 103.904H206.854H206.354C206.354 105.268 206.639 106.52 207.306 107.566C207.977 108.617 209.01 109.42 210.433 109.92L210.598 109.448ZM206.854 103.904H207.354C207.354 101.571 208.287 98.7193 209.732 95.8296C211.171 92.9508 213.094 90.0836 215.017 87.7326L214.63 87.416L214.243 87.0994C212.279 89.5004 210.314 92.4292 208.837 95.3824C207.366 98.3247 206.354 101.341 206.354 103.904H206.854ZM214.63 87.416L215.015 87.7355C225.537 75.0656 240.662 66.0302 245.829 63.2316L245.59 62.792L245.352 62.3524C240.151 65.1698 224.891 74.2784 214.246 87.0965L214.63 87.416ZM245.59 62.792L246.032 63.0273C247.764 59.7799 249.206 56.8941 250.935 53.3639L250.486 53.144L250.037 52.9241C248.31 56.4499 246.873 59.3241 245.149 62.5567L245.59 62.792ZM250.486 53.144L250.13 52.7937C248.19 54.7688 245.887 56.9817 243.673 58.6978C242.566 59.556 241.492 60.281 240.507 60.7895C239.513 61.3022 238.652 61.572 237.958 61.572V62.072V62.572C238.885 62.572 239.914 62.2208 240.965 61.6782C242.025 61.1315 243.152 60.367 244.286 59.4882C246.554 57.7303 248.894 55.4792 250.843 53.4943L250.486 53.144ZM237.958 62.072V61.572C237.292 61.572 236.762 61.3374 236.443 60.8068L236.014 61.064L235.586 61.3212C236.131 62.2306 237.041 62.572 237.958 62.572V62.072ZM236.014 61.064L236.43 60.7867C236.2 60.4413 236.01 59.8909 236.01 59.264H235.51H235.01C235.01 60.0771 235.253 60.8227 235.598 61.3413L236.014 61.064ZM235.51 59.264H236.01C236.01 58.1128 236.425 56.5915 237.35 54.7849C238.272 52.9851 239.686 50.9315 241.644 48.7238L241.27 48.392L240.896 48.0602C238.895 50.3165 237.429 52.4389 236.46 54.3291C235.496 56.2125 235.01 57.8952 235.01 59.264H235.51ZM241.27 48.392L241.624 48.7456C241.666 48.7031 241.689 48.6911 241.699 48.6869C241.706 48.6837 241.725 48.676 241.774 48.676V48.176V47.676C241.608 47.676 241.447 47.7043 241.292 47.7731C241.14 47.8409 241.018 47.9369 240.917 48.0384L241.27 48.392ZM241.774 48.176V48.676C241.862 48.676 241.944 48.7041 241.992 48.736C242.045 48.7711 241.994 48.7614 241.994 48.68H242.494H242.994C242.994 48.3106 242.764 48.0489 242.547 47.904C242.325 47.7559 242.047 47.676 241.774 47.676V48.176ZM242.494 48.68L242.047 48.4564L241.903 48.7444L242.35 48.968L242.798 49.1916L242.942 48.9036L242.494 48.68ZM242.35 48.968L241.972 48.6412C241.251 49.4755 239.917 51.5303 238.768 53.7021C238.19 54.7934 237.651 55.9291 237.256 56.9716C236.865 58.0008 236.594 58.9892 236.594 59.768H237.094H237.594C237.594 59.1788 237.81 58.3312 238.191 57.3264C238.567 56.3349 239.086 55.2386 239.651 54.1699C240.788 52.0217 242.081 50.0445 242.729 49.2948L242.35 48.968ZM237.094 59.768H236.594C236.594 59.9055 236.594 60.0544 236.605 60.1875C236.616 60.3189 236.641 60.4834 236.719 60.6396L237.166 60.416L237.614 60.1924C237.62 60.2046 237.609 60.1891 237.602 60.1045C237.595 60.0216 237.594 59.9185 237.594 59.768H237.094ZM237.166 60.416L236.698 60.5916C236.828 60.9369 237.018 61.2436 237.304 61.4617C237.596 61.6842 237.943 61.78 238.318 61.78V61.28V60.78C238.118 60.78 237.996 60.7318 237.91 60.6663C237.819 60.5964 237.721 60.4711 237.635 60.2404L237.166 60.416ZM238.318 61.28V61.78C239.037 61.78 239.891 61.4259 240.818 60.8779C241.764 60.3192 242.857 59.5136 244.072 58.5165C246.502 56.5213 249.468 53.7177 252.78 50.4774L252.43 50.12L252.081 49.7626C248.769 53.0023 245.831 55.7787 243.437 57.7435C242.24 58.7264 241.191 59.4958 240.309 60.0171C239.409 60.5491 238.752 60.78 238.318 60.78V61.28ZM252.43 50.12L252.784 50.4736C252.828 50.43 252.857 50.4118 252.87 50.4052C252.881 50.3998 252.877 50.404 252.862 50.404V49.904V49.404C252.539 49.404 252.275 49.5679 252.077 49.7664L252.43 50.12ZM252.862 49.904V50.404C252.833 50.404 252.831 50.3962 252.856 50.4092C252.879 50.4211 252.91 50.4427 252.941 50.4736C252.972 50.5045 252.993 50.5353 253.005 50.5582C253.018 50.5835 253.01 50.581 253.01 50.552H253.51H254.01C254.01 50.2216 253.821 49.9397 253.648 49.7664C253.475 49.5932 253.193 49.404 252.862 49.404V49.904ZM253.51 50.552L253.025 50.4307L252.953 50.7187L253.438 50.84L253.924 50.9613L253.996 50.6733L253.51 50.552ZM253.438 50.84L252.993 50.6128L247.593 61.1968L248.038 61.424L248.484 61.6512L253.884 51.0672L253.438 50.84ZM248.038 61.424L248.3 61.8504C255.345 57.537 258.98 55.901 267.073 51.4214L266.83 50.984L266.588 50.5466C258.552 54.995 254.844 56.671 247.777 60.9976L248.038 61.424ZM266.83 50.984L267.184 51.3376C267.19 51.3316 267.19 51.333 267.184 51.3365C267.177 51.3402 267.171 51.3423 267.168 51.3431C267.166 51.3436 267.17 51.3423 267.186 51.3413C267.203 51.3402 267.224 51.34 267.262 51.34V50.84V50.34C267.111 50.34 266.776 50.331 266.477 50.6304L266.83 50.984ZM267.262 50.84V51.34C267.257 51.34 267.162 51.3384 267.071 51.2476C266.98 51.1567 266.978 51.0611 266.978 51.056H267.478H267.978C267.978 50.9069 267.941 50.7033 267.778 50.5404C267.615 50.3776 267.411 50.34 267.262 50.34V50.84ZM267.478 51.056H266.978C266.978 51.0496 266.979 51.0344 266.985 51.0149C266.992 50.9947 267 50.98 267.006 50.972C267.012 50.9652 267.01 50.9693 266.993 50.9823C266.976 50.9955 266.945 51.0156 266.895 51.0408L267.118 51.488L267.342 51.9352C267.526 51.8434 267.689 51.7281 267.806 51.572C267.933 51.4031 267.978 51.2225 267.978 51.056H267.478ZM267.118 51.488L266.866 51.0566C258.545 55.934 254.113 58.118 247.051 62.5855L247.318 63.008L247.586 63.4305C254.636 58.97 258.988 56.834 267.371 51.9193L267.118 51.488ZM247.318 63.008L246.876 62.7746C244.132 67.9746 238.368 79.6284 231.803 89.9924C228.52 95.1748 225.051 100.012 221.675 103.547C219.987 105.315 218.334 106.744 216.752 107.729C215.168 108.715 213.685 109.236 212.326 109.236V109.736V110.236C213.938 110.236 215.605 109.621 217.281 108.578C218.959 107.534 220.676 106.041 222.398 104.238C225.841 100.632 229.352 95.7312 232.648 90.5276C239.241 80.1196 245.033 68.4094 247.761 63.2414L247.318 63.008ZM212.398 108.44V108.94C213.872 108.94 215.403 108.346 216.941 107.351C218.483 106.354 220.069 104.93 221.663 103.215C224.852 99.7843 228.125 95.1295 231.2 90.21C237.351 80.3705 242.766 69.3804 245.169 64.8253L244.726 64.592L244.284 64.3587C241.863 68.9476 236.478 79.8815 230.352 89.68C227.29 94.5795 224.056 99.1722 220.931 102.534C219.369 104.215 217.846 105.575 216.398 106.511C214.947 107.45 213.607 107.94 212.398 107.94V108.44ZM244.726 64.592L244.477 64.1584C233.782 70.3008 222.861 78.976 215.904 87.2379L216.286 87.56L216.669 87.8821C223.535 79.728 234.358 71.1232 244.975 65.0256L244.726 64.592ZM216.286 87.56L215.902 87.2405C213.94 89.6024 211.868 92.5643 210.283 95.5326C208.708 98.4847 207.578 101.509 207.578 103.976H208.078H208.578C208.578 101.763 209.609 98.9193 211.166 96.0034C212.713 93.1037 214.745 90.1976 216.671 87.8795L216.286 87.56ZM208.078 103.976H207.578C207.578 105.047 207.789 106.029 208.302 106.851C208.82 107.68 209.62 108.303 210.718 108.695L210.886 108.224L211.055 107.753C210.137 107.425 209.532 106.932 209.15 106.321C208.764 105.703 208.578 104.921 208.578 103.976H208.078ZM210.886 108.224L210.749 108.705C211.296 108.861 211.846 108.94 212.398 108.94V108.44V107.94C211.943 107.94 211.485 107.875 211.024 107.743L210.886 108.224Z" fill="#8B9B68" mask="url(#path-1-outside-1_2093_442)"/>
</svg>
