<svg width="133" height="41" viewBox="0 0 133 41" fill="none" xmlns="http://www.w3.org/2000/svg">
<mask id="path-1-outside-1_67_1057" maskUnits="userSpaceOnUse" x="0" y="0" width="133" height="41" fill="black">
<rect fill="white" width="133" height="41"/>
<path d="M29.5123 39.804C28.6483 39.804 28.0363 39.048 27.7123 37.32C27.5683 36.492 27.5323 35.556 27.5323 34.548C27.5323 28.5 29.9443 19.752 32.5363 15.324C30.4843 16.584 19.6123 28.752 14.2483 30.948C13.9243 31.092 13.6723 31.128 13.4203 31.128C12.6643 31.128 12.2683 30.552 12.2683 29.472C12.2683 25.908 16.6603 17.196 25.5163 9.744C19.9723 11.508 1.28831 14.64 1.28831 17.196L1.32431 17.376C1.32431 17.52 1.21631 17.628 1.10831 17.628C0.964313 17.628 0.856313 17.52 0.820312 17.304V17.16C0.820312 13.632 21.9523 10.932 27.0283 8.484L27.2083 8.448C27.4963 8.448 28.0003 8.736 28.0003 9.06C28.0003 9.168 27.9283 9.276 27.7483 9.384C25.8403 10.608 21.7723 14.784 18.7843 19.032C15.7603 23.316 13.4203 27.708 13.4203 29.436C13.4203 29.904 13.6003 30.156 13.9963 30.156C14.2843 30.156 14.7523 29.976 15.3283 29.616C21.0163 26.124 31.4203 14.568 33.6163 13.74H33.7243C34.1203 13.74 34.8403 14.136 34.8403 14.424L34.8043 14.496C31.1323 19.536 28.5763 30.012 28.5763 35.376C28.5763 37.392 28.9363 38.688 29.7643 38.688C34.9843 38.508 51.7243 5.46 63.4243 0.563999C63.5323 0.527997 63.6043 0.527997 63.6403 0.527997C63.7843 0.527997 63.8563 0.563999 63.8563 0.635998C63.8563 0.707999 63.7843 0.815998 63.6403 0.851998C53.1283 4.956 35.4163 39.804 29.5123 39.804ZM49.7637 29.076C49.3677 29.076 49.0077 29.004 48.6837 28.86C47.9277 28.536 47.6397 27.816 47.6397 26.988C47.6397 26.16 47.9277 25.296 48.3237 24.576C49.7637 22.02 51.5277 21.228 52.6437 21.228C53.2917 21.228 53.7237 21.48 53.7237 21.84C53.7237 22.74 52.1397 24.216 49.1877 24.792C48.7197 25.728 48.5397 26.448 48.5397 26.988C48.5397 27.996 49.1517 28.428 49.9797 28.464H50.1597C52.8597 28.464 57.7557 25.404 60.9957 22.992L61.1757 22.92C61.2477 22.92 61.3197 22.992 61.3197 23.028C61.3197 23.1 61.2837 23.172 61.1757 23.244C57.6837 25.908 52.6437 29.076 49.7637 29.076ZM49.4757 24.252C51.1677 24.108 53.3277 22.776 53.3277 22.092C53.3277 22.02 53.2917 21.948 53.2197 21.876C53.1477 21.804 53.0037 21.732 52.8237 21.732C52.1037 21.732 50.6997 22.416 49.4757 24.252ZM59.1735 34.476C58.9575 34.476 58.7415 34.44 58.5255 34.332C57.8055 33.972 57.5175 33.216 57.5175 32.208C57.5175 28.716 61.1895 22.2 63.2775 18.96C68.5335 10.86 76.0575 4.596 78.3975 4.596C78.6495 4.596 78.8295 4.668 78.9375 4.812C79.0815 4.956 79.1175 5.136 79.1175 5.352C79.1175 8.772 64.8975 20.508 61.9815 23.172C61.5855 23.676 58.5255 29.832 58.5255 32.532C58.5255 33.288 58.7775 33.756 59.3895 33.756C63.2415 33.684 70.4775 24.828 74.7975 22.92L74.9775 22.884C75.0855 22.884 75.1575 22.956 75.1575 23.028C75.1575 23.1 75.0855 23.208 74.9415 23.244C71.4495 24.576 62.7375 34.476 59.1735 34.476ZM62.4495 22.236C65.5095 19.464 69.6495 15.828 73.1055 12.372C76.0215 9.456 78.5775 6.36 78.5775 5.496L78.5415 5.352C78.5055 5.316 78.4695 5.28 78.3615 5.28C77.7495 5.28 75.9495 6.252 73.1775 8.808C69.4335 12.264 65.4015 17.268 62.4495 22.236ZM75.2202 29.112C74.8242 29.112 74.4642 29.04 74.1402 28.896C73.3482 28.536 73.0242 27.744 73.0242 26.844C73.0242 26.088 73.2762 25.26 73.6002 24.612C74.9322 22.236 76.4802 21.408 77.5602 21.408C78.4242 21.408 79.0002 21.876 79.0362 22.488C79.0362 22.704 78.9282 22.812 78.8202 22.812C78.7122 22.812 78.6402 22.74 78.6042 22.632C78.5682 22.452 78.4962 22.308 78.3882 22.236C78.2082 22.056 77.9922 21.984 77.7402 21.984C76.7322 21.984 75.3282 23.28 74.6802 24.54C74.1042 25.584 73.8882 26.376 73.8882 26.988C73.8882 27.996 74.5722 28.428 75.4002 28.464H75.5802C78.2802 28.464 83.0682 25.404 86.2722 22.992L86.4522 22.92C86.5242 22.92 86.5962 22.992 86.5962 23.064C86.5962 23.1 86.5602 23.172 86.4522 23.244C83.0682 25.908 78.1002 29.112 75.2202 29.112ZM84.5957 29.184C84.3797 29.184 84.1637 29.112 83.9837 28.932C83.7677 28.716 83.6957 28.392 83.6957 28.032C83.6957 27.204 84.1277 26.124 84.4877 25.44C84.9917 24.36 85.7117 23.352 86.3597 22.74C85.9637 22.416 85.8197 22.128 85.8197 21.912C85.8197 21.624 86.1077 21.444 86.4677 21.444C86.7917 21.444 87.1877 21.588 87.4397 21.948C88.3757 23.172 87.3677 22.884 88.6997 23.568C89.4917 23.964 90.4997 24.108 91.5077 24.108C93.4157 24.108 95.4677 23.568 96.7277 22.956L96.8717 22.92C96.9437 22.92 97.0157 22.956 97.0157 23.028C97.0157 23.064 96.9437 23.136 96.8357 23.208C95.3957 23.892 93.3437 24.504 91.3277 24.504C90.1757 24.504 89.0597 24.288 88.0517 23.784V23.82C88.0517 26.124 85.9997 29.184 84.5957 29.184ZM87.0437 22.452L86.5757 22.056C86.6837 22.2 86.8277 22.308 87.0437 22.452ZM84.8117 28.644C85.8197 28.644 87.4757 25.656 87.4757 23.964L87.4037 23.46L87.1157 23.28C85.2077 25.188 84.4877 27.42 84.4877 28.248C84.4877 28.428 84.5237 28.536 84.5597 28.572C84.6317 28.608 84.7037 28.644 84.8117 28.644ZM92.4811 30.552C92.3371 30.552 92.2291 30.48 92.2291 30.336C92.2291 30.264 92.2291 30.192 92.2651 30.12C93.1291 27.924 95.6131 24 97.3411 22.056C97.4131 21.984 97.4851 21.948 97.5571 21.948C97.7731 21.948 98.0971 22.236 98.0971 22.452C98.0971 22.524 98.0971 22.596 98.0251 22.632C96.5491 24.324 94.4971 27.168 93.4171 29.22C94.6771 27.96 100.941 22.668 102.597 22.668C102.813 22.668 102.957 22.776 102.957 23.028C102.129 24.828 101.301 26.988 100.617 28.824C101.445 27.456 104.901 24.576 106.089 24.576C106.377 24.576 106.521 24.72 106.521 25.044V25.332C106.521 28.392 107.133 29.328 108.069 29.724C108.249 29.796 108.429 29.832 108.645 29.832C111.381 29.832 117.717 23.964 119.913 22.992L120.093 22.956C120.129 22.956 120.165 22.992 120.165 23.028C120.165 23.064 120.129 23.136 120.021 23.172C117.861 24.288 111.633 30.336 108.321 30.336L107.925 30.3C106.557 30.048 105.621 29.04 105.621 25.764V25.224C103.533 25.98 100.365 29.508 100.365 29.508C100.185 29.724 100.041 29.796 99.9691 29.796C99.7891 29.796 99.7531 29.616 99.7531 29.292C99.7531 28.104 100.617 25.152 101.553 23.676C98.9971 24.756 93.6691 29.472 92.7691 30.444C92.7331 30.516 92.5891 30.552 92.4811 30.552ZM120.006 29.076C119.61 29.076 119.25 29.004 118.926 28.86C118.17 28.536 117.882 27.816 117.882 26.988C117.882 26.16 118.17 25.296 118.566 24.576C120.006 22.02 121.77 21.228 122.886 21.228C123.534 21.228 123.966 21.48 123.966 21.84C123.966 22.74 122.382 24.216 119.43 24.792C118.962 25.728 118.782 26.448 118.782 26.988C118.782 27.996 119.394 28.428 120.222 28.464H120.402C123.102 28.464 127.998 25.404 131.238 22.992L131.418 22.92C131.49 22.92 131.562 22.992 131.562 23.028C131.562 23.1 131.526 23.172 131.418 23.244C127.926 25.908 122.886 29.076 120.006 29.076ZM119.718 24.252C121.41 24.108 123.57 22.776 123.57 22.092C123.57 22.02 123.534 21.948 123.462 21.876C123.39 21.804 123.246 21.732 123.066 21.732C122.346 21.732 120.942 22.416 119.718 24.252Z"/>
</mask>
<path d="M29.5123 39.804C28.6483 39.804 28.0363 39.048 27.7123 37.32C27.5683 36.492 27.5323 35.556 27.5323 34.548C27.5323 28.5 29.9443 19.752 32.5363 15.324C30.4843 16.584 19.6123 28.752 14.2483 30.948C13.9243 31.092 13.6723 31.128 13.4203 31.128C12.6643 31.128 12.2683 30.552 12.2683 29.472C12.2683 25.908 16.6603 17.196 25.5163 9.744C19.9723 11.508 1.28831 14.64 1.28831 17.196L1.32431 17.376C1.32431 17.52 1.21631 17.628 1.10831 17.628C0.964313 17.628 0.856313 17.52 0.820312 17.304V17.16C0.820312 13.632 21.9523 10.932 27.0283 8.484L27.2083 8.448C27.4963 8.448 28.0003 8.736 28.0003 9.06C28.0003 9.168 27.9283 9.276 27.7483 9.384C25.8403 10.608 21.7723 14.784 18.7843 19.032C15.7603 23.316 13.4203 27.708 13.4203 29.436C13.4203 29.904 13.6003 30.156 13.9963 30.156C14.2843 30.156 14.7523 29.976 15.3283 29.616C21.0163 26.124 31.4203 14.568 33.6163 13.74H33.7243C34.1203 13.74 34.8403 14.136 34.8403 14.424L34.8043 14.496C31.1323 19.536 28.5763 30.012 28.5763 35.376C28.5763 37.392 28.9363 38.688 29.7643 38.688C34.9843 38.508 51.7243 5.46 63.4243 0.563999C63.5323 0.527997 63.6043 0.527997 63.6403 0.527997C63.7843 0.527997 63.8563 0.563999 63.8563 0.635998C63.8563 0.707999 63.7843 0.815998 63.6403 0.851998C53.1283 4.956 35.4163 39.804 29.5123 39.804ZM49.7637 29.076C49.3677 29.076 49.0077 29.004 48.6837 28.86C47.9277 28.536 47.6397 27.816 47.6397 26.988C47.6397 26.16 47.9277 25.296 48.3237 24.576C49.7637 22.02 51.5277 21.228 52.6437 21.228C53.2917 21.228 53.7237 21.48 53.7237 21.84C53.7237 22.74 52.1397 24.216 49.1877 24.792C48.7197 25.728 48.5397 26.448 48.5397 26.988C48.5397 27.996 49.1517 28.428 49.9797 28.464H50.1597C52.8597 28.464 57.7557 25.404 60.9957 22.992L61.1757 22.92C61.2477 22.92 61.3197 22.992 61.3197 23.028C61.3197 23.1 61.2837 23.172 61.1757 23.244C57.6837 25.908 52.6437 29.076 49.7637 29.076ZM49.4757 24.252C51.1677 24.108 53.3277 22.776 53.3277 22.092C53.3277 22.02 53.2917 21.948 53.2197 21.876C53.1477 21.804 53.0037 21.732 52.8237 21.732C52.1037 21.732 50.6997 22.416 49.4757 24.252ZM59.1735 34.476C58.9575 34.476 58.7415 34.44 58.5255 34.332C57.8055 33.972 57.5175 33.216 57.5175 32.208C57.5175 28.716 61.1895 22.2 63.2775 18.96C68.5335 10.86 76.0575 4.596 78.3975 4.596C78.6495 4.596 78.8295 4.668 78.9375 4.812C79.0815 4.956 79.1175 5.136 79.1175 5.352C79.1175 8.772 64.8975 20.508 61.9815 23.172C61.5855 23.676 58.5255 29.832 58.5255 32.532C58.5255 33.288 58.7775 33.756 59.3895 33.756C63.2415 33.684 70.4775 24.828 74.7975 22.92L74.9775 22.884C75.0855 22.884 75.1575 22.956 75.1575 23.028C75.1575 23.1 75.0855 23.208 74.9415 23.244C71.4495 24.576 62.7375 34.476 59.1735 34.476ZM62.4495 22.236C65.5095 19.464 69.6495 15.828 73.1055 12.372C76.0215 9.456 78.5775 6.36 78.5775 5.496L78.5415 5.352C78.5055 5.316 78.4695 5.28 78.3615 5.28C77.7495 5.28 75.9495 6.252 73.1775 8.808C69.4335 12.264 65.4015 17.268 62.4495 22.236ZM75.2202 29.112C74.8242 29.112 74.4642 29.04 74.1402 28.896C73.3482 28.536 73.0242 27.744 73.0242 26.844C73.0242 26.088 73.2762 25.26 73.6002 24.612C74.9322 22.236 76.4802 21.408 77.5602 21.408C78.4242 21.408 79.0002 21.876 79.0362 22.488C79.0362 22.704 78.9282 22.812 78.8202 22.812C78.7122 22.812 78.6402 22.74 78.6042 22.632C78.5682 22.452 78.4962 22.308 78.3882 22.236C78.2082 22.056 77.9922 21.984 77.7402 21.984C76.7322 21.984 75.3282 23.28 74.6802 24.54C74.1042 25.584 73.8882 26.376 73.8882 26.988C73.8882 27.996 74.5722 28.428 75.4002 28.464H75.5802C78.2802 28.464 83.0682 25.404 86.2722 22.992L86.4522 22.92C86.5242 22.92 86.5962 22.992 86.5962 23.064C86.5962 23.1 86.5602 23.172 86.4522 23.244C83.0682 25.908 78.1002 29.112 75.2202 29.112ZM84.5957 29.184C84.3797 29.184 84.1637 29.112 83.9837 28.932C83.7677 28.716 83.6957 28.392 83.6957 28.032C83.6957 27.204 84.1277 26.124 84.4877 25.44C84.9917 24.36 85.7117 23.352 86.3597 22.74C85.9637 22.416 85.8197 22.128 85.8197 21.912C85.8197 21.624 86.1077 21.444 86.4677 21.444C86.7917 21.444 87.1877 21.588 87.4397 21.948C88.3757 23.172 87.3677 22.884 88.6997 23.568C89.4917 23.964 90.4997 24.108 91.5077 24.108C93.4157 24.108 95.4677 23.568 96.7277 22.956L96.8717 22.92C96.9437 22.92 97.0157 22.956 97.0157 23.028C97.0157 23.064 96.9437 23.136 96.8357 23.208C95.3957 23.892 93.3437 24.504 91.3277 24.504C90.1757 24.504 89.0597 24.288 88.0517 23.784V23.82C88.0517 26.124 85.9997 29.184 84.5957 29.184ZM87.0437 22.452L86.5757 22.056C86.6837 22.2 86.8277 22.308 87.0437 22.452ZM84.8117 28.644C85.8197 28.644 87.4757 25.656 87.4757 23.964L87.4037 23.46L87.1157 23.28C85.2077 25.188 84.4877 27.42 84.4877 28.248C84.4877 28.428 84.5237 28.536 84.5597 28.572C84.6317 28.608 84.7037 28.644 84.8117 28.644ZM92.4811 30.552C92.3371 30.552 92.2291 30.48 92.2291 30.336C92.2291 30.264 92.2291 30.192 92.2651 30.12C93.1291 27.924 95.6131 24 97.3411 22.056C97.4131 21.984 97.4851 21.948 97.5571 21.948C97.7731 21.948 98.0971 22.236 98.0971 22.452C98.0971 22.524 98.0971 22.596 98.0251 22.632C96.5491 24.324 94.4971 27.168 93.4171 29.22C94.6771 27.96 100.941 22.668 102.597 22.668C102.813 22.668 102.957 22.776 102.957 23.028C102.129 24.828 101.301 26.988 100.617 28.824C101.445 27.456 104.901 24.576 106.089 24.576C106.377 24.576 106.521 24.72 106.521 25.044V25.332C106.521 28.392 107.133 29.328 108.069 29.724C108.249 29.796 108.429 29.832 108.645 29.832C111.381 29.832 117.717 23.964 119.913 22.992L120.093 22.956C120.129 22.956 120.165 22.992 120.165 23.028C120.165 23.064 120.129 23.136 120.021 23.172C117.861 24.288 111.633 30.336 108.321 30.336L107.925 30.3C106.557 30.048 105.621 29.04 105.621 25.764V25.224C103.533 25.98 100.365 29.508 100.365 29.508C100.185 29.724 100.041 29.796 99.9691 29.796C99.7891 29.796 99.7531 29.616 99.7531 29.292C99.7531 28.104 100.617 25.152 101.553 23.676C98.9971 24.756 93.6691 29.472 92.7691 30.444C92.7331 30.516 92.5891 30.552 92.4811 30.552ZM120.006 29.076C119.61 29.076 119.25 29.004 118.926 28.86C118.17 28.536 117.882 27.816 117.882 26.988C117.882 26.16 118.17 25.296 118.566 24.576C120.006 22.02 121.77 21.228 122.886 21.228C123.534 21.228 123.966 21.48 123.966 21.84C123.966 22.74 122.382 24.216 119.43 24.792C118.962 25.728 118.782 26.448 118.782 26.988C118.782 27.996 119.394 28.428 120.222 28.464H120.402C123.102 28.464 127.998 25.404 131.238 22.992L131.418 22.92C131.49 22.92 131.562 22.992 131.562 23.028C131.562 23.1 131.526 23.172 131.418 23.244C127.926 25.908 122.886 29.076 120.006 29.076ZM119.718 24.252C121.41 24.108 123.57 22.776 123.57 22.092C123.57 22.02 123.534 21.948 123.462 21.876C123.39 21.804 123.246 21.732 123.066 21.732C122.346 21.732 120.942 22.416 119.718 24.252Z" fill="#8B9B68"/>
<path d="M27.7123 37.32L27.2197 37.4057L27.2209 37.4121L27.7123 37.32ZM32.5363 15.324L32.9678 15.5766L32.2747 14.8979L32.5363 15.324ZM14.2483 30.948L14.0589 30.4853L14.052 30.4881L14.0452 30.4911L14.2483 30.948ZM25.5163 9.744L25.8382 10.1266L25.3647 9.26754L25.5163 9.744ZM1.28831 17.196H0.788313V17.2455L0.798022 17.2941L1.28831 17.196ZM1.32431 17.376H1.82431V17.3265L1.8146 17.2779L1.32431 17.376ZM0.820312 17.304H0.320312V17.3454L0.327116 17.3862L0.820312 17.304ZM27.0283 8.484L26.9303 7.99371L26.8682 8.00613L26.8111 8.03364L27.0283 8.484ZM27.2083 8.448V7.948H27.1588L27.1103 7.95771L27.2083 8.448ZM27.7483 9.384L27.4911 8.95525L27.4846 8.95911L27.4783 8.96315L27.7483 9.384ZM18.7843 19.032L19.1928 19.3203L19.1933 19.3197L18.7843 19.032ZM15.3283 29.616L15.0667 29.1899L15.0633 29.192L15.3283 29.616ZM33.6163 13.74V13.24H33.5252L33.4399 13.2722L33.6163 13.74ZM34.8403 14.424L35.2875 14.6476L35.3403 14.542V14.424H34.8403ZM34.8043 14.496L35.2084 14.7904L35.2329 14.7568L35.2515 14.7196L34.8043 14.496ZM29.7643 38.688V39.188H29.7729L29.7815 39.1877L29.7643 38.688ZM63.4243 0.563999L63.2662 0.0896594L63.2485 0.0955566L63.2313 0.102755L63.4243 0.563999ZM63.6403 0.851998L63.519 0.366926L63.4881 0.374651L63.4585 0.386235L63.6403 0.851998ZM29.5123 39.804V39.304C29.2555 39.304 29.0288 39.2041 28.8109 38.9114C28.5754 38.595 28.3599 38.0604 28.2037 37.2279L27.7123 37.32L27.2209 37.4121C27.3888 38.3076 27.6413 39.015 28.0087 39.5086C28.3939 40.0259 28.9051 40.304 29.5123 40.304V39.804ZM27.7123 37.32L28.2049 37.2343C28.0685 36.45 28.0323 35.549 28.0323 34.548H27.5323H27.0323C27.0323 35.563 27.0681 36.534 27.2197 37.4057L27.7123 37.32ZM27.5323 34.548H28.0323C28.0323 31.5811 28.6255 27.9272 29.5456 24.4566C30.4663 20.984 31.703 17.7372 32.9678 15.5766L32.5363 15.324L32.1048 15.0714C30.7776 17.3387 29.5123 20.68 28.579 24.2004C27.6451 27.7228 27.0323 31.4669 27.0323 34.548H27.5323ZM32.5363 15.324L32.2747 14.8979C31.9728 15.0833 31.5461 15.4422 31.0453 15.8968C30.5345 16.3604 29.9154 16.9527 29.219 17.6294C27.8216 18.9873 26.11 20.6878 24.2894 22.4231C22.4702 24.1569 20.5552 25.9127 18.7646 27.3697C16.9637 28.8351 15.3268 29.9662 14.0589 30.4853L14.2483 30.948L14.4378 31.4107C15.8518 30.8318 17.5854 29.6184 19.3958 28.1453C21.2164 26.6638 23.1534 24.8871 24.9793 23.1469C26.8036 21.4082 28.5301 19.6932 29.9159 18.3466C30.6111 17.6711 31.2199 17.0888 31.7174 16.6373C32.2249 16.1766 32.5869 15.8797 32.7979 15.7501L32.5363 15.324ZM14.2483 30.948L14.0452 30.4911C13.7923 30.6035 13.6106 30.628 13.4203 30.628V31.128V31.628C13.7341 31.628 14.0564 31.5805 14.4514 31.4049L14.2483 30.948ZM13.4203 31.128V30.628C13.1883 30.628 13.062 30.5503 12.9717 30.4201C12.8609 30.2603 12.7683 29.9643 12.7683 29.472H12.2683H11.7683C11.7683 30.0597 11.8737 30.5917 12.15 30.9899C12.4466 31.4177 12.8963 31.628 13.4203 31.628V31.128ZM12.2683 29.472H12.7683C12.7683 28.6686 13.0196 27.5215 13.5598 26.1129C14.0968 24.7128 14.9073 23.0851 15.9962 21.3295C18.1738 17.8187 21.4513 13.818 25.8382 10.1266L25.5163 9.744L25.1944 9.36142C20.7253 13.122 17.3788 17.2033 15.1464 20.8025C14.0303 22.6019 13.1894 24.2862 12.6261 25.7548C12.0661 27.215 11.7683 28.4934 11.7683 29.472H12.2683ZM25.5163 9.744L25.3647 9.26754C22.6113 10.1436 16.6122 11.3535 11.2036 12.6875C8.5194 13.3496 5.98726 14.0414 4.1207 14.7325C3.1906 15.0769 2.39953 15.4304 1.83255 15.7931C1.54946 15.9742 1.3004 16.1711 1.11737 16.388C0.934404 16.6048 0.788313 16.8773 0.788313 17.196H1.28831H1.78831C1.78831 17.1952 1.78819 17.1437 1.88163 17.0329C1.97499 16.9223 2.13276 16.7881 2.37138 16.6355C2.84784 16.3308 3.55977 16.0065 4.46792 15.6703C6.27787 15.0001 8.76322 14.3194 11.443 13.6585C16.7625 12.3464 22.8773 11.1084 25.6679 10.2205L25.5163 9.744ZM1.28831 17.196L0.798022 17.2941L0.834022 17.4741L1.32431 17.376L1.8146 17.2779L1.7786 17.0979L1.28831 17.196ZM1.32431 17.376H0.824313C0.824313 17.3213 0.845189 17.2659 0.885166 17.2215C0.921348 17.1813 0.995547 17.128 1.10831 17.128V17.628V18.128C1.5407 18.128 1.82431 17.7453 1.82431 17.376H1.32431ZM1.10831 17.628V17.128C1.13591 17.128 1.17085 17.1334 1.2076 17.1495C1.2445 17.1656 1.27288 17.1879 1.29239 17.2091C1.32862 17.2487 1.32139 17.2691 1.31351 17.2218L0.820312 17.304L0.327116 17.3862C0.355236 17.5549 0.420002 17.7373 0.555236 17.8849C0.700897 18.0438 0.898329 18.128 1.10831 18.128V17.628ZM0.820312 17.304H1.32031V17.16H0.820312H0.320312V17.304H0.820312ZM0.820312 17.16H1.32031C1.32031 16.9782 1.46522 16.6807 2.02722 16.2827C2.56399 15.9026 3.36345 15.5158 4.38001 15.1273C6.40729 14.3525 9.1794 13.614 12.1376 12.9032C13.6138 12.5484 15.1301 12.202 16.6167 11.8621C18.1021 11.5225 19.5584 11.1893 20.9095 10.8622C23.5932 10.2124 25.9199 9.57365 27.2455 8.93436L27.0283 8.484L26.8111 8.03364C25.5987 8.61835 23.3804 9.23506 20.6742 9.89029C19.3304 10.2157 17.8805 10.5474 16.3938 10.8873C14.9083 11.2269 13.3865 11.5746 11.904 11.9308C8.94472 12.642 6.11659 13.393 4.02299 14.1932C2.97911 14.5922 2.08797 15.0143 1.44926 15.4667C0.835784 15.9011 0.320312 16.4598 0.320312 17.16H0.820312ZM27.0283 8.484L27.1264 8.97429L27.3064 8.93829L27.2083 8.448L27.1103 7.95771L26.9303 7.99371L27.0283 8.484ZM27.2083 8.448V8.948C27.2044 8.948 27.2301 8.94876 27.282 8.96769C27.3301 8.98527 27.3818 9.01172 27.4271 9.04318C27.4738 9.07562 27.4997 9.1036 27.51 9.11801C27.5202 9.13239 27.5003 9.11155 27.5003 9.06H28.0003H28.5003C28.5003 8.64457 28.1981 8.36113 27.9975 8.22181C27.7806 8.07121 27.4845 7.948 27.2083 7.948V8.448ZM28.0003 9.06H27.5003C27.5003 9.03012 27.5055 9.00066 27.5149 8.97407C27.5241 8.94811 27.5352 8.93078 27.5418 8.922C27.5528 8.9074 27.5471 8.92163 27.4911 8.95525L27.7483 9.384L28.0056 9.81274C28.2426 9.67054 28.5003 9.43054 28.5003 9.06H28.0003ZM27.7483 9.384L27.4783 8.96315C26.47 9.60999 24.9414 10.9979 23.3075 12.731C21.6646 14.4737 19.885 16.5981 18.3753 18.7443L18.7843 19.032L19.1933 19.3197C20.6716 17.2179 22.42 15.1303 24.0351 13.417C25.6593 11.6941 27.1186 10.382 28.0183 9.80485L27.7483 9.384ZM18.7843 19.032L18.3758 18.7437C16.8537 20.9 15.5002 23.0882 14.5248 24.9616C14.0373 25.8979 13.6404 26.7628 13.3642 27.5105C13.0924 28.2461 12.9203 28.9126 12.9203 29.436H13.4203H13.9203C13.9203 29.0954 14.0407 28.5649 14.3022 27.8571C14.5592 27.1615 14.9363 26.3366 15.4118 25.4234C16.3624 23.5978 17.6909 21.448 19.1928 19.3203L18.7843 19.032ZM13.4203 29.436H12.9203C12.9203 29.7199 12.9724 30.0307 13.1651 30.2785C13.3767 30.5505 13.6845 30.656 13.9963 30.656V30.156V29.656C13.9495 29.656 13.9333 29.6485 13.9353 29.6494C13.9405 29.6516 13.9494 29.6579 13.9545 29.6645C13.9576 29.6685 13.9486 29.659 13.9388 29.6211C13.9288 29.5824 13.9203 29.5226 13.9203 29.436H13.4203ZM13.9963 30.156V30.656C14.2315 30.656 14.4886 30.5858 14.74 30.4852C14.9992 30.3816 15.287 30.2315 15.5933 30.04L15.3283 29.616L15.0633 29.192C14.7937 29.3605 14.5594 29.4804 14.3686 29.5568C14.1701 29.6362 14.0491 29.656 13.9963 29.656V30.156ZM15.3283 29.616L15.5899 30.0421C18.4895 28.262 22.555 24.4559 26.1273 21.0404C27.9248 19.3218 29.602 17.6973 30.9695 16.448C31.653 15.8236 32.252 15.2995 32.7444 14.9081C33.2531 14.5038 33.6004 14.2804 33.7927 14.2078L33.6163 13.74L33.4399 13.2722C33.0833 13.4066 32.6251 13.7255 32.1222 14.1253C31.6031 14.5379 30.9845 15.0798 30.295 15.7097C28.9164 16.9692 27.2253 18.6072 25.4363 20.3176C21.8356 23.7601 17.8551 27.478 15.0667 29.1899L15.3283 29.616ZM33.6163 13.74V14.24H33.7243V13.74V13.24H33.6163V13.74ZM33.7243 13.74V14.24C33.7492 14.24 33.8113 14.2482 33.9057 14.2801C33.9952 14.3103 34.0911 14.3542 34.1773 14.405C34.2661 14.4572 34.3272 14.5063 34.359 14.5399C34.4062 14.5896 34.3403 14.548 34.3403 14.424H34.8403H35.3403C35.3403 14.156 35.1844 13.9569 35.0843 13.8514C34.9687 13.7297 34.825 13.6258 34.6843 13.543C34.4176 13.3862 34.0483 13.24 33.7243 13.24V13.74ZM34.8403 14.424L34.3931 14.2004L34.3571 14.2724L34.8043 14.496L35.2515 14.7196L35.2875 14.6476L34.8403 14.424ZM34.8043 14.496L34.4002 14.2016C32.5123 16.7928 30.9358 20.7388 29.8318 24.6796C28.7266 28.6249 28.0763 32.6328 28.0763 35.376H28.5763H29.0763C29.0763 32.7552 29.704 28.8431 30.7948 24.9494C31.8868 21.0512 33.4243 17.2392 35.2084 14.7904L34.8043 14.496ZM28.5763 35.376H28.0763C28.0763 36.4016 28.1664 37.294 28.3858 37.9472C28.5978 38.5783 29.0123 39.188 29.7643 39.188V38.688V38.188C29.6884 38.188 29.5088 38.1497 29.3338 37.6288C29.1662 37.13 29.0763 36.3664 29.0763 35.376H28.5763ZM29.7643 38.688L29.7815 39.1877C30.2305 39.1722 30.6884 38.9847 31.1357 38.7101C31.5885 38.432 32.0698 38.04 32.5737 37.5616C33.5816 36.6049 34.7277 35.2563 35.9754 33.6505C38.4707 30.4387 41.4302 26.1207 44.5724 21.6835C47.7218 17.236 51.0619 12.6583 54.3403 8.88921C57.6327 5.10413 60.8079 2.20089 63.6173 1.02524L63.4243 0.563999L63.2313 0.102755C60.1907 1.37511 56.886 4.43886 53.5858 8.23292C50.2717 12.043 46.9068 16.6565 43.7563 21.1055C40.5985 25.5648 37.6629 29.8485 35.1857 33.0369C33.9471 34.6311 32.8377 35.9322 31.8852 36.8364C31.409 37.2884 30.984 37.6297 30.6124 37.8579C30.2352 38.0895 29.9506 38.1813 29.7471 38.1883L29.7643 38.688ZM63.4243 0.563999L63.5824 1.03834C63.6041 1.03112 63.6168 1.0292 63.6213 1.02864C63.6239 1.02832 63.6257 1.0282 63.6274 1.02813C63.6295 1.02804 63.6316 1.028 63.6403 1.028V0.527997V0.0279975C63.578 0.0279975 63.4459 0.0297412 63.2662 0.0896594L63.4243 0.563999ZM63.6403 0.527997V1.028C63.6868 1.028 63.6472 1.03645 63.5787 1.00221C63.5374 0.981551 63.4764 0.940462 63.4268 0.866096C63.3751 0.7886 63.3563 0.705491 63.3563 0.635998H63.8563H64.3563C64.3563 0.530506 64.3285 0.415898 64.2588 0.311401C64.1913 0.210035 64.1032 0.146446 64.0259 0.107787C63.8854 0.0375446 63.7379 0.0279975 63.6403 0.0279975V0.527997ZM63.8563 0.635998H63.3563C63.3563 0.573339 63.3712 0.525969 63.3839 0.496608C63.3973 0.46557 63.4135 0.442286 63.4286 0.425318C63.46 0.390048 63.4942 0.373145 63.519 0.366926L63.6403 0.851998L63.7616 1.33707C64.0738 1.25902 64.3563 0.989101 64.3563 0.635998H63.8563ZM63.6403 0.851998L63.4585 0.386235C62.064 0.930655 60.5855 1.96868 59.0643 3.33162C57.5384 4.69877 55.9444 6.41597 54.3206 8.34791C51.0737 12.2109 47.6781 16.9686 44.4392 21.5796C41.1934 26.2003 38.1092 30.6673 35.4663 33.9832C34.1445 35.6417 32.9475 36.9935 31.9086 37.9266C31.3893 38.393 30.9216 38.7437 30.5084 38.9756C30.0912 39.2097 29.7627 39.304 29.5123 39.304V39.804V40.304C30 40.304 30.5016 40.1261 30.9977 39.8477C31.4978 39.5671 32.0262 39.1651 32.5768 38.6706C33.6776 37.6819 34.9152 36.2792 36.2483 34.6065C38.9154 31.2602 42.0232 26.7587 45.2575 22.1544C48.4985 17.5404 51.8709 12.8166 55.0861 8.99133C56.6933 7.07915 58.2537 5.40054 59.7316 4.07641C61.2142 2.74807 62.5886 1.79934 63.8222 1.31776L63.6403 0.851998ZM48.6837 28.86L48.8868 28.4031L48.8807 28.4004L48.6837 28.86ZM48.3237 24.576L47.8881 24.3306L47.8856 24.335L48.3237 24.576ZM49.1877 24.792L49.092 24.3013L48.8505 24.3484L48.7405 24.5684L49.1877 24.792ZM49.9797 28.464L49.958 28.9635L49.9689 28.964H49.9797V28.464ZM60.9957 22.992L60.81 22.5278L60.7495 22.552L60.6971 22.5909L60.9957 22.992ZM61.1757 22.92V22.42H61.0794L60.99 22.4558L61.1757 22.92ZM61.1757 23.244L60.8984 22.828L60.8851 22.8368L60.8725 22.8465L61.1757 23.244ZM49.4757 24.252L49.0597 23.9746L48.484 24.8382L49.5181 24.7502L49.4757 24.252ZM53.2197 21.876L53.5733 21.5224L53.5733 21.5224L53.2197 21.876ZM49.7637 29.076V28.576C49.4295 28.576 49.1398 28.5155 48.8868 28.4031L48.6837 28.86L48.4806 29.3169C48.8757 29.4925 49.306 29.576 49.7637 29.576V29.076ZM48.6837 28.86L48.8807 28.4004C48.3813 28.1864 48.1397 27.7094 48.1397 26.988H47.6397H47.1397C47.1397 27.9226 47.4741 28.8856 48.4868 29.3196L48.6837 28.86ZM47.6397 26.988H48.1397C48.1397 26.2679 48.3933 25.4871 48.7618 24.817L48.3237 24.576L47.8856 24.335C47.4622 25.1049 47.1397 26.0521 47.1397 26.988H47.6397ZM48.3237 24.576L48.7593 24.8214C50.1383 22.3739 51.7581 21.728 52.6437 21.728V21.228V20.728C51.2974 20.728 49.3892 21.6661 47.8881 24.3306L48.3237 24.576ZM52.6437 21.228V21.728C52.9111 21.728 53.0878 21.7812 53.1786 21.8331C53.2634 21.8816 53.2237 21.8918 53.2237 21.84H53.7237H54.2237C54.2237 21.4282 53.968 21.1324 53.6748 20.9649C53.3876 20.8008 53.0244 20.728 52.6437 20.728V21.228ZM53.7237 21.84H53.2237C53.2237 21.9242 53.1828 22.0848 53.0225 22.3103C52.8664 22.53 52.6188 22.7798 52.2696 23.0324C51.5724 23.5369 50.5085 24.0249 49.092 24.3013L49.1877 24.792L49.2835 25.2827C50.819 24.9831 52.0231 24.4451 52.8558 23.8426C53.2716 23.5417 53.6045 23.2177 53.8377 22.8895C54.0667 22.5672 54.2237 22.2058 54.2237 21.84H53.7237ZM49.1877 24.792L48.7405 24.5684C48.2528 25.5437 48.0397 26.3426 48.0397 26.988H48.5397H49.0397C49.0397 26.5534 49.1866 25.9123 49.6349 25.0156L49.1877 24.792ZM48.5397 26.988H48.0397C48.0397 27.5976 48.2284 28.103 48.6087 28.4567C48.9797 28.8016 49.4689 28.9423 49.958 28.9635L49.9797 28.464L50.0014 27.9645C49.6625 27.9497 49.4318 27.8564 49.2897 27.7243C49.157 27.601 49.0397 27.3864 49.0397 26.988H48.5397ZM49.9797 28.464V28.964H50.1597V28.464V27.964H49.9797V28.464ZM50.1597 28.464V28.964C50.9189 28.964 51.7943 28.7512 52.7077 28.4179C53.6273 28.0823 54.6169 27.6126 55.6136 27.072C57.607 25.9909 59.6615 24.6086 61.2943 23.3931L60.9957 22.992L60.6971 22.5909C59.0899 23.7874 57.0764 25.1411 55.1369 26.193C54.167 26.7189 53.2239 27.165 52.3649 27.4785C51.4996 27.7943 50.7506 27.964 50.1597 27.964V28.464ZM60.9957 22.992L61.1814 23.4562L61.3614 23.3842L61.1757 22.92L60.99 22.4558L60.81 22.5278L60.9957 22.992ZM61.1757 22.92V23.42C61.0549 23.42 60.9811 23.3667 60.9546 23.3446C60.9368 23.3297 60.9139 23.3071 60.8913 23.2733C60.8798 23.2561 60.8643 23.2297 60.8506 23.1945C60.8377 23.1614 60.8197 23.1034 60.8197 23.028H61.3197H61.8197C61.8197 22.8733 61.7522 22.7619 61.7234 22.7186C61.6851 22.6611 61.6397 22.6138 61.5948 22.5764C61.5143 22.5093 61.3686 22.42 61.1757 22.42V22.92ZM61.3197 23.028H60.8197C60.8197 22.9739 60.8352 22.9175 60.8642 22.871C60.8894 22.8306 60.9116 22.8192 60.8984 22.828L61.1757 23.244L61.4531 23.66C61.6553 23.5252 61.8197 23.3148 61.8197 23.028H61.3197ZM61.1757 23.244L60.8725 22.8465C59.14 24.1681 57.0285 25.6108 55.0003 26.7203C52.9468 27.8437 51.0654 28.576 49.7637 28.576V29.076V29.576C51.3421 29.576 53.4207 28.7243 55.4802 27.5977C57.565 26.4572 59.7194 24.9839 61.479 23.6415L61.1757 23.244ZM49.4757 24.252L49.5181 24.7502C50.4594 24.6701 51.4939 24.2677 52.2873 23.8069C52.6865 23.575 53.0458 23.3162 53.3129 23.0557C53.4463 22.9257 53.5675 22.7846 53.6584 22.6358C53.7464 22.4917 53.8277 22.3044 53.8277 22.092H53.3277H52.8277C52.8277 22.0506 52.8416 22.0546 52.8048 22.1148C52.7709 22.1703 52.7102 22.2466 52.6147 22.3399C52.4238 22.526 52.1375 22.7375 51.7851 22.9421C51.0755 23.3543 50.1841 23.6899 49.4333 23.7538L49.4757 24.252ZM53.3277 22.092H53.8277C53.8277 21.8406 53.6998 21.6489 53.5733 21.5224L53.2197 21.876L52.8662 22.2296C52.8837 22.2471 52.8277 22.1994 52.8277 22.092H53.3277ZM53.2197 21.876L53.5733 21.5224C53.4014 21.3505 53.1274 21.232 52.8237 21.232V21.732V22.232C52.8471 22.232 52.8653 22.2367 52.8765 22.2412C52.8821 22.2435 52.8845 22.245 52.8838 22.2446C52.8835 22.2444 52.8768 22.2402 52.8662 22.2296L53.2197 21.876ZM52.8237 21.732V21.232C52.3285 21.232 51.7003 21.4567 51.0592 21.8889C50.4063 22.3291 49.7044 23.0076 49.0597 23.9746L49.4757 24.252L49.8917 24.5293C50.471 23.6604 51.0831 23.0789 51.6182 22.7181C52.1652 22.3493 52.5989 22.232 52.8237 22.232V21.732ZM58.5255 34.332L58.7491 33.8848L58.7491 33.8848L58.5255 34.332ZM63.2775 18.96L62.8581 18.6878L62.8572 18.6891L63.2775 18.96ZM78.9375 4.812L78.5375 5.112L78.5588 5.14042L78.5839 5.16555L78.9375 4.812ZM61.9815 23.172L61.6443 22.8029L61.6138 22.8307L61.5883 22.8631L61.9815 23.172ZM59.3895 33.756V34.2561L59.3988 34.2559L59.3895 33.756ZM74.7975 22.92L74.6994 22.4297L74.6457 22.4405L74.5955 22.4626L74.7975 22.92ZM74.9775 22.884V22.384H74.928L74.8794 22.3937L74.9775 22.884ZM74.9415 23.244L74.8202 22.7589L74.7912 22.7662L74.7633 22.7768L74.9415 23.244ZM62.4495 22.236L62.0197 21.9806L62.7852 22.6066L62.4495 22.236ZM73.1055 12.372L73.4591 12.7256L73.4591 12.7256L73.1055 12.372ZM78.5775 5.496H79.0775V5.43445L79.0626 5.37473L78.5775 5.496ZM78.5415 5.352L79.0266 5.23073L78.993 5.09638L78.8951 4.99846L78.5415 5.352ZM73.1775 8.808L72.8386 8.44041L72.8384 8.4406L73.1775 8.808ZM59.1735 34.476V33.976C59.016 33.976 58.8804 33.9504 58.7491 33.8848L58.5255 34.332L58.3019 34.7792C58.6026 34.9296 58.899 34.976 59.1735 34.976V34.476ZM58.5255 34.332L58.7491 33.8848C58.2802 33.6503 58.0175 33.1396 58.0175 32.208H57.5175H57.0175C57.0175 33.2924 57.3308 34.2937 58.3019 34.7792L58.5255 34.332ZM57.5175 32.208H58.0175C58.0175 31.4118 58.229 30.4077 58.5991 29.2758C58.9671 28.1503 59.482 26.9281 60.0657 25.7048C61.2333 23.2582 62.662 20.8381 63.6978 19.2309L63.2775 18.96L62.8572 18.6891C61.805 20.3219 60.3537 22.7798 59.1633 25.2742C58.568 26.5214 58.0344 27.7854 57.6486 28.965C57.265 30.1383 57.0175 31.2582 57.0175 32.208H57.5175ZM63.2775 18.96L63.6969 19.2322C66.2997 15.221 69.4662 11.6623 72.2677 9.11012C73.6688 7.83378 74.9702 6.81686 76.0563 6.12258C76.5995 5.77527 77.0807 5.514 77.4872 5.34109C77.9021 5.16465 78.2032 5.096 78.3975 5.096V4.596V4.096C78.0068 4.096 77.5609 4.2231 77.0959 4.42086C76.6226 4.62215 76.0909 4.91354 75.5176 5.28004C74.3705 6.01338 73.0237 7.06871 71.5943 8.37088C68.7348 10.9757 65.5113 14.599 62.8581 18.6878L63.2775 18.96ZM78.3975 4.596V5.096C78.478 5.096 78.5197 5.10778 78.5358 5.11424C78.5475 5.1189 78.5428 5.11901 78.5375 5.112L78.9375 4.812L79.3375 4.512C79.101 4.19669 78.7398 4.096 78.3975 4.096V4.596ZM78.9375 4.812L78.5839 5.16555C78.5925 5.17411 78.5973 5.18097 78.6026 5.19867C78.61 5.22337 78.6175 5.26828 78.6175 5.352H79.1175H79.6175C79.6175 5.08524 79.5741 4.74148 79.2911 4.45844L78.9375 4.812ZM79.1175 5.352H78.6175C78.6175 5.63472 78.4591 6.09201 78.0728 6.73191C77.6978 7.35288 77.15 8.07927 76.469 8.88083C75.1083 10.4825 73.2554 12.3385 71.3 14.1817C67.3713 17.8849 63.1394 21.4369 61.6443 22.8029L61.9815 23.172L62.3187 23.5411C63.7396 22.2431 68.0757 18.5951 71.986 14.9093C73.9501 13.058 75.8345 11.1722 77.2311 9.52829C77.9288 8.70704 78.5147 7.93465 78.9288 7.24879C79.3315 6.58187 79.6175 5.92428 79.6175 5.352H79.1175ZM61.9815 23.172L61.5883 22.8631C61.5089 22.9642 61.3986 23.153 61.2808 23.3679C61.1552 23.5972 61 23.8958 60.8266 24.2451C60.4797 24.9441 60.0556 25.8548 59.644 26.8349C59.2328 27.8141 58.8311 28.8694 58.5314 29.856C58.2348 30.8323 58.0255 31.7809 58.0255 32.532H58.5255H59.0255C59.0255 31.9331 59.1987 31.0997 59.4882 30.1466C59.7747 29.2038 60.1627 28.1824 60.566 27.2221C60.9689 26.2627 61.3841 25.3712 61.7223 24.6897C61.8915 24.3489 62.0403 24.0628 62.1578 23.8484C62.2166 23.7411 62.2663 23.654 62.3059 23.5882C62.3257 23.5553 62.3419 23.5294 62.3547 23.5099C62.3611 23.5003 62.3661 23.4929 62.3698 23.4877C62.3736 23.4822 62.3752 23.4803 62.3747 23.4809L61.9815 23.172ZM58.5255 32.532H58.0255C58.0255 32.95 58.0924 33.3719 58.3106 33.7028C58.5525 34.0695 58.9341 34.256 59.3895 34.256V33.756V33.256C59.2329 33.256 59.1825 33.2085 59.1454 33.1522C59.0846 33.0601 59.0255 32.87 59.0255 32.532H58.5255ZM59.3895 33.756L59.3988 34.2559C60.5196 34.235 61.8001 33.5899 63.0945 32.7151C64.4097 31.8262 65.8305 30.6349 67.2461 29.4038C68.671 28.1646 70.0874 26.8884 71.4255 25.7951C72.7685 24.6979 73.9862 23.8249 74.9995 23.3774L74.7975 22.92L74.5955 22.4626C73.4489 22.9691 72.142 23.9186 70.7929 25.0207C69.4389 26.1269 67.9955 27.4269 66.5899 28.6492C65.175 29.8796 63.7945 31.035 62.5346 31.8865C61.2539 32.7521 60.1854 33.241 59.3802 33.2561L59.3895 33.756ZM74.7975 22.92L74.8956 23.4103L75.0756 23.3743L74.9775 22.884L74.8794 22.3937L74.6994 22.4297L74.7975 22.92ZM74.9775 22.884V23.384C74.8844 23.384 74.6575 23.3017 74.6575 23.028H75.1575H75.6575C75.6575 22.6103 75.2866 22.384 74.9775 22.384V22.884ZM75.1575 23.028H74.6575C74.6575 22.9653 74.6724 22.918 74.6851 22.8886C74.6985 22.8576 74.7147 22.8343 74.7298 22.8173C74.7611 22.782 74.7954 22.7651 74.8202 22.7589L74.9415 23.244L75.0628 23.7291C75.375 23.651 75.6575 23.3811 75.6575 23.028H75.1575ZM74.9415 23.244L74.7633 22.7768C73.8031 23.1431 72.5444 24.0653 71.1892 25.1739C69.8189 26.2949 68.2785 27.6683 66.7578 28.981C65.2281 30.3015 63.7137 31.5648 62.3654 32.497C61.6915 32.9629 61.0708 33.3379 60.5198 33.5949C59.9619 33.855 59.5133 33.976 59.1735 33.976V34.476V34.976C59.7247 34.976 60.328 34.7877 60.9424 34.5012C61.5636 34.2115 62.2355 33.8026 62.9341 33.3196C64.3308 32.3539 65.8809 31.059 67.4112 29.738C68.9505 28.4092 70.4656 27.0579 71.8223 25.9479C73.1941 24.8257 74.3339 24.0109 75.1197 23.7112L74.9415 23.244ZM62.4495 22.236L62.7852 22.6066C65.8364 19.8425 69.9915 16.1931 73.4591 12.7256L73.1055 12.372L72.7519 12.0184C69.3075 15.4629 65.1826 19.0855 62.1138 21.8654L62.4495 22.236ZM73.1055 12.372L73.4591 12.7256C74.9263 11.2583 76.3071 9.74183 77.3245 8.47805C77.8324 7.84717 78.2567 7.27062 78.5568 6.78939C78.7066 6.54915 78.8314 6.32337 78.9202 6.12006C79.004 5.92813 79.0775 5.70871 79.0775 5.496H78.5775H78.0775C78.0775 5.49156 78.0778 5.50789 78.0659 5.55131C78.0544 5.59303 78.0348 5.64878 78.0038 5.71977C77.9414 5.86253 77.8437 6.04316 77.7083 6.26023C77.438 6.69363 77.0411 7.23533 76.5455 7.85095C75.5559 9.08017 74.2007 10.5697 72.7519 12.0184L73.1055 12.372ZM78.5775 5.496L79.0626 5.37473L79.0266 5.23073L78.5415 5.352L78.0564 5.47327L78.0924 5.61727L78.5775 5.496ZM78.5415 5.352L78.8951 4.99846C78.8798 4.98321 78.8104 4.90943 78.7021 4.85529C78.5891 4.79879 78.4722 4.78 78.3615 4.78V5.28V5.78C78.3588 5.78 78.3139 5.7792 78.2549 5.74971C78.2006 5.72257 78.1672 5.68479 78.1879 5.70554L78.5415 5.352ZM78.3615 5.28V4.78C78.1019 4.78 77.7968 4.87566 77.4819 5.01409C77.1527 5.1588 76.76 5.37442 76.3087 5.66519C75.4053 6.24728 74.2395 7.14867 72.8386 8.44041L73.1775 8.808L73.5164 9.17558C74.8875 7.91133 76.0077 7.04872 76.8503 6.50581C77.272 6.23407 77.6173 6.04694 77.8844 5.92953C78.1657 5.80583 78.3151 5.78 78.3615 5.78V5.28ZM73.1775 8.808L72.8384 8.4406C69.0562 11.9318 64.9944 16.9743 62.0197 21.9806L62.4495 22.236L62.8793 22.4914C65.8086 17.5617 69.8108 12.5962 73.5166 9.1754L73.1775 8.808ZM74.1402 28.896L73.9333 29.3512L73.9371 29.3529L74.1402 28.896ZM73.6002 24.612L73.1641 24.3675L73.1583 24.3778L73.153 24.3884L73.6002 24.612ZM79.0362 22.488H79.5362V22.4733L79.5354 22.4586L79.0362 22.488ZM78.6042 22.632L78.1139 22.7301L78.12 22.7606L78.1299 22.7901L78.6042 22.632ZM78.3882 22.236L78.0347 22.5896L78.0697 22.6246L78.1109 22.652L78.3882 22.236ZM74.6802 24.54L75.118 24.7815L75.1215 24.7752L75.1249 24.7687L74.6802 24.54ZM75.4002 28.464L75.3785 28.9635L75.3894 28.964H75.4002V28.464ZM86.2722 22.992L86.0865 22.5278L86.0247 22.5525L85.9715 22.5925L86.2722 22.992ZM86.4522 22.92V22.42H86.3559L86.2665 22.4558L86.4522 22.92ZM86.4522 23.244L86.1749 22.828L86.1584 22.8389L86.1429 22.8511L86.4522 23.244ZM75.2202 29.112V28.612C74.886 28.612 74.5963 28.5515 74.3433 28.4391L74.1402 28.896L73.9371 29.3529C74.3322 29.5285 74.7625 29.612 75.2202 29.612V29.112ZM74.1402 28.896L74.3471 28.4408C73.8021 28.1931 73.5242 27.6363 73.5242 26.844H73.0242H72.5242C72.5242 27.8517 72.8943 28.8789 73.9333 29.3512L74.1402 28.896ZM73.0242 26.844H73.5242C73.5242 26.1863 73.7475 25.4354 74.0474 24.8356L73.6002 24.612L73.153 24.3884C72.8049 25.0846 72.5242 25.9897 72.5242 26.844H73.0242ZM73.6002 24.612L74.0364 24.8565C75.3217 22.5637 76.7329 21.908 77.5602 21.908V21.408V20.908C76.2275 20.908 74.5427 21.9083 73.1641 24.3675L73.6002 24.612ZM77.5602 21.408V21.908C78.2657 21.908 78.5222 22.264 78.5371 22.5174L79.0362 22.488L79.5354 22.4586C79.4783 21.488 78.5828 20.908 77.5602 20.908V21.408ZM79.0362 22.488H78.5362C78.5362 22.516 78.5292 22.4837 78.5687 22.431C78.6106 22.3752 78.6977 22.312 78.8202 22.312V22.812V23.312C79.3282 23.312 79.5362 22.8373 79.5362 22.488H79.0362ZM78.8202 22.812V22.312C78.8869 22.312 78.959 22.3377 79.0145 22.3862C79.0625 22.4282 79.0766 22.4681 79.0786 22.4739L78.6042 22.632L78.1299 22.7901C78.2079 23.0241 78.4247 23.312 78.8202 23.312V22.812ZM78.6042 22.632L79.0945 22.5339C79.0484 22.3032 78.9367 22.0007 78.6656 21.82L78.3882 22.236L78.1109 22.652C78.0794 22.6311 78.0742 22.614 78.082 22.6288C78.0898 22.6433 78.103 22.6756 78.1139 22.7301L78.6042 22.632ZM78.3882 22.236L78.7418 21.8824C78.4514 21.5921 78.0993 21.484 77.7402 21.484V21.984V22.484C77.8851 22.484 77.965 22.5199 78.0347 22.5896L78.3882 22.236ZM77.7402 21.984V21.484C77.0517 21.484 76.3322 21.9073 75.7486 22.411C75.1456 22.9313 74.591 23.6202 74.2356 24.3113L74.6802 24.54L75.1249 24.7687C75.4174 24.1998 75.8889 23.6107 76.4019 23.168C76.9342 22.7087 77.4207 22.484 77.7402 22.484V21.984ZM74.6802 24.54L74.2424 24.2985C73.6437 25.3837 73.3882 26.2607 73.3882 26.988H73.8882H74.3882C74.3882 26.4913 74.5648 25.7843 75.118 24.7815L74.6802 24.54ZM73.8882 26.988H73.3882C73.3882 27.615 73.6066 28.1211 74.0058 28.4679C74.3913 28.8029 74.891 28.9423 75.3785 28.9635L75.4002 28.464L75.4219 27.9645C75.0814 27.9497 74.8252 27.8551 74.6617 27.7131C74.5119 27.5829 74.3882 27.369 74.3882 26.988H73.8882ZM75.4002 28.464V28.964H75.5802V28.464V27.964H75.4002V28.464ZM75.5802 28.464V28.964C76.3399 28.964 77.209 28.751 78.1126 28.4172C79.0221 28.0812 79.9975 27.6111 80.9786 27.0704C82.9408 25.9889 84.9592 24.6063 86.5729 23.3915L86.2722 22.992L85.9715 22.5925C84.3813 23.7897 82.4036 25.1431 80.4959 26.1946C79.542 26.7204 78.6138 27.166 77.7661 27.4792C76.9124 27.7945 76.1705 27.964 75.5802 27.964V28.464ZM86.2722 22.992L86.4579 23.4562L86.6379 23.3842L86.4522 22.92L86.2665 22.4558L86.0865 22.5278L86.2722 22.992ZM86.4522 22.92V23.42C86.3256 23.42 86.2408 23.3617 86.1977 23.3186C86.1545 23.2754 86.0962 23.1906 86.0962 23.064H86.5962H87.0962C87.0962 22.8654 87.0019 22.7086 86.9048 22.6114C86.8076 22.5143 86.6508 22.42 86.4522 22.42V22.92ZM86.5962 23.064H86.0962C86.0962 22.9945 86.1123 22.9429 86.1233 22.915C86.1353 22.8842 86.1487 22.8627 86.1579 22.8499C86.1763 22.8241 86.1873 22.8197 86.1749 22.828L86.4522 23.244L86.7296 23.66C86.8251 23.5963 86.9082 23.5199 86.9716 23.4311C87.0266 23.3541 87.0962 23.2259 87.0962 23.064H86.5962ZM86.4522 23.244L86.1429 22.8511C84.4651 24.172 82.399 25.6229 80.4029 26.7407C78.3815 27.8727 76.5193 28.612 75.2202 28.612V29.112V29.612C76.8011 29.612 78.8629 28.7493 80.8915 27.6133C82.9454 26.4631 85.0554 24.98 86.7615 23.6369L86.4522 23.244ZM84.4877 25.44L84.9301 25.6729L84.9357 25.6623L84.9408 25.6514L84.4877 25.44ZM86.3597 22.74L86.703 23.1035L87.1164 22.7131L86.6763 22.353L86.3597 22.74ZM87.4397 21.948L87.0301 22.2347L87.0361 22.2434L87.0425 22.2517L87.4397 21.948ZM88.6997 23.568L88.4713 24.0128L88.4761 24.0152L88.6997 23.568ZM96.7277 22.956L96.6064 22.4709L96.556 22.4835L96.5092 22.5062L96.7277 22.956ZM96.8717 22.92V22.42H96.8101L96.7504 22.4349L96.8717 22.92ZM96.8357 23.208L97.0502 23.6596L97.0829 23.6441L97.113 23.624L96.8357 23.208ZM88.0517 23.784L88.2753 23.3368L87.5517 22.975V23.784H88.0517ZM87.0437 22.452L86.7663 22.868L87.3667 22.0703L87.0437 22.452ZM86.5757 22.056L86.8987 21.6743L86.1757 22.356L86.5757 22.056ZM87.4757 23.964H87.9757V23.9285L87.9707 23.8933L87.4757 23.964ZM87.4037 23.46L87.8987 23.3893L87.8658 23.1592L87.6687 23.036L87.4037 23.46ZM87.1157 23.28L87.3807 22.856L87.0434 22.6452L86.7621 22.9264L87.1157 23.28ZM84.5597 28.572L84.2061 28.9256L84.2635 28.9829L84.3361 29.0192L84.5597 28.572ZM84.5957 29.184V28.684C84.4977 28.684 84.4137 28.6549 84.3372 28.5784L83.9837 28.932L83.6301 29.2856C83.9137 29.5691 84.2616 29.684 84.5957 29.684V29.184ZM83.9837 28.932L84.3372 28.5784C84.2623 28.5035 84.1957 28.3461 84.1957 28.032H83.6957H83.1957C83.1957 28.4379 83.2731 28.9285 83.6301 29.2856L83.9837 28.932ZM83.6957 28.032H84.1957C84.1957 27.3309 84.5784 26.3411 84.9301 25.6729L84.4877 25.44L84.0452 25.2071C83.6769 25.9069 83.1957 27.0771 83.1957 28.032H83.6957ZM84.4877 25.44L84.9408 25.6514C85.4226 24.6189 86.1081 23.6654 86.703 23.1035L86.3597 22.74L86.0164 22.3765C85.3153 23.0386 84.5607 24.1011 84.0346 25.2286L84.4877 25.44ZM86.3597 22.74L86.6763 22.353C86.3283 22.0683 86.3197 21.908 86.3197 21.912H85.8197H85.3197C85.3197 22.348 85.5991 22.7637 86.0431 23.127L86.3597 22.74ZM85.8197 21.912H86.3197C86.3197 21.9264 86.3153 21.9464 86.305 21.9645C86.2956 21.9809 86.2878 21.9849 86.2933 21.9811C86.2992 21.977 86.316 21.9673 86.3473 21.9587C86.3782 21.9502 86.4188 21.944 86.4677 21.944V21.444V20.944C86.2111 20.944 85.9432 21.0072 85.7241 21.1589C85.4942 21.3181 85.3197 21.5789 85.3197 21.912H85.8197ZM86.4677 21.444V21.944C86.6579 21.944 86.8873 22.0307 87.0301 22.2347L87.4397 21.948L87.8493 21.6613C87.4881 21.1453 86.9255 20.944 86.4677 20.944V21.444ZM87.4397 21.948L87.0425 22.2517C87.2572 22.5324 87.3401 22.7003 87.3755 22.7956C87.4138 22.8986 87.4022 22.9069 87.4299 23.0534C87.4439 23.1272 87.4695 23.2259 87.5318 23.3315C87.5922 23.4341 87.6708 23.5155 87.755 23.5847C87.9094 23.7116 88.1421 23.8437 88.4713 24.0128L88.6997 23.568L88.9281 23.1232C88.5913 22.9503 88.4505 22.8619 88.39 22.8122C88.3667 22.7931 88.3775 22.7971 88.3932 22.8236C88.4106 22.8531 88.4143 22.877 88.4125 22.8676C88.4087 22.8476 88.3903 22.6557 88.3128 22.447C88.2323 22.2307 88.0902 21.9756 87.8369 21.6443L87.4397 21.948ZM88.6997 23.568L88.4761 24.0152C89.367 24.4607 90.4637 24.608 91.5077 24.608V24.108V23.608C90.5357 23.608 89.6164 23.4673 88.9233 23.1208L88.6997 23.568ZM91.5077 24.108V24.608C93.4931 24.608 95.6196 24.0501 96.9461 23.4058L96.7277 22.956L96.5092 22.5062C95.3157 23.0859 93.3383 23.608 91.5077 23.608V24.108ZM96.7277 22.956L96.849 23.4411L96.993 23.4051L96.8717 22.92L96.7504 22.4349L96.6064 22.4709L96.7277 22.956ZM96.8717 22.92V23.42C96.8335 23.42 96.7668 23.412 96.6933 23.363C96.6051 23.3042 96.5157 23.186 96.5157 23.028H97.0157H97.5157C97.5157 22.798 97.3903 22.6258 97.248 22.531C97.1206 22.446 96.9819 22.42 96.8717 22.42V22.92ZM97.0157 23.028H96.5157C96.5157 22.9518 96.5341 22.8933 96.5469 22.8605C96.5604 22.8261 96.5751 22.8016 96.5839 22.7881C96.5933 22.7737 96.6011 22.764 96.6052 22.7591C96.6096 22.754 96.6123 22.7513 96.6126 22.7509C96.613 22.7506 96.6087 22.7549 96.5983 22.7631C96.5883 22.7711 96.5749 22.7809 96.5583 22.792L96.8357 23.208L97.113 23.624C97.1854 23.5758 97.2584 23.5194 97.3197 23.4581C97.3497 23.4281 97.3877 23.3863 97.4216 23.3343C97.4461 23.2967 97.5157 23.1846 97.5157 23.028H97.0157ZM96.8357 23.208L96.6212 22.7564C95.2316 23.4164 93.253 24.004 91.3277 24.004V24.504V25.004C93.4343 25.004 95.5598 24.3676 97.0502 23.6596L96.8357 23.208ZM91.3277 24.504V24.004C90.2377 24.004 89.2011 23.7997 88.2753 23.3368L88.0517 23.784L87.8281 24.2312C88.9183 24.7763 90.1137 25.004 91.3277 25.004V24.504ZM88.0517 23.784H87.5517V23.82H88.0517H88.5517V23.784H88.0517ZM88.0517 23.82H87.5517C87.5517 24.8442 87.0867 26.0906 86.4317 27.0924C86.1072 27.5886 85.7509 28.0017 85.4091 28.2848C85.0553 28.5778 84.7757 28.684 84.5957 28.684V29.184V29.684C85.1176 29.684 85.621 29.4077 86.0469 29.0549C86.4848 28.6923 86.9046 28.1964 87.2687 27.6396C87.9907 26.5354 88.5517 25.0998 88.5517 23.82H88.0517ZM87.0437 22.452L87.3667 22.0703L86.8987 21.6743L86.5757 22.056L86.2527 22.4377L86.7207 22.8337L87.0437 22.452ZM86.5757 22.056L86.1757 22.356C86.34 22.575 86.5496 22.7235 86.7663 22.868L87.0437 22.452L87.321 22.036C87.1058 21.8925 87.0274 21.825 86.9757 21.756L86.5757 22.056ZM84.8117 28.644V29.144C85.0591 29.144 85.2849 29.0538 85.4727 28.9411C85.6632 28.8269 85.8443 28.672 86.0123 28.4986C86.3482 28.1519 86.6739 27.687 86.9573 27.1839C87.516 26.1923 87.9757 24.9338 87.9757 23.964H87.4757H86.9757C86.9757 24.6862 86.6074 25.7677 86.0861 26.6931C85.8295 27.1485 85.5522 27.5364 85.2941 27.8028C85.165 27.936 85.0514 28.0277 84.9584 28.0835C84.8627 28.1409 84.8162 28.144 84.8117 28.144V28.644ZM87.4757 23.964L87.9707 23.8933L87.8987 23.3893L87.4037 23.46L86.9087 23.5307L86.9807 24.0347L87.4757 23.964ZM87.4037 23.46L87.6687 23.036L87.3807 22.856L87.1157 23.28L86.8507 23.704L87.1387 23.884L87.4037 23.46ZM87.1157 23.28L86.7621 22.9264C85.7621 23.9265 85.073 25.0114 84.6328 25.9582C84.1995 26.8901 83.9877 27.7311 83.9877 28.248H84.4877H84.9877C84.9877 27.9369 85.1359 27.2479 85.5396 26.3798C85.9363 25.5266 86.5613 24.5415 87.4692 23.6336L87.1157 23.28ZM84.4877 28.248H83.9877C83.9877 28.3693 83.9996 28.4833 84.0251 28.5853C84.0459 28.6685 84.0917 28.8111 84.2061 28.9256L84.5597 28.572L84.9132 28.2184C84.9375 28.2427 84.9539 28.265 84.9643 28.2808C84.9749 28.2969 84.9818 28.3104 84.986 28.3193C84.9941 28.3365 84.996 28.3457 84.9953 28.3427C84.9938 28.3367 84.9877 28.3067 84.9877 28.248H84.4877ZM84.5597 28.572L84.3361 29.0192C84.412 29.0572 84.5763 29.144 84.8117 29.144V28.644V28.144C84.8129 28.144 84.8163 28.1441 84.821 28.1449C84.8257 28.1457 84.8291 28.1468 84.8303 28.1472C84.8311 28.1474 84.8287 28.1467 84.8212 28.1433C84.8173 28.1415 84.8126 28.1393 84.8062 28.1361C84.7996 28.1329 84.7926 28.1295 84.7833 28.1248L84.5597 28.572ZM92.2651 30.12L92.7123 30.3436L92.7222 30.3237L92.7304 30.3031L92.2651 30.12ZM97.3411 22.056L96.9875 21.7024L96.9772 21.7128L96.9674 21.7238L97.3411 22.056ZM98.0251 22.632L97.8015 22.1848L97.7132 22.2289L97.6483 22.3033L98.0251 22.632ZM93.4171 29.22L92.9746 28.9871L93.7706 29.5736L93.4171 29.22ZM102.957 23.028L103.411 23.237L103.457 23.1375V23.028H102.957ZM100.617 28.824L100.149 28.6494L101.045 29.0829L100.617 28.824ZM108.069 29.724L107.874 30.1846L107.883 30.1882L108.069 29.724ZM119.913 22.992L119.815 22.5017L119.761 22.5125L119.711 22.5348L119.913 22.992ZM120.093 22.956V22.456H120.044L119.995 22.4657L120.093 22.956ZM120.021 23.172L119.863 22.6977L119.826 22.7099L119.792 22.7278L120.021 23.172ZM108.321 30.336L108.276 30.8339L108.298 30.836H108.321V30.336ZM107.925 30.3L107.835 30.7917L107.857 30.7959L107.88 30.7979L107.925 30.3ZM105.621 25.224H106.121V24.5112L105.451 24.7539L105.621 25.224ZM100.365 29.508L99.9931 29.1739L99.9869 29.1808L99.981 29.1879L100.365 29.508ZM101.553 23.676L101.975 23.9438L102.832 22.5928L101.358 23.2154L101.553 23.676ZM92.7691 30.444L92.4022 30.1043L92.3538 30.1566L92.3219 30.2204L92.7691 30.444ZM92.4811 30.552V30.052C92.4854 30.052 92.5445 30.0524 92.6134 30.1076C92.6497 30.1365 92.6814 30.1756 92.7028 30.2222C92.7237 30.268 92.7291 30.3088 92.7291 30.336H92.2291H91.7291C91.7291 30.5461 91.8148 30.7493 91.9887 30.8884C92.1477 31.0156 92.3328 31.052 92.4811 31.052V30.552ZM92.2291 30.336H92.7291C92.7291 30.3267 92.7291 30.3196 92.7291 30.3129C92.7292 30.3064 92.7293 30.3015 92.7294 30.2976C92.7297 30.2896 92.73 30.288 92.7297 30.29C92.7294 30.2924 92.7284 30.2994 92.7256 30.3094C92.7227 30.3196 92.7184 30.3314 92.7123 30.3436L92.2651 30.12L91.8179 29.8964C91.7218 30.0886 91.7291 30.2766 91.7291 30.336H92.2291ZM92.2651 30.12L92.7304 30.3031C93.57 28.169 96.0203 24.2945 97.7148 22.3882L97.3411 22.056L96.9674 21.7238C95.2059 23.7055 92.6882 27.679 91.7998 29.9369L92.2651 30.12ZM97.3411 22.056L97.6946 22.4096C97.7121 22.3921 97.6645 22.448 97.5571 22.448V21.948V21.448C97.3057 21.448 97.114 21.5759 96.9875 21.7024L97.3411 22.056ZM97.5571 21.948V22.448C97.5296 22.448 97.5122 22.4436 97.5071 22.4422C97.5015 22.4406 97.5022 22.4402 97.509 22.4436C97.5154 22.4468 97.5248 22.4522 97.5361 22.4601C97.5474 22.468 97.559 22.4773 97.5702 22.4876C97.5814 22.4979 97.591 22.508 97.5986 22.5171C97.6063 22.5264 97.6105 22.5329 97.6121 22.5356C97.6139 22.5387 97.611 22.5346 97.6073 22.5229C97.6035 22.5114 97.5971 22.487 97.5971 22.452H98.0971H98.5971C98.5971 22.2783 98.5345 22.1314 98.4741 22.0286C98.4109 21.9213 98.3298 21.8273 98.246 21.7504C98.1004 21.617 97.8485 21.448 97.5571 21.448V21.948ZM98.0971 22.452H97.5971C97.5971 22.4731 97.5969 22.4747 97.597 22.4732C97.5972 22.4707 97.5985 22.449 97.6073 22.4181C97.6168 22.3851 97.6357 22.3383 97.673 22.2907C97.7113 22.2416 97.7573 22.2069 97.8015 22.1848L98.0251 22.632L98.2487 23.0792C98.4281 22.9895 98.5273 22.8384 98.5689 22.6929C98.6007 22.5813 98.5971 22.4708 98.5971 22.452H98.0971ZM98.0251 22.632L97.6483 22.3033C96.1533 24.0171 94.0768 26.893 92.9746 28.9871L93.4171 29.22L93.8596 29.4529C94.9174 27.443 96.9449 24.6309 98.4019 22.9607L98.0251 22.632ZM93.4171 29.22L93.7706 29.5736C94.3792 28.965 96.2414 27.3418 98.1629 25.8683C99.122 25.1327 100.084 24.4435 100.903 23.9406C101.313 23.6889 101.677 23.4897 101.981 23.355C102.3 23.214 102.499 23.168 102.597 23.168V22.668V22.168C102.281 22.168 101.922 22.2874 101.576 22.4407C101.216 22.6003 100.81 22.8244 100.38 23.0885C99.5187 23.6173 98.5257 24.3298 97.5543 25.0747C95.6148 26.5622 93.715 28.215 93.0635 28.8664L93.4171 29.22ZM102.597 22.668V23.168C102.628 23.168 102.578 23.1759 102.518 23.1199C102.488 23.0924 102.471 23.062 102.462 23.0391C102.455 23.0184 102.457 23.0117 102.457 23.028H102.957H103.457C103.457 22.8067 103.391 22.5663 103.198 22.3871C103.012 22.2141 102.782 22.168 102.597 22.168V22.668ZM102.957 23.028L102.503 22.819C101.666 24.6376 100.833 26.813 100.149 28.6494L100.617 28.824L101.086 28.9986C101.769 27.163 102.592 25.0184 103.411 23.237L102.957 23.028ZM100.617 28.824L101.045 29.0829C101.411 28.4786 102.422 27.4622 103.53 26.5777C104.076 26.1422 104.624 25.7553 105.1 25.4802C105.338 25.3426 105.549 25.2378 105.728 25.1686C105.913 25.0966 106.03 25.076 106.089 25.076V24.576V24.076C105.851 24.076 105.6 24.1454 105.366 24.2363C105.125 24.3299 104.865 24.4608 104.599 24.6145C104.067 24.9222 103.477 25.3408 102.906 25.7963C101.782 26.6938 100.652 27.8014 100.189 28.5651L100.617 28.824ZM106.089 24.576V25.076C106.121 25.076 106.127 25.0802 106.116 25.0764C106.109 25.0743 106.099 25.07 106.086 25.0621C106.074 25.054 106.061 25.0436 106.049 25.0312C106.024 25.005 106.017 24.9825 106.016 24.9799C106.016 24.9798 106.021 24.9981 106.021 25.044H106.521H107.021C107.021 24.8192 106.972 24.5533 106.777 24.3458C106.576 24.132 106.31 24.076 106.089 24.076V24.576ZM106.521 25.044H106.021V25.332H106.521H107.021V25.044H106.521ZM106.521 25.332H106.021C106.021 26.8828 106.174 27.959 106.481 28.7149C106.801 29.5048 107.285 29.9353 107.874 30.1845L108.069 29.724L108.264 29.2635C107.917 29.1167 107.627 28.8812 107.407 28.3391C107.174 27.763 107.021 26.8412 107.021 25.332H106.521ZM108.069 29.724L107.883 30.1882C108.124 30.2844 108.367 30.332 108.645 30.332V29.832V29.332C108.491 29.332 108.374 29.3076 108.255 29.2598L108.069 29.724ZM108.645 29.832V30.332C109.47 30.332 110.478 29.9037 111.495 29.3366C112.534 28.7566 113.67 27.9788 114.774 27.1819C115.854 26.4028 116.993 25.5373 117.905 24.8754C118.859 24.1818 119.624 23.6668 120.115 23.4492L119.913 22.992L119.711 22.5348C119.104 22.8032 118.253 23.3862 117.317 24.0663C116.337 24.7779 115.31 25.5617 114.189 26.3711C113.092 27.1627 111.994 27.9126 111.008 28.4633C109.998 29.0268 109.188 29.332 108.645 29.332V29.832ZM119.913 22.992L120.011 23.4823L120.191 23.4463L120.093 22.956L119.995 22.4657L119.815 22.5017L119.913 22.992ZM120.093 22.956V23.456C119.948 23.456 119.846 23.3887 119.789 23.3321C119.732 23.2754 119.665 23.1726 119.665 23.028H120.165H120.665C120.665 22.8474 120.58 22.7086 120.496 22.6249C120.412 22.5413 120.274 22.456 120.093 22.456V22.956ZM120.165 23.028H119.665C119.665 22.9589 119.681 22.9055 119.695 22.8713C119.71 22.8341 119.73 22.8038 119.749 22.7799C119.791 22.7298 119.836 22.7066 119.863 22.6977L120.021 23.172L120.179 23.6463C120.434 23.5614 120.665 23.3341 120.665 23.028H120.165ZM120.021 23.172L119.792 22.7278C119.203 23.0317 118.371 23.6503 117.442 24.3661C116.495 25.096 115.421 25.9484 114.306 26.77C113.192 27.591 112.058 28.3657 111.005 28.9335C109.938 29.5093 109.019 29.836 108.321 29.836V30.336V30.836C109.279 30.836 110.381 30.4067 111.48 29.8136C112.594 29.2126 113.773 28.4055 114.9 27.575C116.026 26.7451 117.121 25.8763 118.053 25.1582C119.003 24.4262 119.759 23.8703 120.251 23.6162L120.021 23.172ZM108.321 30.336L108.366 29.8381L107.97 29.8021L107.925 30.3L107.88 30.7979L108.276 30.8339L108.321 30.336ZM107.925 30.3L108.016 29.8083C107.446 29.7034 107.01 29.458 106.692 28.9137C106.353 28.3343 106.121 27.3694 106.121 25.764H105.621H105.121C105.121 27.4346 105.357 28.6117 105.828 29.4183C106.32 30.26 107.036 30.6446 107.835 30.7917L107.925 30.3ZM105.621 25.764H106.121V25.224H105.621H105.121V25.764H105.621ZM105.621 25.224L105.451 24.7539C104.861 24.9673 104.226 25.3629 103.622 25.8104C103.011 26.2622 102.405 26.7873 101.87 27.2829C101.335 27.7793 100.867 28.2509 100.532 28.5983C100.365 28.7721 100.231 28.9152 100.138 29.0152C100.092 29.0652 100.056 29.1045 100.032 29.1314C100.019 29.1449 100.01 29.1553 100.003 29.1625C100 29.1661 99.9977 29.1688 99.996 29.1707C99.9951 29.1717 99.9944 29.1724 99.9939 29.173C99.9937 29.1732 99.9935 29.1735 99.9934 29.1736C99.9933 29.1737 99.9932 29.1738 99.9932 29.1738C99.9931 29.1739 99.9931 29.1739 100.365 29.508C100.737 29.8421 100.737 29.8421 100.737 29.8421C100.737 29.8421 100.737 29.8421 100.737 29.8421C100.737 29.842 100.737 29.8419 100.737 29.8417C100.738 29.8414 100.738 29.8409 100.739 29.8402C100.74 29.8387 100.742 29.8364 100.745 29.8332C100.751 29.827 100.759 29.8175 100.771 29.805C100.794 29.7799 100.828 29.7426 100.872 29.6947C100.961 29.5988 101.091 29.4603 101.253 29.2916C101.578 28.9539 102.032 28.4962 102.55 28.0161C103.069 27.5352 103.646 27.0366 104.216 26.6142C104.793 26.1876 105.337 25.8587 105.791 25.6941L105.621 25.224ZM100.365 29.508L99.981 29.1879C99.9141 29.2682 99.8678 29.3046 99.8492 29.317C99.8401 29.3231 99.8427 29.32 99.8572 29.3144C99.8648 29.3116 99.8774 29.3073 99.8948 29.3035C99.9119 29.2999 99.9372 29.296 99.9691 29.296V29.796V30.296C100.148 30.296 100.301 30.2178 100.404 30.149C100.52 30.0714 100.636 29.9638 100.749 29.8281L100.365 29.508ZM99.9691 29.796V29.296C100.012 29.296 100.088 29.3085 100.163 29.3656C100.232 29.4186 100.257 29.4776 100.263 29.4926C100.268 29.5057 100.263 29.4995 100.259 29.4581C100.255 29.4192 100.253 29.3657 100.253 29.292H99.7531H99.2531C99.2531 29.4489 99.2583 29.6589 99.3244 29.8384C99.3615 29.9389 99.4291 30.0632 99.5557 30.16C99.6878 30.261 99.8366 30.296 99.9691 30.296V29.796ZM99.7531 29.292H100.253C100.253 28.7771 100.449 27.802 100.78 26.7405C101.107 25.6874 101.541 24.6281 101.975 23.9438L101.553 23.676L101.131 23.4082C100.629 24.1999 100.163 25.3546 99.8246 26.4435C99.4887 27.524 99.2531 28.6189 99.2531 29.292H99.7531ZM101.553 23.676L101.358 23.2154C100.005 23.7874 97.9814 25.283 96.2245 26.7127C94.4567 28.1513 92.8771 29.5914 92.4022 30.1043L92.7691 30.444L93.136 30.7837C93.5611 30.3246 95.0955 28.9207 96.8557 27.4883C98.6268 26.047 100.545 24.6446 101.748 24.1366L101.553 23.676ZM92.7691 30.444L92.3219 30.2204C92.3642 30.1357 92.4219 30.0918 92.4467 30.0752C92.4736 30.0573 92.4922 30.0513 92.494 30.0507C92.4975 30.0495 92.4961 30.0502 92.4906 30.0511C92.4882 30.0514 92.4859 30.0517 92.4839 30.0518C92.4819 30.052 92.4809 30.052 92.4811 30.052V30.552V31.052C92.5831 31.052 92.7001 31.036 92.8102 30.9993C92.8905 30.9726 93.1045 30.8912 93.2163 30.6676L92.7691 30.444ZM118.926 28.86L119.129 28.4031L119.123 28.4004L118.926 28.86ZM118.566 24.576L118.13 24.3306L118.128 24.335L118.566 24.576ZM119.43 24.792L119.334 24.3013L119.093 24.3484L118.983 24.5684L119.43 24.792ZM120.222 28.464L120.2 28.9635L120.211 28.964H120.222V28.464ZM131.238 22.992L131.052 22.5278L130.992 22.552L130.939 22.5909L131.238 22.992ZM131.418 22.92V22.42H131.322L131.232 22.4558L131.418 22.92ZM131.418 23.244L131.141 22.828L131.127 22.8368L131.115 22.8465L131.418 23.244ZM119.718 24.252L119.302 23.9746L118.726 24.8382L119.76 24.7502L119.718 24.252ZM123.462 21.876L123.815 21.5224L123.815 21.5224L123.462 21.876ZM120.006 29.076V28.576C119.672 28.576 119.382 28.5155 119.129 28.4031L118.926 28.86L118.723 29.3169C119.118 29.4925 119.548 29.576 120.006 29.576V29.076ZM118.926 28.86L119.123 28.4004C118.623 28.1864 118.382 27.7094 118.382 26.988H117.882H117.382C117.382 27.9226 117.716 28.8856 118.729 29.3196L118.926 28.86ZM117.882 26.988H118.382C118.382 26.2679 118.635 25.4871 119.004 24.817L118.566 24.576L118.128 24.335C117.704 25.1049 117.382 26.0521 117.382 26.988H117.882ZM118.566 24.576L119.002 24.8214C120.38 22.3739 122 21.728 122.886 21.728V21.228V20.728C121.54 20.728 119.631 21.6661 118.13 24.3306L118.566 24.576ZM122.886 21.228V21.728C123.153 21.728 123.33 21.7812 123.421 21.8331C123.506 21.8816 123.466 21.8918 123.466 21.84H123.966H124.466C124.466 21.4282 124.21 21.1324 123.917 20.9649C123.63 20.8008 123.267 20.728 122.886 20.728V21.228ZM123.966 21.84H123.466C123.466 21.9242 123.425 22.0848 123.265 22.3103C123.109 22.53 122.861 22.7798 122.512 23.0324C121.815 23.5369 120.751 24.0249 119.334 24.3013L119.43 24.792L119.526 25.2827C121.061 24.9831 122.265 24.4451 123.098 23.8426C123.514 23.5417 123.847 23.2177 124.08 22.8895C124.309 22.5672 124.466 22.2058 124.466 21.84H123.966ZM119.43 24.792L118.983 24.5684C118.495 25.5437 118.282 26.3426 118.282 26.988H118.782H119.282C119.282 26.5534 119.429 25.9123 119.877 25.0156L119.43 24.792ZM118.782 26.988H118.282C118.282 27.5976 118.471 28.103 118.851 28.4567C119.222 28.8016 119.711 28.9423 120.2 28.9635L120.222 28.464L120.244 27.9645C119.905 27.9497 119.674 27.8564 119.532 27.7243C119.399 27.601 119.282 27.3864 119.282 26.988H118.782ZM120.222 28.464V28.964H120.402V28.464V27.964H120.222V28.464ZM120.402 28.464V28.964C121.161 28.964 122.036 28.7512 122.95 28.4179C123.87 28.0823 124.859 27.6126 125.856 27.072C127.849 25.9909 129.904 24.6086 131.536 23.3931L131.238 22.992L130.939 22.5909C129.332 23.7874 127.319 25.1411 125.379 26.193C124.409 26.7189 123.466 27.165 122.607 27.4785C121.742 27.7943 120.993 27.964 120.402 27.964V28.464ZM131.238 22.992L131.424 23.4562L131.604 23.3842L131.418 22.92L131.232 22.4558L131.052 22.5278L131.238 22.992ZM131.418 22.92V23.42C131.297 23.42 131.223 23.3667 131.197 23.3446C131.179 23.3297 131.156 23.3071 131.134 23.2733C131.122 23.2561 131.107 23.2297 131.093 23.1945C131.08 23.1614 131.062 23.1034 131.062 23.028H131.562H132.062C132.062 22.8733 131.994 22.7619 131.966 22.7186C131.927 22.6611 131.882 22.6138 131.837 22.5764C131.756 22.5093 131.611 22.42 131.418 22.42V22.92ZM131.562 23.028H131.062C131.062 22.9739 131.077 22.9175 131.106 22.871C131.132 22.8306 131.154 22.8192 131.141 22.828L131.418 23.244L131.695 23.66C131.897 23.5252 132.062 23.3148 132.062 23.028H131.562ZM131.418 23.244L131.115 22.8465C129.382 24.1681 127.271 25.6108 125.242 26.7203C123.189 27.8437 121.308 28.576 120.006 28.576V29.076V29.576C121.584 29.576 123.663 28.7243 125.722 27.5977C127.807 26.4572 129.962 24.9839 131.721 23.6415L131.418 23.244ZM119.718 24.252L119.76 24.7502C120.702 24.6701 121.736 24.2677 122.53 23.8069C122.929 23.575 123.288 23.3162 123.555 23.0557C123.688 22.9257 123.81 22.7846 123.901 22.6358C123.989 22.4917 124.07 22.3044 124.07 22.092H123.57H123.07C123.07 22.0506 123.084 22.0546 123.047 22.1148C123.013 22.1703 122.952 22.2466 122.857 22.3399C122.666 22.526 122.38 22.7375 122.027 22.9421C121.318 23.3543 120.426 23.6899 119.676 23.7538L119.718 24.252ZM123.57 22.092H124.07C124.07 21.8406 123.942 21.6489 123.815 21.5224L123.462 21.876L123.108 22.2296C123.126 22.2471 123.07 22.1994 123.07 22.092H123.57ZM123.462 21.876L123.815 21.5224C123.644 21.3505 123.37 21.232 123.066 21.232V21.732V22.232C123.089 22.232 123.107 22.2367 123.119 22.2412C123.124 22.2435 123.127 22.245 123.126 22.2446C123.126 22.2444 123.119 22.2402 123.108 22.2296L123.462 21.876ZM123.066 21.732V21.232C122.571 21.232 121.942 21.4567 121.301 21.8889C120.649 22.3291 119.947 23.0076 119.302 23.9746L119.718 24.252L120.134 24.5293C120.713 23.6604 121.325 23.0789 121.86 22.7181C122.407 22.3493 122.841 22.232 123.066 22.232V21.732Z" fill="#8B9B68" mask="url(#path-1-outside-1_67_1057)"/>
</svg>
