<svg width="118" height="32" viewBox="0 0 118 32" fill="none" xmlns="http://www.w3.org/2000/svg">
<mask id="path-1-outside-1_67_1054" maskUnits="userSpaceOnUse" x="0" y="0" width="118" height="32" fill="black">
<rect fill="white" width="118" height="32"/>
<path d="M10.7746 31.216C10.5826 31.216 10.4386 31.144 10.3906 30.952V30.832C10.3906 30.472 10.7266 29.704 12.0226 29.704L12.5986 29.752C20.5906 23.728 25.0786 11.176 32.0866 4.912C22.6066 6.304 5.51863 4.984 1.65463 12.208C1.60663 12.28 1.53463 12.328 1.48663 12.328C1.43863 12.328 1.39062 12.28 1.39062 12.208C1.39062 12.184 1.39062 12.136 1.41463 12.088C5.49463 4.48 24.2626 5.8 32.5666 4.432C33.2626 3.856 37.2226 0.831998 38.9746 0.831998C39.2146 0.831998 39.4066 0.903998 39.5506 1.024C39.7426 1.192 39.8146 1.384 39.8146 1.552C39.8146 2.776 36.3826 4.048 35.3986 4.288C34.7746 4.456 34.1506 4.6 33.4546 4.72C25.3186 11.656 21.8386 23.152 13.3426 29.896C15.4066 30.328 17.4466 30.544 19.4146 30.544C27.8866 30.544 35.3986 26.608 38.5666 18.952C39.7186 16.24 40.2706 13.648 40.2706 11.488C40.2706 8.488 39.1666 6.352 37.0306 5.992C36.7426 5.944 36.4306 5.92 36.1426 5.92C31.9666 5.92 29.7586 10.84 29.3266 12.592C29.3266 12.616 29.1826 12.784 29.0626 12.784C28.9906 12.784 28.9426 12.712 28.9426 12.568C28.9426 12.328 29.0626 11.872 29.3746 11.032C30.5746 8.032 33.1666 5.488 36.0706 5.488C36.4306 5.488 36.7666 5.536 37.1026 5.608C40.0786 6.208 40.9906 8.752 40.9906 11.56C40.9906 14.392 40.0786 17.512 39.3346 19.312C35.9746 27.688 28.2946 31 19.9906 31C17.6386 31 15.2146 30.736 12.8386 30.232C12.5506 30.472 11.3986 31.216 10.7746 31.216ZM10.7746 30.832L11.6386 30.424C11.7826 30.352 11.9506 30.256 12.1186 30.136H11.9266C10.9906 30.136 10.7746 30.736 10.7746 30.832ZM34.0546 4.192C35.5186 4.144 39.4306 2.536 39.4306 1.6C39.4306 1.504 39.3826 1.408 39.2866 1.336C39.2386 1.288 39.1426 1.264 39.0226 1.264C37.9426 1.264 34.9426 3.472 34.0546 4.192ZM42.7299 23.344L42.4419 23.296C42.0579 23.176 41.9139 22.888 41.9139 22.528C41.9139 21.592 42.8499 20.104 43.0659 19.432C43.1139 19.264 43.1619 19.072 43.1619 18.928C43.1619 18.76 43.1139 18.64 43.0179 18.568C42.8499 18.472 42.7779 18.328 42.7779 18.16C42.7779 17.584 43.5699 16.696 44.1699 16.696L44.2899 16.72C44.3859 16.744 44.4339 16.792 44.4339 16.888C44.4339 17.248 43.6899 18.064 43.3299 18.28C43.5219 18.448 43.5939 18.688 43.5939 18.952C43.5939 20.056 42.2739 21.736 42.2739 22.504C42.2739 22.72 42.3459 22.84 42.5619 22.912C42.6339 22.936 42.7059 22.936 42.8019 22.936C44.4339 22.936 49.5219 19.264 50.8419 18.352C50.9139 18.304 50.9619 18.304 51.0099 18.304C51.0579 18.304 51.0819 18.304 51.0819 18.352C51.0819 18.376 51.0579 18.448 50.9619 18.496C49.5219 19.504 44.5779 23.344 42.7299 23.344ZM43.2099 18.064C43.5699 17.872 44.0739 17.176 44.0739 17.08C44.0739 17.056 44.0739 17.056 44.0499 17.056C43.7859 17.2 43.2099 17.872 43.2099 18.04V18.064ZM50.9883 22.384C50.7243 22.384 50.4843 22.336 50.2683 22.24C49.7643 22.024 49.5723 21.544 49.5723 20.992C49.5723 20.44 49.7643 19.864 50.0283 19.384C50.9883 17.68 52.1643 17.152 52.9083 17.152C53.3403 17.152 53.6283 17.32 53.6283 17.56C53.6283 18.16 52.5723 19.144 50.6043 19.528C50.2923 20.152 50.1723 20.632 50.1723 20.992C50.1723 21.664 50.5803 21.952 51.1323 21.976H51.2523C53.0523 21.976 56.3163 19.936 58.4763 18.328L58.5963 18.28C58.6443 18.28 58.6923 18.328 58.6923 18.352C58.6923 18.4 58.6683 18.448 58.5963 18.496C56.2683 20.272 52.9083 22.384 50.9883 22.384ZM50.7963 19.168C51.9243 19.072 53.3643 18.184 53.3643 17.728C53.3643 17.68 53.3403 17.632 53.2923 17.584C53.2443 17.536 53.1483 17.488 53.0283 17.488C52.5483 17.488 51.6123 17.944 50.7963 19.168ZM55.2455 25.912C54.5735 25.912 54.0935 25.48 54.0935 24.832C54.0935 24.304 54.4055 23.608 55.1975 22.888C55.8215 22.288 56.7335 21.712 58.0775 21.16C58.2215 20.2 58.1975 18.952 58.5335 18.04C58.8935 17.08 59.7575 16.504 60.2855 16.504C60.4775 16.504 60.6215 16.576 60.6935 16.744L60.7175 16.888C60.7175 17.512 59.2775 18.232 59.0375 18.328C58.8455 19.12 58.8695 19.84 58.7015 20.92C61.3175 20.152 64.6295 19.072 65.5415 18.28C65.5655 18.256 65.5895 18.256 65.6135 18.256C65.6615 18.256 65.6855 18.28 65.6855 18.328L65.6615 18.4C64.3415 19.6 60.4535 20.536 58.6295 21.256C58.0055 24.688 56.3735 25.912 55.2455 25.912ZM59.1095 18.016C59.3735 17.896 60.5015 17.296 60.5015 16.936V16.888C60.4775 16.768 60.4055 16.72 60.3095 16.72C59.9495 16.72 59.2295 17.488 59.1095 18.016ZM55.2455 25.624C56.3015 25.624 57.7655 23.656 58.0295 21.52C57.1895 21.856 56.0375 22.456 55.3415 23.152C54.6695 23.848 54.4295 24.4 54.4295 24.784C54.4295 25.096 54.5495 25.288 54.7415 25.432C54.8855 25.552 55.0535 25.624 55.2455 25.624ZM62.2299 25.912C61.5579 25.912 61.0779 25.48 61.0779 24.832C61.0779 24.304 61.3899 23.608 62.1819 22.888C62.8059 22.288 63.7179 21.712 65.0619 21.16C65.2059 20.2 65.1819 18.952 65.5179 18.04C65.8779 17.08 66.7419 16.504 67.2699 16.504C67.4619 16.504 67.6059 16.576 67.6779 16.744L67.7019 16.888C67.7019 17.512 66.2619 18.232 66.0219 18.328C65.8299 19.12 65.8539 19.84 65.6859 20.92C68.3019 20.152 71.6139 19.072 72.5259 18.28C72.5499 18.256 72.5739 18.256 72.5979 18.256C72.6459 18.256 72.6699 18.28 72.6699 18.328L72.6459 18.4C71.3259 19.6 67.4379 20.536 65.6139 21.256C64.9899 24.688 63.3579 25.912 62.2299 25.912ZM66.0939 18.016C66.3579 17.896 67.4859 17.296 67.4859 16.936V16.888C67.4619 16.768 67.3899 16.72 67.2939 16.72C66.9339 16.72 66.2139 17.488 66.0939 18.016ZM62.2299 25.624C63.2859 25.624 64.7499 23.656 65.0139 21.52C64.1739 21.856 63.0219 22.456 62.3259 23.152C61.6539 23.848 61.4139 24.4 61.4139 24.784C61.4139 25.096 61.5339 25.288 61.7259 25.432C61.8699 25.552 62.0379 25.624 62.2299 25.624ZM82.2796 22.408C82.0156 22.408 81.7756 22.36 81.5596 22.264C81.0316 22.024 80.8156 21.496 80.8156 20.896C80.8156 20.392 80.9836 19.84 81.1996 19.408C82.0876 17.824 83.1196 17.272 83.8396 17.272C84.4156 17.272 84.7996 17.584 84.8236 17.992C84.8236 18.136 84.7516 18.208 84.6796 18.208C84.6076 18.208 84.5596 18.16 84.5356 18.088C84.5116 17.968 84.4636 17.872 84.3916 17.824C84.2716 17.704 84.1276 17.656 83.9596 17.656C83.2876 17.656 82.3516 18.52 81.9196 19.36C81.5356 20.056 81.3916 20.584 81.3916 20.992C81.3916 21.664 81.8476 21.952 82.3996 21.976H82.5196C84.3196 21.976 87.5116 19.936 89.6476 18.328L89.7676 18.28C89.8156 18.28 89.8636 18.328 89.8636 18.376C89.8636 18.4 89.8396 18.448 89.7676 18.496C87.5116 20.272 84.1996 22.408 82.2796 22.408ZM88.5299 22.456C88.3859 22.456 88.2419 22.408 88.1219 22.288C87.9779 22.144 87.9299 21.928 87.9299 21.688C87.9299 21.136 88.2179 20.416 88.4579 19.96C88.7939 19.24 89.2739 18.568 89.7059 18.16C89.4419 17.944 89.3459 17.752 89.3459 17.608C89.3459 17.416 89.5379 17.296 89.7779 17.296C89.9939 17.296 90.2579 17.392 90.4259 17.632C91.0499 18.448 90.3779 18.256 91.2659 18.712C91.7939 18.976 92.4659 19.072 93.1379 19.072C94.4099 19.072 95.7779 18.712 96.6179 18.304L96.7139 18.28C96.7619 18.28 96.8099 18.304 96.8099 18.352C96.8099 18.376 96.7619 18.424 96.6899 18.472C95.7299 18.928 94.3619 19.336 93.0179 19.336C92.2499 19.336 91.5059 19.192 90.8339 18.856V18.88C90.8339 20.416 89.4659 22.456 88.5299 22.456ZM90.1619 17.968L89.8499 17.704C89.9219 17.8 90.0179 17.872 90.1619 17.968ZM88.6739 22.096C89.3459 22.096 90.4499 20.104 90.4499 18.976L90.4019 18.64L90.2099 18.52C88.9379 19.792 88.4579 21.28 88.4579 21.832C88.4579 21.952 88.4819 22.024 88.5059 22.048C88.5539 22.072 88.6019 22.096 88.6739 22.096ZM100.363 23.848C99.7629 23.848 99.1629 23.464 99.1629 22.336C99.1629 21.688 99.3789 20.8 99.9549 19.696C98.2029 21.04 96.9789 21.544 96.2589 21.544C95.5869 21.544 95.2989 21.16 95.2989 20.608C95.2989 19.24 97.1469 17.08 99.1869 17.08C99.9309 17.08 100.555 17.416 100.699 18.328C101.755 16.24 109.051 6.088 111.259 6.088C111.523 6.088 111.739 6.208 111.739 6.568C111.739 7.504 110.347 9.976 107.011 13.408C105.043 15.424 103.051 17.44 100.987 18.976C100.051 20.656 99.7389 21.808 99.7389 22.528C99.7389 23.296 100.075 23.536 100.483 23.536C102.331 23.536 107.107 19.072 109.051 18.28L109.123 18.256C109.219 18.256 109.243 18.328 109.243 18.376C109.243 18.424 109.219 18.472 109.171 18.496C106.939 19.456 102.595 23.848 100.363 23.848ZM96.3789 21.16C97.1469 21.16 98.7549 20.272 100.339 18.928V18.784C100.339 17.872 99.8829 17.56 99.3069 17.56C98.6589 17.56 97.8669 17.944 97.3629 18.424C96.6429 19.072 96.0189 20.272 96.0189 20.848C96.0189 20.992 96.0669 21.112 96.1869 21.136L96.3789 21.16ZM101.419 18.184C102.739 17.176 106.147 14.032 108.619 11.176C110.299 9.184 111.475 7.264 111.475 6.568C111.475 6.424 111.451 6.328 111.307 6.328C111.067 6.328 110.515 6.736 109.843 7.384C107.323 9.856 102.955 15.832 101.419 18.184ZM109.16 22.384C108.896 22.384 108.656 22.336 108.44 22.24C107.936 22.024 107.744 21.544 107.744 20.992C107.744 20.44 107.936 19.864 108.2 19.384C109.16 17.68 110.336 17.152 111.08 17.152C111.512 17.152 111.8 17.32 111.8 17.56C111.8 18.16 110.744 19.144 108.776 19.528C108.464 20.152 108.344 20.632 108.344 20.992C108.344 21.664 108.752 21.952 109.304 21.976H109.424C111.224 21.976 114.488 19.936 116.648 18.328L116.768 18.28C116.816 18.28 116.864 18.328 116.864 18.352C116.864 18.4 116.84 18.448 116.768 18.496C114.44 20.272 111.08 22.384 109.16 22.384ZM108.968 19.168C110.096 19.072 111.536 18.184 111.536 17.728C111.536 17.68 111.512 17.632 111.464 17.584C111.416 17.536 111.32 17.488 111.2 17.488C110.72 17.488 109.784 17.944 108.968 19.168Z"/>
</mask>
<path d="M10.7746 31.216C10.5826 31.216 10.4386 31.144 10.3906 30.952V30.832C10.3906 30.472 10.7266 29.704 12.0226 29.704L12.5986 29.752C20.5906 23.728 25.0786 11.176 32.0866 4.912C22.6066 6.304 5.51863 4.984 1.65463 12.208C1.60663 12.28 1.53463 12.328 1.48663 12.328C1.43863 12.328 1.39062 12.28 1.39062 12.208C1.39062 12.184 1.39062 12.136 1.41463 12.088C5.49463 4.48 24.2626 5.8 32.5666 4.432C33.2626 3.856 37.2226 0.831998 38.9746 0.831998C39.2146 0.831998 39.4066 0.903998 39.5506 1.024C39.7426 1.192 39.8146 1.384 39.8146 1.552C39.8146 2.776 36.3826 4.048 35.3986 4.288C34.7746 4.456 34.1506 4.6 33.4546 4.72C25.3186 11.656 21.8386 23.152 13.3426 29.896C15.4066 30.328 17.4466 30.544 19.4146 30.544C27.8866 30.544 35.3986 26.608 38.5666 18.952C39.7186 16.24 40.2706 13.648 40.2706 11.488C40.2706 8.488 39.1666 6.352 37.0306 5.992C36.7426 5.944 36.4306 5.92 36.1426 5.92C31.9666 5.92 29.7586 10.84 29.3266 12.592C29.3266 12.616 29.1826 12.784 29.0626 12.784C28.9906 12.784 28.9426 12.712 28.9426 12.568C28.9426 12.328 29.0626 11.872 29.3746 11.032C30.5746 8.032 33.1666 5.488 36.0706 5.488C36.4306 5.488 36.7666 5.536 37.1026 5.608C40.0786 6.208 40.9906 8.752 40.9906 11.56C40.9906 14.392 40.0786 17.512 39.3346 19.312C35.9746 27.688 28.2946 31 19.9906 31C17.6386 31 15.2146 30.736 12.8386 30.232C12.5506 30.472 11.3986 31.216 10.7746 31.216ZM10.7746 30.832L11.6386 30.424C11.7826 30.352 11.9506 30.256 12.1186 30.136H11.9266C10.9906 30.136 10.7746 30.736 10.7746 30.832ZM34.0546 4.192C35.5186 4.144 39.4306 2.536 39.4306 1.6C39.4306 1.504 39.3826 1.408 39.2866 1.336C39.2386 1.288 39.1426 1.264 39.0226 1.264C37.9426 1.264 34.9426 3.472 34.0546 4.192ZM42.7299 23.344L42.4419 23.296C42.0579 23.176 41.9139 22.888 41.9139 22.528C41.9139 21.592 42.8499 20.104 43.0659 19.432C43.1139 19.264 43.1619 19.072 43.1619 18.928C43.1619 18.76 43.1139 18.64 43.0179 18.568C42.8499 18.472 42.7779 18.328 42.7779 18.16C42.7779 17.584 43.5699 16.696 44.1699 16.696L44.2899 16.72C44.3859 16.744 44.4339 16.792 44.4339 16.888C44.4339 17.248 43.6899 18.064 43.3299 18.28C43.5219 18.448 43.5939 18.688 43.5939 18.952C43.5939 20.056 42.2739 21.736 42.2739 22.504C42.2739 22.72 42.3459 22.84 42.5619 22.912C42.6339 22.936 42.7059 22.936 42.8019 22.936C44.4339 22.936 49.5219 19.264 50.8419 18.352C50.9139 18.304 50.9619 18.304 51.0099 18.304C51.0579 18.304 51.0819 18.304 51.0819 18.352C51.0819 18.376 51.0579 18.448 50.9619 18.496C49.5219 19.504 44.5779 23.344 42.7299 23.344ZM43.2099 18.064C43.5699 17.872 44.0739 17.176 44.0739 17.08C44.0739 17.056 44.0739 17.056 44.0499 17.056C43.7859 17.2 43.2099 17.872 43.2099 18.04V18.064ZM50.9883 22.384C50.7243 22.384 50.4843 22.336 50.2683 22.24C49.7643 22.024 49.5723 21.544 49.5723 20.992C49.5723 20.44 49.7643 19.864 50.0283 19.384C50.9883 17.68 52.1643 17.152 52.9083 17.152C53.3403 17.152 53.6283 17.32 53.6283 17.56C53.6283 18.16 52.5723 19.144 50.6043 19.528C50.2923 20.152 50.1723 20.632 50.1723 20.992C50.1723 21.664 50.5803 21.952 51.1323 21.976H51.2523C53.0523 21.976 56.3163 19.936 58.4763 18.328L58.5963 18.28C58.6443 18.28 58.6923 18.328 58.6923 18.352C58.6923 18.4 58.6683 18.448 58.5963 18.496C56.2683 20.272 52.9083 22.384 50.9883 22.384ZM50.7963 19.168C51.9243 19.072 53.3643 18.184 53.3643 17.728C53.3643 17.68 53.3403 17.632 53.2923 17.584C53.2443 17.536 53.1483 17.488 53.0283 17.488C52.5483 17.488 51.6123 17.944 50.7963 19.168ZM55.2455 25.912C54.5735 25.912 54.0935 25.48 54.0935 24.832C54.0935 24.304 54.4055 23.608 55.1975 22.888C55.8215 22.288 56.7335 21.712 58.0775 21.16C58.2215 20.2 58.1975 18.952 58.5335 18.04C58.8935 17.08 59.7575 16.504 60.2855 16.504C60.4775 16.504 60.6215 16.576 60.6935 16.744L60.7175 16.888C60.7175 17.512 59.2775 18.232 59.0375 18.328C58.8455 19.12 58.8695 19.84 58.7015 20.92C61.3175 20.152 64.6295 19.072 65.5415 18.28C65.5655 18.256 65.5895 18.256 65.6135 18.256C65.6615 18.256 65.6855 18.28 65.6855 18.328L65.6615 18.4C64.3415 19.6 60.4535 20.536 58.6295 21.256C58.0055 24.688 56.3735 25.912 55.2455 25.912ZM59.1095 18.016C59.3735 17.896 60.5015 17.296 60.5015 16.936V16.888C60.4775 16.768 60.4055 16.72 60.3095 16.72C59.9495 16.72 59.2295 17.488 59.1095 18.016ZM55.2455 25.624C56.3015 25.624 57.7655 23.656 58.0295 21.52C57.1895 21.856 56.0375 22.456 55.3415 23.152C54.6695 23.848 54.4295 24.4 54.4295 24.784C54.4295 25.096 54.5495 25.288 54.7415 25.432C54.8855 25.552 55.0535 25.624 55.2455 25.624ZM62.2299 25.912C61.5579 25.912 61.0779 25.48 61.0779 24.832C61.0779 24.304 61.3899 23.608 62.1819 22.888C62.8059 22.288 63.7179 21.712 65.0619 21.16C65.2059 20.2 65.1819 18.952 65.5179 18.04C65.8779 17.08 66.7419 16.504 67.2699 16.504C67.4619 16.504 67.6059 16.576 67.6779 16.744L67.7019 16.888C67.7019 17.512 66.2619 18.232 66.0219 18.328C65.8299 19.12 65.8539 19.84 65.6859 20.92C68.3019 20.152 71.6139 19.072 72.5259 18.28C72.5499 18.256 72.5739 18.256 72.5979 18.256C72.6459 18.256 72.6699 18.28 72.6699 18.328L72.6459 18.4C71.3259 19.6 67.4379 20.536 65.6139 21.256C64.9899 24.688 63.3579 25.912 62.2299 25.912ZM66.0939 18.016C66.3579 17.896 67.4859 17.296 67.4859 16.936V16.888C67.4619 16.768 67.3899 16.72 67.2939 16.72C66.9339 16.72 66.2139 17.488 66.0939 18.016ZM62.2299 25.624C63.2859 25.624 64.7499 23.656 65.0139 21.52C64.1739 21.856 63.0219 22.456 62.3259 23.152C61.6539 23.848 61.4139 24.4 61.4139 24.784C61.4139 25.096 61.5339 25.288 61.7259 25.432C61.8699 25.552 62.0379 25.624 62.2299 25.624ZM82.2796 22.408C82.0156 22.408 81.7756 22.36 81.5596 22.264C81.0316 22.024 80.8156 21.496 80.8156 20.896C80.8156 20.392 80.9836 19.84 81.1996 19.408C82.0876 17.824 83.1196 17.272 83.8396 17.272C84.4156 17.272 84.7996 17.584 84.8236 17.992C84.8236 18.136 84.7516 18.208 84.6796 18.208C84.6076 18.208 84.5596 18.16 84.5356 18.088C84.5116 17.968 84.4636 17.872 84.3916 17.824C84.2716 17.704 84.1276 17.656 83.9596 17.656C83.2876 17.656 82.3516 18.52 81.9196 19.36C81.5356 20.056 81.3916 20.584 81.3916 20.992C81.3916 21.664 81.8476 21.952 82.3996 21.976H82.5196C84.3196 21.976 87.5116 19.936 89.6476 18.328L89.7676 18.28C89.8156 18.28 89.8636 18.328 89.8636 18.376C89.8636 18.4 89.8396 18.448 89.7676 18.496C87.5116 20.272 84.1996 22.408 82.2796 22.408ZM88.5299 22.456C88.3859 22.456 88.2419 22.408 88.1219 22.288C87.9779 22.144 87.9299 21.928 87.9299 21.688C87.9299 21.136 88.2179 20.416 88.4579 19.96C88.7939 19.24 89.2739 18.568 89.7059 18.16C89.4419 17.944 89.3459 17.752 89.3459 17.608C89.3459 17.416 89.5379 17.296 89.7779 17.296C89.9939 17.296 90.2579 17.392 90.4259 17.632C91.0499 18.448 90.3779 18.256 91.2659 18.712C91.7939 18.976 92.4659 19.072 93.1379 19.072C94.4099 19.072 95.7779 18.712 96.6179 18.304L96.7139 18.28C96.7619 18.28 96.8099 18.304 96.8099 18.352C96.8099 18.376 96.7619 18.424 96.6899 18.472C95.7299 18.928 94.3619 19.336 93.0179 19.336C92.2499 19.336 91.5059 19.192 90.8339 18.856V18.88C90.8339 20.416 89.4659 22.456 88.5299 22.456ZM90.1619 17.968L89.8499 17.704C89.9219 17.8 90.0179 17.872 90.1619 17.968ZM88.6739 22.096C89.3459 22.096 90.4499 20.104 90.4499 18.976L90.4019 18.64L90.2099 18.52C88.9379 19.792 88.4579 21.28 88.4579 21.832C88.4579 21.952 88.4819 22.024 88.5059 22.048C88.5539 22.072 88.6019 22.096 88.6739 22.096ZM100.363 23.848C99.7629 23.848 99.1629 23.464 99.1629 22.336C99.1629 21.688 99.3789 20.8 99.9549 19.696C98.2029 21.04 96.9789 21.544 96.2589 21.544C95.5869 21.544 95.2989 21.16 95.2989 20.608C95.2989 19.24 97.1469 17.08 99.1869 17.08C99.9309 17.08 100.555 17.416 100.699 18.328C101.755 16.24 109.051 6.088 111.259 6.088C111.523 6.088 111.739 6.208 111.739 6.568C111.739 7.504 110.347 9.976 107.011 13.408C105.043 15.424 103.051 17.44 100.987 18.976C100.051 20.656 99.7389 21.808 99.7389 22.528C99.7389 23.296 100.075 23.536 100.483 23.536C102.331 23.536 107.107 19.072 109.051 18.28L109.123 18.256C109.219 18.256 109.243 18.328 109.243 18.376C109.243 18.424 109.219 18.472 109.171 18.496C106.939 19.456 102.595 23.848 100.363 23.848ZM96.3789 21.16C97.1469 21.16 98.7549 20.272 100.339 18.928V18.784C100.339 17.872 99.8829 17.56 99.3069 17.56C98.6589 17.56 97.8669 17.944 97.3629 18.424C96.6429 19.072 96.0189 20.272 96.0189 20.848C96.0189 20.992 96.0669 21.112 96.1869 21.136L96.3789 21.16ZM101.419 18.184C102.739 17.176 106.147 14.032 108.619 11.176C110.299 9.184 111.475 7.264 111.475 6.568C111.475 6.424 111.451 6.328 111.307 6.328C111.067 6.328 110.515 6.736 109.843 7.384C107.323 9.856 102.955 15.832 101.419 18.184ZM109.16 22.384C108.896 22.384 108.656 22.336 108.44 22.24C107.936 22.024 107.744 21.544 107.744 20.992C107.744 20.44 107.936 19.864 108.2 19.384C109.16 17.68 110.336 17.152 111.08 17.152C111.512 17.152 111.8 17.32 111.8 17.56C111.8 18.16 110.744 19.144 108.776 19.528C108.464 20.152 108.344 20.632 108.344 20.992C108.344 21.664 108.752 21.952 109.304 21.976H109.424C111.224 21.976 114.488 19.936 116.648 18.328L116.768 18.28C116.816 18.28 116.864 18.328 116.864 18.352C116.864 18.4 116.84 18.448 116.768 18.496C114.44 20.272 111.08 22.384 109.16 22.384ZM108.968 19.168C110.096 19.072 111.536 18.184 111.536 17.728C111.536 17.68 111.512 17.632 111.464 17.584C111.416 17.536 111.32 17.488 111.2 17.488C110.72 17.488 109.784 17.944 108.968 19.168Z" fill="#8B9B68"/>
<path d="M10.3906 30.952H9.89063V31.0136L9.90555 31.0733L10.3906 30.952ZM12.0226 29.704L12.0641 29.2057L12.0434 29.204H12.0226V29.704ZM12.5986 29.752L12.5571 30.2503L12.7472 30.2661L12.8996 30.1513L12.5986 29.752ZM32.0866 4.912L32.4198 5.28479L33.6609 4.17548L32.014 4.4173L32.0866 4.912ZM1.65463 12.208L2.07065 12.4853L2.08409 12.4652L2.09552 12.4438L1.65463 12.208ZM1.41463 12.088L0.973988 11.8517L0.970608 11.858L0.96741 11.8644L1.41463 12.088ZM32.5666 4.432L32.6479 4.92535L32.7813 4.90338L32.8854 4.8172L32.5666 4.432ZM39.5506 1.024L39.88 0.647601L39.8707 0.639889L39.5506 1.024ZM35.3986 4.288L35.2801 3.8021L35.2686 3.80519L35.3986 4.288ZM33.4546 4.72L33.3697 4.22727L33.2346 4.25056L33.1302 4.3395L33.4546 4.72ZM13.3426 29.896L13.0318 29.5044L12.197 30.167L13.2402 30.3854L13.3426 29.896ZM38.5666 18.952L38.1064 18.7565L38.1046 18.7608L38.5666 18.952ZM37.0306 5.992L37.1137 5.49895L37.1128 5.4988L37.0306 5.992ZM29.3266 12.592L28.8412 12.4723L28.8266 12.5313V12.592H29.3266ZM29.3746 11.032L28.9102 10.8462L28.9059 10.8579L29.3746 11.032ZM37.1026 5.608L36.9979 6.09694L37.0038 6.09814L37.1026 5.608ZM39.3346 19.312L38.8725 19.121L38.8706 19.1258L39.3346 19.312ZM12.8386 30.232L12.9424 29.7429L12.705 29.6925L12.5185 29.8479L12.8386 30.232ZM10.7746 30.832H10.2746V31.6211L10.9881 31.2841L10.7746 30.832ZM11.6386 30.424L11.8522 30.8762L11.8622 30.8712L11.6386 30.424ZM12.1186 30.136L12.4092 30.5429L13.6789 29.636H12.1186V30.136ZM34.0546 4.192L33.7397 3.80362L32.5843 4.74048L34.071 4.69173L34.0546 4.192ZM39.2866 1.336L38.9331 1.68956L38.9582 1.71468L38.9866 1.736L39.2866 1.336ZM10.7746 31.216V30.716C10.735 30.716 10.7555 30.7077 10.7971 30.7342C10.8195 30.7484 10.8401 30.768 10.8556 30.7906C10.8706 30.8123 10.8751 30.8284 10.8757 30.8307L10.3906 30.952L9.90555 31.0733C9.95681 31.2783 10.0736 31.4591 10.2602 31.5778C10.4338 31.6883 10.6222 31.716 10.7746 31.716V31.216ZM10.3906 30.952H10.8906V30.832H10.3906H9.89063V30.952H10.3906ZM10.3906 30.832H10.8906C10.8906 30.7859 10.9207 30.6345 11.0675 30.4931C11.203 30.3626 11.4777 30.204 12.0226 30.204V29.704V29.204C11.2715 29.204 10.7302 29.4294 10.3737 29.7729C10.0285 30.1055 9.89063 30.5181 9.89063 30.832H10.3906ZM12.0226 29.704L11.9811 30.2023L12.5571 30.2503L12.5986 29.752L12.6401 29.2537L12.0641 29.2057L12.0226 29.704ZM12.5986 29.752L12.8996 30.1513C16.978 27.0771 20.1421 22.3556 23.1325 17.6919C26.1469 12.9908 28.9793 8.36003 32.4198 5.28479L32.0866 4.912L31.7534 4.53921C28.1859 7.72797 25.2703 12.5052 22.2907 17.1521C19.2871 21.8364 16.2112 26.4029 12.2977 29.3527L12.5986 29.752ZM32.0866 4.912L32.014 4.4173C29.669 4.76163 26.8462 4.93908 23.8448 5.12432C20.8529 5.30898 17.6909 5.50106 14.7022 5.87691C11.7164 6.2524 8.87311 6.81463 6.52155 7.75164C4.17201 8.68784 2.25756 10.0207 1.21373 11.9722L1.65463 12.208L2.09552 12.4438C2.98369 10.7833 4.65424 9.57216 6.89171 8.68061C9.12714 7.78987 11.8729 7.24059 14.827 6.86909C17.7784 6.49794 20.9074 6.30752 23.9064 6.12242C26.896 5.93792 29.7642 5.75837 32.1593 5.4067L32.0866 4.912ZM1.65463 12.208L1.2386 11.9306C1.24848 11.9158 1.26204 11.9007 1.28389 11.8854C1.29526 11.8774 1.31463 11.8654 1.34279 11.8543C1.36878 11.844 1.41878 11.828 1.48663 11.828V12.328V12.828C1.657 12.828 1.78824 12.753 1.85736 12.7046C1.93921 12.6473 2.01277 12.5722 2.07065 12.4853L1.65463 12.208ZM1.48663 12.328V11.828C1.78431 11.828 1.89062 12.079 1.89062 12.208H1.39062H0.890625C0.890625 12.481 1.09294 12.828 1.48663 12.828V12.328ZM1.39062 12.208H1.89062C1.89062 12.1977 1.89104 12.2106 1.8886 12.2277C1.88605 12.2456 1.8796 12.2761 1.86184 12.3116L1.41463 12.088L0.96741 11.8644C0.886431 12.0264 0.890625 12.1796 0.890625 12.208H1.39062ZM1.41463 12.088L1.85526 12.3243C2.79541 10.5712 4.60756 9.28691 7.01843 8.33988C9.42477 7.39464 12.3653 6.81002 15.4696 6.41602C18.571 6.02238 21.8067 5.82222 24.8009 5.63452C27.783 5.44758 30.5415 5.27235 32.6479 4.92535L32.5666 4.432L32.4854 3.93865C30.4397 4.27565 27.7383 4.44842 24.7383 4.63648C21.7506 4.82378 18.4823 5.02562 15.3437 5.42398C12.2079 5.82198 9.17248 6.41936 6.65282 7.40912C4.13769 8.39709 2.07384 9.80079 0.973988 11.8517L1.41463 12.088ZM32.5666 4.432L32.8854 4.8172C33.2194 4.54079 34.3669 3.65315 35.6438 2.83735C36.2822 2.42952 36.9425 2.04633 37.5431 1.76681C38.1604 1.47954 38.6523 1.332 38.9746 1.332V0.831998V0.331998C38.4209 0.331998 37.7609 0.562453 37.1212 0.860186C36.4648 1.16567 35.7631 1.57448 35.1054 1.99465C33.7903 2.83484 32.6098 3.74721 32.2478 4.0468L32.5666 4.432ZM38.9746 0.831998V1.332C39.1095 1.332 39.1851 1.37021 39.2305 1.40811L39.5506 1.024L39.8707 0.639889C39.6282 0.437787 39.3198 0.331998 38.9746 0.331998V0.831998ZM39.5506 1.024L39.2214 1.40029C39.2689 1.44187 39.291 1.47682 39.3015 1.49944C39.3122 1.52235 39.3146 1.54007 39.3146 1.552H39.8146H40.3146C40.3146 1.23212 40.1745 0.905463 39.8799 0.64771L39.5506 1.024ZM39.8146 1.552H39.3146C39.3146 1.62992 39.2476 1.81104 38.9337 2.08591C38.641 2.3421 38.2224 2.60153 37.7482 2.84371C36.8005 3.32773 35.7329 3.69181 35.2801 3.80224L35.3986 4.288L35.5171 4.77376C36.0483 4.64419 37.1888 4.25227 38.203 3.73429C38.7098 3.47547 39.2107 3.1724 39.5923 2.83833C39.9526 2.52296 40.3146 2.08608 40.3146 1.552H39.8146ZM35.3986 4.288L35.2686 3.80519C34.657 3.96988 34.0481 4.11029 33.3697 4.22727L33.4546 4.72L33.5396 5.21273C34.2531 5.08971 34.8923 4.94212 35.5286 4.77081L35.3986 4.288ZM33.4546 4.72L33.1302 4.3395C28.9953 7.86461 26.0519 12.5414 23.1131 17.1095C20.1585 21.7023 17.2052 26.1915 13.0318 29.5044L13.3426 29.896L13.6535 30.2876C17.976 26.8565 21.0108 22.2257 23.9541 17.6505C26.9134 13.0506 29.778 8.51138 33.779 5.1005L33.4546 4.72ZM13.3426 29.896L13.2402 30.3854C15.3359 30.824 17.4103 31.044 19.4146 31.044V30.544V30.044C17.483 30.044 15.4773 29.832 13.4451 29.4066L13.3426 29.896ZM19.4146 30.544V31.044C28.037 31.044 35.7652 27.0298 39.0286 19.1432L38.5666 18.952L38.1046 18.7608C35.032 26.1862 27.7362 30.044 19.4146 30.044V30.544ZM38.5666 18.952L39.0268 19.1475C40.1996 16.3867 40.7706 13.728 40.7706 11.488H40.2706H39.7706C39.7706 13.568 39.2377 16.0933 38.1064 18.7565L38.5666 18.952ZM40.2706 11.488H40.7706C40.7706 9.93416 40.4858 8.55623 39.8862 7.50267C39.2783 6.43467 38.3476 5.70691 37.1137 5.49895L37.0306 5.992L36.9475 6.48505C37.8496 6.63708 38.539 7.15733 39.0171 7.99733C39.5034 8.85177 39.7706 10.0418 39.7706 11.488H40.2706ZM37.0306 5.992L37.1128 5.4988C36.7959 5.44598 36.4563 5.42 36.1426 5.42V5.92V6.42C36.405 6.42 36.6894 6.44202 36.9484 6.4852L37.0306 5.992ZM36.1426 5.92V5.42C33.838 5.42 32.1124 6.78078 30.9361 8.29186C29.7602 9.80242 29.072 11.5361 28.8412 12.4723L29.3266 12.592L29.8121 12.7117C30.0133 11.8959 30.6451 10.2936 31.7252 8.90614C32.8048 7.51921 34.2713 6.42 36.1426 6.42V5.92ZM29.3266 12.592H28.8266C28.8266 12.5342 28.8368 12.489 28.8435 12.4642C28.8508 12.4372 28.8591 12.4161 28.8649 12.4024C28.8762 12.3758 28.8873 12.3568 28.8925 12.3482C28.9034 12.3301 28.9117 12.32 28.9126 12.3188C28.9155 12.3152 28.9136 12.3179 28.9088 12.3221C28.9034 12.3268 28.9063 12.323 28.9201 12.3157C28.9298 12.3106 28.9809 12.284 29.0626 12.284V12.784V13.284C29.2043 13.284 29.3185 13.2364 29.3889 13.199C29.4634 13.1595 29.5248 13.1121 29.5704 13.0719C29.6167 13.0311 29.6582 12.9873 29.6919 12.9454C29.7082 12.9252 29.7286 12.898 29.7479 12.8661C29.7573 12.8506 29.7716 12.8256 29.7851 12.7938C29.7932 12.7748 29.8266 12.6969 29.8266 12.592H29.3266ZM29.0626 12.784V12.284C29.1314 12.284 29.2066 12.3023 29.2756 12.3447C29.3425 12.3859 29.3839 12.4376 29.4075 12.4781C29.4493 12.5497 29.4426 12.5963 29.4426 12.568H28.9426H28.4426C28.4426 12.6837 28.4599 12.8383 28.5437 12.9819C28.6423 13.1509 28.8261 13.284 29.0626 13.284V12.784ZM28.9426 12.568H29.4426C29.4426 12.5174 29.4576 12.3962 29.5235 12.1585C29.5871 11.929 29.6897 11.6199 29.8433 11.2061L29.3746 11.032L28.9059 10.8579C28.7476 11.2841 28.6342 11.623 28.5598 11.8915C28.4876 12.1518 28.4426 12.3786 28.4426 12.568H28.9426ZM29.3746 11.032L29.8389 11.2177C31.0024 8.30896 33.4598 5.988 36.0706 5.988V5.488V4.988C32.8735 4.988 30.1469 7.75504 28.9104 10.8463L29.3746 11.032ZM36.0706 5.488V5.988C36.3851 5.988 36.6845 6.02976 36.9979 6.0969L37.1026 5.608L37.2074 5.1191C36.8487 5.04224 36.4761 4.988 36.0706 4.988V5.488ZM37.1026 5.608L37.0038 6.09814C38.3486 6.36926 39.1982 7.06549 39.7273 8.00195C40.2683 8.95957 40.4906 10.2007 40.4906 11.56H40.9906H41.4906C41.4906 10.1113 41.2569 8.67643 40.598 7.51005C39.927 6.32251 38.8327 5.44674 37.2014 5.11786L37.1026 5.608ZM40.9906 11.56H40.4906C40.4906 14.3042 39.6017 17.3569 38.8725 19.121L39.3346 19.312L39.7967 19.503C40.5556 17.6671 41.4906 14.4798 41.4906 11.56H40.9906ZM39.3346 19.312L38.8706 19.1258C35.6112 27.2509 28.1656 30.5 19.9906 30.5V31V31.5C28.4236 31.5 36.338 28.1251 39.7987 19.4982L39.3346 19.312ZM19.9906 31V30.5C17.6754 30.5 15.2862 30.24 12.9424 29.7429L12.8386 30.232L12.7349 30.7211C15.1431 31.232 17.6019 31.5 19.9906 31.5V31ZM12.8386 30.232L12.5185 29.8479C12.4074 29.9405 12.0776 30.1685 11.696 30.3736C11.508 30.4745 11.3188 30.5638 11.1476 30.6266C10.9686 30.6923 10.8442 30.716 10.7746 30.716V31.216V31.716C11.0171 31.716 11.2706 31.6467 11.4922 31.5654C11.7214 31.4812 11.9552 31.3695 12.1693 31.2544C12.5916 31.0275 12.9819 30.7635 13.1587 30.6161L12.8386 30.232ZM10.7746 30.832L10.9881 31.2841L11.8521 30.8761L11.6386 30.424L11.4251 29.9719L10.5611 30.3799L10.7746 30.832ZM11.6386 30.424L11.8622 30.8712C12.0252 30.7897 12.2164 30.6806 12.4092 30.5429L12.1186 30.136L11.828 29.7291C11.6849 29.8314 11.54 29.9143 11.415 29.9768L11.6386 30.424ZM12.1186 30.136V29.636H11.9266V30.136V30.636H12.1186V30.136ZM11.9266 30.136V29.636C11.3423 29.636 10.9277 29.8274 10.6558 30.085C10.5245 30.2093 10.4345 30.3416 10.3758 30.4591C10.3275 30.5556 10.2746 30.6937 10.2746 30.832H10.7746H11.2746C11.2746 30.8676 11.2702 30.8924 11.2687 30.9004C11.2667 30.9112 11.2649 30.9175 11.2644 30.9192C11.2633 30.9225 11.2646 30.9176 11.2702 30.9064C11.2812 30.8844 11.3037 30.8487 11.3435 30.811C11.4135 30.7446 11.575 30.636 11.9266 30.636V30.136ZM34.0546 4.192L34.071 4.69173C34.5024 4.67759 35.0708 4.55316 35.6562 4.37721C36.2507 4.19849 36.8977 3.95588 37.4976 3.68458C38.0942 3.41483 38.6626 3.10846 39.0904 2.79761C39.3033 2.64291 39.4988 2.47463 39.646 2.2956C39.7859 2.12537 39.9306 1.8865 39.9306 1.6H39.4306H38.9306C38.9306 1.5475 38.9531 1.56363 38.8734 1.66068C38.8009 1.74893 38.6793 1.86021 38.5026 1.98864C38.1511 2.24403 37.6501 2.51817 37.0856 2.77341C36.5246 3.02712 35.919 3.254 35.3683 3.41954C34.8084 3.58783 34.3388 3.68241 34.0382 3.69227L34.0546 4.192ZM39.4306 1.6H39.9306C39.9306 1.32753 39.7924 1.09036 39.5866 0.936001L39.2866 1.336L38.9866 1.736C38.981 1.73181 38.9667 1.71913 38.9534 1.69429C38.94 1.66916 38.9306 1.63661 38.9306 1.6H39.4306ZM39.2866 1.336L39.6402 0.982435C39.5315 0.873766 39.4033 0.823646 39.3105 0.798881C39.2125 0.772756 39.1131 0.763999 39.0226 0.763999V1.264V1.764C39.0521 1.764 39.0608 1.76724 39.0528 1.76512C39.0481 1.76386 39.0342 1.75979 39.0146 1.7498C38.9951 1.73986 38.9649 1.72141 38.9331 1.68956L39.2866 1.336ZM39.0226 1.264V0.763999C38.6263 0.763999 38.144 0.952323 37.6963 1.17095C37.2243 1.40137 36.7018 1.71151 36.1957 2.03774C35.183 2.69055 34.1963 3.43342 33.7397 3.80362L34.0546 4.192L34.3695 4.58038C34.8009 4.23058 35.7583 3.50944 36.7375 2.87826C37.2274 2.56249 37.7129 2.27563 38.135 2.06955C38.5812 1.85168 38.8789 1.764 39.0226 1.764V1.264ZM42.7299 23.344L42.6477 23.8372L42.6885 23.844H42.7299V23.344ZM42.4419 23.296L42.2927 23.7732L42.3257 23.7835L42.3597 23.7892L42.4419 23.296ZM43.0659 19.432L43.5419 19.585L43.5444 19.5772L43.5466 19.5694L43.0659 19.432ZM43.0179 18.568L43.3179 18.168L43.293 18.1493L43.2659 18.1339L43.0179 18.568ZM44.1699 16.696L44.2679 16.2057L44.2194 16.196H44.1699V16.696ZM44.2899 16.72L44.4111 16.2349L44.3996 16.232L44.3879 16.2297L44.2899 16.72ZM43.3299 18.28L43.0726 17.8513L42.4841 18.2044L43.0006 18.6563L43.3299 18.28ZM42.5619 22.912L42.72 22.4377L42.72 22.4377L42.5619 22.912ZM50.8419 18.352L50.5645 17.9359L50.5577 17.9406L50.8419 18.352ZM50.9619 18.496L50.7383 18.0488L50.7053 18.0653L50.6751 18.0864L50.9619 18.496ZM43.2099 18.064H42.7099V18.8973L43.4452 18.5052L43.2099 18.064ZM44.0499 17.056V16.556H43.9224L43.8104 16.6171L44.0499 17.056ZM42.7299 23.344L42.8121 22.8508L42.5241 22.8028L42.4419 23.296L42.3597 23.7892L42.6477 23.8372L42.7299 23.344ZM42.4419 23.296L42.591 22.8188C42.4973 22.7895 42.4686 22.7539 42.4557 22.7336C42.4375 22.705 42.4139 22.6448 42.4139 22.528H41.9139H41.4139C41.4139 22.7712 41.4622 23.035 41.612 23.2704C41.7671 23.5141 42.0025 23.6825 42.2927 23.7732L42.4419 23.296ZM41.9139 22.528H42.4139C42.4139 22.1836 42.5981 21.6718 42.8639 21.0883C42.9924 20.8062 43.1238 20.5401 43.2464 20.2822C43.3628 20.0371 43.4762 19.7893 43.5419 19.585L43.0659 19.432L42.5899 19.279C42.5475 19.4107 42.4629 19.6009 42.3431 19.8531C42.2294 20.0924 42.0864 20.3828 41.9539 20.6737C41.6976 21.2362 41.4139 21.9364 41.4139 22.528H41.9139ZM43.0659 19.432L43.5466 19.5694C43.5926 19.4084 43.6619 19.152 43.6619 18.928H43.1619H42.6619C42.6619 18.992 42.6351 19.1196 42.5851 19.2946L43.0659 19.432ZM43.1619 18.928H43.6619C43.6619 18.6697 43.5852 18.3685 43.3179 18.168L43.0179 18.568L42.7179 18.968C42.704 18.9576 42.6913 18.9449 42.6809 18.931C42.6706 18.9173 42.6647 18.9053 42.6616 18.8977C42.6561 18.8838 42.6619 18.8895 42.6619 18.928H43.1619ZM43.0179 18.568L43.2659 18.1339C43.2575 18.129 43.2561 18.127 43.2586 18.1294C43.2613 18.1321 43.2658 18.1373 43.2702 18.145C43.2744 18.1525 43.2767 18.1592 43.2776 18.1632C43.2785 18.1669 43.2779 18.1663 43.2779 18.16H42.7779H42.2779C42.2779 18.4986 42.4385 18.8128 42.7698 19.0021L43.0179 18.568ZM42.7779 18.16H43.2779C43.2779 18.1225 43.2936 18.0388 43.3566 17.9151C43.4168 17.7969 43.5065 17.6694 43.6153 17.5522C43.7243 17.4348 43.8418 17.3392 43.9506 17.276C44.0637 17.2102 44.1381 17.196 44.1699 17.196V16.696V16.196C43.9017 16.196 43.652 16.2928 43.4479 16.4115C43.2394 16.5328 43.0464 16.6952 42.8825 16.8718C42.7183 17.0486 42.5725 17.2511 42.4654 17.4614C42.3611 17.6662 42.2779 17.9095 42.2779 18.16H42.7779ZM44.1699 16.696L44.0718 17.1863L44.1918 17.2103L44.2899 16.72L44.3879 16.2297L44.2679 16.2057L44.1699 16.696ZM44.2899 16.72L44.1686 17.2051C44.1671 17.2047 44.0937 17.1874 44.0242 17.1092C43.9456 17.0208 43.9339 16.9263 43.9339 16.888H44.4339H44.9339C44.9339 16.7537 44.8981 16.5872 44.7716 16.4448C44.654 16.3126 44.5087 16.2593 44.4111 16.2349L44.2899 16.72ZM44.4339 16.888H43.9339C43.9339 16.8382 43.9471 16.8591 43.879 16.9769C43.8226 17.0746 43.7373 17.193 43.6334 17.3171C43.4164 17.5764 43.1825 17.7853 43.0726 17.8513L43.3299 18.28L43.5871 18.7087C43.8372 18.5587 44.1554 18.2516 44.4003 17.9589C44.5275 17.807 44.6506 17.6404 44.745 17.4771C44.8277 17.3339 44.9339 17.1178 44.9339 16.888H44.4339ZM43.3299 18.28L43.0006 18.6563C43.0472 18.697 43.0939 18.7745 43.0939 18.952H43.5939H44.0939C44.0939 18.6015 43.9966 18.199 43.6591 17.9037L43.3299 18.28ZM43.5939 18.952H43.0939C43.0939 19.1381 43.036 19.3833 42.9204 19.6867C42.8067 19.9851 42.6522 20.3023 42.4875 20.6288C42.3276 20.9455 42.153 21.2806 42.0221 21.5798C41.8975 21.8644 41.7739 22.198 41.7739 22.504H42.2739H42.7739C42.7739 22.426 42.8152 22.2616 42.9382 21.9807C43.0547 21.7144 43.2101 21.4165 43.3803 21.0792C43.5456 20.7517 43.721 20.3939 43.8549 20.0428C43.9867 19.6967 44.0939 19.3179 44.0939 18.952H43.5939ZM42.2739 22.504H41.7739C41.7739 22.661 41.7988 22.8604 41.9238 23.0437C42.0517 23.2314 42.2348 23.33 42.4038 23.3863L42.5619 22.912L42.72 22.4377C42.6964 22.4298 42.6942 22.4263 42.7031 22.4322C42.7141 22.4395 42.7328 22.4552 42.75 22.4803C42.7668 22.505 42.7732 22.5259 42.775 22.5335C42.7763 22.539 42.7739 22.5317 42.7739 22.504H42.2739ZM42.5619 22.912L42.4038 23.3863C42.5666 23.4406 42.7236 23.436 42.8019 23.436V22.936V22.436C42.7769 22.436 42.759 22.436 42.7428 22.4357C42.7271 22.4354 42.7175 22.435 42.7112 22.4345C42.7003 22.4336 42.7068 22.4333 42.72 22.4377L42.5619 22.912ZM42.8019 22.936V23.436C43.0873 23.436 43.4063 23.3584 43.724 23.2494C44.049 23.1379 44.4074 22.9812 44.7821 22.7965C45.5316 22.4269 46.3784 21.9291 47.2051 21.4093C48.8581 20.3697 50.4749 19.2133 51.1261 18.7634L50.8419 18.352L50.5577 17.9406C49.8889 18.4027 48.3016 19.5383 46.6727 20.5627C45.8583 21.0749 45.0447 21.5521 44.3399 21.8995C43.9874 22.0733 43.6703 22.2106 43.3995 22.3035C43.1214 22.3989 42.9245 22.436 42.8019 22.436V22.936ZM50.8419 18.352L51.1192 18.768C51.1158 18.7703 51.1069 18.7759 51.0927 18.7821C51.0781 18.7885 51.0614 18.7941 51.0433 18.7981C51.0099 18.8055 50.9824 18.804 51.0099 18.804V18.304V17.804C50.9894 17.804 50.9139 17.8025 50.8264 17.8219C50.7325 17.8428 50.6459 17.8817 50.5645 17.936L50.8419 18.352ZM51.0099 18.304V18.804C51.0283 18.804 51.0159 18.8044 50.9999 18.803C50.9854 18.8018 50.9185 18.7963 50.8403 18.7572C50.744 18.7091 50.6652 18.628 50.6205 18.5273C50.5834 18.444 50.5819 18.3742 50.5819 18.352H51.0819H51.5819C51.5819 18.3058 51.5773 18.218 51.5343 18.1212C51.4835 18.007 51.3957 17.9169 51.2875 17.8628C51.1973 17.8177 51.1153 17.8092 51.0829 17.8065C51.0488 17.8036 51.0154 17.804 51.0099 17.804V18.304ZM51.0819 18.352H50.5819C50.5819 18.2868 50.5956 18.2392 50.6039 18.2149C50.6142 18.185 50.6274 18.1594 50.6418 18.1377C50.6725 18.0917 50.7091 18.0634 50.7383 18.0488L50.9619 18.496L51.1855 18.9432C51.4261 18.8229 51.5819 18.5916 51.5819 18.352H51.0819ZM50.9619 18.496L50.6751 18.0864C49.9273 18.6099 48.3672 19.7968 46.7236 20.8806C45.907 21.4191 45.0891 21.9186 44.3683 22.2817C43.6232 22.657 43.0621 22.844 42.7299 22.844V23.344V23.844C43.3217 23.844 44.0715 23.551 44.8182 23.1748C45.5891 22.7864 46.4438 22.2629 47.2741 21.7154C48.9245 20.6272 50.5564 19.3901 51.2486 18.9056L50.9619 18.496ZM43.2099 18.064L43.4452 18.5052C43.7205 18.3583 43.9899 18.0662 44.1646 17.8517C44.2596 17.735 44.345 17.6183 44.4093 17.5188C44.441 17.4699 44.4722 17.4179 44.4976 17.3679C44.51 17.3433 44.5251 17.3113 44.5382 17.2753C44.5471 17.2507 44.5739 17.1755 44.5739 17.08H44.0739H43.5739C43.5739 16.9965 43.5967 16.938 43.5981 16.9343C43.6036 16.9191 43.6075 16.9121 43.6055 16.916C43.6019 16.9232 43.5909 16.9429 43.5697 16.9757C43.5283 17.0397 43.4651 17.127 43.3892 17.2203C43.3133 17.3135 43.2305 17.4054 43.1509 17.4817C43.0668 17.5622 43.006 17.606 42.9746 17.6228L43.2099 18.064ZM44.0739 17.08H44.5739C44.5739 17.0785 44.5739 17.0703 44.5737 17.0619C44.5736 17.0539 44.5731 17.0346 44.5704 17.0109C44.5667 16.977 44.5498 16.8309 44.4244 16.7054C44.299 16.58 44.1529 16.5632 44.119 16.5594C44.0953 16.5568 44.076 16.5563 44.068 16.5562C44.0595 16.556 44.0514 16.556 44.0499 16.556V17.056V17.556C44.0681 17.556 44.0394 17.5567 44.0085 17.5533C43.9814 17.5503 43.8397 17.535 43.7173 17.4125C43.5949 17.2901 43.5796 17.1485 43.5766 17.1213C43.5731 17.0905 43.5739 17.0618 43.5739 17.08H44.0739ZM44.0499 17.056L43.8104 16.6171C43.686 16.6849 43.5625 16.7905 43.4643 16.883C43.3582 16.983 43.2491 17.0991 43.1509 17.2141C43.0534 17.3281 42.9589 17.4498 42.8855 17.562C42.8493 17.6174 42.8122 17.6796 42.7823 17.7433C42.7601 17.7909 42.7099 17.9035 42.7099 18.04H43.2099H43.7099C43.7099 18.1345 43.6777 18.1893 43.688 18.1674C43.6906 18.1617 43.7006 18.1427 43.7225 18.1093C43.7654 18.0437 43.8314 17.9569 43.9109 17.8639C43.9896 17.7719 44.074 17.6825 44.1502 17.6108C44.1881 17.575 44.2213 17.5462 44.2484 17.5247C44.2774 17.5017 44.2906 17.4942 44.2893 17.4949L44.0499 17.056ZM43.2099 18.04H42.7099V18.064H43.2099H43.7099V18.04H43.2099ZM50.2683 22.24L50.4714 21.7831L50.4653 21.7804L50.2683 22.24ZM50.0283 19.384L49.5927 19.1386L49.5902 19.143L50.0283 19.384ZM50.6043 19.528L50.5086 19.0373L50.2671 19.0844L50.1571 19.3044L50.6043 19.528ZM51.1323 21.976L51.1106 22.4755L51.1214 22.476H51.1323V21.976ZM58.4763 18.328L58.2906 17.8638L58.2301 17.888L58.1777 17.9269L58.4763 18.328ZM58.5963 18.28V17.78H58.5L58.4106 17.8158L58.5963 18.28ZM58.5963 18.496L58.319 18.08L58.3057 18.0888L58.293 18.0985L58.5963 18.496ZM50.7963 19.168L50.3803 18.8906L49.8046 19.7542L50.8387 19.6662L50.7963 19.168ZM53.2923 17.584L53.6459 17.2304L53.6459 17.2304L53.2923 17.584ZM50.9883 22.384V21.884C50.7861 21.884 50.6164 21.8475 50.4714 21.7831L50.2683 22.24L50.0652 22.6969C50.3523 22.8245 50.6626 22.884 50.9883 22.884V22.384ZM50.2683 22.24L50.4653 21.7804C50.2179 21.6744 50.0723 21.4374 50.0723 20.992H49.5723H49.0723C49.0723 21.6506 49.3107 22.3736 50.0714 22.6996L50.2683 22.24ZM49.5723 20.992H50.0723C50.0723 20.5479 50.2299 20.0551 50.4664 19.625L50.0283 19.384L49.5902 19.143C49.2988 19.6729 49.0723 20.3321 49.0723 20.992H49.5723ZM50.0283 19.384L50.4639 19.6294C51.3628 18.0339 52.3947 17.652 52.9083 17.652V17.152V16.652C51.934 16.652 50.6138 17.3261 49.5927 19.1386L50.0283 19.384ZM52.9083 17.152V17.652C53.0677 17.652 53.1544 17.6842 53.1822 17.7001C53.194 17.7068 53.181 17.7024 53.1634 17.6767C53.1434 17.6473 53.1283 17.6054 53.1283 17.56H53.6283H54.1283C54.1283 17.2082 53.9086 16.9634 53.6784 16.8319C53.4542 16.7038 53.1809 16.652 52.9083 16.652V17.152ZM53.6283 17.56H53.1283C53.1283 17.5692 53.1204 17.6428 53.025 17.777C52.9338 17.9054 52.7829 18.0595 52.5612 18.2199C52.119 18.5399 51.4331 18.8569 50.5086 19.0373L50.6043 19.528L50.7001 20.0187C51.7436 19.8151 52.5697 19.4481 53.1474 19.0301C53.4357 18.8215 53.6718 18.5931 53.8402 18.3562C54.0043 18.1252 54.1283 17.8508 54.1283 17.56H53.6283ZM50.6043 19.528L50.1571 19.3044C49.8254 19.9677 49.6723 20.5266 49.6723 20.992H50.1723H50.6723C50.6723 20.7374 50.7592 20.3363 51.0515 19.7516L50.6043 19.528ZM50.1723 20.992H49.6723C49.6723 21.4336 49.81 21.819 50.1048 22.0932C50.3903 22.3586 50.7595 22.4603 51.1106 22.4755L51.1323 21.976L51.154 21.4765C50.9531 21.4677 50.8424 21.4134 50.7858 21.3608C50.7386 21.317 50.6723 21.2224 50.6723 20.992H50.1723ZM51.1323 21.976V22.476H51.2523V21.976V21.476H51.1323V21.976ZM51.2523 21.976V22.476C51.7865 22.476 52.3912 22.327 53.0081 22.1018C53.6313 21.8744 54.2987 21.5573 54.9677 21.1945C56.3056 20.4689 57.6821 19.5426 58.7749 18.7291L58.4763 18.328L58.1777 17.9269C57.1105 18.7214 55.775 19.6191 54.4909 20.3155C53.8489 20.6637 53.2278 20.9571 52.6653 21.1624C52.0965 21.37 51.6182 21.476 51.2523 21.476V21.976ZM58.4763 18.328L58.662 18.7922L58.782 18.7442L58.5963 18.28L58.4106 17.8158L58.2906 17.8638L58.4763 18.328ZM58.5963 18.28V18.78C58.4634 18.78 58.3777 18.7207 58.3422 18.6911C58.3199 18.6725 58.2932 18.6458 58.268 18.608C58.2523 18.5843 58.1923 18.4917 58.1923 18.352H58.6923H59.1923C59.1923 18.2003 59.1263 18.0927 59.1001 18.0533C59.0644 17.9997 59.0227 17.9565 58.9824 17.9229C58.9109 17.8633 58.7772 17.78 58.5963 17.78V18.28ZM58.6923 18.352H58.1923C58.1923 18.2859 58.2108 18.2175 58.2473 18.159C58.28 18.1066 58.3142 18.0832 58.319 18.08L58.5963 18.496L58.8737 18.912C59.0399 18.8012 59.1923 18.6148 59.1923 18.352H58.6923ZM58.5963 18.496L58.293 18.0985C57.1426 18.9761 55.7421 19.9328 54.3993 20.6673C53.0314 21.4157 51.81 21.884 50.9883 21.884V22.384V22.884C52.0867 22.884 53.5053 22.2963 54.8793 21.5447C56.2785 20.7792 57.722 19.7919 58.8996 18.8935L58.5963 18.496ZM50.7963 19.168L50.8387 19.6662C51.498 19.6101 52.2115 19.3307 52.7544 19.0154C53.0283 18.8563 53.2801 18.6759 53.4708 18.4898C53.566 18.3969 53.657 18.2921 53.727 18.1774C53.7942 18.0673 53.8643 17.9119 53.8643 17.728H53.3643H52.8643C52.8643 17.6581 52.8894 17.6302 52.8735 17.6563C52.8604 17.6778 52.83 17.7179 52.7726 17.774C52.6581 17.8856 52.4793 18.0187 52.2522 18.1506C51.7931 18.4173 51.2227 18.6299 50.7539 18.6698L50.7963 19.168ZM53.3643 17.728H53.8643C53.8643 17.5006 53.7484 17.3329 53.6459 17.2304L53.2923 17.584L52.9388 17.9376C52.9323 17.9311 52.8643 17.8594 52.8643 17.728H53.3643ZM53.2923 17.584L53.6459 17.2304C53.498 17.0825 53.272 16.988 53.0283 16.988V17.488V17.988C53.0217 17.988 53.0129 17.9867 53.0016 17.9822C52.9959 17.98 52.9882 17.9763 52.9787 17.9702C52.9696 17.9644 52.9554 17.9542 52.9388 17.9376L53.2923 17.584ZM53.0283 17.488V16.988C52.6531 16.988 52.2019 17.1557 51.7588 17.4544C51.3039 17.7611 50.821 18.2296 50.3803 18.8906L50.7963 19.168L51.2123 19.4453C51.5876 18.8824 51.9807 18.5109 52.3178 18.2836C52.6668 18.0483 52.9235 17.988 53.0283 17.988V17.488ZM55.1975 22.888L55.534 23.2581L55.5441 23.2484L55.1975 22.888ZM58.0775 21.16L58.2675 21.6225L58.5299 21.5147L58.572 21.2342L58.0775 21.16ZM58.5335 18.04L58.0653 17.8644L58.0643 17.8671L58.5335 18.04ZM60.6935 16.744L61.1867 16.6618L61.1768 16.6024L61.1531 16.547L60.6935 16.744ZM60.7175 16.888H61.2175V16.8466L61.2107 16.8058L60.7175 16.888ZM59.0375 18.328L58.8518 17.8638L58.6123 17.9595L58.5516 18.2102L59.0375 18.328ZM58.7015 20.92L58.2074 20.8431L58.0863 21.6217L58.8423 21.3998L58.7015 20.92ZM65.5415 18.28L65.8693 18.6575L65.8826 18.646L65.8951 18.6336L65.5415 18.28ZM65.6855 18.328L66.1598 18.4861L66.1855 18.4091V18.328H65.6855ZM65.6615 18.4L65.9978 18.77L66.0945 18.6821L66.1358 18.5581L65.6615 18.4ZM58.6295 21.256L58.4459 20.7909L58.1873 20.893L58.1376 21.1666L58.6295 21.256ZM59.1095 18.016L58.6219 17.9052L58.3985 18.8884L59.3164 18.4712L59.1095 18.016ZM60.5015 16.888H61.0015V16.8385L60.9918 16.7899L60.5015 16.888ZM58.0295 21.52L58.5257 21.5813L58.6295 20.7415L57.8438 21.0558L58.0295 21.52ZM55.3415 23.152L54.9879 22.7984L54.9818 22.8047L55.3415 23.152ZM54.7415 25.432L55.0616 25.0479L55.0517 25.0397L55.0415 25.032L54.7415 25.432ZM55.2455 25.912V25.412C55.0167 25.412 54.8559 25.3396 54.7573 25.2482C54.6621 25.1601 54.5935 25.0262 54.5935 24.832H54.0935H53.5935C53.5935 25.2858 53.7649 25.6919 54.0777 25.9818C54.3871 26.2684 54.8023 26.412 55.2455 26.412V25.912ZM54.0935 24.832H54.5935C54.5935 24.4954 54.8017 23.9235 55.5338 23.258L55.1975 22.888L54.8612 22.518C54.0093 23.2925 53.5935 24.1126 53.5935 24.832H54.0935ZM55.1975 22.888L55.5441 23.2484C56.1085 22.7057 56.96 22.1595 58.2675 21.6225L58.0775 21.16L57.8875 20.6975C56.507 21.2645 55.5345 21.8703 54.8509 22.5276L55.1975 22.888ZM58.0775 21.16L58.572 21.2342C58.6462 20.7393 58.6804 20.1436 58.7311 19.6312C58.7845 19.091 58.8581 18.6052 59.0027 18.2129L58.5335 18.04L58.0643 17.8671C57.8729 18.3868 57.7905 18.981 57.7359 19.5328C57.6786 20.1124 57.6528 20.6207 57.583 21.0858L58.0775 21.16ZM58.5335 18.04L59.0017 18.2156C59.1475 17.8268 59.3965 17.5142 59.6606 17.301C59.938 17.077 60.1778 17.004 60.2855 17.004V16.504V16.004C59.8652 16.004 59.409 16.219 59.0324 16.523C58.6425 16.8378 58.2795 17.2932 58.0653 17.8644L58.5335 18.04ZM60.2855 16.504V17.004C60.3216 17.004 60.3145 17.011 60.2885 16.9963C60.275 16.9887 60.2616 16.978 60.2504 16.9652C60.2394 16.9527 60.2348 16.943 60.2339 16.941L60.6935 16.744L61.1531 16.547C61.077 16.3695 60.9515 16.2223 60.7805 16.1257C60.6165 16.033 60.4414 16.004 60.2855 16.004V16.504ZM60.6935 16.744L60.2003 16.8262L60.2243 16.9702L60.7175 16.888L61.2107 16.8058L61.1867 16.6618L60.6935 16.744ZM60.7175 16.888H60.2175C60.2175 16.8592 60.2267 16.9045 60.1144 17.0313C60.0132 17.1457 59.8619 17.271 59.6829 17.3949C59.3236 17.6437 58.9367 17.8298 58.8518 17.8638L59.0375 18.328L59.2232 18.7922C59.3783 18.7302 59.8314 18.5083 60.2521 18.2171C60.4631 18.071 60.6869 17.8933 60.8631 17.6942C61.0283 17.5075 61.2175 17.2288 61.2175 16.888H60.7175ZM59.0375 18.328L58.5516 18.2102C58.4465 18.6437 58.402 19.0525 58.3627 19.4691C58.3231 19.89 58.2885 20.3218 58.2074 20.8431L58.7015 20.92L59.1956 20.9969C59.2825 20.4382 59.3199 19.97 59.3583 19.5629C59.397 19.1515 59.4365 18.8043 59.5234 18.4458L59.0375 18.328ZM58.7015 20.92L58.8423 21.3998C60.1545 21.0145 61.6485 20.549 62.9325 20.0785C63.5742 19.8433 64.1702 19.6045 64.6679 19.3714C65.1551 19.1433 65.5862 18.9034 65.8693 18.6575L65.5415 18.28L65.2137 17.9025C65.0408 18.0526 64.7159 18.2447 64.2438 18.4658C63.7823 18.682 63.2158 18.9097 62.5885 19.1395C61.3345 19.599 59.8645 20.0575 58.5607 20.4402L58.7015 20.92ZM65.5415 18.28L65.8951 18.6336C65.8416 18.687 65.7728 18.7256 65.6988 18.7441C65.6415 18.7584 65.5922 18.756 65.6135 18.756V18.256V17.756C65.5821 17.756 65.3674 17.747 65.1879 17.9264L65.5415 18.28ZM65.6135 18.256V18.756C65.5604 18.756 65.4288 18.7424 65.3139 18.6276C65.1991 18.5127 65.1855 18.3811 65.1855 18.328H65.6855H66.1855C66.1855 18.2269 66.1599 18.0593 66.0211 17.9204C65.8822 17.7816 65.7146 17.756 65.6135 17.756V18.256ZM65.6855 18.328L65.2112 18.1699L65.1872 18.2419L65.6615 18.4L66.1358 18.5581L66.1598 18.4861L65.6855 18.328ZM65.6615 18.4L65.3252 18.03C65.0519 18.2785 64.6163 18.5365 64.0524 18.7975C63.4956 19.0551 62.8466 19.3009 62.1705 19.5357C60.8519 19.9935 59.3642 20.4284 58.4459 20.7909L58.6295 21.256L58.8131 21.7211C59.7188 21.3636 61.0871 20.9704 62.4985 20.4803C63.1874 20.2411 63.8719 19.9829 64.4724 19.705C65.0657 19.4305 65.6111 19.1215 65.9978 18.77L65.6615 18.4ZM58.6295 21.256L58.1376 21.1666C57.528 24.5191 56.0006 25.412 55.2455 25.412V25.912V26.412C56.7464 26.412 58.483 24.8569 59.1214 21.3454L58.6295 21.256ZM59.1095 18.016L59.3164 18.4712C59.4707 18.4011 59.8425 18.2082 60.1819 17.982C60.3506 17.8695 60.53 17.7365 60.6729 17.5951C60.7443 17.5244 60.8191 17.4395 60.8787 17.3424C60.936 17.249 61.0015 17.1083 61.0015 16.936H60.5015H60.0015C60.0015 16.8537 60.0318 16.8105 60.0264 16.8193C60.0233 16.8244 60.0078 16.8463 59.9694 16.8844C59.8925 16.9605 59.7734 17.0525 59.6271 17.15C59.3365 17.3438 59.0123 17.5109 58.9026 17.5608L59.1095 18.016ZM60.5015 16.936H61.0015V16.888H60.5015H60.0015V16.936H60.5015ZM60.5015 16.888L60.9918 16.7899C60.9634 16.6482 60.8939 16.4905 60.7491 16.372C60.6046 16.2538 60.4406 16.22 60.3095 16.22V16.72V17.22C60.2744 17.22 60.1944 17.2102 60.1159 17.146C60.0371 17.0815 60.0156 17.0078 60.0112 16.9861L60.5015 16.888ZM60.3095 16.72V16.22C60.0671 16.22 59.8514 16.3375 59.7091 16.4326C59.5492 16.5395 59.3927 16.6797 59.2534 16.8294C58.9878 17.115 58.7102 17.5167 58.6219 17.9052L59.1095 18.016L59.5971 18.1268C59.6288 17.9873 59.7712 17.741 59.9856 17.5106C60.0863 17.4023 60.1848 17.3175 60.2649 17.2639C60.3626 17.1985 60.3719 17.22 60.3095 17.22V16.72ZM55.2455 25.624V26.124C55.6598 26.124 56.0538 25.935 56.3893 25.6828C56.7314 25.4257 57.0566 25.0707 57.3442 24.6596C57.9187 23.8385 58.383 22.7359 58.5257 21.5813L58.0295 21.52L57.5333 21.4587C57.412 22.4401 57.0123 23.3895 56.5248 24.0864C56.2814 24.4343 56.0261 24.7048 55.7885 24.8834C55.5442 25.067 55.3592 25.124 55.2455 25.124V25.624ZM58.0295 21.52L57.8438 21.0558C56.9815 21.4007 55.7552 22.0312 54.9879 22.7984L55.3415 23.152L55.6951 23.5056C56.3198 22.8808 57.3975 22.3113 58.2152 21.9842L58.0295 21.52ZM55.3415 23.152L54.9818 22.8047C54.2767 23.5349 53.9295 24.2068 53.9295 24.784H54.4295H54.9295C54.9295 24.5932 55.0623 24.1611 55.7012 23.4993L55.3415 23.152ZM54.4295 24.784H53.9295C53.9295 25.0061 53.9728 25.2129 54.0689 25.3997C54.1647 25.5861 54.299 25.7251 54.4415 25.832L54.7415 25.432L55.0415 25.032C54.992 24.9949 54.9703 24.9659 54.9581 24.9423C54.9462 24.9191 54.9295 24.8739 54.9295 24.784H54.4295ZM54.7415 25.432L54.4214 25.8161C54.64 25.9983 54.9181 26.124 55.2455 26.124V25.624V25.124C55.1889 25.124 55.131 25.1057 55.0616 25.0479L54.7415 25.432ZM62.1819 22.888L62.5183 23.2581L62.5284 23.2484L62.1819 22.888ZM65.0619 21.16L65.2518 21.6225L65.5143 21.5147L65.5563 21.2342L65.0619 21.16ZM65.5179 18.04L65.0497 17.8644L65.0487 17.8671L65.5179 18.04ZM67.6779 16.744L68.1711 16.6618L68.1612 16.6024L68.1374 16.547L67.6779 16.744ZM67.7019 16.888H68.2019V16.8466L68.1951 16.8058L67.7019 16.888ZM66.0219 18.328L65.8362 17.8638L65.5967 17.9595L65.5359 18.2102L66.0219 18.328ZM65.6859 20.92L65.1918 20.8431L65.0707 21.6217L65.8267 21.3998L65.6859 20.92ZM72.5259 18.28L72.8537 18.6575L72.867 18.646L72.8794 18.6336L72.5259 18.28ZM72.6699 18.328L73.1442 18.4861L73.1699 18.4091V18.328H72.6699ZM72.6459 18.4L72.9822 18.77L73.0789 18.6821L73.1202 18.5581L72.6459 18.4ZM65.6139 21.256L65.4303 20.7909L65.1717 20.893L65.1219 21.1666L65.6139 21.256ZM66.0939 18.016L65.6063 17.9052L65.3828 18.8884L66.3008 18.4712L66.0939 18.016ZM67.4859 16.888H67.9859V16.8385L67.9762 16.7899L67.4859 16.888ZM65.0139 21.52L65.5101 21.5813L65.6139 20.7415L64.8282 21.0558L65.0139 21.52ZM62.3259 23.152L61.9723 22.7984L61.9662 22.8047L62.3259 23.152ZM61.7259 25.432L62.046 25.0479L62.0361 25.0397L62.0259 25.032L61.7259 25.432ZM62.2299 25.912V25.412C62.001 25.412 61.8403 25.3396 61.7417 25.2482C61.6465 25.1601 61.5779 25.0262 61.5779 24.832H61.0779H60.5779C60.5779 25.2858 60.7492 25.6919 61.0621 25.9818C61.3715 26.2684 61.7867 26.412 62.2299 26.412V25.912ZM61.0779 24.832H61.5779C61.5779 24.4954 61.7861 23.9235 62.5182 23.258L62.1819 22.888L61.8455 22.518C60.9937 23.2925 60.5779 24.1126 60.5779 24.832H61.0779ZM62.1819 22.888L62.5284 23.2484C63.0929 22.7057 63.9444 22.1595 65.2518 21.6225L65.0619 21.16L64.8719 20.6975C63.4914 21.2645 62.5189 21.8703 61.8353 22.5276L62.1819 22.888ZM65.0619 21.16L65.5563 21.2342C65.6306 20.7393 65.6648 20.1436 65.7154 19.6312C65.7689 19.091 65.8425 18.6052 65.987 18.2129L65.5179 18.04L65.0487 17.8671C64.8572 18.3868 64.7749 18.981 64.7203 19.5328C64.663 20.1124 64.6372 20.6207 64.5674 21.0858L65.0619 21.16ZM65.5179 18.04L65.986 18.2156C66.1318 17.8268 66.3809 17.5142 66.645 17.301C66.9224 17.077 67.1622 17.004 67.2699 17.004V16.504V16.004C66.8495 16.004 66.3933 16.219 66.0168 16.523C65.6268 16.8378 65.2639 17.2932 65.0497 17.8644L65.5179 18.04ZM67.2699 16.504V17.004C67.3059 17.004 67.2989 17.011 67.2728 16.9963C67.2594 16.9887 67.246 16.978 67.2347 16.9652C67.2238 16.9527 67.2192 16.943 67.2183 16.941L67.6779 16.744L68.1374 16.547C68.0614 16.3695 67.9358 16.2223 67.7649 16.1257C67.6009 16.033 67.4258 16.004 67.2699 16.004V16.504ZM67.6779 16.744L67.1847 16.8262L67.2087 16.9702L67.7019 16.888L68.1951 16.8058L68.1711 16.6618L67.6779 16.744ZM67.7019 16.888H67.2019C67.2019 16.8592 67.2111 16.9045 67.0987 17.0313C66.9975 17.1457 66.8463 17.271 66.6673 17.3949C66.3079 17.6437 65.9211 17.8298 65.8362 17.8638L66.0219 18.328L66.2076 18.7922C66.3627 18.7302 66.8158 18.5083 67.2365 18.2171C67.4474 18.071 67.6712 17.8933 67.8475 17.6942C68.0127 17.5075 68.2019 17.2288 68.2019 16.888H67.7019ZM66.0219 18.328L65.5359 18.2102C65.4308 18.6437 65.3863 19.0525 65.3471 19.4691C65.3074 19.89 65.2729 20.3218 65.1918 20.8431L65.6859 20.92L66.1799 20.9969C66.2668 20.4382 66.3043 19.97 66.3427 19.5629C66.3814 19.1515 66.4209 18.8043 66.5078 18.4458L66.0219 18.328ZM65.6859 20.92L65.8267 21.3998C67.1389 21.0145 68.6329 20.549 69.9169 20.0785C70.5586 19.8433 71.1546 19.6045 71.6523 19.3714C72.1395 19.1433 72.5706 18.9034 72.8537 18.6575L72.5259 18.28L72.198 17.9025C72.0252 18.0526 71.7002 18.2447 71.2282 18.4658C70.7666 18.682 70.2001 18.9097 69.5728 19.1395C68.3189 19.599 66.8488 20.0575 65.545 20.4402L65.6859 20.92ZM72.5259 18.28L72.8794 18.6336C72.826 18.687 72.7572 18.7256 72.6831 18.7441C72.6259 18.7584 72.5766 18.756 72.5979 18.756V18.256V17.756C72.5664 17.756 72.3518 17.747 72.1723 17.9264L72.5259 18.28ZM72.5979 18.256V18.756C72.5448 18.756 72.4132 18.7424 72.2983 18.6276C72.1835 18.5127 72.1699 18.3811 72.1699 18.328H72.6699H73.1699C73.1699 18.2269 73.1443 18.0593 73.0054 17.9204C72.8666 17.7816 72.6989 17.756 72.5979 17.756V18.256ZM72.6699 18.328L72.1955 18.1699L72.1715 18.2419L72.6459 18.4L73.1202 18.5581L73.1442 18.4861L72.6699 18.328ZM72.6459 18.4L72.3095 18.03C72.0362 18.2785 71.6007 18.5365 71.0368 18.7975C70.48 19.0551 69.831 19.3009 69.1549 19.5357C67.8363 19.9935 66.3486 20.4284 65.4303 20.7909L65.6139 21.256L65.7975 21.7211C66.7031 21.3636 68.0715 20.9704 69.4829 20.4803C70.1717 20.2411 70.8563 19.9829 71.4567 19.705C72.0501 19.4305 72.5955 19.1215 72.9822 18.77L72.6459 18.4ZM65.6139 21.256L65.1219 21.1666C64.5124 24.5191 62.985 25.412 62.2299 25.412V25.912V26.412C63.7308 26.412 65.4674 24.8569 66.1058 21.3454L65.6139 21.256ZM66.0939 18.016L66.3008 18.4712C66.4551 18.4011 66.8269 18.2082 67.1662 17.982C67.3349 17.8695 67.5143 17.7365 67.6572 17.5951C67.7287 17.5244 67.8034 17.4395 67.863 17.3424C67.9203 17.249 67.9859 17.1083 67.9859 16.936H67.4859H66.9859C66.9859 16.8537 67.0162 16.8105 67.0108 16.8193C67.0076 16.8244 66.9922 16.8463 66.9538 16.8844C66.8769 16.9605 66.7578 17.0525 66.6115 17.15C66.3209 17.3438 65.9967 17.5109 65.887 17.5608L66.0939 18.016ZM67.4859 16.936H67.9859V16.888H67.4859H66.9859V16.936H67.4859ZM67.4859 16.888L67.9762 16.7899C67.9478 16.6482 67.8783 16.4905 67.7335 16.372C67.589 16.2538 67.425 16.22 67.2939 16.22V16.72V17.22C67.2588 17.22 67.1788 17.2102 67.1003 17.146C67.0215 17.0815 66.9999 17.0078 66.9956 16.9861L67.4859 16.888ZM67.2939 16.72V16.22C67.0515 16.22 66.8357 16.3375 66.6934 16.4326C66.5336 16.5395 66.377 16.6797 66.2378 16.8294C65.9721 17.115 65.6946 17.5167 65.6063 17.9052L66.0939 18.016L66.5814 18.1268C66.6131 17.9873 66.7556 17.741 66.97 17.5106C67.0707 17.4023 67.1692 17.3175 67.2493 17.2639C67.347 17.1985 67.3563 17.22 67.2939 17.22V16.72ZM62.2299 25.624V26.124C62.6442 26.124 63.0381 25.935 63.3737 25.6828C63.7157 25.4257 64.041 25.0707 64.3286 24.6596C64.903 23.8385 65.3674 22.7359 65.5101 21.5813L65.0139 21.52L64.5177 21.4587C64.3964 22.4401 63.9967 23.3895 63.5092 24.0864C63.2658 24.4343 63.0105 24.7048 62.7728 24.8834C62.5286 25.067 62.3435 25.124 62.2299 25.124V25.624ZM65.0139 21.52L64.8282 21.0558C63.9659 21.4007 62.7396 22.0312 61.9723 22.7984L62.3259 23.152L62.6794 23.5056C63.3041 22.8808 64.3819 22.3113 65.1996 21.9842L65.0139 21.52ZM62.3259 23.152L61.9662 22.8047C61.2611 23.5349 60.9139 24.2068 60.9139 24.784H61.4139H61.9139C61.9139 24.5932 62.0466 24.1611 62.6856 23.4993L62.3259 23.152ZM61.4139 24.784H60.9139C60.9139 25.0061 60.9572 25.2129 61.0532 25.3997C61.1491 25.5861 61.2834 25.7251 61.4259 25.832L61.7259 25.432L62.0259 25.032C61.9764 24.9949 61.9547 24.9659 61.9425 24.9423C61.9306 24.9191 61.9139 24.8739 61.9139 24.784H61.4139ZM61.7259 25.432L61.4058 25.8161C61.6244 25.9983 61.9025 26.124 62.2299 26.124V25.624V25.124C62.1732 25.124 62.1153 25.1057 62.046 25.0479L61.7259 25.432ZM81.5596 22.264L81.3527 22.7192L81.3566 22.7209L81.5596 22.264ZM81.1996 19.408L80.7635 19.1635L80.7577 19.1738L80.7524 19.1844L81.1996 19.408ZM84.8236 17.992H85.3236V17.9773L85.3228 17.9626L84.8236 17.992ZM84.5356 18.088L84.0453 18.1861L84.0514 18.2166L84.0613 18.2461L84.5356 18.088ZM84.3916 17.824L84.0381 18.1776L84.0731 18.2126L84.1143 18.24L84.3916 17.824ZM81.9196 19.36L82.3574 19.6015L82.3609 19.5952L82.3643 19.5887L81.9196 19.36ZM82.3996 21.976L82.3779 22.4755L82.3888 22.476H82.3996V21.976ZM89.6476 18.328L89.4619 17.8638L89.4001 17.8885L89.3469 17.9285L89.6476 18.328ZM89.7676 18.28V17.78H89.6713L89.5819 17.8158L89.7676 18.28ZM89.7676 18.496L89.4903 18.08L89.4739 18.0909L89.4583 18.1031L89.7676 18.496ZM82.2796 22.408V21.908C82.0774 21.908 81.9077 21.8715 81.7627 21.8071L81.5596 22.264L81.3566 22.7209C81.6436 22.8485 81.9539 22.908 82.2796 22.908V22.408ZM81.5596 22.264L81.7665 21.8088C81.4855 21.6811 81.3156 21.3883 81.3156 20.896H80.8156H80.3156C80.3156 21.6037 80.5777 22.3669 81.3527 22.7192L81.5596 22.264ZM80.8156 20.896H81.3156C81.3156 20.4903 81.4549 20.0154 81.6468 19.6316L81.1996 19.408L80.7524 19.1844C80.5123 19.6646 80.3156 20.2937 80.3156 20.896H80.8156ZM81.1996 19.408L81.6358 19.6525C82.4771 18.1517 83.3723 17.772 83.8396 17.772V17.272V16.772C82.8669 16.772 81.6981 17.4963 80.7635 19.1635L81.1996 19.408ZM83.8396 17.272V17.772C84.0398 17.772 84.1686 17.8261 84.2375 17.8782C84.302 17.9268 84.3218 17.9764 84.3245 18.0214L84.8236 17.992L85.3228 17.9626C85.2777 17.196 84.5742 16.772 83.8396 16.772V17.272ZM84.8236 17.992H84.3236C84.3236 17.984 84.3256 17.9247 84.3786 17.854C84.434 17.7802 84.5392 17.708 84.6796 17.708V18.208V18.708C85.1516 18.708 85.3236 18.2693 85.3236 17.992H84.8236ZM84.6796 18.208V17.708C84.7643 17.708 84.8514 17.7397 84.9189 17.7987C84.9789 17.8512 85.002 17.9061 85.01 17.9299L84.5356 18.088L84.0613 18.2461C84.1273 18.4441 84.3201 18.708 84.6796 18.708V18.208ZM84.5356 18.088L85.0259 17.9899C84.9918 17.8192 84.9041 17.5647 84.669 17.408L84.3916 17.824L84.1143 18.24C84.0648 18.2071 84.0446 18.172 84.0404 18.1643C84.0362 18.1563 84.0404 18.1616 84.0453 18.1861L84.5356 18.088ZM84.3916 17.824L84.7452 17.4704C84.5148 17.2401 84.2348 17.156 83.9596 17.156V17.656V18.156C83.996 18.156 84.0127 18.1611 84.0181 18.1632C84.0215 18.1645 84.0272 18.1667 84.0381 18.1776L84.3916 17.824ZM83.9596 17.656V17.156C83.4391 17.156 82.9206 17.4713 82.523 17.8145C82.106 18.1743 81.7224 18.6502 81.475 19.1313L81.9196 19.36L82.3643 19.5887C82.5488 19.2298 82.8493 18.8537 83.1763 18.5715C83.5226 18.2727 83.8081 18.156 83.9596 18.156V17.656ZM81.9196 19.36L81.4818 19.1185C81.0751 19.8557 80.8916 20.4687 80.8916 20.992H81.3916H81.8916C81.8916 20.6993 81.9962 20.2563 82.3574 19.6015L81.9196 19.36ZM81.3916 20.992H80.8916C80.8916 21.451 81.053 21.8371 81.3607 22.1044C81.6547 22.3599 82.0284 22.4603 82.3779 22.4755L82.3996 21.976L82.4213 21.4765C82.2188 21.4677 82.0886 21.4121 82.0166 21.3496C81.9583 21.2989 81.8916 21.205 81.8916 20.992H81.3916ZM82.3996 21.976V22.476H82.5196V21.976V21.476H82.3996V21.976ZM82.5196 21.976V22.476C83.0543 22.476 83.6549 22.3267 84.2656 22.1011C84.8823 21.8734 85.5404 21.5559 86.199 21.1929C87.5162 20.4669 88.8686 19.5403 89.9483 18.7275L89.6476 18.328L89.3469 17.9285C88.2907 18.7237 86.9791 19.6211 85.7163 20.3171C85.0849 20.6651 84.474 20.9581 83.9191 21.1631C83.3583 21.3703 82.8849 21.476 82.5196 21.476V21.976ZM89.6476 18.328L89.8333 18.7922L89.9533 18.7442L89.7676 18.28L89.5819 17.8158L89.4619 17.8638L89.6476 18.328ZM89.7676 18.28V18.78C89.629 18.78 89.5322 18.7157 89.4801 18.6636C89.4279 18.6114 89.3636 18.5146 89.3636 18.376H89.8636H90.3636C90.3636 18.1894 90.2754 18.0446 90.1872 17.9564C90.099 17.8683 89.9542 17.78 89.7676 17.78V18.28ZM89.8636 18.376H89.3636C89.3636 18.3035 89.3805 18.2482 89.3931 18.2159C89.4069 18.1808 89.4228 18.1545 89.4358 18.1364C89.4617 18.1001 89.4847 18.0837 89.4903 18.08L89.7676 18.496L90.045 18.912C90.1225 18.8603 90.1936 18.7959 90.2495 18.7176C90.297 18.6511 90.3636 18.5319 90.3636 18.376H89.8636ZM89.7676 18.496L89.4583 18.1031C88.3445 18.98 86.9744 19.9419 85.6533 20.6817C84.307 21.4357 83.0987 21.908 82.2796 21.908V22.408V22.908C83.3805 22.908 84.7883 22.3123 86.1419 21.5543C87.5208 20.7821 88.9348 19.788 90.0769 18.8889L89.7676 18.496ZM88.4579 19.96L88.9004 20.1929L88.906 20.1823L88.911 20.1714L88.4579 19.96ZM89.7059 18.16L90.0492 18.5235L90.4626 18.1331L90.0226 17.773L89.7059 18.16ZM90.4259 17.632L90.0163 17.9187L90.0224 17.9274L90.0288 17.9357L90.4259 17.632ZM91.2659 18.712L91.0375 19.1568L91.0423 19.1592L91.2659 18.712ZM96.6179 18.304L96.4967 17.8189L96.4462 17.8315L96.3995 17.8542L96.6179 18.304ZM96.7139 18.28V17.78H96.6524L96.5927 17.7949L96.7139 18.28ZM96.6899 18.472L96.9045 18.9236L96.9372 18.9081L96.9673 18.888L96.6899 18.472ZM90.8339 18.856L91.0575 18.4088L90.3339 18.047V18.856H90.8339ZM90.1619 17.968L89.8846 18.384L90.4849 17.5863L90.1619 17.968ZM89.8499 17.704L90.1729 17.3223L89.4499 18.004L89.8499 17.704ZM90.4499 18.976H90.9499V18.9405L90.9449 18.9053L90.4499 18.976ZM90.4019 18.64L90.8969 18.5693L90.864 18.3392L90.6669 18.216L90.4019 18.64ZM90.2099 18.52L90.4749 18.096L90.1376 17.8852L89.8564 18.1664L90.2099 18.52ZM88.5059 22.048L88.1524 22.4016L88.2098 22.4589L88.2823 22.4952L88.5059 22.048ZM88.5299 22.456V21.956C88.5137 21.956 88.5043 21.9534 88.4991 21.9514C88.4949 21.9497 88.4871 21.9461 88.4755 21.9344L88.1219 22.288L87.7684 22.6416C87.992 22.8651 88.2679 22.956 88.5299 22.956V22.456ZM88.1219 22.288L88.4755 21.9344C88.4745 21.9335 88.4633 21.9225 88.4516 21.8829C88.4392 21.8407 88.4299 21.7774 88.4299 21.688H87.9299H87.4299C87.4299 21.9739 87.4833 22.3565 87.7684 22.6416L88.1219 22.288ZM87.9299 21.688H88.4299C88.4299 21.2629 88.6687 20.6331 88.9004 20.1929L88.4579 19.96L88.0155 19.7271C87.7672 20.1989 87.4299 21.0091 87.4299 21.688H87.9299ZM88.4579 19.96L88.911 20.1714C89.2249 19.4989 89.6703 18.8814 90.0492 18.5235L89.7059 18.16L89.3626 17.7965C88.8776 18.2546 88.363 18.9811 88.0048 19.7486L88.4579 19.96ZM89.7059 18.16L90.0226 17.773C89.922 17.6907 89.8739 17.6294 89.8532 17.5957C89.8328 17.5624 89.8459 17.5678 89.8459 17.608H89.3459H88.8459C88.8459 17.972 89.0773 18.2917 89.3893 18.547L89.7059 18.16ZM89.3459 17.608H89.8459C89.8459 17.6464 89.8355 17.6881 89.8143 17.7254C89.7941 17.7609 89.7706 17.7814 89.7565 17.7911C89.7324 17.8078 89.7346 17.796 89.7779 17.796V17.296V16.796C89.5813 16.796 89.3674 16.8442 89.1873 16.9689C88.9964 17.1011 88.8459 17.3229 88.8459 17.608H89.3459ZM89.7779 17.296V17.796C89.8601 17.796 89.9575 17.8347 90.0163 17.9187L90.4259 17.632L90.8356 17.3453C90.5583 16.9493 90.1278 16.796 89.7779 16.796V17.296ZM90.4259 17.632L90.0288 17.9357C90.1654 18.1144 90.2108 18.2118 90.2269 18.2551C90.2459 18.3062 90.2332 18.2811 90.2557 18.3999C90.267 18.4598 90.289 18.5461 90.3438 18.639C90.3968 18.7289 90.4641 18.7974 90.5303 18.8519C90.6489 18.9494 90.8193 19.0447 91.0375 19.1568L91.2659 18.712L91.4943 18.2672C91.2685 18.1513 91.19 18.0996 91.1653 18.0794C91.1599 18.075 91.1821 18.0919 91.2052 18.1311C91.23 18.1733 91.2374 18.2097 91.2382 18.2141C91.2397 18.2219 91.2225 18.0633 91.1642 17.9066C91.1031 17.7422 90.9985 17.5576 90.8231 17.3283L90.4259 17.632ZM91.2659 18.712L91.0423 19.1592C91.6693 19.4727 92.4299 19.572 93.1379 19.572V19.072V18.572C92.502 18.572 91.9186 18.4793 91.4895 18.2648L91.2659 18.712ZM93.1379 19.072V19.572C94.4873 19.572 95.9299 19.1941 96.8364 18.7538L96.6179 18.304L96.3995 17.8542C95.626 18.2299 94.3325 18.572 93.1379 18.572V19.072ZM96.6179 18.304L96.7392 18.7891L96.8352 18.7651L96.7139 18.28L96.5927 17.7949L96.4967 17.8189L96.6179 18.304ZM96.7139 18.28V18.78C96.6638 18.78 96.585 18.769 96.5026 18.714C96.4054 18.6492 96.3099 18.522 96.3099 18.352H96.8099H97.3099C97.3099 18.134 97.1905 17.9708 97.0573 17.882C96.9389 17.803 96.8121 17.78 96.7139 17.78V18.28ZM96.8099 18.352H96.3099C96.3099 18.2743 96.3287 18.2141 96.3423 18.1794C96.3565 18.1432 96.3723 18.1167 96.3825 18.101C96.4023 18.0706 96.4196 18.0532 96.4234 18.0494C96.4323 18.0406 96.4302 18.0442 96.4126 18.056L96.6899 18.472L96.9673 18.888C97.0216 18.8518 97.0796 18.8074 97.1305 18.7566C97.1552 18.7318 97.189 18.6949 97.2201 18.6473C97.2419 18.6139 97.3099 18.5056 97.3099 18.352H96.8099ZM96.6899 18.472L96.4754 18.0204C95.5658 18.4524 94.2713 18.836 93.0179 18.836V19.336V19.836C94.4526 19.836 95.8941 19.4036 96.9045 18.9236L96.6899 18.472ZM93.0179 19.336V18.836C92.3119 18.836 91.6474 18.7037 91.0575 18.4088L90.8339 18.856L90.6103 19.3032C91.3645 19.6803 92.188 19.836 93.0179 19.836V19.336ZM90.8339 18.856H90.3339V18.88H90.8339H91.3339V18.856H90.8339ZM90.8339 18.88H90.3339C90.3339 19.5202 90.0399 20.3196 89.6145 20.9704C89.4047 21.2911 89.1777 21.5527 88.9659 21.7282C88.7421 21.9135 88.593 21.956 88.5299 21.956V22.456V22.956C88.9349 22.956 89.3078 22.7435 89.6038 22.4983C89.9116 22.2433 90.2021 21.8989 90.4514 21.5176C90.9439 20.7644 91.3339 19.7758 91.3339 18.88H90.8339ZM90.1619 17.968L90.4849 17.5863L90.1729 17.3223L89.8499 17.704L89.527 18.0857L89.839 18.3497L90.1619 17.968ZM89.8499 17.704L89.4499 18.004C89.5782 18.175 89.7398 18.2875 89.8846 18.384L90.1619 17.968L90.4393 17.552C90.296 17.4565 90.2657 17.425 90.2499 17.404L89.8499 17.704ZM88.6739 22.096V22.596C88.8794 22.596 89.0598 22.5213 89.2003 22.437C89.3436 22.3511 89.4756 22.2373 89.594 22.115C89.8309 21.8705 90.0561 21.5478 90.2496 21.2044C90.6282 20.5323 90.9499 19.6638 90.9499 18.976H90.4499H89.9499C89.9499 19.4162 89.7197 20.1077 89.3783 20.7136C89.2117 21.0092 89.0349 21.255 88.8758 21.4192C88.7963 21.5013 88.7318 21.5519 88.686 21.5794C88.6376 21.6084 88.6365 21.596 88.6739 21.596V22.096ZM90.4499 18.976L90.9449 18.9053L90.8969 18.5693L90.4019 18.64L89.907 18.7107L89.955 19.0467L90.4499 18.976ZM90.4019 18.64L90.6669 18.216L90.4749 18.096L90.2099 18.52L89.9449 18.944L90.1369 19.064L90.4019 18.64ZM90.2099 18.52L89.8564 18.1664C89.1744 18.8485 88.7043 19.5884 88.4036 20.2352C88.1097 20.8671 87.9579 21.4531 87.9579 21.832H88.4579H88.9579C88.9579 21.6589 89.0462 21.2249 89.3103 20.6568C89.5676 20.1036 89.9735 19.4635 90.5635 18.8736L90.2099 18.52ZM88.4579 21.832H87.9579C87.9579 21.9233 87.9669 22.0133 87.9879 22.0973C88.0042 22.1625 88.044 22.2931 88.1524 22.4016L88.5059 22.048L88.8595 21.6944C88.9081 21.743 88.9318 21.789 88.941 21.8088C88.9519 21.832 88.9565 21.8487 88.958 21.8547C88.961 21.8667 88.9579 21.8607 88.9579 21.832H88.4579ZM88.5059 22.048L88.2823 22.4952C88.3342 22.5212 88.4745 22.596 88.6739 22.596V22.096V21.596C88.6841 21.596 88.6958 21.5969 88.7082 21.599C88.7206 21.6011 88.7311 21.604 88.7391 21.6067C88.7466 21.6092 88.7506 21.6111 88.7492 21.6104C88.7466 21.6093 88.7428 21.6074 88.7295 21.6008L88.5059 22.048ZM99.9549 19.696L100.398 19.9273L99.6505 19.2993L99.9549 19.696ZM100.699 18.328L100.205 18.406L100.446 19.935L101.145 18.5537L100.699 18.328ZM107.011 13.408L107.369 13.7573L107.369 13.7565L107.011 13.408ZM100.987 18.976L100.688 18.5749L100.602 18.6389L100.55 18.7326L100.987 18.976ZM109.051 18.28L108.893 17.8057L108.877 17.8108L108.862 17.817L109.051 18.28ZM109.123 18.256V17.756H109.042L108.965 17.7817L109.123 18.256ZM109.171 18.496L109.368 18.9553L109.382 18.9496L109.394 18.9432L109.171 18.496ZM96.3789 21.16L96.3169 21.6561L96.3477 21.66H96.3789V21.16ZM100.339 18.928L100.662 19.3093L100.839 19.1595V18.928H100.339ZM97.3629 18.424L97.6975 18.7958L97.7077 18.7861L97.3629 18.424ZM96.1869 21.136L96.0888 21.6263L96.1067 21.6299L96.1249 21.6321L96.1869 21.136ZM101.419 18.184L101 17.9106L101.722 18.5814L101.419 18.184ZM108.619 11.176L108.997 11.5032L109.001 11.4984L108.619 11.176ZM109.843 7.384L109.496 7.02406L109.493 7.02706L109.843 7.384ZM100.363 23.848V23.348C100.169 23.348 100.011 23.2876 99.9005 23.1707C99.7888 23.0531 99.6629 22.8137 99.6629 22.336H99.1629H98.6629C98.6629 22.9863 98.837 23.5029 99.1753 23.8593C99.5143 24.2164 99.9572 24.348 100.363 24.348V23.848ZM99.1629 22.336H99.6629C99.6629 21.7925 99.8465 20.9847 100.398 19.9273L99.9549 19.696L99.5116 19.4647C98.9113 20.6153 98.6629 21.5835 98.6629 22.336H99.1629ZM99.9549 19.696L99.6505 19.2993C98.7935 19.9568 98.0793 20.398 97.5042 20.6729C96.922 20.9512 96.5136 21.044 96.2589 21.044V21.544V22.044C96.7241 22.044 97.2877 21.8848 97.9355 21.5751C98.5904 21.262 99.3643 20.7792 100.259 20.0927L99.9549 19.696ZM96.2589 21.544V21.044C96.0181 21.044 95.9262 20.9776 95.8902 20.9395C95.8493 20.8962 95.7989 20.8024 95.7989 20.608H95.2989H94.7989C94.7989 20.9656 94.8925 21.3398 95.1636 21.6265C95.4395 21.9184 95.8276 22.044 96.2589 22.044V21.544ZM95.2989 20.608H95.7989C95.7989 20.112 96.1601 19.3503 96.8299 18.686C97.4875 18.0339 98.3402 17.58 99.1869 17.58V17.08V16.58C97.9935 16.58 96.9022 17.2061 96.1258 17.976C95.3617 18.7337 94.7989 19.736 94.7989 20.608H95.2989ZM99.1869 17.08V17.58C99.4887 17.58 99.7148 17.6485 99.87 17.7636C100.015 17.8713 100.15 18.0574 100.205 18.406L100.699 18.328L101.193 18.25C101.104 17.6866 100.855 17.2487 100.466 16.9604C100.087 16.6795 99.6291 16.58 99.1869 16.58V17.08ZM100.699 18.328L101.145 18.5537C101.648 17.5585 103.709 14.5322 105.938 11.7367C107.048 10.3442 108.185 9.02838 109.175 8.06511C109.67 7.58261 110.117 7.2 110.496 6.94133C110.897 6.66813 111.144 6.588 111.259 6.588V6.088V5.588C110.822 5.588 110.358 5.82512 109.933 6.11526C109.486 6.41994 108.993 6.84677 108.477 7.34863C107.444 8.35412 106.277 9.70681 105.156 11.1133C102.921 13.9158 100.805 17.0095 100.253 18.1023L100.699 18.328ZM111.259 6.088V6.588C111.273 6.588 111.284 6.58882 111.292 6.58982C111.3 6.59083 111.304 6.5919 111.304 6.59206C111.305 6.59224 111.29 6.58792 111.271 6.5717C111.262 6.56382 111.254 6.55481 111.248 6.54544C111.241 6.53612 111.237 6.52854 111.236 6.52439C111.233 6.51647 111.239 6.52714 111.239 6.568H111.739H112.239C112.239 6.28477 112.15 6.00876 111.924 5.81429C111.713 5.63175 111.457 5.588 111.259 5.588V6.088ZM111.739 6.568H111.239C111.239 6.69835 111.185 6.95252 111.011 7.34842C110.843 7.73256 110.58 8.21138 110.208 8.77739C109.465 9.90864 108.304 11.3601 106.652 13.0595L107.011 13.408L107.369 13.7565C109.054 12.0239 110.257 10.5234 111.044 9.32661C111.437 8.72862 111.73 8.19944 111.927 7.74958C112.119 7.31148 112.239 6.90565 112.239 6.568H111.739ZM107.011 13.408L106.653 13.0587C104.681 15.0793 102.715 17.0663 100.688 18.5749L100.987 18.976L101.285 19.3771C103.386 17.8137 105.405 15.7687 107.369 13.7573L107.011 13.408ZM100.987 18.976L100.55 18.7326C99.5976 20.4423 99.2389 21.6831 99.2389 22.528H99.7389H100.239C100.239 21.9329 100.504 20.8697 101.424 19.2194L100.987 18.976ZM99.7389 22.528H99.2389C99.2389 22.9742 99.3351 23.3644 99.5798 23.6472C99.836 23.9432 100.179 24.036 100.483 24.036V23.536V23.036C100.378 23.036 100.35 23.0088 100.336 22.9928C100.311 22.9636 100.239 22.8498 100.239 22.528H99.7389ZM100.483 23.536V24.036C100.805 24.036 101.149 23.9412 101.486 23.8073C101.829 23.6711 102.199 23.4804 102.58 23.2579C103.341 22.8133 104.19 22.2176 105.025 21.6091C105.871 20.9934 106.693 20.3717 107.44 19.8437C108.195 19.3109 108.814 18.9164 109.24 18.743L109.051 18.28L108.862 17.817C108.316 18.0396 107.609 18.5001 106.863 19.027C106.111 19.5588 105.259 20.2016 104.436 20.8009C103.604 21.4074 102.79 21.9772 102.076 22.3943C101.719 22.6027 101.397 22.7669 101.117 22.8779C100.832 22.9913 100.623 23.036 100.483 23.036V23.536ZM109.051 18.28L109.209 18.7543L109.281 18.7303L109.123 18.256L108.965 17.7817L108.893 17.8057L109.051 18.28ZM109.123 18.256V18.756C109.084 18.756 109.028 18.7484 108.967 18.7194C108.905 18.69 108.855 18.6466 108.819 18.598C108.752 18.5091 108.743 18.4218 108.743 18.376H109.243H109.743C109.743 18.2822 109.722 18.1349 109.619 17.998C109.498 17.8369 109.314 17.756 109.123 17.756V18.256ZM109.243 18.376H108.743C108.743 18.2623 108.802 18.1212 108.947 18.0488L109.171 18.496L109.394 18.9432C109.635 18.8228 109.743 18.5857 109.743 18.376H109.243ZM109.171 18.496L108.973 18.0367C108.359 18.3008 107.63 18.7855 106.874 19.3321C106.119 19.8782 105.274 20.5339 104.469 21.1302C103.65 21.7373 102.849 22.3007 102.121 22.7113C101.376 23.1317 100.783 23.348 100.363 23.348V23.848V24.348C101.059 24.348 101.845 24.0153 102.613 23.5822C103.397 23.1393 104.24 22.5447 105.065 21.9338C105.904 21.3121 106.703 20.6898 107.46 20.1424C108.216 19.5955 108.866 19.1712 109.368 18.9553L109.171 18.496ZM96.3789 21.16V21.66C96.6555 21.66 96.9636 21.5827 97.2714 21.4695C97.5863 21.3538 97.9332 21.1882 98.2973 20.9842C99.0257 20.576 99.8499 19.9986 100.662 19.3093L100.339 18.928L100.015 18.5467C99.2438 19.2014 98.4721 19.74 97.8085 20.1118C97.4765 20.2978 97.1785 20.4382 96.9263 20.531C96.6671 20.6263 96.4862 20.66 96.3789 20.66V21.16ZM100.339 18.928H100.839V18.784H100.339H99.8389V18.928H100.339ZM100.339 18.784H100.839C100.839 18.2505 100.705 17.7992 100.398 17.4821C100.089 17.1627 99.6816 17.06 99.3069 17.06V17.56V18.06C99.5082 18.06 99.6171 18.1132 99.6798 18.1779C99.7445 18.2448 99.8389 18.4055 99.8389 18.784H100.339ZM99.3069 17.56V17.06C98.4985 17.06 97.5889 17.5183 97.018 18.0619L97.3629 18.424L97.7077 18.7861C98.1449 18.3697 98.8193 18.06 99.3069 18.06V17.56ZM97.3629 18.424L97.0284 18.0524C96.6152 18.4243 96.2466 18.9362 95.9815 19.4244C95.7266 19.8937 95.5189 20.4298 95.5189 20.848H96.0189H96.5189C96.5189 20.6902 96.6231 20.3383 96.8603 19.9016C97.0872 19.4838 97.3906 19.0717 97.6974 18.7956L97.3629 18.424ZM96.0189 20.848H95.5189C95.5189 20.967 95.5374 21.1225 95.616 21.2709C95.7034 21.4362 95.8621 21.5809 96.0888 21.6263L96.1869 21.136L96.2849 20.6457C96.3299 20.6547 96.3775 20.6752 96.4198 20.7087C96.4608 20.7411 96.4858 20.7766 96.4998 20.8031C96.5244 20.8495 96.5189 20.873 96.5189 20.848H96.0189ZM96.1869 21.136L96.1249 21.6321L96.3169 21.6561L96.3789 21.16L96.4409 20.6639L96.2489 20.6399L96.1869 21.136ZM101.419 18.184L101.722 18.5814C103.074 17.5492 106.506 14.3805 108.997 11.5032L108.619 11.176L108.241 10.8488C105.787 13.6835 102.404 16.8028 101.115 17.7866L101.419 18.184ZM108.619 11.176L109.001 11.4984C109.854 10.4875 110.583 9.4896 111.102 8.64875C111.362 8.2289 111.573 7.84034 111.722 7.50354C111.863 7.18382 111.975 6.85246 111.975 6.568H111.475H110.975C110.975 6.63153 110.939 6.80118 110.808 7.09946C110.683 7.38066 110.496 7.7271 110.251 8.12325C109.763 8.9144 109.064 9.87251 108.237 10.8536L108.619 11.176ZM111.475 6.568H111.975C111.975 6.49743 111.975 6.31451 111.879 6.14593C111.822 6.04587 111.735 5.95674 111.617 5.89803C111.507 5.84262 111.396 5.828 111.307 5.828V6.328V6.828C111.29 6.828 111.236 6.82537 111.17 6.79246C111.098 6.75626 111.044 6.70013 111.011 6.64207C110.982 6.59157 110.976 6.55198 110.975 6.54578C110.974 6.53875 110.975 6.54297 110.975 6.568H111.475ZM111.307 6.328V5.828C111.127 5.828 110.961 5.89745 110.846 5.95536C110.718 6.02018 110.581 6.10802 110.443 6.20842C110.165 6.41002 109.841 6.69115 109.496 7.02408L109.843 7.384L110.19 7.74392C110.517 7.42885 110.804 7.18198 111.031 7.01757C111.144 6.93498 111.233 6.88032 111.296 6.84839C111.373 6.80955 111.367 6.828 111.307 6.828V6.328ZM109.843 7.384L109.493 7.02706C106.933 9.53824 102.541 15.5514 101 17.9106L101.419 18.184L101.838 18.4574C103.369 16.1126 107.713 10.1738 110.193 7.74094L109.843 7.384ZM108.44 22.24L108.643 21.7831L108.637 21.7804L108.44 22.24ZM108.2 19.384L107.765 19.1386L107.762 19.143L108.2 19.384ZM108.776 19.528L108.68 19.0373L108.439 19.0844L108.329 19.3044L108.776 19.528ZM109.304 21.976L109.282 22.4755L109.293 22.476H109.304V21.976ZM116.648 18.328L116.462 17.8638L116.402 17.888L116.35 17.9269L116.648 18.328ZM116.768 18.28V17.78H116.672L116.582 17.8158L116.768 18.28ZM116.768 18.496L116.491 18.08L116.478 18.0888L116.465 18.0985L116.768 18.496ZM108.968 19.168L108.552 18.8906L107.976 19.7542L109.011 19.6662L108.968 19.168ZM111.464 17.584L111.818 17.2304L111.818 17.2304L111.464 17.584ZM109.16 22.384V21.884C108.958 21.884 108.788 21.8475 108.643 21.7831L108.44 22.24L108.237 22.6969C108.524 22.8245 108.834 22.884 109.16 22.884V22.384ZM108.44 22.24L108.637 21.7804C108.39 21.6744 108.244 21.4374 108.244 20.992H107.744H107.244C107.244 21.6506 107.483 22.3736 108.243 22.6996L108.44 22.24ZM107.744 20.992H108.244C108.244 20.5479 108.402 20.0551 108.638 19.625L108.2 19.384L107.762 19.143C107.471 19.6729 107.244 20.3321 107.244 20.992H107.744ZM108.2 19.384L108.636 19.6294C109.535 18.0339 110.567 17.652 111.08 17.652V17.152V16.652C110.106 16.652 108.786 17.3261 107.765 19.1386L108.2 19.384ZM111.08 17.152V17.652C111.24 17.652 111.326 17.6842 111.354 17.7001C111.366 17.7068 111.353 17.7024 111.335 17.6767C111.315 17.6473 111.3 17.6054 111.3 17.56H111.8H112.3C112.3 17.2082 112.08 16.9634 111.85 16.8319C111.626 16.7038 111.353 16.652 111.08 16.652V17.152ZM111.8 17.56H111.3C111.3 17.5692 111.292 17.6428 111.197 17.777C111.106 17.9054 110.955 18.0595 110.733 18.2199C110.291 18.5399 109.605 18.8569 108.68 19.0373L108.776 19.528L108.872 20.0187C109.915 19.8151 110.742 19.4481 111.319 19.0301C111.608 18.8215 111.844 18.5931 112.012 18.3562C112.176 18.1252 112.3 17.8508 112.3 17.56H111.8ZM108.776 19.528L108.329 19.3044C107.997 19.9677 107.844 20.5266 107.844 20.992H108.344H108.844C108.844 20.7374 108.931 20.3363 109.223 19.7516L108.776 19.528ZM108.344 20.992H107.844C107.844 21.4336 107.982 21.819 108.277 22.0932C108.562 22.3586 108.931 22.4603 109.282 22.4755L109.304 21.976L109.326 21.4765C109.125 21.4677 109.014 21.4134 108.958 21.3608C108.91 21.317 108.844 21.2224 108.844 20.992H108.344ZM109.304 21.976V22.476H109.424V21.976V21.476H109.304V21.976ZM109.424 21.976V22.476C109.958 22.476 110.563 22.327 111.18 22.1018C111.803 21.8744 112.471 21.5573 113.14 21.1945C114.477 20.4689 115.854 19.5426 116.947 18.7291L116.648 18.328L116.35 17.9269C115.282 18.7214 113.947 19.6191 112.663 20.3155C112.021 20.6637 111.4 20.9571 110.837 21.1624C110.268 21.37 109.79 21.476 109.424 21.476V21.976ZM116.648 18.328L116.834 18.7922L116.954 18.7442L116.768 18.28L116.582 17.8158L116.462 17.8638L116.648 18.328ZM116.768 18.28V18.78C116.635 18.78 116.55 18.7207 116.514 18.6911C116.492 18.6725 116.465 18.6458 116.44 18.608C116.424 18.5843 116.364 18.4917 116.364 18.352H116.864H117.364C117.364 18.2003 117.298 18.0927 117.272 18.0533C117.236 17.9997 117.195 17.9565 117.154 17.9229C117.083 17.8633 116.949 17.78 116.768 17.78V18.28ZM116.864 18.352H116.364C116.364 18.2859 116.383 18.2175 116.419 18.159C116.452 18.1066 116.486 18.0832 116.491 18.08L116.768 18.496L117.046 18.912C117.212 18.8012 117.364 18.6148 117.364 18.352H116.864ZM116.768 18.496L116.465 18.0985C115.314 18.9761 113.914 19.9328 112.571 20.6673C111.203 21.4157 109.982 21.884 109.16 21.884V22.384V22.884C110.259 22.884 111.677 22.2963 113.051 21.5447C114.45 20.7792 115.894 19.7919 117.071 18.8935L116.768 18.496ZM108.968 19.168L109.011 19.6662C109.67 19.6101 110.383 19.3307 110.926 19.0154C111.2 18.8563 111.452 18.6759 111.643 18.4898C111.738 18.3969 111.829 18.2921 111.899 18.1774C111.966 18.0673 112.036 17.9119 112.036 17.728H111.536H111.036C111.036 17.6581 111.061 17.6302 111.045 17.6563C111.032 17.6778 111.002 17.7179 110.944 17.774C110.83 17.8856 110.651 18.0187 110.424 18.1506C109.965 18.4173 109.395 18.6299 108.926 18.6698L108.968 19.168ZM111.536 17.728H112.036C112.036 17.5006 111.92 17.3329 111.818 17.2304L111.464 17.584L111.111 17.9376C111.104 17.9311 111.036 17.8594 111.036 17.728H111.536ZM111.464 17.584L111.818 17.2304C111.67 17.0825 111.444 16.988 111.2 16.988V17.488V17.988C111.194 17.988 111.185 17.9867 111.173 17.9822C111.168 17.98 111.16 17.9763 111.151 17.9702C111.141 17.9644 111.127 17.9542 111.111 17.9376L111.464 17.584ZM111.2 17.488V16.988C110.825 16.988 110.374 17.1557 109.931 17.4544C109.476 17.7611 108.993 18.2296 108.552 18.8906L108.968 19.168L109.384 19.4453C109.759 18.8824 110.153 18.5109 110.49 18.2836C110.839 18.0483 111.095 17.988 111.2 17.988V17.488Z" fill="#8B9B68" mask="url(#path-1-outside-1_67_1054)"/>
</svg>
