<svg width="791" height="130" viewBox="0 0 791 130" fill="none" xmlns="http://www.w3.org/2000/svg">
<path d="M487 112.303C486.6 110.026 486.507 107.443 486.507 104.674C486.507 88.0239 493.148 63.9315 500.281 51.7421C494.632 55.2105 464.715 88.7163 449.95 94.761C449.058 95.1605 448.366 95.2537 447.674 95.2537C445.592 95.2537 444.507 93.6693 444.507 90.6935C444.507 80.8808 456.597 56.8948 480.964 36.3773C465.707 41.2371 414.284 49.8581 414.284 56.8948L414.384 57.3874C414.384 57.7869 414.085 58.0798 413.792 58.0798C413.393 58.0798 413.1 57.7802 413 57.1877V56.7883C413 47.0754 471.156 39.6393 485.13 32.9022L485.622 32.8024C486.414 32.8024 487.805 33.5946 487.805 34.4866C487.805 34.7862 487.605 35.0791 487.113 35.3787C481.863 38.7473 470.664 50.2443 462.446 61.941C454.122 73.7376 447.681 85.8271 447.681 90.587C447.681 91.8785 448.173 92.5708 449.265 92.5708C450.056 92.5708 451.347 92.0782 452.931 91.0863C468.588 81.4732 497.22 49.6518 503.262 47.375H503.562C504.653 47.375 506.636 48.4668 506.636 49.259L506.536 49.4587C496.428 63.339 489.395 92.178 489.395 106.95C489.395 112.503 490.387 116.071 492.662 116.071C507.028 115.578 553.101 24.5807 585.3 11.0999C585.599 11 585.792 11 585.892 11C586.291 11 586.484 11.0999 586.484 11.2996C586.484 11.4993 586.285 11.7922 585.892 11.8921C556.96 23.1894 508.219 119.14 491.97 119.14C489.595 119.14 487.911 117.056 487.02 112.303H487Z" fill="#8B9B68" stroke="#8B9B68" stroke-width="1.5" stroke-miterlimit="10"/>
<path d="M544.763 89.009C542.681 88.1169 541.889 86.1331 541.889 83.8563C541.889 81.5795 542.68 79.1963 543.772 77.2124C547.738 70.1758 552.588 67.9922 555.663 67.9922C557.446 67.9922 558.637 68.6845 558.637 69.6765C558.637 72.1529 554.279 76.2205 546.154 77.8049C544.863 80.3813 544.371 82.3651 544.371 83.8497C544.371 86.6257 546.054 87.8174 548.336 87.9106H548.829C556.261 87.9106 569.736 79.4825 578.652 72.8453L579.145 72.6456C579.344 72.6456 579.544 72.8453 579.544 72.9452C579.544 73.1449 579.444 73.3446 579.145 73.5376C569.536 80.8739 555.663 89.5948 547.738 89.5948C546.646 89.5948 545.655 89.3951 544.763 89.0023V89.009ZM557.546 70.3755C557.546 70.1757 557.446 69.976 557.246 69.783C557.047 69.5833 556.654 69.3835 556.155 69.3835C554.172 69.3835 550.313 71.2675 546.939 76.3204C551.597 75.9209 557.539 72.2595 557.539 70.3755H557.546Z" fill="#8B9B68" stroke="#8B9B68" stroke-width="1.5" stroke-miterlimit="10"/>
<path d="M576.17 89.009C574.088 88.1169 573.296 86.1331 573.296 83.8563C573.296 81.5795 574.088 79.1963 575.179 77.2124C579.145 70.1758 583.996 67.9922 587.07 67.9922C588.853 67.9922 590.044 68.6845 590.044 69.6765C590.044 72.1529 585.686 76.2205 577.561 77.8049C576.27 80.3813 575.778 82.3651 575.778 83.8497C575.778 86.6257 577.461 87.8174 579.744 87.9106H580.236C587.669 87.9106 601.143 79.4825 610.06 72.8453L610.552 72.6456C610.752 72.6456 610.951 72.8453 610.951 72.9452C610.951 73.1449 610.851 73.3446 610.552 73.5376C600.943 80.8739 587.07 89.5948 579.145 89.5948C578.054 89.5948 577.062 89.3951 576.17 89.0023V89.009ZM588.946 70.3755C588.946 70.1757 588.846 69.976 588.647 69.783C588.447 69.5833 588.055 69.3835 587.556 69.3835C585.573 69.3835 581.713 71.2675 578.34 76.3204C582.998 75.9209 588.94 72.2595 588.94 70.3755H588.946Z" fill="#8B9B68" stroke="#8B9B68" stroke-width="1.5" stroke-miterlimit="10"/>
<path d="M619.961 94.5611C615.702 94.5611 614.312 88.5163 612.528 81.3798C604.504 87.7241 601.729 93.476 600.345 93.476H600.245C599.946 93.3761 599.846 93.0765 599.846 92.6838C599.846 88.7161 609.454 71.9665 620.753 55.8095C633.036 38.2677 646.91 22.3037 653.051 22.3037C653.451 22.3037 653.744 22.4036 654.143 22.5034C655.434 22.9961 655.926 23.988 655.926 25.2795C655.926 35.6847 618.577 68.4981 611.936 73.3512L605.102 85.2476C608.968 80.4877 620.853 70.3821 627.393 70.3821C628.778 70.3821 629.969 70.8747 630.76 71.9665C630.96 72.3659 631.16 72.7587 631.16 73.1582C631.16 75.142 628.485 77.5186 624.918 78.7103C621.551 79.8021 617.685 80.1948 614.91 80.1948H614.119C616.201 88.7161 616.993 92.6838 620.26 92.9833H620.46C627.194 92.9833 644.335 75.3417 651.967 72.6655L652.366 72.5657C652.566 72.5657 652.765 72.7654 652.765 72.8652C652.765 73.065 652.566 73.2647 652.273 73.3579C644.448 76.2338 628.891 93.7755 620.467 94.5677H619.974L619.961 94.5611ZM654.735 25.2728C654.735 24.5805 654.535 24.0812 654.143 23.6884C653.843 23.4887 653.551 23.3888 653.151 23.3888C645.719 23.3888 616.887 65.023 613.42 70.6684C617.479 67.1001 654.735 34.1935 654.735 25.2728ZM629.569 73.4444C629.569 72.9518 629.17 72.5524 628.378 72.5524L627.786 72.6522C626.595 72.9518 625.111 73.4444 623.328 74.2366C620.952 75.4283 618.178 77.1125 615.303 78.9965C625.211 78.697 629.569 75.1287 629.569 73.4444Z" fill="#8B9B68" stroke="#8B9B68" stroke-width="1.5" stroke-miterlimit="10"/>
<path d="M649.778 89.009C647.695 88.1169 646.903 86.1331 646.903 83.8563C646.903 81.5795 647.695 79.1963 648.786 77.2124C652.752 70.1758 657.603 67.9922 660.677 67.9922C662.46 67.9922 663.652 68.6845 663.652 69.6765C663.652 72.1529 659.293 76.2205 651.169 77.8049C649.878 80.3813 649.385 82.3651 649.385 83.8497C649.385 86.6257 651.069 87.8174 653.351 87.9106H653.843C661.276 87.9106 674.751 79.4825 683.667 72.8453L684.159 72.6456C684.359 72.6456 684.559 72.8453 684.559 72.9452C684.559 73.1449 684.459 73.3446 684.159 73.5376C674.551 80.8739 660.677 89.5948 652.752 89.5948C651.661 89.5948 650.67 89.3951 649.778 89.0023V89.009ZM662.56 70.3755C662.56 70.1757 662.46 69.976 662.261 69.783C662.061 69.5833 661.669 69.3835 661.17 69.3835C659.187 69.3835 655.327 71.2675 651.954 76.3204C656.612 75.9209 662.554 72.2595 662.554 70.3755H662.56Z" fill="#8B9B68" stroke="#8B9B68" stroke-width="1.5" stroke-miterlimit="10"/>
<path d="M673.359 91.2859V90.9864C674.251 88.6097 674.943 86.3263 677.026 82.8579C680.393 77.1061 683.959 71.6538 684.558 70.9614C684.858 70.6619 685.051 70.562 685.35 70.562C685.942 70.562 686.641 71.1545 686.641 71.6538C686.641 71.7537 686.541 71.9534 686.441 72.0532C682.475 77.4056 678.017 83.9497 675.049 89.8946C677.724 86.8189 689.016 74.4299 693.674 74.4299C694.073 74.4299 694.366 74.4299 694.666 74.6296C694.965 74.8293 695.358 74.9291 695.358 75.6215L695.258 76.3139C694.958 77.6986 694.765 79.3895 694.765 81.0738C694.765 85.4342 696.056 89.7947 699.716 89.8946C706.949 89.8946 721.415 76.0143 727.457 72.6457H727.756C727.956 72.6457 728.155 72.7456 728.155 72.9453C728.155 73.0452 728.056 73.145 727.856 73.2449C720.922 77.9049 706.756 91.2859 699.323 91.2859H699.124C692.882 91.0862 691.991 84.0495 691.991 79.0966V76.8198C685.257 80.6876 677.824 88.8161 674.65 91.9849L674.158 92.1846C673.759 92.1846 673.366 91.7852 673.366 91.2926L673.359 91.2859Z" fill="#8B9B68" stroke="#8B9B68" stroke-width="1.5" stroke-miterlimit="10"/>
<path d="M737.757 89.4022C737.757 86.726 738.649 83.0579 741.024 78.4977C733.791 84.0498 728.741 86.1268 725.767 86.1268C722.992 86.1268 721.801 84.5424 721.801 82.259C721.801 76.607 729.426 67.6864 737.85 67.6864C740.925 67.6864 743.5 69.0711 744.092 72.839C748.45 64.218 778.573 22.2842 787.683 22.2842C788.774 22.2842 789.665 22.7768 789.665 24.268C789.665 28.1359 783.916 38.3414 770.149 52.5212C762.024 60.8494 753.8 69.1709 745.283 75.5152C741.417 82.452 740.133 87.212 740.133 90.1877C740.133 93.3566 741.517 94.3485 743.207 94.3485C750.832 94.3485 770.555 75.9147 778.58 72.6393L778.879 72.5395C779.278 72.5395 779.372 72.839 779.372 73.0321C779.372 73.2252 779.272 73.4315 779.072 73.5247C769.856 77.4924 751.924 95.6267 742.714 95.6267C740.239 95.6267 737.764 94.0423 737.764 89.3822L737.757 89.4022ZM742.615 75.3288V74.7364C742.615 70.9684 740.732 69.6835 738.356 69.6835C735.681 69.6835 732.414 71.2679 730.331 73.2518C727.357 75.928 724.782 80.881 724.782 83.2642C724.782 83.8567 724.981 84.356 725.474 84.4559L726.266 84.5557C729.433 84.5557 736.074 80.8876 742.615 75.3355V75.3288ZM776.796 43.3143C783.73 35.086 788.587 27.1573 788.587 24.2813C788.587 23.6889 788.488 23.2894 787.895 23.2894C786.904 23.2894 784.628 24.9737 781.854 27.6499C771.453 37.8621 753.421 62.5403 747.08 72.2532C752.529 68.0924 766.596 55.1042 776.803 43.3077L776.796 43.3143Z" fill="#8B9B68" stroke="#8B9B68" stroke-width="1.5" stroke-miterlimit="10"/>
<path d="M338.809 66.5591C337.558 66.5591 336.614 66.8853 335.975 67.531C335.336 68.1768 334.877 69.2819 334.597 70.8397C334.597 70.8796 334.544 70.8996 334.431 70.8996C334.318 70.8996 334.265 70.8796 334.265 70.8397C334.305 70.5801 334.344 70.2072 334.384 69.7346C334.424 69.2619 334.471 68.7493 334.524 68.2034C334.577 67.6575 334.617 67.125 334.644 66.6124C334.677 66.0997 334.69 65.6803 334.69 65.3541C334.69 65.2543 334.744 65.201 334.857 65.201C334.97 65.201 335.023 65.2543 335.023 65.3541C335.023 65.5539 335.123 65.7003 335.329 65.7935C335.536 65.8867 335.762 65.9466 336.015 65.9733C336.268 65.9999 336.487 66.0199 336.667 66.0199C338.403 66.0798 340.44 66.1131 342.762 66.1131C344.199 66.1131 345.337 66.0998 346.175 66.0665C347.014 66.0332 347.826 66.0199 348.617 66.0199C349.303 66.0199 349.835 65.9733 350.208 65.8801C350.58 65.7869 350.82 65.5805 350.92 65.2609C350.94 65.1811 351 65.1411 351.099 65.1411C351.199 65.1411 351.252 65.1811 351.252 65.2609C351.232 65.5672 351.199 65.9799 351.159 66.5058C351.119 67.0318 351.086 67.5776 351.066 68.1435C351.046 68.7094 351.026 69.2353 351.006 69.7213C350.986 70.2073 350.973 70.5801 350.973 70.8463C350.973 70.8863 350.913 70.9063 350.793 70.9063C350.674 70.9063 350.614 70.8863 350.614 70.8463C350.554 69.2686 350.228 68.1635 349.642 67.5244C349.057 66.8853 348.085 66.5658 346.728 66.5658C345.876 66.5658 345.244 66.6057 344.818 66.6856C344.392 66.7655 344.113 66.9452 343.986 67.2182C343.853 67.4911 343.787 67.9305 343.787 68.5363V82.5231C343.787 83.1089 343.86 83.555 344 83.8612C344.139 84.1674 344.419 84.3671 344.831 84.467C345.244 84.5669 345.876 84.6201 346.728 84.6201C346.788 84.6201 346.821 84.68 346.821 84.7999C346.821 84.9197 346.788 84.9796 346.728 84.9796C346.202 84.9796 345.603 84.9663 344.938 84.9463C344.272 84.9263 343.54 84.913 342.755 84.913C342.01 84.913 341.298 84.9263 340.633 84.9463C339.967 84.9663 339.362 84.9796 338.816 84.9796C338.776 84.9796 338.756 84.9197 338.756 84.7999C338.756 84.68 338.776 84.6201 338.816 84.6201C339.648 84.6201 340.273 84.5669 340.712 84.467C341.145 84.3671 341.438 84.1608 341.577 83.8612C341.717 83.555 341.79 83.1156 341.79 82.5231V68.4764C341.79 67.8706 341.717 67.4312 341.577 67.1582C341.438 66.8853 341.152 66.7189 340.726 66.659C340.3 66.599 339.661 66.5658 338.816 66.5658L338.809 66.5591Z" fill="#8B9B68" stroke="#8B9B68" stroke-width="1.5" stroke-miterlimit="10"/>
<path d="M359.097 82.5164V68.4697C359.097 67.8839 359.031 67.4445 358.898 67.1516C358.765 66.8587 358.512 66.6589 358.139 66.5458C357.767 66.4326 357.201 66.3793 356.456 66.3793C356.416 66.3793 356.396 66.3194 356.396 66.1996C356.396 66.0798 356.416 66.0198 356.456 66.0198C356.942 66.0198 357.494 66.0332 358.106 66.0664C358.725 66.0997 359.364 66.113 360.029 66.113C360.774 66.113 361.453 66.0997 362.058 66.0664C362.664 66.0332 363.21 66.0198 363.695 66.0198C363.735 66.0198 363.755 66.0798 363.755 66.1996C363.755 66.3194 363.735 66.3793 363.695 66.3793C362.93 66.3793 362.358 66.4393 361.985 66.5591C361.613 66.6789 361.36 66.8919 361.227 67.1982C361.094 67.5044 361.027 67.9438 361.027 68.5363V82.5231C361.027 83.1089 361.087 83.5549 361.207 83.8612C361.327 84.1674 361.579 84.3671 361.965 84.467C362.351 84.5668 362.924 84.6201 363.695 84.6201C363.735 84.6201 363.755 84.68 363.755 84.7998C363.755 84.9197 363.735 84.9796 363.695 84.9796C363.19 84.9796 362.637 84.9663 362.045 84.9463C361.446 84.9263 360.774 84.913 360.029 84.913C359.364 84.913 358.711 84.9263 358.086 84.9463C357.461 84.9663 356.902 84.9796 356.416 84.9796C356.376 84.9796 356.356 84.9197 356.356 84.7998C356.356 84.68 356.376 84.6201 356.416 84.6201C357.161 84.6201 357.727 84.5668 358.113 84.467C358.499 84.3671 358.751 84.1607 358.885 83.8612C359.018 83.5549 359.084 83.1156 359.084 82.5231L359.097 82.5164ZM359.976 75.4132V74.7741H373.53V75.4132H359.976ZM372.685 68.5296C372.685 67.9438 372.625 67.4977 372.505 67.1915C372.386 66.8853 372.139 66.6789 371.76 66.5524C371.387 66.4326 370.802 66.3727 370.017 66.3727C369.957 66.3727 369.924 66.3128 369.924 66.1929C369.924 66.0731 369.957 66.0132 370.017 66.0132C370.502 66.0132 371.048 66.0265 371.654 66.0598C372.259 66.0931 372.938 66.1064 373.683 66.1064C374.349 66.1064 374.994 66.0931 375.626 66.0598C376.252 66.0265 376.797 66.0132 377.263 66.0132C377.323 66.0132 377.356 66.0731 377.356 66.1929C377.356 66.3128 377.323 66.3727 377.263 66.3727C376.518 66.3727 375.952 66.4259 375.58 66.5391C375.207 66.6523 374.954 66.852 374.821 67.1449C374.688 67.4378 374.621 67.8772 374.621 68.463V82.5098C374.621 83.0956 374.688 83.5416 374.821 83.8478C374.954 84.1541 375.207 84.3538 375.58 84.4537C375.952 84.5535 376.518 84.6068 377.263 84.6068C377.323 84.6068 377.356 84.6667 377.356 84.7865C377.356 84.9063 377.323 84.9663 377.263 84.9663C376.797 84.9663 376.252 84.9529 375.626 84.933C375.001 84.913 374.355 84.8997 373.683 84.8997C372.938 84.8997 372.259 84.913 371.654 84.933C371.048 84.9529 370.502 84.9663 370.017 84.9663C369.957 84.9663 369.924 84.9063 369.924 84.7865C369.924 84.6667 369.957 84.6068 370.017 84.6068C370.802 84.6068 371.387 84.5535 371.76 84.4537C372.133 84.3538 372.379 84.1474 372.505 83.8478C372.625 83.5416 372.685 83.1022 372.685 82.5098V68.523V68.5296Z" fill="#8B9B68" stroke="#8B9B68" stroke-width="1.5" stroke-miterlimit="10"/>
<path d="M395.428 84.9731H382.719C382.679 84.9731 382.659 84.9132 382.659 84.7934C382.659 84.6735 382.679 84.6136 382.719 84.6136C383.464 84.6136 384.023 84.5604 384.389 84.4605C384.755 84.3606 385.001 84.1543 385.134 83.8547C385.268 83.5485 385.334 83.1091 385.334 82.5166V68.4699C385.334 67.884 385.268 67.4447 385.134 67.1518C385.001 66.8588 384.755 66.6591 384.389 66.5459C384.023 66.4328 383.471 66.3795 382.719 66.3795C382.679 66.3795 382.659 66.3196 382.659 66.1998C382.659 66.0799 382.679 66.02 382.719 66.02H394.909C395.089 66.02 395.182 66.1132 395.182 66.293L395.242 70.0277C395.242 70.0876 395.189 70.1209 395.076 70.1342C394.963 70.1475 394.909 70.1209 394.909 70.061C394.849 68.9692 394.517 68.1304 393.924 67.5445C393.326 66.9587 392.554 66.6658 391.602 66.6658H389.752C389.067 66.6658 388.541 66.719 388.189 66.8189C387.836 66.9188 387.59 67.1118 387.463 67.3981C387.33 67.6843 387.264 68.0971 387.264 68.643V82.4167C387.264 82.9427 387.33 83.3487 387.463 83.6284C387.596 83.9146 387.829 84.101 388.162 84.2075C388.495 84.3074 388.994 84.3606 389.666 84.3606H392.095C393.066 84.3606 393.878 84.0145 394.537 83.3155C395.195 82.6165 395.621 81.6711 395.828 80.4795C395.828 80.4196 395.887 80.3996 396.007 80.4196C396.127 80.4395 396.187 80.4795 396.187 80.5394C396.107 81.0653 396.04 81.7044 395.987 82.45C395.934 83.1956 395.914 83.8946 395.914 84.5404C395.914 84.8466 395.754 84.9931 395.428 84.9931V84.9731ZM393.725 77.9031C393.725 77.0111 393.505 76.3786 393.073 75.9925C392.64 75.6064 391.915 75.4133 390.904 75.4133H386.352V74.7743H390.99C391.962 74.7743 392.654 74.6078 393.066 74.275C393.479 73.9421 393.685 73.4029 393.685 72.6506C393.685 72.6107 393.745 72.5907 393.865 72.5907C393.984 72.5907 394.044 72.6107 394.044 72.6506C394.044 73.2564 394.044 73.7291 394.031 74.0619C394.018 74.3948 394.018 74.7476 394.018 75.1071C394.018 75.5731 394.031 76.0258 394.051 76.4719C394.071 76.9179 394.084 77.3905 394.084 77.8965C394.084 77.9364 394.024 77.9564 393.905 77.9564C393.785 77.9564 393.725 77.9364 393.725 77.8965V77.9031Z" fill="#8B9B68" stroke="#8B9B68" stroke-width="1.5" stroke-miterlimit="10"/>
<path d="M91.3487 128.372C67.6669 127.281 52.0166 106.171 52.0166 81.8851L52.1164 78.6164C31.0164 88.529 11.4934 100.619 2.28423 116.083C2.08461 116.483 1.79183 116.576 1.59221 116.576C1.29278 116.576 1 116.276 1 115.884L1.19962 115.291C11.1075 98.9342 30.331 86.7449 52.2229 76.4329C54.0061 49.7707 75.6052 29.5461 98.2955 29.5461C105.828 29.5461 113.354 31.7297 120.387 36.5828C124.745 39.6584 128.412 43.5196 130.395 47.5872C137.528 45.2105 181.318 28.8538 183.7 26.7701C188.558 18.149 203.416 1 217.682 1C218.873 1 219.958 1.19972 221.149 1.39943C222.833 1.79887 223.525 2.59107 223.525 3.6762C223.525 6.3524 218.474 10.8127 213.124 13.8884C206.983 17.4566 197.274 22.809 186.675 27.6688C180.925 36.9889 174.983 49.1782 167.451 66.5269C153.484 99.0408 135.352 128.479 94.9285 128.479L91.362 128.379L91.3487 128.372ZM182.103 29.5461L131.28 49.2714C131.972 51.1554 132.371 52.9396 132.371 54.7237C132.371 58.292 130.887 61.6605 128.112 64.836C127.813 65.0357 127.62 65.1356 127.42 65.1356C127.021 65.1356 126.828 64.9359 126.828 64.5431C126.828 64.3434 126.928 64.1437 127.227 63.8507C129.503 61.3743 130.594 58.4983 130.594 55.6224C130.594 53.7384 130.102 51.8544 129.403 49.9704L120.287 52.9462C94.2299 61.3743 72.1384 69.303 54.106 77.7244L54.0061 80.3007C54.0061 102.303 67.1812 124.012 91.1623 125.104L94.5293 125.204C150.31 125.204 158.827 67.9116 182.11 29.5528L182.103 29.5461ZM128.605 48.1797C123.747 38.9594 111.763 31.53 98.0892 31.53C86.1984 31.53 72.9236 37.2818 62.3237 52.4469C57.5661 59.0908 54.8911 67.2193 54.1991 75.5408C77.3818 64.9359 99.7727 57.8992 128.605 48.1797ZM221.535 4.16883L221.435 3.7694C221.236 3.27677 220.344 2.97719 218.96 2.97719C213.311 2.97719 199.444 7.83696 188.145 25.0791C193.495 22.6027 221.535 8.72237 221.535 4.16218V4.16883Z" fill="#8B9B68" stroke="#8B9B68" stroke-width="1.5" stroke-miterlimit="10"/>
<path d="M204.494 91.1055C202.218 91.1055 201.327 89.1216 201.327 86.3456C201.327 83.5695 202.218 79.9014 203.802 76.6327C199.936 79.5086 196.968 80.6004 194.886 80.6004C192.111 80.6004 190.827 78.7164 190.827 76.2399C190.827 72.179 194.293 66.6269 200.834 64.8428C201.427 64.6431 202.125 64.6431 202.717 64.6431C204.9 64.6431 206.776 65.7349 208.659 68.4111L210.044 66.3273C210.143 66.1276 210.343 66.0278 210.636 66.0278C211.328 66.0278 212.219 66.82 212.219 67.4125L212.12 67.712C210.237 70.0887 208.353 73.2642 206.371 76.8324C203.995 81.093 203.203 84.3684 203.203 86.4454C203.203 88.5225 203.895 89.5211 204.887 89.6143H205.086C211.627 89.6143 230.744 70.2884 239.661 67.8052L240.06 67.7054C240.359 67.7054 240.552 67.9051 240.552 68.1048C240.552 68.2047 240.353 68.4044 240.153 68.5975C228.462 73.4572 212.013 90.8991 204.78 91.0988H204.481L204.494 91.1055ZM207.668 69.7891C206.184 67.2128 204.501 66.2208 202.811 66.2208C200.136 66.2208 197.461 68.6973 195.378 71.4734C193.395 74.0497 192.603 75.9337 192.603 77.3251C192.603 78.6166 193.395 79.3089 194.786 79.3089C197.461 79.3089 202.611 76.3331 207.668 69.7957V69.7891Z" fill="#8B9B68" stroke="#8B9B68" stroke-width="1.5" stroke-miterlimit="10"/>
<path d="M235.109 85.1536C234.81 85.0538 234.71 84.5611 234.71 83.962C234.71 79.6015 240.359 65.1287 240.852 64.3365C241.151 63.8439 241.643 63.6442 242.143 63.6442C242.835 63.6442 243.334 63.9437 243.334 64.6361C243.334 64.8358 243.334 65.0355 243.234 65.2286C240.559 71.3732 238.376 77.2249 236.5 83.4693C242.342 79.5017 249.282 73.357 253.341 67.512C253.042 66.62 252.942 65.9276 252.942 65.2352C252.942 63.0517 254.326 61.8667 255.318 61.8667C256.109 61.8667 256.702 62.3593 256.702 63.551C256.702 64.5429 256.209 65.9276 254.918 67.8116C256.901 70.5876 260.168 71.4797 263.735 71.4797C268.885 71.4797 274.534 69.396 277.11 67.9114L277.409 67.8116C277.609 67.8116 277.708 67.9114 277.708 68.0113C277.708 68.1112 277.609 68.3109 277.216 68.5039C274.841 69.9885 268.992 72.3718 263.442 72.3718C259.975 72.3718 256.509 71.4797 254.226 68.7037C251.651 72.7646 238.476 85.2601 235.402 85.2601L235.103 85.1603L235.109 85.1536ZM255.517 63.3446C255.517 62.9452 255.417 62.852 255.218 62.852C254.725 62.852 254.027 63.6442 254.027 65.0355C254.027 65.435 254.027 65.9276 254.226 66.4202C255.218 64.8358 255.517 63.8439 255.517 63.3446Z" fill="#8B9B68" stroke="#8B9B68" stroke-width="1.5" stroke-miterlimit="10"/>
<path d="M274.341 84.1618C272.259 83.2698 271.467 81.2859 271.467 79.0092C271.467 76.7324 272.259 74.3491 273.35 72.3653C277.316 65.3286 282.166 63.145 285.241 63.145C287.024 63.145 288.215 63.8374 288.215 64.8293C288.215 67.3058 283.857 71.3733 275.732 72.9577C274.441 75.5341 273.949 77.5179 273.949 79.0025C273.949 81.7786 275.632 82.9702 277.915 83.0634H278.407C285.84 83.0634 299.314 74.6354 308.23 67.9981L308.723 67.7984C308.922 67.7984 309.122 67.9981 309.122 68.098C309.122 68.2977 309.022 68.4974 308.723 68.6905C299.114 76.0267 285.241 84.7477 277.316 84.7477C276.224 84.7477 275.233 84.548 274.341 84.1552V84.1618ZM287.124 65.5283C287.124 65.3286 287.024 65.1289 286.824 64.9358C286.625 64.7361 286.232 64.5364 285.733 64.5364C283.75 64.5364 279.891 66.4204 276.517 71.4732C281.175 71.0738 287.117 67.4123 287.117 65.5283H287.124Z" fill="#8B9B68" stroke="#8B9B68" stroke-width="1.5" stroke-miterlimit="10"/>
</svg>
