<svg width="233" height="62" viewBox="0 0 233 62" fill="none" xmlns="http://www.w3.org/2000/svg">
<mask id="path-1-outside-1_13_187" maskUnits="userSpaceOnUse" x="0" y="0" width="233" height="62" fill="black">
<rect fill="white" width="233" height="62"/>
<path d="M20.0493 61.432C19.6653 61.432 19.3773 61.288 19.2813 60.904V60.664C19.2813 59.944 19.9533 58.408 22.5453 58.408L23.6973 58.504C39.6813 46.456 48.6573 21.352 62.6733 8.824C43.7133 11.608 9.53725 8.968 1.80925 23.416C1.71325 23.56 1.56925 23.656 1.47325 23.656C1.37725 23.656 1.28125 23.56 1.28125 23.416C1.28125 23.368 1.28125 23.272 1.32925 23.176C9.48925 7.96 47.0253 10.6 63.6333 7.864C65.0253 6.712 72.9453 0.663996 76.4493 0.663996C76.9293 0.663996 77.3133 0.807997 77.6013 1.048C77.9853 1.384 78.1293 1.768 78.1293 2.104C78.1293 4.552 71.2653 7.096 69.2973 7.576C68.0493 7.912 66.8013 8.2 65.4093 8.44C49.1373 22.312 42.1773 45.304 25.1853 58.792C29.3133 59.656 33.3933 60.088 37.3293 60.088C54.2733 60.088 69.2973 52.216 75.6333 36.904C77.9373 31.48 79.0413 26.296 79.0413 21.976C79.0413 15.976 76.8333 11.704 72.5613 10.984C71.9853 10.888 71.3613 10.84 70.7853 10.84C62.4333 10.84 58.0173 20.68 57.1533 24.184C57.1533 24.232 56.8653 24.568 56.6252 24.568C56.4813 24.568 56.3853 24.424 56.3853 24.136C56.3853 23.656 56.6252 22.744 57.2493 21.064C59.6493 15.064 64.8333 9.976 70.6413 9.976C71.3613 9.976 72.0333 10.072 72.7053 10.216C78.6573 11.416 80.4813 16.504 80.4813 22.12C80.4813 27.784 78.6573 34.024 77.1693 37.624C70.4493 54.376 55.0893 61 38.4813 61C33.7773 61 28.9293 60.472 24.1773 59.464C23.6013 59.944 21.2973 61.432 20.0493 61.432ZM20.0493 60.664L21.7773 59.848C22.0653 59.704 22.4013 59.512 22.7373 59.272H22.3533C20.4813 59.272 20.0493 60.472 20.0493 60.664ZM66.6093 7.384C69.5373 7.288 77.3613 4.072 77.3613 2.2C77.3613 2.008 77.2653 1.816 77.0733 1.672C76.9773 1.576 76.7853 1.528 76.5453 1.528C74.3853 1.528 68.3853 5.944 66.6093 7.384ZM83.9597 45.688L83.3837 45.592C82.6157 45.352 82.3277 44.776 82.3277 44.056C82.3277 42.184 84.1997 39.208 84.6318 37.864C84.7278 37.528 84.8238 37.144 84.8238 36.856C84.8238 36.52 84.7278 36.28 84.5358 36.136C84.1997 35.944 84.0557 35.656 84.0557 35.32C84.0557 34.168 85.6398 32.392 86.8398 32.392L87.0798 32.44C87.2718 32.488 87.3678 32.584 87.3678 32.776C87.3678 33.496 85.8798 35.128 85.1598 35.56C85.5438 35.896 85.6878 36.376 85.6878 36.904C85.6878 39.112 83.0477 42.472 83.0477 44.008C83.0477 44.44 83.1917 44.68 83.6237 44.824C83.7677 44.872 83.9117 44.872 84.1037 44.872C87.3678 44.872 97.5438 37.528 100.184 35.704C100.328 35.608 100.424 35.608 100.52 35.608C100.616 35.608 100.664 35.608 100.664 35.704C100.664 35.752 100.616 35.896 100.424 35.992C97.5438 38.008 87.6558 45.688 83.9597 45.688ZM84.9198 35.128C85.6398 34.744 86.6478 33.352 86.6478 33.16C86.6478 33.112 86.6478 33.112 86.5998 33.112C86.0718 33.4 84.9198 34.744 84.9198 35.08V35.128ZM100.477 43.768C99.9486 43.768 99.4686 43.672 99.0366 43.48C98.0286 43.048 97.6446 42.088 97.6446 40.984C97.6446 39.88 98.0286 38.728 98.5566 37.768C100.477 34.36 102.829 33.304 104.317 33.304C105.181 33.304 105.757 33.64 105.757 34.12C105.757 35.32 103.645 37.288 99.7086 38.056C99.0846 39.304 98.8446 40.264 98.8446 40.984C98.8446 42.328 99.6606 42.904 100.765 42.952H101.005C104.605 42.952 111.133 38.872 115.453 35.656L115.693 35.56C115.789 35.56 115.885 35.656 115.885 35.704C115.885 35.8 115.837 35.896 115.693 35.992C111.037 39.544 104.317 43.768 100.477 43.768ZM100.093 37.336C102.349 37.144 105.229 35.368 105.229 34.456C105.229 34.36 105.181 34.264 105.085 34.168C104.989 34.072 104.797 33.976 104.557 33.976C103.597 33.976 101.725 34.888 100.093 37.336ZM108.991 50.824C107.647 50.824 106.687 49.96 106.687 48.664C106.687 47.608 107.311 46.216 108.895 44.776C110.143 43.576 111.967 42.424 114.655 41.32C114.943 39.4 114.895 36.904 115.567 35.08C116.287 33.16 118.015 32.008 119.071 32.008C119.455 32.008 119.743 32.152 119.887 32.488L119.935 32.776C119.935 34.024 117.055 35.464 116.575 35.656C116.191 37.24 116.239 38.68 115.903 40.84C121.135 39.304 127.759 37.144 129.583 35.56C129.631 35.512 129.679 35.512 129.727 35.512C129.823 35.512 129.871 35.56 129.871 35.656L129.823 35.8C127.183 38.2 119.407 40.072 115.759 41.512C114.511 48.376 111.247 50.824 108.991 50.824ZM116.719 35.032C117.247 34.792 119.503 33.592 119.503 32.872V32.776C119.455 32.536 119.311 32.44 119.119 32.44C118.399 32.44 116.959 33.976 116.719 35.032ZM108.991 50.248C111.103 50.248 114.031 46.312 114.559 42.04C112.879 42.712 110.575 43.912 109.183 45.304C107.839 46.696 107.359 47.8 107.359 48.568C107.359 49.192 107.599 49.576 107.983 49.864C108.271 50.104 108.607 50.248 108.991 50.248ZM122.96 50.824C121.616 50.824 120.656 49.96 120.656 48.664C120.656 47.608 121.28 46.216 122.864 44.776C124.112 43.576 125.936 42.424 128.624 41.32C128.912 39.4 128.864 36.904 129.536 35.08C130.256 33.16 131.984 32.008 133.04 32.008C133.424 32.008 133.712 32.152 133.856 32.488L133.904 32.776C133.904 34.024 131.024 35.464 130.544 35.656C130.16 37.24 130.208 38.68 129.872 40.84C135.104 39.304 141.728 37.144 143.552 35.56C143.6 35.512 143.648 35.512 143.696 35.512C143.792 35.512 143.84 35.56 143.84 35.656L143.792 35.8C141.152 38.2 133.376 40.072 129.728 41.512C128.48 48.376 125.216 50.824 122.96 50.824ZM130.688 35.032C131.216 34.792 133.472 33.592 133.472 32.872V32.776C133.424 32.536 133.28 32.44 133.088 32.44C132.368 32.44 130.928 33.976 130.688 35.032ZM122.96 50.248C125.072 50.248 128 46.312 128.528 42.04C126.848 42.712 124.544 43.912 123.152 45.304C121.808 46.696 121.328 47.8 121.328 48.568C121.328 49.192 121.568 49.576 121.952 49.864C122.24 50.104 122.576 50.248 122.96 50.248ZM163.059 43.816C162.531 43.816 162.051 43.72 161.619 43.528C160.563 43.048 160.131 41.992 160.131 40.792C160.131 39.784 160.467 38.68 160.899 37.816C162.675 34.648 164.739 33.544 166.179 33.544C167.331 33.544 168.099 34.168 168.147 34.984C168.147 35.272 168.003 35.416 167.859 35.416C167.715 35.416 167.619 35.32 167.571 35.176C167.523 34.936 167.427 34.744 167.283 34.648C167.043 34.408 166.755 34.312 166.419 34.312C165.075 34.312 163.203 36.04 162.339 37.72C161.571 39.112 161.283 40.168 161.283 40.984C161.283 42.328 162.195 42.904 163.299 42.952H163.539C167.139 42.952 173.523 38.872 177.795 35.656L178.035 35.56C178.131 35.56 178.227 35.656 178.227 35.752C178.227 35.8 178.179 35.896 178.035 35.992C173.523 39.544 166.899 43.816 163.059 43.816ZM175.56 43.912C175.272 43.912 174.984 43.816 174.744 43.576C174.456 43.288 174.36 42.856 174.36 42.376C174.36 41.272 174.936 39.832 175.416 38.92C176.088 37.48 177.048 36.136 177.912 35.32C177.384 34.888 177.192 34.504 177.192 34.216C177.192 33.832 177.576 33.592 178.056 33.592C178.488 33.592 179.016 33.784 179.352 34.264C180.6 35.896 179.256 35.512 181.032 36.424C182.088 36.952 183.432 37.144 184.776 37.144C187.32 37.144 190.056 36.424 191.736 35.608L191.928 35.56C192.024 35.56 192.12 35.608 192.12 35.704C192.12 35.752 192.024 35.848 191.88 35.944C189.96 36.856 187.224 37.672 184.536 37.672C183 37.672 181.512 37.384 180.168 36.712V36.76C180.168 39.832 177.432 43.912 175.56 43.912ZM178.824 34.936L178.2 34.408C178.344 34.6 178.536 34.744 178.824 34.936ZM175.848 43.192C177.192 43.192 179.4 39.208 179.4 36.952L179.304 36.28L178.92 36.04C176.376 38.584 175.416 41.56 175.416 42.664C175.416 42.904 175.464 43.048 175.512 43.096C175.608 43.144 175.704 43.192 175.848 43.192ZM199.226 46.696C198.026 46.696 196.826 45.928 196.826 43.672C196.826 42.376 197.258 40.6 198.41 38.392C194.906 41.08 192.458 42.088 191.018 42.088C189.674 42.088 189.098 41.32 189.098 40.216C189.098 37.48 192.794 33.16 196.874 33.16C198.362 33.16 199.61 33.832 199.898 35.656C202.01 31.48 216.602 11.176 221.018 11.176C221.546 11.176 221.978 11.416 221.978 12.136C221.978 14.008 219.194 18.952 212.522 25.816C208.586 29.848 204.602 33.88 200.474 36.952C198.602 40.312 197.978 42.616 197.978 44.056C197.978 45.592 198.65 46.072 199.466 46.072C203.162 46.072 212.714 37.144 216.602 35.56L216.746 35.512C216.938 35.512 216.986 35.656 216.986 35.752C216.986 35.848 216.938 35.944 216.842 35.992C212.378 37.912 203.69 46.696 199.226 46.696ZM191.258 41.32C192.794 41.32 196.01 39.544 199.178 36.856V36.568C199.178 34.744 198.266 34.12 197.114 34.12C195.818 34.12 194.234 34.888 193.226 35.848C191.786 37.144 190.538 39.544 190.538 40.696C190.538 40.984 190.634 41.224 190.874 41.272L191.258 41.32ZM201.338 35.368C203.978 33.352 210.794 27.064 215.738 21.352C219.098 17.368 221.45 13.528 221.45 12.136C221.45 11.848 221.402 11.656 221.114 11.656C220.634 11.656 219.53 12.472 218.186 13.768C213.146 18.712 204.41 30.664 201.338 35.368ZM216.82 43.768C216.292 43.768 215.812 43.672 215.38 43.48C214.372 43.048 213.988 42.088 213.988 40.984C213.988 39.88 214.372 38.728 214.9 37.768C216.82 34.36 219.172 33.304 220.66 33.304C221.524 33.304 222.1 33.64 222.1 34.12C222.1 35.32 219.988 37.288 216.052 38.056C215.428 39.304 215.188 40.264 215.188 40.984C215.188 42.328 216.004 42.904 217.108 42.952H217.348C220.948 42.952 227.476 38.872 231.796 35.656L232.036 35.56C232.132 35.56 232.228 35.656 232.228 35.704C232.228 35.8 232.18 35.896 232.036 35.992C227.38 39.544 220.66 43.768 216.82 43.768ZM216.436 37.336C218.692 37.144 221.572 35.368 221.572 34.456C221.572 34.36 221.524 34.264 221.428 34.168C221.332 34.072 221.14 33.976 220.9 33.976C219.94 33.976 218.068 34.888 216.436 37.336Z"/>
</mask>
<path d="M20.0493 61.432C19.6653 61.432 19.3773 61.288 19.2813 60.904V60.664C19.2813 59.944 19.9533 58.408 22.5453 58.408L23.6973 58.504C39.6813 46.456 48.6573 21.352 62.6733 8.824C43.7133 11.608 9.53725 8.968 1.80925 23.416C1.71325 23.56 1.56925 23.656 1.47325 23.656C1.37725 23.656 1.28125 23.56 1.28125 23.416C1.28125 23.368 1.28125 23.272 1.32925 23.176C9.48925 7.96 47.0253 10.6 63.6333 7.864C65.0253 6.712 72.9453 0.663996 76.4493 0.663996C76.9293 0.663996 77.3133 0.807997 77.6013 1.048C77.9853 1.384 78.1293 1.768 78.1293 2.104C78.1293 4.552 71.2653 7.096 69.2973 7.576C68.0493 7.912 66.8013 8.2 65.4093 8.44C49.1373 22.312 42.1773 45.304 25.1853 58.792C29.3133 59.656 33.3933 60.088 37.3293 60.088C54.2733 60.088 69.2973 52.216 75.6333 36.904C77.9373 31.48 79.0413 26.296 79.0413 21.976C79.0413 15.976 76.8333 11.704 72.5613 10.984C71.9853 10.888 71.3613 10.84 70.7853 10.84C62.4333 10.84 58.0173 20.68 57.1533 24.184C57.1533 24.232 56.8653 24.568 56.6252 24.568C56.4813 24.568 56.3853 24.424 56.3853 24.136C56.3853 23.656 56.6252 22.744 57.2493 21.064C59.6493 15.064 64.8333 9.976 70.6413 9.976C71.3613 9.976 72.0333 10.072 72.7053 10.216C78.6573 11.416 80.4813 16.504 80.4813 22.12C80.4813 27.784 78.6573 34.024 77.1693 37.624C70.4493 54.376 55.0893 61 38.4813 61C33.7773 61 28.9293 60.472 24.1773 59.464C23.6013 59.944 21.2973 61.432 20.0493 61.432ZM20.0493 60.664L21.7773 59.848C22.0653 59.704 22.4013 59.512 22.7373 59.272H22.3533C20.4813 59.272 20.0493 60.472 20.0493 60.664ZM66.6093 7.384C69.5373 7.288 77.3613 4.072 77.3613 2.2C77.3613 2.008 77.2653 1.816 77.0733 1.672C76.9773 1.576 76.7853 1.528 76.5453 1.528C74.3853 1.528 68.3853 5.944 66.6093 7.384ZM83.9597 45.688L83.3837 45.592C82.6157 45.352 82.3277 44.776 82.3277 44.056C82.3277 42.184 84.1997 39.208 84.6318 37.864C84.7278 37.528 84.8238 37.144 84.8238 36.856C84.8238 36.52 84.7278 36.28 84.5358 36.136C84.1997 35.944 84.0557 35.656 84.0557 35.32C84.0557 34.168 85.6398 32.392 86.8398 32.392L87.0798 32.44C87.2718 32.488 87.3678 32.584 87.3678 32.776C87.3678 33.496 85.8798 35.128 85.1598 35.56C85.5438 35.896 85.6878 36.376 85.6878 36.904C85.6878 39.112 83.0477 42.472 83.0477 44.008C83.0477 44.44 83.1917 44.68 83.6237 44.824C83.7677 44.872 83.9117 44.872 84.1037 44.872C87.3678 44.872 97.5438 37.528 100.184 35.704C100.328 35.608 100.424 35.608 100.52 35.608C100.616 35.608 100.664 35.608 100.664 35.704C100.664 35.752 100.616 35.896 100.424 35.992C97.5438 38.008 87.6558 45.688 83.9597 45.688ZM84.9198 35.128C85.6398 34.744 86.6478 33.352 86.6478 33.16C86.6478 33.112 86.6478 33.112 86.5998 33.112C86.0718 33.4 84.9198 34.744 84.9198 35.08V35.128ZM100.477 43.768C99.9486 43.768 99.4686 43.672 99.0366 43.48C98.0286 43.048 97.6446 42.088 97.6446 40.984C97.6446 39.88 98.0286 38.728 98.5566 37.768C100.477 34.36 102.829 33.304 104.317 33.304C105.181 33.304 105.757 33.64 105.757 34.12C105.757 35.32 103.645 37.288 99.7086 38.056C99.0846 39.304 98.8446 40.264 98.8446 40.984C98.8446 42.328 99.6606 42.904 100.765 42.952H101.005C104.605 42.952 111.133 38.872 115.453 35.656L115.693 35.56C115.789 35.56 115.885 35.656 115.885 35.704C115.885 35.8 115.837 35.896 115.693 35.992C111.037 39.544 104.317 43.768 100.477 43.768ZM100.093 37.336C102.349 37.144 105.229 35.368 105.229 34.456C105.229 34.36 105.181 34.264 105.085 34.168C104.989 34.072 104.797 33.976 104.557 33.976C103.597 33.976 101.725 34.888 100.093 37.336ZM108.991 50.824C107.647 50.824 106.687 49.96 106.687 48.664C106.687 47.608 107.311 46.216 108.895 44.776C110.143 43.576 111.967 42.424 114.655 41.32C114.943 39.4 114.895 36.904 115.567 35.08C116.287 33.16 118.015 32.008 119.071 32.008C119.455 32.008 119.743 32.152 119.887 32.488L119.935 32.776C119.935 34.024 117.055 35.464 116.575 35.656C116.191 37.24 116.239 38.68 115.903 40.84C121.135 39.304 127.759 37.144 129.583 35.56C129.631 35.512 129.679 35.512 129.727 35.512C129.823 35.512 129.871 35.56 129.871 35.656L129.823 35.8C127.183 38.2 119.407 40.072 115.759 41.512C114.511 48.376 111.247 50.824 108.991 50.824ZM116.719 35.032C117.247 34.792 119.503 33.592 119.503 32.872V32.776C119.455 32.536 119.311 32.44 119.119 32.44C118.399 32.44 116.959 33.976 116.719 35.032ZM108.991 50.248C111.103 50.248 114.031 46.312 114.559 42.04C112.879 42.712 110.575 43.912 109.183 45.304C107.839 46.696 107.359 47.8 107.359 48.568C107.359 49.192 107.599 49.576 107.983 49.864C108.271 50.104 108.607 50.248 108.991 50.248ZM122.96 50.824C121.616 50.824 120.656 49.96 120.656 48.664C120.656 47.608 121.28 46.216 122.864 44.776C124.112 43.576 125.936 42.424 128.624 41.32C128.912 39.4 128.864 36.904 129.536 35.08C130.256 33.16 131.984 32.008 133.04 32.008C133.424 32.008 133.712 32.152 133.856 32.488L133.904 32.776C133.904 34.024 131.024 35.464 130.544 35.656C130.16 37.24 130.208 38.68 129.872 40.84C135.104 39.304 141.728 37.144 143.552 35.56C143.6 35.512 143.648 35.512 143.696 35.512C143.792 35.512 143.84 35.56 143.84 35.656L143.792 35.8C141.152 38.2 133.376 40.072 129.728 41.512C128.48 48.376 125.216 50.824 122.96 50.824ZM130.688 35.032C131.216 34.792 133.472 33.592 133.472 32.872V32.776C133.424 32.536 133.28 32.44 133.088 32.44C132.368 32.44 130.928 33.976 130.688 35.032ZM122.96 50.248C125.072 50.248 128 46.312 128.528 42.04C126.848 42.712 124.544 43.912 123.152 45.304C121.808 46.696 121.328 47.8 121.328 48.568C121.328 49.192 121.568 49.576 121.952 49.864C122.24 50.104 122.576 50.248 122.96 50.248ZM163.059 43.816C162.531 43.816 162.051 43.72 161.619 43.528C160.563 43.048 160.131 41.992 160.131 40.792C160.131 39.784 160.467 38.68 160.899 37.816C162.675 34.648 164.739 33.544 166.179 33.544C167.331 33.544 168.099 34.168 168.147 34.984C168.147 35.272 168.003 35.416 167.859 35.416C167.715 35.416 167.619 35.32 167.571 35.176C167.523 34.936 167.427 34.744 167.283 34.648C167.043 34.408 166.755 34.312 166.419 34.312C165.075 34.312 163.203 36.04 162.339 37.72C161.571 39.112 161.283 40.168 161.283 40.984C161.283 42.328 162.195 42.904 163.299 42.952H163.539C167.139 42.952 173.523 38.872 177.795 35.656L178.035 35.56C178.131 35.56 178.227 35.656 178.227 35.752C178.227 35.8 178.179 35.896 178.035 35.992C173.523 39.544 166.899 43.816 163.059 43.816ZM175.56 43.912C175.272 43.912 174.984 43.816 174.744 43.576C174.456 43.288 174.36 42.856 174.36 42.376C174.36 41.272 174.936 39.832 175.416 38.92C176.088 37.48 177.048 36.136 177.912 35.32C177.384 34.888 177.192 34.504 177.192 34.216C177.192 33.832 177.576 33.592 178.056 33.592C178.488 33.592 179.016 33.784 179.352 34.264C180.6 35.896 179.256 35.512 181.032 36.424C182.088 36.952 183.432 37.144 184.776 37.144C187.32 37.144 190.056 36.424 191.736 35.608L191.928 35.56C192.024 35.56 192.12 35.608 192.12 35.704C192.12 35.752 192.024 35.848 191.88 35.944C189.96 36.856 187.224 37.672 184.536 37.672C183 37.672 181.512 37.384 180.168 36.712V36.76C180.168 39.832 177.432 43.912 175.56 43.912ZM178.824 34.936L178.2 34.408C178.344 34.6 178.536 34.744 178.824 34.936ZM175.848 43.192C177.192 43.192 179.4 39.208 179.4 36.952L179.304 36.28L178.92 36.04C176.376 38.584 175.416 41.56 175.416 42.664C175.416 42.904 175.464 43.048 175.512 43.096C175.608 43.144 175.704 43.192 175.848 43.192ZM199.226 46.696C198.026 46.696 196.826 45.928 196.826 43.672C196.826 42.376 197.258 40.6 198.41 38.392C194.906 41.08 192.458 42.088 191.018 42.088C189.674 42.088 189.098 41.32 189.098 40.216C189.098 37.48 192.794 33.16 196.874 33.16C198.362 33.16 199.61 33.832 199.898 35.656C202.01 31.48 216.602 11.176 221.018 11.176C221.546 11.176 221.978 11.416 221.978 12.136C221.978 14.008 219.194 18.952 212.522 25.816C208.586 29.848 204.602 33.88 200.474 36.952C198.602 40.312 197.978 42.616 197.978 44.056C197.978 45.592 198.65 46.072 199.466 46.072C203.162 46.072 212.714 37.144 216.602 35.56L216.746 35.512C216.938 35.512 216.986 35.656 216.986 35.752C216.986 35.848 216.938 35.944 216.842 35.992C212.378 37.912 203.69 46.696 199.226 46.696ZM191.258 41.32C192.794 41.32 196.01 39.544 199.178 36.856V36.568C199.178 34.744 198.266 34.12 197.114 34.12C195.818 34.12 194.234 34.888 193.226 35.848C191.786 37.144 190.538 39.544 190.538 40.696C190.538 40.984 190.634 41.224 190.874 41.272L191.258 41.32ZM201.338 35.368C203.978 33.352 210.794 27.064 215.738 21.352C219.098 17.368 221.45 13.528 221.45 12.136C221.45 11.848 221.402 11.656 221.114 11.656C220.634 11.656 219.53 12.472 218.186 13.768C213.146 18.712 204.41 30.664 201.338 35.368ZM216.82 43.768C216.292 43.768 215.812 43.672 215.38 43.48C214.372 43.048 213.988 42.088 213.988 40.984C213.988 39.88 214.372 38.728 214.9 37.768C216.82 34.36 219.172 33.304 220.66 33.304C221.524 33.304 222.1 33.64 222.1 34.12C222.1 35.32 219.988 37.288 216.052 38.056C215.428 39.304 215.188 40.264 215.188 40.984C215.188 42.328 216.004 42.904 217.108 42.952H217.348C220.948 42.952 227.476 38.872 231.796 35.656L232.036 35.56C232.132 35.56 232.228 35.656 232.228 35.704C232.228 35.8 232.18 35.896 232.036 35.992C227.38 39.544 220.66 43.768 216.82 43.768ZM216.436 37.336C218.692 37.144 221.572 35.368 221.572 34.456C221.572 34.36 221.524 34.264 221.428 34.168C221.332 34.072 221.14 33.976 220.9 33.976C219.94 33.976 218.068 34.888 216.436 37.336Z" fill="#8B9B68"/>
<path d="M19.2813 60.904H18.7813V60.9656L18.7962 61.0253L19.2813 60.904ZM22.5453 58.408L22.5868 57.9097L22.566 57.908H22.5453V58.408ZM23.6973 58.504L23.6557 59.0023L23.8459 59.0181L23.9982 58.9033L23.6973 58.504ZM62.6733 8.824L63.0065 9.19679L64.2475 8.08748L62.6006 8.3293L62.6733 8.824ZM1.80925 23.416L2.22528 23.6933L2.23872 23.6732L2.25014 23.6518L1.80925 23.416ZM1.32925 23.176L0.888613 22.9397L0.885233 22.946L0.882035 22.9524L1.32925 23.176ZM63.6333 7.864L63.7145 8.35735L63.8479 8.33538L63.952 8.24919L63.6333 7.864ZM77.6013 1.048L77.9306 0.671599L77.9213 0.663888L77.6013 1.048ZM69.2973 7.576L69.1787 7.0901L69.1673 7.09319L69.2973 7.576ZM65.4093 8.44L65.3243 7.94727L65.1892 7.97056L65.0849 8.0595L65.4093 8.44ZM25.1853 58.792L24.8744 58.4004L24.0396 59.063L25.0828 59.2814L25.1853 58.792ZM75.6333 36.904L75.173 36.7085L75.1712 36.7128L75.6333 36.904ZM72.5613 10.984L72.6443 10.491L72.6434 10.4908L72.5613 10.984ZM57.1533 24.184L56.6678 24.0643L56.6533 24.1233V24.184H57.1533ZM57.2493 21.064L56.7849 20.8782L56.7805 20.8899L57.2493 21.064ZM72.7053 10.216L72.6005 10.7049L72.6064 10.7061L72.7053 10.216ZM77.1693 37.624L76.7071 37.433L76.7052 37.4378L77.1693 37.624ZM24.1773 59.464L24.281 58.9749L24.0436 58.9245L23.8572 59.0799L24.1773 59.464ZM20.0493 60.664H19.5493V61.4531L20.2628 61.1161L20.0493 60.664ZM21.7773 59.848L21.9908 60.3002L22.0009 60.2952L21.7773 59.848ZM22.7373 59.272L23.0279 59.6789L24.2975 58.772H22.7373V59.272ZM66.6093 7.384L66.2944 6.99562L65.1389 7.93247L66.6256 7.88373L66.6093 7.384ZM77.0733 1.672L76.7197 2.02556L76.7448 2.05068L76.7733 2.07199L77.0733 1.672ZM20.0493 61.432V60.932C19.9136 60.932 19.8501 60.9057 19.8257 60.8902C19.8151 60.8834 19.8072 60.876 19.7995 60.8648C19.7912 60.8528 19.7777 60.8284 19.7663 60.7827L19.2813 60.904L18.7962 61.0253C18.8714 61.3263 19.0362 61.5731 19.2888 61.7338C19.5284 61.8863 19.8009 61.932 20.0493 61.932V61.432ZM19.2813 60.904H19.7813V60.664H19.2813H18.7813V60.904H19.2813ZM19.2813 60.664H19.7813C19.7813 60.4379 19.8954 60.0045 20.2882 59.6261C20.6696 59.2586 21.3524 58.908 22.5453 58.908V58.408V57.908C21.1461 57.908 20.1969 58.3254 19.5943 58.9059C19.0031 59.4755 18.7813 60.1701 18.7813 60.664H19.2813ZM22.5453 58.408L22.5037 58.9063L23.6557 59.0023L23.6973 58.504L23.7388 58.0057L22.5868 57.9097L22.5453 58.408ZM23.6973 58.504L23.9982 58.9033C32.0727 52.8171 38.3568 43.4516 44.3442 34.1139C50.3555 24.7388 56.062 15.404 63.0065 9.19679L62.6733 8.824L62.34 8.45121C55.2685 14.772 49.479 24.2532 43.5023 33.5741C37.5018 42.9324 31.3058 52.1429 23.3963 58.1047L23.6973 58.504ZM62.6733 8.824L62.6006 8.3293C57.8856 9.02163 52.2174 9.37758 46.2205 9.7477C40.233 10.1172 33.9255 10.5006 27.9669 11.2499C22.011 11.9989 16.3732 13.1169 11.7282 14.9678C7.08514 16.8178 3.37818 19.4227 1.36836 23.1802L1.80925 23.416L2.25014 23.6518C4.10432 20.1853 7.56736 17.7022 12.0983 15.8967C16.6273 14.0921 22.1675 12.9871 28.0916 12.2421C34.013 11.4974 40.2875 11.1158 46.2821 10.7458C52.2671 10.3764 57.9809 10.0184 62.7459 9.31869L62.6733 8.824ZM1.80925 23.416L1.39322 23.1386C1.38682 23.1482 1.37936 23.1574 1.37163 23.1653C1.36379 23.1734 1.35752 23.1783 1.35452 23.1804C1.35088 23.1829 1.35526 23.1792 1.36916 23.1737C1.37648 23.1708 1.38839 23.1667 1.40467 23.1631C1.42078 23.1596 1.44407 23.156 1.47325 23.156V23.656V24.156C1.66762 24.156 1.82886 24.069 1.92798 23.9996C2.03983 23.9213 2.14339 23.8162 2.22528 23.6933L1.80925 23.416ZM1.47325 23.656V23.156C1.59426 23.156 1.67799 23.2146 1.72088 23.2646C1.76697 23.3184 1.78125 23.3756 1.78125 23.416H1.28125H0.78125C0.78125 23.761 1.03157 24.156 1.47325 24.156V23.656ZM1.28125 23.416H1.78125C1.78125 23.4039 1.7813 23.3987 1.78153 23.3935C1.78173 23.3887 1.78204 23.386 1.78222 23.3847C1.78268 23.3816 1.78222 23.3881 1.77647 23.3996L1.32925 23.176L0.882035 22.9524C0.777056 23.1624 0.78125 23.3636 0.78125 23.416H1.28125ZM1.32925 23.176L1.76989 23.4123C3.73003 19.7572 7.48019 17.1289 12.3541 15.2144C17.2234 13.3016 23.1519 12.126 29.3762 11.336C35.5976 10.5464 42.0853 10.1452 48.0705 9.77002C54.0436 9.39558 59.5322 9.04635 63.7145 8.35735L63.6333 7.864L63.552 7.37065C59.4303 8.04964 53.9989 8.39642 48.008 8.77198C42.0292 9.14678 35.5089 9.54962 29.2503 10.344C22.9946 11.138 16.9711 12.3264 11.9884 14.2836C7.01031 16.2391 3.00847 18.9868 0.888613 22.9397L1.32925 23.176ZM63.6333 7.864L63.952 8.24919C64.634 7.68479 66.9455 5.89715 69.5184 4.25334C70.8048 3.43151 72.1461 2.65232 73.3752 2.08031C74.621 1.50054 75.6889 1.164 76.4493 1.164V0.663996V0.163996C75.4576 0.163996 74.2215 0.583451 72.9533 1.17368C71.6684 1.77167 70.2857 2.57648 68.9801 3.41065C66.369 5.07884 64.0245 6.89121 63.3145 7.4788L63.6333 7.864ZM76.4493 0.663996V1.164C76.8241 1.164 77.0917 1.27421 77.2812 1.43211L77.6013 1.048L77.9213 0.663888C77.5348 0.341785 77.0344 0.163996 76.4493 0.163996V0.663996ZM77.6013 1.048L77.272 1.42428C77.5534 1.67053 77.6293 1.91988 77.6293 2.104H78.1293H78.6293C78.6293 1.61612 78.4171 1.09746 77.9305 0.671709L77.6013 1.048ZM78.1293 2.104H77.6293C77.6293 2.48792 77.3478 2.97804 76.6967 3.54804C76.0669 4.09935 75.1886 4.64002 74.2238 5.13271C72.2951 6.11773 70.1236 6.8598 69.1788 7.09024L69.2973 7.576L69.4157 8.06176C70.439 7.81219 72.6834 7.04227 74.6787 6.02329C75.676 5.51397 76.6366 4.92965 77.3553 4.30046C78.0527 3.68995 78.6293 2.94408 78.6293 2.104H78.1293ZM69.2973 7.576L69.1673 7.09319C67.9316 7.42587 66.6988 7.71029 65.3243 7.94727L65.4093 8.44L65.4942 8.93273C66.9037 8.6897 68.1669 8.39812 69.4272 8.05881L69.2973 7.576ZM65.4093 8.44L65.0849 8.0595C56.8819 15.0526 51.0345 24.3374 45.1468 33.4895C39.2431 42.6663 33.2959 51.7155 24.8744 58.4004L25.1853 58.792L25.4961 59.1836C34.0666 52.3805 40.0954 43.1897 45.9878 34.0305C51.896 24.8466 57.6646 15.6994 65.7336 8.8205L65.4093 8.44ZM25.1853 58.792L25.0828 59.2814C29.2425 60.152 33.3569 60.588 37.3293 60.588V60.088V59.588C33.4296 59.588 29.384 59.16 25.2877 58.3026L25.1853 58.792ZM37.3293 60.088V60.588C54.4237 60.588 69.6638 52.6378 76.0953 37.0952L75.6333 36.904L75.1712 36.7128C68.9307 51.7942 54.1228 59.588 37.3293 59.588V60.088ZM75.6333 36.904L76.0935 37.0995C78.4182 31.6267 79.5413 26.376 79.5413 21.976H79.0413H78.5413C78.5413 26.216 77.4563 31.3333 75.173 36.7085L75.6333 36.904ZM79.0413 21.976H79.5413C79.5413 18.9222 78.9805 16.2602 77.8378 14.2527C76.6869 12.2307 74.9463 10.8789 72.6443 10.491L72.5613 10.984L72.4782 11.477C74.4483 11.8091 75.9476 12.9533 76.9687 14.7473C77.998 16.5558 78.5413 19.0298 78.5413 21.976H79.0413ZM72.5613 10.984L72.6434 10.4908C72.0385 10.39 71.3869 10.34 70.7853 10.34V10.84V11.34C71.3356 11.34 71.932 11.386 72.4791 11.4772L72.5613 10.984ZM70.7853 10.84V10.34C66.3926 10.34 63.071 12.9308 60.7667 15.8909C58.4628 18.8504 57.1146 22.2521 56.6678 24.0643L57.1533 24.184L57.6387 24.3037C58.0559 22.6119 59.3477 19.3416 61.5558 16.5051C63.7635 13.6692 66.8259 11.34 70.7853 11.34V10.84ZM57.1533 24.184H56.6533C56.6533 24.127 56.6633 24.0827 56.6697 24.0589C56.6767 24.0329 56.6846 24.0129 56.6898 24.0005C56.7001 23.9764 56.7096 23.9605 56.7127 23.9553C56.7195 23.9441 56.7216 23.9425 56.7148 23.951C56.7024 23.9664 56.6787 23.9924 56.6484 24.0191C56.6175 24.0463 56.5912 24.0643 56.5746 24.0731C56.567 24.0772 56.5664 24.0766 56.5728 24.0747C56.5791 24.0728 56.5974 24.068 56.6252 24.068V24.568V25.068C56.7969 25.068 56.9426 25.0099 57.0434 24.9564C57.1483 24.9007 57.239 24.8316 57.3101 24.7689C57.3818 24.7056 57.4451 24.6386 57.4942 24.5775C57.5182 24.5477 57.5447 24.512 57.5681 24.4732C57.5796 24.4543 57.5955 24.4262 57.6101 24.3919C57.6192 24.3703 57.6533 24.2904 57.6533 24.184H57.1533ZM56.6252 24.568V24.068C56.6761 24.068 56.7348 24.0818 56.7891 24.1152C56.8413 24.1473 56.8701 24.1856 56.8831 24.2081C56.8954 24.229 56.895 24.2375 56.892 24.223C56.8891 24.2092 56.8853 24.1813 56.8853 24.136H56.3853H55.8853C55.8853 24.3237 55.9146 24.5323 56.0194 24.7119C56.1389 24.9169 56.3527 25.068 56.6252 25.068V24.568ZM56.3853 24.136H56.8853C56.8853 23.9654 56.9302 23.6702 57.0651 23.1835C57.1977 22.705 57.4083 22.0719 57.718 21.2381L57.2493 21.064L56.7805 20.8899C56.4662 21.7361 56.2448 22.399 56.1014 22.9165C55.9603 23.4258 55.8853 23.8266 55.8853 24.136H56.3853ZM57.2493 21.064L57.7135 21.2497C60.077 15.341 65.1264 10.476 70.6413 10.476V9.976V9.476C64.5401 9.476 59.2215 14.787 56.785 20.8783L57.2493 21.064ZM70.6413 9.976V10.476C71.3158 10.476 71.9512 10.5658 72.6005 10.7049L72.7053 10.216L72.81 9.7271C72.1154 9.57824 71.4067 9.476 70.6413 9.476V9.976ZM72.7053 10.216L72.6064 10.7061C75.4392 11.2773 77.2609 12.7595 78.3899 14.7579C79.531 16.7776 79.9813 19.3567 79.9813 22.12H80.4813H80.9813C80.9813 19.2673 80.5196 16.4944 79.2606 14.2661C77.9897 12.0165 75.9233 10.3547 72.8041 9.72586L72.7053 10.216ZM80.4813 22.12H79.9813C79.9813 27.6962 78.1803 33.8689 76.7072 37.433L77.1693 37.624L77.6313 37.815C79.1342 34.1791 80.9813 27.8718 80.9813 22.12H80.4813ZM77.1693 37.624L76.7052 37.4378C70.0859 53.9389 54.9603 60.5 38.4813 60.5V61V61.5C55.2183 61.5 70.8127 54.8131 77.6333 37.8102L77.1693 37.624ZM38.4813 61V60.5C33.814 60.5 29.0008 59.976 24.281 58.9749L24.1773 59.464L24.0735 59.9531C28.8577 60.968 33.7405 61.5 38.4813 61.5V61ZM24.1773 59.464L23.8572 59.0799C23.602 59.2925 22.9123 59.7665 22.1286 60.1876C21.7396 60.3965 21.3389 60.5863 20.9675 60.7226C20.5883 60.8618 20.2748 60.932 20.0493 60.932V61.432V61.932C20.4477 61.932 20.8902 61.8162 21.312 61.6614C21.7416 61.5037 22.1869 61.2915 22.6019 61.0684C23.4262 60.6255 24.1765 60.1155 24.4973 59.8481L24.1773 59.464ZM20.0493 60.664L20.2628 61.1161L21.9908 60.3001L21.7773 59.848L21.5637 59.3959L19.8357 60.2119L20.0493 60.664ZM21.7773 59.848L22.0009 60.2952C22.3078 60.1417 22.667 59.9366 23.0279 59.6789L22.7373 59.272L22.4466 58.8651C22.1355 59.0874 21.8227 59.2663 21.5536 59.4008L21.7773 59.848ZM22.7373 59.272V58.772H22.3533V59.272V59.772H22.7373V59.272ZM22.3533 59.272V58.772C21.3009 58.772 20.5983 59.1134 20.1554 59.533C19.9387 59.7383 19.7924 59.9546 19.6988 60.1419C19.6157 60.3081 19.5493 60.5017 19.5493 60.664H20.0493H20.5493C20.5493 60.7303 20.5368 60.7019 20.5932 60.5891C20.6391 60.4974 20.7178 60.3777 20.8431 60.259C21.0842 60.0306 21.5336 59.772 22.3533 59.772V59.272ZM66.6093 7.384L66.6256 7.88373C67.4231 7.85758 68.5104 7.62366 69.6684 7.27558C70.8356 6.92474 72.1088 6.44737 73.2893 5.91358C74.4663 5.38133 75.5695 4.78471 76.3869 4.19073C76.7946 3.89447 77.1487 3.58641 77.4056 3.27374C77.6554 2.96987 77.8613 2.6035 77.8613 2.2H77.3613H76.8613C76.8613 2.2645 76.8226 2.40813 76.6331 2.63882C76.4507 2.86072 76.1706 3.11177 75.7991 3.38176C75.058 3.92028 74.0222 4.48466 72.8772 5.00241C71.7357 5.51862 70.5039 5.98025 69.3806 6.31791C68.2481 6.65833 67.2594 6.86241 66.5929 6.88427L66.6093 7.384ZM77.3613 2.2H77.8613C77.8613 1.83153 77.6751 1.49835 77.3733 1.272L77.0733 1.672L76.7733 2.07199C76.8157 2.10381 76.8373 2.13312 76.8481 2.15329C76.8587 2.17315 76.8613 2.18861 76.8613 2.2H77.3613ZM77.0733 1.672L77.4268 1.31843C77.2941 1.18577 77.13 1.11764 76.9921 1.08088C76.8491 1.04276 76.6957 1.028 76.5453 1.028V1.528V2.028C76.6348 2.028 76.6974 2.03724 76.7344 2.04712C76.7522 2.05186 76.7586 2.05529 76.7566 2.0543C76.7548 2.05336 76.7396 2.04541 76.7197 2.02556L77.0733 1.672ZM76.5453 1.528V1.028C75.879 1.028 75.0066 1.35432 74.1119 1.79119C73.193 2.23987 72.1665 2.84851 71.1624 3.49574C69.1536 4.79055 67.1949 6.26542 66.2944 6.99562L66.6093 7.384L66.9242 7.77238C67.7996 7.06258 69.7289 5.60944 71.7041 4.33626C72.692 3.69949 73.6816 3.11413 74.5506 2.6898C75.4439 2.25368 76.1315 2.028 76.5453 2.028V1.528ZM83.9597 45.688L83.8776 46.1812L83.9184 46.188H83.9597V45.688ZM83.3837 45.592L83.2346 46.0692L83.2675 46.0795L83.3016 46.0852L83.3837 45.592ZM84.6318 37.864L85.1078 38.017L85.1103 38.0092L85.1125 38.0014L84.6318 37.864ZM84.5358 36.136L84.8357 35.736L84.8108 35.7173L84.7838 35.7019L84.5358 36.136ZM86.8398 32.392L86.9378 31.9017L86.8893 31.892H86.8398V32.392ZM87.0798 32.44L87.201 31.9549L87.1895 31.952L87.1778 31.9497L87.0798 32.44ZM85.1598 35.56L84.9025 35.1313L84.314 35.4844L84.8305 35.9363L85.1598 35.56ZM83.6237 44.824L83.7819 44.3497L83.7819 44.3497L83.6237 44.824ZM100.184 35.704L99.9064 35.2879L99.8995 35.2926L100.184 35.704ZM100.424 35.992L100.2 35.5448L100.167 35.5613L100.137 35.5824L100.424 35.992ZM84.9198 35.128H84.4198V35.9613L85.155 35.5692L84.9198 35.128ZM86.5998 33.112V32.612H86.4723L86.3603 32.6731L86.5998 33.112ZM83.9597 45.688L84.0419 45.1948L83.4659 45.0988L83.3837 45.592L83.3016 46.0852L83.8776 46.1812L83.9597 45.688ZM83.3837 45.592L83.5329 45.1148C83.2471 45.0255 83.0865 44.8879 82.9896 44.7356C82.8874 44.575 82.8277 44.3528 82.8277 44.056H82.3277H81.8277C81.8277 44.4792 81.9121 44.905 82.1459 45.2724C82.385 45.6481 82.7524 45.9185 83.2346 46.0692L83.3837 45.592ZM82.3277 44.056H82.8277C82.8277 43.2436 83.246 42.1258 83.7728 40.9693C84.0317 40.4007 84.3005 39.8564 84.5411 39.3498C84.7757 38.8561 84.9881 38.3893 85.1078 38.017L84.6318 37.864L84.1557 37.711C84.0594 38.0107 83.8758 38.4199 83.6379 38.9207C83.406 39.4086 83.1258 39.9773 82.8627 40.5547C82.3455 41.6902 81.8277 42.9964 81.8277 44.056H82.3277ZM84.6318 37.864L85.1125 38.0014C85.2065 37.6724 85.3238 37.224 85.3238 36.856H84.8238H84.3238C84.3238 37.064 84.249 37.3836 84.151 37.7266L84.6318 37.864ZM84.8238 36.856H85.3238C85.3238 36.4297 85.1991 36.0085 84.8357 35.736L84.5358 36.136L84.2358 36.536C84.2564 36.5515 84.3238 36.6103 84.3238 36.856H84.8238ZM84.5358 36.136L84.7838 35.7019C84.6111 35.6032 84.5557 35.4854 84.5557 35.32H84.0557H83.5557C83.5557 35.8266 83.7884 36.2848 84.2877 36.5701L84.5358 36.136ZM84.0557 35.32H84.5557C84.5557 35.1385 84.621 34.8913 84.7676 34.6034C84.9114 34.3208 85.1188 34.0284 85.3641 33.7642C85.6097 33.4998 85.8825 33.2752 86.1499 33.1197C86.4216 32.9617 86.6579 32.892 86.8398 32.892V32.392V31.892C86.4216 31.892 86.0099 32.0443 85.6471 32.2553C85.28 32.4688 84.9318 32.7602 84.6314 33.0838C84.3307 33.4076 84.0671 33.7751 83.8764 34.1496C83.6885 34.5187 83.5557 34.9255 83.5557 35.32H84.0557ZM86.8398 32.392L86.7417 32.8823L86.9817 32.9303L87.0798 32.44L87.1778 31.9497L86.9378 31.9017L86.8398 32.392ZM87.0798 32.44L86.9585 32.9251C87.005 32.9367 86.9676 32.9374 86.922 32.8862C86.8983 32.8595 86.8828 32.8301 86.8744 32.8045C86.8668 32.781 86.8678 32.769 86.8678 32.776H87.3678H87.8678C87.8678 32.5937 87.82 32.3912 87.6695 32.2218C87.5279 32.0626 87.3465 31.9913 87.201 31.9549L87.0798 32.44ZM87.3678 32.776H86.8678C86.8678 32.8162 86.8345 32.9556 86.691 33.2039C86.5592 33.4321 86.3697 33.693 86.1503 33.9551C85.7023 34.4904 85.1924 34.9573 84.9025 35.1313L85.1598 35.56L85.417 35.9887C85.8471 35.7307 86.4412 35.1656 86.9172 34.5969C87.1598 34.307 87.3873 33.9979 87.557 33.7041C87.715 33.4304 87.8678 33.0958 87.8678 32.776H87.3678ZM85.1598 35.56L84.8305 35.9363C85.069 36.145 85.1878 36.4625 85.1878 36.904H85.6878H86.1878C86.1878 36.2895 86.0185 35.647 85.489 35.1837L85.1598 35.56ZM85.6878 36.904H85.1878C85.1878 37.3661 85.0474 37.9233 84.808 38.5515C84.5706 39.1746 84.2511 39.8293 83.9214 40.4828C83.5965 41.1265 83.2569 41.7781 83.0022 42.36C82.7539 42.9274 82.5477 43.51 82.5477 44.008H83.0477H83.5477C83.5477 43.738 83.6716 43.3246 83.9183 42.761C84.1586 42.2119 84.479 41.5975 84.8141 40.9332C85.1444 40.2787 85.4849 39.5834 85.7425 38.9075C85.9981 38.2367 86.1878 37.5459 86.1878 36.904H85.6878ZM83.0477 44.008H82.5477C82.5477 44.273 82.5907 44.5564 82.7606 44.8057C82.9336 45.0594 83.1887 45.206 83.4656 45.2983L83.6237 44.824L83.7819 44.3497C83.6268 44.298 83.5939 44.2526 83.5869 44.2423C83.5768 44.2276 83.5477 44.175 83.5477 44.008H83.0477ZM83.6237 44.824L83.4656 45.2983C83.7005 45.3766 83.9295 45.372 84.1037 45.372V44.872V44.372C83.894 44.372 83.835 44.3674 83.7819 44.3497L83.6237 44.824ZM84.1037 44.872V45.372C84.5931 45.372 85.1702 45.237 85.7858 45.0258C86.4086 44.8122 87.1049 44.5084 87.8431 44.1445C89.3197 43.4164 90.9968 42.4311 92.6439 41.3953C95.938 39.3237 99.1568 37.0213 100.468 36.1154L100.184 35.704L99.8995 35.2926C98.5707 36.2107 95.3815 38.4923 92.1116 40.5487C90.4767 41.5769 88.8328 42.5416 87.4009 43.2475C86.6849 43.6006 86.03 43.8848 85.4613 44.0799C84.8853 44.2775 84.4304 44.372 84.1037 44.372V44.872ZM100.184 35.704L100.461 36.12C100.476 36.1103 100.483 36.1069 100.484 36.1063C100.485 36.106 100.483 36.1071 100.478 36.1081C100.472 36.1095 100.468 36.108 100.52 36.108V35.608V35.108C100.475 35.108 100.376 35.1065 100.261 35.1319C100.14 35.1588 100.024 35.2097 99.9064 35.288L100.184 35.704ZM100.52 35.608V36.108C100.55 36.108 100.548 36.1084 100.541 36.1078C100.536 36.1073 100.476 36.1033 100.404 36.0672C100.314 36.0221 100.24 35.9455 100.198 35.8516C100.164 35.775 100.164 35.7142 100.164 35.704H100.664H101.164C101.164 35.6458 101.158 35.549 101.112 35.4454C101.058 35.3245 100.966 35.2299 100.851 35.1728C100.755 35.1247 100.666 35.1147 100.624 35.1112C100.581 35.1076 100.537 35.108 100.52 35.108V35.608ZM100.664 35.704H100.164C100.164 35.671 100.168 35.646 100.17 35.6312C100.174 35.6151 100.177 35.6023 100.181 35.5928C100.187 35.5737 100.194 35.5609 100.2 35.5526C100.212 35.5337 100.219 35.5354 100.2 35.5448L100.424 35.992L100.647 36.4392C100.984 36.2709 101.164 35.9676 101.164 35.704H100.664ZM100.424 35.992L100.137 35.5824C98.6692 36.6099 95.5131 39.0088 92.2225 41.1786C90.5824 42.2601 88.9283 43.2711 87.4615 44.01C85.9706 44.761 84.754 45.188 83.9597 45.188V45.688V46.188C85.0135 46.188 86.4189 45.655 87.9115 44.903C89.4282 44.1389 91.1191 43.1039 92.773 42.0134C96.0704 39.8392 99.2983 37.3901 100.71 36.4016L100.424 35.992ZM84.9198 35.128L85.155 35.5692C85.6103 35.3263 86.0958 34.8122 86.4415 34.3877C86.622 34.166 86.7816 33.9473 86.8988 33.766C86.9569 33.6763 87.0092 33.5885 87.0491 33.5099C87.0688 33.4709 87.0894 33.4264 87.1063 33.38C87.119 33.345 87.1478 33.2615 87.1478 33.16H86.6478H86.1478C86.1478 33.1151 86.1546 33.082 86.1579 33.0679C86.1616 33.0519 86.1653 33.0417 86.1662 33.039C86.1679 33.0343 86.1662 33.0398 86.157 33.058C86.1389 33.0937 86.1068 33.1492 86.0592 33.223C85.9649 33.3687 85.8275 33.558 85.666 33.7563C85.3277 34.1718 84.9492 34.5456 84.6845 34.6868L84.9198 35.128ZM86.6478 33.16H87.1478C87.1478 33.1555 87.1478 33.1447 87.1476 33.134C87.1473 33.1237 87.1468 33.1024 87.1439 33.077C87.1398 33.0398 87.1222 32.8914 86.9953 32.7644C86.8684 32.6375 86.72 32.6199 86.6827 32.6158C86.6573 32.613 86.6361 32.6124 86.6258 32.6122C86.615 32.612 86.6042 32.612 86.5998 32.612V33.112V33.612C86.624 33.612 86.5997 33.6127 86.5723 33.6097C86.5485 33.607 86.4091 33.5925 86.2882 33.4715C86.1673 33.3506 86.1527 33.2112 86.1501 33.1875C86.147 33.16 86.1478 33.1358 86.1478 33.16H86.6478ZM86.5998 33.112L86.3603 32.6731C86.1699 32.7769 85.9609 32.9515 85.7716 33.1299C85.5743 33.3158 85.3685 33.5346 85.1817 33.7531C84.9957 33.9706 84.821 34.1966 84.6895 34.3976C84.6242 34.4975 84.5636 34.6002 84.5175 34.6987C84.4789 34.781 84.4198 34.9225 84.4198 35.08H84.9198H85.4198C85.4198 35.1535 85.3966 35.1795 85.4231 35.1228C85.442 35.0824 85.4755 35.0228 85.5265 34.9449C85.6275 34.7904 85.7738 34.5994 85.9418 34.4029C86.109 34.2074 86.2902 34.0152 86.4574 33.8576C86.6326 33.6925 86.7656 33.5911 86.8392 33.5509L86.5998 33.112ZM84.9198 35.08H84.4198V35.128H84.9198H85.4198V35.08H84.9198ZM99.0366 43.48L99.2397 43.0231L99.2336 43.0204L99.0366 43.48ZM98.5566 37.768L98.121 37.5226L98.1185 37.527L98.5566 37.768ZM99.7086 38.056L99.6129 37.5653L99.3714 37.6124L99.2614 37.8324L99.7086 38.056ZM100.765 42.952L100.743 43.4515L100.754 43.452H100.765V42.952ZM115.453 35.656L115.267 35.1918L115.206 35.216L115.154 35.2549L115.453 35.656ZM115.693 35.56V35.06H115.596L115.507 35.0958L115.693 35.56ZM115.693 35.992L115.415 35.576L115.402 35.5848L115.389 35.5945L115.693 35.992ZM100.093 37.336L99.6766 37.0586L99.1009 37.9222L100.135 37.8342L100.093 37.336ZM105.085 34.168L105.438 33.8144L105.438 33.8144L105.085 34.168ZM100.477 43.768V43.268C100.01 43.268 99.6007 43.1835 99.2397 43.0231L99.0366 43.48L98.8336 43.9369C99.3366 44.1605 99.8869 44.268 100.477 44.268V43.768ZM99.0366 43.48L99.2336 43.0204C98.4822 42.6984 98.1446 41.9814 98.1446 40.984H97.6446H97.1446C97.1446 42.1946 97.575 43.3976 98.8397 43.9396L99.0366 43.48ZM97.6446 40.984H98.1446C98.1446 39.9879 98.4942 38.9191 98.9947 38.009L98.5566 37.768L98.1185 37.527C97.5631 38.5369 97.1446 39.7721 97.1446 40.984H97.6446ZM98.5566 37.768L98.9922 38.0134C100.851 34.7139 103.059 33.804 104.317 33.804V33.304V32.804C102.598 32.804 100.102 34.0061 98.121 37.5226L98.5566 37.768ZM104.317 33.304V33.804C104.692 33.804 104.959 33.8782 105.113 33.9661C105.26 34.0506 105.257 34.1118 105.257 34.12H105.757H106.257C106.257 33.6482 105.965 33.3014 105.609 33.0979C105.259 32.8978 104.805 32.804 104.317 32.804V33.304ZM105.757 34.12H105.257C105.257 34.2792 105.183 34.5268 104.958 34.8437C104.737 35.1546 104.392 35.5 103.916 35.8449C102.963 36.5339 101.521 37.1929 99.6129 37.5653L99.7086 38.056L99.8044 38.5467C101.832 38.1511 103.414 37.4421 104.502 36.6551C105.045 36.262 105.475 35.8424 105.773 35.4228C106.067 35.0092 106.257 34.5608 106.257 34.12H105.757ZM99.7086 38.056L99.2614 37.8324C98.6177 39.1197 98.3446 40.1586 98.3446 40.984H98.8446H99.3446C99.3446 40.3694 99.5515 39.4883 100.156 38.2796L99.7086 38.056ZM98.8446 40.984H98.3446C98.3446 41.7616 98.5843 42.387 99.0502 42.8202C99.5066 43.2446 100.116 43.4243 100.743 43.4515L100.765 42.952L100.786 42.4525C100.309 42.4317 99.9587 42.2994 99.7311 42.0878C99.5129 41.885 99.3446 41.5504 99.3446 40.984H98.8446ZM100.765 42.952V43.452H101.005V42.952V42.452H100.765V42.952ZM101.005 42.952V43.452C101.989 43.452 103.135 43.1755 104.345 42.7339C105.561 42.2901 106.873 41.6678 108.197 40.9495C110.846 39.5129 113.578 37.6746 115.751 36.0571L115.453 35.656L115.154 35.2549C113.007 36.8534 110.315 38.6631 107.72 40.0705C106.423 40.7742 105.157 41.3729 104.002 41.7946C102.84 42.2185 101.82 42.452 101.005 42.452V42.952ZM115.453 35.656L115.638 36.1202L115.878 36.0242L115.693 35.56L115.507 35.0958L115.267 35.1918L115.453 35.656ZM115.693 35.56V36.06C115.584 36.06 115.522 36.0127 115.505 35.9981C115.491 35.987 115.472 35.9685 115.452 35.9386C115.442 35.9234 115.427 35.8989 115.414 35.8655C115.402 35.8342 115.385 35.7779 115.385 35.704H115.885H116.385C116.385 35.5463 116.316 35.4312 116.284 35.3839C116.243 35.3225 116.194 35.271 116.145 35.2299C116.055 35.1553 115.897 35.06 115.693 35.06V35.56ZM115.885 35.704H115.385C115.385 35.6857 115.387 35.6639 115.394 35.6406C115.4 35.6173 115.409 35.5978 115.419 35.583C115.436 35.5546 115.446 35.5552 115.415 35.576L115.693 35.992L115.97 36.408C116.208 36.2492 116.385 36.0148 116.385 35.704H115.885ZM115.693 35.992L115.389 35.5945C113.075 37.3601 110.252 39.2888 107.539 40.7733C104.8 42.2717 102.258 43.268 100.477 43.268V43.768V44.268C102.535 44.268 105.274 43.1523 108.019 41.6507C110.789 40.1352 113.654 38.1759 115.996 36.3895L115.693 35.992ZM100.093 37.336L100.135 37.8342C101.358 37.7301 102.714 37.2047 103.758 36.5984C104.282 36.2938 104.749 35.9566 105.093 35.6217C105.264 35.4544 105.416 35.2771 105.527 35.0942C105.636 34.9161 105.729 34.6969 105.729 34.456H105.229H104.729C104.729 34.4431 104.731 34.4789 104.674 34.5732C104.619 34.6628 104.528 34.7754 104.394 34.9058C104.127 35.1664 103.733 35.4562 103.255 35.7336C102.295 36.2913 101.083 36.7499 100.05 36.8378L100.093 37.336ZM105.229 34.456H105.729C105.729 34.1806 105.589 33.9649 105.438 33.8144L105.085 34.168L104.731 34.5216C104.751 34.5411 104.751 34.5465 104.745 34.5356C104.739 34.5225 104.729 34.4944 104.729 34.456H105.229ZM105.085 34.168L105.438 33.8144C105.242 33.6185 104.92 33.476 104.557 33.476V33.976V34.476C104.61 34.476 104.655 34.4867 104.689 34.5002C104.726 34.515 104.738 34.5283 104.731 34.5216L105.085 34.168ZM104.557 33.976V33.476C103.941 33.476 103.136 33.7577 102.297 34.3234C101.446 34.8971 100.525 35.7856 99.6766 37.0586L100.093 37.336L100.509 37.6133C101.292 36.4384 102.123 35.6469 102.856 35.1526C103.601 34.6503 104.212 34.476 104.557 34.476V33.976ZM108.895 44.776L109.231 45.1461L109.242 45.1364L108.895 44.776ZM114.655 41.32L114.845 41.7825L115.107 41.6747L115.149 41.3942L114.655 41.32ZM115.567 35.08L115.099 34.9044L115.098 34.9071L115.567 35.08ZM119.887 32.488L120.38 32.4058L120.37 32.3464L120.347 32.291L119.887 32.488ZM119.935 32.776H120.435V32.7346L120.428 32.6938L119.935 32.776ZM116.575 35.656L116.389 35.1918L116.15 35.2875L116.089 35.5382L116.575 35.656ZM115.903 40.84L115.409 40.7631L115.288 41.5417L116.044 41.3198L115.903 40.84ZM129.583 35.56L129.911 35.9375L129.924 35.926L129.937 35.9136L129.583 35.56ZM129.871 35.656L130.345 35.8141L130.371 35.7371V35.656H129.871ZM129.823 35.8L130.159 36.17L130.256 36.0821L130.297 35.9581L129.823 35.8ZM115.759 41.512L115.575 41.0469L115.317 41.149L115.267 41.4226L115.759 41.512ZM116.719 35.032L116.231 34.9212L116.008 35.9044L116.926 35.4872L116.719 35.032ZM119.503 32.776H120.003V32.7265L119.993 32.6779L119.503 32.776ZM114.559 42.04L115.055 42.1013L115.159 41.2615L114.373 41.5758L114.559 42.04ZM109.183 45.304L108.829 44.9504L108.823 44.9567L109.183 45.304ZM107.983 49.864L108.303 49.4799L108.293 49.4717L108.283 49.464L107.983 49.864ZM108.991 50.824V50.324C108.426 50.324 107.977 50.1436 107.675 49.8632C107.376 49.5861 107.187 49.1822 107.187 48.664H106.687H106.187C106.187 49.4418 106.478 50.1179 106.995 50.5968C107.509 51.0724 108.212 51.324 108.991 51.324V50.824ZM106.687 48.664H107.187C107.187 47.7994 107.707 46.5315 109.231 45.146L108.895 44.776L108.559 44.406C106.915 45.9005 106.187 47.4166 106.187 48.664H106.687ZM108.895 44.776L109.242 45.1364C110.43 43.9937 112.194 42.8715 114.845 41.7825L114.655 41.32L114.465 40.8575C111.74 41.9765 109.856 43.1583 108.548 44.4156L108.895 44.776ZM114.655 41.32L115.149 41.3942C115.296 40.4193 115.36 39.2716 115.465 38.2132C115.572 37.127 115.724 36.1012 116.036 35.2529L115.567 35.08L115.098 34.9071C114.738 35.8828 114.578 37.017 114.469 38.1148C114.358 39.2404 114.302 40.3007 114.161 41.2458L114.655 41.32ZM115.567 35.08L116.035 35.2556C116.361 34.3868 116.916 33.6902 117.507 33.213C118.112 32.725 118.699 32.508 119.071 32.508V32.008V31.508C118.387 31.508 117.582 31.867 116.879 32.435C116.162 33.0138 115.493 33.8532 115.099 34.9044L115.567 35.08ZM119.071 32.008V32.508C119.203 32.508 119.28 32.533 119.323 32.5573C119.359 32.5777 119.396 32.6105 119.427 32.685L119.887 32.488L120.347 32.291C120.234 32.0295 120.055 31.8223 119.815 31.6867C119.582 31.555 119.323 31.508 119.071 31.508V32.008ZM119.887 32.488L119.394 32.5702L119.442 32.8582L119.935 32.776L120.428 32.6938L120.38 32.4058L119.887 32.488ZM119.935 32.776H119.435C119.435 32.9032 119.354 33.1105 119.103 33.3941C118.863 33.6652 118.524 33.942 118.15 34.2009C117.401 34.7197 116.594 35.1098 116.389 35.1918L116.575 35.656L116.761 36.1202C117.036 36.0102 117.909 35.5843 118.72 35.0231C119.126 34.742 119.537 34.4128 119.852 34.0569C120.156 33.7135 120.435 33.2728 120.435 32.776H119.935ZM116.575 35.656L116.089 35.5382C115.888 36.3677 115.801 37.1545 115.723 37.9851C115.645 38.82 115.574 39.7018 115.409 40.7631L115.903 40.84L116.397 40.9169C116.568 39.8182 116.641 38.9 116.719 38.0789C116.797 37.2535 116.878 36.5283 117.061 35.7738L116.575 35.656ZM115.903 40.84L116.044 41.3198C118.664 40.5505 121.64 39.623 124.193 38.6875C125.469 38.2198 126.646 37.7478 127.624 37.2901C128.591 36.8373 129.4 36.3814 129.911 35.9375L129.583 35.56L129.255 35.1825C128.854 35.5306 128.151 35.9387 127.2 36.3844C126.259 36.8252 125.111 37.2862 123.849 37.7485C121.326 38.673 118.374 39.5935 115.762 40.3602L115.903 40.84ZM129.583 35.56L129.937 35.9136C129.919 35.9316 129.894 35.951 129.864 35.968C129.834 35.9852 129.803 35.9963 129.776 36.0031C129.731 36.0144 129.694 36.012 129.727 36.012V35.512V35.012C129.672 35.012 129.433 35.003 129.229 35.2064L129.583 35.56ZM129.727 35.512V36.012C129.698 36.012 129.584 36.0044 129.481 35.9016C129.379 35.7987 129.371 35.6851 129.371 35.656H129.871H130.371C130.371 35.5309 130.339 35.3453 130.189 35.1944C130.038 35.0436 129.852 35.012 129.727 35.012V35.512ZM129.871 35.656L129.397 35.4979L129.349 35.6419L129.823 35.8L130.297 35.9581L130.345 35.8141L129.871 35.656ZM129.823 35.8L129.487 35.43C128.883 35.9785 127.957 36.52 126.815 37.0487C125.679 37.5741 124.364 38.0719 123.005 38.5437C120.321 39.4755 117.406 40.3244 115.575 41.0469L115.759 41.512L115.943 41.9771C117.76 41.2596 120.557 40.4524 123.333 39.4883C124.704 39.0121 126.056 38.5019 127.235 37.9563C128.407 37.414 129.443 36.8215 130.159 36.17L129.823 35.8ZM115.759 41.512L115.267 41.4226C114.034 48.2071 110.874 50.324 108.991 50.324V50.824V51.324C111.62 51.324 114.988 48.5449 116.251 41.6014L115.759 41.512ZM116.719 35.032L116.926 35.4872C117.212 35.3571 117.932 34.9842 118.586 34.548C118.913 34.3305 119.241 34.085 119.494 33.8349C119.62 33.7098 119.74 33.5714 119.831 33.4232C119.92 33.2788 120.003 33.0893 120.003 32.872H119.503H119.003C119.003 32.8347 119.016 32.8402 118.979 32.9001C118.944 32.9563 118.884 33.0317 118.791 33.1241C118.604 33.309 118.335 33.5135 118.032 33.716C117.426 34.1198 116.754 34.4669 116.512 34.5768L116.719 35.032ZM119.503 32.872H120.003V32.776H119.503H119.003V32.872H119.503ZM119.503 32.776L119.993 32.6779C119.953 32.4762 119.859 32.2765 119.682 32.131C119.504 31.9858 119.298 31.94 119.119 31.94V32.44V32.94C119.132 32.94 119.094 32.9422 119.048 32.905C119.028 32.888 119.016 32.8709 119.011 32.8611C119.006 32.8525 119.009 32.8544 119.013 32.8741L119.503 32.776ZM119.119 32.44V31.94C118.787 31.94 118.458 32.1055 118.196 32.2809C117.916 32.468 117.632 32.7207 117.373 32.9994C116.867 33.543 116.38 34.2687 116.231 34.9212L116.719 35.032L117.207 35.1428C117.298 34.7393 117.651 34.169 118.105 33.6806C118.326 33.4433 118.552 33.246 118.752 33.1121C118.97 32.9665 119.091 32.94 119.119 32.94V32.44ZM108.991 50.248V50.748C109.669 50.748 110.353 50.436 110.978 49.9659C111.61 49.491 112.226 48.8232 112.779 48.0326C113.884 46.4525 114.781 44.3239 115.055 42.1013L114.559 42.04L114.063 41.9787C113.809 44.0281 112.978 46.0035 111.959 47.4594C111.45 48.1868 110.905 48.77 110.377 49.1666C109.843 49.568 109.369 49.748 108.991 49.748V50.248ZM114.559 42.04L114.373 41.5758C112.671 42.2567 110.293 43.4872 108.829 44.9504L109.183 45.304L109.537 45.6576C110.857 44.3368 113.087 43.1673 114.745 42.5042L114.559 42.04ZM109.183 45.304L108.823 44.9567C107.446 46.3829 106.859 47.6068 106.859 48.568H107.359H107.859C107.859 47.9932 108.232 47.0091 109.543 45.6513L109.183 45.304ZM107.359 48.568H106.859C106.859 48.9461 106.932 49.2789 107.082 49.5707C107.232 49.8621 107.445 50.0851 107.683 50.264L107.983 49.864L108.283 49.464C108.137 49.3549 108.038 49.2419 107.972 49.1133C107.906 48.9851 107.859 48.8139 107.859 48.568H107.359ZM107.983 49.864L107.663 50.2481C108.026 50.5503 108.472 50.748 108.991 50.748V50.248V49.748C108.742 49.748 108.516 49.6577 108.303 49.4799L107.983 49.864ZM122.864 44.776L123.2 45.1461L123.21 45.1364L122.864 44.776ZM128.624 41.32L128.814 41.7825L129.076 41.6747L129.118 41.3942L128.624 41.32ZM129.536 35.08L129.068 34.9044L129.067 34.9071L129.536 35.08ZM133.856 32.488L134.349 32.4058L134.339 32.3464L134.315 32.291L133.856 32.488ZM133.904 32.776H134.404V32.7346L134.397 32.6938L133.904 32.776ZM130.544 35.656L130.358 35.1918L130.119 35.2875L130.058 35.5382L130.544 35.656ZM129.872 40.84L129.378 40.7631L129.257 41.5417L130.013 41.3198L129.872 40.84ZM143.552 35.56L143.88 35.9375L143.893 35.926L143.905 35.9136L143.552 35.56ZM143.84 35.656L144.314 35.8141L144.34 35.7371V35.656H143.84ZM143.792 35.8L144.128 36.17L144.225 36.0821L144.266 35.9581L143.792 35.8ZM129.728 41.512L129.544 41.0469L129.286 41.149L129.236 41.4226L129.728 41.512ZM130.688 35.032L130.2 34.9212L129.977 35.9044L130.895 35.4872L130.688 35.032ZM133.472 32.776H133.972V32.7265L133.962 32.6779L133.472 32.776ZM128.528 42.04L129.024 42.1013L129.128 41.2615L128.342 41.5758L128.528 42.04ZM123.152 45.304L122.798 44.9504L122.792 44.9567L123.152 45.304ZM121.952 49.864L122.272 49.4799L122.262 49.4717L122.252 49.464L121.952 49.864ZM122.96 50.824V50.324C122.395 50.324 121.946 50.1436 121.644 49.8632C121.344 49.5861 121.156 49.1822 121.156 48.664H120.656H120.156C120.156 49.4418 120.447 50.1179 120.964 50.5968C121.477 51.0724 122.181 51.324 122.96 51.324V50.824ZM120.656 48.664H121.156C121.156 47.7994 121.676 46.5315 123.2 45.146L122.864 44.776L122.527 44.406C120.884 45.9005 120.156 47.4166 120.156 48.664H120.656ZM122.864 44.776L123.21 45.1364C124.399 43.9937 126.162 42.8715 128.814 41.7825L128.624 41.32L128.434 40.8575C125.709 41.9765 123.825 43.1583 122.517 44.4156L122.864 44.776ZM128.624 41.32L129.118 41.3942C129.264 40.4193 129.329 39.2716 129.433 38.2132C129.541 37.127 129.692 36.1012 130.005 35.2529L129.536 35.08L129.067 34.9071C128.707 35.8828 128.547 37.017 128.438 38.1148C128.327 39.2404 128.271 40.3007 128.129 41.2458L128.624 41.32ZM129.536 35.08L130.004 35.2556C130.33 34.3868 130.885 33.6902 131.476 33.213C132.08 32.725 132.668 32.508 133.04 32.508V32.008V31.508C132.355 31.508 131.551 31.867 130.848 32.435C130.131 33.0138 129.462 33.8532 129.068 34.9044L129.536 35.08ZM133.04 32.008V32.508C133.172 32.508 133.249 32.533 133.292 32.5573C133.328 32.5777 133.364 32.6105 133.396 32.685L133.856 32.488L134.315 32.291C134.203 32.0295 134.024 31.8223 133.784 31.6867C133.551 31.555 133.292 31.508 133.04 31.508V32.008ZM133.856 32.488L133.363 32.5702L133.411 32.8582L133.904 32.776L134.397 32.6938L134.349 32.4058L133.856 32.488ZM133.904 32.776H133.404C133.404 32.9032 133.323 33.1105 133.072 33.3941C132.832 33.6652 132.493 33.942 132.119 34.2009C131.37 34.7197 130.563 35.1098 130.358 35.1918L130.544 35.656L130.729 36.1202C131.005 36.0102 131.878 35.5843 132.688 35.0231C133.094 34.742 133.506 34.4128 133.821 34.0569C134.125 33.7135 134.404 33.2728 134.404 32.776H133.904ZM130.544 35.656L130.058 35.5382C129.857 36.3677 129.77 37.1545 129.692 37.9851C129.613 38.82 129.543 39.7018 129.378 40.7631L129.872 40.84L130.366 40.9169C130.537 39.8182 130.61 38.9 130.688 38.0789C130.765 37.2535 130.847 36.5283 131.03 35.7738L130.544 35.656ZM129.872 40.84L130.013 41.3198C132.633 40.5505 135.609 39.623 138.162 38.6875C139.438 38.2198 140.615 37.7478 141.593 37.2901C142.559 36.8373 143.368 36.3814 143.88 35.9375L143.552 35.56L143.224 35.1825C142.823 35.5306 142.12 35.9387 141.168 36.3844C140.227 36.8252 139.08 37.2862 137.818 37.7485C135.295 38.673 132.343 39.5935 129.731 40.3602L129.872 40.84ZM143.552 35.56L143.905 35.9136C143.887 35.9316 143.863 35.951 143.833 35.968C143.802 35.9852 143.772 35.9963 143.745 36.0031C143.7 36.0144 143.662 36.012 143.696 36.012V35.512V35.012C143.64 35.012 143.402 35.003 143.198 35.2064L143.552 35.56ZM143.696 35.512V36.012C143.667 36.012 143.553 36.0044 143.45 35.9016C143.347 35.7987 143.34 35.6851 143.34 35.656H143.84H144.34C144.34 35.5309 144.308 35.3453 144.157 35.1944C144.006 35.0436 143.821 35.012 143.696 35.012V35.512ZM143.84 35.656L143.365 35.4979L143.317 35.6419L143.792 35.8L144.266 35.9581L144.314 35.8141L143.84 35.656ZM143.792 35.8L143.455 35.43C142.852 35.9785 141.926 36.52 140.784 37.0487C139.648 37.5741 138.332 38.0719 136.974 38.5437C134.29 39.4755 131.374 40.3244 129.544 41.0469L129.728 41.512L129.911 41.9771C131.729 41.2596 134.525 40.4524 137.302 39.4883C138.673 39.0121 140.024 38.5019 141.203 37.9563C142.375 37.414 143.411 36.8215 144.128 36.17L143.792 35.8ZM129.728 41.512L129.236 41.4226C128.002 48.2071 124.843 50.324 122.96 50.324V50.824V51.324C125.589 51.324 128.957 48.5449 130.22 41.6014L129.728 41.512ZM130.688 35.032L130.895 35.4872C131.181 35.3571 131.901 34.9842 132.555 34.548C132.881 34.3305 133.21 34.085 133.463 33.8349C133.589 33.7098 133.709 33.5714 133.8 33.4232C133.889 33.2788 133.972 33.0893 133.972 32.872H133.472H132.972C132.972 32.8347 132.984 32.8402 132.948 32.9001C132.913 32.9563 132.853 33.0317 132.759 33.1241C132.573 33.309 132.304 33.5135 132 33.716C131.395 34.1198 130.723 34.4669 130.481 34.5768L130.688 35.032ZM133.472 32.872H133.972V32.776H133.472H132.972V32.872H133.472ZM133.472 32.776L133.962 32.6779C133.922 32.4762 133.828 32.2765 133.65 32.131C133.473 31.9858 133.267 31.94 133.088 31.94V32.44V32.94C133.101 32.94 133.063 32.9422 133.017 32.905C132.996 32.888 132.985 32.8709 132.979 32.8611C132.975 32.8525 132.978 32.8544 132.981 32.8741L133.472 32.776ZM133.088 32.44V31.94C132.755 31.94 132.427 32.1055 132.165 32.2809C131.885 32.468 131.601 32.7207 131.342 32.9994C130.836 33.543 130.348 34.2687 130.2 34.9212L130.688 35.032L131.175 35.1428C131.267 34.7393 131.619 34.169 132.074 33.6806C132.295 33.4433 132.521 33.246 132.721 33.1121C132.938 32.9665 133.06 32.94 133.088 32.94V32.44ZM122.96 50.248V50.748C123.638 50.748 124.322 50.436 124.947 49.9659C125.579 49.491 126.194 48.8232 126.747 48.0326C127.853 46.4525 128.749 44.3239 129.024 42.1013L128.528 42.04L128.032 41.9787C127.778 44.0281 126.947 46.0035 125.928 47.4594C125.419 48.1868 124.874 48.77 124.346 49.1666C123.812 49.568 123.337 49.748 122.96 49.748V50.248ZM128.528 42.04L128.342 41.5758C126.64 42.2567 124.261 43.4872 122.798 44.9504L123.152 45.304L123.505 45.6576C124.826 44.3368 127.056 43.1673 128.713 42.5042L128.528 42.04ZM123.152 45.304L122.792 44.9567C121.415 46.3829 120.828 47.6068 120.828 48.568H121.328H121.828C121.828 47.9932 122.201 47.0091 123.511 45.6513L123.152 45.304ZM121.328 48.568H120.828C120.828 48.9461 120.901 49.2789 121.051 49.5707C121.201 49.8621 121.413 50.0851 121.652 50.264L121.952 49.864L122.252 49.464C122.106 49.3549 122.007 49.2419 121.94 49.1133C121.874 48.9851 121.828 48.8139 121.828 48.568H121.328ZM121.952 49.864L121.632 50.2481C121.994 50.5503 122.44 50.748 122.96 50.748V50.248V49.748C122.711 49.748 122.485 49.6577 122.272 49.4799L121.952 49.864ZM161.619 43.528L161.412 43.9832L161.416 43.9849L161.619 43.528ZM160.899 37.816L160.463 37.5715L160.457 37.5818L160.452 37.5924L160.899 37.816ZM168.147 34.984H168.647V34.9693L168.646 34.9546L168.147 34.984ZM167.571 35.176L167.081 35.2741L167.087 35.3046L167.097 35.3341L167.571 35.176ZM167.283 34.648L166.93 35.0016L166.965 35.0366L167.006 35.064L167.283 34.648ZM162.339 37.72L162.777 37.9615L162.781 37.9552L162.784 37.9487L162.339 37.72ZM163.299 42.952L163.278 43.4515L163.288 43.452H163.299V42.952ZM177.795 35.656L177.61 35.1918L177.548 35.2165L177.495 35.2565L177.795 35.656ZM178.035 35.56V35.06H177.939L177.85 35.0958L178.035 35.56ZM178.035 35.992L177.758 35.576L177.741 35.5869L177.726 35.5991L178.035 35.992ZM163.059 43.816V43.316C162.593 43.316 162.183 43.2315 161.822 43.0711L161.619 43.528L161.416 43.9849C161.919 44.2085 162.469 44.316 163.059 44.316V43.816ZM161.619 43.528L161.826 43.0728C161.017 42.7051 160.631 41.8843 160.631 40.792H160.131H159.631C159.631 42.0997 160.109 43.3909 161.412 43.9832L161.619 43.528ZM160.131 40.792H160.631C160.631 39.8823 160.939 38.8554 161.346 38.0396L160.899 37.816L160.452 37.5924C159.996 38.5046 159.631 39.6857 159.631 40.792H160.131ZM160.899 37.816L161.335 38.0605C163.065 34.9757 164.992 34.044 166.179 34.044V33.544V33.044C164.487 33.044 162.286 34.3203 160.463 37.5715L160.899 37.816ZM166.179 33.544V34.044C167.173 34.044 167.621 34.556 167.648 35.0134L168.147 34.984L168.646 34.9546C168.577 33.78 167.49 33.044 166.179 33.044V33.544ZM168.147 34.984H167.647C167.647 35.048 167.631 35.0427 167.657 35.008C167.686 34.9702 167.755 34.916 167.859 34.916V35.416V35.916C168.403 35.916 168.647 35.4053 168.647 34.984H168.147ZM167.859 35.416V34.916C167.88 34.916 167.907 34.9196 167.936 34.9306C167.965 34.9416 167.99 34.9572 168.009 34.9737C168.045 35.0052 168.05 35.0301 168.046 35.0179L167.571 35.176L167.097 35.3341C167.187 35.6041 167.428 35.916 167.859 35.916V35.416ZM167.571 35.176L168.062 35.0779C168.003 34.7872 167.868 34.4367 167.561 34.232L167.283 34.648L167.006 35.064C166.992 35.0551 167.002 35.056 167.022 35.0933C167.042 35.1303 167.064 35.1896 167.081 35.2741L167.571 35.176ZM167.283 34.648L167.637 34.2944C167.286 33.9441 166.862 33.812 166.419 33.812V34.312V34.812C166.648 34.812 166.8 34.8719 166.93 35.0016L167.283 34.648ZM166.419 34.312V33.812C165.563 33.812 164.642 34.3433 163.873 35.0075C163.084 35.6883 162.358 36.5902 161.895 37.4913L162.339 37.72L162.784 37.9487C163.184 37.1698 163.827 36.3677 164.526 35.7645C165.244 35.1447 165.932 34.812 166.419 34.812V34.312ZM162.339 37.72L161.901 37.4785C161.111 38.9117 160.783 40.0527 160.783 40.984H161.283H161.783C161.783 40.2833 162.032 39.3123 162.777 37.9615L162.339 37.72ZM161.283 40.984H160.783C160.783 41.779 161.059 42.4051 161.549 42.8314C162.026 43.2459 162.652 43.4243 163.278 43.4515L163.299 42.952L163.321 42.4525C162.842 42.4317 162.46 42.2981 162.205 42.0766C161.964 41.8669 161.783 41.533 161.783 40.984H161.283ZM163.299 42.952V43.452H163.539V42.952V42.452H163.299V42.952ZM163.539 42.952V43.452C164.524 43.452 165.662 43.1752 166.858 42.7333C168.06 42.2891 169.353 41.6664 170.657 40.9479C173.264 39.5109 175.948 37.6723 178.096 36.0555L177.795 35.656L177.495 35.2565C175.37 36.8557 172.727 38.6651 170.174 40.0721C168.898 40.7756 167.652 41.3739 166.511 41.7952C165.365 42.2188 164.355 42.452 163.539 42.452V42.952ZM177.795 35.656L177.981 36.1202L178.221 36.0242L178.035 35.56L177.85 35.0958L177.61 35.1918L177.795 35.656ZM178.035 35.56V36.06C177.921 36.06 177.848 36.0077 177.814 35.9736C177.78 35.9394 177.727 35.8666 177.727 35.752H178.227H178.727C178.727 35.5414 178.627 35.3726 178.521 35.2664C178.415 35.1603 178.246 35.06 178.035 35.06V35.56ZM178.227 35.752H177.727C177.727 35.6855 177.743 35.6377 177.752 35.614C177.762 35.5875 177.773 35.571 177.778 35.5634C177.789 35.5481 177.788 35.5557 177.758 35.576L178.035 35.992L178.313 36.408C178.426 36.3323 178.521 36.2439 178.592 36.1446C178.655 36.0571 178.727 35.9199 178.727 35.752H178.227ZM178.035 35.992L177.726 35.5991C175.484 37.364 172.722 39.3039 170.051 40.7997C167.355 42.3097 164.838 43.316 163.059 43.316V43.816V44.316C165.12 44.316 167.836 43.1863 170.54 41.6723C173.268 40.1441 176.074 38.172 178.345 36.3849L178.035 35.992ZM175.416 38.92L175.858 39.1529L175.864 39.1423L175.869 39.1314L175.416 38.92ZM177.912 35.32L178.255 35.6835L178.669 35.2931L178.228 34.933L177.912 35.32ZM179.352 34.264L178.942 34.5507L178.948 34.5594L178.955 34.5677L179.352 34.264ZM181.032 36.424L180.803 36.8688L180.808 36.8712L181.032 36.424ZM191.736 35.608L191.615 35.1229L191.564 35.1355L191.517 35.1582L191.736 35.608ZM191.928 35.56V35.06H191.866L191.807 35.0749L191.928 35.56ZM191.88 35.944L192.094 36.3956L192.127 36.3801L192.157 36.36L191.88 35.944ZM180.168 36.712L180.391 36.2648L179.668 35.903V36.712H180.168ZM178.824 34.936L178.547 35.352L179.147 34.5543L178.824 34.936ZM178.2 34.408L178.523 34.0263L177.8 34.708L178.2 34.408ZM179.4 36.952H179.9V36.9165L179.895 36.8813L179.4 36.952ZM179.304 36.28L179.799 36.2093L179.766 35.9792L179.569 35.856L179.304 36.28ZM178.92 36.04L179.185 35.616L178.848 35.4052L178.566 35.6864L178.92 36.04ZM175.512 43.096L175.158 43.4496L175.216 43.5069L175.288 43.5432L175.512 43.096ZM175.56 43.912V43.412C175.39 43.412 175.234 43.3589 175.097 43.2224L174.744 43.576L174.39 43.9296C174.734 44.2731 175.154 44.412 175.56 44.412V43.912ZM174.744 43.576L175.097 43.2224C174.951 43.0755 174.86 42.8101 174.86 42.376H174.36H173.86C173.86 42.9019 173.961 43.5005 174.39 43.9296L174.744 43.576ZM174.36 42.376H174.86C174.86 41.3989 175.387 40.0491 175.858 39.1529L175.416 38.92L174.973 38.6871C174.485 39.6149 173.86 41.1451 173.86 42.376H174.36ZM175.416 38.92L175.869 39.1314C176.519 37.7389 177.444 36.4494 178.255 35.6835L177.912 35.32L177.569 34.9565C176.651 35.8226 175.657 37.2211 174.963 38.7086L175.416 38.92ZM177.912 35.32L178.228 34.933C177.748 34.5403 177.692 34.284 177.692 34.216H177.192H176.692C176.692 34.724 177.019 35.2357 177.595 35.707L177.912 35.32ZM177.192 34.216H177.692C177.692 34.2064 177.693 34.2046 177.694 34.2037C177.696 34.2009 177.704 34.1884 177.728 34.1711C177.782 34.1338 177.892 34.092 178.056 34.092V33.592V33.092C177.739 33.092 177.417 33.1702 177.159 33.3489C176.89 33.5351 176.692 33.8349 176.692 34.216H177.192ZM178.056 33.592V34.092C178.354 34.092 178.715 34.2267 178.942 34.5507L179.352 34.264L179.761 33.9773C179.316 33.3413 178.622 33.092 178.056 33.092V33.592ZM179.352 34.264L178.955 34.5677C179.247 34.9504 179.368 35.1888 179.422 35.336C179.48 35.491 179.47 35.5326 179.503 35.7069C179.519 35.7946 179.548 35.9058 179.618 36.0241C179.686 36.1393 179.776 36.2336 179.878 36.3175C180.068 36.4739 180.363 36.6427 180.803 36.8688L181.032 36.424L181.26 35.9792C180.812 35.7493 180.609 35.6241 180.513 35.545C180.472 35.5111 180.471 35.5023 180.48 35.5161C180.49 35.533 180.49 35.5444 180.485 35.5211C180.476 35.4734 180.457 35.248 180.36 34.9875C180.26 34.7192 180.08 34.3936 179.749 33.9603L179.352 34.264ZM181.032 36.424L180.808 36.8712C181.963 37.4487 183.396 37.644 184.776 37.644V37.144V36.644C183.468 36.644 182.213 36.4553 181.255 35.9768L181.032 36.424ZM184.776 37.144V37.644C187.397 37.644 190.208 36.9061 191.954 36.0578L191.736 35.608L191.517 35.1582C189.904 35.9419 187.242 36.644 184.776 36.644V37.144ZM191.736 35.608L191.857 36.0931L192.049 36.0451L191.928 35.56L191.807 35.0749L191.615 35.1229L191.736 35.608ZM191.928 35.56V36.06C191.902 36.06 191.847 36.055 191.783 36.012C191.747 35.9886 191.705 35.9505 191.671 35.8929C191.637 35.8331 191.62 35.7669 191.62 35.704H192.12H192.62C192.62 35.462 192.488 35.2808 192.337 35.18C192.201 35.089 192.05 35.06 191.928 35.06V35.56ZM192.12 35.704H191.62C191.62 35.6293 191.638 35.5725 191.65 35.5415C191.663 35.509 191.676 35.4865 191.684 35.4751C191.698 35.4533 191.707 35.4457 191.7 35.4524C191.688 35.4646 191.656 35.4922 191.603 35.528L191.88 35.944L192.157 36.36C192.248 36.2998 192.336 36.2314 192.407 36.1596C192.443 36.1243 192.485 36.0777 192.521 36.0214C192.549 35.9794 192.62 35.8636 192.62 35.704H192.12ZM191.88 35.944L191.665 35.4924C189.796 36.3804 187.133 37.172 184.536 37.172V37.672V38.172C187.315 38.172 190.124 37.3316 192.094 36.3956L191.88 35.944ZM184.536 37.672V37.172C183.062 37.172 181.653 36.8957 180.391 36.2648L180.168 36.712L179.944 37.1592C181.37 37.8723 182.938 38.172 184.536 38.172V37.672ZM180.168 36.712H179.668V36.76H180.168H180.668V36.712H180.168ZM180.168 36.76H179.668C179.668 38.1682 179.032 39.8616 178.147 41.2144C177.708 41.8861 177.222 42.4507 176.751 42.8414C176.267 43.242 175.857 43.412 175.56 43.412V43.912V44.412C176.199 44.412 176.833 44.072 177.389 43.6116C177.956 43.1413 178.506 42.4939 178.984 41.7616C179.936 40.3064 180.668 38.4238 180.668 36.76H180.168ZM178.824 34.936L179.147 34.5543L178.523 34.0263L178.2 34.408L177.877 34.7897L178.501 35.3177L178.824 34.936ZM178.2 34.408L177.8 34.708C178 34.975 178.258 35.1595 178.547 35.352L178.824 34.936L179.101 34.52C178.814 34.3285 178.688 34.225 178.6 34.108L178.2 34.408ZM175.848 43.192V43.692C176.137 43.692 176.408 43.5862 176.644 43.4452C176.881 43.3027 177.112 43.1066 177.329 42.8822C177.764 42.4333 178.19 41.8263 178.563 41.1634C179.302 39.8523 179.9 38.2038 179.9 36.952H179.4H178.9C178.9 37.9562 178.394 39.4277 177.692 40.6726C177.346 41.2877 176.968 41.8177 176.611 42.1863C176.432 42.3706 176.27 42.5035 176.129 42.5876C175.986 42.6733 175.894 42.692 175.848 42.692V43.192ZM179.4 36.952L179.895 36.8813L179.799 36.2093L179.304 36.28L178.809 36.3507L178.905 37.0227L179.4 36.952ZM179.304 36.28L179.569 35.856L179.185 35.616L178.92 36.04L178.655 36.464L179.039 36.704L179.304 36.28ZM178.92 36.04L178.566 35.6864C177.248 37.0045 176.34 38.4344 175.76 39.6812C175.188 40.9131 174.916 42.0091 174.916 42.664H175.416H175.916C175.916 42.2149 176.124 41.2709 176.667 40.1028C177.204 38.9496 178.047 37.6195 179.273 36.3936L178.92 36.04ZM175.416 42.664H174.916C174.916 42.8153 174.931 42.9533 174.961 43.0733C174.986 43.1745 175.038 43.3291 175.158 43.4496L175.512 43.096L175.865 42.7424C175.888 42.7652 175.903 42.7857 175.912 42.7992C175.921 42.8131 175.927 42.8239 175.929 42.8298C175.935 42.841 175.934 42.8427 175.931 42.8307C175.925 42.8067 175.916 42.7527 175.916 42.664H175.416ZM175.512 43.096L175.288 43.5432C175.388 43.5932 175.576 43.692 175.848 43.692V43.192V42.692C175.835 42.692 175.828 42.6905 175.82 42.6877C175.805 42.6826 175.787 42.6748 175.735 42.6488L175.512 43.096ZM198.41 38.392L198.853 38.6233L198.105 37.9953L198.41 38.392ZM199.898 35.656L199.404 35.734L199.645 37.263L200.344 35.8817L199.898 35.656ZM212.522 25.816L212.88 26.1653L212.88 26.1645L212.522 25.816ZM200.474 36.952L200.175 36.5509L200.089 36.6149L200.037 36.7086L200.474 36.952ZM216.602 35.56L216.444 35.0857L216.428 35.0908L216.413 35.097L216.602 35.56ZM216.746 35.512V35.012H216.665L216.588 35.0377L216.746 35.512ZM216.842 35.992L217.039 36.4513L217.053 36.4456L217.065 36.4392L216.842 35.992ZM191.258 41.32L191.196 41.8161L191.227 41.82H191.258V41.32ZM199.178 36.856L199.501 37.2373L199.678 37.0875V36.856H199.178ZM193.226 35.848L193.56 36.2198L193.571 36.2101L193.226 35.848ZM190.874 41.272L190.776 41.7623L190.794 41.7659L190.812 41.7681L190.874 41.272ZM201.338 35.368L200.919 35.0946L201.641 35.7654L201.338 35.368ZM215.738 21.352L216.116 21.6792L216.12 21.6743L215.738 21.352ZM218.186 13.768L217.839 13.4081L217.836 13.4111L218.186 13.768ZM199.226 46.696V46.196C198.731 46.196 198.274 46.0396 197.938 45.6857C197.602 45.3311 197.326 44.7137 197.326 43.672H196.826H196.326C196.326 44.8863 196.65 45.7809 197.213 46.3743C197.777 46.9684 198.52 47.196 199.226 47.196V46.696ZM196.826 43.672H197.326C197.326 42.4805 197.725 40.7847 198.853 38.6233L198.41 38.392L197.966 38.1607C196.79 40.4153 196.326 42.2715 196.326 43.672H196.826ZM198.41 38.392L198.105 37.9953C196.372 39.3248 194.914 40.228 193.724 40.7969C192.527 41.3692 191.632 41.588 191.018 41.588V42.088V42.588C191.843 42.588 192.893 42.3028 194.155 41.6991C195.425 41.092 196.943 40.1472 198.714 38.7887L198.41 38.392ZM191.018 42.088V41.588C190.441 41.588 190.109 41.4256 189.917 41.2225C189.72 41.0142 189.598 40.6864 189.598 40.216H189.098H188.598C188.598 40.8496 188.763 41.4578 189.19 41.9095C189.622 42.3664 190.251 42.588 191.018 42.588V42.088ZM189.098 40.216H189.598C189.598 39.036 190.421 37.3923 191.808 36.017C193.182 34.6539 195.007 33.66 196.874 33.66V33.16V32.66C194.66 32.66 192.597 33.8261 191.104 35.307C189.623 36.7757 188.598 38.66 188.598 40.216H189.098ZM196.874 33.16V33.66C197.548 33.66 198.116 33.8125 198.538 34.1256C198.95 34.4313 199.277 34.9294 199.404 35.734L199.898 35.656L200.392 35.578C200.231 34.5586 199.789 33.8087 199.134 33.3224C198.488 32.8435 197.688 32.66 196.874 32.66V33.16ZM199.898 35.656L200.344 35.8817C201.375 33.8425 205.523 27.7562 209.985 22.1617C212.211 19.3697 214.5 16.7196 216.501 14.772C217.502 13.7973 218.419 13.01 219.211 12.4696C220.024 11.9148 220.627 11.676 221.018 11.676V11.176V10.676C220.305 10.676 219.485 11.0717 218.647 11.6436C217.788 12.2299 216.824 13.0615 215.803 14.0555C213.759 16.0454 211.44 18.7323 209.203 21.5383C204.736 27.1398 200.532 33.2935 199.452 35.4303L199.898 35.656ZM221.018 11.176V11.676C221.216 11.676 221.32 11.7222 221.369 11.7647C221.405 11.7952 221.478 11.8792 221.478 12.136H221.978H222.478C222.478 11.6728 222.335 11.2768 222.022 11.0073C221.723 10.7497 221.347 10.676 221.018 10.676V11.176ZM221.978 12.136H221.478C221.478 12.5004 221.337 13.0845 220.98 13.8974C220.63 14.6986 220.088 15.6814 219.334 16.8294C217.825 19.1246 215.483 22.0521 212.163 25.4675L212.522 25.816L212.88 26.1645C216.232 22.7159 218.618 19.7394 220.17 17.3786C220.945 16.1986 221.517 15.1654 221.897 14.2986C222.271 13.4435 222.478 12.7076 222.478 12.136H221.978ZM212.522 25.816L212.164 25.4667C208.224 29.5033 204.266 33.5063 200.175 36.5509L200.474 36.952L200.772 37.3531C204.937 34.2537 208.948 30.1927 212.88 26.1653L212.522 25.816ZM200.474 36.952L200.037 36.7086C198.148 40.0983 197.478 42.4911 197.478 44.056H197.978H198.478C198.478 42.7409 199.055 40.5257 200.911 37.1954L200.474 36.952ZM197.978 44.056H197.478C197.478 44.8862 197.658 45.5284 198.038 45.9672C198.429 46.4192 198.958 46.572 199.466 46.572V46.072V45.572C199.157 45.572 198.943 45.4848 198.794 45.3128C198.634 45.1276 198.478 44.7618 198.478 44.056H197.978ZM199.466 46.072V46.572C200.019 46.572 200.64 46.4074 201.288 46.15C201.943 45.8901 202.658 45.522 203.408 45.084C204.907 44.2086 206.587 43.0301 208.256 41.8141C209.935 40.5909 211.595 39.337 213.092 38.2791C214.596 37.2164 215.879 36.3944 216.79 36.023L216.602 35.56L216.413 35.097C215.381 35.5176 214.011 36.4056 212.515 37.4624C211.013 38.524 209.324 39.7991 207.667 41.0059C206.001 42.2199 204.356 43.3724 202.904 44.2205C202.178 44.6443 201.51 44.986 200.919 45.2206C200.322 45.4576 199.837 45.572 199.466 45.572V46.072ZM216.602 35.56L216.76 36.0343L216.904 35.9863L216.746 35.512L216.588 35.0377L216.444 35.0857L216.602 35.56ZM216.746 35.512V36.012C216.73 36.012 216.694 36.0089 216.649 35.9874C216.603 35.9655 216.565 35.9326 216.538 35.896C216.489 35.8311 216.486 35.7738 216.486 35.752H216.986H217.486C217.486 35.6342 217.458 35.4569 217.338 35.296C217.199 35.1109 216.985 35.012 216.746 35.012V35.512ZM216.986 35.752H216.486C216.486 35.6863 216.521 35.5932 216.618 35.5448L216.842 35.992L217.065 36.4392C217.354 36.2948 217.486 36.0097 217.486 35.752H216.986ZM216.842 35.992L216.644 35.5327C215.472 36.0368 214.053 36.976 212.541 38.0694C211.03 39.1622 209.363 40.4569 207.736 41.6622C206.095 42.8783 204.471 44.0207 202.988 44.8581C201.487 45.7052 200.204 46.196 199.226 46.196V46.696V47.196C200.479 47.196 201.956 46.5888 203.48 45.7289C205.02 44.8593 206.685 43.6857 208.331 42.4658C209.992 41.2351 211.614 39.9738 213.127 38.8796C214.639 37.786 215.979 36.9072 217.039 36.4513L216.842 35.992ZM191.258 41.32V41.82C191.726 41.82 192.279 41.6872 192.87 41.4698C193.469 41.2498 194.138 40.9312 194.85 40.5322C196.275 39.734 197.897 38.5986 199.501 37.2373L199.178 36.856L198.854 36.4747C197.291 37.8014 195.721 38.898 194.361 39.6598C193.681 40.0408 193.061 40.3342 192.525 40.5312C191.983 40.7308 191.557 40.82 191.258 40.82V41.32ZM199.178 36.856H199.678V36.568H199.178H198.678V36.856H199.178ZM199.178 36.568H199.678C199.678 35.5785 199.43 34.8212 198.937 34.3121C198.441 33.8007 197.776 33.62 197.114 33.62V34.12V34.62C197.603 34.62 197.97 34.7512 198.219 35.0079C198.469 35.2668 198.678 35.7335 198.678 36.568H199.178ZM197.114 34.12V33.62C195.657 33.62 193.956 34.4623 192.881 35.4859L193.226 35.848L193.571 36.2101C194.512 35.3137 195.978 34.62 197.114 34.62V34.12ZM193.226 35.848L192.891 35.4764C192.118 36.1723 191.413 37.1462 190.902 38.0874C190.401 39.0097 190.038 39.9898 190.038 40.696H190.538H191.038C191.038 40.2502 191.298 39.4543 191.781 38.5646C192.254 37.6938 192.893 36.8197 193.56 36.2196L193.226 35.848ZM190.538 40.696H190.038C190.038 40.887 190.068 41.1085 190.174 41.3079C190.288 41.5242 190.489 41.7049 190.776 41.7623L190.874 41.272L190.972 40.7817C190.987 40.7847 191.009 40.7932 191.03 40.8098C191.049 40.8253 191.057 40.8391 191.058 40.8401C191.058 40.8403 191.056 40.8377 191.054 40.8313C191.052 40.8249 191.049 40.8155 191.047 40.8027C191.042 40.7766 191.038 40.741 191.038 40.696H190.538ZM190.874 41.272L190.812 41.7681L191.196 41.8161L191.258 41.32L191.32 40.8239L190.936 40.7759L190.874 41.272ZM201.338 35.368L201.641 35.7654C204.313 33.7252 211.153 27.4125 216.116 21.6792L215.738 21.352L215.36 21.0248C210.434 26.7155 203.643 32.9788 201.034 34.9706L201.338 35.368ZM215.738 21.352L216.12 21.6743C217.813 19.6675 219.256 17.6916 220.279 16.0347C220.79 15.2069 221.202 14.4508 221.487 13.805C221.765 13.1763 221.95 12.5945 221.95 12.136H221.45H220.95C220.95 12.3735 220.841 12.7937 220.572 13.401C220.312 13.9912 219.925 14.7051 219.428 15.5093C218.436 17.1164 217.023 19.0525 215.356 21.0296L215.738 21.352ZM221.45 12.136H221.95C221.95 11.9934 221.944 11.7505 221.824 11.5399C221.755 11.4189 221.651 11.3132 221.511 11.2433C221.378 11.1766 221.239 11.156 221.114 11.156V11.656V12.156C221.132 12.156 221.107 12.1594 221.064 12.1377C221.042 12.1266 221.02 12.1112 220.999 12.0914C220.979 12.0719 220.965 12.0522 220.956 12.0361C220.939 12.0066 220.94 11.9925 220.944 12.0155C220.947 12.0378 220.95 12.075 220.95 12.136H221.45ZM221.114 11.656V11.156C220.874 11.156 220.629 11.2509 220.418 11.3572C220.193 11.4704 219.944 11.6295 219.68 11.8214C219.15 12.206 218.52 12.7512 217.839 13.4081L218.186 13.768L218.533 14.1279C219.196 13.4888 219.789 12.978 220.268 12.6306C220.507 12.4565 220.708 12.3306 220.868 12.2503C221.041 12.1631 221.114 12.156 221.114 12.156V11.656ZM218.186 13.768L217.836 13.4111C212.756 18.3942 203.996 30.3834 200.919 35.0946L201.338 35.368L201.756 35.6414C204.824 30.9446 213.536 19.0298 218.536 14.1249L218.186 13.768ZM215.38 43.48L215.583 43.0231L215.577 43.0204L215.38 43.48ZM214.9 37.768L214.465 37.5226L214.462 37.527L214.9 37.768ZM216.052 38.056L215.957 37.5653L215.715 37.6124L215.605 37.8324L216.052 38.056ZM217.108 42.952L217.087 43.4515L217.098 43.452H217.108V42.952ZM231.796 35.656L231.611 35.1918L231.55 35.216L231.498 35.2549L231.796 35.656ZM232.036 35.56V35.06H231.94L231.851 35.0958L232.036 35.56ZM232.036 35.992L231.759 35.576L231.746 35.5848L231.733 35.5945L232.036 35.992ZM216.436 37.336L216.02 37.0586L215.445 37.9222L216.479 37.8342L216.436 37.336ZM221.428 34.168L221.782 33.8144L221.782 33.8144L221.428 34.168ZM216.82 43.768V43.268C216.354 43.268 215.944 43.1835 215.583 43.0231L215.38 43.48L215.177 43.9369C215.68 44.1605 216.231 44.268 216.82 44.268V43.768ZM215.38 43.48L215.577 43.0204C214.826 42.6984 214.488 41.9814 214.488 40.984H213.988H213.488C213.488 42.1946 213.919 43.3976 215.183 43.9396L215.38 43.48ZM213.988 40.984H214.488C214.488 39.9879 214.838 38.9191 215.338 38.009L214.9 37.768L214.462 37.527C213.907 38.5369 213.488 39.7721 213.488 40.984H213.988ZM214.9 37.768L215.336 38.0134C217.195 34.7139 219.403 33.804 220.66 33.804V33.304V32.804C218.942 32.804 216.446 34.0061 214.465 37.5226L214.9 37.768ZM220.66 33.304V33.804C221.036 33.804 221.302 33.8782 221.456 33.9661C221.604 34.0506 221.6 34.1118 221.6 34.12H222.1H222.6C222.6 33.6482 222.309 33.3014 221.952 33.0979C221.602 32.8978 221.149 32.804 220.66 32.804V33.304ZM222.1 34.12H221.6C221.6 34.2792 221.526 34.5268 221.301 34.8437C221.08 35.1546 220.736 35.5 220.259 35.8449C219.307 36.5339 217.865 37.1929 215.957 37.5653L216.052 38.056L216.148 38.5467C218.176 38.1511 219.758 37.4421 220.845 36.6551C221.389 36.262 221.818 35.8424 222.116 35.4228C222.41 35.0092 222.6 34.5608 222.6 34.12H222.1ZM216.052 38.056L215.605 37.8324C214.961 39.1197 214.688 40.1586 214.688 40.984H215.188H215.688C215.688 40.3694 215.895 39.4883 216.5 38.2796L216.052 38.056ZM215.188 40.984H214.688C214.688 41.7616 214.928 42.387 215.394 42.8202C215.85 43.2446 216.46 43.4243 217.087 43.4515L217.108 42.952L217.13 42.4525C216.653 42.4317 216.302 42.2994 216.075 42.0878C215.857 41.885 215.688 41.5504 215.688 40.984H215.188ZM217.108 42.952V43.452H217.348V42.952V42.452H217.108V42.952ZM217.348 42.952V43.452C218.333 43.452 219.479 43.1755 220.689 42.7339C221.905 42.2901 223.216 41.6678 224.541 40.9495C227.19 39.5129 229.922 37.6746 232.095 36.0571L231.796 35.656L231.498 35.2549C229.351 36.8534 226.659 38.6631 224.064 40.0705C222.766 40.7742 221.501 41.3729 220.346 41.7946C219.184 42.2185 218.164 42.452 217.348 42.452V42.952ZM231.796 35.656L231.982 36.1202L232.222 36.0242L232.036 35.56L231.851 35.0958L231.611 35.1918L231.796 35.656ZM232.036 35.56V36.06C231.928 36.06 231.866 36.0127 231.848 35.9981C231.835 35.987 231.816 35.9685 231.796 35.9386C231.786 35.9234 231.771 35.8989 231.758 35.8655C231.746 35.8342 231.728 35.7779 231.728 35.704H232.228H232.728C232.728 35.5463 232.659 35.4312 232.628 35.3839C232.587 35.3225 232.538 35.271 232.488 35.2299C232.399 35.1553 232.241 35.06 232.036 35.06V35.56ZM232.228 35.704H231.728C231.728 35.6857 231.731 35.6639 231.737 35.6406C231.744 35.6173 231.753 35.5978 231.762 35.583C231.78 35.5546 231.79 35.5552 231.759 35.576L232.036 35.992L232.314 36.408C232.552 36.2492 232.728 36.0148 232.728 35.704H232.228ZM232.036 35.992L231.733 35.5945C229.419 37.3601 226.596 39.2888 223.882 40.7733C221.143 42.2717 218.602 43.268 216.82 43.268V43.768V44.268C218.879 44.268 221.617 43.1523 224.362 41.6507C227.133 40.1352 229.998 38.1759 232.34 36.3895L232.036 35.992ZM216.436 37.336L216.479 37.8342C217.702 37.7301 219.058 37.2047 220.102 36.5984C220.626 36.2938 221.093 35.9566 221.436 35.6217C221.608 35.4544 221.759 35.2771 221.871 35.0942C221.98 34.9161 222.072 34.6969 222.072 34.456H221.572H221.072C221.072 34.4431 221.075 34.4789 221.017 34.5732C220.963 34.6628 220.872 34.7754 220.738 34.9058C220.471 35.1664 220.077 35.4562 219.599 35.7336C218.639 36.2913 217.427 36.7499 216.394 36.8378L216.436 37.336ZM221.572 34.456H222.072C222.072 34.1806 221.932 33.9649 221.782 33.8144L221.428 34.168L221.075 34.5216C221.094 34.5411 221.095 34.5465 221.089 34.5356C221.083 34.5225 221.072 34.4944 221.072 34.456H221.572ZM221.428 34.168L221.782 33.8144C221.586 33.6185 221.264 33.476 220.9 33.476V33.976V34.476C220.954 34.476 220.999 34.4867 221.033 34.5002C221.07 34.515 221.082 34.5283 221.075 34.5216L221.428 34.168ZM220.9 33.976V33.476C220.285 33.476 219.48 33.7577 218.641 34.3234C217.79 34.8971 216.869 35.7856 216.02 37.0586L216.436 37.336L216.852 37.6133C217.636 36.4384 218.467 35.6469 219.2 35.1526C219.945 34.6503 220.556 34.476 220.9 34.476V33.976Z" fill="#8B9B68" mask="url(#path-1-outside-1_13_187)"/>
</svg>
