<svg width="277" height="106" viewBox="0 0 277 106" fill="none" xmlns="http://www.w3.org/2000/svg">
<mask id="path-1-outside-1_13_186" maskUnits="userSpaceOnUse" x="0" y="0" width="277" height="106" fill="black">
<rect fill="white" width="277" height="106"/>
<path d="M58.7395 79.608C57.0115 79.608 55.7875 78.096 55.1395 74.64C54.8515 72.984 54.7795 71.112 54.7795 69.096C54.7795 57 59.6035 39.504 64.7875 30.648C60.6835 33.168 38.9395 57.504 28.2115 61.896C27.5635 62.184 27.0595 62.256 26.5555 62.256C25.0435 62.256 24.2515 61.104 24.2515 58.944C24.2515 51.816 33.0355 34.392 50.7475 19.488C39.6595 23.016 2.29147 29.28 2.29147 34.392L2.36347 34.752C2.36347 35.04 2.14747 35.256 1.93147 35.256C1.64347 35.256 1.42747 35.04 1.35547 34.608V34.32C1.35547 27.264 43.6195 21.864 53.7715 16.968L54.1315 16.896C54.7075 16.896 55.7155 17.472 55.7155 18.12C55.7155 18.336 55.5715 18.552 55.2115 18.768C51.3955 21.216 43.2595 29.568 37.2835 38.064C31.2355 46.632 26.5555 55.416 26.5555 58.872C26.5555 59.808 26.9155 60.312 27.7075 60.312C28.2835 60.312 29.2195 59.952 30.3715 59.232C41.7475 52.248 62.5555 29.136 66.9475 27.48H67.1635C67.9555 27.48 69.3955 28.272 69.3955 28.848L69.3235 28.992C61.9795 39.072 56.8675 60.024 56.8675 70.752C56.8675 74.784 57.5875 77.376 59.2435 77.376C69.6835 77.016 103.163 10.92 126.563 1.128C126.779 1.05599 126.923 1.05599 126.995 1.05599C127.283 1.05599 127.427 1.128 127.427 1.272C127.427 1.416 127.283 1.632 126.995 1.704C105.971 9.912 70.5475 79.608 58.7395 79.608ZM99.2423 58.152C98.4503 58.152 97.7303 58.008 97.0823 57.72C95.5703 57.072 94.9943 55.632 94.9943 53.976C94.9943 52.32 95.5703 50.592 96.3623 49.152C99.2423 44.04 102.77 42.456 105.002 42.456C106.298 42.456 107.162 42.96 107.162 43.68C107.162 45.48 103.994 48.432 98.0903 49.584C97.1543 51.456 96.7943 52.896 96.7943 53.976C96.7943 55.992 98.0183 56.856 99.6743 56.928H100.034C105.434 56.928 115.226 50.808 121.706 45.984L122.066 45.84C122.21 45.84 122.354 45.984 122.354 46.056C122.354 46.2 122.282 46.344 122.066 46.488C115.082 51.816 105.002 58.152 99.2423 58.152ZM98.6663 48.504C102.05 48.216 106.37 45.552 106.37 44.184C106.37 44.04 106.298 43.896 106.154 43.752C106.01 43.608 105.722 43.464 105.362 43.464C103.922 43.464 101.114 44.832 98.6663 48.504ZM133.038 62.544C131.238 62.544 129.438 61.392 129.438 58.008C129.438 56.064 130.086 53.4 131.814 50.088C126.558 54.12 122.886 55.632 120.726 55.632C118.71 55.632 117.846 54.48 117.846 52.824C117.846 48.72 123.39 42.24 129.51 42.24C131.742 42.24 133.614 43.248 134.046 45.984C137.214 39.72 159.102 9.264 165.726 9.264C166.518 9.264 167.166 9.624 167.166 10.704C167.166 13.512 162.99 20.928 152.982 31.224C147.078 37.272 141.102 43.32 134.91 47.928C132.102 52.968 131.166 56.424 131.166 58.584C131.166 60.888 132.174 61.608 133.398 61.608C138.942 61.608 153.27 48.216 159.102 45.84L159.318 45.768C159.606 45.768 159.678 45.984 159.678 46.128C159.678 46.272 159.606 46.416 159.462 46.488C152.766 49.368 139.734 62.544 133.038 62.544ZM121.086 54.48C123.39 54.48 128.214 51.816 132.966 47.784V47.352C132.966 44.616 131.598 43.68 129.87 43.68C127.926 43.68 125.55 44.832 124.038 46.272C121.878 48.216 120.006 51.816 120.006 53.544C120.006 53.976 120.15 54.336 120.51 54.408L121.086 54.48ZM136.206 45.552C140.166 42.528 150.39 33.096 157.806 24.528C162.846 18.552 166.374 12.792 166.374 10.704C166.374 10.272 166.302 9.984 165.87 9.984C165.15 9.984 163.494 11.208 161.478 13.152C153.918 20.568 140.814 38.496 136.206 45.552ZM170.374 62.544C168.574 62.544 166.774 61.392 166.774 58.008C166.774 56.064 167.422 53.4 169.15 50.088C163.894 54.12 160.222 55.632 158.062 55.632C156.046 55.632 155.182 54.48 155.182 52.824C155.182 48.72 160.726 42.24 166.846 42.24C169.078 42.24 170.95 43.248 171.382 45.984C174.55 39.72 196.438 9.264 203.062 9.264C203.854 9.264 204.502 9.624 204.502 10.704C204.502 13.512 200.326 20.928 190.318 31.224C184.414 37.272 178.438 43.32 172.246 47.928C169.438 52.968 168.502 56.424 168.502 58.584C168.502 60.888 169.51 61.608 170.734 61.608C176.278 61.608 190.606 48.216 196.438 45.84L196.654 45.768C196.942 45.768 197.014 45.984 197.014 46.128C197.014 46.272 196.942 46.416 196.798 46.488C190.102 49.368 177.07 62.544 170.374 62.544ZM158.422 54.48C160.726 54.48 165.55 51.816 170.302 47.784V47.352C170.302 44.616 168.934 43.68 167.206 43.68C165.262 43.68 162.886 44.832 161.374 46.272C159.214 48.216 157.342 51.816 157.342 53.544C157.342 53.976 157.486 54.336 157.846 54.408L158.422 54.48ZM173.542 45.552C177.502 42.528 187.726 33.096 195.142 24.528C200.182 18.552 203.71 12.792 203.71 10.704C203.71 10.272 203.638 9.984 203.206 9.984C202.486 9.984 200.83 11.208 198.814 13.152C191.254 20.568 178.15 38.496 173.542 45.552ZM203.39 39.576C203.03 39.576 202.67 39.504 202.454 39.36C202.166 39.144 201.95 38.784 201.95 38.424C201.95 38.136 202.094 37.776 202.238 37.56C202.526 37.272 202.742 37.2 203.03 37.2C203.462 37.2 203.822 37.416 204.038 37.704C204.254 37.92 204.47 38.208 204.47 38.568C204.47 38.784 204.398 39 204.254 39.216C204.11 39.504 203.75 39.576 203.39 39.576ZM195.614 58.584C195.182 58.584 194.678 58.512 194.318 58.296C193.166 57.648 192.662 56.496 192.662 55.128C192.662 50.664 197.63 43.464 199.574 41.304C199.718 41.16 199.862 41.088 200.006 41.088C200.51 41.088 201.014 41.592 201.014 42.024L200.87 42.312C198.134 45.408 193.886 51.744 193.886 55.128C193.886 56.136 194.246 56.856 194.966 57.216C195.254 57.36 195.614 57.432 196.046 57.432C200.87 57.432 212.102 47.496 216.566 45.912L216.926 45.84C217.142 45.84 217.286 45.912 217.286 46.056C217.286 46.2 217.142 46.416 216.782 46.488C212.318 48.144 200.942 58.584 195.614 58.584ZM209.744 60.024C209.456 60.024 209.168 59.736 209.168 59.376V59.16C209.816 57.432 210.32 55.776 211.832 53.256C214.28 49.08 216.872 45.12 217.304 44.616C217.52 44.4 217.664 44.328 217.88 44.328C218.312 44.328 218.816 44.76 218.816 45.12C218.816 45.192 218.744 45.336 218.672 45.408C215.792 49.296 212.552 54.048 210.392 58.368C212.336 56.136 220.544 47.136 223.928 47.136C224.216 47.136 224.432 47.136 224.648 47.28C224.864 47.424 225.152 47.496 225.152 48L225.08 48.504C224.864 49.512 224.72 50.736 224.72 51.96C224.72 55.128 225.656 58.296 228.32 58.368C233.576 58.368 244.088 48.288 248.48 45.84H248.696C248.84 45.84 248.984 45.912 248.984 46.056C248.984 46.128 248.912 46.2 248.768 46.272C243.728 49.656 233.432 59.376 228.032 59.376H227.888C223.352 59.232 222.704 54.12 222.704 50.52V48.864C217.808 51.672 212.408 57.576 210.104 59.88L209.744 60.024ZM218.632 104.592C218.2 104.592 217.84 104.592 217.408 104.448C215.464 103.872 214.672 102.648 214.672 100.992C214.672 94.8 225.904 82.776 228.712 79.968C241.672 67.152 253.552 59.016 254.704 58.152L260.464 48.504C257.8 51.096 250.96 55.632 247.144 55.632C246.352 55.632 245.632 55.344 245.128 54.84C244.552 54.192 244.336 53.4 244.336 52.608C244.336 50.016 246.64 46.992 248.656 45.48C250.96 43.824 253.48 42.888 255.928 42.888C258.304 42.888 260.464 43.752 262.12 45.696C262.696 44.904 263.128 44.04 263.488 43.752C263.56 43.68 263.704 43.608 263.848 43.608C264.28 43.608 264.856 43.824 264.856 44.184L264.784 44.328C262.624 48.216 259.888 52.896 257.584 56.712C261.544 54.192 268.168 50.52 275.944 45.912L276.16 45.84C276.304 45.84 276.448 45.984 276.448 46.128L276.304 46.416C268.528 51.312 263.92 53.4 256.432 58.584L252.4 65.28C249.016 71.184 229.432 104.592 218.632 104.592ZM218.992 103.512C229.216 103.512 248.08 69.24 253.408 60.24C246.352 65.28 236.992 72.984 229.432 80.688C226.264 83.928 215.752 95.304 215.752 100.704C215.752 102 216.328 102.936 217.84 103.368C218.2 103.44 218.56 103.512 218.992 103.512ZM247.864 54.48C251.32 54.48 258.808 49.152 261.616 46.488C260.032 44.616 258.304 43.896 256.648 43.896C254.2 43.896 251.824 45.408 249.664 47.208C248.368 48.288 245.992 50.88 245.992 52.824C245.992 53.256 246.136 53.616 246.424 53.976C246.784 54.336 247.216 54.48 247.864 54.48Z"/>
</mask>
<path d="M58.7395 79.608C57.0115 79.608 55.7875 78.096 55.1395 74.64C54.8515 72.984 54.7795 71.112 54.7795 69.096C54.7795 57 59.6035 39.504 64.7875 30.648C60.6835 33.168 38.9395 57.504 28.2115 61.896C27.5635 62.184 27.0595 62.256 26.5555 62.256C25.0435 62.256 24.2515 61.104 24.2515 58.944C24.2515 51.816 33.0355 34.392 50.7475 19.488C39.6595 23.016 2.29147 29.28 2.29147 34.392L2.36347 34.752C2.36347 35.04 2.14747 35.256 1.93147 35.256C1.64347 35.256 1.42747 35.04 1.35547 34.608V34.32C1.35547 27.264 43.6195 21.864 53.7715 16.968L54.1315 16.896C54.7075 16.896 55.7155 17.472 55.7155 18.12C55.7155 18.336 55.5715 18.552 55.2115 18.768C51.3955 21.216 43.2595 29.568 37.2835 38.064C31.2355 46.632 26.5555 55.416 26.5555 58.872C26.5555 59.808 26.9155 60.312 27.7075 60.312C28.2835 60.312 29.2195 59.952 30.3715 59.232C41.7475 52.248 62.5555 29.136 66.9475 27.48H67.1635C67.9555 27.48 69.3955 28.272 69.3955 28.848L69.3235 28.992C61.9795 39.072 56.8675 60.024 56.8675 70.752C56.8675 74.784 57.5875 77.376 59.2435 77.376C69.6835 77.016 103.163 10.92 126.563 1.128C126.779 1.05599 126.923 1.05599 126.995 1.05599C127.283 1.05599 127.427 1.128 127.427 1.272C127.427 1.416 127.283 1.632 126.995 1.704C105.971 9.912 70.5475 79.608 58.7395 79.608ZM99.2423 58.152C98.4503 58.152 97.7303 58.008 97.0823 57.72C95.5703 57.072 94.9943 55.632 94.9943 53.976C94.9943 52.32 95.5703 50.592 96.3623 49.152C99.2423 44.04 102.77 42.456 105.002 42.456C106.298 42.456 107.162 42.96 107.162 43.68C107.162 45.48 103.994 48.432 98.0903 49.584C97.1543 51.456 96.7943 52.896 96.7943 53.976C96.7943 55.992 98.0183 56.856 99.6743 56.928H100.034C105.434 56.928 115.226 50.808 121.706 45.984L122.066 45.84C122.21 45.84 122.354 45.984 122.354 46.056C122.354 46.2 122.282 46.344 122.066 46.488C115.082 51.816 105.002 58.152 99.2423 58.152ZM98.6663 48.504C102.05 48.216 106.37 45.552 106.37 44.184C106.37 44.04 106.298 43.896 106.154 43.752C106.01 43.608 105.722 43.464 105.362 43.464C103.922 43.464 101.114 44.832 98.6663 48.504ZM133.038 62.544C131.238 62.544 129.438 61.392 129.438 58.008C129.438 56.064 130.086 53.4 131.814 50.088C126.558 54.12 122.886 55.632 120.726 55.632C118.71 55.632 117.846 54.48 117.846 52.824C117.846 48.72 123.39 42.24 129.51 42.24C131.742 42.24 133.614 43.248 134.046 45.984C137.214 39.72 159.102 9.264 165.726 9.264C166.518 9.264 167.166 9.624 167.166 10.704C167.166 13.512 162.99 20.928 152.982 31.224C147.078 37.272 141.102 43.32 134.91 47.928C132.102 52.968 131.166 56.424 131.166 58.584C131.166 60.888 132.174 61.608 133.398 61.608C138.942 61.608 153.27 48.216 159.102 45.84L159.318 45.768C159.606 45.768 159.678 45.984 159.678 46.128C159.678 46.272 159.606 46.416 159.462 46.488C152.766 49.368 139.734 62.544 133.038 62.544ZM121.086 54.48C123.39 54.48 128.214 51.816 132.966 47.784V47.352C132.966 44.616 131.598 43.68 129.87 43.68C127.926 43.68 125.55 44.832 124.038 46.272C121.878 48.216 120.006 51.816 120.006 53.544C120.006 53.976 120.15 54.336 120.51 54.408L121.086 54.48ZM136.206 45.552C140.166 42.528 150.39 33.096 157.806 24.528C162.846 18.552 166.374 12.792 166.374 10.704C166.374 10.272 166.302 9.984 165.87 9.984C165.15 9.984 163.494 11.208 161.478 13.152C153.918 20.568 140.814 38.496 136.206 45.552ZM170.374 62.544C168.574 62.544 166.774 61.392 166.774 58.008C166.774 56.064 167.422 53.4 169.15 50.088C163.894 54.12 160.222 55.632 158.062 55.632C156.046 55.632 155.182 54.48 155.182 52.824C155.182 48.72 160.726 42.24 166.846 42.24C169.078 42.24 170.95 43.248 171.382 45.984C174.55 39.72 196.438 9.264 203.062 9.264C203.854 9.264 204.502 9.624 204.502 10.704C204.502 13.512 200.326 20.928 190.318 31.224C184.414 37.272 178.438 43.32 172.246 47.928C169.438 52.968 168.502 56.424 168.502 58.584C168.502 60.888 169.51 61.608 170.734 61.608C176.278 61.608 190.606 48.216 196.438 45.84L196.654 45.768C196.942 45.768 197.014 45.984 197.014 46.128C197.014 46.272 196.942 46.416 196.798 46.488C190.102 49.368 177.07 62.544 170.374 62.544ZM158.422 54.48C160.726 54.48 165.55 51.816 170.302 47.784V47.352C170.302 44.616 168.934 43.68 167.206 43.68C165.262 43.68 162.886 44.832 161.374 46.272C159.214 48.216 157.342 51.816 157.342 53.544C157.342 53.976 157.486 54.336 157.846 54.408L158.422 54.48ZM173.542 45.552C177.502 42.528 187.726 33.096 195.142 24.528C200.182 18.552 203.71 12.792 203.71 10.704C203.71 10.272 203.638 9.984 203.206 9.984C202.486 9.984 200.83 11.208 198.814 13.152C191.254 20.568 178.15 38.496 173.542 45.552ZM203.39 39.576C203.03 39.576 202.67 39.504 202.454 39.36C202.166 39.144 201.95 38.784 201.95 38.424C201.95 38.136 202.094 37.776 202.238 37.56C202.526 37.272 202.742 37.2 203.03 37.2C203.462 37.2 203.822 37.416 204.038 37.704C204.254 37.92 204.47 38.208 204.47 38.568C204.47 38.784 204.398 39 204.254 39.216C204.11 39.504 203.75 39.576 203.39 39.576ZM195.614 58.584C195.182 58.584 194.678 58.512 194.318 58.296C193.166 57.648 192.662 56.496 192.662 55.128C192.662 50.664 197.63 43.464 199.574 41.304C199.718 41.16 199.862 41.088 200.006 41.088C200.51 41.088 201.014 41.592 201.014 42.024L200.87 42.312C198.134 45.408 193.886 51.744 193.886 55.128C193.886 56.136 194.246 56.856 194.966 57.216C195.254 57.36 195.614 57.432 196.046 57.432C200.87 57.432 212.102 47.496 216.566 45.912L216.926 45.84C217.142 45.84 217.286 45.912 217.286 46.056C217.286 46.2 217.142 46.416 216.782 46.488C212.318 48.144 200.942 58.584 195.614 58.584ZM209.744 60.024C209.456 60.024 209.168 59.736 209.168 59.376V59.16C209.816 57.432 210.32 55.776 211.832 53.256C214.28 49.08 216.872 45.12 217.304 44.616C217.52 44.4 217.664 44.328 217.88 44.328C218.312 44.328 218.816 44.76 218.816 45.12C218.816 45.192 218.744 45.336 218.672 45.408C215.792 49.296 212.552 54.048 210.392 58.368C212.336 56.136 220.544 47.136 223.928 47.136C224.216 47.136 224.432 47.136 224.648 47.28C224.864 47.424 225.152 47.496 225.152 48L225.08 48.504C224.864 49.512 224.72 50.736 224.72 51.96C224.72 55.128 225.656 58.296 228.32 58.368C233.576 58.368 244.088 48.288 248.48 45.84H248.696C248.84 45.84 248.984 45.912 248.984 46.056C248.984 46.128 248.912 46.2 248.768 46.272C243.728 49.656 233.432 59.376 228.032 59.376H227.888C223.352 59.232 222.704 54.12 222.704 50.52V48.864C217.808 51.672 212.408 57.576 210.104 59.88L209.744 60.024ZM218.632 104.592C218.2 104.592 217.84 104.592 217.408 104.448C215.464 103.872 214.672 102.648 214.672 100.992C214.672 94.8 225.904 82.776 228.712 79.968C241.672 67.152 253.552 59.016 254.704 58.152L260.464 48.504C257.8 51.096 250.96 55.632 247.144 55.632C246.352 55.632 245.632 55.344 245.128 54.84C244.552 54.192 244.336 53.4 244.336 52.608C244.336 50.016 246.64 46.992 248.656 45.48C250.96 43.824 253.48 42.888 255.928 42.888C258.304 42.888 260.464 43.752 262.12 45.696C262.696 44.904 263.128 44.04 263.488 43.752C263.56 43.68 263.704 43.608 263.848 43.608C264.28 43.608 264.856 43.824 264.856 44.184L264.784 44.328C262.624 48.216 259.888 52.896 257.584 56.712C261.544 54.192 268.168 50.52 275.944 45.912L276.16 45.84C276.304 45.84 276.448 45.984 276.448 46.128L276.304 46.416C268.528 51.312 263.92 53.4 256.432 58.584L252.4 65.28C249.016 71.184 229.432 104.592 218.632 104.592ZM218.992 103.512C229.216 103.512 248.08 69.24 253.408 60.24C246.352 65.28 236.992 72.984 229.432 80.688C226.264 83.928 215.752 95.304 215.752 100.704C215.752 102 216.328 102.936 217.84 103.368C218.2 103.44 218.56 103.512 218.992 103.512ZM247.864 54.48C251.32 54.48 258.808 49.152 261.616 46.488C260.032 44.616 258.304 43.896 256.648 43.896C254.2 43.896 251.824 45.408 249.664 47.208C248.368 48.288 245.992 50.88 245.992 52.824C245.992 53.256 246.136 53.616 246.424 53.976C246.784 54.336 247.216 54.48 247.864 54.48Z" fill="#8B9B68"/>
<path d="M55.1395 74.64L54.6468 74.7257L54.648 74.7321L55.1395 74.64ZM64.7875 30.648L65.219 30.9006L64.5258 30.2219L64.7875 30.648ZM28.2115 61.896L28.022 61.4333L28.0152 61.4361L28.0084 61.4391L28.2115 61.896ZM50.7475 19.488L51.0694 19.8706L50.5959 19.0115L50.7475 19.488ZM2.29147 34.392H1.79147V34.4415L1.80118 34.4901L2.29147 34.392ZM2.36347 34.752H2.86347V34.7025L2.85376 34.6539L2.36347 34.752ZM1.35547 34.608H0.855469V34.6494L0.862272 34.6902L1.35547 34.608ZM53.7715 16.968L53.6734 16.4777L53.6113 16.4901L53.5543 16.5176L53.7715 16.968ZM54.1315 16.896V16.396H54.082L54.0334 16.4057L54.1315 16.896ZM55.2115 18.768L54.9542 18.3393L54.9478 18.3431L54.9415 18.3472L55.2115 18.768ZM37.2835 38.064L37.692 38.3523L37.6924 38.3517L37.2835 38.064ZM30.3715 59.232L30.1099 58.8059L30.1065 58.808L30.3715 59.232ZM66.9475 27.48V26.98H66.8563L66.7711 27.0121L66.9475 27.48ZM69.3955 28.848L69.8427 29.0716L69.8955 28.966V28.848H69.3955ZM69.3235 28.992L69.7276 29.2864L69.7521 29.2528L69.7707 29.2156L69.3235 28.992ZM59.2435 77.376V77.876H59.2521L59.2607 77.8757L59.2435 77.376ZM126.563 1.128L126.405 0.653659L126.388 0.659556L126.37 0.666754L126.563 1.128ZM126.995 1.704L126.874 1.21892L126.843 1.22665L126.814 1.23823L126.995 1.704ZM58.7395 79.608V79.108C58.0507 79.108 57.4549 78.8191 56.9355 78.1214C56.3985 77.4 55.949 76.2444 55.6309 74.5479L55.1395 74.64L54.648 74.7321C54.9779 76.4916 55.4644 77.82 56.1334 78.7186C56.82 79.6409 57.7003 80.108 58.7395 80.108V79.608ZM55.1395 74.64L55.6321 74.5543C55.3517 72.942 55.2795 71.105 55.2795 69.096H54.7795H54.2795C54.2795 71.119 54.3513 73.026 54.6469 74.7257L55.1395 74.64ZM54.7795 69.096H55.2795C55.2795 63.1051 56.4757 55.7522 58.3228 48.7851C60.1704 41.816 62.6582 35.2752 65.219 30.9006L64.7875 30.648L64.356 30.3954C61.7327 34.8767 59.2165 41.512 57.3562 48.5289C55.4953 55.5478 54.2795 62.9909 54.2795 69.096H54.7795ZM64.7875 30.648L64.5258 30.2219C63.9674 30.5648 63.1465 31.2517 62.1415 32.1638C61.1266 33.0851 59.8935 34.2645 58.5013 35.6174C55.7122 38.3276 52.2817 41.7358 48.6385 45.2081C44.9968 48.6789 41.1558 52.2009 37.5596 55.1272C33.9531 58.0618 30.631 60.3652 28.022 61.4333L28.2115 61.896L28.4009 62.3587C31.156 61.2308 34.5748 58.8452 38.1908 55.9028C41.8171 52.9521 45.6801 49.4091 49.3284 45.9319C52.9753 42.4562 56.4207 39.0334 59.1982 36.3346C60.5892 34.983 61.812 33.8134 62.8136 32.9043C63.8252 31.9861 64.5815 31.3612 65.0491 31.0741L64.7875 30.648ZM28.2115 61.896L28.0084 61.4391C27.4314 61.6955 26.9977 61.756 26.5555 61.756V62.256V62.756C27.1212 62.756 27.6955 62.6725 28.4145 62.3529L28.2115 61.896ZM26.5555 62.256V61.756C25.9455 61.756 25.5311 61.5343 25.2473 61.1251C24.943 60.6863 24.7515 59.9763 24.7515 58.944H24.2515H23.7515C23.7515 60.0717 23.9559 61.0177 24.4256 61.6949C24.9158 62.4017 25.6534 62.756 26.5555 62.756V62.256ZM24.2515 58.944H24.7515C24.7515 57.2496 25.2772 54.8897 26.3676 52.0468C27.4547 49.2123 29.091 45.9286 31.2824 42.3955C35.665 35.3297 42.2545 27.288 51.0694 19.8706L50.7475 19.488L50.4255 19.1054C41.5285 26.592 34.8699 34.7143 30.4326 41.8685C28.2139 45.4454 26.5473 48.7857 25.4339 51.6887C24.3237 54.5833 23.7515 57.0744 23.7515 58.944H24.2515ZM50.7475 19.488L50.5959 19.0115C45.0705 20.7696 33.0143 23.2035 22.2417 25.8605C16.8756 27.1841 11.8347 28.5621 8.12986 29.9339C6.28063 30.6185 4.73807 31.311 3.64937 32.0074C3.10541 32.3553 2.65294 32.7178 2.33171 33.0985C2.01054 33.4791 1.79147 33.9136 1.79147 34.392H2.29147H2.79147C2.79147 34.2314 2.86433 34.0179 3.09597 33.7434C3.32753 33.469 3.68872 33.1693 4.1882 32.8498C5.18637 32.2113 6.6498 31.5482 8.47708 30.8716C12.1253 29.5209 17.1194 28.1539 22.4812 26.8315C33.1646 24.1964 45.3365 21.7344 50.8991 19.9645L50.7475 19.488ZM2.29147 34.392L1.80118 34.4901L1.87318 34.8501L2.36347 34.752L2.85376 34.6539L2.78176 34.2939L2.29147 34.392ZM2.36347 34.752H1.86347C1.86347 34.761 1.86185 34.7672 1.86034 34.771C1.85954 34.7731 1.85869 34.7747 1.85798 34.7759C1.85726 34.777 1.85678 34.7776 1.85682 34.7775C1.85685 34.7775 1.85766 34.7766 1.85962 34.7751C1.86157 34.7736 1.86508 34.7712 1.87049 34.7686C1.88107 34.7634 1.90176 34.756 1.93147 34.756V35.256V35.756C2.47186 35.756 2.86347 35.2653 2.86347 34.752H2.36347ZM1.93147 35.256V34.756C1.92307 34.756 1.92425 34.7547 1.93007 34.7572C1.93603 34.7598 1.93629 34.7619 1.93105 34.7561C1.91778 34.7417 1.87455 34.6811 1.84867 34.5258L1.35547 34.608L0.862272 34.6902C0.908392 34.9669 1.00916 35.2303 1.19389 35.4319C1.38905 35.6448 1.64949 35.756 1.93147 35.756V35.256ZM1.35547 34.608H1.85547V34.32H1.35547H0.855469V34.608H1.35547ZM1.35547 34.32H1.85547C1.85547 33.6972 2.33056 32.9717 3.48031 32.1574C4.60482 31.361 6.24958 30.5698 8.29635 29.7875C12.3841 28.2252 17.9563 26.742 23.8733 25.3202C26.8289 24.6099 29.8642 23.9164 32.8368 23.2368C35.8083 22.5574 38.7177 21.8918 41.4163 21.2385C46.7949 19.9362 51.3941 18.6696 53.9887 17.4184L53.7715 16.968L53.5543 16.5176C51.0729 17.7143 46.5821 18.9588 41.1809 20.2665C38.4897 20.9182 35.5867 21.5823 32.614 22.2619C29.6424 22.9413 26.6016 23.6361 23.6396 24.3478C17.7216 25.77 12.0934 27.2658 7.93934 28.8534C5.86523 29.6462 4.1288 30.4727 2.90235 31.3413C1.70113 32.1921 0.855469 33.1788 0.855469 34.32H1.35547ZM53.7715 16.968L53.8695 17.4583L54.2295 17.3863L54.1315 16.896L54.0334 16.4057L53.6734 16.4777L53.7715 16.968ZM54.1315 16.896V17.396C54.2873 17.396 54.5851 17.4888 54.8543 17.6757C55.1397 17.8739 55.2155 18.0494 55.2155 18.12H55.7155H56.2155C56.2155 17.5426 55.7873 17.1061 55.4247 16.8543C55.0458 16.5912 54.5517 16.396 54.1315 16.396V16.896ZM55.7155 18.12H55.2155C55.2155 18.1071 55.2226 18.1118 55.1985 18.144C55.1689 18.1834 55.1003 18.2516 54.9542 18.3393L55.2115 18.768L55.4687 19.1967C55.8857 18.9465 56.2155 18.5985 56.2155 18.12H55.7155ZM55.2115 18.768L54.9415 18.3472C52.9792 19.606 49.9565 22.3439 46.6936 25.805C43.4218 29.2757 39.8781 33.5061 36.8745 37.7763L37.2835 38.064L37.6924 38.3517C40.6648 34.1259 44.1772 29.9323 47.4213 26.491C50.6744 23.0401 53.6278 20.378 55.4814 19.1888L55.2115 18.768ZM37.2835 38.064L36.875 37.7757C33.8409 42.074 31.1464 46.4312 29.208 50.1541C28.239 52.0151 27.4551 53.7249 26.9122 55.1943C26.3738 56.6516 26.0555 57.9166 26.0555 58.872H26.5555H27.0555C27.0555 58.0994 27.3221 56.9704 27.8502 55.5409C28.3739 54.1236 29.138 52.4539 30.095 50.6159C32.0085 46.9408 34.6781 42.622 37.692 38.3523L37.2835 38.064ZM26.5555 58.872H26.0555C26.0555 59.3899 26.1526 59.8807 26.4398 60.25C26.7459 60.6435 27.1977 60.812 27.7075 60.812V60.312V59.812C27.4253 59.812 27.3011 59.7285 27.2291 59.636C27.1383 59.5193 27.0555 59.2901 27.0555 58.872H26.5555ZM27.7075 60.312V60.812C28.0867 60.812 28.5327 60.6968 29.0092 60.5062C29.4933 60.3126 30.0421 60.0275 30.6365 59.656L30.3715 59.232L30.1065 58.808C29.5488 59.1565 29.0536 59.4114 28.6378 59.5778C28.2142 59.7472 27.9043 59.812 27.7075 59.812V60.312ZM30.3715 59.232L30.6331 59.6581C36.3767 56.132 44.4652 48.5639 51.624 41.7194C55.2148 38.2863 58.576 35.0306 61.3166 32.5269C62.6867 31.2752 63.8944 30.2183 64.8926 29.4247C65.907 28.6184 66.657 28.1239 67.1239 27.9478L66.9475 27.48L66.7711 27.0121C66.1399 27.2501 65.279 27.8401 64.2703 28.6419C63.2455 29.4566 62.0182 30.5315 60.6421 31.7886C57.8904 34.3024 54.5152 37.5717 50.9329 40.9966C43.7458 47.8681 35.7423 55.348 30.1099 58.8059L30.3715 59.232ZM66.9475 27.48V27.98H67.1635V27.48V26.98H66.9475V27.48ZM67.1635 27.48V27.98C67.4335 27.98 67.9012 28.1308 68.323 28.379C68.5265 28.4987 68.69 28.6243 68.7955 28.7355C68.9164 28.8628 68.8955 28.9 68.8955 28.848H69.3955H69.8955C69.8955 28.508 69.6946 28.2302 69.5207 28.047C69.3315 27.8477 69.0854 27.6673 68.83 27.517C68.3338 27.2251 67.6855 26.98 67.1635 26.98V27.48ZM69.3955 28.848L68.9483 28.6244L68.8763 28.7684L69.3235 28.992L69.7707 29.2156L69.8427 29.0716L69.3955 28.848ZM69.3235 28.992L68.9194 28.6976C65.1955 33.8088 62.062 41.6338 59.86 49.4941C57.6568 57.3589 56.3675 65.3268 56.3675 70.752H56.8675H57.3675C57.3675 65.4492 58.6342 57.5771 60.8229 49.7639C63.013 41.9462 66.1075 34.2552 69.7276 29.2864L69.3235 28.992ZM56.8675 70.752H56.3675C56.3675 72.7856 56.5476 74.506 56.9605 75.7352C57.366 76.9423 58.0774 77.876 59.2435 77.876V77.376V76.876C58.7535 76.876 58.2769 76.5137 57.9084 75.4168C57.5474 74.342 57.3675 72.7504 57.3675 70.752H56.8675ZM59.2435 77.376L59.2607 77.8757C60.0359 77.849 60.8651 77.5218 61.7245 76.994C62.5895 76.4628 63.524 75.7042 64.518 74.7606C66.506 72.8734 68.78 70.2001 71.2708 66.9941C76.2524 60.5823 82.1593 51.9634 88.4515 43.078C94.751 34.1822 101.444 25.0089 108.018 17.4503C114.607 9.87563 121.022 3.98889 126.756 1.58924L126.563 1.128L126.37 0.666754C120.405 3.16311 113.86 9.21036 107.264 16.794C100.653 24.3936 93.936 33.6028 87.6354 42.5C81.3276 51.4076 75.4446 59.9922 70.4811 66.3806C67.9994 69.5748 65.7621 72.2008 63.8295 74.0354C62.8632 74.9527 61.9851 75.6605 61.2012 76.1419C60.4119 76.6266 59.7561 76.858 59.2262 76.8763L59.2435 77.376ZM126.563 1.128L126.722 1.60234C126.797 1.57711 126.855 1.5662 126.895 1.56113C126.936 1.55613 126.964 1.55599 126.995 1.55599V1.05599V0.555995C126.897 0.555995 126.693 0.557739 126.405 0.653659L126.563 1.128ZM126.995 1.05599V1.55599C127.048 1.55599 127.082 1.55937 127.102 1.56269C127.124 1.56623 127.117 1.56789 127.096 1.55721C127.073 1.54555 127.025 1.51571 126.984 1.45484C126.942 1.39085 126.927 1.32349 126.927 1.272H127.427H127.927C127.927 1.1485 127.895 1.01815 127.816 0.90015C127.74 0.785283 127.638 0.710444 127.543 0.662786C127.367 0.574542 127.165 0.555995 126.995 0.555995V1.05599ZM127.427 1.272H126.927C126.927 1.22734 126.938 1.20022 126.942 1.19167C126.946 1.18144 126.949 1.17953 126.946 1.18282C126.941 1.18805 126.921 1.20714 126.874 1.21892L126.995 1.704L127.117 2.18907C127.573 2.07502 127.927 1.6971 127.927 1.272H127.427ZM126.995 1.704L126.814 1.23823C124.105 2.29565 121.2 4.32705 118.177 7.03564C115.149 9.74842 111.978 13.1635 108.739 17.0175C102.261 24.7247 95.4813 34.2231 89.0023 43.4466C82.5166 52.6798 76.3363 61.6311 71.0385 68.2781C68.3891 71.6021 65.9749 74.3312 63.8661 76.2252C62.8119 77.1721 61.8461 77.8991 60.9763 78.3872C60.1025 78.8776 59.3588 79.108 58.7395 79.108V79.608V80.108C59.5961 80.108 60.5129 79.7939 61.4656 79.2593C62.4223 78.7225 63.4488 77.9441 64.5343 76.9692C66.705 75.0197 69.1598 72.2396 71.8205 68.9014C77.1426 62.2239 83.3464 53.2382 89.8206 44.0214C96.3017 34.7949 103.058 25.3303 109.504 17.661C112.727 13.8267 115.865 10.4502 118.844 7.78042C121.829 5.10644 124.63 3.16434 127.177 2.16976L126.995 1.704ZM97.0823 57.72L97.2854 57.2631L97.2792 57.2604L97.0823 57.72ZM96.3623 49.152L95.9266 48.9066L95.9242 48.911L96.3623 49.152ZM98.0903 49.584L97.9945 49.0933L97.7531 49.1404L97.6431 49.3604L98.0903 49.584ZM99.6743 56.928L99.6526 57.4275L99.6634 57.428H99.6743V56.928ZM121.706 45.984L121.521 45.5198L121.46 45.544L121.408 45.5829L121.706 45.984ZM122.066 45.84V45.34H121.97L121.881 45.3758L122.066 45.84ZM122.066 46.488L121.789 46.072L121.776 46.0808L121.763 46.0905L122.066 46.488ZM98.6663 48.504L98.2503 48.2266L97.6745 49.0902L98.7087 49.0022L98.6663 48.504ZM106.154 43.752L106.508 43.3984L106.508 43.3984L106.154 43.752ZM99.2423 58.152V57.652C98.512 57.652 97.8623 57.5195 97.2854 57.2631L97.0823 57.72L96.8792 58.1769C97.5982 58.4965 98.3885 58.652 99.2423 58.652V58.152ZM97.0823 57.72L97.2792 57.2604C96.0239 56.7224 95.4943 55.5254 95.4943 53.976H94.9943H94.4943C94.4943 55.7386 95.1167 57.4216 96.8853 58.1796L97.0823 57.72ZM94.9943 53.976H95.4943C95.4943 52.4279 96.0358 50.7831 96.8004 49.393L96.3623 49.152L95.9242 48.911C95.1047 50.4009 94.4943 52.2121 94.4943 53.976H94.9943ZM96.3623 49.152L96.7979 49.3974C99.6168 44.3939 103.001 42.956 105.002 42.956V42.456V41.956C102.54 41.956 98.8677 43.6861 95.9267 48.9066L96.3623 49.152ZM105.002 42.456V42.956C105.594 42.956 106.04 43.0722 106.32 43.2321C106.594 43.3886 106.662 43.5518 106.662 43.68H107.162H107.662C107.662 43.0882 107.299 42.6394 106.816 42.3639C106.34 42.0918 105.707 41.956 105.002 41.956V42.456ZM107.162 43.68H106.662C106.662 43.9892 106.522 44.4108 106.167 44.9103C105.817 45.4039 105.279 45.9405 104.547 46.4699C103.085 47.5279 100.887 48.5289 97.9945 49.0933L98.0903 49.584L98.186 50.0747C101.198 49.4871 103.536 48.4361 105.133 47.2801C105.932 46.7025 106.555 46.0916 106.983 45.4895C107.406 44.8932 107.662 44.2708 107.662 43.68H107.162ZM98.0903 49.584L97.6431 49.3604C96.6874 51.2717 96.2943 52.7906 96.2943 53.976H96.7943H97.2943C97.2943 53.0014 97.6212 51.6403 98.5375 49.8076L98.0903 49.584ZM96.7943 53.976H96.2943C96.2943 55.0896 96.636 55.955 97.2728 56.5472C97.9002 57.1306 98.7495 57.3883 99.6526 57.4275L99.6743 56.928L99.696 56.4285C98.9431 56.3957 98.3523 56.1854 97.9538 55.8148C97.5646 55.453 97.2943 54.8784 97.2943 53.976H96.7943ZM99.6743 56.928V57.428H100.034V56.928V56.428H99.6743V56.928ZM100.034 56.928V57.428C101.468 57.428 103.156 57.024 104.959 56.3661C106.768 55.7059 108.724 54.7783 110.704 53.7045C114.664 51.5569 118.752 48.8066 122.005 46.3851L121.706 45.984L121.408 45.5829C118.181 47.9854 114.133 50.7071 110.227 52.8255C108.274 53.8847 106.364 54.7886 104.616 55.4267C102.861 56.067 101.3 56.428 100.034 56.428V56.928ZM121.706 45.984L121.892 46.4482L122.252 46.3042L122.066 45.84L121.881 45.3758L121.521 45.5198L121.706 45.984ZM122.066 45.84V46.34C122.02 46.34 121.988 46.3288 121.973 46.3224C121.958 46.3159 121.949 46.3094 121.944 46.3051C121.94 46.3015 121.928 46.2913 121.914 46.2692C121.906 46.2579 121.894 46.2374 121.882 46.2076C121.871 46.1799 121.854 46.1269 121.854 46.056H122.354H122.854C122.854 45.8923 122.782 45.7697 122.746 45.7145C122.699 45.6452 122.643 45.5855 122.584 45.5369C122.477 45.4473 122.295 45.34 122.066 45.34V45.84ZM122.354 46.056H121.854C121.854 46.0497 121.855 46.0399 121.858 46.0286C121.862 46.0173 121.866 46.0098 121.867 46.007C121.87 46.0026 121.856 46.0272 121.789 46.072L122.066 46.488L122.344 46.904C122.654 46.6972 122.854 46.4148 122.854 46.056H122.354ZM122.066 46.488L121.763 46.0905C118.285 48.7441 114.04 51.6448 109.955 53.8793C105.845 56.1277 101.984 57.652 99.2423 57.652V58.152V58.652C102.261 58.652 106.319 57.0083 110.435 54.7567C114.577 52.4912 118.864 49.5599 122.37 46.8855L122.066 46.488ZM98.6663 48.504L98.7087 49.0022C100.496 48.8501 102.493 48.0787 104.038 47.1814C104.813 46.7313 105.496 46.2374 105.992 45.7535C106.239 45.5118 106.452 45.2621 106.605 45.0111C106.755 44.7648 106.87 44.4819 106.87 44.184H106.37H105.87C105.87 44.2281 105.85 44.3277 105.751 44.4901C105.655 44.6478 105.503 44.8328 105.293 45.0377C104.874 45.4471 104.264 45.8937 103.536 46.3166C102.075 47.1653 100.221 47.8699 98.6239 48.0058L98.6663 48.504ZM106.37 44.184H106.87C106.87 43.8606 106.706 43.5969 106.508 43.3984L106.154 43.752L105.801 44.1056C105.844 44.1491 105.862 44.1785 105.869 44.1916C105.874 44.2025 105.87 44.1984 105.87 44.184H106.37ZM106.154 43.752L106.508 43.3984C106.264 43.1545 105.846 42.964 105.362 42.964V43.464V43.964C105.599 43.964 105.757 44.0614 105.801 44.1056L106.154 43.752ZM105.362 43.464V42.964C104.507 42.964 103.348 43.3597 102.113 44.1924C100.866 45.0331 99.507 46.3416 98.2503 48.2266L98.6663 48.504L99.0823 48.7813C100.274 46.9944 101.543 45.7829 102.672 45.0216C103.813 44.2523 104.777 43.964 105.362 43.964V43.464ZM131.814 50.088L132.257 50.3193L131.51 49.6913L131.814 50.088ZM134.046 45.984L133.552 46.062L133.793 47.591L134.492 46.2097L134.046 45.984ZM152.982 31.224L153.34 31.5733L153.34 31.5725L152.982 31.224ZM134.91 47.928L134.611 47.5269L134.525 47.5909L134.473 47.6846L134.91 47.928ZM159.102 45.84L158.944 45.3657L158.928 45.3708L158.913 45.377L159.102 45.84ZM159.318 45.768V45.268H159.237L159.16 45.2937L159.318 45.768ZM159.462 46.488L159.659 46.9473L159.673 46.9416L159.685 46.9352L159.462 46.488ZM121.086 54.48L121.024 54.9761L121.055 54.98H121.086V54.48ZM132.966 47.784L133.289 48.1653L133.466 48.0155V47.784H132.966ZM124.038 46.272L124.372 46.6438L124.383 46.6341L124.038 46.272ZM120.51 54.408L120.412 54.8983L120.43 54.9019L120.448 54.9041L120.51 54.408ZM136.206 45.552L135.787 45.2786L136.509 45.9494L136.206 45.552ZM157.806 24.528L158.184 24.8552L158.188 24.8503L157.806 24.528ZM161.478 13.152L161.131 12.7921L161.128 12.7951L161.478 13.152ZM133.038 62.544V62.044C132.244 62.044 131.486 61.7916 130.925 61.2007C130.364 60.6091 129.938 59.6137 129.938 58.008H129.438H128.938C128.938 59.7863 129.412 61.0589 130.2 61.8893C130.989 62.7204 132.032 63.044 133.038 63.044V62.544ZM129.438 58.008H129.938C129.938 56.1685 130.553 53.5847 132.257 50.3193L131.814 50.088L131.371 49.8567C129.618 53.2153 128.938 55.9595 128.938 58.008H129.438ZM131.814 50.088L131.51 49.6913C128.9 51.6928 126.698 53.058 124.893 53.9209C123.081 54.7872 121.701 55.132 120.726 55.132V55.632V56.132C121.911 56.132 123.447 55.7208 125.324 54.8231C127.209 53.922 129.471 52.5152 132.118 50.4847L131.814 50.088ZM120.726 55.632V55.132C119.813 55.132 119.241 54.8736 118.893 54.5055C118.54 54.1322 118.346 53.5704 118.346 52.824H117.846H117.346C117.346 53.7336 117.583 54.5758 118.167 55.1925C118.755 55.8144 119.623 56.132 120.726 56.132V55.632ZM117.846 52.824H118.346C118.346 50.96 119.631 48.4343 121.735 46.348C123.827 44.2739 126.623 42.74 129.51 42.74V42.24V41.74C126.277 41.74 123.241 43.4461 121.031 45.638C118.833 47.8177 117.346 50.584 117.346 52.824H117.846ZM129.51 42.24V42.74C130.556 42.74 131.466 42.9765 132.155 43.4876C132.834 43.9913 133.353 44.8014 133.552 46.062L134.046 45.984L134.54 45.906C134.307 44.4306 133.674 43.3687 132.751 42.6844C131.838 42.0075 130.696 41.74 129.51 41.74V42.24ZM134.046 45.984L134.492 46.2097C136.051 43.1265 142.288 33.9802 148.981 25.5867C152.323 21.3952 155.764 17.4109 158.776 14.4789C160.282 13.012 161.67 11.8199 162.875 10.9979C164.101 10.1614 165.059 9.764 165.726 9.764V9.264V8.764C164.737 8.764 163.562 9.31837 162.311 10.1719C161.039 11.0399 159.604 12.2761 158.078 13.7624C155.023 16.7366 151.552 20.7578 148.199 24.9633C141.5 33.3638 135.208 42.5775 133.6 45.7583L134.046 45.984ZM165.726 9.264V9.764C166.056 9.764 166.28 9.84025 166.416 9.9577C166.539 10.0632 166.666 10.2672 166.666 10.704H167.166H167.666C167.666 10.0608 167.469 9.54476 167.069 9.20029C166.684 8.86774 166.188 8.764 165.726 8.764V9.264ZM167.166 10.704H166.666C166.666 11.3024 166.438 12.2165 165.899 13.4464C165.365 14.6646 164.546 16.1514 163.409 17.8814C161.136 21.3406 157.611 25.7441 152.623 30.8755L152.982 31.224L153.34 31.5725C158.36 26.4079 161.928 21.9554 164.245 18.4306C165.403 16.6686 166.253 15.1314 166.815 13.8476C167.372 12.5755 167.666 11.5096 167.666 10.704H167.166ZM152.982 31.224L152.624 30.8747C146.716 36.9273 140.766 42.9463 134.611 47.5269L134.91 47.928L135.208 48.3291C141.437 43.6937 147.44 37.6167 153.34 31.5733L152.982 31.224ZM134.91 47.928L134.473 47.6846C131.649 52.7543 130.666 56.2991 130.666 58.584H131.166H131.666C131.666 56.5489 132.555 53.1817 135.347 48.1713L134.91 47.928ZM131.166 58.584H130.666C130.666 59.7982 130.93 60.6924 131.445 61.2872C131.971 61.8952 132.686 62.108 133.398 62.108V61.608V61.108C132.885 61.108 132.485 60.9608 132.201 60.6328C131.906 60.2916 131.666 59.6738 131.666 58.584H131.166ZM133.398 61.608V62.108C134.182 62.108 135.08 61.8737 136.039 61.4926C137.005 61.1092 138.066 60.5635 139.185 59.9102C141.422 58.6038 143.933 56.8426 146.436 55.0191C148.95 53.1884 151.446 51.3022 153.693 49.7145C155.948 48.1219 157.893 46.8724 159.29 46.303L159.102 45.84L158.913 45.377C157.395 45.9956 155.362 47.3111 153.116 48.8978C150.864 50.4893 148.338 52.3966 145.847 54.2109C143.347 56.0324 140.871 57.7677 138.681 59.0466C137.586 59.6859 136.572 60.205 135.67 60.5632C134.762 60.9238 134 61.108 133.398 61.108V61.608ZM159.102 45.84L159.26 46.3143L159.476 46.2423L159.318 45.768L159.16 45.2937L158.944 45.3657L159.102 45.84ZM159.318 45.768V46.268C159.327 46.268 159.31 46.2694 159.281 46.2554C159.25 46.241 159.224 46.2186 159.206 46.194C159.189 46.1715 159.183 46.1529 159.18 46.1448C159.178 46.137 159.178 46.132 159.178 46.128H159.678H160.178C160.178 45.9862 160.145 45.7789 160.006 45.594C159.849 45.3849 159.605 45.268 159.318 45.268V45.768ZM159.678 46.128H159.178C159.178 46.1179 159.18 46.1036 159.19 46.0869C159.2 46.0682 159.218 46.0509 159.238 46.0408L159.462 46.488L159.685 46.9352C160.022 46.7668 160.178 46.4337 160.178 46.128H159.678ZM159.462 46.488L159.264 46.0287C157.534 46.7728 155.425 48.1665 153.157 49.8066C150.89 51.4462 148.401 53.3799 145.952 55.1942C143.489 57.0193 141.044 58.7407 138.804 60.0048C136.547 61.2787 134.574 62.044 133.038 62.044V62.544V63.044C134.85 63.044 137.016 62.1623 139.296 60.8757C141.592 59.5793 144.079 57.8267 146.547 55.9978C149.031 54.1581 151.474 52.2578 153.743 50.6169C156.011 48.9765 158.041 47.6432 159.659 46.9473L159.462 46.488ZM121.086 54.48V54.98C121.747 54.98 122.544 54.7917 123.418 54.47C124.3 54.1458 125.292 53.6742 126.352 53.0802C128.473 51.892 130.893 50.1986 133.289 48.1653L132.966 47.784L132.642 47.4027C130.287 49.4014 127.919 51.056 125.863 52.2078C124.835 52.7838 123.892 53.2302 123.073 53.5315C122.247 53.8353 121.577 53.98 121.086 53.98V54.48ZM132.966 47.784H133.466V47.352H132.966H132.466V47.784H132.966ZM132.966 47.352H133.466C133.466 45.9065 133.104 44.8432 132.425 44.1421C131.744 43.4387 130.821 43.18 129.87 43.18V43.68V44.18C130.647 44.18 131.272 44.3892 131.707 44.8379C132.144 45.2888 132.466 46.0615 132.466 47.352H132.966ZM129.87 43.68V43.18C127.765 43.18 125.272 44.4063 123.693 45.9099L124.038 46.272L124.383 46.6341C125.828 45.2577 128.086 44.18 129.87 44.18V43.68ZM124.038 46.272L123.703 45.9004C122.57 46.9203 121.53 48.3562 120.772 49.7504C120.026 51.1257 119.506 52.5498 119.506 53.544H120.006H120.506C120.506 52.8102 120.922 51.5703 121.651 50.2276C122.37 48.9038 123.346 47.5677 124.372 46.6436L124.038 46.272ZM120.006 53.544H119.506C119.506 53.807 119.548 54.0945 119.681 54.3449C119.822 54.6122 120.065 54.8289 120.412 54.8983L120.51 54.408L120.608 53.9177C120.593 53.9147 120.589 53.9112 120.589 53.9109C120.587 53.9096 120.578 53.9016 120.565 53.8771C120.535 53.8215 120.506 53.713 120.506 53.544H120.006ZM120.51 54.408L120.448 54.9041L121.024 54.9761L121.086 54.48L121.148 53.9839L120.572 53.9119L120.51 54.408ZM136.206 45.552L136.509 45.9494C140.501 42.9012 150.749 33.4445 158.184 24.8552L157.806 24.528L157.428 24.2008C150.03 32.7475 139.831 42.1548 135.902 45.1546L136.206 45.552ZM157.806 24.528L158.188 24.8503C160.721 21.8475 162.878 18.8936 164.405 16.4207C165.169 15.1849 165.779 14.0613 166.201 13.1065C166.615 12.1688 166.874 11.3365 166.874 10.704H166.374H165.874C165.874 11.1155 165.691 11.7862 165.286 12.7025C164.889 13.6017 164.303 14.6831 163.554 15.8953C162.058 18.3184 159.931 21.2325 157.424 24.2056L157.806 24.528ZM166.374 10.704H166.874C166.874 10.4894 166.862 10.1865 166.718 9.93393C166.637 9.79187 166.517 9.66973 166.354 9.58853C166.199 9.51062 166.031 9.484 165.87 9.484V9.984V10.484C165.925 10.484 165.928 10.4934 165.907 10.483C165.88 10.4693 165.859 10.4461 165.85 10.4301C165.845 10.4216 165.854 10.433 165.862 10.4853C165.87 10.5368 165.874 10.607 165.874 10.704H166.374ZM165.87 9.984V9.484C165.57 9.484 165.245 9.60444 164.938 9.75911C164.618 9.92067 164.256 10.151 163.866 10.4344C163.084 11.002 162.148 11.8111 161.131 12.7921L161.478 13.152L161.825 13.5119C162.824 12.5488 163.723 11.774 164.454 11.2436C164.819 10.978 165.133 10.7808 165.388 10.6521C165.657 10.5165 165.81 10.484 165.87 10.484V9.984ZM161.478 13.152L161.128 12.7951C153.528 20.2502 140.4 38.2154 135.787 45.2786L136.206 45.552L136.624 45.8254C141.228 38.7766 154.308 20.8858 161.828 13.5089L161.478 13.152ZM169.15 50.088L169.593 50.3193L168.845 49.6913L169.15 50.088ZM171.382 45.984L170.888 46.062L171.129 47.591L171.828 46.2097L171.382 45.984ZM190.318 31.224L190.676 31.5733L190.676 31.5725L190.318 31.224ZM172.246 47.928L171.947 47.5269L171.861 47.5909L171.809 47.6846L172.246 47.928ZM196.438 45.84L196.28 45.3657L196.264 45.3708L196.249 45.377L196.438 45.84ZM196.654 45.768V45.268H196.573L196.496 45.2937L196.654 45.768ZM196.798 46.488L196.995 46.9473L197.009 46.9416L197.021 46.9352L196.798 46.488ZM158.422 54.48L158.36 54.9761L158.391 54.98H158.422V54.48ZM170.302 47.784L170.625 48.1653L170.802 48.0155V47.784H170.302ZM161.374 46.272L161.708 46.6438L161.719 46.6341L161.374 46.272ZM157.846 54.408L157.748 54.8983L157.766 54.9019L157.784 54.9041L157.846 54.408ZM173.542 45.552L173.123 45.2786L173.845 45.9494L173.542 45.552ZM195.142 24.528L195.52 24.8552L195.524 24.8503L195.142 24.528ZM198.814 13.152L198.467 12.7921L198.464 12.7951L198.814 13.152ZM170.374 62.544V62.044C169.579 62.044 168.822 61.7916 168.261 61.2007C167.7 60.6091 167.274 59.6137 167.274 58.008H166.774H166.274C166.274 59.7863 166.748 61.0589 167.536 61.8893C168.325 62.7204 169.368 63.044 170.374 63.044V62.544ZM166.774 58.008H167.274C167.274 56.1685 167.889 53.5847 169.593 50.3193L169.15 50.088L168.706 49.8567C166.954 53.2153 166.274 55.9595 166.274 58.008H166.774ZM169.15 50.088L168.845 49.6913C166.236 51.6928 164.034 53.058 162.229 53.9209C160.417 54.7872 159.037 55.132 158.062 55.132V55.632V56.132C159.247 56.132 160.783 55.7208 162.66 54.8231C164.545 53.922 166.807 52.5152 169.454 50.4847L169.15 50.088ZM158.062 55.632V55.132C157.149 55.132 156.577 54.8736 156.229 54.5055C155.876 54.1322 155.682 53.5704 155.682 52.824H155.182H154.682C154.682 53.7336 154.919 54.5758 155.502 55.1925C156.09 55.8144 156.959 56.132 158.062 56.132V55.632ZM155.182 52.824H155.682C155.682 50.96 156.967 48.4343 159.071 46.348C161.162 44.2739 163.959 42.74 166.846 42.74V42.24V41.74C163.612 41.74 160.577 43.4461 158.367 45.638C156.169 47.8177 154.682 50.584 154.682 52.824H155.182ZM166.846 42.24V42.74C167.892 42.74 168.802 42.9765 169.491 43.4876C170.17 43.9913 170.689 44.8014 170.888 46.062L171.382 45.984L171.876 45.906C171.643 44.4306 171.009 43.3687 170.087 42.6844C169.174 42.0075 168.032 41.74 166.846 41.74V42.24ZM171.382 45.984L171.828 46.2097C173.387 43.1265 179.624 33.9802 186.317 25.5867C189.659 21.3952 193.1 17.4109 196.112 14.4789C197.618 13.012 199.006 11.8199 200.21 10.9979C201.437 10.1614 202.395 9.764 203.062 9.764V9.264V8.764C202.073 8.764 200.898 9.31837 199.647 10.1719C198.375 11.0399 196.94 12.2761 195.414 13.7624C192.359 16.7366 188.888 20.7578 185.535 24.9633C178.836 33.3638 172.544 42.5775 170.936 45.7583L171.382 45.984ZM203.062 9.264V9.764C203.392 9.764 203.616 9.84025 203.752 9.9577C203.875 10.0632 204.002 10.2672 204.002 10.704H204.502H205.002C205.002 10.0608 204.805 9.54476 204.405 9.20029C204.019 8.86774 203.523 8.764 203.062 8.764V9.264ZM204.502 10.704H204.002C204.002 11.3024 203.774 12.2165 203.235 13.4464C202.701 14.6646 201.882 16.1514 200.745 17.8814C198.471 21.3406 194.947 25.7441 189.959 30.8755L190.318 31.224L190.676 31.5725C195.696 26.4079 199.264 21.9554 201.581 18.4306C202.739 16.6686 203.589 15.1314 204.151 13.8476C204.708 12.5755 205.002 11.5096 205.002 10.704H204.502ZM190.318 31.224L189.96 30.8747C184.052 36.9273 178.102 42.9463 171.947 47.5269L172.246 47.928L172.544 48.3291C178.773 43.6937 184.776 37.6167 190.676 31.5733L190.318 31.224ZM172.246 47.928L171.809 47.6846C168.984 52.7543 168.002 56.2991 168.002 58.584H168.502H169.002C169.002 56.5489 169.891 53.1817 172.683 48.1713L172.246 47.928ZM168.502 58.584H168.002C168.002 59.7982 168.266 60.6924 168.781 61.2872C169.307 61.8952 170.022 62.108 170.734 62.108V61.608V61.108C170.221 61.108 169.821 60.9608 169.537 60.6328C169.242 60.2916 169.002 59.6738 169.002 58.584H168.502ZM170.734 61.608V62.108C171.518 62.108 172.416 61.8737 173.375 61.4926C174.341 61.1092 175.402 60.5635 176.521 59.9102C178.758 58.6038 181.269 56.8426 183.772 55.0191C186.285 53.1884 188.782 51.3022 191.029 49.7145C193.284 48.1219 195.229 46.8724 196.626 46.303L196.438 45.84L196.249 45.377C194.731 45.9956 192.698 47.3111 190.452 48.8978C188.2 50.4893 185.674 52.3966 183.183 54.2109C180.683 56.0324 178.207 57.7677 176.017 59.0466C174.922 59.6859 173.908 60.205 173.006 60.5632C172.098 60.9238 171.336 61.108 170.734 61.108V61.608ZM196.438 45.84L196.596 46.3143L196.812 46.2423L196.654 45.768L196.496 45.2937L196.28 45.3657L196.438 45.84ZM196.654 45.768V46.268C196.662 46.268 196.646 46.2694 196.617 46.2554C196.586 46.241 196.56 46.2186 196.542 46.194C196.525 46.1715 196.519 46.1529 196.516 46.1448C196.514 46.137 196.514 46.132 196.514 46.128H197.014H197.514C197.514 45.9862 197.48 45.7789 197.342 45.594C197.185 45.3849 196.941 45.268 196.654 45.268V45.768ZM197.014 46.128H196.514C196.514 46.1179 196.516 46.1036 196.526 46.0869C196.536 46.0682 196.554 46.0509 196.574 46.0408L196.798 46.488L197.021 46.9352C197.358 46.7668 197.514 46.4337 197.514 46.128H197.014ZM196.798 46.488L196.6 46.0287C194.87 46.7728 192.761 48.1665 190.493 49.8066C188.226 51.4462 185.737 53.3799 183.288 55.1942C180.825 57.0193 178.38 58.7407 176.14 60.0048C173.883 61.2787 171.91 62.044 170.374 62.044V62.544V63.044C172.185 63.044 174.352 62.1623 176.632 60.8757C178.928 59.5793 181.415 57.8267 183.883 55.9978C186.366 54.1581 188.81 52.2578 191.079 50.6169C193.347 48.9765 195.377 47.6432 196.995 46.9473L196.798 46.488ZM158.422 54.48V54.98C159.082 54.98 159.88 54.7917 160.754 54.47C161.636 54.1458 162.628 53.6742 163.688 53.0802C165.809 51.892 168.229 50.1986 170.625 48.1653L170.302 47.784L169.978 47.4027C167.623 49.4014 165.255 51.056 163.199 52.2078C162.171 52.7838 161.228 53.2302 160.409 53.5315C159.583 53.8353 158.913 53.98 158.422 53.98V54.48ZM170.302 47.784H170.802V47.352H170.302H169.802V47.784H170.302ZM170.302 47.352H170.802C170.802 45.9065 170.44 44.8432 169.761 44.1421C169.08 43.4387 168.156 43.18 167.206 43.18V43.68V44.18C167.983 44.18 168.608 44.3892 169.043 44.8379C169.479 45.2888 169.802 46.0615 169.802 47.352H170.302ZM167.206 43.68V43.18C165.101 43.18 162.608 44.4063 161.029 45.9099L161.374 46.272L161.719 46.6341C163.164 45.2577 165.422 44.18 167.206 44.18V43.68ZM161.374 46.272L161.039 45.9004C159.906 46.9203 158.865 48.3562 158.108 49.7504C157.362 51.1257 156.842 52.5498 156.842 53.544H157.342H157.842C157.842 52.8102 158.258 51.5703 158.987 50.2276C159.706 48.9038 160.682 47.5677 161.708 46.6436L161.374 46.272ZM157.342 53.544H156.842C156.842 53.807 156.884 54.0945 157.017 54.3449C157.158 54.6122 157.401 54.8289 157.748 54.8983L157.846 54.408L157.944 53.9177C157.929 53.9147 157.925 53.9112 157.925 53.9109C157.923 53.9096 157.914 53.9016 157.901 53.8771C157.871 53.8215 157.842 53.713 157.842 53.544H157.342ZM157.846 54.408L157.784 54.9041L158.36 54.9761L158.422 54.48L158.484 53.9839L157.908 53.9119L157.846 54.408ZM173.542 45.552L173.845 45.9494C177.837 42.9012 188.085 33.4445 195.52 24.8552L195.142 24.528L194.764 24.2008C187.366 32.7475 177.167 42.1548 173.238 45.1546L173.542 45.552ZM195.142 24.528L195.524 24.8503C198.057 21.8475 200.214 18.8936 201.741 16.4207C202.504 15.1849 203.115 14.0613 203.537 13.1065C203.951 12.1688 204.21 11.3365 204.21 10.704H203.71H203.21C203.21 11.1155 203.027 11.7862 202.622 12.7025C202.225 13.6017 201.639 14.6831 200.89 15.8953C199.394 18.3184 197.267 21.2325 194.76 24.2056L195.142 24.528ZM203.71 10.704H204.21C204.21 10.4894 204.198 10.1865 204.054 9.93393C203.973 9.79187 203.853 9.66973 203.69 9.58853C203.535 9.51062 203.367 9.484 203.206 9.484V9.984V10.484C203.26 10.484 203.264 10.4934 203.243 10.483C203.216 10.4693 203.195 10.4461 203.186 10.4301C203.181 10.4216 203.19 10.433 203.198 10.4853C203.206 10.5368 203.21 10.607 203.21 10.704H203.71ZM203.206 9.984V9.484C202.906 9.484 202.581 9.60444 202.274 9.75911C201.954 9.92067 201.592 10.151 201.202 10.4344C200.42 11.002 199.484 11.8111 198.467 12.7921L198.814 13.152L199.161 13.5119C200.16 12.5488 201.059 11.774 201.79 11.2436C202.155 10.978 202.469 10.7808 202.724 10.6521C202.993 10.5165 203.146 10.484 203.206 10.484V9.984ZM198.814 13.152L198.464 12.7951C190.864 20.2502 177.736 38.2154 173.123 45.2786L173.542 45.552L173.96 45.8254C178.564 38.7766 191.644 20.8858 199.164 13.5089L198.814 13.152ZM202.454 39.36L202.154 39.76L202.165 39.7683L202.176 39.776L202.454 39.36ZM202.238 37.56L201.884 37.2064L201.849 37.2415L201.822 37.2826L202.238 37.56ZM204.038 37.704L203.638 38.004L203.659 38.0324L203.684 38.0576L204.038 37.704ZM204.254 39.216L203.838 38.9387L203.82 38.9646L203.807 38.9924L204.254 39.216ZM194.318 58.296L194.575 57.8671L194.563 57.8602L194.318 58.296ZM199.574 41.304L199.22 40.9504L199.211 40.9597L199.202 40.9695L199.574 41.304ZM201.014 42.024L201.461 42.2476L201.514 42.142V42.024H201.014ZM200.87 42.312L201.244 42.6431L201.288 42.5941L201.317 42.5356L200.87 42.312ZM194.966 57.216L195.189 56.7688L195.189 56.7688L194.966 57.216ZM216.566 45.912L216.468 45.4217L216.432 45.4288L216.399 45.4408L216.566 45.912ZM216.926 45.84V45.34H216.876L216.828 45.3497L216.926 45.84ZM216.782 46.488L216.684 45.9977L216.645 46.0055L216.608 46.0192L216.782 46.488ZM203.39 39.576V39.076C203.069 39.076 202.827 39.0078 202.731 38.944L202.454 39.36L202.176 39.776C202.513 40.0002 202.99 40.076 203.39 40.076V39.576ZM202.454 39.36L202.754 38.96C202.565 38.8182 202.45 38.5957 202.45 38.424H201.95H201.45C201.45 38.9723 201.767 39.4698 202.154 39.76L202.454 39.36ZM201.95 38.424H202.45C202.45 38.2639 202.546 37.9994 202.654 37.8374L202.238 37.56L201.822 37.2826C201.642 37.5526 201.45 38.0081 201.45 38.424H201.95ZM202.238 37.56L202.591 37.9136C202.707 37.7981 202.781 37.7528 202.831 37.7316C202.876 37.7121 202.93 37.7 203.03 37.7V37.2V36.7C202.841 36.7 202.643 36.7239 202.437 36.8124C202.234 36.8992 202.057 37.0339 201.884 37.2064L202.238 37.56ZM203.03 37.2V37.7C203.289 37.7 203.507 37.8292 203.638 38.004L204.038 37.704L204.438 37.404C204.137 37.0028 203.634 36.7 203.03 36.7V37.2ZM204.038 37.704L203.684 38.0576C203.876 38.2495 203.97 38.4143 203.97 38.568H204.47H204.97C204.97 38.0017 204.631 37.5905 204.391 37.3504L204.038 37.704ZM204.47 38.568H203.97C203.97 38.6668 203.938 38.788 203.838 38.9387L204.254 39.216L204.67 39.4933C204.857 39.212 204.97 38.9012 204.97 38.568H204.47ZM204.254 39.216L203.807 38.9924C203.805 38.9948 203.804 38.9971 203.798 39.0019C203.79 39.0081 203.772 39.0199 203.736 39.0325C203.66 39.0596 203.544 39.076 203.39 39.076V39.576V40.076C203.596 40.076 203.84 40.0564 204.069 39.9755C204.306 39.8919 204.555 39.7314 204.701 39.4396L204.254 39.216ZM195.614 58.584V58.084C195.215 58.084 194.82 58.0141 194.575 57.8673L194.318 58.296L194.06 58.7247C194.536 59.0099 195.148 59.084 195.614 59.084V58.584ZM194.318 58.296L194.563 57.8602C193.61 57.3242 193.162 56.3688 193.162 55.128H192.662H192.162C192.162 56.6232 192.722 57.9718 194.073 58.7318L194.318 58.296ZM192.662 55.128H193.162C193.162 53.0372 194.342 50.2208 195.824 47.598C197.294 44.9959 199.002 42.6868 199.945 41.6385L199.574 41.304L199.202 40.9695C198.202 42.0812 196.453 44.4521 194.953 47.106C193.465 49.7392 192.162 52.7548 192.162 55.128H192.662ZM199.574 41.304L199.927 41.6576C199.971 41.614 200 41.5958 200.013 41.5892C200.024 41.5838 200.02 41.588 200.006 41.588V41.088V40.588C199.682 40.588 199.419 40.7519 199.22 40.9504L199.574 41.304ZM200.006 41.088V41.588C200.097 41.588 200.231 41.6393 200.354 41.7561C200.482 41.8778 200.514 41.9896 200.514 42.024H201.014H201.514C201.514 41.6264 201.294 41.2702 201.044 41.0319C200.788 40.7887 200.419 40.588 200.006 40.588V41.088ZM201.014 42.024L200.567 41.8004L200.423 42.0884L200.87 42.312L201.317 42.5356L201.461 42.2476L201.014 42.024ZM200.87 42.312L200.495 41.9809C199.105 43.5534 197.34 45.9377 195.92 48.3591C195.21 49.5704 194.58 50.8003 194.127 51.9498C193.677 53.0915 193.386 54.1902 193.386 55.128H193.886H194.386C194.386 54.3738 194.626 53.4115 195.057 52.3167C195.486 51.2297 196.089 50.0476 196.783 48.8649C198.171 46.4983 199.898 44.1666 201.244 42.6431L200.87 42.312ZM193.886 55.128H193.386C193.386 56.2589 193.8 57.1924 194.742 57.6632L194.966 57.216L195.189 56.7688C194.691 56.5196 194.386 56.0131 194.386 55.128H193.886ZM194.966 57.216L194.742 57.6632C195.119 57.8517 195.561 57.932 196.046 57.932V57.432V56.932C195.666 56.932 195.388 56.8683 195.189 56.7688L194.966 57.216ZM196.046 57.432V57.932C197.386 57.932 199.09 57.2543 200.894 56.2964C202.72 55.3269 204.734 54.0227 206.721 52.6803C208.719 51.3299 210.674 49.9515 212.429 48.7981C214.191 47.6403 215.682 46.7561 216.733 46.3832L216.566 45.912L216.399 45.4408C215.217 45.8599 213.631 46.8116 211.88 47.9624C210.123 49.1175 208.131 50.5201 206.161 51.8517C204.178 53.1913 202.201 54.4701 200.425 55.4131C198.627 56.3677 197.117 56.932 196.046 56.932V57.432ZM216.566 45.912L216.664 46.4023L217.024 46.3303L216.926 45.84L216.828 45.3497L216.468 45.4217L216.566 45.912ZM216.926 45.84V46.34C216.99 46.34 216.982 46.3528 216.939 46.3281C216.912 46.313 216.87 46.2819 216.836 46.2265C216.8 46.1687 216.786 46.1072 216.786 46.056H217.286H217.786C217.786 45.78 217.631 45.572 217.435 45.4599C217.266 45.3632 217.077 45.34 216.926 45.34V45.84ZM217.286 46.056H216.786C216.786 46.0103 216.797 45.9799 216.803 45.9654C216.81 45.9496 216.817 45.944 216.815 45.9454C216.814 45.9468 216.782 45.9781 216.684 45.9977L216.782 46.488L216.88 46.9783C217.385 46.8772 217.786 46.5182 217.786 46.056H217.286ZM216.782 46.488L216.608 46.0192C215.426 46.4577 213.829 47.4564 212.059 48.6635C210.287 49.8709 208.25 51.3524 206.237 52.7459C204.206 54.1523 202.165 55.4953 200.306 56.4856C198.429 57.486 196.813 58.084 195.614 58.084V58.584V59.084C197.078 59.084 198.883 58.377 200.776 57.3681C202.689 56.3492 204.769 54.9787 206.806 53.5681C208.862 52.1446 210.838 50.7056 212.622 49.4898C214.406 48.2736 215.906 47.3463 216.956 46.9568L216.782 46.488ZM209.744 60.024V60.524H209.84L209.929 60.4882L209.744 60.024ZM209.168 59.16L208.7 58.9844L208.668 59.0693V59.16H209.168ZM211.832 53.256L212.26 53.5133L212.263 53.5089L211.832 53.256ZM217.304 44.616L216.95 44.2624L216.937 44.276L216.924 44.2906L217.304 44.616ZM218.672 45.408L218.318 45.0544L218.292 45.0806L218.27 45.1104L218.672 45.408ZM210.392 58.368L209.945 58.1444L210.769 58.6964L210.392 58.368ZM225.152 48L225.647 48.0707L225.652 48.0355V48H225.152ZM225.08 48.504L225.569 48.6088L225.572 48.5918L225.575 48.5747L225.08 48.504ZM228.32 58.368L228.306 58.868H228.32V58.368ZM248.48 45.84V45.34H248.35L248.236 45.4033L248.48 45.84ZM248.768 46.272L248.544 45.8248L248.516 45.8391L248.489 45.8569L248.768 46.272ZM227.888 59.376L227.872 59.8757L227.88 59.876H227.888V59.376ZM222.704 48.864H223.204V48.0008L222.455 48.4303L222.704 48.864ZM210.104 59.88L210.289 60.3442L210.385 60.3061L210.457 60.2336L210.104 59.88ZM209.744 60.024V59.524C209.765 59.524 209.748 59.5312 209.715 59.4959C209.686 59.4644 209.668 59.4213 209.668 59.376H209.168H208.668C208.668 59.9737 209.143 60.524 209.744 60.524V60.024ZM209.168 59.376H209.668V59.16H209.168H208.668V59.376H209.168ZM209.168 59.16L209.636 59.3356C210.289 57.5933 210.777 55.9858 212.26 53.5132L211.832 53.256L211.403 52.9988C209.862 55.5662 209.342 57.2707 208.7 58.9844L209.168 59.16ZM211.832 53.256L212.263 53.5089C213.483 51.4272 214.74 49.3988 215.745 47.8285C216.247 47.0433 216.686 46.3741 217.025 45.8708C217.372 45.3558 217.598 45.0408 217.683 44.9414L217.304 44.616L216.924 44.2906C216.793 44.4432 216.533 44.8122 216.196 45.3119C215.851 45.8234 215.408 46.4997 214.903 47.2895C213.892 48.8692 212.628 50.9088 211.4 53.0031L211.832 53.256ZM217.304 44.616L217.657 44.9696C217.75 44.8772 217.795 44.8483 217.815 44.8382C217.824 44.834 217.835 44.828 217.88 44.828V44.328V43.828C217.709 43.828 217.54 43.858 217.368 43.9438C217.208 44.0237 217.074 44.1388 216.95 44.2624L217.304 44.616ZM217.88 44.328V44.828C217.943 44.828 218.067 44.8685 218.186 44.97C218.241 45.0165 218.279 45.0629 218.3 45.0993C218.323 45.1379 218.316 45.1445 218.316 45.12H218.816H219.316C219.316 44.7269 219.062 44.4024 218.834 44.208C218.593 44.0035 218.248 43.828 217.88 43.828V44.328ZM218.816 45.12H218.316C218.316 45.0892 218.319 45.0667 218.321 45.0557C218.324 45.0437 218.326 45.0362 218.327 45.0336C218.328 45.0292 218.328 45.0319 218.324 45.0404C218.32 45.0483 218.315 45.0558 218.311 45.0611C218.307 45.0674 218.309 45.064 218.318 45.0544L218.672 45.408L219.025 45.7616C219.111 45.6761 219.175 45.5726 219.218 45.4876C219.253 45.4184 219.316 45.2774 219.316 45.12H218.816ZM218.672 45.408L218.27 45.1104C215.385 49.0056 212.124 53.7852 209.945 58.1444L210.392 58.368L210.839 58.5916C212.979 54.3108 216.199 49.5864 219.073 45.7056L218.672 45.408ZM210.392 58.368L210.769 58.6964C211.735 57.5874 214.26 54.7937 216.96 52.281C218.311 51.0239 219.695 49.8477 220.942 48.9889C221.566 48.5595 222.145 48.2165 222.661 47.9824C223.183 47.7455 223.606 47.636 223.928 47.636V47.136V46.636C223.403 46.636 222.83 46.8077 222.248 47.0717C221.66 47.3385 221.027 47.7161 220.375 48.1653C219.07 49.0638 217.646 50.2771 216.279 51.5489C213.544 54.0943 210.993 56.9166 210.015 58.0396L210.392 58.368ZM223.928 47.136V47.636C224.238 47.636 224.299 47.6485 224.37 47.696L224.648 47.28L224.925 46.864C224.564 46.6235 224.193 46.636 223.928 46.636V47.136ZM224.648 47.28L224.37 47.696C224.41 47.7223 224.448 47.7451 224.479 47.763C224.513 47.7831 224.534 47.7949 224.558 47.8096C224.603 47.8369 224.619 47.8508 224.627 47.8586C224.631 47.8623 224.633 47.8642 224.636 47.8728C224.64 47.8847 224.652 47.9213 224.652 48H225.152H225.652C225.652 47.6373 225.541 47.3586 225.334 47.1514C225.243 47.0602 225.147 46.9976 225.077 46.9551C224.986 46.8998 224.971 46.8945 224.925 46.864L224.648 47.28ZM225.152 48L224.657 47.9293L224.585 48.4333L225.08 48.504L225.575 48.5747L225.647 48.0707L225.152 48ZM225.08 48.504L224.591 48.3992C224.368 49.4405 224.22 50.6996 224.22 51.96H224.72H225.22C225.22 50.7724 225.36 49.5835 225.569 48.6088L225.08 48.504ZM224.72 51.96H224.22C224.22 53.581 224.457 55.2482 225.069 56.539C225.688 57.8467 226.728 58.8252 228.306 58.8678L228.32 58.368L228.333 57.8682C227.247 57.8388 226.487 57.1973 225.973 56.111C225.45 55.0078 225.22 53.507 225.22 51.96H224.72ZM228.32 58.368V58.868C229.767 58.868 231.504 58.1833 233.31 57.1932C235.133 56.1937 237.098 54.8416 239.02 53.4245C240.942 52.0081 242.843 50.5105 244.52 49.2274C246.21 47.9341 247.662 46.8681 248.723 46.2767L248.48 45.84L248.236 45.4033C247.101 46.0359 245.592 47.1479 243.912 48.4331C242.219 49.7285 240.34 51.2099 238.427 52.6195C236.516 54.0284 234.593 55.3493 232.829 56.3163C231.048 57.2927 229.5 57.868 228.32 57.868V58.368ZM248.48 45.84V46.34H248.696V45.84V45.34H248.48V45.84ZM248.696 45.84V46.34C248.694 46.34 248.663 46.341 248.616 46.31C248.59 46.2926 248.555 46.262 248.527 46.2134C248.497 46.1626 248.484 46.1069 248.484 46.056H248.984H249.484C249.484 45.79 249.34 45.5908 249.171 45.478C249.017 45.375 248.842 45.34 248.696 45.34V45.84ZM248.984 46.056H248.484C248.484 45.9126 248.558 45.8289 248.576 45.8104C248.594 45.793 248.593 45.8005 248.544 45.8248L248.768 46.272L248.991 46.7192C249.087 46.6714 249.194 46.607 249.283 46.5176C249.374 46.4271 249.484 46.2714 249.484 46.056H248.984ZM248.768 46.272L248.489 45.8569C247.21 46.7157 245.605 47.9707 243.851 49.3546C242.09 50.7437 240.17 52.2699 238.238 53.6902C236.306 55.1114 234.378 56.4159 232.605 57.3634C230.819 58.3186 229.254 58.876 228.032 58.876V59.376V59.876C229.51 59.876 231.257 59.2183 233.077 58.2453C234.911 57.2646 236.884 55.9276 238.831 54.4958C240.779 53.0631 242.715 51.5248 244.471 50.1397C246.233 48.7493 247.806 47.5203 249.046 46.6871L248.768 46.272ZM228.032 59.376V58.876H227.888V59.376V59.876H228.032V59.376ZM227.888 59.376L227.904 58.8763C226.87 58.8434 226.084 58.5307 225.475 58.0465C224.86 57.5573 224.398 56.8706 224.056 56.0514C223.367 54.4006 223.204 52.3054 223.204 50.52H222.704H222.204C222.204 52.3346 222.365 54.5954 223.133 56.4366C223.52 57.3634 224.07 58.2067 224.853 58.829C225.641 59.4563 226.638 59.8366 227.872 59.8757L227.888 59.376ZM222.704 50.52H223.204V48.864H222.704H222.204V50.52H222.704ZM222.704 48.864L222.455 48.4303C217.484 51.2812 212.019 57.2577 209.75 59.5264L210.104 59.88L210.457 60.2336C212.797 57.8943 218.131 52.0628 222.952 49.2977L222.704 48.864ZM210.104 59.88L209.918 59.4158L209.558 59.5598L209.744 60.024L209.929 60.4882L210.289 60.3442L210.104 59.88ZM217.408 104.448L217.566 103.974L217.558 103.971L217.55 103.969L217.408 104.448ZM228.712 79.968L228.361 79.6125L228.359 79.6144L228.712 79.968ZM254.704 58.152L255.004 58.552L255.083 58.4929L255.134 58.4083L254.704 58.152ZM260.464 48.504L260.894 48.7603L260.116 48.1456L260.464 48.504ZM245.128 54.84L244.755 55.1722L244.764 55.1832L244.775 55.1936L245.128 54.84ZM248.656 45.48L248.364 45.0739L248.356 45.08L248.656 45.48ZM262.12 45.696L261.74 46.0202L262.151 46.5035L262.525 45.9901L262.12 45.696ZM263.488 43.752L263.801 44.1424L263.822 44.1251L263.842 44.1056L263.488 43.752ZM264.856 44.184L265.304 44.4076L265.356 44.302V44.184H264.856ZM264.784 44.328L265.221 44.5708L265.227 44.5613L265.232 44.5516L264.784 44.328ZM257.584 56.712L257.156 56.4536L257.853 57.1338L257.584 56.712ZM275.944 45.912L275.786 45.4377L275.735 45.4546L275.689 45.4819L275.944 45.912ZM276.16 45.84V45.34H276.079L276.002 45.3657L276.16 45.84ZM276.448 46.128L276.896 46.3516L276.948 46.246V46.128H276.448ZM276.304 46.416L276.571 46.8391L276.689 46.7646L276.752 46.6396L276.304 46.416ZM256.432 58.584L256.148 58.1729L256.059 58.234L256.004 58.3261L256.432 58.584ZM252.4 65.28L251.972 65.022L251.967 65.0314L252.4 65.28ZM253.408 60.24L253.839 60.4947L253.118 59.8331L253.408 60.24ZM229.432 80.688L229.075 80.3378L229.075 80.3384L229.432 80.688ZM217.84 103.368L217.703 103.849L217.722 103.854L217.742 103.858L217.84 103.368ZM261.616 46.488L261.96 46.8507L262.303 46.5256L261.998 46.165L261.616 46.488ZM249.664 47.208L249.984 47.5921L249.984 47.5921L249.664 47.208ZM246.424 53.976L246.034 54.2883L246.051 54.31L246.071 54.3296L246.424 53.976ZM218.632 104.592V104.092C218.196 104.092 217.912 104.089 217.566 103.974L217.408 104.448L217.25 104.922C217.768 105.095 218.204 105.092 218.632 105.092V104.592ZM217.408 104.448L217.55 103.969C216.653 103.703 216.072 103.303 215.711 102.824C215.35 102.346 215.172 101.739 215.172 100.992H214.672H214.172C214.172 101.901 214.391 102.734 214.912 103.426C215.433 104.117 216.219 104.617 217.266 104.927L217.408 104.448ZM214.672 100.992H215.172C215.172 99.5722 215.824 97.7505 216.912 95.7262C217.991 93.7169 219.465 91.5692 221.037 89.5147C224.178 85.4064 227.672 81.7153 229.066 80.3216L228.712 79.968L228.359 79.6144C226.945 81.0287 223.419 84.7536 220.242 88.9073C218.654 90.9838 217.145 93.1786 216.031 95.253C214.924 97.3125 214.172 99.3158 214.172 100.992H214.672ZM228.712 79.968L229.064 80.3235C241.994 67.5373 253.841 59.4247 255.004 58.552L254.704 58.152L254.404 57.752C253.264 58.6073 241.351 66.7667 228.361 79.6125L228.712 79.968ZM254.704 58.152L255.134 58.4083L260.894 48.7603L260.464 48.504L260.035 48.2477L254.275 57.8957L254.704 58.152ZM260.464 48.504L260.116 48.1456C258.82 49.4064 256.479 51.1646 253.986 52.6072C252.742 53.3271 251.47 53.962 250.282 54.4157C249.088 54.8719 248.011 55.132 247.144 55.132V55.632V56.132C248.186 56.132 249.395 55.8251 250.639 55.3498C251.89 54.872 253.211 54.2109 254.487 53.4728C257.033 51.9994 259.445 50.1936 260.813 48.8624L260.464 48.504ZM247.144 55.632V55.132C246.473 55.132 245.884 54.8883 245.482 54.4864L245.128 54.84L244.775 55.1936C245.381 55.7997 246.232 56.132 247.144 56.132V55.632ZM245.128 54.84L245.502 54.5078C245.026 53.9723 244.836 53.3088 244.836 52.608H244.336H243.836C243.836 53.4912 244.079 54.4117 244.755 55.1722L245.128 54.84ZM244.336 52.608H244.836C244.836 51.4487 245.357 50.1412 246.159 48.9122C246.956 47.6903 247.997 46.5997 248.956 45.88L248.656 45.48L248.356 45.08C247.3 45.8723 246.18 47.0497 245.322 48.3658C244.468 49.6748 243.836 51.1753 243.836 52.608H244.336ZM248.656 45.48L248.948 45.886C251.188 44.2764 253.608 43.388 255.928 43.388V42.888V42.388C253.353 42.388 250.733 43.3716 248.365 45.074L248.656 45.48ZM255.928 42.888V43.388C258.172 43.388 260.187 44.1978 261.74 46.0202L262.12 45.696L262.501 45.3718C260.741 43.3062 258.437 42.388 255.928 42.388V42.888ZM262.12 45.696L262.525 45.9901C262.824 45.5783 263.09 45.143 263.306 44.8048C263.544 44.4338 263.698 44.2247 263.801 44.1424L263.488 43.752L263.176 43.3616C262.919 43.5673 262.677 43.9342 262.464 44.2652C262.231 44.629 261.993 45.0217 261.716 45.4019L262.12 45.696ZM263.488 43.752L263.842 44.1056C263.836 44.1111 263.832 44.1145 263.83 44.1161C263.828 44.1177 263.827 44.1182 263.828 44.1179C263.829 44.1172 263.833 44.115 263.838 44.1126C263.844 44.1102 263.849 44.1088 263.852 44.1081C263.855 44.1074 263.854 44.108 263.848 44.108V43.608V43.108C263.563 43.108 263.294 43.239 263.135 43.3984L263.488 43.752ZM263.848 43.608V44.108C263.994 44.108 264.168 44.1469 264.291 44.2082C264.351 44.2382 264.375 44.2622 264.38 44.2675C264.38 44.268 264.356 44.2375 264.356 44.184H264.856H265.356C265.356 43.7088 264.983 43.4366 264.738 43.3138C264.465 43.1771 264.135 43.108 263.848 43.108V43.608ZM264.856 44.184L264.409 43.9604L264.337 44.1044L264.784 44.328L265.232 44.5516L265.304 44.4076L264.856 44.184ZM264.784 44.328L264.347 44.0852C262.191 47.9667 259.458 52.6414 257.156 56.4536L257.584 56.712L258.012 56.9704C260.319 53.1506 263.058 48.4653 265.221 44.5708L264.784 44.328ZM257.584 56.712L257.853 57.1338C261.806 54.6184 268.401 50.9634 276.199 46.3421L275.944 45.912L275.689 45.4819C267.936 50.0766 261.283 53.7656 257.316 56.2902L257.584 56.712ZM275.944 45.912L276.102 46.3863L276.318 46.3143L276.16 45.84L276.002 45.3657L275.786 45.4377L275.944 45.912ZM276.16 45.84V46.34C276.07 46.34 276.021 46.2997 276.005 46.2836C275.989 46.2674 275.948 46.2186 275.948 46.128H276.448H276.948C276.948 45.8934 276.836 45.7006 276.712 45.5764C276.588 45.4523 276.395 45.34 276.16 45.34V45.84ZM276.448 46.128L276.001 45.9044L275.857 46.1924L276.304 46.416L276.752 46.6396L276.896 46.3516L276.448 46.128ZM276.304 46.416L276.038 45.9929C272.159 48.4349 269.074 50.1746 266.009 51.9599C262.943 53.7451 259.907 55.5704 256.148 58.1729L256.432 58.584L256.717 58.9951C260.446 56.4136 263.457 54.6029 266.512 52.8241C269.566 51.0454 272.673 49.2931 276.571 46.8391L276.304 46.416ZM256.432 58.584L256.004 58.3261L251.972 65.0221L252.4 65.28L252.829 65.5379L256.861 58.8419L256.432 58.584ZM252.4 65.28L251.967 65.0314C250.277 67.9787 244.546 77.7873 237.894 86.8542C234.567 91.3894 231.021 95.7224 227.645 98.9166C225.957 100.514 224.324 101.815 222.792 102.714C221.256 103.616 219.858 104.092 218.632 104.092V104.592V105.092C220.106 105.092 221.683 104.524 223.298 103.576C224.918 102.625 226.613 101.27 228.333 99.6429C231.772 96.3886 235.359 92.0006 238.7 87.4458C245.386 78.3327 251.139 68.4853 252.834 65.5286L252.4 65.28ZM218.992 103.512V104.012C220.405 104.012 221.913 103.423 223.456 102.444C225.005 101.461 226.631 100.058 228.291 98.3665C231.61 94.9823 235.112 90.3895 238.448 85.5342C245.121 75.8228 251.183 64.9801 253.839 60.4947L253.408 60.24L252.978 59.9853C250.305 64.4999 244.272 75.2932 237.624 84.9679C234.3 89.8056 230.836 94.3432 227.577 97.6663C225.947 99.328 224.381 100.673 222.92 101.6C221.454 102.53 220.136 103.012 218.992 103.012V103.512ZM253.408 60.24L253.118 59.8331C246.042 64.8875 236.659 72.6101 229.075 80.3378L229.432 80.688L229.789 81.0382C237.326 73.3579 246.663 65.6725 253.699 60.6469L253.408 60.24ZM229.432 80.688L229.075 80.3384C227.483 81.966 224.049 85.6354 221.008 89.5808C219.489 91.5529 218.059 93.6049 217.007 95.5125C215.964 97.4022 215.252 99.2201 215.252 100.704H215.752H216.252C216.252 99.4879 216.854 97.8588 217.882 95.9955C218.9 94.1501 220.296 92.1431 221.8 90.1912C224.808 86.2886 228.213 82.65 229.79 81.0376L229.432 80.688ZM215.752 100.704H215.252C215.252 101.425 215.413 102.098 215.827 102.657C216.242 103.218 216.871 103.611 217.703 103.849L217.84 103.368L217.978 102.887C217.298 102.693 216.882 102.402 216.631 102.063C216.379 101.722 216.252 101.279 216.252 100.704H215.752ZM217.84 103.368L217.742 103.858C218.1 103.93 218.505 104.012 218.992 104.012V103.512V103.012C218.616 103.012 218.301 102.95 217.938 102.878L217.84 103.368ZM247.864 54.48V54.98C248.835 54.98 250.029 54.6121 251.277 54.0637C252.539 53.5095 253.909 52.7469 255.249 51.9066C257.926 50.2277 260.528 48.21 261.96 46.8507L261.616 46.488L261.272 46.1253C259.897 47.43 257.351 49.4083 254.718 51.0594C253.403 51.8841 252.077 52.62 250.875 53.1481C249.66 53.6819 248.622 53.98 247.864 53.98V54.48ZM261.616 46.488L261.998 46.165C260.331 44.1952 258.469 43.396 256.648 43.396V43.896V44.396C258.139 44.396 259.733 45.0368 261.235 46.811L261.616 46.488ZM256.648 43.896V43.396C254.009 43.396 251.512 45.0175 249.344 46.8239L249.664 47.208L249.984 47.5921C252.137 45.7985 254.392 44.396 256.648 44.396V43.896ZM249.664 47.208L249.344 46.8239C248.668 47.3872 247.722 48.3341 246.94 49.3954C246.174 50.4349 245.492 51.6811 245.492 52.824H245.992H246.492C246.492 52.0229 246.999 51.0011 247.745 49.9886C248.475 48.9979 249.364 48.1088 249.984 47.5921L249.664 47.208ZM245.992 52.824H245.492C245.492 53.3876 245.687 53.8549 246.034 54.2883L246.424 53.976L246.815 53.6637C246.586 53.3771 246.492 53.1244 246.492 52.824H245.992ZM246.424 53.976L246.071 54.3296C246.553 54.8115 247.13 54.98 247.864 54.98V54.48V53.98C247.303 53.98 247.016 53.8605 246.778 53.6224L246.424 53.976Z" fill="#8B9B68" mask="url(#path-1-outside-1_13_186)"/>
</svg>
