<svg width="299" height="50" viewBox="0 0 299 50" fill="none" xmlns="http://www.w3.org/2000/svg">
<path d="M184.227 42.9622C184.076 42.1038 184.041 41.13 184.041 40.0859C184.041 33.8088 186.545 24.7257 189.234 20.1302C187.104 21.4378 175.825 34.0698 170.259 36.3488C169.922 36.4994 169.662 36.5345 169.401 36.5345C168.615 36.5345 168.207 35.9372 168.207 34.8153C168.207 31.1158 172.765 22.0728 181.951 14.3375C176.199 16.1697 156.812 19.4199 156.812 22.0728L156.85 22.2586C156.85 22.4091 156.737 22.5196 156.627 22.5196C156.476 22.5196 156.366 22.4066 156.328 22.1833V22.0327C156.328 18.3708 178.254 15.5673 183.522 13.0274L183.707 12.9897C184.006 12.9897 184.53 13.2884 184.53 13.6247C184.53 13.7377 184.455 13.8481 184.269 13.961C182.29 15.231 178.068 19.5655 174.97 23.9753C171.832 28.4227 169.403 32.9806 169.403 34.7751C169.403 35.262 169.589 35.523 170 35.523C170.299 35.523 170.785 35.3373 171.382 34.9633C177.285 31.3391 188.08 19.3421 190.358 18.4838H190.471C190.882 18.4838 191.63 18.8954 191.63 19.194L191.592 19.2693C187.781 24.5024 185.13 35.375 185.13 40.9443C185.13 43.0375 185.504 44.3828 186.362 44.3828C191.778 44.197 209.148 9.89008 221.287 4.80767C221.4 4.77002 221.473 4.77002 221.51 4.77002C221.661 4.77002 221.733 4.80767 221.733 4.88296C221.733 4.95826 221.658 5.06869 221.51 5.10634C210.603 9.36553 192.227 45.5398 186.101 45.5398C185.205 45.5398 184.57 44.7542 184.234 42.9622H184.227Z" fill="#8B9B68" stroke="#8B9B68" stroke-width="0.5" stroke-miterlimit="10"/>
<path d="M206.004 34.1804C205.218 33.8441 204.92 33.0961 204.92 32.2378C204.92 31.3794 205.218 30.4809 205.63 29.733C207.125 27.0801 208.954 26.2568 210.113 26.2568C210.785 26.2568 211.234 26.5179 211.234 26.8918C211.234 27.8255 209.591 29.359 206.528 29.9563C206.041 30.9276 205.856 31.6756 205.856 32.2353C205.856 33.2819 206.49 33.7311 207.351 33.7663H207.536C210.339 33.7663 215.419 30.5888 218.78 28.0865L218.966 28.0112C219.041 28.0112 219.116 28.0865 219.116 28.1242C219.116 28.1994 219.079 28.2747 218.966 28.3475C215.343 31.1134 210.113 34.4012 207.125 34.4012C206.714 34.4012 206.34 34.326 206.004 34.1779V34.1804ZM210.823 27.1554C210.823 27.0801 210.785 27.0048 210.71 26.932C210.635 26.8567 210.487 26.7814 210.298 26.7814C209.551 26.7814 208.096 27.4917 206.824 29.3966C208.58 29.2461 210.82 27.8656 210.82 27.1554H210.823Z" fill="#8B9B68" stroke="#8B9B68" stroke-width="0.5" stroke-miterlimit="10"/>
<path d="M217.845 34.1804C217.06 33.8441 216.762 33.0961 216.762 32.2378C216.762 31.3794 217.06 30.4809 217.472 29.733C218.967 27.0801 220.796 26.2568 221.955 26.2568C222.627 26.2568 223.076 26.5179 223.076 26.8918C223.076 27.8255 221.433 29.359 218.37 29.9563C217.883 30.9276 217.697 31.6756 217.697 32.2353C217.697 33.2819 218.332 33.7311 219.193 33.7663H219.378C222.18 33.7663 227.26 30.5888 230.622 28.0865L230.808 28.0112C230.883 28.0112 230.958 28.0865 230.958 28.1242C230.958 28.1994 230.92 28.2747 230.808 28.3475C227.185 31.1134 221.955 34.4012 218.967 34.4012C218.555 34.4012 218.182 34.326 217.845 34.1779V34.1804ZM222.662 27.1554C222.662 27.0801 222.624 27.0048 222.549 26.932C222.474 26.8567 222.326 26.7814 222.138 26.7814C221.39 26.7814 219.935 27.4917 218.663 29.3966C220.419 29.2461 222.66 27.8656 222.66 27.1554H222.662Z" fill="#8B9B68" stroke="#8B9B68" stroke-width="0.5" stroke-miterlimit="10"/>
<path d="M234.354 36.2735C232.749 36.2735 232.224 33.9946 231.552 31.304C228.527 33.6959 227.48 35.8644 226.959 35.8644H226.921C226.808 35.8267 226.771 35.7138 226.771 35.5657C226.771 34.0699 230.393 27.7551 234.653 21.6637C239.284 15.0503 244.514 9.03174 246.83 9.03174C246.98 9.03174 247.091 9.06939 247.241 9.10703C247.728 9.29276 247.913 9.66673 247.913 10.1536C247.913 14.0765 233.832 26.4475 231.329 28.2772L228.752 32.7622C230.21 30.9677 234.69 27.1578 237.156 27.1578C237.678 27.1578 238.127 27.3435 238.426 27.7551C238.501 27.9057 238.576 28.0538 238.576 28.2044C238.576 28.9523 237.568 29.8483 236.223 30.2976C234.954 30.7092 233.496 30.8573 232.45 30.8573H232.152C232.937 34.0699 233.235 35.5657 234.467 35.6787H234.542C237.081 35.6787 243.543 29.0276 246.421 28.0186L246.571 27.981C246.646 27.981 246.722 28.0563 246.722 28.0939C246.722 28.1692 246.646 28.2445 246.536 28.2797C243.586 29.3639 237.721 35.9773 234.545 36.276H234.359L234.354 36.2735ZM247.464 10.1511C247.464 9.8901 247.389 9.70186 247.241 9.55378C247.128 9.47849 247.018 9.44084 246.867 9.44084C244.065 9.44084 233.195 25.1374 231.888 27.2657C233.418 25.9204 247.464 13.5143 247.464 10.1511ZM237.977 28.3123C237.977 28.1266 237.826 27.976 237.528 27.976L237.304 28.0136C236.855 28.1266 236.296 28.3123 235.624 28.611C234.728 29.0602 233.682 29.6952 232.598 30.4055C236.333 30.2926 237.977 28.9473 237.977 28.3123Z" fill="#8B9B68" stroke="#8B9B68" stroke-width="0.5" stroke-miterlimit="10"/>
<path d="M245.595 34.1804C244.81 33.8441 244.512 33.0961 244.512 32.2378C244.512 31.3794 244.81 30.4809 245.222 29.733C246.717 27.0801 248.546 26.2568 249.705 26.2568C250.377 26.2568 250.826 26.5179 250.826 26.8918C250.826 27.8255 249.183 29.359 246.12 29.9563C245.633 30.9276 245.447 31.6756 245.447 32.2353C245.447 33.2819 246.082 33.7311 246.943 33.7663H247.128C249.93 33.7663 255.01 30.5888 258.372 28.0865L258.558 28.0112C258.633 28.0112 258.708 28.0865 258.708 28.1242C258.708 28.1994 258.67 28.2747 258.558 28.3475C254.935 31.1134 249.705 34.4012 246.717 34.4012C246.305 34.4012 245.932 34.326 245.595 34.1779V34.1804ZM250.415 27.1554C250.415 27.0801 250.377 27.0048 250.302 26.932C250.226 26.8567 250.078 26.7814 249.89 26.7814C249.143 26.7814 247.688 27.4917 246.416 29.3966C248.172 29.2461 250.412 27.8656 250.412 27.1554H250.415Z" fill="#8B9B68" stroke="#8B9B68" stroke-width="0.5" stroke-miterlimit="10"/>
<path d="M254.486 35.0387V34.9258C254.822 34.0298 255.083 33.1689 255.869 31.8613C257.138 29.6928 258.483 27.6372 258.708 27.3762C258.821 27.2632 258.894 27.2256 259.007 27.2256C259.23 27.2256 259.494 27.449 259.494 27.6372C259.494 27.6749 259.456 27.7501 259.418 27.7878C257.923 29.8057 256.242 32.2729 255.124 34.5142C256.132 33.3546 260.389 28.6838 262.145 28.6838C262.296 28.6838 262.406 28.6838 262.519 28.7591C262.632 28.8344 262.78 28.872 262.78 29.1331L262.742 29.3941C262.629 29.9161 262.557 30.5536 262.557 31.1886C262.557 32.8326 263.043 34.4765 264.423 34.5142C267.15 34.5142 272.604 29.2811 274.882 28.0112H274.994C275.07 28.0112 275.145 28.0488 275.145 28.1241C275.145 28.1618 275.107 28.1994 275.032 28.237C272.418 29.9939 267.077 35.0387 264.275 35.0387H264.2C261.847 34.9634 261.511 32.3105 261.511 30.4432V29.5848C258.972 31.0431 256.17 34.1076 254.973 35.3022L254.787 35.3775C254.637 35.3775 254.489 35.2269 254.489 35.0412L254.486 35.0387Z" fill="#8B9B68" stroke="#8B9B68" stroke-width="0.5" stroke-miterlimit="10"/>
<path d="M278.765 34.3286C278.765 33.3196 279.101 31.9367 279.996 30.2175C277.27 32.3107 275.366 33.0937 274.244 33.0937C273.198 33.0937 272.749 32.4964 272.749 31.6355C272.749 29.5047 275.624 26.1415 278.8 26.1415C279.959 26.1415 280.93 26.6635 281.153 28.0841C282.796 24.8339 294.153 9.02441 297.587 9.02441C297.999 9.02441 298.335 9.21014 298.335 9.77234C298.335 11.2306 296.167 15.0781 290.977 20.4241C287.914 23.5639 284.813 26.7012 281.602 29.0931C280.144 31.7083 279.66 33.5028 279.66 34.6247C279.66 35.8194 280.182 36.1934 280.819 36.1934C283.694 36.1934 291.13 29.2437 294.155 28.0088L294.268 27.9712C294.419 27.9712 294.454 28.0841 294.454 28.1569C294.454 28.2297 294.416 28.3075 294.341 28.3426C290.866 29.8385 284.106 36.6753 280.634 36.6753C279.7 36.6753 278.767 36.0779 278.767 34.321L278.765 34.3286ZM280.596 29.0228V28.7994C280.596 27.3788 279.886 26.8944 278.991 26.8944C277.982 26.8944 276.75 27.4918 275.965 28.2397C274.844 29.2487 273.873 31.116 273.873 32.0145C273.873 32.2379 273.948 32.4261 274.134 32.4638L274.432 32.5014C275.626 32.5014 278.13 31.1185 280.596 29.0253V29.0228ZM293.483 16.953C296.097 13.8508 297.928 10.8616 297.928 9.77736C297.928 9.55399 297.891 9.4034 297.667 9.4034C297.294 9.4034 296.436 10.0384 295.39 11.0473C291.469 14.8974 284.67 24.2014 282.279 27.8632C284.334 26.2946 289.637 21.3979 293.485 16.9505L293.483 16.953Z" fill="#8B9B68" stroke="#8B9B68" stroke-width="0.5" stroke-miterlimit="10"/>
<path d="M128.357 25.7167C127.885 25.7167 127.529 25.8397 127.288 26.0832C127.047 26.3266 126.874 26.7432 126.769 27.3305C126.769 27.3456 126.749 27.3531 126.706 27.3531C126.664 27.3531 126.644 27.3456 126.644 27.3305C126.659 27.2327 126.674 27.0921 126.689 26.9139C126.704 26.7357 126.721 26.5425 126.741 26.3367C126.761 26.1308 126.777 25.9301 126.787 25.7368C126.799 25.5435 126.804 25.3854 126.804 25.2624C126.804 25.2248 126.824 25.2047 126.867 25.2047C126.909 25.2047 126.93 25.2248 126.93 25.2624C126.93 25.3377 126.967 25.393 127.045 25.4281C127.123 25.4632 127.208 25.4858 127.303 25.4959C127.399 25.5059 127.481 25.5134 127.549 25.5134C128.204 25.536 128.972 25.5486 129.847 25.5486C130.389 25.5486 130.818 25.5435 131.134 25.531C131.45 25.5184 131.756 25.5134 132.055 25.5134C132.313 25.5134 132.514 25.4959 132.654 25.4607C132.795 25.4256 132.885 25.3478 132.923 25.2273C132.93 25.1972 132.953 25.1821 132.99 25.1821C133.028 25.1821 133.048 25.1972 133.048 25.2273C133.041 25.3428 133.028 25.4984 133.013 25.6966C132.998 25.8949 132.985 26.1007 132.978 26.3141C132.97 26.5274 132.963 26.7257 132.955 26.9089C132.948 27.0921 132.943 27.2327 132.943 27.3331C132.943 27.3481 132.92 27.3556 132.875 27.3556C132.83 27.3556 132.807 27.3481 132.807 27.3331C132.785 26.7382 132.662 26.3216 132.441 26.0807C132.22 25.8397 131.854 25.7192 131.342 25.7192C131.021 25.7192 130.783 25.7343 130.622 25.7644C130.462 25.7945 130.356 25.8623 130.309 25.9652C130.259 26.0681 130.233 26.2337 130.233 26.4621V31.7353C130.233 31.9562 130.261 32.1243 130.314 32.2398C130.366 32.3552 130.472 32.4305 130.627 32.4682C130.783 32.5058 131.021 32.5259 131.342 32.5259C131.365 32.5259 131.377 32.5485 131.377 32.5937C131.377 32.6389 131.365 32.6614 131.342 32.6614C131.144 32.6614 130.918 32.6564 130.667 32.6489C130.417 32.6414 130.141 32.6363 129.845 32.6363C129.564 32.6363 129.295 32.6414 129.044 32.6489C128.793 32.6564 128.565 32.6614 128.359 32.6614C128.344 32.6614 128.337 32.6389 128.337 32.5937C128.337 32.5485 128.344 32.5259 128.359 32.5259C128.673 32.5259 128.909 32.5058 129.074 32.4682C129.237 32.4305 129.348 32.3527 129.401 32.2398C129.453 32.1243 129.481 31.9587 129.481 31.7353V26.4396C129.481 26.2112 129.453 26.0455 129.401 25.9426C129.348 25.8397 129.24 25.777 129.079 25.7544C128.919 25.7318 128.678 25.7192 128.359 25.7192L128.357 25.7167Z" fill="#8B9B68" stroke="#8B9B68" stroke-width="0.5" stroke-miterlimit="10"/>
<path d="M136.006 31.7326V26.4369C136.006 26.216 135.981 26.0504 135.931 25.9399C135.881 25.8295 135.785 25.7542 135.645 25.7115C135.504 25.6689 135.291 25.6488 135.01 25.6488C134.995 25.6488 134.988 25.6262 134.988 25.581C134.988 25.5358 134.995 25.5133 135.01 25.5133C135.193 25.5133 135.402 25.5183 135.632 25.5308C135.866 25.5434 136.107 25.5484 136.357 25.5484C136.638 25.5484 136.894 25.5434 137.123 25.5308C137.351 25.5183 137.557 25.5133 137.74 25.5133C137.755 25.5133 137.762 25.5358 137.762 25.581C137.762 25.6262 137.755 25.6488 137.74 25.6488C137.451 25.6488 137.235 25.6714 137.095 25.7166C136.954 25.7617 136.859 25.842 136.809 25.9575C136.759 26.0729 136.734 26.2386 136.734 26.462V31.7351C136.734 31.956 136.756 32.1242 136.801 32.2396C136.847 32.3551 136.942 32.4304 137.087 32.468C137.233 32.5057 137.449 32.5257 137.74 32.5257C137.755 32.5257 137.762 32.5483 137.762 32.5935C137.762 32.6387 137.755 32.6613 137.74 32.6613C137.549 32.6613 137.341 32.6562 137.118 32.6487C136.892 32.6412 136.638 32.6362 136.357 32.6362C136.107 32.6362 135.861 32.6412 135.625 32.6487C135.389 32.6562 135.178 32.6613 134.995 32.6613C134.98 32.6613 134.973 32.6387 134.973 32.5935C134.973 32.5483 134.98 32.5257 134.995 32.5257C135.276 32.5257 135.489 32.5057 135.635 32.468C135.78 32.4304 135.876 32.3526 135.926 32.2396C135.976 32.1242 136.001 31.9585 136.001 31.7351L136.006 31.7326ZM136.337 29.0546V28.8137H141.447V29.0546H136.337ZM141.129 26.4595C141.129 26.2386 141.106 26.0704 141.061 25.955C141.016 25.8395 140.923 25.7617 140.78 25.714C140.64 25.6689 140.419 25.6463 140.123 25.6463C140.1 25.6463 140.088 25.6237 140.088 25.5785C140.088 25.5333 140.1 25.5107 140.123 25.5107C140.306 25.5107 140.512 25.5158 140.74 25.5283C140.968 25.5409 141.224 25.5459 141.505 25.5459C141.756 25.5459 141.999 25.5409 142.238 25.5283C142.474 25.5158 142.679 25.5107 142.855 25.5107C142.877 25.5107 142.89 25.5333 142.89 25.5785C142.89 25.6237 142.877 25.6463 142.855 25.6463C142.574 25.6463 142.361 25.6664 142.22 25.709C142.08 25.7517 141.984 25.827 141.934 25.9374C141.884 26.0478 141.859 26.2135 141.859 26.4344V31.7301C141.859 31.951 141.884 32.1191 141.934 32.2346C141.984 32.35 142.08 32.4253 142.22 32.463C142.361 32.5006 142.574 32.5207 142.855 32.5207C142.877 32.5207 142.89 32.5433 142.89 32.5885C142.89 32.6337 142.877 32.6562 142.855 32.6562C142.679 32.6562 142.474 32.6512 142.238 32.6437C142.002 32.6362 141.759 32.6311 141.505 32.6311C141.224 32.6311 140.968 32.6362 140.74 32.6437C140.512 32.6512 140.306 32.6562 140.123 32.6562C140.1 32.6562 140.088 32.6337 140.088 32.5885C140.088 32.5433 140.1 32.5207 140.123 32.5207C140.419 32.5207 140.64 32.5006 140.78 32.463C140.921 32.4253 141.013 32.3475 141.061 32.2346C141.106 32.1191 141.129 31.9535 141.129 31.7301V26.457V26.4595Z" fill="#8B9B68" stroke="#8B9B68" stroke-width="0.5" stroke-miterlimit="10"/>
<path d="M149.703 32.6587H144.911C144.896 32.6587 144.889 32.6361 144.889 32.5909C144.889 32.5457 144.896 32.5232 144.911 32.5232C145.192 32.5232 145.403 32.5031 145.541 32.4654C145.679 32.4278 145.772 32.35 145.822 32.237C145.872 32.1216 145.897 31.9559 145.897 31.7326V26.4368C145.897 26.2159 145.872 26.0503 145.822 25.9399C145.772 25.8294 145.679 25.7541 145.541 25.7115C145.403 25.6688 145.195 25.6487 144.911 25.6487C144.896 25.6487 144.889 25.6261 144.889 25.581C144.889 25.5358 144.896 25.5132 144.911 25.5132H149.507C149.575 25.5132 149.61 25.5483 149.61 25.6161L149.633 27.0241C149.633 27.0467 149.612 27.0592 149.57 27.0643C149.527 27.0693 149.507 27.0592 149.507 27.0367C149.485 26.625 149.359 26.3088 149.136 26.0879C148.91 25.8671 148.619 25.7566 148.26 25.7566H147.563C147.304 25.7566 147.106 25.7767 146.973 25.8144C146.84 25.852 146.748 25.9248 146.7 26.0327C146.65 26.1406 146.625 26.2963 146.625 26.5021V31.6949C146.625 31.8932 146.65 32.0463 146.7 32.1517C146.75 32.2596 146.838 32.3299 146.963 32.3701C147.089 32.4077 147.277 32.4278 147.53 32.4278H148.446C148.812 32.4278 149.118 32.2973 149.367 32.0337C149.615 31.7702 149.776 31.4138 149.853 30.9645C149.853 30.942 149.876 30.9344 149.921 30.942C149.966 30.9495 149.989 30.9646 149.989 30.9871C149.959 31.1854 149.934 31.4264 149.913 31.7075C149.893 31.9886 149.886 32.2521 149.886 32.4955C149.886 32.611 149.826 32.6662 149.703 32.6662V32.6587ZM149.061 29.9932C149.061 29.6569 148.978 29.4185 148.815 29.2729C148.652 29.1274 148.378 29.0546 147.997 29.0546H146.281V28.8136H148.029C148.396 28.8136 148.657 28.7509 148.812 28.6254C148.968 28.4999 149.045 28.2966 149.045 28.013C149.045 27.9979 149.068 27.9904 149.113 27.9904C149.158 27.9904 149.181 27.9979 149.181 28.013C149.181 28.2414 149.181 28.4196 149.176 28.5451C149.171 28.6706 149.171 28.8036 149.171 28.9391C149.171 29.1148 149.176 29.2855 149.183 29.4536C149.191 29.6218 149.196 29.8 149.196 29.9907C149.196 30.0058 149.173 30.0133 149.128 30.0133C149.083 30.0133 149.061 30.0058 149.061 29.9907V29.9932Z" fill="#8B9B68" stroke="#8B9B68" stroke-width="0.5" stroke-miterlimit="10"/>
<path d="M35.0623 49.0207C26.1341 48.6091 20.2338 40.6504 20.2338 31.4945L20.2714 30.2622C12.3165 33.9993 4.95613 38.5572 1.48417 44.3875C1.40891 44.5381 1.29853 44.5733 1.22327 44.5733C1.11038 44.5733 1 44.4603 1 44.3122L1.07526 44.0889C4.81063 37.9222 12.0581 33.3267 20.3115 29.439C20.9838 19.3871 29.1269 11.7622 37.6814 11.7622C40.5212 11.7622 43.3584 12.5854 46.0101 14.4151C47.6532 15.5746 49.0355 17.0303 49.7831 18.5638C52.4723 17.6678 68.9817 11.5012 69.8798 10.7156C71.7111 7.46534 77.3129 1 82.6914 1C83.1405 1 83.5494 1.0753 83.9984 1.15059C84.6331 1.30118 84.894 1.59985 84.894 2.00895C84.894 3.01791 82.99 4.6995 80.973 5.85904C78.6575 7.20431 74.9974 9.22222 71.0012 11.0544C68.8337 14.5682 66.5935 19.1637 63.7537 25.7043C58.4881 37.9624 51.652 49.0609 36.412 49.0609L35.0674 49.0232L35.0623 49.0207ZM69.2777 11.7622L50.1167 19.1988C50.3776 19.9091 50.5281 20.5817 50.5281 21.2544C50.5281 22.5996 49.9687 23.8696 48.9226 25.0668C48.8097 25.1421 48.737 25.1798 48.6617 25.1798C48.5112 25.1798 48.4384 25.1045 48.4384 24.9564C48.4384 24.8811 48.4761 24.8058 48.589 24.6954C49.4469 23.7617 49.8583 22.6775 49.8583 21.5932C49.8583 20.8829 49.6727 20.1726 49.4093 19.4624L45.9724 20.5842C36.1486 23.7617 27.8199 26.7509 21.0215 29.9259L20.9838 30.8972C20.9838 39.1922 25.951 47.3767 34.9921 47.7884L36.2615 47.826C57.2914 47.826 60.5025 26.2264 69.2802 11.7647L69.2777 11.7622ZM49.1082 18.7872C47.2769 15.3111 42.7589 12.5101 37.6036 12.5101C33.1207 12.5101 28.1159 14.6786 24.1196 20.396C22.326 22.9008 21.3175 25.9653 21.0566 29.1026C29.7967 25.1045 38.2383 22.4516 49.1082 18.7872ZM84.1439 2.19468L84.1063 2.04409C84.0311 1.85836 83.6949 1.74542 83.1731 1.74542C81.0433 1.74542 75.8153 3.5776 71.5556 10.0781C73.5725 9.14442 84.1439 3.91141 84.1439 2.19217V2.19468Z" fill="#8B9B68" stroke="#8B9B68" stroke-width="0.5" stroke-miterlimit="10"/>
<path d="M77.7192 34.9707C76.8612 34.9707 76.525 34.2228 76.525 33.1762C76.525 32.1296 76.8612 30.7467 77.4583 29.5144C76.0007 30.5986 74.8819 31.0102 74.0967 31.0102C73.0506 31.0102 72.5664 30.2999 72.5664 29.3663C72.5664 27.8353 73.8734 25.7421 76.3394 25.0694C76.5627 24.9941 76.8261 24.9941 77.0494 24.9941C77.8722 24.9941 78.5796 25.4058 79.2896 26.4147L79.8114 25.6291C79.849 25.5538 79.9243 25.5162 80.0346 25.5162C80.2955 25.5162 80.6317 25.8149 80.6317 26.0382L80.5941 26.1512C79.8841 27.0472 79.1742 28.2444 78.4266 29.5897C77.531 31.1959 77.2325 32.4308 77.2325 33.2139C77.2325 33.9969 77.4934 34.3734 77.8672 34.4085H77.9424C80.4084 34.4085 87.6158 27.1225 90.9773 26.1863L91.1279 26.1487C91.2407 26.1487 91.3135 26.224 91.3135 26.2993C91.3135 26.3369 91.2382 26.4122 91.163 26.485C86.7553 28.3172 80.5539 34.8929 77.827 34.9682H77.7141L77.7192 34.9707ZM78.9158 26.9342C78.3564 25.9629 77.7217 25.589 77.0845 25.589C76.076 25.589 75.0675 26.5226 74.2823 27.5692C73.5347 28.5405 73.2362 29.2508 73.2362 29.7754C73.2362 30.2623 73.5347 30.5233 74.059 30.5233C75.0675 30.5233 77.0092 29.4014 78.9158 26.9368V26.9342Z" fill="#8B9B68" stroke="#8B9B68" stroke-width="0.5" stroke-miterlimit="10"/>
<path d="M89.2618 32.7267C89.149 32.689 89.1113 32.5033 89.1113 32.2774C89.1113 30.6335 91.2412 25.1771 91.4268 24.8784C91.5397 24.6927 91.7253 24.6174 91.9135 24.6174C92.1744 24.6174 92.3625 24.7303 92.3625 24.9914C92.3625 25.0667 92.3625 25.1419 92.3249 25.2147C91.3164 27.5313 90.4936 29.7375 89.7862 32.0917C91.9887 30.5958 94.6053 28.2792 96.1355 26.0756C96.0226 25.7393 95.985 25.4783 95.985 25.2172C95.985 24.394 96.5068 23.9473 96.8806 23.9473C97.1791 23.9473 97.4024 24.133 97.4024 24.5823C97.4024 24.9562 97.2168 25.4783 96.7301 26.1885C97.4777 27.2352 98.7094 27.5715 100.054 27.5715C101.996 27.5715 104.126 26.7859 105.096 26.2262L105.209 26.1885C105.285 26.1885 105.322 26.2262 105.322 26.2638C105.322 26.3015 105.285 26.3768 105.137 26.4496C104.241 27.0093 102.036 27.9078 99.9437 27.9078C98.6367 27.9078 97.3296 27.5715 96.4692 26.5249C95.4983 28.0559 90.5312 32.7668 89.3722 32.7668L89.2593 32.7292L89.2618 32.7267ZM96.9559 24.5044C96.9559 24.3539 96.9182 24.3187 96.843 24.3187C96.6573 24.3187 96.3939 24.6174 96.3939 25.1419C96.3939 25.2925 96.3939 25.4783 96.4692 25.664C96.843 25.0667 96.9559 24.6927 96.9559 24.5044Z" fill="#8B9B68" stroke="#8B9B68" stroke-width="0.5" stroke-miterlimit="10"/>
<path d="M104.052 32.3528C103.267 32.0164 102.969 31.2685 102.969 30.4101C102.969 29.5518 103.267 28.6533 103.679 27.9053C105.174 25.2524 107.003 24.4292 108.162 24.4292C108.834 24.4292 109.283 24.6902 109.283 25.0642C109.283 25.9978 107.64 27.5314 104.577 28.1287C104.09 29.1 103.904 29.8479 103.904 30.4076C103.904 31.4542 104.539 31.9035 105.4 31.9386H105.585C108.387 31.9386 113.467 28.7612 116.829 26.2589L117.015 26.1836C117.09 26.1836 117.165 26.2589 117.165 26.2965C117.165 26.3718 117.128 26.4471 117.015 26.5199C113.392 29.2857 108.162 32.5736 105.174 32.5736C104.762 32.5736 104.389 32.4983 104.052 32.3502V32.3528ZM108.872 25.3277C108.872 25.2524 108.834 25.1771 108.759 25.1043C108.683 25.0291 108.535 24.9538 108.347 24.9538C107.6 24.9538 106.145 25.664 104.873 27.569C106.629 27.4184 108.869 26.038 108.869 25.3277H108.872Z" fill="#8B9B68" stroke="#8B9B68" stroke-width="0.5" stroke-miterlimit="10"/>
</svg>
