<svg width="167" height="58" viewBox="0 0 167 58" fill="none" xmlns="http://www.w3.org/2000/svg">
<mask id="path-1-outside-1_67_1130" maskUnits="userSpaceOnUse" x="0" y="0" width="167" height="58" fill="black">
<rect fill="white" width="167" height="58"/>
<path d="M26.6887 48.08C22.7287 48.08 21.0727 45.524 21.0727 41.708C21.0727 33.176 29.1727 18.344 37.8487 10.892C28.7047 12.368 19.3447 14.096 11.0287 19.964C6.24069 23.348 2.24469 27.812 1.12869 33.752C1.09269 33.932 1.02069 34.004 0.948688 34.004C0.876688 34.004 0.804688 33.932 0.804688 33.788V33.68C4.76469 12.944 37.8127 10.568 38.7847 10.136C38.8567 10.1 50.3407 0.847998 57.2887 0.704H57.3967C59.3047 0.704 59.7727 1.676 59.9527 2.828L59.9887 3.152C59.9887 7.976 43.3567 9.992 40.0807 10.568C32.7367 16.04 21.9367 33.392 21.9367 42.14C21.9367 45.272 23.3407 47.288 26.7247 47.288C27.1927 47.288 27.7327 47.252 28.2727 47.18C35.5807 46.136 49.9447 33.968 55.8127 28.064C55.8847 27.992 55.9567 27.956 56.0287 27.956C56.1007 27.956 56.1727 28.028 56.1727 28.1C56.1727 28.136 56.1727 28.208 56.1007 28.28C51.2047 34.004 35.7247 46.892 28.2727 47.972C27.6967 48.044 27.1927 48.08 26.6887 48.08ZM40.9807 9.776C44.5447 9.164 59.4487 7.148 59.4487 3.152C59.4487 2.972 59.4127 2.792 59.3407 2.612C59.0527 1.676 58.2967 1.316 57.2167 1.316C52.6087 1.316 42.4927 8.588 40.9807 9.776ZM59.2442 36.38H59.1362C58.3082 36.38 57.9842 35.66 57.9842 34.652C57.9842 33.644 58.3082 32.312 58.8842 31.124C57.4802 32.168 56.4002 32.564 55.6442 32.564C54.6362 32.564 54.1682 31.88 54.1682 30.98C54.1682 29.504 55.4282 27.488 57.8042 26.84C58.0202 26.768 58.2722 26.768 58.4882 26.768C59.2802 26.768 59.9642 27.164 60.6482 28.136L61.1522 27.38C61.1882 27.308 61.2602 27.272 61.3682 27.272C61.6202 27.272 61.9442 27.56 61.9442 27.776L61.9082 27.884C61.2242 28.748 60.5402 29.9 59.8202 31.196C58.9562 32.744 58.6682 33.932 58.6682 34.688C58.6682 35.408 58.9202 35.804 59.2802 35.84H59.3522C61.7282 35.84 68.6762 28.82 71.9162 27.92L72.0602 27.884C72.1682 27.884 72.2402 27.956 72.2402 28.028C72.2402 28.064 72.1682 28.136 72.0962 28.208C67.8482 29.972 61.8722 36.308 59.2442 36.38ZM55.6082 32.096C56.5802 32.096 58.4522 31.016 60.2882 28.64C59.7482 27.704 59.1362 27.344 58.5242 27.344C57.5522 27.344 56.5802 28.244 55.8242 29.252C55.1042 30.188 54.8162 30.872 54.8162 31.376C54.8162 31.844 55.1042 32.096 55.6082 32.096ZM71.5675 35.516L71.1355 35.444C70.5595 35.264 70.3435 34.832 70.3435 34.292C70.3435 32.888 71.7475 30.656 72.0715 29.648C72.1435 29.396 72.2155 29.108 72.2155 28.892C72.2155 28.64 72.1435 28.46 71.9995 28.352C71.7475 28.208 71.6395 27.992 71.6395 27.74C71.6395 26.876 72.8275 25.544 73.7275 25.544L73.9075 25.58C74.0515 25.616 74.1235 25.688 74.1235 25.832C74.1235 26.372 73.0075 27.596 72.4675 27.92C72.7555 28.172 72.8635 28.532 72.8635 28.928C72.8635 30.584 70.8835 33.104 70.8835 34.256C70.8835 34.58 70.9915 34.76 71.3155 34.868C71.4235 34.904 71.5315 34.904 71.6755 34.904C74.1235 34.904 81.7555 29.396 83.7355 28.028C83.8435 27.956 83.9155 27.956 83.9875 27.956C84.0595 27.956 84.0955 27.956 84.0955 28.028C84.0955 28.064 84.0595 28.172 83.9155 28.244C81.7555 29.756 74.3395 35.516 71.5675 35.516ZM72.2875 27.596C72.8275 27.308 73.5835 26.264 73.5835 26.12C73.5835 26.084 73.5835 26.084 73.5475 26.084C73.1515 26.3 72.2875 27.308 72.2875 27.56V27.596ZM77.5111 45.776C77.4391 45.776 77.3671 45.704 77.2951 45.56C77.1151 45.092 77.0431 44.552 77.0431 43.976C77.0431 36.524 89.1031 19.388 92.3791 14.528C88.4911 13.772 83.9911 12.908 79.7791 12.908C76.5031 12.908 73.4071 13.412 70.9231 14.96L70.7431 15.032C70.6351 15.032 70.5991 14.96 70.5991 14.888C70.5991 14.816 70.6711 14.708 70.7791 14.636C73.4791 12.944 76.8631 12.368 80.4271 12.368C84.6031 12.368 88.9951 13.16 92.8111 13.844C94.1071 11.972 96.8791 8.156 98.3911 6.248C98.5351 6.104 98.7151 6.032 98.8951 6.032C99.1831 6.032 99.4711 6.212 99.4711 6.428C99.4711 6.5 99.4351 6.608 99.3631 6.68C97.6711 8.912 95.2231 12.332 94.0711 14.096C94.6831 14.168 95.2591 14.312 95.8351 14.384C99.1831 14.924 104.727 15.752 109.659 15.752C113.403 15.752 116.823 15.284 118.659 13.844C118.767 13.772 118.839 13.736 118.911 13.736C118.983 13.736 119.055 13.808 119.055 13.88C119.055 13.952 119.019 14.06 118.911 14.132C116.787 15.788 112.827 16.328 108.615 16.328C103.899 16.328 98.8231 15.644 95.6551 15.104C95.0071 14.996 94.3231 14.852 93.6031 14.744C90.1111 19.604 77.4391 37.712 77.4391 44.156C77.4391 44.624 77.5111 45.056 77.6551 45.38L77.6911 45.524C77.6911 45.668 77.6191 45.776 77.5111 45.776ZM95.5606 36.38H95.4526C94.6246 36.38 94.3006 35.66 94.3006 34.652C94.3006 33.644 94.6246 32.312 95.2006 31.124C93.7966 32.168 92.7166 32.564 91.9606 32.564C90.9526 32.564 90.4846 31.88 90.4846 30.98C90.4846 29.504 91.7446 27.488 94.1206 26.84C94.3366 26.768 94.5886 26.768 94.8046 26.768C95.5966 26.768 96.2806 27.164 96.9646 28.136L97.4686 27.38C97.5046 27.308 97.5766 27.272 97.6846 27.272C97.9366 27.272 98.2606 27.56 98.2606 27.776L98.2246 27.884C97.5406 28.748 96.8566 29.9 96.1366 31.196C95.2726 32.744 94.9846 33.932 94.9846 34.688C94.9846 35.408 95.2366 35.804 95.5966 35.84H95.6686C98.0446 35.84 104.993 28.82 108.233 27.92L108.377 27.884C108.485 27.884 108.557 27.956 108.557 28.028C108.557 28.064 108.485 28.136 108.413 28.208C104.165 29.972 98.1886 36.308 95.5606 36.38ZM91.9246 32.096C92.8966 32.096 94.7686 31.016 96.6046 28.64C96.0646 27.704 95.4526 27.344 94.8406 27.344C93.8686 27.344 92.8966 28.244 92.1406 29.252C91.4206 30.188 91.1326 30.872 91.1326 31.376C91.1326 31.844 91.4206 32.096 91.9246 32.096ZM93.4119 57.296C93.1959 57.296 93.0159 57.296 92.7999 57.224C91.8279 56.936 91.4319 56.324 91.4319 55.496C91.4319 52.4 97.0479 46.388 98.4519 44.984C104.932 38.576 110.872 34.508 111.448 34.076L114.328 29.252C112.996 30.548 109.576 32.816 107.668 32.816C107.272 32.816 106.912 32.672 106.66 32.42C106.372 32.096 106.264 31.7 106.264 31.304C106.264 30.008 107.416 28.496 108.424 27.74C109.576 26.912 110.836 26.444 112.06 26.444C113.248 26.444 114.328 26.876 115.156 27.848C115.444 27.452 115.66 27.02 115.84 26.876C115.876 26.84 115.948 26.804 116.02 26.804C116.236 26.804 116.524 26.912 116.524 27.092L116.488 27.164C115.408 29.108 114.04 31.448 112.888 33.356C114.868 32.096 118.18 30.26 122.068 27.956L122.176 27.92C122.248 27.92 122.32 27.992 122.32 28.064L122.248 28.208C118.36 30.656 116.056 31.7 112.312 34.292L110.296 37.64C108.604 40.592 98.8119 57.296 93.4119 57.296ZM93.5919 56.756C98.7039 56.756 108.136 39.62 110.8 35.12C107.272 37.64 102.592 41.492 98.8119 45.344C97.2279 46.964 91.9719 52.652 91.9719 55.352C91.9719 56 92.2599 56.468 93.0159 56.684C93.1959 56.72 93.3759 56.756 93.5919 56.756ZM108.028 32.24C109.756 32.24 113.5 29.576 114.904 28.244C114.112 27.308 113.248 26.948 112.42 26.948C111.196 26.948 110.008 27.704 108.928 28.604C108.28 29.144 107.092 30.44 107.092 31.412C107.092 31.628 107.164 31.808 107.308 31.988C107.488 32.168 107.704 32.24 108.028 32.24ZM122.17 34.076C121.774 34.076 121.414 34.004 121.09 33.86C120.334 33.536 120.046 32.816 120.046 31.988C120.046 31.16 120.334 30.296 120.73 29.576C122.17 27.02 123.934 26.228 125.05 26.228C125.698 26.228 126.13 26.48 126.13 26.84C126.13 27.74 124.546 29.216 121.594 29.792C121.126 30.728 120.946 31.448 120.946 31.988C120.946 32.996 121.558 33.428 122.386 33.464H122.566C125.266 33.464 130.162 30.404 133.402 27.992L133.582 27.92C133.654 27.92 133.726 27.992 133.726 28.028C133.726 28.1 133.69 28.172 133.582 28.244C130.09 30.908 125.05 34.076 122.17 34.076ZM121.882 29.252C123.574 29.108 125.734 27.776 125.734 27.092C125.734 27.02 125.698 26.948 125.626 26.876C125.554 26.804 125.41 26.732 125.23 26.732C124.51 26.732 123.106 27.416 121.882 29.252ZM129.96 35.012C129.816 35.012 129.672 34.868 129.672 34.688V34.58C129.996 33.716 130.248 32.888 131.004 31.628C132.228 29.54 133.524 27.56 133.74 27.308C133.848 27.2 133.92 27.164 134.028 27.164C134.244 27.164 134.496 27.38 134.496 27.56C134.496 27.596 134.46 27.668 134.424 27.704C132.984 29.648 131.364 32.024 130.284 34.184C131.256 33.068 135.36 28.568 137.052 28.568C137.196 28.568 137.304 28.568 137.412 28.64C137.52 28.712 137.664 28.748 137.664 29L137.628 29.252C137.52 29.756 137.448 30.368 137.448 30.98C137.448 32.564 137.916 34.148 139.248 34.184C141.876 34.184 147.132 29.144 149.328 27.92H149.436C149.508 27.92 149.58 27.956 149.58 28.028C149.58 28.064 149.544 28.1 149.472 28.136C146.952 29.828 141.804 34.688 139.104 34.688H139.032C136.764 34.616 136.44 32.06 136.44 30.26V29.432C133.992 30.836 131.292 33.788 130.14 34.94L129.96 35.012ZM152.584 36.38H152.476C151.648 36.38 151.324 35.66 151.324 34.652C151.324 33.644 151.648 32.312 152.224 31.124C150.82 32.168 149.74 32.564 148.984 32.564C147.976 32.564 147.508 31.88 147.508 30.98C147.508 29.504 148.768 27.488 151.144 26.84C151.36 26.768 151.612 26.768 151.828 26.768C152.62 26.768 153.304 27.164 153.988 28.136L154.492 27.38C154.528 27.308 154.6 27.272 154.708 27.272C154.96 27.272 155.284 27.56 155.284 27.776L155.248 27.884C154.564 28.748 153.88 29.9 153.16 31.196C152.296 32.744 152.008 33.932 152.008 34.688C152.008 35.408 152.26 35.804 152.62 35.84H152.692C155.068 35.84 162.016 28.82 165.256 27.92L165.4 27.884C165.508 27.884 165.58 27.956 165.58 28.028C165.58 28.064 165.508 28.136 165.436 28.208C161.188 29.972 155.212 36.308 152.584 36.38ZM148.948 32.096C149.92 32.096 151.792 31.016 153.628 28.64C153.088 27.704 152.476 27.344 151.864 27.344C150.892 27.344 149.92 28.244 149.164 29.252C148.444 30.188 148.156 30.872 148.156 31.376C148.156 31.844 148.444 32.096 148.948 32.096Z"/>
</mask>
<path d="M26.6887 48.08C22.7287 48.08 21.0727 45.524 21.0727 41.708C21.0727 33.176 29.1727 18.344 37.8487 10.892C28.7047 12.368 19.3447 14.096 11.0287 19.964C6.24069 23.348 2.24469 27.812 1.12869 33.752C1.09269 33.932 1.02069 34.004 0.948688 34.004C0.876688 34.004 0.804688 33.932 0.804688 33.788V33.68C4.76469 12.944 37.8127 10.568 38.7847 10.136C38.8567 10.1 50.3407 0.847998 57.2887 0.704H57.3967C59.3047 0.704 59.7727 1.676 59.9527 2.828L59.9887 3.152C59.9887 7.976 43.3567 9.992 40.0807 10.568C32.7367 16.04 21.9367 33.392 21.9367 42.14C21.9367 45.272 23.3407 47.288 26.7247 47.288C27.1927 47.288 27.7327 47.252 28.2727 47.18C35.5807 46.136 49.9447 33.968 55.8127 28.064C55.8847 27.992 55.9567 27.956 56.0287 27.956C56.1007 27.956 56.1727 28.028 56.1727 28.1C56.1727 28.136 56.1727 28.208 56.1007 28.28C51.2047 34.004 35.7247 46.892 28.2727 47.972C27.6967 48.044 27.1927 48.08 26.6887 48.08ZM40.9807 9.776C44.5447 9.164 59.4487 7.148 59.4487 3.152C59.4487 2.972 59.4127 2.792 59.3407 2.612C59.0527 1.676 58.2967 1.316 57.2167 1.316C52.6087 1.316 42.4927 8.588 40.9807 9.776ZM59.2442 36.38H59.1362C58.3082 36.38 57.9842 35.66 57.9842 34.652C57.9842 33.644 58.3082 32.312 58.8842 31.124C57.4802 32.168 56.4002 32.564 55.6442 32.564C54.6362 32.564 54.1682 31.88 54.1682 30.98C54.1682 29.504 55.4282 27.488 57.8042 26.84C58.0202 26.768 58.2722 26.768 58.4882 26.768C59.2802 26.768 59.9642 27.164 60.6482 28.136L61.1522 27.38C61.1882 27.308 61.2602 27.272 61.3682 27.272C61.6202 27.272 61.9442 27.56 61.9442 27.776L61.9082 27.884C61.2242 28.748 60.5402 29.9 59.8202 31.196C58.9562 32.744 58.6682 33.932 58.6682 34.688C58.6682 35.408 58.9202 35.804 59.2802 35.84H59.3522C61.7282 35.84 68.6762 28.82 71.9162 27.92L72.0602 27.884C72.1682 27.884 72.2402 27.956 72.2402 28.028C72.2402 28.064 72.1682 28.136 72.0962 28.208C67.8482 29.972 61.8722 36.308 59.2442 36.38ZM55.6082 32.096C56.5802 32.096 58.4522 31.016 60.2882 28.64C59.7482 27.704 59.1362 27.344 58.5242 27.344C57.5522 27.344 56.5802 28.244 55.8242 29.252C55.1042 30.188 54.8162 30.872 54.8162 31.376C54.8162 31.844 55.1042 32.096 55.6082 32.096ZM71.5675 35.516L71.1355 35.444C70.5595 35.264 70.3435 34.832 70.3435 34.292C70.3435 32.888 71.7475 30.656 72.0715 29.648C72.1435 29.396 72.2155 29.108 72.2155 28.892C72.2155 28.64 72.1435 28.46 71.9995 28.352C71.7475 28.208 71.6395 27.992 71.6395 27.74C71.6395 26.876 72.8275 25.544 73.7275 25.544L73.9075 25.58C74.0515 25.616 74.1235 25.688 74.1235 25.832C74.1235 26.372 73.0075 27.596 72.4675 27.92C72.7555 28.172 72.8635 28.532 72.8635 28.928C72.8635 30.584 70.8835 33.104 70.8835 34.256C70.8835 34.58 70.9915 34.76 71.3155 34.868C71.4235 34.904 71.5315 34.904 71.6755 34.904C74.1235 34.904 81.7555 29.396 83.7355 28.028C83.8435 27.956 83.9155 27.956 83.9875 27.956C84.0595 27.956 84.0955 27.956 84.0955 28.028C84.0955 28.064 84.0595 28.172 83.9155 28.244C81.7555 29.756 74.3395 35.516 71.5675 35.516ZM72.2875 27.596C72.8275 27.308 73.5835 26.264 73.5835 26.12C73.5835 26.084 73.5835 26.084 73.5475 26.084C73.1515 26.3 72.2875 27.308 72.2875 27.56V27.596ZM77.5111 45.776C77.4391 45.776 77.3671 45.704 77.2951 45.56C77.1151 45.092 77.0431 44.552 77.0431 43.976C77.0431 36.524 89.1031 19.388 92.3791 14.528C88.4911 13.772 83.9911 12.908 79.7791 12.908C76.5031 12.908 73.4071 13.412 70.9231 14.96L70.7431 15.032C70.6351 15.032 70.5991 14.96 70.5991 14.888C70.5991 14.816 70.6711 14.708 70.7791 14.636C73.4791 12.944 76.8631 12.368 80.4271 12.368C84.6031 12.368 88.9951 13.16 92.8111 13.844C94.1071 11.972 96.8791 8.156 98.3911 6.248C98.5351 6.104 98.7151 6.032 98.8951 6.032C99.1831 6.032 99.4711 6.212 99.4711 6.428C99.4711 6.5 99.4351 6.608 99.3631 6.68C97.6711 8.912 95.2231 12.332 94.0711 14.096C94.6831 14.168 95.2591 14.312 95.8351 14.384C99.1831 14.924 104.727 15.752 109.659 15.752C113.403 15.752 116.823 15.284 118.659 13.844C118.767 13.772 118.839 13.736 118.911 13.736C118.983 13.736 119.055 13.808 119.055 13.88C119.055 13.952 119.019 14.06 118.911 14.132C116.787 15.788 112.827 16.328 108.615 16.328C103.899 16.328 98.8231 15.644 95.6551 15.104C95.0071 14.996 94.3231 14.852 93.6031 14.744C90.1111 19.604 77.4391 37.712 77.4391 44.156C77.4391 44.624 77.5111 45.056 77.6551 45.38L77.6911 45.524C77.6911 45.668 77.6191 45.776 77.5111 45.776ZM95.5606 36.38H95.4526C94.6246 36.38 94.3006 35.66 94.3006 34.652C94.3006 33.644 94.6246 32.312 95.2006 31.124C93.7966 32.168 92.7166 32.564 91.9606 32.564C90.9526 32.564 90.4846 31.88 90.4846 30.98C90.4846 29.504 91.7446 27.488 94.1206 26.84C94.3366 26.768 94.5886 26.768 94.8046 26.768C95.5966 26.768 96.2806 27.164 96.9646 28.136L97.4686 27.38C97.5046 27.308 97.5766 27.272 97.6846 27.272C97.9366 27.272 98.2606 27.56 98.2606 27.776L98.2246 27.884C97.5406 28.748 96.8566 29.9 96.1366 31.196C95.2726 32.744 94.9846 33.932 94.9846 34.688C94.9846 35.408 95.2366 35.804 95.5966 35.84H95.6686C98.0446 35.84 104.993 28.82 108.233 27.92L108.377 27.884C108.485 27.884 108.557 27.956 108.557 28.028C108.557 28.064 108.485 28.136 108.413 28.208C104.165 29.972 98.1886 36.308 95.5606 36.38ZM91.9246 32.096C92.8966 32.096 94.7686 31.016 96.6046 28.64C96.0646 27.704 95.4526 27.344 94.8406 27.344C93.8686 27.344 92.8966 28.244 92.1406 29.252C91.4206 30.188 91.1326 30.872 91.1326 31.376C91.1326 31.844 91.4206 32.096 91.9246 32.096ZM93.4119 57.296C93.1959 57.296 93.0159 57.296 92.7999 57.224C91.8279 56.936 91.4319 56.324 91.4319 55.496C91.4319 52.4 97.0479 46.388 98.4519 44.984C104.932 38.576 110.872 34.508 111.448 34.076L114.328 29.252C112.996 30.548 109.576 32.816 107.668 32.816C107.272 32.816 106.912 32.672 106.66 32.42C106.372 32.096 106.264 31.7 106.264 31.304C106.264 30.008 107.416 28.496 108.424 27.74C109.576 26.912 110.836 26.444 112.06 26.444C113.248 26.444 114.328 26.876 115.156 27.848C115.444 27.452 115.66 27.02 115.84 26.876C115.876 26.84 115.948 26.804 116.02 26.804C116.236 26.804 116.524 26.912 116.524 27.092L116.488 27.164C115.408 29.108 114.04 31.448 112.888 33.356C114.868 32.096 118.18 30.26 122.068 27.956L122.176 27.92C122.248 27.92 122.32 27.992 122.32 28.064L122.248 28.208C118.36 30.656 116.056 31.7 112.312 34.292L110.296 37.64C108.604 40.592 98.8119 57.296 93.4119 57.296ZM93.5919 56.756C98.7039 56.756 108.136 39.62 110.8 35.12C107.272 37.64 102.592 41.492 98.8119 45.344C97.2279 46.964 91.9719 52.652 91.9719 55.352C91.9719 56 92.2599 56.468 93.0159 56.684C93.1959 56.72 93.3759 56.756 93.5919 56.756ZM108.028 32.24C109.756 32.24 113.5 29.576 114.904 28.244C114.112 27.308 113.248 26.948 112.42 26.948C111.196 26.948 110.008 27.704 108.928 28.604C108.28 29.144 107.092 30.44 107.092 31.412C107.092 31.628 107.164 31.808 107.308 31.988C107.488 32.168 107.704 32.24 108.028 32.24ZM122.17 34.076C121.774 34.076 121.414 34.004 121.09 33.86C120.334 33.536 120.046 32.816 120.046 31.988C120.046 31.16 120.334 30.296 120.73 29.576C122.17 27.02 123.934 26.228 125.05 26.228C125.698 26.228 126.13 26.48 126.13 26.84C126.13 27.74 124.546 29.216 121.594 29.792C121.126 30.728 120.946 31.448 120.946 31.988C120.946 32.996 121.558 33.428 122.386 33.464H122.566C125.266 33.464 130.162 30.404 133.402 27.992L133.582 27.92C133.654 27.92 133.726 27.992 133.726 28.028C133.726 28.1 133.69 28.172 133.582 28.244C130.09 30.908 125.05 34.076 122.17 34.076ZM121.882 29.252C123.574 29.108 125.734 27.776 125.734 27.092C125.734 27.02 125.698 26.948 125.626 26.876C125.554 26.804 125.41 26.732 125.23 26.732C124.51 26.732 123.106 27.416 121.882 29.252ZM129.96 35.012C129.816 35.012 129.672 34.868 129.672 34.688V34.58C129.996 33.716 130.248 32.888 131.004 31.628C132.228 29.54 133.524 27.56 133.74 27.308C133.848 27.2 133.92 27.164 134.028 27.164C134.244 27.164 134.496 27.38 134.496 27.56C134.496 27.596 134.46 27.668 134.424 27.704C132.984 29.648 131.364 32.024 130.284 34.184C131.256 33.068 135.36 28.568 137.052 28.568C137.196 28.568 137.304 28.568 137.412 28.64C137.52 28.712 137.664 28.748 137.664 29L137.628 29.252C137.52 29.756 137.448 30.368 137.448 30.98C137.448 32.564 137.916 34.148 139.248 34.184C141.876 34.184 147.132 29.144 149.328 27.92H149.436C149.508 27.92 149.58 27.956 149.58 28.028C149.58 28.064 149.544 28.1 149.472 28.136C146.952 29.828 141.804 34.688 139.104 34.688H139.032C136.764 34.616 136.44 32.06 136.44 30.26V29.432C133.992 30.836 131.292 33.788 130.14 34.94L129.96 35.012ZM152.584 36.38H152.476C151.648 36.38 151.324 35.66 151.324 34.652C151.324 33.644 151.648 32.312 152.224 31.124C150.82 32.168 149.74 32.564 148.984 32.564C147.976 32.564 147.508 31.88 147.508 30.98C147.508 29.504 148.768 27.488 151.144 26.84C151.36 26.768 151.612 26.768 151.828 26.768C152.62 26.768 153.304 27.164 153.988 28.136L154.492 27.38C154.528 27.308 154.6 27.272 154.708 27.272C154.96 27.272 155.284 27.56 155.284 27.776L155.248 27.884C154.564 28.748 153.88 29.9 153.16 31.196C152.296 32.744 152.008 33.932 152.008 34.688C152.008 35.408 152.26 35.804 152.62 35.84H152.692C155.068 35.84 162.016 28.82 165.256 27.92L165.4 27.884C165.508 27.884 165.58 27.956 165.58 28.028C165.58 28.064 165.508 28.136 165.436 28.208C161.188 29.972 155.212 36.308 152.584 36.38ZM148.948 32.096C149.92 32.096 151.792 31.016 153.628 28.64C153.088 27.704 152.476 27.344 151.864 27.344C150.892 27.344 149.92 28.244 149.164 29.252C148.444 30.188 148.156 30.872 148.156 31.376C148.156 31.844 148.444 32.096 148.948 32.096Z" fill="#8B9B68"/>
<path d="M37.8487 10.892L38.1745 11.2713L39.5198 10.1158L37.769 10.3984L37.8487 10.892ZM11.0287 19.964L10.7404 19.5555L10.7401 19.5557L11.0287 19.964ZM1.12869 33.752L1.61901 33.8501L1.62009 33.8443L1.12869 33.752ZM0.804688 33.68L0.313563 33.5862L0.304688 33.6327V33.68H0.804688ZM38.7847 10.136L38.9878 10.5929L38.9981 10.5883L39.0083 10.5832L38.7847 10.136ZM57.2887 0.704V0.203892L57.2783 0.204107L57.2887 0.704ZM59.9527 2.828L60.4496 2.77279L60.4484 2.76177L60.4467 2.75081L59.9527 2.828ZM59.9887 3.152H60.4887V3.12431L60.4856 3.09679L59.9887 3.152ZM40.0807 10.568L39.9941 10.0756L39.8772 10.0961L39.7819 10.1671L40.0807 10.568ZM28.2727 47.18L28.3388 47.6756L28.3434 47.675L28.2727 47.18ZM55.8127 28.064L55.4591 27.7104L55.4581 27.7115L55.8127 28.064ZM56.1007 28.28L55.7471 27.9264L55.7334 27.9402L55.7207 27.955L56.1007 28.28ZM28.2727 47.972L28.3347 48.4682L28.3444 48.4668L28.2727 47.972ZM40.9807 9.776L40.6718 9.38284L41.0653 10.2688L40.9807 9.776ZM59.3407 2.612L58.8628 2.75904L58.8688 2.77865L58.8765 2.79769L59.3407 2.612ZM26.6887 48.08V47.58C24.8236 47.58 23.5771 46.9837 22.7834 46.0092C21.9748 45.0166 21.5727 43.5545 21.5727 41.708H21.0727H20.5727C20.5727 43.6775 20.9985 45.4014 22.008 46.6408C23.0323 47.8983 24.5938 48.58 26.6887 48.58V48.08ZM21.0727 41.708H21.5727C21.5727 37.567 23.5506 31.8148 26.6462 26.1343C29.7351 20.4661 33.894 14.9479 38.1745 11.2713L37.8487 10.892L37.5229 10.5127C33.1274 14.2881 28.8983 19.9119 25.7681 25.6557C22.6448 31.3872 20.5727 37.317 20.5727 41.708H21.0727ZM37.8487 10.892L37.769 10.3984C28.6292 11.8737 19.1614 13.6134 10.7404 19.5555L11.0287 19.964L11.317 20.3725C19.528 14.5786 28.7801 12.8623 37.9284 11.3856L37.8487 10.892ZM11.0287 19.964L10.7401 19.5557C5.89766 22.9782 1.78685 27.541 0.637285 33.6597L1.12869 33.752L1.62009 33.8443C2.70253 28.083 6.58372 23.7178 11.3173 20.3723L11.0287 19.964ZM1.12869 33.752L0.638397 33.6539C0.62889 33.7015 0.624006 33.6816 0.657511 33.6385C0.676137 33.6146 0.709398 33.5802 0.761709 33.5515C0.815884 33.5218 0.880309 33.504 0.948688 33.504V34.004V34.504C1.17199 34.504 1.34293 34.3861 1.44686 34.2525C1.54337 34.1284 1.59248 33.9825 1.61898 33.8501L1.12869 33.752ZM0.948688 34.004V33.504C1.08916 33.504 1.19433 33.5762 1.24969 33.65C1.30269 33.7207 1.30469 33.78 1.30469 33.788H0.804688H0.304688C0.304688 34.0653 0.476688 34.504 0.948688 34.504V34.004ZM0.804688 33.788H1.30469V33.68H0.804688H0.304688V33.788H0.804688ZM0.804688 33.68L1.29581 33.7738C3.2234 23.6803 12.2448 17.9903 21.0866 14.7637C25.4906 13.1566 29.807 12.1773 33.0877 11.5727C34.7273 11.2706 36.1065 11.0624 37.1084 10.9159C37.6071 10.843 38.019 10.7845 38.3185 10.7378C38.4683 10.7145 38.5965 10.6931 38.6973 10.6734C38.7781 10.6576 38.8968 10.6333 38.9878 10.5929L38.7847 10.136L38.5816 9.67909C38.6118 9.66567 38.6071 9.67216 38.5056 9.69196C38.4241 9.70788 38.3111 9.7269 38.1645 9.74975C37.8712 9.79546 37.4695 9.85253 36.9638 9.92644C35.9569 10.0736 34.5638 10.2839 32.9065 10.5893C29.5936 11.1997 25.2183 12.1914 20.7438 13.8243C11.8286 17.0777 2.34598 22.9437 0.313563 33.5862L0.804688 33.68ZM38.7847 10.136L39.0083 10.5832C39.0398 10.5674 39.0637 10.551 39.0642 10.5506C39.0712 10.546 39.0768 10.542 39.0799 10.5397C39.0864 10.5351 39.0926 10.5305 39.097 10.5272C39.1062 10.5202 39.1176 10.5115 39.1299 10.502C39.1548 10.4827 39.1905 10.455 39.2349 10.4205C39.3244 10.3509 39.4539 10.2504 39.6199 10.1229C39.952 9.86806 40.4305 9.50549 41.0245 9.07082C42.2131 8.20109 43.8618 7.04422 45.7226 5.88487C47.5847 4.72466 49.6508 3.56725 51.6748 2.6924C53.7066 1.81413 55.6573 1.23792 57.2991 1.20389L57.2887 0.704L57.2783 0.204107C55.4461 0.24208 53.3558 0.87637 51.278 1.77448C49.1923 2.676 47.0801 3.86083 45.1938 5.03613C43.3061 6.21228 41.6361 7.38416 40.434 8.26381C39.8327 8.70382 39.3479 9.07109 39.0111 9.32964C38.8426 9.45892 38.7112 9.56096 38.6212 9.63096C38.5758 9.66626 38.542 9.69249 38.5189 9.71038C38.5071 9.71946 38.4998 9.72505 38.4958 9.72807C38.4935 9.72978 38.4944 9.72909 38.497 9.72721C38.4981 9.72639 38.5022 9.72348 38.5079 9.71966C38.5108 9.71777 38.5182 9.71295 38.5226 9.71022C38.5294 9.70609 38.5487 9.6952 38.5611 9.68878L38.7847 10.136ZM57.2887 0.704V1.204H57.3967V0.704V0.204H57.2887V0.704ZM57.3967 0.704V1.204C58.2667 1.204 58.7114 1.42375 58.965 1.68337C59.2321 1.95682 59.3734 2.35965 59.4587 2.90519L59.9527 2.828L60.4467 2.75081C60.3519 2.14435 60.1693 1.48517 59.6804 0.984628C59.178 0.470248 58.4346 0.204 57.3967 0.204V0.704ZM59.9527 2.828L59.4557 2.88321L59.4917 3.20721L59.9887 3.152L60.4856 3.09679L60.4496 2.77279L59.9527 2.828ZM59.9887 3.152H59.4887C59.4887 3.59961 59.2987 4.04533 58.8942 4.49954C58.4858 4.9582 57.8778 5.40229 57.0998 5.82569C55.5437 6.67245 53.4096 7.38256 51.1382 7.96887C46.5959 9.14136 41.6643 9.7819 39.9941 10.0756L40.0807 10.568L40.1673 11.0604C41.7731 10.7781 46.7955 10.1226 51.3882 8.93713C53.6843 8.34444 55.9129 7.61004 57.5777 6.70406C58.4101 6.25108 59.1271 5.74173 59.6411 5.16455C60.159 4.58292 60.4887 3.91038 60.4887 3.152H59.9887ZM40.0807 10.568L39.7819 10.1671C36.0317 12.9613 31.4553 18.7335 27.8244 24.8709C26.0044 27.9471 24.4114 31.1327 23.272 34.1069C22.1358 37.0729 21.4367 39.864 21.4367 42.14H21.9367H22.4367C22.4367 40.042 23.0876 37.3836 24.2058 34.4647C25.3209 31.554 26.8869 28.4194 28.685 25.3801C32.2901 19.2865 36.7857 13.6467 40.3794 10.9689L40.0807 10.568ZM21.9367 42.14H21.4367C21.4367 43.7706 21.8009 45.1945 22.6834 46.2155C23.5775 47.2499 24.9308 47.788 26.7247 47.788V47.288V46.788C25.1346 46.788 24.0939 46.3181 23.44 45.5615C22.7744 44.7915 22.4367 43.6414 22.4367 42.14H21.9367ZM26.7247 47.288V47.788C27.2165 47.788 27.7786 47.7503 28.3388 47.6756L28.2727 47.18L28.2066 46.6844C27.6868 46.7537 27.1689 46.788 26.7247 46.788V47.288ZM28.2727 47.18L28.3434 47.675C30.2635 47.4007 32.5967 46.4076 35.0778 45.0193C37.5694 43.6252 40.2525 41.8081 42.8818 39.8452C48.1399 35.9197 53.2164 31.3855 56.1673 28.4165L55.8127 28.064L55.4581 27.7115C52.541 30.6465 47.5015 35.1483 42.2836 39.0438C39.6749 40.9914 37.03 42.7811 34.5895 44.1466C32.1387 45.5179 29.9358 46.4373 28.202 46.685L28.2727 47.18ZM55.8127 28.064L56.1662 28.4175C56.1837 28.4 56.1361 28.456 56.0287 28.456V27.956V27.456C55.7773 27.456 55.5856 27.5839 55.4591 27.7104L55.8127 28.064ZM56.0287 27.956V28.456C55.9021 28.456 55.8173 28.3977 55.7741 28.3546C55.731 28.3114 55.6727 28.2266 55.6727 28.1H56.1727H56.6727C56.6727 27.9014 56.5784 27.7446 56.4812 27.6474C56.3841 27.5503 56.2273 27.456 56.0287 27.456V27.956ZM56.1727 28.1H55.6727C55.6727 28.1134 55.6713 28.0799 55.6829 28.0391C55.6962 27.9928 55.7203 27.9533 55.7471 27.9264L56.1007 28.28L56.4542 28.6336C56.6702 28.4176 56.6727 28.1749 56.6727 28.1H56.1727ZM56.1007 28.28L55.7207 27.955C53.3048 30.7795 48.2416 35.4079 42.8446 39.4679C40.149 41.4958 37.3814 43.3733 34.8309 44.8087C32.2688 46.2506 29.9698 47.2208 28.201 47.4772L28.2727 47.972L28.3444 48.4668C30.3015 48.1832 32.732 47.1374 35.3214 45.6802C37.9222 44.2164 40.7279 42.3117 43.4458 40.2671C48.8758 36.1821 54.0006 31.5045 56.4807 28.605L56.1007 28.28ZM28.2727 47.972L28.2107 47.4759C27.6506 47.5459 27.1677 47.58 26.6887 47.58V48.08V48.58C27.2176 48.58 27.7428 48.5421 28.3347 48.4681L28.2727 47.972ZM40.9807 9.776L41.0653 10.2688C42.8274 9.96621 47.4784 9.30393 51.6765 8.21704C53.7734 7.67414 55.7919 7.01707 57.2961 6.22973C58.0476 5.83638 58.6972 5.39707 59.1648 4.90217C59.635 4.40445 59.9487 3.81918 59.9487 3.152H59.4487H58.9487C58.9487 3.48382 58.7966 3.83567 58.4379 4.21545C58.0764 4.59805 57.5338 4.97661 56.8324 5.34376C55.4307 6.07743 53.5004 6.71185 51.4259 7.24896C47.281 8.32207 42.698 8.97379 40.8961 9.28321L40.9807 9.776ZM59.4487 3.152H59.9487C59.9487 2.90363 59.8987 2.66078 59.8049 2.42631L59.3407 2.612L58.8765 2.79769C58.9267 2.92322 58.9487 3.04037 58.9487 3.152H59.4487ZM59.3407 2.612L59.8186 2.46496C59.6404 1.88582 59.3032 1.45458 58.8249 1.17954C58.3614 0.913036 57.8055 0.815998 57.2167 0.815998V1.316V1.816C57.7079 1.816 58.0699 1.89896 58.3265 2.04645C58.5681 2.18542 58.753 2.40218 58.8628 2.75904L59.3407 2.612ZM57.2167 1.316V0.815998C55.9577 0.815998 54.383 1.30592 52.75 2.01186C51.1026 2.72405 49.3383 3.68202 47.6814 4.67118C44.3686 6.64888 41.4441 8.77602 40.6718 9.38284L40.9807 9.776L41.2896 10.1692C42.0293 9.58798 44.9187 7.48512 48.194 5.52981C49.8311 4.55247 51.5543 3.6182 53.1468 2.92976C54.7538 2.23507 56.1717 1.816 57.2167 1.816V1.316ZM59.2442 36.38V36.8802L59.2579 36.8798L59.2442 36.38ZM58.8842 31.124L59.3341 31.3421L58.5859 30.7228L58.8842 31.124ZM57.8042 26.84L57.9358 27.3224L57.9492 27.3187L57.9623 27.3143L57.8042 26.84ZM60.6482 28.136L60.2393 28.4237L60.6594 29.0207L61.0642 28.4133L60.6482 28.136ZM61.1522 27.38L61.5682 27.6573L61.5855 27.6314L61.5994 27.6036L61.1522 27.38ZM61.9442 27.776L62.4186 27.9341L62.4442 27.8571V27.776H61.9442ZM61.9082 27.884L62.3002 28.1944L62.3548 28.1255L62.3826 28.0421L61.9082 27.884ZM59.8202 31.196L60.2568 31.4397L60.2573 31.4388L59.8202 31.196ZM59.2802 35.84L59.2305 36.3375L59.2553 36.34H59.2802V35.84ZM71.9162 27.92L71.7949 27.4348L71.7824 27.4382L71.9162 27.92ZM72.0602 27.884V27.384H71.9987L71.939 27.3989L72.0602 27.884ZM72.0962 28.208L72.288 28.6698L72.3796 28.6317L72.4498 28.5616L72.0962 28.208ZM60.2882 28.64L60.6839 28.9457L60.8888 28.6805L60.7213 28.3901L60.2882 28.64ZM55.8242 29.252L56.2206 29.5569L56.2242 29.552L55.8242 29.252ZM59.2442 36.38V35.88H59.1362V36.38V36.88H59.2442V36.38ZM59.1362 36.38V35.88C58.8988 35.88 58.7726 35.7929 58.6779 35.6358C58.5615 35.4427 58.4842 35.1171 58.4842 34.652H57.9842H57.4842C57.4842 35.1949 57.569 35.7333 57.8215 36.1522C58.0958 36.6071 58.5456 36.88 59.1362 36.88V36.38ZM57.9842 34.652H58.4842C58.4842 33.7333 58.7845 32.4757 59.3341 31.3421L58.8842 31.124L58.4343 30.9059C57.8319 32.1483 57.4842 33.5547 57.4842 34.652H57.9842ZM58.8842 31.124L58.5859 30.7228C57.2161 31.7413 56.2423 32.064 55.6442 32.064V32.564V33.064C56.5582 33.064 57.7443 32.5947 59.1826 31.5252L58.8842 31.124ZM55.6442 32.564V32.064C55.2616 32.064 55.0409 31.9394 54.9078 31.7841C54.7646 31.617 54.6682 31.3496 54.6682 30.98H54.1682H53.6682C53.6682 31.5104 53.8059 32.035 54.1486 32.4349C54.5015 32.8466 55.0189 33.064 55.6442 33.064V32.564ZM54.1682 30.98H54.6682C54.6682 29.7457 55.7612 27.9154 57.9358 27.3224L57.8042 26.84L57.6727 26.3576C55.0952 27.0606 53.6682 29.2623 53.6682 30.98H54.1682ZM57.8042 26.84L57.9623 27.3143C58.0875 27.2726 58.2545 27.268 58.4882 27.268V26.768V26.268C58.2899 26.268 57.953 26.2634 57.6461 26.3657L57.8042 26.84ZM58.4882 26.768V27.268C59.0644 27.268 59.6135 27.5345 60.2393 28.4237L60.6482 28.136L61.0571 27.8483C60.3149 26.7935 59.496 26.268 58.4882 26.268V26.768ZM60.6482 28.136L61.0642 28.4133L61.5682 27.6573L61.1522 27.38L60.7362 27.1026L60.2322 27.8586L60.6482 28.136ZM61.1522 27.38L61.5994 27.6036C61.5691 27.6644 61.5176 27.7158 61.4568 27.7462C61.43 27.7596 61.4071 27.766 61.392 27.769C61.3772 27.772 61.3685 27.772 61.3682 27.772V27.272V26.772C61.1463 26.772 60.8549 26.8566 60.705 27.1564L61.1522 27.38ZM61.3682 27.272V27.772C61.3526 27.772 61.3439 27.7698 61.3433 27.7697C61.3426 27.7695 61.3466 27.7705 61.355 27.7744C61.3729 27.7826 61.3969 27.7977 61.4204 27.8184C61.4444 27.8395 61.457 27.8569 61.4605 27.8628C61.4619 27.8651 61.4587 27.8603 61.4547 27.848C61.4507 27.8358 61.4442 27.811 61.4442 27.776H61.9442H62.4442C62.4442 27.6018 62.3813 27.4541 62.3188 27.3495C62.2537 27.2406 62.1695 27.1455 62.081 27.0676C61.9191 26.9252 61.6619 26.772 61.3682 26.772V27.272ZM61.9442 27.776L61.4699 27.6179L61.4339 27.7259L61.9082 27.884L62.3826 28.0421L62.4186 27.9341L61.9442 27.776ZM61.9082 27.884L61.5162 27.5736C60.8045 28.4726 60.1036 29.6564 59.3831 30.9532L59.8202 31.196L60.2573 31.4388C60.9769 30.1436 61.6439 29.0234 62.3002 28.1944L61.9082 27.884ZM59.8202 31.196L59.3836 30.9523C58.494 32.5461 58.1682 33.819 58.1682 34.688H58.6682H59.1682C59.1682 34.045 59.4184 32.9419 60.2568 31.4397L59.8202 31.196ZM58.6682 34.688H58.1682C58.1682 35.098 58.2387 35.4705 58.4026 35.7642C58.5739 36.071 58.8568 36.3002 59.2305 36.3375L59.2802 35.84L59.33 35.3425C59.3279 35.3423 59.3281 35.3427 59.3248 35.3402C59.3195 35.3364 59.3003 35.3207 59.2758 35.2768C59.2238 35.1835 59.1682 34.998 59.1682 34.688H58.6682ZM59.2802 35.84V36.34H59.3522V35.84V35.34H59.2802V35.84ZM59.3522 35.84V36.34C59.7571 36.34 60.204 36.1949 60.6493 35.9913C61.1043 35.7833 61.6062 35.4911 62.1342 35.1485C63.1896 34.4638 64.3979 33.5458 65.6142 32.6145C66.838 31.6775 68.0723 30.7251 69.2031 29.9495C70.347 29.165 71.3282 28.6023 72.05 28.4018L71.9162 27.92L71.7824 27.4382C70.8842 27.6877 69.7819 28.34 68.6375 29.1248C67.4801 29.9187 66.2215 30.89 65.0062 31.8205C63.7836 32.7567 62.6068 33.6499 61.59 34.3096C61.0819 34.6392 60.6258 34.9025 60.2335 35.0819C59.8313 35.2657 59.5413 35.34 59.3522 35.34V35.84ZM71.9162 27.92L72.0375 28.4051L72.1815 28.3691L72.0602 27.884L71.939 27.3989L71.795 27.4349L71.9162 27.92ZM72.0602 27.884V28.384C71.9672 28.384 71.7402 28.3017 71.7402 28.028H72.2402H72.7402C72.7402 27.6103 72.3693 27.384 72.0602 27.384V27.884ZM72.2402 28.028H71.7402C71.7402 27.9524 71.7583 27.8952 71.7696 27.8656C71.7815 27.8341 71.7942 27.8119 71.8007 27.8012C71.8131 27.7809 71.8215 27.7722 71.8156 27.7791C71.8114 27.784 71.8035 27.7927 71.7898 27.8069C71.7763 27.8208 71.7613 27.8359 71.7427 27.8544L72.0962 28.208L72.4498 28.5616C72.4815 28.5298 72.5327 28.4791 72.5748 28.4299C72.5959 28.4053 72.6268 28.3674 72.6549 28.3212C72.6732 28.2912 72.7402 28.1807 72.7402 28.028H72.2402ZM72.0962 28.208L71.9045 27.7462C69.7035 28.6602 67.0834 30.7402 64.7575 32.5324C63.5784 33.4411 62.4698 34.281 61.4959 34.8986C61.0097 35.2068 60.5683 35.4524 60.1778 35.6218C59.7826 35.7932 59.4688 35.8737 59.2305 35.8802L59.2442 36.38L59.2579 36.8798C59.6767 36.8683 60.1244 36.735 60.5757 36.5392C61.0316 36.3415 61.5214 36.0665 62.0314 35.7431C63.0499 35.0972 64.1936 34.2294 65.3679 33.3246C67.749 31.4898 70.2409 29.5198 72.288 28.6698L72.0962 28.208ZM55.6082 32.096V32.596C56.246 32.596 57.06 32.2577 57.9088 31.6701C58.7759 31.0698 59.7391 30.1683 60.6839 28.9457L60.2882 28.64L59.8926 28.3343C59.0013 29.4877 58.1106 30.3142 57.3396 30.8479C56.5504 31.3943 55.9424 31.596 55.6082 31.596V32.096ZM60.2882 28.64L60.7213 28.3901C60.1271 27.3601 59.3754 26.844 58.5242 26.844V27.344V27.844C58.897 27.844 59.3694 28.0479 59.8551 28.8899L60.2882 28.64ZM58.5242 27.344V26.844C57.8847 26.844 57.293 27.1378 56.7895 27.5228C56.2815 27.9113 55.8182 28.4267 55.4242 28.952L55.8242 29.252L56.2242 29.552C56.5863 29.0693 56.987 28.6307 57.3969 28.3172C57.8115 28.0002 58.1918 27.844 58.5242 27.844V27.344ZM55.8242 29.252L55.4279 28.9471C54.6924 29.9033 54.3162 30.6995 54.3162 31.376H54.8162H55.3162C55.3162 31.0445 55.5161 30.4727 56.2205 29.5569L55.8242 29.252ZM54.8162 31.376H54.3162C54.3162 31.7155 54.4241 32.045 54.6887 32.2831C54.945 32.5138 55.2791 32.596 55.6082 32.596V32.096V31.596C55.4334 31.596 55.3714 31.5522 55.3577 31.5399C55.3523 31.535 55.3162 31.5045 55.3162 31.376H54.8162ZM71.5675 35.516L71.4853 36.0092L71.5261 36.016H71.5675V35.516ZM71.1355 35.444L70.9863 35.9212L71.0192 35.9315L71.0533 35.9372L71.1355 35.444ZM72.0715 29.648L72.5475 29.801L72.55 29.7932L72.5522 29.7854L72.0715 29.648ZM71.9995 28.352L72.2995 27.952L72.2746 27.9333L72.2475 27.9179L71.9995 28.352ZM73.7275 25.544L73.8255 25.0537L73.777 25.044H73.7275V25.544ZM73.9075 25.58L74.0287 25.0949L74.0172 25.092L74.0055 25.0897L73.9075 25.58ZM72.4675 27.92L72.2102 27.4913L71.6217 27.8444L72.1382 28.2963L72.4675 27.92ZM71.3155 34.868L71.4736 34.3937L71.4736 34.3937L71.3155 34.868ZM83.7355 28.028L83.4581 27.6119L83.4513 27.6166L83.7355 28.028ZM83.9155 28.244L83.6919 27.7968L83.6589 27.8133L83.6287 27.8344L83.9155 28.244ZM72.2875 27.596H71.7875V28.4293L72.5228 28.0372L72.2875 27.596ZM73.5475 26.084V25.584H73.42L73.308 25.6451L73.5475 26.084ZM71.5675 35.516L71.6497 35.0228L71.2177 34.9508L71.1355 35.444L71.0533 35.9372L71.4853 36.0092L71.5675 35.516ZM71.1355 35.444L71.2846 34.9668C71.0949 34.9075 71.0002 34.8209 70.9453 34.7346C70.8851 34.64 70.8435 34.4988 70.8435 34.292H70.3435H69.8435C69.8435 34.6252 69.9098 34.97 70.1016 35.2714C70.2987 35.5811 70.6001 35.8005 70.9863 35.9212L71.1355 35.444ZM70.3435 34.292H70.8435C70.8435 33.7136 71.1447 32.8988 71.541 32.0288C71.7347 31.6035 71.9348 31.1982 72.1164 30.816C72.2919 30.4466 72.4548 30.0893 72.5475 29.801L72.0715 29.648L71.5955 29.495C71.5261 29.7107 71.392 30.0104 71.2132 30.3869C71.0404 30.7505 70.8287 31.18 70.6309 31.6142C70.2442 32.4632 69.8435 33.4664 69.8435 34.292H70.3435ZM72.0715 29.648L72.5522 29.7854C72.6222 29.5404 72.7155 29.188 72.7155 28.892H72.2155H71.7155C71.7155 29.028 71.6647 29.2516 71.5907 29.5106L72.0715 29.648ZM72.2155 28.892H72.7155C72.7155 28.5497 72.6148 28.1885 72.2995 27.952L71.9995 28.352L71.6995 28.752C71.6925 28.7467 71.6926 28.742 71.6972 28.7537C71.7037 28.7698 71.7155 28.8115 71.7155 28.892H72.2155ZM71.9995 28.352L72.2475 27.9179C72.1906 27.8853 72.1695 27.8569 72.1603 27.8405C72.1504 27.8231 72.1395 27.7934 72.1395 27.74H71.6395H71.1395C71.1395 28.1626 71.3361 28.5488 71.7514 28.7861L71.9995 28.352ZM71.6395 27.74H72.1395C72.1395 27.6305 72.18 27.465 72.2847 27.2592C72.3868 27.0588 72.5353 26.8489 72.7124 26.6582C72.8897 26.4673 73.0848 26.3072 73.2729 26.1978C73.4653 26.0859 73.6207 26.044 73.7275 26.044V25.544V25.044C73.3843 25.044 73.0536 25.1686 72.7702 25.3334C72.4824 25.5008 72.2118 25.7277 71.9796 25.9778C71.7471 26.2281 71.5424 26.5131 71.3936 26.8055C71.2475 27.0925 71.1395 27.4175 71.1395 27.74H71.6395ZM73.7275 25.544L73.6294 26.0343L73.8094 26.0703L73.9075 25.58L74.0055 25.0897L73.8255 25.0537L73.7275 25.544ZM73.9075 25.58L73.7862 26.0651C73.8087 26.0707 73.7533 26.0624 73.6958 25.9977C73.6292 25.9228 73.6235 25.8463 73.6235 25.832H74.1235H74.6235C74.6235 25.6737 74.5817 25.4892 74.4432 25.3333C74.3136 25.1876 74.1503 25.1253 74.0287 25.0949L73.9075 25.58ZM74.1235 25.832H73.6235C73.6235 25.8272 73.6134 25.9074 73.5077 26.0904C73.4136 26.2534 73.2761 26.443 73.1145 26.6361C72.782 27.0334 72.4101 27.3713 72.2102 27.4913L72.4675 27.92L72.7247 28.3487C73.0648 28.1447 73.5209 27.7086 73.8814 27.2779C74.0663 27.057 74.2416 26.8191 74.3736 26.5906C74.494 26.3821 74.6235 26.1068 74.6235 25.832H74.1235ZM72.4675 27.92L72.1382 28.2963C72.2808 28.421 72.3635 28.6185 72.3635 28.928H72.8635H73.3635C73.3635 28.4455 73.2302 27.923 72.7967 27.5437L72.4675 27.92ZM72.8635 28.928H72.3635C72.3635 29.2521 72.2644 29.6533 72.0869 30.1191C71.9113 30.5798 71.6743 31.0658 71.4271 31.5558C71.1847 32.036 70.9276 32.5294 70.7348 32.9699C70.5484 33.3959 70.3835 33.854 70.3835 34.256H70.8835H71.3835C71.3835 34.082 71.4661 33.7931 71.6509 33.3708C71.8293 32.9631 72.0672 32.507 72.3199 32.0062C72.5676 31.5152 72.8256 30.9887 73.0213 30.4752C73.2151 29.9667 73.3635 29.4319 73.3635 28.928H72.8635ZM70.8835 34.256H70.3835C70.3835 34.467 70.4174 34.7084 70.5649 34.9247C70.7153 35.1454 70.9344 35.268 71.1574 35.3423L71.3155 34.868L71.4736 34.3937C71.3725 34.36 71.3756 34.3386 71.3911 34.3613C71.4035 34.3796 71.3835 34.369 71.3835 34.256H70.8835ZM71.3155 34.868L71.1574 35.3423C71.3562 35.4086 71.5492 35.404 71.6755 35.404V34.904V34.404C71.5986 34.404 71.556 34.4037 71.5203 34.401C71.4899 34.3986 71.4784 34.3953 71.4736 34.3937L71.3155 34.868ZM71.6755 34.904V35.404C72.0629 35.404 72.5109 35.2977 72.9775 35.1376C73.4515 34.975 73.9788 34.7448 74.5353 34.4705C75.6483 33.9217 76.9103 33.1801 78.1471 32.4023C80.6207 30.8467 83.0385 29.1173 84.0197 28.4394L83.7355 28.028L83.4513 27.6166C82.4525 28.3067 80.0642 30.0153 77.6148 31.5557C76.3902 32.3259 75.1614 33.0468 74.0931 33.5735C73.5588 33.8369 73.0728 34.0477 72.6531 34.1917C72.226 34.3382 71.9001 34.404 71.6755 34.404V34.904ZM83.7355 28.028L84.0128 28.444C84.0184 28.4403 84.0177 28.4414 84.0113 28.4442C84.0044 28.4472 83.9947 28.4506 83.9834 28.4531C83.9724 28.4555 83.9646 28.4561 83.9632 28.4562C83.9628 28.4562 83.9641 28.4561 83.9681 28.4561C83.9727 28.456 83.9778 28.456 83.9875 28.456V27.956V27.456C83.955 27.456 83.8675 27.4545 83.7665 27.4769C83.6591 27.5008 83.5575 27.5457 83.4581 27.612L83.7355 28.028ZM83.9875 27.956V28.456C84.0119 28.456 84.0048 28.4564 83.9932 28.4554C83.9833 28.4546 83.9201 28.4498 83.8449 28.4122C83.7516 28.3656 83.6751 28.2868 83.6318 28.1894C83.5963 28.1095 83.5955 28.0442 83.5955 28.028H84.0955H84.5955C84.5955 27.9758 84.5902 27.8835 84.5456 27.7833C84.4934 27.6657 84.4033 27.5734 84.2921 27.5178C84.1988 27.4712 84.1131 27.4619 84.0762 27.4589C84.0377 27.4556 83.999 27.456 83.9875 27.456V27.956ZM84.0955 28.028H83.5955C83.5955 27.9658 83.6084 27.9227 83.6149 27.9038C83.6233 27.8794 83.6335 27.8601 83.6434 27.8452C83.6651 27.8127 83.6867 27.7994 83.6919 27.7968L83.9155 28.244L84.1391 28.6912C84.4277 28.5469 84.5955 28.2796 84.5955 28.028H84.0955ZM83.9155 28.244L83.6287 27.8344C82.5209 28.6099 80.1628 30.4028 77.6957 32.0296C76.4673 32.8396 75.2314 33.5948 74.1376 34.1458C73.0196 34.709 72.1307 35.016 71.5675 35.016V35.516V36.016C72.3903 36.016 73.4678 35.603 74.5875 35.0389C75.7313 34.4627 77.0041 33.6834 78.2462 32.8644C80.7201 31.2332 83.15 29.3901 84.2022 28.6536L83.9155 28.244ZM72.2875 27.596L72.5228 28.0372C72.8881 27.8423 73.2655 27.4392 73.5257 27.1197C73.6634 26.9505 73.786 26.7828 73.8767 26.6424C73.9216 26.5731 73.9634 26.5032 73.996 26.4389C74.0121 26.4071 74.0299 26.3688 74.0449 26.3277C74.0557 26.2978 74.0835 26.2185 74.0835 26.12H73.5835H73.0835C73.0835 26.0736 73.0906 26.0387 73.0943 26.0226C73.0986 26.0044 73.1029 25.9919 73.1048 25.9866C73.1084 25.9767 73.1095 25.9759 73.1039 25.987C73.093 26.0085 73.0715 26.0461 73.0371 26.0993C72.9692 26.2042 72.869 26.3425 72.7503 26.4883C72.4974 26.7988 72.2269 27.0616 72.0522 27.1548L72.2875 27.596ZM73.5835 26.12H74.0835C74.0835 26.117 74.0835 26.1075 74.0833 26.0979C74.0831 26.0888 74.0826 26.0685 74.0798 26.044C74.0759 26.0084 74.0587 25.8611 73.9325 25.7349C73.8064 25.6088 73.6591 25.5916 73.6235 25.5876C73.599 25.5849 73.5787 25.5844 73.5696 25.5842C73.56 25.584 73.5504 25.584 73.5475 25.584V26.084V26.584C73.5687 26.584 73.5422 26.5847 73.5131 26.5815C73.4876 26.5787 73.3471 26.5637 73.2254 26.442C73.1038 26.3204 73.0888 26.1799 73.086 26.1544C73.0827 26.1253 73.0835 26.0988 73.0835 26.12H73.5835ZM73.5475 26.084L73.308 25.6451C73.1506 25.7309 72.9844 25.871 72.8406 26.0064C72.6889 26.1494 72.5315 26.3169 72.389 26.4836C72.2472 26.6493 72.1126 26.8232 72.0102 26.9798C71.9594 27.0574 71.9105 27.1399 71.8726 27.221C71.8422 27.286 71.7875 27.413 71.7875 27.56H72.2875H72.7875C72.7875 27.644 72.7598 27.6844 72.7782 27.6451C72.789 27.622 72.8107 27.5827 72.8471 27.5271C72.9191 27.4171 73.0252 27.2782 73.149 27.1334C73.2719 26.9896 73.4048 26.8489 73.5264 26.7342C73.6561 26.612 73.7463 26.5451 73.7869 26.5229L73.5475 26.084ZM72.2875 27.56H71.7875V27.596H72.2875H72.7875V27.56H72.2875ZM77.2951 45.56L76.8285 45.7395L76.8371 45.762L76.8479 45.7836L77.2951 45.56ZM92.3791 14.528L92.7937 14.8075L93.2158 14.1813L92.4746 14.0372L92.3791 14.528ZM70.9231 14.96L71.1088 15.4242L71.15 15.4078L71.1876 15.3843L70.9231 14.96ZM70.7431 15.032V15.532H70.8394L70.9288 15.4962L70.7431 15.032ZM70.7791 14.636L70.5135 14.2121L70.5018 14.22L70.7791 14.636ZM92.8111 13.844L92.7229 14.3362L93.0393 14.3929L93.2222 14.1286L92.8111 13.844ZM98.3911 6.248L98.0376 5.89445L98.0172 5.91485L97.9993 5.93746L98.3911 6.248ZM99.3631 6.68L99.0096 6.32644L98.9854 6.35066L98.9647 6.37795L99.3631 6.68ZM94.0711 14.096L93.6525 13.8226L93.2112 14.4983L94.0127 14.5926L94.0711 14.096ZM95.8351 14.384L95.9147 13.8904L95.906 13.889L95.8971 13.8879L95.8351 14.384ZM118.659 13.844L118.382 13.428L118.366 13.4387L118.351 13.4506L118.659 13.844ZM118.911 14.132L118.634 13.716L118.618 13.7263L118.604 13.7377L118.911 14.132ZM95.6551 15.104L95.7391 14.6111L95.7373 14.6108L95.6551 15.104ZM93.6031 14.744L93.6773 14.2495L93.3753 14.2042L93.1971 14.4522L93.6031 14.744ZM77.6551 45.38L78.1402 45.2587L78.1297 45.2166L78.112 45.1769L77.6551 45.38ZM77.6911 45.524H78.1911V45.4624L78.1762 45.4027L77.6911 45.524ZM77.5111 45.776V45.276C77.6545 45.276 77.7382 45.3499 77.7567 45.3684C77.7742 45.3859 77.7666 45.3849 77.7423 45.3364L77.2951 45.56L76.8479 45.7836C76.8957 45.8791 76.9601 45.9861 77.0496 46.0756C77.1401 46.1661 77.2957 46.276 77.5111 46.276V45.776ZM77.2951 45.56L77.7618 45.3805C77.611 44.9884 77.5431 44.5144 77.5431 43.976H77.0431H76.5431C76.5431 44.5896 76.6193 45.1956 76.8285 45.7395L77.2951 45.56ZM77.0431 43.976H77.5431C77.5431 42.2212 78.2605 39.8324 79.4375 37.113C80.6079 34.4091 82.2065 31.4363 83.9136 28.5335C87.3282 22.7274 91.1504 17.2454 92.7937 14.8075L92.3791 14.528L91.9645 14.2485C90.3319 16.6706 86.4861 22.1866 83.0516 28.0265C81.3343 30.9467 79.7131 33.9589 78.5198 36.7158C77.3333 39.4571 76.5431 42.0048 76.5431 43.976H77.0431ZM92.3791 14.528L92.4746 14.0372C88.5947 13.2828 84.0474 12.408 79.7791 12.408V12.908V13.408C83.9349 13.408 88.3875 14.2612 92.2837 15.0188L92.3791 14.528ZM79.7791 12.908V12.408C76.4623 12.408 73.2572 12.9163 70.6587 14.5357L70.9231 14.96L71.1876 15.3843C73.557 13.9077 76.5439 13.408 79.7791 13.408V12.908ZM70.9231 14.96L70.7374 14.4958L70.5574 14.5678L70.7431 15.032L70.9288 15.4962L71.1088 15.4242L70.9231 14.96ZM70.7431 15.032V14.532C70.8094 14.532 70.9256 14.5599 71.0147 14.6669C71.0905 14.7579 71.0991 14.8497 71.0991 14.888H70.5991H70.0991C70.0991 14.9983 70.1257 15.1621 70.2465 15.3071C70.3807 15.4681 70.5689 15.532 70.7431 15.532V15.032ZM70.5991 14.888H71.0991C71.0991 14.9498 71.0846 14.9931 71.0771 15.012C71.0688 15.033 71.0609 15.0449 71.0582 15.0487C71.0534 15.0556 71.0533 15.0541 71.0565 15.052L70.7791 14.636L70.5018 14.22C70.3969 14.2899 70.3068 14.3784 70.239 14.4753C70.1801 14.5594 70.0991 14.7056 70.0991 14.888H70.5991ZM70.7791 14.636L71.0446 15.0597C73.6312 13.4388 76.9069 12.868 80.4271 12.868V12.368V11.868C76.8194 11.868 73.3271 12.4492 70.5136 14.2123L70.7791 14.636ZM80.4271 12.368V12.868C84.5508 12.868 88.8982 13.6506 92.7229 14.3362L92.8111 13.844L92.8993 13.3518C89.0921 12.6694 84.6554 11.868 80.4271 11.868V12.368ZM92.8111 13.844L93.2222 14.1286C94.5146 12.2618 97.28 8.45524 98.783 6.55854L98.3911 6.248L97.9993 5.93746C96.4783 7.85676 93.6996 11.6822 92.4 13.5594L92.8111 13.844ZM98.3911 6.248L98.7447 6.60155C98.7979 6.54833 98.8519 6.532 98.8951 6.532V6.032V5.532C98.5783 5.532 98.2723 5.65967 98.0376 5.89445L98.3911 6.248ZM98.8951 6.032V6.532C98.9158 6.532 98.9395 6.53537 98.963 6.54241C98.9867 6.54954 99.0041 6.55854 99.0138 6.56502C99.0245 6.57216 99.0177 6.57057 99.0056 6.55235C98.9922 6.53221 98.9711 6.48905 98.9711 6.428H99.4711H99.9711C99.9711 6.08648 99.7494 5.8536 99.5685 5.73297C99.3769 5.60524 99.1361 5.532 98.8951 5.532V6.032ZM99.4711 6.428H98.9711C98.9711 6.40595 98.9737 6.39134 98.9751 6.38462C98.9767 6.37715 98.9784 6.37201 98.9799 6.3683C98.9818 6.36343 98.9887 6.34732 99.0096 6.32644L99.3631 6.68L99.7167 7.03355C99.8886 6.86165 99.9711 6.62368 99.9711 6.428H99.4711ZM99.3631 6.68L98.9647 6.37795C97.2686 8.61538 94.8131 12.0454 93.6525 13.8226L94.0711 14.096L94.4898 14.3694C95.6332 12.6185 98.0737 9.20862 99.7616 6.98205L99.3631 6.68ZM94.0711 14.096L94.0127 14.5926C94.3003 14.6264 94.5823 14.6775 94.8759 14.7317C95.1644 14.785 95.4678 14.842 95.7731 14.8801L95.8351 14.384L95.8971 13.8879C95.6265 13.854 95.3538 13.803 95.0574 13.7483C94.766 13.6945 94.4539 13.6376 94.1295 13.5994L94.0711 14.096ZM95.8351 14.384L95.7555 14.8776C99.1036 15.4176 104.683 16.252 109.659 16.252V15.752V15.252C104.771 15.252 99.2626 14.4304 95.9147 13.8904L95.8351 14.384ZM109.659 15.752V16.252C111.549 16.252 113.374 16.1342 114.969 15.8291C116.556 15.5255 117.959 15.0283 118.968 14.2374L118.659 13.844L118.351 13.4506C117.523 14.0997 116.299 14.5565 114.781 14.8469C113.27 15.1358 111.513 15.252 109.659 15.252V15.752ZM118.659 13.844L118.936 14.26C118.959 14.2453 118.975 14.2352 118.987 14.2283C118.998 14.2213 119.003 14.2194 119.002 14.2199C119 14.2206 118.991 14.2247 118.974 14.2287C118.957 14.2328 118.936 14.236 118.911 14.236V13.736V13.236C118.672 13.236 118.485 13.3589 118.382 13.428L118.659 13.844ZM118.911 13.736V14.236C118.785 14.236 118.7 14.1777 118.657 14.1346C118.613 14.0914 118.555 14.0066 118.555 13.88H119.055H119.555C119.555 13.6814 119.461 13.5246 119.364 13.4274C119.267 13.3303 119.11 13.236 118.911 13.236V13.736ZM119.055 13.88H118.555C118.555 13.8379 118.564 13.8064 118.576 13.7824C118.59 13.7547 118.611 13.7313 118.634 13.716L118.911 14.132L119.188 14.548C119.453 14.372 119.555 14.0976 119.555 13.88H119.055ZM118.911 14.132L118.604 13.7377C117.632 14.4955 116.2 15.0245 114.452 15.36C112.712 15.6939 110.703 15.828 108.615 15.828V16.328V16.828C110.739 16.828 112.816 16.6921 114.64 16.342C116.456 15.9935 118.067 15.4245 119.219 14.5263L118.911 14.132ZM108.615 16.328V15.828C103.94 15.828 98.8949 15.149 95.7391 14.6111L95.6551 15.104L95.5711 15.5969C98.7513 16.139 103.859 16.828 108.615 16.828V16.328ZM95.6551 15.104L95.7373 14.6108C95.1288 14.5094 94.3909 14.3566 93.6773 14.2495L93.6031 14.744L93.529 15.2385C94.2553 15.3474 94.8855 15.4826 95.5729 15.5972L95.6551 15.104ZM93.6031 14.744L93.1971 14.4522C91.4482 16.8862 87.3985 22.6403 83.7842 28.5966C81.9774 31.574 80.2737 34.6113 79.0201 37.3149C77.7773 39.9951 76.9391 42.4243 76.9391 44.156H77.4391H77.9391C77.9391 42.6657 78.685 40.4149 79.9273 37.7356C81.1588 35.0797 82.8413 32.078 84.6391 29.1154C88.2337 23.1917 92.266 17.4618 94.0092 15.0358L93.6031 14.744ZM77.4391 44.156H76.9391C76.9391 44.6666 77.0165 45.1742 77.1982 45.5831L77.6551 45.38L78.112 45.1769C78.0058 44.9378 77.9391 44.5814 77.9391 44.156H77.4391ZM77.6551 45.38L77.1701 45.5013L77.2061 45.6453L77.6911 45.524L78.1762 45.4027L78.1402 45.2587L77.6551 45.38ZM77.6911 45.524H77.1911C77.1911 45.5188 77.1916 45.4749 77.232 45.4173C77.2791 45.3499 77.3776 45.276 77.5111 45.276V45.776V46.276C77.7527 46.276 77.9411 46.1481 78.0512 45.9907C78.1546 45.8431 78.1911 45.6732 78.1911 45.524H77.6911ZM95.5606 36.38V36.8802L95.5743 36.8798L95.5606 36.38ZM95.2006 31.124L95.6505 31.3421L94.9023 30.7228L95.2006 31.124ZM94.1206 26.84L94.2522 27.3224L94.2656 27.3187L94.2787 27.3143L94.1206 26.84ZM96.9646 28.136L96.5557 28.4237L96.9758 29.0207L97.3807 28.4133L96.9646 28.136ZM97.4686 27.38L97.8847 27.6573L97.9019 27.6314L97.9158 27.6036L97.4686 27.38ZM98.2606 27.776L98.735 27.9341L98.7606 27.8571V27.776H98.2606ZM98.2246 27.884L98.6166 28.1944L98.6712 28.1255L98.699 28.0421L98.2246 27.884ZM96.1366 31.196L96.5732 31.4397L96.5737 31.4388L96.1366 31.196ZM95.5966 35.84L95.5469 36.3375L95.5717 36.34H95.5966V35.84ZM108.233 27.92L108.111 27.4348L108.099 27.4382L108.233 27.92ZM108.377 27.884V27.384H108.315L108.255 27.3989L108.377 27.884ZM108.413 28.208L108.604 28.6698L108.696 28.6317L108.766 28.5616L108.413 28.208ZM96.6046 28.64L97.0003 28.9457L97.2052 28.6805L97.0377 28.3901L96.6046 28.64ZM92.1406 29.252L92.537 29.5569L92.5406 29.552L92.1406 29.252ZM95.5606 36.38V35.88H95.4526V36.38V36.88H95.5606V36.38ZM95.4526 36.38V35.88C95.2152 35.88 95.089 35.7929 94.9943 35.6358C94.8779 35.4427 94.8006 35.1171 94.8006 34.652H94.3006H93.8006C93.8006 35.1949 93.8854 35.7333 94.1379 36.1522C94.4122 36.6071 94.8621 36.88 95.4526 36.88V36.38ZM94.3006 34.652H94.8006C94.8006 33.7333 95.1009 32.4757 95.6505 31.3421L95.2006 31.124L94.7507 30.9059C94.1483 32.1483 93.8006 33.5547 93.8006 34.652H94.3006ZM95.2006 31.124L94.9023 30.7228C93.5325 31.7413 92.5587 32.064 91.9606 32.064V32.564V33.064C92.8746 33.064 94.0607 32.5947 95.499 31.5252L95.2006 31.124ZM91.9606 32.564V32.064C91.578 32.064 91.3573 31.9394 91.2243 31.7841C91.081 31.617 90.9846 31.3496 90.9846 30.98H90.4846H89.9846C89.9846 31.5104 90.1223 32.035 90.465 32.4349C90.8179 32.8466 91.3353 33.064 91.9606 33.064V32.564ZM90.4846 30.98H90.9846C90.9846 29.7457 92.0776 27.9154 94.2522 27.3224L94.1206 26.84L93.9891 26.3576C91.4116 27.0606 89.9846 29.2623 89.9846 30.98H90.4846ZM94.1206 26.84L94.2787 27.3143C94.4039 27.2726 94.5709 27.268 94.8046 27.268V26.768V26.268C94.6063 26.268 94.2694 26.2634 93.9625 26.3657L94.1206 26.84ZM94.8046 26.768V27.268C95.3808 27.268 95.93 27.5345 96.5557 28.4237L96.9646 28.136L97.3735 27.8483C96.6313 26.7935 95.8124 26.268 94.8046 26.268V26.768ZM96.9646 28.136L97.3807 28.4133L97.8847 27.6573L97.4686 27.38L97.0526 27.1026L96.5486 27.8586L96.9646 28.136ZM97.4686 27.38L97.9158 27.6036C97.8855 27.6644 97.834 27.7158 97.7732 27.7462C97.7464 27.7596 97.7235 27.766 97.7084 27.769C97.6936 27.772 97.6849 27.772 97.6846 27.772V27.272V26.772C97.4627 26.772 97.1713 26.8566 97.0214 27.1564L97.4686 27.38ZM97.6846 27.272V27.772C97.669 27.772 97.6603 27.7698 97.6597 27.7697C97.659 27.7695 97.663 27.7705 97.6714 27.7744C97.6893 27.7826 97.7133 27.7977 97.7368 27.8184C97.7609 27.8395 97.7734 27.8569 97.7769 27.8628C97.7783 27.8651 97.7751 27.8603 97.7711 27.848C97.7671 27.8358 97.7606 27.811 97.7606 27.776H98.2606H98.7606C98.7606 27.6018 98.6977 27.4541 98.6352 27.3495C98.5701 27.2406 98.4859 27.1455 98.3974 27.0676C98.2355 26.9252 97.9783 26.772 97.6846 26.772V27.272ZM98.2606 27.776L97.7863 27.6179L97.7503 27.7259L98.2246 27.884L98.699 28.0421L98.735 27.9341L98.2606 27.776ZM98.2246 27.884L97.8326 27.5736C97.1209 28.4726 96.42 29.6564 95.6995 30.9532L96.1366 31.196L96.5737 31.4388C97.2933 30.1436 97.9603 29.0234 98.6166 28.1944L98.2246 27.884ZM96.1366 31.196L95.7 30.9523C94.8105 32.5461 94.4846 33.819 94.4846 34.688H94.9846H95.4846C95.4846 34.045 95.7348 32.9419 96.5732 31.4397L96.1366 31.196ZM94.9846 34.688H94.4846C94.4846 35.098 94.5551 35.4705 94.719 35.7642C94.8903 36.071 95.1732 36.3002 95.5469 36.3375L95.5966 35.84L95.6464 35.3425C95.6443 35.3423 95.6446 35.3427 95.6412 35.3402C95.6359 35.3364 95.6167 35.3207 95.5922 35.2768C95.5402 35.1835 95.4846 34.998 95.4846 34.688H94.9846ZM95.5966 35.84V36.34H95.6686V35.84V35.34H95.5966V35.84ZM95.6686 35.84V36.34C96.0735 36.34 96.5204 36.1949 96.9657 35.9913C97.4207 35.7833 97.9226 35.4911 98.4506 35.1485C99.506 34.4638 100.714 33.5458 101.931 32.6145C103.154 31.6775 104.389 30.7251 105.52 29.9495C106.663 29.165 107.645 28.6023 108.366 28.4018L108.233 27.92L108.099 27.4382C107.201 27.6877 106.098 28.34 104.954 29.1248C103.796 29.9187 102.538 30.89 101.323 31.8205C100.1 32.7567 98.9232 33.6499 97.9064 34.3096C97.3983 34.6392 96.9422 34.9025 96.5499 35.0819C96.1477 35.2657 95.8577 35.34 95.6686 35.34V35.84ZM108.233 27.92L108.354 28.4051L108.498 28.3691L108.377 27.884L108.255 27.3989L108.111 27.4349L108.233 27.92ZM108.377 27.884V28.384C108.284 28.384 108.057 28.3017 108.057 28.028H108.557H109.057C109.057 27.6103 108.686 27.384 108.377 27.384V27.884ZM108.557 28.028H108.057C108.057 27.9524 108.075 27.8952 108.086 27.8656C108.098 27.8341 108.111 27.8119 108.117 27.8012C108.13 27.7809 108.138 27.7722 108.132 27.7791C108.128 27.784 108.12 27.7927 108.106 27.8069C108.093 27.8208 108.078 27.8359 108.059 27.8544L108.413 28.208L108.766 28.5616C108.798 28.5298 108.849 28.4791 108.891 28.4299C108.912 28.4053 108.943 28.3674 108.971 28.3212C108.99 28.2912 109.057 28.1807 109.057 28.028H108.557ZM108.413 28.208L108.221 27.7462C106.02 28.6602 103.4 30.7402 101.074 32.5324C99.8948 33.4411 98.7862 34.281 97.8123 34.8986C97.3261 35.2068 96.8847 35.4524 96.4942 35.6218C96.099 35.7932 95.7852 35.8737 95.5469 35.8802L95.5606 36.38L95.5743 36.8798C95.9931 36.8683 96.4408 36.735 96.8921 36.5392C97.348 36.3415 97.8378 36.0665 98.3478 35.7431C99.3663 35.0972 100.51 34.2294 101.684 33.3246C104.065 31.4898 106.557 29.5198 108.604 28.6698L108.413 28.208ZM91.9246 32.096V32.596C92.5625 32.596 93.3764 32.2577 94.2252 31.6701C95.0923 31.0698 96.0555 30.1683 97.0003 28.9457L96.6046 28.64L96.209 28.3343C95.3177 29.4877 94.427 30.3142 93.656 30.8479C92.8668 31.3943 92.2588 31.596 91.9246 31.596V32.096ZM96.6046 28.64L97.0377 28.3901C96.4435 27.3601 95.6918 26.844 94.8406 26.844V27.344V27.844C95.2134 27.844 95.6858 28.0479 96.1715 28.8899L96.6046 28.64ZM94.8406 27.344V26.844C94.2011 26.844 93.6094 27.1378 93.1059 27.5228C92.5979 27.9113 92.1346 28.4267 91.7406 28.952L92.1406 29.252L92.5406 29.552C92.9027 29.0693 93.3034 28.6307 93.7134 28.3172C94.1279 28.0002 94.5082 27.844 94.8406 27.844V27.344ZM92.1406 29.252L91.7443 28.9471C91.0088 29.9033 90.6326 30.6995 90.6326 31.376H91.1326H91.6326C91.6326 31.0445 91.8325 30.4727 92.5369 29.5569L92.1406 29.252ZM91.1326 31.376H90.6326C90.6326 31.7155 90.7406 32.045 91.0051 32.2831C91.2614 32.5138 91.5955 32.596 91.9246 32.596V32.096V31.596C91.7498 31.596 91.6878 31.5522 91.6741 31.5399C91.6687 31.535 91.6326 31.5045 91.6326 31.376H91.1326ZM92.7999 57.224L92.958 56.7497L92.95 56.747L92.9419 56.7446L92.7999 57.224ZM98.4519 44.984L98.1003 44.6285L98.0983 44.6304L98.4519 44.984ZM111.448 34.076L111.748 34.476L111.827 34.4169L111.877 34.3323L111.448 34.076ZM114.328 29.252L114.757 29.5083L113.979 28.8936L114.328 29.252ZM106.66 32.42L106.286 32.7522L106.296 32.7632L106.306 32.7736L106.66 32.42ZM108.424 27.74L108.132 27.3339L108.124 27.34L108.424 27.74ZM115.156 27.848L114.775 28.1722L115.187 28.6555L115.56 28.1421L115.156 27.848ZM115.84 26.876L116.152 27.2664L116.174 27.2491L116.193 27.2296L115.84 26.876ZM116.524 27.092L116.971 27.3156L117.024 27.21V27.092H116.524ZM116.488 27.164L116.925 27.4068L116.93 27.3973L116.935 27.3876L116.488 27.164ZM112.888 33.356L112.46 33.0976L113.156 33.7778L112.888 33.356ZM122.068 27.956L121.91 27.4817L121.859 27.4986L121.813 27.5259L122.068 27.956ZM122.176 27.92V27.42H122.095L122.018 27.4457L122.176 27.92ZM122.32 28.064L122.767 28.2876L122.82 28.182V28.064H122.32ZM122.248 28.208L122.514 28.6311L122.633 28.5566L122.695 28.4316L122.248 28.208ZM112.312 34.292L112.027 33.8809L111.939 33.942L111.884 34.0341L112.312 34.292ZM110.296 37.64L109.867 37.382L109.862 37.3914L110.296 37.64ZM110.8 35.12L111.23 35.3747L110.509 34.7131L110.8 35.12ZM98.8119 45.344L98.455 44.9938L98.4544 44.9944L98.8119 45.344ZM93.0159 56.684L92.8785 57.1648L92.898 57.1703L92.9178 57.1743L93.0159 56.684ZM114.904 28.244L115.248 28.6067L115.591 28.2816L115.286 27.921L114.904 28.244ZM108.928 28.604L109.248 28.9881L109.248 28.9881L108.928 28.604ZM107.308 31.988L106.917 32.3003L106.935 32.322L106.954 32.3416L107.308 31.988ZM93.4119 57.296V56.796C93.192 56.796 93.0878 56.7929 92.958 56.7497L92.7999 57.224L92.6418 57.6983C92.944 57.7991 93.1998 57.796 93.4119 57.796V57.296ZM92.7999 57.224L92.9419 56.7446C92.5308 56.6228 92.2912 56.448 92.1506 56.2615C92.0105 56.0757 91.9319 55.8293 91.9319 55.496H91.4319H90.9319C90.9319 55.9907 91.0512 56.4643 91.3521 56.8635C91.6525 57.262 92.0969 57.5372 92.6578 57.7034L92.7999 57.224ZM91.4319 55.496H91.9319C91.9319 54.8502 92.2328 53.9848 92.7718 52.9814C93.3027 51.9931 94.0312 50.931 94.8126 49.9092C96.3747 47.8664 98.1137 46.0293 98.8054 45.3376L98.4519 44.984L98.0983 44.6304C97.3861 45.3427 95.6151 47.2136 94.0182 49.3018C93.22 50.3455 92.4568 51.4547 91.8908 52.5082C91.333 53.5467 90.9319 54.5938 90.9319 55.496H91.4319ZM98.4519 44.984L98.8034 45.3395C105.253 38.9613 111.16 34.9167 111.748 34.476L111.448 34.076L111.148 33.676C110.583 34.0993 104.61 38.1907 98.1003 44.6285L98.4519 44.984ZM111.448 34.076L111.877 34.3323L114.757 29.5083L114.328 29.252L113.899 28.9957L111.019 33.8197L111.448 34.076ZM114.328 29.252L113.979 28.8936C113.349 29.5064 112.197 30.3736 110.963 31.0872C110.349 31.4426 109.726 31.7535 109.148 31.9743C108.563 32.1977 108.057 32.316 107.668 32.316V32.816V33.316C108.233 33.316 108.87 33.1508 109.505 32.9085C110.146 32.6635 110.819 32.3264 111.464 31.9528C112.751 31.2084 113.974 30.2936 114.677 29.6104L114.328 29.252ZM107.668 32.816V32.316C107.392 32.316 107.163 32.2163 107.013 32.0664L106.66 32.42L106.306 32.7736C106.66 33.1277 107.152 33.316 107.668 33.316V32.816ZM106.66 32.42L107.034 32.0878C106.846 31.8763 106.764 31.6088 106.764 31.304H106.264H105.764C105.764 31.7912 105.898 32.3157 106.286 32.7522L106.66 32.42ZM106.264 31.304H106.764C106.764 30.7927 106.997 30.1872 107.385 29.5927C107.768 29.0053 108.268 28.4817 108.724 28.14L108.424 27.74L108.124 27.34C107.572 27.7543 106.992 28.3647 106.547 29.0463C106.107 29.7208 105.764 30.5193 105.764 31.304H106.264ZM108.424 27.74L108.716 28.146C109.803 27.3644 110.963 26.944 112.06 26.944V26.444V25.944C110.708 25.944 109.349 26.4596 108.132 27.334L108.424 27.74ZM112.06 26.444V26.944C113.115 26.944 114.051 27.3218 114.775 28.1722L115.156 27.848L115.536 27.5238C114.605 26.4302 113.381 25.944 112.06 25.944V26.444ZM115.156 27.848L115.56 28.1421C115.716 27.9283 115.855 27.7 115.959 27.5373C116.014 27.4513 116.059 27.3841 116.098 27.3324C116.14 27.2766 116.157 27.2627 116.152 27.2664L115.84 26.876L115.528 26.4856C115.36 26.6193 115.217 26.8422 115.117 26.9977C114.997 27.186 114.884 27.3717 114.752 27.5539L115.156 27.848ZM115.84 26.876L116.193 27.2296C116.159 27.2644 116.129 27.2793 116.113 27.2861C116.095 27.2937 116.064 27.304 116.02 27.304V26.804V26.304C115.807 26.304 115.61 26.399 115.486 26.5224L115.84 26.876ZM116.02 26.804V27.304C116.034 27.304 116.056 27.306 116.08 27.3114C116.104 27.317 116.121 27.3237 116.129 27.3277C116.14 27.333 116.122 27.3266 116.096 27.2965C116.066 27.2615 116.024 27.1905 116.024 27.092H116.524H117.024C117.024 26.7068 116.723 26.5066 116.576 26.4333C116.402 26.3461 116.198 26.304 116.02 26.304V26.804ZM116.524 27.092L116.077 26.8684L116.041 26.9404L116.488 27.164L116.935 27.3876L116.971 27.3156L116.524 27.092ZM116.488 27.164L116.051 26.9212C114.974 28.8587 113.61 31.1934 112.46 33.0976L112.888 33.356L113.316 33.6144C114.47 31.7026 115.841 29.3573 116.925 27.4068L116.488 27.164ZM112.888 33.356L113.156 33.7778C115.129 32.5224 118.412 30.7034 122.323 28.3861L122.068 27.956L121.813 27.5259C117.947 29.8166 114.607 31.6696 112.619 32.9342L112.888 33.356ZM122.068 27.956L122.226 28.4303L122.334 28.3943L122.176 27.92L122.018 27.4457L121.91 27.4817L122.068 27.956ZM122.176 27.92V28.42C122.049 28.42 121.964 28.3617 121.921 28.3186C121.878 28.2754 121.82 28.1906 121.82 28.064H122.32H122.82C122.82 27.8654 122.726 27.7086 122.628 27.6114C122.531 27.5143 122.374 27.42 122.176 27.42V27.92ZM122.32 28.064L121.873 27.8404L121.801 27.9844L122.248 28.208L122.695 28.4316L122.767 28.2876L122.32 28.064ZM122.248 28.208L121.981 27.7849C120.047 29.0029 118.51 29.8696 116.974 30.7639C115.439 31.6581 113.914 32.5744 112.027 33.8809L112.312 34.292L112.596 34.7031C114.453 33.4176 115.953 32.5159 117.477 31.6281C119.002 30.7404 120.561 29.8611 122.514 28.6311L122.248 28.208ZM112.312 34.292L111.884 34.0341L109.868 37.3821L110.296 37.64L110.724 37.8979L112.74 34.5499L112.312 34.292ZM110.296 37.64L109.862 37.3914C109.019 38.8627 106.159 43.7573 102.841 48.2792C101.181 50.5419 99.4186 52.6946 97.7465 54.2767C96.9105 55.0677 96.109 55.7046 95.3652 56.1413C94.6168 56.5806 93.9628 56.796 93.4119 56.796V57.296V57.796C94.2109 57.796 95.0441 57.4894 95.8715 57.0037C96.7034 56.5153 97.5661 55.8241 98.4338 55.0031C100.169 53.3609 101.973 51.1531 103.648 48.8708C106.999 44.3027 109.881 39.3693 110.73 37.8886L110.296 37.64ZM93.5919 56.756V57.256C94.3652 57.256 95.1667 56.9349 95.9576 56.4331C96.7541 55.9277 97.5824 55.2118 98.4196 54.3583C100.094 52.6509 101.855 50.3407 103.526 47.9087C106.869 43.0438 109.907 37.6101 111.23 35.3747L110.8 35.12L110.37 34.8653C109.029 37.1299 106.019 42.5142 102.702 47.3423C101.043 49.7568 99.3204 52.0118 97.7057 53.6581C96.8981 54.4814 96.13 55.1394 95.4218 55.5887C94.7081 56.0416 94.0966 56.256 93.5919 56.256V56.756ZM110.8 35.12L110.509 34.7131C106.961 37.2475 102.258 41.1181 98.455 44.9938L98.8119 45.344L99.1687 45.6942C102.926 41.8659 107.583 38.0325 111.09 35.5269L110.8 35.12ZM98.8119 45.344L98.4544 44.9944C97.655 45.812 95.9303 47.6544 94.4018 49.6378C93.6381 50.6289 92.9147 51.6661 92.3801 52.6355C91.8553 53.5869 91.4719 54.5431 91.4719 55.352H91.9719H92.4719C92.4719 54.8109 92.7455 54.0436 93.2557 53.1185C93.756 52.2114 94.4457 51.2191 95.1939 50.2482C96.6895 48.3076 98.3847 46.496 99.1694 45.6936L98.8119 45.344ZM91.9719 55.352H91.4719C91.4719 55.7493 91.5607 56.1427 91.8085 56.4774C92.0569 56.8132 92.4245 57.035 92.8785 57.1648L93.0159 56.684L93.1532 56.2032C92.8512 56.117 92.6968 55.9968 92.6123 55.8826C92.527 55.7673 92.4719 55.6027 92.4719 55.352H91.9719ZM93.0159 56.684L92.9178 57.1743C93.0955 57.2098 93.3203 57.256 93.5919 57.256V56.756V56.256C93.4314 56.256 93.2962 56.2302 93.1139 56.1937L93.0159 56.684ZM108.028 32.24V32.74C108.567 32.74 109.202 32.5386 109.835 32.2607C110.481 31.9771 111.177 31.5892 111.853 31.1651C113.203 30.3187 114.517 29.3 115.248 28.6067L114.904 28.244L114.56 27.8813C113.886 28.52 112.627 29.4993 111.322 30.3179C110.67 30.7263 110.019 31.0876 109.433 31.3452C108.833 31.6084 108.353 31.74 108.028 31.74V32.24ZM114.904 28.244L115.286 27.921C114.411 26.8872 113.413 26.448 112.42 26.448V26.948V27.448C113.083 27.448 113.813 27.7288 114.522 28.567L114.904 28.244ZM112.42 26.948V26.448C111.004 26.448 109.695 27.3135 108.608 28.2199L108.928 28.604L109.248 28.9881C110.32 28.0945 111.388 27.448 112.42 27.448V26.948ZM108.928 28.604L108.608 28.2199C108.256 28.5132 107.768 29.0011 107.364 29.5494C106.976 30.0759 106.592 30.7551 106.592 31.412H107.092H107.592C107.592 31.0969 107.801 30.6421 108.169 30.1426C108.521 29.6649 108.952 29.2348 109.248 28.9881L108.928 28.604ZM107.092 31.412H106.592C106.592 31.7596 106.715 32.0469 106.917 32.3003L107.308 31.988L107.698 31.6757C107.613 31.5691 107.592 31.4964 107.592 31.412H107.092ZM107.308 31.988L106.954 32.3416C107.256 32.6435 107.617 32.74 108.028 32.74V32.24V31.74C107.791 31.74 107.72 31.6925 107.661 31.6344L107.308 31.988ZM121.09 33.86L121.293 33.4031L121.287 33.4004L121.09 33.86ZM120.73 29.576L120.294 29.3306L120.292 29.335L120.73 29.576ZM121.594 29.792L121.498 29.3013L121.257 29.3484L121.147 29.5684L121.594 29.792ZM122.386 33.464L122.364 33.9635L122.375 33.964H122.386V33.464ZM133.402 27.992L133.216 27.5278L133.156 27.552L133.103 27.5909L133.402 27.992ZM133.582 27.92V27.42H133.486L133.396 27.4558L133.582 27.92ZM133.582 28.244L133.305 27.828L133.291 27.8368L133.279 27.8465L133.582 28.244ZM121.882 29.252L121.466 28.9746L120.89 29.8382L121.924 29.7502L121.882 29.252ZM125.626 26.876L125.98 26.5224L125.98 26.5224L125.626 26.876ZM122.17 34.076V33.576C121.836 33.576 121.546 33.5155 121.293 33.4031L121.09 33.86L120.887 34.3169C121.282 34.4925 121.712 34.576 122.17 34.576V34.076ZM121.09 33.86L121.287 33.4004C120.788 33.1864 120.546 32.7094 120.546 31.988H120.046H119.546C119.546 32.9226 119.88 33.8856 120.893 34.3196L121.09 33.86ZM120.046 31.988H120.546C120.546 31.2679 120.8 30.4871 121.168 29.817L120.73 29.576L120.292 29.335C119.868 30.1049 119.546 31.0521 119.546 31.988H120.046ZM120.73 29.576L121.166 29.8214C122.545 27.3739 124.164 26.728 125.05 26.728V26.228V25.728C123.704 25.728 121.795 26.6661 120.294 29.3306L120.73 29.576ZM125.05 26.228V26.728C125.317 26.728 125.494 26.7812 125.585 26.8331C125.67 26.8816 125.63 26.8918 125.63 26.84H126.13H126.63C126.63 26.4282 126.374 26.1324 126.081 25.9649C125.794 25.8008 125.431 25.728 125.05 25.728V26.228ZM126.13 26.84H125.63C125.63 26.9242 125.589 27.0848 125.429 27.3103C125.273 27.53 125.025 27.7798 124.676 28.0324C123.979 28.5369 122.915 29.0249 121.498 29.3013L121.594 29.792L121.69 30.2827C123.225 29.9831 124.429 29.4451 125.262 28.8426C125.678 28.5417 126.011 28.2177 126.244 27.8895C126.473 27.5672 126.63 27.2058 126.63 26.84H126.13ZM121.594 29.792L121.147 29.5684C120.659 30.5437 120.446 31.3426 120.446 31.988H120.946H121.446C121.446 31.5534 121.593 30.9123 122.041 30.0156L121.594 29.792ZM120.946 31.988H120.446C120.446 32.5976 120.635 33.103 121.015 33.4567C121.386 33.8016 121.875 33.9423 122.364 33.9635L122.386 33.464L122.408 32.9645C122.069 32.9497 121.838 32.8564 121.696 32.7243C121.563 32.601 121.446 32.3864 121.446 31.988H120.946ZM122.386 33.464V33.964H122.566V33.464V32.964H122.386V33.464ZM122.566 33.464V33.964C123.325 33.964 124.201 33.7512 125.114 33.4179C126.034 33.0823 127.023 32.6126 128.02 32.072C130.013 30.9909 132.068 29.6086 133.701 28.3931L133.402 27.992L133.103 27.5909C131.496 28.7874 129.483 30.1411 127.543 31.193C126.573 31.7189 125.63 32.165 124.771 32.4785C123.906 32.7943 123.157 32.964 122.566 32.964V33.464ZM133.402 27.992L133.588 28.4562L133.768 28.3842L133.582 27.92L133.396 27.4558L133.216 27.5278L133.402 27.992ZM133.582 27.92V28.42C133.461 28.42 133.387 28.3667 133.361 28.3446C133.343 28.3297 133.32 28.3071 133.298 28.2733C133.286 28.2561 133.271 28.2297 133.257 28.1945C133.244 28.1614 133.226 28.1034 133.226 28.028H133.726H134.226C134.226 27.8733 134.158 27.7619 134.13 27.7186C134.091 27.6611 134.046 27.6138 134.001 27.5764C133.921 27.5093 133.775 27.42 133.582 27.42V27.92ZM133.726 28.028H133.226C133.226 27.9739 133.241 27.9175 133.27 27.871C133.296 27.8306 133.318 27.8192 133.305 27.828L133.582 28.244L133.859 28.66C134.062 28.5252 134.226 28.3148 134.226 28.028H133.726ZM133.582 28.244L133.279 27.8465C131.546 29.1681 129.435 30.6108 127.407 31.7203C125.353 32.8437 123.472 33.576 122.17 33.576V34.076V34.576C123.748 34.576 125.827 33.7243 127.886 32.5977C129.971 31.4572 132.126 29.9839 133.885 28.6415L133.582 28.244ZM121.882 29.252L121.924 29.7502C122.866 29.6701 123.9 29.2677 124.694 28.8069C125.093 28.575 125.452 28.3162 125.719 28.0557C125.853 27.9257 125.974 27.7846 126.065 27.6358C126.153 27.4917 126.234 27.3044 126.234 27.092H125.734H125.234C125.234 27.0506 125.248 27.0546 125.211 27.1148C125.177 27.1703 125.116 27.2466 125.021 27.3399C124.83 27.526 124.544 27.7375 124.191 27.9421C123.482 28.3543 122.59 28.6899 121.84 28.7538L121.882 29.252ZM125.734 27.092H126.234C126.234 26.8406 126.106 26.6489 125.98 26.5224L125.626 26.876L125.272 27.2296C125.29 27.2471 125.234 27.1994 125.234 27.092H125.734ZM125.626 26.876L125.98 26.5224C125.808 26.3505 125.534 26.232 125.23 26.232V26.732V27.232C125.253 27.232 125.272 27.2367 125.283 27.2412C125.288 27.2435 125.291 27.245 125.29 27.2446C125.29 27.2444 125.283 27.2402 125.272 27.2296L125.626 26.876ZM125.23 26.732V26.232C124.735 26.232 124.107 26.4567 123.465 26.8889C122.813 27.3291 122.111 28.0076 121.466 28.9746L121.882 29.252L122.298 29.5293C122.877 28.6604 123.489 28.0789 124.024 27.7181C124.571 27.3493 125.005 27.232 125.23 27.232V26.732ZM129.96 35.012V35.512H130.056L130.145 35.4762L129.96 35.012ZM129.672 34.58L129.204 34.4044L129.172 34.4893V34.58H129.672ZM131.004 31.628L131.433 31.8853L131.435 31.8809L131.004 31.628ZM133.74 27.308L133.386 26.9544L133.373 26.968L133.36 26.9826L133.74 27.308ZM134.424 27.704L134.07 27.3504L134.044 27.3766L134.022 27.4064L134.424 27.704ZM130.284 34.184L129.837 33.9604L130.661 34.5124L130.284 34.184ZM137.664 29L138.159 29.0707L138.164 29.0355V29H137.664ZM137.628 29.252L138.117 29.3568L138.12 29.3398L138.123 29.3227L137.628 29.252ZM139.248 34.184L139.234 34.684H139.248V34.184ZM149.328 27.92V27.42H149.198L149.084 27.4833L149.328 27.92ZM149.472 28.136L149.248 27.6888L149.22 27.7031L149.193 27.7209L149.472 28.136ZM139.032 34.688L139.016 35.1877L139.024 35.188H139.032V34.688ZM136.44 29.432H136.94V28.5688L136.191 28.9983L136.44 29.432ZM130.14 34.94L130.325 35.4042L130.421 35.3661L130.493 35.2936L130.14 34.94ZM129.96 35.012V34.512C130.053 34.512 130.108 34.5552 130.129 34.5784C130.154 34.6054 130.172 34.6433 130.172 34.688H129.672H129.172C129.172 35.1057 129.503 35.512 129.96 35.512V35.012ZM129.672 34.688H130.172V34.58H129.672H129.172V34.688H129.672ZM129.672 34.58L130.14 34.7556C130.469 33.8773 130.705 33.0978 131.432 31.8852L131.004 31.628L130.575 31.3708C129.791 32.6782 129.522 33.5547 129.204 34.4044L129.672 34.58ZM131.004 31.628L131.435 31.8809C132.043 30.8432 132.67 29.8318 133.171 29.049C133.421 28.6576 133.64 28.3247 133.808 28.0752C133.984 27.8138 134.088 27.6698 134.119 27.6334L133.74 27.308L133.36 26.9826C133.283 27.0722 133.145 27.2702 132.979 27.5162C132.805 27.7741 132.582 28.1139 132.329 28.51C131.822 29.3022 131.188 30.3248 130.572 31.3751L131.004 31.628ZM133.74 27.308L134.093 27.6616C134.111 27.6437 134.121 27.6357 134.124 27.6331C134.127 27.6309 134.121 27.6359 134.107 27.6427C134.093 27.65 134.075 27.6563 134.057 27.6602C134.04 27.6639 134.029 27.664 134.028 27.664V27.164V26.664C133.911 26.664 133.787 26.685 133.66 26.7483C133.545 26.8057 133.456 26.8848 133.386 26.9544L133.74 27.308ZM134.028 27.164V27.664C134 27.664 133.99 27.6578 133.996 27.6604C134.001 27.6625 134.01 27.6677 134.019 27.6755C134.029 27.6837 134.028 27.6863 134.023 27.6771C134.019 27.6701 133.996 27.6295 133.996 27.56H134.496H134.996C134.996 27.2569 134.805 27.0314 134.667 26.9135C134.516 26.7855 134.288 26.664 134.028 26.664V27.164ZM134.496 27.56H133.996C133.996 27.5247 134 27.4971 134.003 27.4806C134.006 27.4632 134.01 27.4497 134.013 27.441C134.018 27.4242 134.024 27.4134 134.026 27.4084C134.029 27.4028 134.032 27.3968 134.037 27.3897C134.041 27.3837 134.052 27.369 134.07 27.3504L134.424 27.704L134.777 28.0576C134.845 27.9901 134.891 27.9136 134.92 27.8556C134.942 27.8134 134.996 27.6994 134.996 27.56H134.496ZM134.424 27.704L134.022 27.4064C132.577 29.3576 130.936 31.7612 129.837 33.9604L130.284 34.184L130.731 34.4076C131.791 32.2868 133.391 29.9384 134.826 28.0016L134.424 27.704ZM130.284 34.184L130.661 34.5124C131.141 33.9614 132.397 32.5717 133.738 31.3236C134.41 30.6986 135.092 30.1198 135.701 29.7003C136.005 29.4906 136.282 29.3278 136.522 29.2189C136.768 29.1072 136.942 29.068 137.052 29.068V28.568V28.068C136.739 28.068 136.414 28.1694 136.108 28.3082C135.796 28.4498 135.467 28.6472 135.134 28.8768C134.467 29.336 133.745 29.9519 133.057 30.5914C131.681 31.8723 130.399 33.2906 129.907 33.8556L130.284 34.184ZM137.052 28.568V29.068C137.09 29.068 137.114 29.0681 137.136 29.0688C137.157 29.0695 137.166 29.0707 137.169 29.0712C137.171 29.0715 137.167 29.0709 137.158 29.0677C137.148 29.0643 137.14 29.0599 137.134 29.056L137.412 28.64L137.689 28.224C137.436 28.0555 137.173 28.068 137.052 28.068V28.568ZM137.412 28.64L137.134 29.056C137.16 29.0733 137.185 29.0876 137.201 29.0972C137.205 29.0996 137.209 29.102 137.213 29.1041C137.216 29.1063 137.22 29.1081 137.223 29.11C137.229 29.1136 137.233 29.1162 137.237 29.1184C137.253 29.1283 137.242 29.1231 137.225 29.1061C137.215 29.0967 137.205 29.0845 137.195 29.0695C137.185 29.0544 137.178 29.0393 137.172 29.0253C137.162 28.9972 137.164 28.9843 137.164 29H137.664H138.164C138.164 28.7633 138.089 28.5566 137.932 28.3989C137.865 28.3324 137.798 28.289 137.756 28.2639C137.694 28.2261 137.708 28.2365 137.689 28.224L137.412 28.64ZM137.664 29L137.169 28.9293L137.133 29.1813L137.628 29.252L138.123 29.3227L138.159 29.0707L137.664 29ZM137.628 29.252L137.139 29.1472C137.024 29.6845 136.948 30.3316 136.948 30.98H137.448H137.948C137.948 30.4044 138.016 29.8275 138.117 29.3568L137.628 29.252ZM137.448 30.98H136.948C136.948 31.809 137.068 32.6842 137.396 33.3765C137.732 34.0857 138.322 34.6592 139.234 34.6838L139.248 34.184L139.261 33.6842C138.841 33.6728 138.531 33.4363 138.3 32.9485C138.061 32.4438 137.948 31.735 137.948 30.98H137.448ZM139.248 34.184V34.684C140.038 34.684 140.954 34.3143 141.863 33.8158C142.789 33.308 143.782 32.6241 144.746 31.9135C145.709 31.2036 146.665 30.4507 147.5 29.8122C148.348 29.1636 149.059 28.6421 149.571 28.3567L149.328 27.92L149.084 27.4833C148.498 27.8099 147.729 28.3774 146.892 29.018C146.041 29.6688 145.107 30.4054 144.153 31.1085C143.2 31.8109 142.249 32.4635 141.382 32.939C140.498 33.4237 139.771 33.684 139.248 33.684V34.184ZM149.328 27.92V28.42H149.436V27.92V27.42H149.328V27.92ZM149.436 27.92V28.42C149.398 28.42 149.331 28.412 149.257 28.363C149.169 28.3042 149.08 28.186 149.08 28.028H149.58H150.08C150.08 27.798 149.954 27.6258 149.812 27.531C149.685 27.446 149.546 27.42 149.436 27.42V27.92ZM149.58 28.028H149.08C149.08 27.8666 149.163 27.7649 149.199 27.7284C149.235 27.693 149.261 27.6825 149.248 27.6888L149.472 28.136L149.695 28.5832C149.755 28.5534 149.835 28.507 149.906 28.4356C149.979 28.3631 150.08 28.2254 150.08 28.028H149.58ZM149.472 28.136L149.193 27.7209C148.544 28.1567 147.734 28.7907 146.859 29.481C145.977 30.1766 145.02 30.9366 144.059 31.6437C143.096 32.3516 142.143 32.9958 141.273 33.4612C140.388 33.9344 139.651 34.188 139.104 34.188V34.688V35.188C139.907 35.188 140.826 34.8341 141.744 34.3431C142.677 33.8445 143.675 33.1679 144.651 32.4493C145.63 31.7299 146.601 30.9577 147.478 30.2661C148.361 29.5693 149.14 28.9613 149.75 28.5511L149.472 28.136ZM139.104 34.688V34.188H139.032V34.688V35.188H139.104V34.688ZM139.032 34.688L139.048 34.1883C138.581 34.1734 138.241 34.034 137.981 33.8276C137.716 33.6163 137.506 33.3121 137.347 32.9294C137.022 32.1516 136.94 31.1454 136.94 30.26H136.44H135.94C135.94 31.1746 136.02 32.3464 136.424 33.3146C136.629 33.8049 136.926 34.2657 137.359 34.6102C137.798 34.9595 138.349 35.1666 139.016 35.1877L139.032 34.688ZM136.44 30.26H136.94V29.432H136.44H135.94V30.26H136.44ZM136.44 29.432L136.191 28.9983C133.668 30.4452 130.903 33.4697 129.786 34.5864L130.14 34.94L130.493 35.2936C131.681 34.1063 134.315 31.2268 136.689 29.8657L136.44 29.432ZM130.14 34.94L129.954 34.4758L129.774 34.5478L129.96 35.012L130.145 35.4762L130.325 35.4042L130.14 34.94ZM152.584 36.38V36.8802L152.598 36.8798L152.584 36.38ZM152.224 31.124L152.674 31.3421L151.926 30.7228L152.224 31.124ZM151.144 26.84L151.276 27.3224L151.289 27.3187L151.302 27.3143L151.144 26.84ZM153.988 28.136L153.579 28.4237L153.999 29.0207L154.404 28.4133L153.988 28.136ZM154.492 27.38L154.908 27.6573L154.925 27.6314L154.939 27.6036L154.492 27.38ZM155.284 27.776L155.758 27.9341L155.784 27.8571V27.776H155.284ZM155.248 27.884L155.64 28.1944L155.695 28.1255L155.722 28.0421L155.248 27.884ZM153.16 31.196L153.597 31.4397L153.597 31.4388L153.16 31.196ZM152.62 35.84L152.57 36.3375L152.595 36.34H152.62V35.84ZM165.256 27.92L165.135 27.4348L165.122 27.4382L165.256 27.92ZM165.4 27.884V27.384H165.339L165.279 27.3989L165.4 27.884ZM165.436 28.208L165.628 28.6698L165.719 28.6317L165.79 28.5616L165.436 28.208ZM153.628 28.64L154.024 28.9457L154.229 28.6805L154.061 28.3901L153.628 28.64ZM149.164 29.252L149.56 29.5569L149.564 29.552L149.164 29.252ZM152.584 36.38V35.88H152.476V36.38V36.88H152.584V36.38ZM152.476 36.38V35.88C152.239 35.88 152.112 35.7929 152.018 35.6358C151.901 35.4427 151.824 35.1171 151.824 34.652H151.324H150.824C150.824 35.1949 150.909 35.7333 151.161 36.1522C151.436 36.6071 151.885 36.88 152.476 36.88V36.38ZM151.324 34.652H151.824C151.824 33.7333 152.124 32.4757 152.674 31.3421L152.224 31.124L151.774 30.9059C151.172 32.1483 150.824 33.5547 150.824 34.652H151.324ZM152.224 31.124L151.926 30.7228C150.556 31.7413 149.582 32.064 148.984 32.064V32.564V33.064C149.898 33.064 151.084 32.5947 152.522 31.5252L152.224 31.124ZM148.984 32.564V32.064C148.601 32.064 148.381 31.9394 148.248 31.7841C148.104 31.617 148.008 31.3496 148.008 30.98H147.508H147.008C147.008 31.5104 147.146 32.035 147.488 32.4349C147.841 32.8466 148.359 33.064 148.984 33.064V32.564ZM147.508 30.98H148.008C148.008 29.7457 149.101 27.9154 151.276 27.3224L151.144 26.84L151.013 26.3576C148.435 27.0606 147.008 29.2623 147.008 30.98H147.508ZM151.144 26.84L151.302 27.3143C151.427 27.2726 151.594 27.268 151.828 27.268V26.768V26.268C151.63 26.268 151.293 26.2634 150.986 26.3657L151.144 26.84ZM151.828 26.768V27.268C152.404 27.268 152.953 27.5345 153.579 28.4237L153.988 28.136L154.397 27.8483C153.655 26.7935 152.836 26.268 151.828 26.268V26.768ZM153.988 28.136L154.404 28.4133L154.908 27.6573L154.492 27.38L154.076 27.1026L153.572 27.8586L153.988 28.136ZM154.492 27.38L154.939 27.6036C154.909 27.6644 154.857 27.7158 154.797 27.7462C154.77 27.7596 154.747 27.766 154.732 27.769C154.717 27.772 154.708 27.772 154.708 27.772V27.272V26.772C154.486 26.772 154.195 26.8566 154.045 27.1564L154.492 27.38ZM154.708 27.272V27.772C154.692 27.772 154.684 27.7698 154.683 27.7697C154.682 27.7695 154.686 27.7705 154.695 27.7744C154.713 27.7826 154.737 27.7977 154.76 27.8184C154.784 27.8395 154.797 27.8569 154.8 27.8628C154.802 27.8651 154.799 27.8603 154.794 27.848C154.791 27.8358 154.784 27.811 154.784 27.776H155.284H155.784C155.784 27.6018 155.721 27.4541 155.659 27.3495C155.594 27.2406 155.509 27.1455 155.421 27.0676C155.259 26.9252 155.002 26.772 154.708 26.772V27.272ZM155.284 27.776L154.81 27.6179L154.774 27.7259L155.248 27.884L155.722 28.0421L155.758 27.9341L155.284 27.776ZM155.248 27.884L154.856 27.5736C154.144 28.4726 153.443 29.6564 152.723 30.9532L153.16 31.196L153.597 31.4388C154.317 30.1436 154.984 29.0234 155.64 28.1944L155.248 27.884ZM153.16 31.196L152.723 30.9523C151.834 32.5461 151.508 33.819 151.508 34.688H152.008H152.508C152.508 34.045 152.758 32.9419 153.597 31.4397L153.16 31.196ZM152.008 34.688H151.508C151.508 35.098 151.579 35.4705 151.742 35.7642C151.914 36.071 152.197 36.3002 152.57 36.3375L152.62 35.84L152.67 35.3425C152.668 35.3423 152.668 35.3427 152.665 35.3402C152.659 35.3364 152.64 35.3207 152.616 35.2768C152.564 35.1835 152.508 34.998 152.508 34.688H152.008ZM152.62 35.84V36.34H152.692V35.84V35.34H152.62V35.84ZM152.692 35.84V36.34C153.097 36.34 153.544 36.1949 153.989 35.9913C154.444 35.7833 154.946 35.4911 155.474 35.1485C156.529 34.4638 157.738 33.5458 158.954 32.6145C160.178 31.6775 161.412 30.7251 162.543 29.9495C163.687 29.165 164.668 28.6023 165.39 28.4018L165.256 27.92L165.122 27.4382C164.224 27.6877 163.122 28.34 161.977 29.1248C160.82 29.9187 159.561 30.89 158.346 31.8205C157.123 32.7567 155.947 33.6499 154.93 34.3096C154.422 34.6392 153.966 34.9025 153.573 35.0819C153.171 35.2657 152.881 35.34 152.692 35.34V35.84ZM165.256 27.92L165.377 28.4051L165.521 28.3691L165.4 27.884L165.279 27.3989L165.135 27.4349L165.256 27.92ZM165.4 27.884V28.384C165.307 28.384 165.08 28.3017 165.08 28.028H165.58H166.08C166.08 27.6103 165.709 27.384 165.4 27.384V27.884ZM165.58 28.028H165.08C165.08 27.9524 165.098 27.8952 165.109 27.8656C165.121 27.8341 165.134 27.8119 165.141 27.8012C165.153 27.7809 165.161 27.7722 165.155 27.7791C165.151 27.784 165.143 27.7927 165.13 27.8069C165.116 27.8208 165.101 27.8359 165.083 27.8544L165.436 28.208L165.79 28.5616C165.821 28.5298 165.873 28.4791 165.915 28.4299C165.936 28.4053 165.967 28.3674 165.995 28.3212C166.013 28.2912 166.08 28.1807 166.08 28.028H165.58ZM165.436 28.208L165.244 27.7462C163.043 28.6602 160.423 30.7402 158.097 32.5324C156.918 33.4411 155.81 34.281 154.836 34.8986C154.35 35.2068 153.908 35.4524 153.518 35.6218C153.122 35.7932 152.809 35.8737 152.57 35.8802L152.584 36.38L152.598 36.8798C153.017 36.8683 153.464 36.735 153.916 36.5392C154.371 36.3415 154.861 36.0665 155.371 35.7431C156.39 35.0972 157.533 34.2294 158.708 33.3246C161.089 31.4898 163.581 29.5198 165.628 28.6698L165.436 28.208ZM148.948 32.096V32.596C149.586 32.596 150.4 32.2577 151.249 31.6701C152.116 31.0698 153.079 30.1683 154.024 28.9457L153.628 28.64L153.232 28.3343C152.341 29.4877 151.45 30.3142 150.679 30.8479C149.89 31.3943 149.282 31.596 148.948 31.596V32.096ZM153.628 28.64L154.061 28.3901C153.467 27.3601 152.715 26.844 151.864 26.844V27.344V27.844C152.237 27.844 152.709 28.0479 153.195 28.8899L153.628 28.64ZM151.864 27.344V26.844C151.224 26.844 150.633 27.1378 150.129 27.5228C149.621 27.9113 149.158 28.4267 148.764 28.952L149.164 29.252L149.564 29.552C149.926 29.0693 150.327 28.6307 150.737 28.3172C151.151 28.0002 151.532 27.844 151.864 27.844V27.344ZM149.164 29.252L148.768 28.9471C148.032 29.9033 147.656 30.6995 147.656 31.376H148.156H148.656C148.656 31.0445 148.856 30.4727 149.56 29.5569L149.164 29.252ZM148.156 31.376H147.656C147.656 31.7155 147.764 32.045 148.029 32.2831C148.285 32.5138 148.619 32.596 148.948 32.596V32.096V31.596C148.773 31.596 148.711 31.5522 148.698 31.5399C148.692 31.535 148.656 31.5045 148.656 31.376H148.156Z" fill="#8B9B68" mask="url(#path-1-outside-1_67_1130)"/>
</svg>
