<svg width="140" height="53" viewBox="0 0 140 53" fill="none" xmlns="http://www.w3.org/2000/svg">
<mask id="path-1-outside-1_67_1055" maskUnits="userSpaceOnUse" x="0" y="0" width="140" height="53" fill="black">
<rect fill="white" width="140" height="53"/>
<path d="M30.1197 39.804C29.2557 39.804 28.6437 39.048 28.3197 37.32C28.1757 36.492 28.1397 35.556 28.1397 34.548C28.1397 28.5 30.5517 19.752 33.1437 15.324C31.0917 16.584 20.2197 28.752 14.8557 30.948C14.5317 31.092 14.2797 31.128 14.0277 31.128C13.2717 31.128 12.8757 30.552 12.8757 29.472C12.8757 25.908 17.2677 17.196 26.1237 9.744C20.5797 11.508 1.89573 14.64 1.89573 17.196L1.93173 17.376C1.93173 17.52 1.82373 17.628 1.71573 17.628C1.57173 17.628 1.46373 17.52 1.42773 17.304V17.16C1.42773 13.632 22.5597 10.932 27.6357 8.484L27.8157 8.448C28.1037 8.448 28.6077 8.736 28.6077 9.06C28.6077 9.168 28.5357 9.276 28.3557 9.384C26.4477 10.608 22.3797 14.784 19.3917 19.032C16.3677 23.316 14.0277 27.708 14.0277 29.436C14.0277 29.904 14.2077 30.156 14.6037 30.156C14.8917 30.156 15.3597 29.976 15.9357 29.616C21.6237 26.124 32.0277 14.568 34.2237 13.74H34.3317C34.7277 13.74 35.4477 14.136 35.4477 14.424L35.4117 14.496C31.7397 19.536 29.1837 30.012 29.1837 35.376C29.1837 37.392 29.5437 38.688 30.3717 38.688C35.5917 38.508 52.3317 5.46 64.0317 0.563999C64.1397 0.527997 64.2117 0.527997 64.2477 0.527997C64.3917 0.527997 64.4637 0.563999 64.4637 0.635998C64.4637 0.707999 64.3917 0.815998 64.2477 0.851998C53.7357 4.956 36.0237 39.804 30.1197 39.804ZM50.3711 29.076C49.9751 29.076 49.6151 29.004 49.2911 28.86C48.5351 28.536 48.2471 27.816 48.2471 26.988C48.2471 26.16 48.5351 25.296 48.9311 24.576C50.3711 22.02 52.1351 21.228 53.2511 21.228C53.8991 21.228 54.3311 21.48 54.3311 21.84C54.3311 22.74 52.7471 24.216 49.7951 24.792C49.3271 25.728 49.1471 26.448 49.1471 26.988C49.1471 27.996 49.7591 28.428 50.5871 28.464H50.7671C53.4671 28.464 58.3631 25.404 61.6031 22.992L61.7831 22.92C61.8551 22.92 61.9271 22.992 61.9271 23.028C61.9271 23.1 61.8911 23.172 61.7831 23.244C58.2911 25.908 53.2511 29.076 50.3711 29.076ZM50.0831 24.252C51.7751 24.108 53.9351 22.776 53.9351 22.092C53.9351 22.02 53.8991 21.948 53.8271 21.876C53.7551 21.804 53.6111 21.732 53.4311 21.732C52.7111 21.732 51.3071 22.416 50.0831 24.252ZM67.2689 31.272C66.3689 31.272 65.4689 30.696 65.4689 29.004C65.4689 28.032 65.7929 26.7 66.6569 25.044C64.0289 27.06 62.1929 27.816 61.1129 27.816C60.1049 27.816 59.6729 27.24 59.6729 26.412C59.6729 24.36 62.4449 21.12 65.5049 21.12C66.6209 21.12 67.5569 21.624 67.7729 22.992C69.3569 19.86 80.3009 4.632 83.6129 4.632C84.0089 4.632 84.3329 4.812 84.3329 5.352C84.3329 6.756 82.2449 10.464 77.2409 15.612C74.2889 18.636 71.3009 21.66 68.2049 23.964C66.8009 26.484 66.3329 28.212 66.3329 29.292C66.3329 30.444 66.8369 30.804 67.4489 30.804C70.2209 30.804 77.3849 24.108 80.3009 22.92L80.4089 22.884C80.5529 22.884 80.5889 22.992 80.5889 23.064C80.5889 23.136 80.5529 23.208 80.4809 23.244C77.1329 24.684 70.6169 31.272 67.2689 31.272ZM61.2929 27.24C62.4449 27.24 64.8569 25.908 67.2329 23.892V23.676C67.2329 22.308 66.5489 21.84 65.6849 21.84C64.7129 21.84 63.5249 22.416 62.7689 23.136C61.6889 24.108 60.7529 25.908 60.7529 26.772C60.7529 26.988 60.8249 27.168 61.0049 27.204L61.2929 27.24ZM68.8529 22.776C70.8329 21.264 75.9449 16.548 79.6529 12.264C82.1729 9.276 83.9369 6.396 83.9369 5.352C83.9369 5.136 83.9009 4.992 83.6849 4.992C83.3249 4.992 82.4969 5.604 81.4889 6.576C77.7089 10.284 71.1569 19.248 68.8529 22.776ZM85.9369 31.272C85.0369 31.272 84.1369 30.696 84.1369 29.004C84.1369 28.032 84.4609 26.7 85.3249 25.044C82.6969 27.06 80.8609 27.816 79.7809 27.816C78.7729 27.816 78.3409 27.24 78.3409 26.412C78.3409 24.36 81.1129 21.12 84.1729 21.12C85.2889 21.12 86.2249 21.624 86.4409 22.992C88.0249 19.86 98.9689 4.632 102.281 4.632C102.677 4.632 103.001 4.812 103.001 5.352C103.001 6.756 100.913 10.464 95.9089 15.612C92.9569 18.636 89.9689 21.66 86.8729 23.964C85.4689 26.484 85.0009 28.212 85.0009 29.292C85.0009 30.444 85.5049 30.804 86.1169 30.804C88.8889 30.804 96.0529 24.108 98.9689 22.92L99.0769 22.884C99.2209 22.884 99.2569 22.992 99.2569 23.064C99.2569 23.136 99.2209 23.208 99.1489 23.244C95.8009 24.684 89.2849 31.272 85.9369 31.272ZM79.9609 27.24C81.1129 27.24 83.5249 25.908 85.9009 23.892V23.676C85.9009 22.308 85.2169 21.84 84.3529 21.84C83.3809 21.84 82.1929 22.416 81.4369 23.136C80.3569 24.108 79.4209 25.908 79.4209 26.772C79.4209 26.988 79.4929 27.168 79.6729 27.204L79.9609 27.24ZM87.5209 22.776C89.5009 21.264 94.6129 16.548 98.3209 12.264C100.841 9.276 102.605 6.396 102.605 5.352C102.605 5.136 102.569 4.992 102.353 4.992C101.993 4.992 101.165 5.604 100.157 6.576C96.3769 10.284 89.8249 19.248 87.5209 22.776ZM102.445 19.788C102.265 19.788 102.085 19.752 101.977 19.68C101.833 19.572 101.725 19.392 101.725 19.212C101.725 19.068 101.797 18.888 101.869 18.78C102.013 18.636 102.121 18.6 102.265 18.6C102.481 18.6 102.661 18.708 102.769 18.852C102.877 18.96 102.985 19.104 102.985 19.284C102.985 19.392 102.949 19.5 102.877 19.608C102.805 19.752 102.625 19.788 102.445 19.788ZM98.5569 29.292C98.3409 29.292 98.0889 29.256 97.9089 29.148C97.3329 28.824 97.0809 28.248 97.0809 27.564C97.0809 25.332 99.5649 21.732 100.537 20.652C100.609 20.58 100.681 20.544 100.753 20.544C101.005 20.544 101.257 20.796 101.257 21.012L101.185 21.156C99.8169 22.704 97.6929 25.872 97.6929 27.564C97.6929 28.068 97.8729 28.428 98.2329 28.608C98.3769 28.68 98.5569 28.716 98.7729 28.716C101.185 28.716 106.801 23.748 109.033 22.956L109.213 22.92C109.321 22.92 109.393 22.956 109.393 23.028C109.393 23.1 109.321 23.208 109.141 23.244C106.909 24.072 101.221 29.292 98.5569 29.292ZM105.622 30.012C105.478 30.012 105.334 29.868 105.334 29.688V29.58C105.658 28.716 105.91 27.888 106.666 26.628C107.89 24.54 109.186 22.56 109.402 22.308C109.51 22.2 109.582 22.164 109.69 22.164C109.906 22.164 110.158 22.38 110.158 22.56C110.158 22.596 110.122 22.668 110.086 22.704C108.646 24.648 107.026 27.024 105.946 29.184C106.918 28.068 111.022 23.568 112.714 23.568C112.858 23.568 112.966 23.568 113.074 23.64C113.182 23.712 113.326 23.748 113.326 24L113.29 24.252C113.182 24.756 113.11 25.368 113.11 25.98C113.11 27.564 113.578 29.148 114.91 29.184C117.538 29.184 122.794 24.144 124.99 22.92H125.098C125.17 22.92 125.242 22.956 125.242 23.028C125.242 23.064 125.206 23.1 125.134 23.136C122.614 24.828 117.466 29.688 114.766 29.688H114.694C112.426 29.616 112.102 27.06 112.102 25.26V24.432C109.654 25.836 106.954 28.788 105.802 29.94L105.622 30.012ZM110.066 52.296C109.85 52.296 109.67 52.296 109.454 52.224C108.482 51.936 108.086 51.324 108.086 50.496C108.086 47.4 113.702 41.388 115.106 39.984C121.586 33.576 127.526 29.508 128.102 29.076L130.982 24.252C129.65 25.548 126.23 27.816 124.322 27.816C123.926 27.816 123.566 27.672 123.314 27.42C123.026 27.096 122.918 26.7 122.918 26.304C122.918 25.008 124.07 23.496 125.078 22.74C126.23 21.912 127.49 21.444 128.714 21.444C129.902 21.444 130.982 21.876 131.81 22.848C132.098 22.452 132.314 22.02 132.494 21.876C132.53 21.84 132.602 21.804 132.674 21.804C132.89 21.804 133.178 21.912 133.178 22.092L133.142 22.164C132.062 24.108 130.694 26.448 129.542 28.356C131.522 27.096 134.834 25.26 138.722 22.956L138.83 22.92C138.902 22.92 138.974 22.992 138.974 23.064L138.902 23.208C135.014 25.656 132.71 26.7 128.966 29.292L126.95 32.64C125.258 35.592 115.466 52.296 110.066 52.296ZM110.246 51.756C115.358 51.756 124.79 34.62 127.454 30.12C123.926 32.64 119.246 36.492 115.466 40.344C113.882 41.964 108.626 47.652 108.626 50.352C108.626 51 108.914 51.468 109.67 51.684C109.85 51.72 110.03 51.756 110.246 51.756ZM124.682 27.24C126.41 27.24 130.154 24.576 131.558 23.244C130.766 22.308 129.902 21.948 129.074 21.948C127.85 21.948 126.662 22.704 125.582 23.604C124.934 24.144 123.746 25.44 123.746 26.412C123.746 26.628 123.818 26.808 123.962 26.988C124.142 27.168 124.358 27.24 124.682 27.24Z"/>
</mask>
<path d="M30.1197 39.804C29.2557 39.804 28.6437 39.048 28.3197 37.32C28.1757 36.492 28.1397 35.556 28.1397 34.548C28.1397 28.5 30.5517 19.752 33.1437 15.324C31.0917 16.584 20.2197 28.752 14.8557 30.948C14.5317 31.092 14.2797 31.128 14.0277 31.128C13.2717 31.128 12.8757 30.552 12.8757 29.472C12.8757 25.908 17.2677 17.196 26.1237 9.744C20.5797 11.508 1.89573 14.64 1.89573 17.196L1.93173 17.376C1.93173 17.52 1.82373 17.628 1.71573 17.628C1.57173 17.628 1.46373 17.52 1.42773 17.304V17.16C1.42773 13.632 22.5597 10.932 27.6357 8.484L27.8157 8.448C28.1037 8.448 28.6077 8.736 28.6077 9.06C28.6077 9.168 28.5357 9.276 28.3557 9.384C26.4477 10.608 22.3797 14.784 19.3917 19.032C16.3677 23.316 14.0277 27.708 14.0277 29.436C14.0277 29.904 14.2077 30.156 14.6037 30.156C14.8917 30.156 15.3597 29.976 15.9357 29.616C21.6237 26.124 32.0277 14.568 34.2237 13.74H34.3317C34.7277 13.74 35.4477 14.136 35.4477 14.424L35.4117 14.496C31.7397 19.536 29.1837 30.012 29.1837 35.376C29.1837 37.392 29.5437 38.688 30.3717 38.688C35.5917 38.508 52.3317 5.46 64.0317 0.563999C64.1397 0.527997 64.2117 0.527997 64.2477 0.527997C64.3917 0.527997 64.4637 0.563999 64.4637 0.635998C64.4637 0.707999 64.3917 0.815998 64.2477 0.851998C53.7357 4.956 36.0237 39.804 30.1197 39.804ZM50.3711 29.076C49.9751 29.076 49.6151 29.004 49.2911 28.86C48.5351 28.536 48.2471 27.816 48.2471 26.988C48.2471 26.16 48.5351 25.296 48.9311 24.576C50.3711 22.02 52.1351 21.228 53.2511 21.228C53.8991 21.228 54.3311 21.48 54.3311 21.84C54.3311 22.74 52.7471 24.216 49.7951 24.792C49.3271 25.728 49.1471 26.448 49.1471 26.988C49.1471 27.996 49.7591 28.428 50.5871 28.464H50.7671C53.4671 28.464 58.3631 25.404 61.6031 22.992L61.7831 22.92C61.8551 22.92 61.9271 22.992 61.9271 23.028C61.9271 23.1 61.8911 23.172 61.7831 23.244C58.2911 25.908 53.2511 29.076 50.3711 29.076ZM50.0831 24.252C51.7751 24.108 53.9351 22.776 53.9351 22.092C53.9351 22.02 53.8991 21.948 53.8271 21.876C53.7551 21.804 53.6111 21.732 53.4311 21.732C52.7111 21.732 51.3071 22.416 50.0831 24.252ZM67.2689 31.272C66.3689 31.272 65.4689 30.696 65.4689 29.004C65.4689 28.032 65.7929 26.7 66.6569 25.044C64.0289 27.06 62.1929 27.816 61.1129 27.816C60.1049 27.816 59.6729 27.24 59.6729 26.412C59.6729 24.36 62.4449 21.12 65.5049 21.12C66.6209 21.12 67.5569 21.624 67.7729 22.992C69.3569 19.86 80.3009 4.632 83.6129 4.632C84.0089 4.632 84.3329 4.812 84.3329 5.352C84.3329 6.756 82.2449 10.464 77.2409 15.612C74.2889 18.636 71.3009 21.66 68.2049 23.964C66.8009 26.484 66.3329 28.212 66.3329 29.292C66.3329 30.444 66.8369 30.804 67.4489 30.804C70.2209 30.804 77.3849 24.108 80.3009 22.92L80.4089 22.884C80.5529 22.884 80.5889 22.992 80.5889 23.064C80.5889 23.136 80.5529 23.208 80.4809 23.244C77.1329 24.684 70.6169 31.272 67.2689 31.272ZM61.2929 27.24C62.4449 27.24 64.8569 25.908 67.2329 23.892V23.676C67.2329 22.308 66.5489 21.84 65.6849 21.84C64.7129 21.84 63.5249 22.416 62.7689 23.136C61.6889 24.108 60.7529 25.908 60.7529 26.772C60.7529 26.988 60.8249 27.168 61.0049 27.204L61.2929 27.24ZM68.8529 22.776C70.8329 21.264 75.9449 16.548 79.6529 12.264C82.1729 9.276 83.9369 6.396 83.9369 5.352C83.9369 5.136 83.9009 4.992 83.6849 4.992C83.3249 4.992 82.4969 5.604 81.4889 6.576C77.7089 10.284 71.1569 19.248 68.8529 22.776ZM85.9369 31.272C85.0369 31.272 84.1369 30.696 84.1369 29.004C84.1369 28.032 84.4609 26.7 85.3249 25.044C82.6969 27.06 80.8609 27.816 79.7809 27.816C78.7729 27.816 78.3409 27.24 78.3409 26.412C78.3409 24.36 81.1129 21.12 84.1729 21.12C85.2889 21.12 86.2249 21.624 86.4409 22.992C88.0249 19.86 98.9689 4.632 102.281 4.632C102.677 4.632 103.001 4.812 103.001 5.352C103.001 6.756 100.913 10.464 95.9089 15.612C92.9569 18.636 89.9689 21.66 86.8729 23.964C85.4689 26.484 85.0009 28.212 85.0009 29.292C85.0009 30.444 85.5049 30.804 86.1169 30.804C88.8889 30.804 96.0529 24.108 98.9689 22.92L99.0769 22.884C99.2209 22.884 99.2569 22.992 99.2569 23.064C99.2569 23.136 99.2209 23.208 99.1489 23.244C95.8009 24.684 89.2849 31.272 85.9369 31.272ZM79.9609 27.24C81.1129 27.24 83.5249 25.908 85.9009 23.892V23.676C85.9009 22.308 85.2169 21.84 84.3529 21.84C83.3809 21.84 82.1929 22.416 81.4369 23.136C80.3569 24.108 79.4209 25.908 79.4209 26.772C79.4209 26.988 79.4929 27.168 79.6729 27.204L79.9609 27.24ZM87.5209 22.776C89.5009 21.264 94.6129 16.548 98.3209 12.264C100.841 9.276 102.605 6.396 102.605 5.352C102.605 5.136 102.569 4.992 102.353 4.992C101.993 4.992 101.165 5.604 100.157 6.576C96.3769 10.284 89.8249 19.248 87.5209 22.776ZM102.445 19.788C102.265 19.788 102.085 19.752 101.977 19.68C101.833 19.572 101.725 19.392 101.725 19.212C101.725 19.068 101.797 18.888 101.869 18.78C102.013 18.636 102.121 18.6 102.265 18.6C102.481 18.6 102.661 18.708 102.769 18.852C102.877 18.96 102.985 19.104 102.985 19.284C102.985 19.392 102.949 19.5 102.877 19.608C102.805 19.752 102.625 19.788 102.445 19.788ZM98.5569 29.292C98.3409 29.292 98.0889 29.256 97.9089 29.148C97.3329 28.824 97.0809 28.248 97.0809 27.564C97.0809 25.332 99.5649 21.732 100.537 20.652C100.609 20.58 100.681 20.544 100.753 20.544C101.005 20.544 101.257 20.796 101.257 21.012L101.185 21.156C99.8169 22.704 97.6929 25.872 97.6929 27.564C97.6929 28.068 97.8729 28.428 98.2329 28.608C98.3769 28.68 98.5569 28.716 98.7729 28.716C101.185 28.716 106.801 23.748 109.033 22.956L109.213 22.92C109.321 22.92 109.393 22.956 109.393 23.028C109.393 23.1 109.321 23.208 109.141 23.244C106.909 24.072 101.221 29.292 98.5569 29.292ZM105.622 30.012C105.478 30.012 105.334 29.868 105.334 29.688V29.58C105.658 28.716 105.91 27.888 106.666 26.628C107.89 24.54 109.186 22.56 109.402 22.308C109.51 22.2 109.582 22.164 109.69 22.164C109.906 22.164 110.158 22.38 110.158 22.56C110.158 22.596 110.122 22.668 110.086 22.704C108.646 24.648 107.026 27.024 105.946 29.184C106.918 28.068 111.022 23.568 112.714 23.568C112.858 23.568 112.966 23.568 113.074 23.64C113.182 23.712 113.326 23.748 113.326 24L113.29 24.252C113.182 24.756 113.11 25.368 113.11 25.98C113.11 27.564 113.578 29.148 114.91 29.184C117.538 29.184 122.794 24.144 124.99 22.92H125.098C125.17 22.92 125.242 22.956 125.242 23.028C125.242 23.064 125.206 23.1 125.134 23.136C122.614 24.828 117.466 29.688 114.766 29.688H114.694C112.426 29.616 112.102 27.06 112.102 25.26V24.432C109.654 25.836 106.954 28.788 105.802 29.94L105.622 30.012ZM110.066 52.296C109.85 52.296 109.67 52.296 109.454 52.224C108.482 51.936 108.086 51.324 108.086 50.496C108.086 47.4 113.702 41.388 115.106 39.984C121.586 33.576 127.526 29.508 128.102 29.076L130.982 24.252C129.65 25.548 126.23 27.816 124.322 27.816C123.926 27.816 123.566 27.672 123.314 27.42C123.026 27.096 122.918 26.7 122.918 26.304C122.918 25.008 124.07 23.496 125.078 22.74C126.23 21.912 127.49 21.444 128.714 21.444C129.902 21.444 130.982 21.876 131.81 22.848C132.098 22.452 132.314 22.02 132.494 21.876C132.53 21.84 132.602 21.804 132.674 21.804C132.89 21.804 133.178 21.912 133.178 22.092L133.142 22.164C132.062 24.108 130.694 26.448 129.542 28.356C131.522 27.096 134.834 25.26 138.722 22.956L138.83 22.92C138.902 22.92 138.974 22.992 138.974 23.064L138.902 23.208C135.014 25.656 132.71 26.7 128.966 29.292L126.95 32.64C125.258 35.592 115.466 52.296 110.066 52.296ZM110.246 51.756C115.358 51.756 124.79 34.62 127.454 30.12C123.926 32.64 119.246 36.492 115.466 40.344C113.882 41.964 108.626 47.652 108.626 50.352C108.626 51 108.914 51.468 109.67 51.684C109.85 51.72 110.03 51.756 110.246 51.756ZM124.682 27.24C126.41 27.24 130.154 24.576 131.558 23.244C130.766 22.308 129.902 21.948 129.074 21.948C127.85 21.948 126.662 22.704 125.582 23.604C124.934 24.144 123.746 25.44 123.746 26.412C123.746 26.628 123.818 26.808 123.962 26.988C124.142 27.168 124.358 27.24 124.682 27.24Z" fill="#8B9B68"/>
<path d="M28.3197 37.32L27.8271 37.4057L27.8283 37.4121L28.3197 37.32ZM33.1437 15.324L33.5752 15.5766L32.8821 14.8979L33.1437 15.324ZM14.8557 30.948L14.6663 30.4853L14.6594 30.4881L14.6527 30.4911L14.8557 30.948ZM26.1237 9.744L26.4457 10.1266L25.9721 9.26754L26.1237 9.744ZM1.89573 17.196H1.39573V17.2455L1.40544 17.2941L1.89573 17.196ZM1.93173 17.376H2.43173V17.3265L2.42202 17.2779L1.93173 17.376ZM1.42773 17.304H0.927734V17.3454L0.934537 17.3862L1.42773 17.304ZM27.6357 8.484L27.5377 7.99371L27.4756 8.00613L27.4185 8.03364L27.6357 8.484ZM27.8157 8.448V7.948H27.7662L27.7177 7.95771L27.8157 8.448ZM28.3557 9.384L28.0985 8.95525L28.0921 8.95911L28.0858 8.96315L28.3557 9.384ZM19.3917 19.032L19.8002 19.3203L19.8007 19.3197L19.3917 19.032ZM15.9357 29.616L15.6741 29.1899L15.6707 29.192L15.9357 29.616ZM34.2237 13.74V13.24H34.1326L34.0473 13.2722L34.2237 13.74ZM35.4477 14.424L35.895 14.6476L35.9477 14.542V14.424H35.4477ZM35.4117 14.496L35.8159 14.7904L35.8404 14.7568L35.859 14.7196L35.4117 14.496ZM30.3717 38.688V39.188H30.3804L30.389 39.1877L30.3717 38.688ZM64.0317 0.563999L63.8736 0.0896594L63.8559 0.0955566L63.8387 0.102755L64.0317 0.563999ZM64.2477 0.851998L64.1265 0.366926L64.0956 0.374651L64.0659 0.386235L64.2477 0.851998ZM30.1197 39.804V39.304C29.8629 39.304 29.6362 39.2041 29.4183 38.9114C29.1828 38.595 28.9673 38.0604 28.8112 37.2279L28.3197 37.32L27.8283 37.4121C27.9962 38.3076 28.2487 39.015 28.6162 39.5086C29.0013 40.0259 29.5126 40.304 30.1197 40.304V39.804ZM28.3197 37.32L28.8123 37.2343C28.6759 36.45 28.6397 35.549 28.6397 34.548H28.1397H27.6397C27.6397 35.563 27.6755 36.534 27.8271 37.4057L28.3197 37.32ZM28.1397 34.548H28.6397C28.6397 31.5811 29.2329 27.9272 30.153 24.4566C31.0737 20.984 32.3105 17.7372 33.5752 15.5766L33.1437 15.324L32.7122 15.0714C31.385 17.3387 30.1198 20.68 29.1864 24.2004C28.2526 27.7228 27.6397 31.4669 27.6397 34.548H28.1397ZM33.1437 15.324L32.8821 14.8979C32.5802 15.0833 32.1535 15.4422 31.6527 15.8968C31.1419 16.3604 30.5229 16.9527 29.8264 17.6294C28.429 18.9873 26.7174 20.6878 24.8968 22.4231C23.0776 24.1569 21.1626 25.9127 19.372 27.3697C17.5711 28.8351 15.9342 29.9662 14.6663 30.4853L14.8557 30.948L15.0452 31.4107C16.4592 30.8318 18.1929 29.6184 20.0032 28.1453C21.8239 26.6638 23.7609 24.8871 25.5867 23.1469C27.411 21.4082 29.1375 19.6932 30.5233 18.3466C31.2185 17.6711 31.8274 17.0888 32.3248 16.6373C32.8323 16.1766 33.1943 15.8797 33.4054 15.7501L33.1437 15.324ZM14.8557 30.948L14.6527 30.4911C14.3997 30.6035 14.218 30.628 14.0277 30.628V31.128V31.628C14.3415 31.628 14.6638 31.5805 15.0588 31.4049L14.8557 30.948ZM14.0277 31.128V30.628C13.7958 30.628 13.6694 30.5503 13.5791 30.4201C13.4683 30.2603 13.3757 29.9643 13.3757 29.472H12.8757H12.3757C12.3757 30.0597 12.4812 30.5917 12.7574 30.9899C13.0541 31.4177 13.5037 31.628 14.0277 31.628V31.128ZM12.8757 29.472H13.3757C13.3757 28.6686 13.627 27.5215 14.1672 26.1129C14.7042 24.7128 15.5148 23.0851 16.6036 21.3295C18.7813 17.8187 22.0587 13.818 26.4457 10.1266L26.1237 9.744L25.8018 9.36142C21.3328 13.122 17.9862 17.2033 15.7538 20.8025C14.6377 22.6019 13.7968 24.2862 13.2335 25.7548C12.6735 27.215 12.3757 28.4934 12.3757 29.472H12.8757ZM26.1237 9.744L25.9721 9.26754C23.2187 10.1436 17.2196 11.3535 11.811 12.6875C9.12682 13.3496 6.59468 14.0414 4.72812 14.7325C3.79803 15.0769 3.00696 15.4304 2.43998 15.7931C2.15688 15.9742 1.90782 16.1711 1.72479 16.388C1.54183 16.6048 1.39573 16.8773 1.39573 17.196H1.89573H2.39573C2.39573 17.1952 2.39561 17.1437 2.48905 17.0329C2.58241 16.9223 2.74018 16.7881 2.9788 16.6355C3.45526 16.3308 4.16719 16.0065 5.07534 15.6703C6.88529 15.0001 9.37065 14.3194 12.0505 13.6585C17.3699 12.3464 23.4847 11.1084 26.2753 10.2205L26.1237 9.744ZM1.89573 17.196L1.40544 17.2941L1.44144 17.4741L1.93173 17.376L2.42202 17.2779L2.38602 17.0979L1.89573 17.196ZM1.93173 17.376H1.43173C1.43173 17.3213 1.45261 17.2659 1.49259 17.2215C1.52877 17.1813 1.60297 17.128 1.71573 17.128V17.628V18.128C2.14813 18.128 2.43173 17.7453 2.43173 17.376H1.93173ZM1.71573 17.628V17.128C1.74333 17.128 1.77827 17.1334 1.81502 17.1495C1.85192 17.1656 1.8803 17.1879 1.89981 17.2091C1.93605 17.2487 1.92881 17.2691 1.92093 17.2218L1.42773 17.304L0.934537 17.3862C0.962658 17.5549 1.02742 17.7373 1.16266 17.8849C1.30832 18.0438 1.50575 18.128 1.71573 18.128V17.628ZM1.42773 17.304H1.92773V17.16H1.42773H0.927734V17.304H1.42773ZM1.42773 17.16H1.92773C1.92773 16.9782 2.07264 16.6807 2.63464 16.2827C3.17142 15.9026 3.97088 15.5158 4.98743 15.1273C7.01471 14.3525 9.78683 13.614 12.7451 12.9032C14.2213 12.5484 15.7375 12.202 17.2241 11.8621C18.7096 11.5225 20.1658 11.1893 21.517 10.8622C24.2006 10.2124 26.5273 9.57365 27.8529 8.93436L27.6357 8.484L27.4185 8.03364C26.2061 8.61835 23.9878 9.23506 21.2816 9.89029C19.9378 10.2157 18.4879 10.5474 17.0013 10.8873C15.5158 11.2269 13.994 11.5746 12.5114 11.9308C9.55214 12.642 6.72401 13.393 4.63042 14.1932C3.58653 14.5922 2.6954 15.0143 2.05669 15.4667C1.44321 15.9011 0.927734 16.4598 0.927734 17.16H1.42773ZM27.6357 8.484L27.7338 8.97429L27.9138 8.93829L27.8157 8.448L27.7177 7.95771L27.5377 7.99371L27.6357 8.484ZM27.8157 8.448V8.948C27.8119 8.948 27.8376 8.94876 27.8894 8.96769C27.9375 8.98527 27.9892 9.01172 28.0345 9.04318C28.0813 9.07562 28.1071 9.1036 28.1174 9.11801C28.1277 9.13239 28.1077 9.11155 28.1077 9.06H28.6077H29.1077C29.1077 8.64457 28.8056 8.36113 28.6049 8.22181C28.3881 8.07121 28.0919 7.948 27.8157 7.948V8.448ZM28.6077 9.06H28.1077C28.1077 9.03012 28.1129 9.00066 28.1224 8.97407C28.1316 8.94811 28.1427 8.93078 28.1492 8.922C28.1602 8.9074 28.1545 8.92163 28.0985 8.95525L28.3557 9.384L28.613 9.81274C28.85 9.67054 29.1077 9.43054 29.1077 9.06H28.6077ZM28.3557 9.384L28.0858 8.96315C27.0775 9.60999 25.5488 10.9979 23.9149 12.731C22.272 14.4737 20.4924 16.5981 18.9828 18.7443L19.3917 19.032L19.8007 19.3197C21.2791 17.2179 23.0274 15.1303 24.6426 13.417C26.2667 11.6941 27.726 10.382 28.6257 9.80485L28.3557 9.384ZM19.3917 19.032L18.9833 18.7437C17.4611 20.9 16.1077 23.0882 15.1323 24.9616C14.6447 25.8979 14.2478 26.7628 13.9716 27.5105C13.6998 28.2461 13.5277 28.9126 13.5277 29.436H14.0277H14.5277C14.5277 29.0954 14.6481 28.5649 14.9096 27.8571C15.1666 27.1615 15.5437 26.3366 16.0192 25.4234C16.9698 23.5978 18.2983 21.448 19.8002 19.3203L19.3917 19.032ZM14.0277 29.436H13.5277C13.5277 29.7199 13.5799 30.0307 13.7726 30.2785C13.9842 30.5505 14.2919 30.656 14.6037 30.656V30.156V29.656C14.5569 29.656 14.5407 29.6485 14.5428 29.6494C14.548 29.6516 14.5568 29.6579 14.5619 29.6645C14.565 29.6685 14.556 29.659 14.5462 29.6211C14.5362 29.5824 14.5277 29.5226 14.5277 29.436H14.0277ZM14.6037 30.156V30.656C14.8389 30.656 15.096 30.5858 15.3474 30.4852C15.6066 30.3816 15.8944 30.2315 16.2007 30.04L15.9357 29.616L15.6707 29.192C15.4011 29.3605 15.1669 29.4804 14.976 29.5568C14.7775 29.6362 14.6565 29.656 14.6037 29.656V30.156ZM15.9357 29.616L16.1973 30.0421C19.0969 28.262 23.1624 24.4559 26.7348 21.0404C28.5323 19.3218 30.2094 17.6973 31.5769 16.448C32.2605 15.8236 32.8594 15.2995 33.3519 14.9081C33.8605 14.5038 34.2078 14.2804 34.4001 14.2078L34.2237 13.74L34.0473 13.2722C33.6907 13.4066 33.2325 13.7255 32.7296 14.1253C32.2105 14.5379 31.5919 15.0798 30.9024 15.7097C29.5238 16.9692 27.8327 18.6072 26.0437 20.3176C22.443 23.7601 18.4625 27.478 15.6741 29.1899L15.9357 29.616ZM34.2237 13.74V14.24H34.3317V13.74V13.24H34.2237V13.74ZM34.3317 13.74V14.24C34.3566 14.24 34.4187 14.2482 34.5131 14.2801C34.6026 14.3103 34.6985 14.3542 34.7847 14.405C34.8735 14.4572 34.9346 14.5063 34.9664 14.5399C35.0136 14.5896 34.9477 14.548 34.9477 14.424H35.4477H35.9477C35.9477 14.156 35.7918 13.9569 35.6917 13.8514C35.5761 13.7297 35.4324 13.6258 35.2917 13.543C35.025 13.3862 34.6557 13.24 34.3317 13.24V13.74ZM35.4477 14.424L35.0005 14.2004L34.9645 14.2724L35.4117 14.496L35.859 14.7196L35.895 14.6476L35.4477 14.424ZM35.4117 14.496L35.0076 14.2016C33.1197 16.7928 31.5432 20.7388 30.4393 24.6796C29.3341 28.6249 28.6837 32.6328 28.6837 35.376H29.1837H29.6837C29.6837 32.7552 30.3114 28.8431 31.4022 24.9494C32.4942 21.0512 34.0317 17.2392 35.8159 14.7904L35.4117 14.496ZM29.1837 35.376H28.6837C28.6837 36.4016 28.7738 37.294 28.9933 37.9472C29.2053 38.5783 29.6197 39.188 30.3717 39.188V38.688V38.188C30.2958 38.188 30.1162 38.1497 29.9412 37.6288C29.7736 37.13 29.6837 36.3664 29.6837 35.376H29.1837ZM30.3717 38.688L30.389 39.1877C30.8379 39.1722 31.2958 38.9847 31.7431 38.7101C32.1959 38.432 32.6772 38.04 33.1811 37.5616C34.189 36.6049 35.3351 35.2563 36.5828 33.6505C39.0781 30.4387 42.0376 26.1207 45.1798 21.6835C48.3292 17.236 51.6693 12.6583 54.9477 8.88921C58.2401 5.10413 61.4153 2.20089 64.2248 1.02524L64.0317 0.563999L63.8387 0.102755C60.7982 1.37511 57.4934 4.43886 54.1932 8.23292C50.8792 12.043 47.5142 16.6565 44.3637 21.1055C41.2059 25.5648 38.2703 29.8485 35.7931 33.0369C34.5546 34.6311 33.4451 35.9322 32.4927 36.8364C32.0164 37.2884 31.5914 37.6297 31.2198 37.8579C30.8426 38.0895 30.5581 38.1813 30.3545 38.1883L30.3717 38.688ZM64.0317 0.563999L64.1899 1.03834C64.2115 1.03112 64.2243 1.0292 64.2288 1.02864C64.2313 1.02832 64.2331 1.0282 64.2348 1.02813C64.2369 1.02804 64.239 1.028 64.2477 1.028V0.527997V0.0279975C64.1854 0.0279975 64.0534 0.0297412 63.8736 0.0896594L64.0317 0.563999ZM64.2477 0.527997V1.028C64.2942 1.028 64.2546 1.03645 64.1861 1.00221C64.1448 0.981551 64.0838 0.940462 64.0342 0.866096C63.9825 0.7886 63.9637 0.705491 63.9637 0.635998H64.4637H64.9637C64.9637 0.530506 64.9359 0.415898 64.8663 0.311401C64.7987 0.210035 64.7107 0.146446 64.6333 0.107787C64.4929 0.0375446 64.3453 0.0279975 64.2477 0.0279975V0.527997ZM64.4637 0.635998H63.9637C63.9637 0.573339 63.9786 0.525969 63.9913 0.496608C64.0047 0.46557 64.0209 0.442286 64.036 0.425318C64.0674 0.390048 64.1016 0.373145 64.1265 0.366926L64.2477 0.851998L64.369 1.33707C64.6812 1.25902 64.9637 0.989101 64.9637 0.635998H64.4637ZM64.2477 0.851998L64.0659 0.386235C62.6714 0.930655 61.1929 1.96868 59.6717 3.33162C58.1458 4.69877 56.5518 6.41597 54.928 8.34791C51.6811 12.2109 48.2855 16.9686 45.0466 21.5796C41.8008 26.2003 38.7166 30.6673 36.0737 33.9832C34.7519 35.6417 33.555 36.9935 32.516 37.9266C31.9967 38.393 31.529 38.7437 31.1158 38.9756C30.6987 39.2097 30.3701 39.304 30.1197 39.304V39.804V40.304C30.6074 40.304 31.1091 40.1261 31.6052 39.8477C32.1052 39.5671 32.6337 39.1651 33.1842 38.6706C34.285 37.6819 35.5226 36.2792 36.8557 34.6065C39.5229 31.2602 42.6307 26.7587 45.8649 22.1544C49.1059 17.5404 52.4784 12.8166 55.6935 8.99133C57.3007 7.07915 58.8611 5.40054 60.339 4.07641C61.8216 2.74807 63.1961 1.79934 64.4296 1.31776L64.2477 0.851998ZM49.2911 28.86L49.4942 28.4031L49.4881 28.4004L49.2911 28.86ZM48.9311 24.576L48.4955 24.3306L48.493 24.335L48.9311 24.576ZM49.7951 24.792L49.6994 24.3013L49.4579 24.3484L49.3479 24.5684L49.7951 24.792ZM50.5871 28.464L50.5654 28.9635L50.5763 28.964H50.5871V28.464ZM61.6031 22.992L61.4174 22.5278L61.3569 22.552L61.3046 22.5909L61.6031 22.992ZM61.7831 22.92V22.42H61.6869L61.5974 22.4558L61.7831 22.92ZM61.7831 23.244L61.5058 22.828L61.4925 22.8368L61.4799 22.8465L61.7831 23.244ZM50.0831 24.252L49.6671 23.9746L49.0914 24.8382L50.1255 24.7502L50.0831 24.252ZM53.8271 21.876L54.1807 21.5224L54.1807 21.5224L53.8271 21.876ZM50.3711 29.076V28.576C50.0369 28.576 49.7472 28.5155 49.4942 28.4031L49.2911 28.86L49.0881 29.3169C49.4831 29.4925 49.9134 29.576 50.3711 29.576V29.076ZM49.2911 28.86L49.4881 28.4004C48.9887 28.1864 48.7471 27.7094 48.7471 26.988H48.2471H47.7471C47.7471 27.9226 48.0816 28.8856 49.0942 29.3196L49.2911 28.86ZM48.2471 26.988H48.7471C48.7471 26.2679 49.0007 25.4871 49.3692 24.817L48.9311 24.576L48.493 24.335C48.0696 25.1049 47.7471 26.0521 47.7471 26.988H48.2471ZM48.9311 24.576L49.3668 24.8214C50.7457 22.3739 52.3655 21.728 53.2511 21.728V21.228V20.728C51.9048 20.728 49.9966 21.6661 48.4955 24.3306L48.9311 24.576ZM53.2511 21.228V21.728C53.5185 21.728 53.6952 21.7812 53.7861 21.8331C53.8709 21.8816 53.8311 21.8918 53.8311 21.84H54.3311H54.8311C54.8311 21.4282 54.5754 21.1324 54.2822 20.9649C53.9951 20.8008 53.6318 20.728 53.2511 20.728V21.228ZM54.3311 21.84H53.8311C53.8311 21.9242 53.7902 22.0848 53.6299 22.3103C53.4739 22.53 53.2262 22.7798 52.877 23.0324C52.1798 23.5369 51.1159 24.0249 49.6994 24.3013L49.7951 24.792L49.8909 25.2827C51.4264 24.9831 52.6305 24.4451 53.4632 23.8426C53.879 23.5417 54.2119 23.2177 54.4451 22.8895C54.6741 22.5672 54.8311 22.2058 54.8311 21.84H54.3311ZM49.7951 24.792L49.3479 24.5684C48.8603 25.5437 48.6471 26.3426 48.6471 26.988H49.1471H49.6471C49.6471 26.5534 49.794 25.9123 50.2424 25.0156L49.7951 24.792ZM49.1471 26.988H48.6471C48.6471 27.5976 48.8358 28.103 49.2162 28.4567C49.5871 28.8016 50.0764 28.9423 50.5654 28.9635L50.5871 28.464L50.6089 27.9645C50.2699 27.9497 50.0392 27.8564 49.8971 27.7243C49.7644 27.601 49.6471 27.3864 49.6471 26.988H49.1471ZM50.5871 28.464V28.964H50.7671V28.464V27.964H50.5871V28.464ZM50.7671 28.464V28.964C51.5263 28.964 52.4017 28.7512 53.3151 28.4179C54.2348 28.0823 55.2243 27.6126 56.221 27.072C58.2144 25.9909 60.2689 24.6086 61.9017 23.3931L61.6031 22.992L61.3046 22.5909C59.6974 23.7874 57.6839 25.1411 55.7443 26.193C54.7745 26.7189 53.8313 27.165 52.9723 27.4785C52.1071 27.7943 51.358 27.964 50.7671 27.964V28.464ZM61.6031 22.992L61.7888 23.4562L61.9688 23.3842L61.7831 22.92L61.5974 22.4558L61.4174 22.5278L61.6031 22.992ZM61.7831 22.92V23.42C61.6623 23.42 61.5886 23.3667 61.5621 23.3446C61.5442 23.3297 61.5213 23.3071 61.4987 23.2733C61.4873 23.2561 61.4717 23.2297 61.458 23.1945C61.4451 23.1614 61.4271 23.1034 61.4271 23.028H61.9271H62.4271C62.4271 22.8733 62.3597 22.7619 62.3308 22.7186C62.2925 22.6611 62.2471 22.6138 62.2022 22.5764C62.1217 22.5093 61.976 22.42 61.7831 22.42V22.92ZM61.9271 23.028H61.4271C61.4271 22.9739 61.4426 22.9175 61.4716 22.871C61.4969 22.8306 61.519 22.8192 61.5058 22.828L61.7831 23.244L62.0605 23.66C62.2627 23.5252 62.4271 23.3148 62.4271 23.028H61.9271ZM61.7831 23.244L61.4799 22.8465C59.7474 24.1681 57.6359 25.6108 55.6077 26.7203C53.5542 27.8437 51.6728 28.576 50.3711 28.576V29.076V29.576C51.9495 29.576 54.0281 28.7243 56.0876 27.5977C58.1724 26.4572 60.3269 24.9839 62.0864 23.6415L61.7831 23.244ZM50.0831 24.252L50.1255 24.7502C51.0668 24.6701 52.1013 24.2677 52.8948 23.8069C53.2939 23.575 53.6533 23.3162 53.9203 23.0557C54.0537 22.9257 54.175 22.7846 54.2658 22.6358C54.3538 22.4917 54.4351 22.3044 54.4351 22.092H53.9351H53.4351C53.4351 22.0506 53.449 22.0546 53.4123 22.1148C53.3784 22.1703 53.3177 22.2466 53.2221 22.3399C53.0313 22.526 52.7449 22.7375 52.3925 22.9421C51.6829 23.3543 50.7915 23.6899 50.0407 23.7538L50.0831 24.252ZM53.9351 22.092H54.4351C54.4351 21.8406 54.3072 21.6489 54.1807 21.5224L53.8271 21.876L53.4736 22.2296C53.4911 22.2471 53.4351 22.1994 53.4351 22.092H53.9351ZM53.8271 21.876L54.1807 21.5224C54.0088 21.3505 53.7348 21.232 53.4311 21.232V21.732V22.232C53.4546 22.232 53.4727 22.2367 53.4839 22.2412C53.4895 22.2435 53.4919 22.245 53.4912 22.2446C53.4909 22.2444 53.4843 22.2402 53.4736 22.2296L53.8271 21.876ZM53.4311 21.732V21.232C52.9359 21.232 52.3077 21.4567 51.6666 21.8889C51.0137 22.3291 50.3118 23.0076 49.6671 23.9746L50.0831 24.252L50.4992 24.5293C51.0785 23.6604 51.6905 23.0789 52.2257 22.7181C52.7726 22.3493 53.2063 22.232 53.4311 22.232V21.732ZM66.6569 25.044L67.1002 25.2753L66.3526 24.6473L66.6569 25.044ZM67.7729 22.992L67.279 23.07L67.5205 24.599L68.2191 23.2177L67.7729 22.992ZM77.2409 15.612L77.5987 15.9613L77.5995 15.9605L77.2409 15.612ZM68.2049 23.964L67.9064 23.5629L67.8204 23.6269L67.7681 23.7206L68.2049 23.964ZM80.3009 22.92L80.1428 22.4457L80.1274 22.4508L80.1123 22.457L80.3009 22.92ZM80.4089 22.884V22.384H80.3278L80.2508 22.4097L80.4089 22.884ZM80.4809 23.244L80.6785 23.7033L80.6917 23.6976L80.7045 23.6912L80.4809 23.244ZM61.2929 27.24L61.2309 27.7361L61.2618 27.74H61.2929V27.24ZM67.2329 23.892L67.5564 24.2733L67.7329 24.1235V23.892H67.2329ZM62.7689 23.136L63.1035 23.5078L63.1137 23.4981L62.7689 23.136ZM61.0049 27.204L60.9069 27.6943L60.9248 27.6979L60.9429 27.7001L61.0049 27.204ZM68.8529 22.776L68.4343 22.5026L69.1564 23.1734L68.8529 22.776ZM79.6529 12.264L80.031 12.5912L80.0351 12.5864L79.6529 12.264ZM81.4889 6.576L81.1418 6.21606L81.1388 6.21906L81.4889 6.576ZM67.2689 31.272V30.772C66.9246 30.772 66.6175 30.6636 66.394 30.4282C66.1698 30.1921 65.9689 29.7637 65.9689 29.004H65.4689H64.9689C64.9689 29.9363 65.218 30.6419 65.6688 31.1168C66.1204 31.5924 66.7133 31.772 67.2689 31.772V31.272ZM65.4689 29.004H65.9689C65.9689 28.1365 66.2605 26.8847 67.1002 25.2753L66.6569 25.044L66.2136 24.8127C65.3253 26.5153 64.9689 27.9275 64.9689 29.004H65.4689ZM66.6569 25.044L66.3526 24.6473C65.0575 25.6408 63.9714 26.313 63.0888 26.7349C62.199 27.1602 61.5477 27.316 61.1129 27.316V27.816V28.316C61.7582 28.316 62.5648 28.0938 63.5201 27.6371C64.4825 27.177 65.6283 26.4632 66.9613 25.4407L66.6569 25.044ZM61.1129 27.816V27.316C60.7042 27.316 60.4923 27.2016 60.3782 27.081C60.2593 26.9552 60.1729 26.7444 60.1729 26.412H59.6729H59.1729C59.1729 26.9076 59.3025 27.3988 59.6516 27.768C60.0056 28.1424 60.5137 28.316 61.1129 28.316V27.816ZM59.6729 26.412H60.1729C60.1729 25.574 60.7651 24.3713 61.7935 23.3515C62.8096 22.3439 64.1483 21.62 65.5049 21.62V21.12V20.62C63.8016 20.62 62.2243 21.5161 61.0894 22.6415C59.9667 23.7547 59.1729 25.198 59.1729 26.412H59.6729ZM65.5049 21.12V21.62C65.9927 21.62 66.3899 21.7305 66.6786 21.9446C66.9573 22.1513 67.188 22.4934 67.279 23.07L67.7729 22.992L68.2668 22.914C68.1418 22.1226 67.7966 21.5287 67.2743 21.1414C66.762 20.7615 66.1331 20.62 65.5049 20.62V21.12ZM67.7729 22.992L68.2191 23.2177C68.9864 21.7005 72.0907 17.1442 75.4358 12.9492C77.1043 10.8569 78.8174 8.87401 80.3122 7.41855C81.0605 6.68995 81.7426 6.10498 82.3281 5.70548C82.935 5.29144 83.3601 5.132 83.6129 5.132V4.632V4.132C83.0377 4.132 82.3963 4.44843 81.7646 4.87941C81.1115 5.32492 80.3828 5.95411 79.6146 6.70207C78.0764 8.19974 76.3335 10.2196 74.654 12.3258C71.3032 16.5278 68.1434 21.1515 67.3267 22.7663L67.7729 22.992ZM83.6129 4.632V5.132C83.7452 5.132 83.7892 5.16325 83.795 5.1682C83.7964 5.16945 83.8029 5.17456 83.8109 5.19495C83.82 5.21797 83.8329 5.26614 83.8329 5.352H84.3329H84.8329C84.8329 4.97877 84.717 4.64276 84.4479 4.41079C84.1926 4.19075 83.8766 4.132 83.6129 4.132V4.632ZM84.3329 5.352H83.8329C83.8329 5.59935 83.7352 6.01852 83.4705 6.62292C83.2109 7.21556 82.8088 7.94638 82.2456 8.80339C81.1196 10.5166 79.3683 12.7061 76.8824 15.2635L77.2409 15.612L77.5995 15.9605C80.1176 13.3699 81.9122 11.1314 83.0813 9.35261C83.6655 8.46362 84.0982 7.68244 84.3865 7.02408C84.6697 6.37748 84.8329 5.80665 84.8329 5.352H84.3329ZM77.2409 15.612L76.8831 15.2627C73.9267 18.2913 70.9655 21.2863 67.9064 23.5629L68.2049 23.964L68.5034 24.3651C71.6363 22.0337 74.6511 18.9807 77.5987 15.9613L77.2409 15.612ZM68.2049 23.964L67.7681 23.7206C66.3476 26.2703 65.8329 28.0871 65.8329 29.292H66.3329H66.8329C66.8329 28.3369 67.2542 26.6977 68.6417 24.2074L68.2049 23.964ZM66.3329 29.292H65.8329C65.8329 29.9302 65.9711 30.4464 66.2833 30.8072C66.607 31.1812 67.0433 31.304 67.4489 31.304V30.804V30.304C67.2425 30.304 67.1208 30.2468 67.0395 30.1528C66.9467 30.0456 66.8329 29.8058 66.8329 29.292H66.3329ZM67.4489 30.804V31.304C67.8864 31.304 68.3694 31.1743 68.862 30.9787C69.3606 30.7806 69.903 30.5012 70.4685 30.171C71.599 29.5109 72.863 28.6239 74.1153 27.7116C75.3776 26.7922 76.6186 25.8543 77.7409 25.0614C78.8701 24.2636 79.821 23.6554 80.4896 23.383L80.3009 22.92L80.1123 22.457C79.3229 22.7786 78.2847 23.4529 77.1639 24.2447C76.0362 25.0414 74.7662 26.0003 73.5265 26.9034C72.2768 27.8136 71.0478 28.6748 69.9643 29.3074C69.4229 29.6235 68.928 29.8765 68.4929 30.0493C68.0517 30.2245 67.7044 30.304 67.4489 30.304V30.804ZM80.3009 22.92L80.459 23.3943L80.567 23.3583L80.4089 22.884L80.2508 22.4097L80.1428 22.4457L80.3009 22.92ZM80.4089 22.884V23.384C80.3816 23.384 80.3357 23.3786 80.2828 23.3534C80.2289 23.3278 80.1849 23.2896 80.1529 23.247C80.0952 23.1701 80.0889 23.0978 80.0889 23.064H80.5889H81.0889C81.0889 22.9582 81.0646 22.7959 80.9529 22.647C80.8231 22.4739 80.6237 22.384 80.4089 22.384V22.884ZM80.5889 23.064H80.0889C80.0889 22.9743 80.1365 22.8572 80.2573 22.7968L80.4809 23.244L80.7045 23.6912C80.9694 23.5588 81.0889 23.2977 81.0889 23.064H80.5889ZM80.4809 23.244L80.2834 22.7847C79.3904 23.1688 78.3157 23.8807 77.1819 24.7007C76.0489 25.5202 74.7932 26.4954 73.5773 27.3962C72.3469 28.3078 71.1346 29.1607 70.0291 29.7847C68.9065 30.4184 67.9682 30.772 67.2689 30.772V31.272V31.772C68.2436 31.772 69.3753 31.3021 70.5207 30.6555C71.6832 29.9993 72.9369 29.1152 74.1726 28.1998C75.4226 27.2736 76.633 26.3318 77.7679 25.511C78.9021 24.6908 79.8975 24.0392 80.6785 23.7033L80.4809 23.244ZM61.2929 27.24V27.74C61.6656 27.74 62.0959 27.635 62.5455 27.4697C63.0021 27.3018 63.5103 27.0597 64.0483 26.7582C65.1247 26.155 66.348 25.2986 67.5564 24.2733L67.2329 23.892L66.9094 23.5107C65.7419 24.5014 64.5711 25.319 63.5595 25.8858C63.0536 26.1693 62.5943 26.3862 62.2004 26.5311C61.7994 26.6785 61.4962 26.74 61.2929 26.74V27.24ZM67.2329 23.892H67.7329V23.676H67.2329H66.7329V23.892H67.2329ZM67.2329 23.676H67.7329C67.7329 22.9145 67.5423 22.3102 67.142 21.8971C66.7397 21.4817 66.2036 21.34 65.6849 21.34V21.84V22.34C66.0302 22.34 66.2682 22.4322 66.4238 22.5929C66.5816 22.7558 66.7329 23.0695 66.7329 23.676H67.2329ZM65.6849 21.84V21.34C64.5525 21.34 63.2469 21.9903 62.4241 22.7739L62.7689 23.136L63.1137 23.4981C63.8029 22.8417 64.8733 22.34 65.6849 22.34V21.84ZM62.7689 23.136L62.4344 22.7644C61.8412 23.2983 61.3046 24.0412 60.9165 24.7559C60.5387 25.4517 60.2529 26.2098 60.2529 26.772H60.7529H61.2529C61.2529 26.4702 61.4352 25.8963 61.7953 25.2331C62.1452 24.5888 62.6166 23.9457 63.1034 23.5076L62.7689 23.136ZM60.7529 26.772H60.2529C60.2529 26.927 60.2774 27.1155 60.3695 27.2894C60.4705 27.4802 60.6501 27.6429 60.9069 27.6943L61.0049 27.204L61.103 26.7137C61.133 26.7197 61.1678 26.7342 61.1994 26.7592C61.2298 26.7832 61.2461 26.8078 61.2533 26.8216C61.26 26.8343 61.2594 26.838 61.2573 26.8275C61.2552 26.8173 61.2529 26.799 61.2529 26.772H60.7529ZM61.0049 27.204L60.9429 27.7001L61.2309 27.7361L61.2929 27.24L61.3549 26.7439L61.0669 26.7079L61.0049 27.204ZM68.8529 22.776L69.1564 23.1734C71.168 21.6372 76.3045 16.8965 80.031 12.5912L79.6529 12.264L79.2749 11.9368C75.5853 16.1995 70.4978 20.8908 68.5495 22.3786L68.8529 22.776ZM79.6529 12.264L80.0351 12.5864C81.3077 11.0775 82.394 9.59059 83.1653 8.34175C83.5506 7.7179 83.8623 7.14559 84.0793 6.65429C84.2888 6.18007 84.4369 5.72346 84.4369 5.352H83.9369H83.4369C83.4369 5.50253 83.3646 5.79743 83.1646 6.25021C82.9721 6.68591 82.6852 7.2161 82.3145 7.81625C81.5739 9.0154 80.5182 10.4625 79.2707 11.9416L79.6529 12.264ZM83.9369 5.352H84.4369C84.4369 5.24543 84.4344 5.03251 84.326 4.84293C84.2629 4.73237 84.1677 4.63498 84.039 4.57066C83.917 4.50962 83.7922 4.492 83.6849 4.492V4.992V5.492C83.6846 5.492 83.6751 5.492 83.6591 5.48877C83.6426 5.48546 83.619 5.47869 83.5918 5.46509C83.5307 5.43451 83.485 5.38662 83.4578 5.33907C83.4349 5.29907 83.4324 5.27223 83.4337 5.28065C83.4349 5.28825 83.4369 5.30897 83.4369 5.352H83.9369ZM83.6849 4.992V4.492C83.4748 4.492 83.2696 4.57419 83.1067 4.6563C82.93 4.7453 82.7374 4.86877 82.5361 5.01492C82.1325 5.30802 81.6551 5.72115 81.1419 6.21608L81.4889 6.576L81.836 6.93592C82.3307 6.45885 82.7713 6.07998 83.1237 5.82407C83.3005 5.69573 83.4453 5.60545 83.5567 5.54932C83.6817 5.4863 83.715 5.492 83.6849 5.492V4.992ZM81.4889 6.576L81.1388 6.21906C77.3189 9.96624 70.743 18.9674 68.4343 22.5026L68.8529 22.776L69.2716 23.0494C71.5709 19.5286 78.099 10.6018 81.8391 6.93294L81.4889 6.576ZM85.3249 25.044L85.7682 25.2753L85.0206 24.6473L85.3249 25.044ZM86.4409 22.992L85.947 23.07L86.1884 24.599L86.8871 23.2177L86.4409 22.992ZM95.9089 15.612L96.2667 15.9613L96.2674 15.9605L95.9089 15.612ZM86.8729 23.964L86.5744 23.5629L86.4883 23.6269L86.4361 23.7206L86.8729 23.964ZM98.9689 22.92L98.8108 22.4457L98.7953 22.4508L98.7802 22.457L98.9689 22.92ZM99.0769 22.884V22.384H98.9958L98.9188 22.4097L99.0769 22.884ZM99.1489 23.244L99.3464 23.7033L99.3596 23.6976L99.3725 23.6912L99.1489 23.244ZM79.9609 27.24L79.8989 27.7361L79.9298 27.74H79.9609V27.24ZM85.9009 23.892L86.2244 24.2733L86.4009 24.1235V23.892H85.9009ZM81.4369 23.136L81.7715 23.5078L81.7817 23.4981L81.4369 23.136ZM79.6729 27.204L79.5748 27.6943L79.5927 27.6979L79.6109 27.7001L79.6729 27.204ZM87.5209 22.776L87.1023 22.5026L87.8243 23.1734L87.5209 22.776ZM98.3209 12.264L98.699 12.5912L98.7031 12.5864L98.3209 12.264ZM100.157 6.576L99.8098 6.21606L99.8068 6.21906L100.157 6.576ZM85.9369 31.272V30.772C85.5925 30.772 85.2854 30.6636 85.062 30.4282C84.8378 30.1921 84.6369 29.7637 84.6369 29.004H84.1369H83.6369C83.6369 29.9363 83.886 30.6419 84.3368 31.1168C84.7883 31.5924 85.3812 31.772 85.9369 31.772V31.272ZM84.1369 29.004H84.6369C84.6369 28.1365 84.9285 26.8847 85.7682 25.2753L85.3249 25.044L84.8816 24.8127C83.9933 26.5153 83.6369 27.9275 83.6369 29.004H84.1369ZM85.3249 25.044L85.0206 24.6473C83.7255 25.6408 82.6393 26.313 81.7567 26.7349C80.867 27.1602 80.2156 27.316 79.7809 27.316V27.816V28.316C80.4262 28.316 81.2328 28.0938 82.188 27.6371C83.1504 27.177 84.2963 26.4632 85.6292 25.4407L85.3249 25.044ZM79.7809 27.816V27.316C79.3721 27.316 79.1602 27.2016 79.0462 27.081C78.9273 26.9552 78.8409 26.7444 78.8409 26.412H78.3409H77.8409C77.8409 26.9076 77.9705 27.3988 78.3196 27.768C78.6736 28.1424 79.1816 28.316 79.7809 28.316V27.816ZM78.3409 26.412H78.8409C78.8409 25.574 79.4331 24.3713 80.4615 23.3515C81.4776 22.3439 82.8162 21.62 84.1729 21.62V21.12V20.62C82.4696 20.62 80.8922 21.5161 79.7573 22.6415C78.6347 23.7547 77.8409 25.198 77.8409 26.412H78.3409ZM84.1729 21.12V21.62C84.6607 21.62 85.0579 21.7305 85.3466 21.9446C85.6252 22.1513 85.856 22.4934 85.947 23.07L86.4409 22.992L86.9348 22.914C86.8098 22.1226 86.4646 21.5287 85.9422 21.1414C85.4299 20.7615 84.8011 20.62 84.1729 20.62V21.12ZM86.4409 22.992L86.8871 23.2177C87.6544 21.7005 90.7586 17.1442 94.1038 12.9492C95.7723 10.8569 97.4854 8.87401 98.9802 7.41855C99.7285 6.68995 100.411 6.10498 100.996 5.70548C101.603 5.29144 102.028 5.132 102.281 5.132V4.632V4.132C101.706 4.132 101.064 4.44843 100.433 4.87941C99.7795 5.32492 99.0508 5.95411 98.2826 6.70207C96.7444 8.19974 95.0015 10.2196 93.322 12.3258C89.9711 16.5278 86.8114 21.1515 85.9947 22.7663L86.4409 22.992ZM102.281 4.632V5.132C102.413 5.132 102.457 5.16325 102.463 5.1682C102.464 5.16945 102.471 5.17456 102.479 5.19495C102.488 5.21797 102.501 5.26614 102.501 5.352H103.001H103.501C103.501 4.97877 103.385 4.64276 103.116 4.41079C102.861 4.19075 102.545 4.132 102.281 4.132V4.632ZM103.001 5.352H102.501C102.501 5.59935 102.403 6.01852 102.138 6.62292C101.879 7.21556 101.477 7.94638 100.914 8.80339C99.7876 10.5166 98.0363 12.7061 95.5504 15.2635L95.9089 15.612L96.2674 15.9605C98.7855 13.3699 100.58 11.1314 101.749 9.35261C102.333 8.46362 102.766 7.68244 103.054 7.02408C103.338 6.37748 103.501 5.80665 103.501 5.352H103.001ZM95.9089 15.612L95.5511 15.2627C92.5947 18.2913 89.6335 21.2863 86.5744 23.5629L86.8729 23.964L87.1714 24.3651C90.3043 22.0337 93.3191 18.9807 96.2667 15.9613L95.9089 15.612ZM86.8729 23.964L86.4361 23.7206C85.0156 26.2703 84.5009 28.0871 84.5009 29.292H85.0009H85.5009C85.5009 28.3369 85.9222 26.6977 87.3097 24.2074L86.8729 23.964ZM85.0009 29.292H84.5009C84.5009 29.9302 84.6391 30.4464 84.9513 30.8072C85.275 31.1812 85.7113 31.304 86.1169 31.304V30.804V30.304C85.9105 30.304 85.7888 30.2468 85.7075 30.1528C85.6147 30.0456 85.5009 29.8058 85.5009 29.292H85.0009ZM86.1169 30.804V31.304C86.5544 31.304 87.0373 31.1743 87.5299 30.9787C88.0286 30.7806 88.5709 30.5012 89.1365 30.171C90.267 29.5109 91.531 28.6239 92.7833 27.7116C94.0456 26.7922 95.2866 25.8543 96.4089 25.0614C97.5381 24.2636 98.4889 23.6554 99.1575 23.383L98.9689 22.92L98.7802 22.457C97.9909 22.7786 96.9527 23.4529 95.8319 24.2447C94.7042 25.0414 93.4342 26.0003 92.1945 26.9034C90.9448 27.8136 89.7158 28.6748 88.6323 29.3074C88.0908 29.6235 87.596 29.8765 87.1608 30.0493C86.7197 30.2245 86.3724 30.304 86.1169 30.304V30.804ZM98.9689 22.92L99.127 23.3943L99.235 23.3583L99.0769 22.884L98.9188 22.4097L98.8108 22.4457L98.9689 22.92ZM99.0769 22.884V23.384C99.0496 23.384 99.0037 23.3786 98.9508 23.3534C98.8969 23.3278 98.8528 23.2896 98.8209 23.247C98.7632 23.1701 98.7569 23.0978 98.7569 23.064H99.2569H99.7569C99.7569 22.9582 99.7326 22.7959 99.6209 22.647C99.491 22.4739 99.2917 22.384 99.0769 22.384V22.884ZM99.2569 23.064H98.7569C98.7569 22.9743 98.8044 22.8572 98.9253 22.7968L99.1489 23.244L99.3725 23.6912C99.6373 23.5588 99.7569 23.2977 99.7569 23.064H99.2569ZM99.1489 23.244L98.9513 22.7847C98.0583 23.1688 96.9837 23.8807 95.8499 24.7007C94.7168 25.5202 93.4612 26.4954 92.2452 27.3962C91.0149 28.3078 89.8026 29.1607 88.6971 29.7847C87.5745 30.4184 86.6362 30.772 85.9369 30.772V31.272V31.772C86.9116 31.772 88.0433 31.3021 89.1887 30.6555C90.3512 29.9993 91.6049 29.1152 92.8405 28.1998C94.0906 27.2736 95.301 26.3318 96.4359 25.511C97.5701 24.6908 98.5655 24.0392 99.3464 23.7033L99.1489 23.244ZM79.9609 27.24V27.74C80.3336 27.74 80.7639 27.635 81.2135 27.4697C81.67 27.3018 82.1783 27.0597 82.7163 26.7582C83.7927 26.155 85.0159 25.2986 86.2244 24.2733L85.9009 23.892L85.5774 23.5107C84.4098 24.5014 83.2391 25.319 82.2275 25.8858C81.7215 26.1693 81.2623 26.3862 80.8683 26.5311C80.4674 26.6785 80.1642 26.74 79.9609 26.74V27.24ZM85.9009 23.892H86.4009V23.676H85.9009H85.4009V23.892H85.9009ZM85.9009 23.676H86.4009C86.4009 22.9145 86.2102 22.3102 85.81 21.8971C85.4076 21.4817 84.8716 21.34 84.3529 21.34V21.84V22.34C84.6982 22.34 84.9361 22.4322 85.0918 22.5929C85.2496 22.7558 85.4009 23.0695 85.4009 23.676H85.9009ZM84.3529 21.84V21.34C83.2205 21.34 81.9149 21.9903 81.0921 22.7739L81.4369 23.136L81.7817 23.4981C82.4709 22.8417 83.5413 22.34 84.3529 22.34V21.84ZM81.4369 23.136L81.1024 22.7644C80.5092 23.2983 79.9726 24.0412 79.5845 24.7559C79.2066 25.4517 78.9209 26.2098 78.9209 26.772H79.4209H79.9209C79.9209 26.4702 80.1031 25.8963 80.4633 25.2331C80.8132 24.5888 81.2846 23.9457 81.7714 23.5076L81.4369 23.136ZM79.4209 26.772H78.9209C78.9209 26.927 78.9454 27.1155 79.0375 27.2894C79.1385 27.4802 79.3181 27.6429 79.5748 27.6943L79.6729 27.204L79.7709 26.7137C79.8009 26.7197 79.8357 26.7342 79.8674 26.7592C79.8977 26.7832 79.914 26.8078 79.9213 26.8216C79.928 26.8343 79.9273 26.838 79.9252 26.8275C79.9232 26.8173 79.9209 26.799 79.9209 26.772H79.4209ZM79.6729 27.204L79.6109 27.7001L79.8989 27.7361L79.9609 27.24L80.0229 26.7439L79.7349 26.7079L79.6729 27.204ZM87.5209 22.776L87.8243 23.1734C89.836 21.6372 94.9725 16.8965 98.6989 12.5912L98.3209 12.264L97.9428 11.9368C94.2533 16.1995 89.1658 20.8908 87.2174 22.3786L87.5209 22.776ZM98.3209 12.264L98.7031 12.5864C99.9756 11.0775 101.062 9.59059 101.833 8.34175C102.219 7.7179 102.53 7.14559 102.747 6.65429C102.957 6.18007 103.105 5.72346 103.105 5.352H102.605H102.105C102.105 5.50253 102.033 5.79743 101.833 6.25021C101.64 6.68591 101.353 7.2161 100.982 7.81625C100.242 9.0154 99.1861 10.4625 97.9387 11.9416L98.3209 12.264ZM102.605 5.352H103.105C103.105 5.24543 103.102 5.03251 102.994 4.84293C102.931 4.73237 102.836 4.63498 102.707 4.57066C102.585 4.50962 102.46 4.492 102.353 4.492V4.992V5.492C102.353 5.492 102.343 5.492 102.327 5.48877C102.311 5.48546 102.287 5.47869 102.26 5.46509C102.199 5.43451 102.153 5.38662 102.126 5.33907C102.103 5.29907 102.1 5.27223 102.102 5.28065C102.103 5.28825 102.105 5.30897 102.105 5.352H102.605ZM102.353 4.992V4.492C102.143 4.492 101.938 4.57419 101.775 4.6563C101.598 4.7453 101.405 4.86877 101.204 5.01492C100.8 5.30802 100.323 5.72115 99.8098 6.21608L100.157 6.576L100.504 6.93592C100.999 6.45885 101.439 6.07998 101.792 5.82407C101.968 5.69573 102.113 5.60545 102.225 5.54932C102.35 5.4863 102.383 5.492 102.353 5.492V4.992ZM100.157 6.576L99.8068 6.21906C95.9868 9.96624 89.411 18.9674 87.1023 22.5026L87.5209 22.776L87.9395 23.0494C90.2388 19.5286 96.767 10.6018 100.507 6.93294L100.157 6.576ZM101.977 19.68L101.677 20.08L101.688 20.0883L101.7 20.096L101.977 19.68ZM101.869 18.78L101.515 18.4264L101.48 18.4615L101.453 18.5026L101.869 18.78ZM102.769 18.852L102.369 19.152L102.39 19.1804L102.415 19.2056L102.769 18.852ZM102.877 19.608L102.461 19.3307L102.444 19.3566L102.43 19.3844L102.877 19.608ZM97.9089 29.148L98.1662 28.7191L98.154 28.7122L97.9089 29.148ZM100.537 20.652L100.183 20.2984L100.174 20.3077L100.165 20.3175L100.537 20.652ZM101.257 21.012L101.704 21.2356L101.757 21.13V21.012H101.257ZM101.185 21.156L101.56 21.4871L101.603 21.4381L101.632 21.3796L101.185 21.156ZM98.2329 28.608L98.4565 28.1608L98.4565 28.1608L98.2329 28.608ZM109.033 22.956L108.935 22.4657L108.9 22.4728L108.866 22.4848L109.033 22.956ZM109.213 22.92V22.42H109.163L109.115 22.4297L109.213 22.92ZM109.141 23.244L109.043 22.7537L109.004 22.7615L108.967 22.7752L109.141 23.244ZM102.445 19.788V19.288C102.386 19.288 102.333 19.282 102.292 19.2729C102.247 19.2628 102.239 19.2541 102.254 19.264L101.977 19.68L101.7 20.096C101.928 20.2482 102.225 20.288 102.445 20.288V19.788ZM101.977 19.68L102.277 19.28C102.261 19.2684 102.245 19.2501 102.234 19.2302C102.223 19.2101 102.225 19.2029 102.225 19.212H101.725H101.225C101.225 19.5803 101.434 19.8978 101.677 20.08L101.977 19.68ZM101.725 19.212H102.225C102.225 19.2163 102.224 19.212 102.227 19.1984C102.23 19.1853 102.234 19.1684 102.241 19.1489C102.256 19.1073 102.274 19.0732 102.285 19.0574L101.869 18.78L101.453 18.5026C101.345 18.6646 101.225 18.9401 101.225 19.212H101.725ZM101.869 18.78L102.222 19.1336C102.266 19.0901 102.277 19.0898 102.264 19.0956C102.257 19.0984 102.251 19.1 102.247 19.1006C102.245 19.101 102.249 19.1 102.265 19.1V18.6V18.1C102.148 18.1 102.013 18.1149 101.87 18.1764C101.73 18.2362 101.616 18.3259 101.515 18.4264L101.869 18.78ZM102.265 18.6V19.1C102.308 19.1 102.346 19.1212 102.369 19.152L102.769 18.852L103.169 18.552C102.976 18.2948 102.653 18.1 102.265 18.1V18.6ZM102.769 18.852L102.415 19.2056C102.452 19.242 102.472 19.2686 102.482 19.2861C102.49 19.3007 102.485 19.2979 102.485 19.284H102.985H103.485C103.485 18.8977 103.254 18.6305 103.122 18.4984L102.769 18.852ZM102.985 19.284H102.485C102.485 19.2814 102.485 19.2821 102.484 19.2879C102.481 19.2943 102.476 19.3086 102.461 19.3307L102.877 19.608L103.293 19.8853C103.408 19.712 103.485 19.5092 103.485 19.284H102.985ZM102.877 19.608L102.43 19.3844C102.446 19.3508 102.47 19.3238 102.494 19.305C102.516 19.2876 102.532 19.2814 102.535 19.2805C102.537 19.2797 102.531 19.282 102.514 19.2843C102.497 19.2865 102.474 19.288 102.445 19.288V19.788V20.288C102.561 20.288 102.715 20.2774 102.868 20.2235C103.028 20.1669 103.214 20.0514 103.324 19.8316L102.877 19.608ZM98.5569 29.292V28.792C98.3745 28.792 98.2309 28.7581 98.1661 28.7193L97.9089 29.148L97.6516 29.5767C97.9468 29.7539 98.3072 29.792 98.5569 29.792V29.292ZM97.9089 29.148L98.154 28.7122C97.7771 28.5002 97.5809 28.1208 97.5809 27.564H97.0809H96.5809C96.5809 28.3752 96.8887 29.1478 97.6637 29.5838L97.9089 29.148ZM97.0809 27.564H97.5809C97.5809 26.5892 98.1401 25.2308 98.8797 23.922C99.6075 22.6339 100.451 21.4948 100.909 20.9865L100.537 20.652L100.165 20.3175C99.6507 20.8892 98.7662 22.0901 98.0091 23.43C97.2636 24.7492 96.5809 26.3068 96.5809 27.564H97.0809ZM100.537 20.652L100.89 21.0056C100.908 20.9881 100.86 21.044 100.753 21.044V20.544V20.044C100.501 20.044 100.31 20.1719 100.183 20.2984L100.537 20.652ZM100.753 20.544V21.044C100.733 21.044 100.725 21.0392 100.73 21.0415C100.732 21.0424 100.736 21.0443 100.74 21.0475C100.745 21.0507 100.75 21.0546 100.755 21.0591C100.759 21.0635 100.763 21.0677 100.765 21.0711C100.768 21.0746 100.769 21.0761 100.768 21.0751C100.768 21.0741 100.765 21.0689 100.763 21.0592C100.76 21.0495 100.757 21.0335 100.757 21.012H101.257H101.757C101.757 20.7224 101.6 20.4832 101.444 20.3349C101.283 20.1817 101.04 20.044 100.753 20.044V20.544ZM101.257 21.012L100.81 20.7884L100.738 20.9324L101.185 21.156L101.632 21.3796L101.704 21.2356L101.257 21.012ZM101.185 21.156L100.81 20.8249C100.105 21.6234 99.2126 22.8287 98.4946 24.0531C98.1352 24.6659 97.8138 25.2928 97.581 25.8832C97.3512 26.4657 97.1929 27.0492 97.1929 27.564H97.6929H98.1929C98.1929 27.2328 98.3 26.7858 98.5112 26.2501C98.7194 25.7222 99.0146 25.1431 99.3572 24.5589C100.043 23.3893 100.897 22.2366 101.56 21.4871L101.185 21.156ZM97.6929 27.564H97.1929C97.1929 28.1909 97.4276 28.7644 98.0093 29.0552L98.2329 28.608L98.4565 28.1608C98.3181 28.0916 98.1929 27.9451 98.1929 27.564H97.6929ZM98.2329 28.608L98.0093 29.0552C98.2422 29.1717 98.5045 29.216 98.7729 29.216V28.716V28.216C98.6092 28.216 98.5115 28.1883 98.4565 28.1608L98.2329 28.608ZM98.7729 28.716V29.216C99.5106 29.216 100.41 28.8488 101.314 28.369C102.24 27.8776 103.256 27.2192 104.25 26.5473C105.256 25.8674 106.225 25.1842 107.102 24.608C107.985 24.0273 108.707 23.6021 109.2 23.4272L109.033 22.956L108.866 22.4848C108.243 22.7059 107.425 23.1987 106.553 23.7723C105.673 24.3503 104.669 25.0576 103.69 25.7187C102.7 26.3878 101.721 27.0209 100.845 27.4858C99.9477 27.9622 99.2411 28.216 98.7729 28.216V28.716ZM109.033 22.956L109.131 23.4463L109.311 23.4103L109.213 22.92L109.115 22.4297L108.935 22.4657L109.033 22.956ZM109.213 22.92V23.42C109.213 23.42 109.21 23.42 109.206 23.4196C109.202 23.4192 109.195 23.4184 109.186 23.4166C109.17 23.4132 109.136 23.4044 109.095 23.3811C109.053 23.357 108.999 23.3146 108.956 23.2457C108.911 23.1744 108.893 23.0972 108.893 23.028H109.393H109.893C109.893 22.788 109.756 22.607 109.591 22.5129C109.454 22.4342 109.31 22.42 109.213 22.42V22.92ZM109.393 23.028H108.893C108.893 22.9052 108.948 22.8289 108.981 22.7959C109.02 22.7568 109.051 22.7521 109.043 22.7537L109.141 23.244L109.239 23.7343C109.564 23.6692 109.893 23.4182 109.893 23.028H109.393ZM109.141 23.244L108.967 22.7752C108.343 23.0067 107.521 23.5239 106.638 24.1252C105.756 24.7268 104.722 25.4781 103.726 26.1674C102.712 26.8696 101.701 27.5341 100.785 28.0222C99.8507 28.5202 99.0902 28.792 98.5569 28.792V29.292V29.792C99.3555 29.792 100.305 29.4113 101.256 28.9047C102.225 28.3881 103.275 27.6959 104.296 26.9896C105.334 26.2704 106.307 25.5614 107.202 24.9515C108.097 24.3411 108.823 23.8953 109.315 23.7128L109.141 23.244ZM105.622 30.012V30.512H105.718L105.808 30.4762L105.622 30.012ZM105.334 29.58L104.866 29.4044L104.834 29.4893V29.58H105.334ZM106.666 26.628L107.095 26.8853L107.097 26.8809L106.666 26.628ZM109.402 22.308L109.048 21.9544L109.035 21.968L109.022 21.9826L109.402 22.308ZM110.086 22.704L109.732 22.3504L109.706 22.3766L109.684 22.4064L110.086 22.704ZM105.946 29.184L105.499 28.9604L106.323 29.5124L105.946 29.184ZM113.326 24L113.821 24.0707L113.826 24.0355V24H113.326ZM113.29 24.252L113.779 24.3568L113.782 24.3398L113.785 24.3227L113.29 24.252ZM114.91 29.184L114.896 29.684H114.91V29.184ZM124.99 22.92V22.42H124.86L124.746 22.4833L124.99 22.92ZM125.134 23.136L124.91 22.6888L124.882 22.7031L124.855 22.7209L125.134 23.136ZM114.694 29.688L114.678 30.1877L114.686 30.188H114.694V29.688ZM112.102 24.432H112.602V23.5688L111.853 23.9983L112.102 24.432ZM105.802 29.94L105.988 30.4042L106.083 30.3661L106.155 30.2936L105.802 29.94ZM105.622 30.012V29.512C105.716 29.512 105.77 29.5552 105.791 29.5784C105.816 29.6054 105.834 29.6433 105.834 29.688H105.334H104.834C104.834 30.1057 105.165 30.512 105.622 30.512V30.012ZM105.334 29.688H105.834V29.58H105.334H104.834V29.688H105.334ZM105.334 29.58L105.802 29.7556C106.131 28.8773 106.367 28.0978 107.095 26.8852L106.666 26.628L106.237 26.3708C105.453 27.6782 105.184 28.5547 104.866 29.4044L105.334 29.58ZM106.666 26.628L107.097 26.8809C107.705 25.8432 108.332 24.8318 108.833 24.049C109.084 23.6576 109.302 23.3247 109.47 23.0752C109.646 22.8138 109.75 22.6698 109.781 22.6334L109.402 22.308L109.022 21.9826C108.945 22.0722 108.807 22.2702 108.641 22.5162C108.467 22.7741 108.244 23.1139 107.991 23.51C107.484 24.3022 106.85 25.3248 106.235 26.3751L106.666 26.628ZM109.402 22.308L109.755 22.6616C109.773 22.6437 109.783 22.6357 109.786 22.6331C109.789 22.6309 109.783 22.6359 109.769 22.6427C109.755 22.65 109.737 22.6563 109.719 22.6602C109.702 22.6639 109.691 22.664 109.69 22.664V22.164V21.664C109.573 21.664 109.449 21.685 109.322 21.7483C109.207 21.8057 109.118 21.8848 109.048 21.9544L109.402 22.308ZM109.69 22.164V22.664C109.663 22.664 109.652 22.6578 109.658 22.6604C109.663 22.6625 109.672 22.6677 109.681 22.6755C109.691 22.6837 109.69 22.6863 109.685 22.6771C109.681 22.6701 109.658 22.6295 109.658 22.56H110.158H110.658C110.658 22.2569 110.467 22.0314 110.329 21.9135C110.178 21.7855 109.95 21.664 109.69 21.664V22.164ZM110.158 22.56H109.658C109.658 22.5247 109.662 22.4971 109.665 22.4806C109.669 22.4632 109.672 22.4497 109.675 22.441C109.681 22.4242 109.686 22.4134 109.688 22.4084C109.691 22.4028 109.694 22.3968 109.699 22.3897C109.703 22.3837 109.714 22.369 109.732 22.3504L110.086 22.704L110.439 23.0576C110.507 22.9901 110.554 22.9136 110.583 22.8556C110.604 22.8134 110.658 22.6994 110.658 22.56H110.158ZM110.086 22.704L109.684 22.4064C108.239 24.3576 106.598 26.7612 105.499 28.9604L105.946 29.184L106.393 29.4076C107.453 27.2868 109.053 24.9384 110.488 23.0016L110.086 22.704ZM105.946 29.184L106.323 29.5124C106.803 28.9614 108.059 27.5717 109.4 26.3236C110.072 25.6986 110.754 25.1198 111.363 24.7003C111.667 24.4906 111.944 24.3278 112.184 24.2189C112.43 24.1072 112.604 24.068 112.714 24.068V23.568V23.068C112.401 23.068 112.077 23.1694 111.771 23.3082C111.458 23.4498 111.129 23.6472 110.796 23.8768C110.129 24.336 109.407 24.9519 108.719 25.5914C107.343 26.8723 106.061 28.2906 105.569 28.8556L105.946 29.184ZM112.714 23.568V24.068C112.752 24.068 112.776 24.0681 112.798 24.0688C112.819 24.0695 112.828 24.0707 112.831 24.0712C112.834 24.0715 112.829 24.0709 112.82 24.0677C112.811 24.0643 112.802 24.0599 112.797 24.056L113.074 23.64L113.351 23.224C113.099 23.0555 112.835 23.068 112.714 23.068V23.568ZM113.074 23.64L112.797 24.056C112.822 24.0733 112.847 24.0876 112.863 24.0972C112.867 24.0996 112.871 24.102 112.875 24.1041C112.879 24.1063 112.882 24.1081 112.885 24.11C112.891 24.1136 112.895 24.1162 112.899 24.1184C112.915 24.1283 112.904 24.1231 112.887 24.1061C112.877 24.0967 112.867 24.0845 112.857 24.0695C112.847 24.0544 112.84 24.0393 112.834 24.0253C112.824 23.9972 112.826 23.9843 112.826 24H113.326H113.826C113.826 23.7633 113.752 23.5566 113.594 23.3989C113.527 23.3324 113.46 23.289 113.419 23.2639C113.356 23.2261 113.37 23.2365 113.351 23.224L113.074 23.64ZM113.326 24L112.831 23.9293L112.795 24.1813L113.29 24.252L113.785 24.3227L113.821 24.0707L113.326 24ZM113.29 24.252L112.801 24.1472C112.686 24.6845 112.61 25.3316 112.61 25.98H113.11H113.61C113.61 25.4044 113.678 24.8275 113.779 24.3568L113.29 24.252ZM113.11 25.98H112.61C112.61 26.809 112.731 27.6842 113.058 28.3765C113.394 29.0857 113.984 29.6592 114.896 29.6838L114.91 29.184L114.923 28.6842C114.504 28.6728 114.193 28.4363 113.962 27.9485C113.723 27.4438 113.61 26.735 113.61 25.98H113.11ZM114.91 29.184V29.684C115.7 29.684 116.616 29.3143 117.525 28.8158C118.451 28.308 119.444 27.6241 120.409 26.9135C121.372 26.2036 122.327 25.4507 123.162 24.8122C124.01 24.1636 124.721 23.6421 125.233 23.3567L124.99 22.92L124.746 22.4833C124.16 22.8099 123.392 23.3774 122.554 24.018C121.704 24.6688 120.769 25.4054 119.815 26.1085C118.862 26.8109 117.911 27.4635 117.044 27.939C116.16 28.4237 115.433 28.684 114.91 28.684V29.184ZM124.99 22.92V23.42H125.098V22.92V22.42H124.99V22.92ZM125.098 22.92V23.42C125.06 23.42 124.993 23.412 124.92 23.363C124.831 23.3042 124.742 23.186 124.742 23.028H125.242H125.742C125.742 22.798 125.616 22.6258 125.474 22.531C125.347 22.446 125.208 22.42 125.098 22.42V22.92ZM125.242 23.028H124.742C124.742 22.8666 124.825 22.7649 124.861 22.7284C124.897 22.693 124.923 22.6825 124.91 22.6888L125.134 23.136L125.357 23.5832C125.417 23.5534 125.497 23.507 125.568 23.4356C125.641 23.3631 125.742 23.2254 125.742 23.028H125.242ZM125.134 23.136L124.855 22.7209C124.206 23.1567 123.396 23.7907 122.521 24.481C121.639 25.1766 120.683 25.9366 119.721 26.6437C118.759 27.3516 117.805 27.9958 116.935 28.4612C116.05 28.9344 115.313 29.188 114.766 29.188V29.688V30.188C115.569 30.188 116.488 29.8341 117.406 29.3431C118.339 28.8445 119.337 28.1679 120.314 27.4493C121.292 26.7299 122.263 25.9577 123.14 25.2661C124.023 24.5693 124.802 23.9613 125.413 23.5511L125.134 23.136ZM114.766 29.688V29.188H114.694V29.688V30.188H114.766V29.688ZM114.694 29.688L114.71 29.1883C114.243 29.1734 113.903 29.034 113.643 28.8276C113.378 28.6163 113.169 28.3121 113.009 27.9294C112.684 27.1516 112.602 26.1454 112.602 25.26H112.102H111.602C111.602 26.1746 111.682 27.3464 112.086 28.3146C112.291 28.8049 112.588 29.2657 113.021 29.6102C113.46 29.9595 114.011 30.1666 114.678 30.1877L114.694 29.688ZM112.102 25.26H112.602V24.432H112.102H111.602V25.26H112.102ZM112.102 24.432L111.853 23.9983C109.33 25.4452 106.565 28.4697 105.448 29.5864L105.802 29.94L106.155 30.2936C107.343 29.1063 109.977 26.2268 112.351 24.8657L112.102 24.432ZM105.802 29.94L105.616 29.4758L105.436 29.5478L105.622 30.012L105.808 30.4762L105.988 30.4042L105.802 29.94ZM109.454 52.224L109.612 51.7497L109.604 51.747L109.596 51.7446L109.454 52.224ZM115.106 39.984L114.755 39.6285L114.753 39.6304L115.106 39.984ZM128.102 29.076L128.402 29.476L128.481 29.4169L128.531 29.3323L128.102 29.076ZM130.982 24.252L131.411 24.5083L130.633 23.8936L130.982 24.252ZM123.314 27.42L122.94 27.7522L122.95 27.7632L122.961 27.7736L123.314 27.42ZM125.078 22.74L124.786 22.3339L124.778 22.34L125.078 22.74ZM131.81 22.848L131.43 23.1722L131.841 23.6555L132.215 23.1421L131.81 22.848ZM132.494 21.876L132.807 22.2664L132.828 22.2491L132.848 22.2296L132.494 21.876ZM133.178 22.092L133.625 22.3156L133.678 22.21V22.092H133.178ZM133.142 22.164L133.579 22.4068L133.585 22.3973L133.589 22.3876L133.142 22.164ZM129.542 28.356L129.114 28.0976L129.811 28.7778L129.542 28.356ZM138.722 22.956L138.564 22.4817L138.513 22.4986L138.467 22.5259L138.722 22.956ZM138.83 22.92V22.42H138.749L138.672 22.4457L138.83 22.92ZM138.974 23.064L139.421 23.2876L139.474 23.182V23.064H138.974ZM138.902 23.208L139.169 23.6311L139.287 23.5566L139.349 23.4316L138.902 23.208ZM128.966 29.292L128.682 28.8809L128.593 28.942L128.538 29.0341L128.966 29.292ZM126.95 32.64L126.522 32.382L126.516 32.3914L126.95 32.64ZM127.454 30.12L127.884 30.3747L127.164 29.7131L127.454 30.12ZM115.466 40.344L115.109 39.9938L115.109 39.9944L115.466 40.344ZM109.67 51.684L109.533 52.1648L109.552 52.1703L109.572 52.1743L109.67 51.684ZM131.558 23.244L131.902 23.6067L132.245 23.2816L131.94 22.921L131.558 23.244ZM125.582 23.604L125.902 23.9881L125.902 23.9881L125.582 23.604ZM123.962 26.988L123.572 27.3003L123.589 27.322L123.609 27.3416L123.962 26.988ZM110.066 52.296V51.796C109.846 51.796 109.742 51.7929 109.612 51.7497L109.454 52.224L109.296 52.6983C109.598 52.7991 109.854 52.796 110.066 52.796V52.296ZM109.454 52.224L109.596 51.7446C109.185 51.6228 108.946 51.448 108.805 51.2615C108.665 51.0757 108.586 50.8293 108.586 50.496H108.086H107.586C107.586 50.9907 107.706 51.4643 108.006 51.8635C108.307 52.262 108.751 52.5372 109.312 52.7034L109.454 52.224ZM108.086 50.496H108.586C108.586 49.8502 108.887 48.9848 109.426 47.9814C109.957 46.9931 110.686 45.931 111.467 44.9092C113.029 42.8664 114.768 41.0293 115.46 40.3376L115.106 39.984L114.753 39.6304C114.04 40.3427 112.269 42.2136 110.672 44.3018C109.874 45.3455 109.111 46.4547 108.545 47.5082C107.987 48.5467 107.586 49.5938 107.586 50.496H108.086ZM115.106 39.984L115.458 40.3395C121.908 33.9613 127.815 29.9167 128.402 29.476L128.102 29.076L127.802 28.676C127.238 29.0993 121.265 33.1907 114.755 39.6285L115.106 39.984ZM128.102 29.076L128.531 29.3323L131.411 24.5083L130.982 24.252L130.553 23.9957L127.673 28.8197L128.102 29.076ZM130.982 24.252L130.633 23.8936C130.004 24.5064 128.851 25.3736 127.618 26.0872C127.003 26.4426 126.38 26.7535 125.802 26.9743C125.217 27.1977 124.711 27.316 124.322 27.316V27.816V28.316C124.887 28.316 125.524 28.1508 126.159 27.9085C126.8 27.6635 127.473 27.3264 128.119 26.9528C129.405 26.2084 130.629 25.2936 131.331 24.6104L130.982 24.252ZM124.322 27.816V27.316C124.046 27.316 123.818 27.2163 123.668 27.0664L123.314 27.42L122.961 27.7736C123.315 28.1277 123.806 28.316 124.322 28.316V27.816ZM123.314 27.42L123.688 27.0878C123.5 26.8763 123.418 26.6088 123.418 26.304H122.918H122.418C122.418 26.7912 122.552 27.3157 122.94 27.7522L123.314 27.42ZM122.918 26.304H123.418C123.418 25.7927 123.651 25.1872 124.039 24.5927C124.422 24.0053 124.923 23.4817 125.378 23.14L125.078 22.74L124.778 22.34C124.226 22.7543 123.646 23.3647 123.201 24.0463C122.761 24.7208 122.418 25.5193 122.418 26.304H122.918ZM125.078 22.74L125.37 23.146C126.457 22.3644 127.618 21.944 128.714 21.944V21.444V20.944C127.363 20.944 126.003 21.4596 124.786 22.334L125.078 22.74ZM128.714 21.444V21.944C129.769 21.944 130.705 22.3218 131.43 23.1722L131.81 22.848L132.191 22.5238C131.259 21.4302 130.035 20.944 128.714 20.944V21.444ZM131.81 22.848L132.215 23.1421C132.37 22.9283 132.509 22.7 132.614 22.5373C132.669 22.4513 132.714 22.3841 132.752 22.3324C132.794 22.2766 132.811 22.2627 132.807 22.2664L132.494 21.876L132.182 21.4856C132.015 21.6193 131.871 21.8422 131.772 21.9977C131.651 22.186 131.538 22.3717 131.406 22.5539L131.81 22.848ZM132.494 21.876L132.848 22.2296C132.813 22.2644 132.783 22.2793 132.768 22.2861C132.75 22.2937 132.719 22.304 132.674 22.304V21.804V21.304C132.461 21.304 132.264 21.399 132.141 21.5224L132.494 21.876ZM132.674 21.804V22.304C132.688 22.304 132.71 22.306 132.734 22.3114C132.759 22.317 132.776 22.3237 132.784 22.3277C132.794 22.333 132.776 22.3266 132.75 22.2965C132.72 22.2615 132.678 22.1905 132.678 22.092H133.178H133.678C133.678 21.7068 133.377 21.5066 133.231 21.4333C133.056 21.3461 132.853 21.304 132.674 21.304V21.804ZM133.178 22.092L132.731 21.8684L132.695 21.9404L133.142 22.164L133.589 22.3876L133.625 22.3156L133.178 22.092ZM133.142 22.164L132.705 21.9212C131.629 23.8587 130.264 26.1934 129.114 28.0976L129.542 28.356L129.97 28.6144C131.125 26.7026 132.496 24.3573 133.579 22.4068L133.142 22.164ZM129.542 28.356L129.811 28.7778C131.783 27.5224 135.067 25.7034 138.977 23.3861L138.722 22.956L138.467 22.5259C134.602 24.8166 131.261 26.6696 129.274 27.9342L129.542 28.356ZM138.722 22.956L138.88 23.4303L138.988 23.3943L138.83 22.92L138.672 22.4457L138.564 22.4817L138.722 22.956ZM138.83 22.92V23.42C138.704 23.42 138.619 23.3617 138.576 23.3186C138.532 23.2754 138.474 23.1906 138.474 23.064H138.974H139.474C139.474 22.8654 139.38 22.7086 139.283 22.6114C139.186 22.5143 139.029 22.42 138.83 22.42V22.92ZM138.974 23.064L138.527 22.8404L138.455 22.9844L138.902 23.208L139.349 23.4316L139.421 23.2876L138.974 23.064ZM138.902 23.208L138.636 22.7849C136.701 24.0029 135.164 24.8696 133.629 25.7639C132.093 26.6581 130.569 27.5744 128.682 28.8809L128.966 29.292L129.251 29.7031C131.108 28.4176 132.607 27.5159 134.132 26.6281C135.656 25.7404 137.215 24.8611 139.169 23.6311L138.902 23.208ZM128.966 29.292L128.538 29.0341L126.522 32.3821L126.95 32.64L127.379 32.8979L129.395 29.5499L128.966 29.292ZM126.95 32.64L126.516 32.3914C125.673 33.8627 122.813 38.7573 119.496 43.2792C117.836 45.5419 116.073 47.6946 114.401 49.2767C113.565 50.0677 112.763 50.7046 112.02 51.1413C111.271 51.5806 110.617 51.796 110.066 51.796V52.296V52.796C110.865 52.796 111.698 52.4894 112.526 52.0037C113.358 51.5153 114.22 50.8241 115.088 50.0031C116.824 48.3609 118.627 46.1531 120.302 43.8708C123.653 39.3027 126.535 34.3693 127.384 32.8886L126.95 32.64ZM110.246 51.756V52.256C111.019 52.256 111.821 51.9349 112.612 51.4331C113.408 50.9277 114.237 50.2118 115.074 49.3583C116.749 47.6509 118.509 45.3407 120.18 42.9087C123.523 38.0438 126.561 32.6101 127.884 30.3747L127.454 30.12L127.024 29.8653C125.683 32.1299 122.673 37.5142 119.356 42.3423C117.697 44.7568 115.975 47.0118 114.36 48.6581C113.552 49.4814 112.784 50.1394 112.076 50.5887C111.362 51.0416 110.751 51.256 110.246 51.256V51.756ZM127.454 30.12L127.164 29.7131C123.615 32.2475 118.913 36.1181 115.109 39.9938L115.466 40.344L115.823 40.6942C119.58 36.8659 124.237 33.0325 127.745 30.5269L127.454 30.12ZM115.466 40.344L115.109 39.9944C114.309 40.812 112.585 42.6544 111.056 44.6378C110.292 45.6289 109.569 46.6661 109.034 47.6355C108.51 48.5869 108.126 49.5431 108.126 50.352H108.626H109.126C109.126 49.8109 109.4 49.0436 109.91 48.1185C110.41 47.2114 111.1 46.2191 111.848 45.2482C113.344 43.3076 115.039 41.496 115.824 40.6936L115.466 40.344ZM108.626 50.352H108.126C108.126 50.7493 108.215 51.1427 108.463 51.4774C108.711 51.8132 109.079 52.035 109.533 52.1648L109.67 51.684L109.808 51.2032C109.506 51.117 109.351 50.9968 109.267 50.8826C109.181 50.7673 109.126 50.6027 109.126 50.352H108.626ZM109.67 51.684L109.572 52.1743C109.75 52.2098 109.975 52.256 110.246 52.256V51.756V51.256C110.086 51.256 109.951 51.2302 109.768 51.1937L109.67 51.684ZM124.682 27.24V27.74C125.221 27.74 125.857 27.5386 126.489 27.2607C127.135 26.9771 127.831 26.5892 128.507 26.1651C129.857 25.3187 131.172 24.3 131.902 23.6067L131.558 23.244L131.214 22.8813C130.541 23.52 129.281 24.4993 127.976 25.3179C127.325 25.7263 126.673 26.0876 126.087 26.3452C125.488 26.6084 125.008 26.74 124.682 26.74V27.24ZM131.558 23.244L131.94 22.921C131.065 21.8872 130.067 21.448 129.074 21.448V21.948V22.448C129.737 22.448 130.467 22.7288 131.176 23.567L131.558 23.244ZM129.074 21.948V21.448C127.658 21.448 126.35 22.3135 125.262 23.2199L125.582 23.604L125.902 23.9881C126.975 23.0945 128.042 22.448 129.074 22.448V21.948ZM125.582 23.604L125.262 23.2199C124.91 23.5132 124.423 24.0011 124.019 24.5494C123.631 25.0759 123.246 25.7551 123.246 26.412H123.746H124.246C124.246 26.0969 124.456 25.6421 124.824 25.1426C125.176 24.6649 125.606 24.2348 125.902 23.9881L125.582 23.604ZM123.746 26.412H123.246C123.246 26.7596 123.369 27.0469 123.572 27.3003L123.962 26.988L124.353 26.6757C124.267 26.5691 124.246 26.4964 124.246 26.412H123.746ZM123.962 26.988L123.609 27.3416C123.911 27.6435 124.272 27.74 124.682 27.74V27.24V26.74C124.445 26.74 124.374 26.6925 124.316 26.6344L123.962 26.988Z" fill="#8B9B68" mask="url(#path-1-outside-1_67_1055)"/>
</svg>
