<svg width="588" height="204" viewBox="0 0 588 204" fill="none" xmlns="http://www.w3.org/2000/svg">
<mask id="path-1-outside-1_37_833" maskUnits="userSpaceOnUse" x="0" y="0" width="588" height="204" fill="black">
<rect fill="white" width="588" height="204"/>
<path d="M93.282 169.84C79.202 169.84 73.314 160.752 73.314 147.184C73.314 116.848 102.114 64.112 132.962 37.616C100.45 42.864 67.17 49.008 37.602 69.872C20.578 81.904 6.37 97.776 2.402 118.896C2.274 119.536 2.018 119.792 1.762 119.792C1.506 119.792 1.25 119.536 1.25 119.024V118.64C15.33 44.912 132.834 36.464 136.29 34.928C136.546 34.8 177.378 1.90399 202.082 1.392H202.466C209.25 1.392 210.914 4.84799 211.554 8.94399L211.682 10.096C211.682 27.248 152.546 34.416 140.898 36.464C114.786 55.92 76.386 117.616 76.386 148.72C76.386 159.856 81.378 167.024 93.41 167.024C95.074 167.024 96.994 166.896 98.914 166.64C124.898 162.928 175.97 119.664 196.834 98.672C197.09 98.416 197.346 98.288 197.602 98.288C197.858 98.288 198.114 98.544 198.114 98.8C198.114 98.928 198.114 99.184 197.858 99.44C180.45 119.792 125.41 165.616 98.914 169.456C96.866 169.712 95.074 169.84 93.282 169.84ZM144.098 33.648C156.77 31.472 209.762 24.304 209.762 10.096C209.762 9.45599 209.634 8.81599 209.378 8.17599C208.354 4.84799 205.666 3.56799 201.826 3.56799C185.442 3.56799 149.474 29.424 144.098 33.648ZM209.035 128.24H208.651C205.707 128.24 204.555 125.68 204.555 122.096C204.555 118.512 205.707 113.776 207.755 109.552C202.763 113.264 198.923 114.672 196.235 114.672C192.651 114.672 190.987 112.24 190.987 109.04C190.987 103.792 195.467 96.624 203.915 94.32C204.683 94.064 205.579 94.064 206.347 94.064C209.163 94.064 211.595 95.472 214.027 98.928L215.819 96.24C215.947 95.984 216.203 95.856 216.587 95.856C217.483 95.856 218.635 96.88 218.635 97.648L218.507 98.032C216.075 101.104 213.643 105.2 211.083 109.808C208.011 115.312 206.987 119.536 206.987 122.224C206.987 124.784 207.883 126.192 209.163 126.32H209.419C217.867 126.32 242.571 101.36 254.091 98.16L254.603 98.032C254.987 98.032 255.243 98.288 255.243 98.544C255.243 98.672 254.987 98.928 254.731 99.184C239.627 105.456 218.379 127.984 209.035 128.24ZM196.107 113.008C199.563 113.008 206.219 109.168 212.747 100.72C210.827 97.392 208.651 96.112 206.475 96.112C203.019 96.112 199.563 99.312 196.875 102.896C194.315 106.224 193.291 108.656 193.291 110.448C193.291 112.112 194.315 113.008 196.107 113.008ZM252.851 125.168L251.315 124.912C249.267 124.272 248.499 122.736 248.499 120.816C248.499 115.824 253.491 107.888 254.643 104.304C254.899 103.408 255.155 102.384 255.155 101.616C255.155 100.72 254.899 100.08 254.387 99.696C253.491 99.184 253.107 98.416 253.107 97.52C253.107 94.448 257.331 89.712 260.531 89.712L261.171 89.84C261.683 89.968 261.939 90.224 261.939 90.736C261.939 92.656 257.971 97.008 256.051 98.16C257.075 99.056 257.459 100.336 257.459 101.744C257.459 107.632 250.419 116.592 250.419 120.688C250.419 121.84 250.803 122.48 251.955 122.864C252.339 122.992 252.723 122.992 253.235 122.992C261.939 122.992 289.075 103.408 296.115 98.544C296.499 98.288 296.755 98.288 297.011 98.288C297.267 98.288 297.395 98.288 297.395 98.544C297.395 98.672 297.267 99.056 296.755 99.312C289.075 104.688 262.707 125.168 252.851 125.168ZM255.411 97.008C257.331 95.984 260.019 92.272 260.019 91.76C260.019 91.632 260.019 91.632 259.891 91.632C258.483 92.4 255.411 95.984 255.411 96.88V97.008ZM273.984 161.648C273.728 161.648 273.472 161.392 273.216 160.88C272.576 159.216 272.32 157.296 272.32 155.248C272.32 128.752 315.2 67.824 326.848 50.544C313.024 47.856 297.024 44.784 282.048 44.784C270.4 44.784 259.392 46.576 250.56 52.08L249.92 52.336C249.536 52.336 249.408 52.08 249.408 51.824C249.408 51.568 249.664 51.184 250.048 50.928C259.648 44.912 271.68 42.864 284.352 42.864C299.2 42.864 314.816 45.68 328.384 48.112C332.992 41.456 342.848 27.888 348.224 21.104C348.736 20.592 349.376 20.336 350.016 20.336C351.04 20.336 352.064 20.976 352.064 21.744C352.064 22 351.936 22.384 351.68 22.64C345.664 30.576 336.96 42.736 332.864 49.008C335.04 49.264 337.088 49.776 339.136 50.032C351.04 51.952 370.752 54.896 388.288 54.896C401.6 54.896 413.76 53.232 420.288 48.112C420.672 47.856 420.928 47.728 421.184 47.728C421.44 47.728 421.696 47.984 421.696 48.24C421.696 48.496 421.568 48.88 421.184 49.136C413.632 55.024 399.552 56.944 384.576 56.944C367.808 56.944 349.76 54.512 338.496 52.592C336.192 52.208 333.76 51.696 331.2 51.312C318.784 68.592 273.728 132.976 273.728 155.888C273.728 157.552 273.984 159.088 274.496 160.24L274.624 160.752C274.624 161.264 274.368 161.648 273.984 161.648ZM338.16 128.24H337.776C334.832 128.24 333.68 125.68 333.68 122.096C333.68 118.512 334.832 113.776 336.88 109.552C331.888 113.264 328.048 114.672 325.36 114.672C321.776 114.672 320.112 112.24 320.112 109.04C320.112 103.792 324.592 96.624 333.04 94.32C333.808 94.064 334.704 94.064 335.472 94.064C338.288 94.064 340.72 95.472 343.152 98.928L344.944 96.24C345.072 95.984 345.328 95.856 345.712 95.856C346.608 95.856 347.76 96.88 347.76 97.648L347.632 98.032C345.2 101.104 342.768 105.2 340.208 109.808C337.136 115.312 336.112 119.536 336.112 122.224C336.112 124.784 337.008 126.192 338.288 126.32H338.544C346.992 126.32 371.696 101.36 383.216 98.16L383.728 98.032C384.112 98.032 384.368 98.288 384.368 98.544C384.368 98.672 384.112 98.928 383.856 99.184C368.752 105.456 347.504 127.984 338.16 128.24ZM325.232 113.008C328.688 113.008 335.344 109.168 341.872 100.72C339.952 97.392 337.776 96.112 335.6 96.112C332.144 96.112 328.688 99.312 326 102.896C323.44 106.224 322.416 108.656 322.416 110.448C322.416 112.112 323.44 113.008 325.232 113.008ZM330.52 202.608C329.752 202.608 329.112 202.608 328.344 202.352C324.888 201.328 323.48 199.152 323.48 196.208C323.48 185.2 343.448 163.824 348.44 158.832C371.48 136.048 392.6 121.584 394.648 120.048L404.888 102.896C400.152 107.504 387.992 115.568 381.208 115.568C379.8 115.568 378.52 115.056 377.624 114.16C376.6 113.008 376.216 111.6 376.216 110.192C376.216 105.584 380.312 100.208 383.896 97.52C387.992 94.576 392.472 92.912 396.824 92.912C401.048 92.912 404.888 94.448 407.832 97.904C408.856 96.496 409.624 94.96 410.264 94.448C410.392 94.32 410.648 94.192 410.904 94.192C411.672 94.192 412.696 94.576 412.696 95.216L412.568 95.472C408.728 102.384 403.864 110.704 399.768 117.488C406.808 113.008 418.584 106.48 432.408 98.288L432.792 98.16C433.048 98.16 433.304 98.416 433.304 98.672L433.048 99.184C419.224 107.888 411.032 111.6 397.72 120.816L390.552 132.72C384.536 143.216 349.72 202.608 330.52 202.608ZM331.16 200.688C349.336 200.688 382.872 139.76 392.344 123.76C379.8 132.72 363.16 146.416 349.72 160.112C344.088 165.872 325.4 186.096 325.4 195.696C325.4 198 326.424 199.664 329.112 200.432C329.752 200.56 330.392 200.688 331.16 200.688ZM382.488 113.52C388.632 113.52 401.944 104.048 406.936 99.312C404.12 95.984 401.048 94.704 398.104 94.704C393.752 94.704 389.528 97.392 385.688 100.592C383.384 102.512 379.16 107.12 379.16 110.576C379.16 111.344 379.416 111.984 379.928 112.624C380.568 113.264 381.336 113.52 382.488 113.52ZM432.771 120.048C431.363 120.048 430.083 119.792 428.931 119.28C426.243 118.128 425.219 115.568 425.219 112.624C425.219 109.68 426.243 106.608 427.651 104.048C432.771 94.96 439.043 92.144 443.011 92.144C445.315 92.144 446.851 93.04 446.851 94.32C446.851 97.52 441.219 102.768 430.723 104.816C429.059 108.144 428.419 110.704 428.419 112.624C428.419 116.208 430.595 117.744 433.539 117.872H434.179C443.779 117.872 461.187 106.992 472.707 98.416L473.347 98.16C473.603 98.16 473.859 98.416 473.859 98.544C473.859 98.8 473.731 99.056 473.347 99.312C460.931 108.784 443.011 120.048 432.771 120.048ZM431.747 102.896C437.763 102.384 445.443 97.648 445.443 95.216C445.443 94.96 445.315 94.704 445.059 94.448C444.803 94.192 444.291 93.936 443.651 93.936C441.091 93.936 436.099 96.368 431.747 102.896ZM460.468 123.376C459.956 123.376 459.444 122.864 459.444 122.224V121.84C460.596 118.768 461.492 115.824 464.18 111.344C468.532 103.92 473.14 96.88 473.908 95.984C474.292 95.6 474.548 95.472 474.932 95.472C475.7 95.472 476.596 96.24 476.596 96.88C476.596 97.008 476.468 97.264 476.34 97.392C471.22 104.304 465.46 112.752 461.62 120.432C465.076 116.464 479.668 100.464 485.684 100.464C486.196 100.464 486.58 100.464 486.964 100.72C487.348 100.976 487.86 101.104 487.86 102L487.732 102.896C487.348 104.688 487.092 106.864 487.092 109.04C487.092 114.672 488.756 120.304 493.492 120.432C502.836 120.432 521.524 102.512 529.332 98.16H529.716C529.972 98.16 530.228 98.288 530.228 98.544C530.228 98.672 530.1 98.8 529.844 98.928C520.884 104.944 502.58 122.224 492.98 122.224H492.724C484.66 121.968 483.508 112.88 483.508 106.48V103.536C474.804 108.528 465.204 119.024 461.108 123.12L460.468 123.376ZM540.91 128.24H540.526C537.582 128.24 536.43 125.68 536.43 122.096C536.43 118.512 537.582 113.776 539.63 109.552C534.638 113.264 530.798 114.672 528.11 114.672C524.526 114.672 522.862 112.24 522.862 109.04C522.862 103.792 527.342 96.624 535.79 94.32C536.558 94.064 537.454 94.064 538.222 94.064C541.038 94.064 543.47 95.472 545.902 98.928L547.694 96.24C547.822 95.984 548.078 95.856 548.462 95.856C549.358 95.856 550.51 96.88 550.51 97.648L550.382 98.032C547.95 101.104 545.518 105.2 542.958 109.808C539.886 115.312 538.862 119.536 538.862 122.224C538.862 124.784 539.758 126.192 541.038 126.32H541.294C549.742 126.32 574.446 101.36 585.966 98.16L586.478 98.032C586.862 98.032 587.118 98.288 587.118 98.544C587.118 98.672 586.862 98.928 586.606 99.184C571.502 105.456 550.254 127.984 540.91 128.24ZM527.982 113.008C531.438 113.008 538.094 109.168 544.622 100.72C542.702 97.392 540.526 96.112 538.35 96.112C534.894 96.112 531.438 99.312 528.75 102.896C526.19 106.224 525.166 108.656 525.166 110.448C525.166 112.112 526.19 113.008 527.982 113.008Z"/>
</mask>
<path d="M93.282 169.84C79.202 169.84 73.314 160.752 73.314 147.184C73.314 116.848 102.114 64.112 132.962 37.616C100.45 42.864 67.17 49.008 37.602 69.872C20.578 81.904 6.37 97.776 2.402 118.896C2.274 119.536 2.018 119.792 1.762 119.792C1.506 119.792 1.25 119.536 1.25 119.024V118.64C15.33 44.912 132.834 36.464 136.29 34.928C136.546 34.8 177.378 1.90399 202.082 1.392H202.466C209.25 1.392 210.914 4.84799 211.554 8.94399L211.682 10.096C211.682 27.248 152.546 34.416 140.898 36.464C114.786 55.92 76.386 117.616 76.386 148.72C76.386 159.856 81.378 167.024 93.41 167.024C95.074 167.024 96.994 166.896 98.914 166.64C124.898 162.928 175.97 119.664 196.834 98.672C197.09 98.416 197.346 98.288 197.602 98.288C197.858 98.288 198.114 98.544 198.114 98.8C198.114 98.928 198.114 99.184 197.858 99.44C180.45 119.792 125.41 165.616 98.914 169.456C96.866 169.712 95.074 169.84 93.282 169.84ZM144.098 33.648C156.77 31.472 209.762 24.304 209.762 10.096C209.762 9.45599 209.634 8.81599 209.378 8.17599C208.354 4.84799 205.666 3.56799 201.826 3.56799C185.442 3.56799 149.474 29.424 144.098 33.648ZM209.035 128.24H208.651C205.707 128.24 204.555 125.68 204.555 122.096C204.555 118.512 205.707 113.776 207.755 109.552C202.763 113.264 198.923 114.672 196.235 114.672C192.651 114.672 190.987 112.24 190.987 109.04C190.987 103.792 195.467 96.624 203.915 94.32C204.683 94.064 205.579 94.064 206.347 94.064C209.163 94.064 211.595 95.472 214.027 98.928L215.819 96.24C215.947 95.984 216.203 95.856 216.587 95.856C217.483 95.856 218.635 96.88 218.635 97.648L218.507 98.032C216.075 101.104 213.643 105.2 211.083 109.808C208.011 115.312 206.987 119.536 206.987 122.224C206.987 124.784 207.883 126.192 209.163 126.32H209.419C217.867 126.32 242.571 101.36 254.091 98.16L254.603 98.032C254.987 98.032 255.243 98.288 255.243 98.544C255.243 98.672 254.987 98.928 254.731 99.184C239.627 105.456 218.379 127.984 209.035 128.24ZM196.107 113.008C199.563 113.008 206.219 109.168 212.747 100.72C210.827 97.392 208.651 96.112 206.475 96.112C203.019 96.112 199.563 99.312 196.875 102.896C194.315 106.224 193.291 108.656 193.291 110.448C193.291 112.112 194.315 113.008 196.107 113.008ZM252.851 125.168L251.315 124.912C249.267 124.272 248.499 122.736 248.499 120.816C248.499 115.824 253.491 107.888 254.643 104.304C254.899 103.408 255.155 102.384 255.155 101.616C255.155 100.72 254.899 100.08 254.387 99.696C253.491 99.184 253.107 98.416 253.107 97.52C253.107 94.448 257.331 89.712 260.531 89.712L261.171 89.84C261.683 89.968 261.939 90.224 261.939 90.736C261.939 92.656 257.971 97.008 256.051 98.16C257.075 99.056 257.459 100.336 257.459 101.744C257.459 107.632 250.419 116.592 250.419 120.688C250.419 121.84 250.803 122.48 251.955 122.864C252.339 122.992 252.723 122.992 253.235 122.992C261.939 122.992 289.075 103.408 296.115 98.544C296.499 98.288 296.755 98.288 297.011 98.288C297.267 98.288 297.395 98.288 297.395 98.544C297.395 98.672 297.267 99.056 296.755 99.312C289.075 104.688 262.707 125.168 252.851 125.168ZM255.411 97.008C257.331 95.984 260.019 92.272 260.019 91.76C260.019 91.632 260.019 91.632 259.891 91.632C258.483 92.4 255.411 95.984 255.411 96.88V97.008ZM273.984 161.648C273.728 161.648 273.472 161.392 273.216 160.88C272.576 159.216 272.32 157.296 272.32 155.248C272.32 128.752 315.2 67.824 326.848 50.544C313.024 47.856 297.024 44.784 282.048 44.784C270.4 44.784 259.392 46.576 250.56 52.08L249.92 52.336C249.536 52.336 249.408 52.08 249.408 51.824C249.408 51.568 249.664 51.184 250.048 50.928C259.648 44.912 271.68 42.864 284.352 42.864C299.2 42.864 314.816 45.68 328.384 48.112C332.992 41.456 342.848 27.888 348.224 21.104C348.736 20.592 349.376 20.336 350.016 20.336C351.04 20.336 352.064 20.976 352.064 21.744C352.064 22 351.936 22.384 351.68 22.64C345.664 30.576 336.96 42.736 332.864 49.008C335.04 49.264 337.088 49.776 339.136 50.032C351.04 51.952 370.752 54.896 388.288 54.896C401.6 54.896 413.76 53.232 420.288 48.112C420.672 47.856 420.928 47.728 421.184 47.728C421.44 47.728 421.696 47.984 421.696 48.24C421.696 48.496 421.568 48.88 421.184 49.136C413.632 55.024 399.552 56.944 384.576 56.944C367.808 56.944 349.76 54.512 338.496 52.592C336.192 52.208 333.76 51.696 331.2 51.312C318.784 68.592 273.728 132.976 273.728 155.888C273.728 157.552 273.984 159.088 274.496 160.24L274.624 160.752C274.624 161.264 274.368 161.648 273.984 161.648ZM338.16 128.24H337.776C334.832 128.24 333.68 125.68 333.68 122.096C333.68 118.512 334.832 113.776 336.88 109.552C331.888 113.264 328.048 114.672 325.36 114.672C321.776 114.672 320.112 112.24 320.112 109.04C320.112 103.792 324.592 96.624 333.04 94.32C333.808 94.064 334.704 94.064 335.472 94.064C338.288 94.064 340.72 95.472 343.152 98.928L344.944 96.24C345.072 95.984 345.328 95.856 345.712 95.856C346.608 95.856 347.76 96.88 347.76 97.648L347.632 98.032C345.2 101.104 342.768 105.2 340.208 109.808C337.136 115.312 336.112 119.536 336.112 122.224C336.112 124.784 337.008 126.192 338.288 126.32H338.544C346.992 126.32 371.696 101.36 383.216 98.16L383.728 98.032C384.112 98.032 384.368 98.288 384.368 98.544C384.368 98.672 384.112 98.928 383.856 99.184C368.752 105.456 347.504 127.984 338.16 128.24ZM325.232 113.008C328.688 113.008 335.344 109.168 341.872 100.72C339.952 97.392 337.776 96.112 335.6 96.112C332.144 96.112 328.688 99.312 326 102.896C323.44 106.224 322.416 108.656 322.416 110.448C322.416 112.112 323.44 113.008 325.232 113.008ZM330.52 202.608C329.752 202.608 329.112 202.608 328.344 202.352C324.888 201.328 323.48 199.152 323.48 196.208C323.48 185.2 343.448 163.824 348.44 158.832C371.48 136.048 392.6 121.584 394.648 120.048L404.888 102.896C400.152 107.504 387.992 115.568 381.208 115.568C379.8 115.568 378.52 115.056 377.624 114.16C376.6 113.008 376.216 111.6 376.216 110.192C376.216 105.584 380.312 100.208 383.896 97.52C387.992 94.576 392.472 92.912 396.824 92.912C401.048 92.912 404.888 94.448 407.832 97.904C408.856 96.496 409.624 94.96 410.264 94.448C410.392 94.32 410.648 94.192 410.904 94.192C411.672 94.192 412.696 94.576 412.696 95.216L412.568 95.472C408.728 102.384 403.864 110.704 399.768 117.488C406.808 113.008 418.584 106.48 432.408 98.288L432.792 98.16C433.048 98.16 433.304 98.416 433.304 98.672L433.048 99.184C419.224 107.888 411.032 111.6 397.72 120.816L390.552 132.72C384.536 143.216 349.72 202.608 330.52 202.608ZM331.16 200.688C349.336 200.688 382.872 139.76 392.344 123.76C379.8 132.72 363.16 146.416 349.72 160.112C344.088 165.872 325.4 186.096 325.4 195.696C325.4 198 326.424 199.664 329.112 200.432C329.752 200.56 330.392 200.688 331.16 200.688ZM382.488 113.52C388.632 113.52 401.944 104.048 406.936 99.312C404.12 95.984 401.048 94.704 398.104 94.704C393.752 94.704 389.528 97.392 385.688 100.592C383.384 102.512 379.16 107.12 379.16 110.576C379.16 111.344 379.416 111.984 379.928 112.624C380.568 113.264 381.336 113.52 382.488 113.52ZM432.771 120.048C431.363 120.048 430.083 119.792 428.931 119.28C426.243 118.128 425.219 115.568 425.219 112.624C425.219 109.68 426.243 106.608 427.651 104.048C432.771 94.96 439.043 92.144 443.011 92.144C445.315 92.144 446.851 93.04 446.851 94.32C446.851 97.52 441.219 102.768 430.723 104.816C429.059 108.144 428.419 110.704 428.419 112.624C428.419 116.208 430.595 117.744 433.539 117.872H434.179C443.779 117.872 461.187 106.992 472.707 98.416L473.347 98.16C473.603 98.16 473.859 98.416 473.859 98.544C473.859 98.8 473.731 99.056 473.347 99.312C460.931 108.784 443.011 120.048 432.771 120.048ZM431.747 102.896C437.763 102.384 445.443 97.648 445.443 95.216C445.443 94.96 445.315 94.704 445.059 94.448C444.803 94.192 444.291 93.936 443.651 93.936C441.091 93.936 436.099 96.368 431.747 102.896ZM460.468 123.376C459.956 123.376 459.444 122.864 459.444 122.224V121.84C460.596 118.768 461.492 115.824 464.18 111.344C468.532 103.92 473.14 96.88 473.908 95.984C474.292 95.6 474.548 95.472 474.932 95.472C475.7 95.472 476.596 96.24 476.596 96.88C476.596 97.008 476.468 97.264 476.34 97.392C471.22 104.304 465.46 112.752 461.62 120.432C465.076 116.464 479.668 100.464 485.684 100.464C486.196 100.464 486.58 100.464 486.964 100.72C487.348 100.976 487.86 101.104 487.86 102L487.732 102.896C487.348 104.688 487.092 106.864 487.092 109.04C487.092 114.672 488.756 120.304 493.492 120.432C502.836 120.432 521.524 102.512 529.332 98.16H529.716C529.972 98.16 530.228 98.288 530.228 98.544C530.228 98.672 530.1 98.8 529.844 98.928C520.884 104.944 502.58 122.224 492.98 122.224H492.724C484.66 121.968 483.508 112.88 483.508 106.48V103.536C474.804 108.528 465.204 119.024 461.108 123.12L460.468 123.376ZM540.91 128.24H540.526C537.582 128.24 536.43 125.68 536.43 122.096C536.43 118.512 537.582 113.776 539.63 109.552C534.638 113.264 530.798 114.672 528.11 114.672C524.526 114.672 522.862 112.24 522.862 109.04C522.862 103.792 527.342 96.624 535.79 94.32C536.558 94.064 537.454 94.064 538.222 94.064C541.038 94.064 543.47 95.472 545.902 98.928L547.694 96.24C547.822 95.984 548.078 95.856 548.462 95.856C549.358 95.856 550.51 96.88 550.51 97.648L550.382 98.032C547.95 101.104 545.518 105.2 542.958 109.808C539.886 115.312 538.862 119.536 538.862 122.224C538.862 124.784 539.758 126.192 541.038 126.32H541.294C549.742 126.32 574.446 101.36 585.966 98.16L586.478 98.032C586.862 98.032 587.118 98.288 587.118 98.544C587.118 98.672 586.862 98.928 586.606 99.184C571.502 105.456 550.254 127.984 540.91 128.24ZM527.982 113.008C531.438 113.008 538.094 109.168 544.622 100.72C542.702 97.392 540.526 96.112 538.35 96.112C534.894 96.112 531.438 99.312 528.75 102.896C526.19 106.224 525.166 108.656 525.166 110.448C525.166 112.112 526.19 113.008 527.982 113.008Z" fill="#8B9B68"/>
<path d="M132.962 37.616L133.288 37.9953L134.633 36.8398L132.882 37.1224L132.962 37.616ZM37.602 69.872L37.3137 69.4635L37.3134 69.4637L37.602 69.872ZM2.402 118.896L2.89232 118.994L2.8934 118.988L2.402 118.896ZM1.25 118.64L0.758876 118.546L0.75 118.593V118.64H1.25ZM136.29 34.928L136.493 35.3849L136.503 35.3803L136.514 35.3752L136.29 34.928ZM202.082 1.392V0.891891L202.072 0.892106L202.082 1.392ZM211.554 8.94399L212.051 8.88878L212.05 8.87776L212.048 8.8668L211.554 8.94399ZM211.682 10.096H212.182V10.0683L212.179 10.0408L211.682 10.096ZM140.898 36.464L140.811 35.9716L140.694 35.9921L140.599 36.0631L140.898 36.464ZM98.914 166.64L98.9801 167.136L98.9847 167.135L98.914 166.64ZM196.834 98.672L196.48 98.3184L196.479 98.3195L196.834 98.672ZM197.858 99.44L197.504 99.0864L197.491 99.1002L197.478 99.115L197.858 99.44ZM98.914 169.456L98.976 169.952L98.9857 169.951L98.914 169.456ZM144.098 33.648L143.789 33.2548L144.183 34.1408L144.098 33.648ZM209.378 8.17599L208.9 8.32304L208.906 8.34264L208.914 8.36169L209.378 8.17599ZM93.282 169.84V169.34C86.3569 169.34 81.5224 167.111 78.4057 163.284C75.2742 159.44 73.814 153.906 73.814 147.184H73.314H72.814C72.814 154.03 74.2978 159.824 77.6303 163.916C80.9776 168.025 86.1271 170.34 93.282 170.34V169.84ZM73.314 147.184H73.814C73.814 132.141 80.9669 111.462 92.009 91.1993C103.044 70.9491 117.921 51.1939 133.288 37.9953L132.962 37.616L132.636 37.2367C117.155 50.5341 102.208 70.3949 91.131 90.7207C80.0611 111.034 72.814 131.891 72.814 147.184H73.314ZM132.962 37.616L132.882 37.1224C100.375 42.3697 66.9867 48.5254 37.3137 69.4635L37.602 69.872L37.8903 70.2805C67.3533 49.4906 100.525 43.3583 133.042 38.1096L132.962 37.616ZM37.602 69.872L37.3134 69.4637C20.235 81.5342 5.91216 97.505 1.9106 118.804L2.402 118.896L2.8934 118.988C6.82784 98.047 20.921 82.2738 37.8906 70.2803L37.602 69.872ZM2.402 118.896L1.91171 118.798C1.8562 119.075 1.78232 119.217 1.73532 119.277C1.69575 119.328 1.7027 119.292 1.762 119.292V119.792V120.292C2.0773 120.292 2.34025 120.128 2.52468 119.891C2.70168 119.663 2.8198 119.357 2.89229 118.994L2.402 118.896ZM1.762 119.792V119.292C1.81047 119.292 1.82365 119.318 1.81 119.3C1.794 119.279 1.75 119.2 1.75 119.024H1.25H0.75C0.75 119.669 1.106 120.292 1.762 120.292V119.792ZM1.25 119.024H1.75V118.64H1.25H0.75V119.024H1.25ZM1.25 118.64L1.74112 118.734C8.72871 82.1443 41.3941 61.6883 72.9254 50.1817C88.6741 44.4346 104.097 40.9368 115.803 38.7797C121.655 37.7013 126.576 36.9584 130.145 36.4367C131.927 36.1762 133.379 35.97 134.436 35.8053C134.964 35.7229 135.401 35.6499 135.734 35.5848C136.048 35.5235 136.325 35.4598 136.493 35.3849L136.29 34.928L136.087 34.4711C136.04 34.4922 135.877 34.538 135.543 34.6033C135.228 34.6647 134.807 34.7353 134.282 34.8172C133.231 34.981 131.79 35.1857 130 35.4473C126.427 35.9696 121.491 36.7146 115.621 37.7963C103.883 39.9592 88.4019 43.4694 72.5826 49.2423C40.9779 60.7757 7.85129 81.4077 0.758876 118.546L1.25 118.64ZM136.29 34.928L136.514 35.3752C136.546 35.3591 136.571 35.3419 136.573 35.3405C136.582 35.3348 136.589 35.3293 136.595 35.3253C136.606 35.317 136.619 35.3075 136.632 35.2978C136.658 35.2781 136.694 35.251 136.737 35.2178C136.823 35.1511 136.947 35.0543 137.107 34.9307C137.425 34.6828 137.888 34.3233 138.482 33.8679C139.669 32.957 141.378 31.6618 143.499 30.1095C147.743 27.0045 153.632 22.872 160.282 18.7284C166.934 14.5839 174.339 10.4336 181.614 7.28895C188.897 4.14087 196.012 2.01792 202.092 1.89189L202.082 1.392L202.072 0.892106C195.8 1.02208 188.547 3.20312 181.218 6.37104C173.881 9.54237 166.43 13.7201 159.754 17.8796C153.076 22.04 147.166 26.1875 142.909 29.3025C140.78 30.8602 139.064 32.16 137.873 33.0746C137.277 33.5319 136.812 33.8928 136.493 34.1411C136.333 34.2656 136.21 34.3608 136.126 34.4262C136.083 34.459 136.052 34.4829 136.031 34.4987C136.02 34.5068 136.014 34.5111 136.012 34.5128C135.994 34.526 136.025 34.5015 136.066 34.4808L136.29 34.928ZM202.082 1.392V1.892H202.466V1.392V0.891998H202.082V1.392ZM202.466 1.392V1.892C205.774 1.892 207.737 2.73275 208.956 3.98137C210.189 5.24382 210.745 7.00364 211.06 9.02118L211.554 8.94399L212.048 8.8668C211.723 6.78834 211.127 4.77217 209.672 3.28263C208.203 1.77925 205.942 0.891998 202.466 0.891998V1.392ZM211.554 8.94399L211.057 8.9992L211.185 10.1512L211.682 10.096L212.179 10.0408L212.051 8.88878L211.554 8.94399ZM211.682 10.096H211.182C211.182 12.0846 210.328 13.9592 208.745 15.737C207.158 17.5192 204.857 19.1816 202.021 20.7248C196.349 23.8112 188.641 26.3671 180.533 28.4599C164.318 32.6454 146.668 34.9419 140.811 35.9716L140.898 36.464L140.985 36.9564C146.776 35.9381 164.518 33.6266 180.783 29.4281C188.915 27.3289 196.719 24.7488 202.499 21.6032C205.389 20.0304 207.799 18.3028 209.492 16.402C211.188 14.4968 212.182 12.3954 212.182 10.096H211.682ZM140.898 36.464L140.599 36.0631C127.465 45.8493 111.297 66.2035 98.4197 87.9694C91.9767 98.8599 86.3473 110.121 82.3271 120.615C78.3101 131.101 75.886 140.855 75.886 148.72H76.386H76.886C76.886 141.033 79.2619 131.411 83.2609 120.973C87.2567 110.543 92.8593 99.3321 99.2803 88.4786C112.131 66.7565 128.219 46.5347 141.197 36.8649L140.898 36.464ZM76.386 148.72H75.886C75.886 154.353 77.1473 159.065 80.0077 162.375C82.8798 165.698 87.2921 167.524 93.41 167.524V167.024V166.524C87.4959 166.524 83.3962 164.766 80.7643 161.721C78.1207 158.663 76.886 154.223 76.886 148.72H76.386ZM93.41 167.024V167.524C95.0978 167.524 97.0399 167.394 98.9801 167.136L98.914 166.64L98.8479 166.144C96.9481 166.398 95.0502 166.524 93.41 166.524V167.024ZM98.914 166.64L98.9847 167.135C105.574 166.194 113.703 162.757 122.486 157.842C131.28 152.922 140.771 146.496 150.093 139.537C168.737 125.618 186.74 109.538 197.189 99.0245L196.834 98.672L196.479 98.3195C186.064 108.798 168.099 124.846 149.495 138.735C140.193 145.68 130.74 152.078 121.998 156.97C113.245 161.867 105.246 165.23 98.8433 166.145L98.914 166.64ZM196.834 98.672L197.188 99.0255C197.389 98.824 197.525 98.788 197.602 98.788V98.288V97.788C197.167 97.788 196.791 98.0079 196.48 98.3184L196.834 98.672ZM197.602 98.288V98.788C197.583 98.788 197.575 98.7834 197.579 98.7851C197.58 98.7858 197.583 98.7874 197.587 98.7904C197.591 98.7933 197.596 98.7971 197.6 98.8016C197.605 98.806 197.609 98.8105 197.612 98.8147C197.615 98.8189 197.616 98.822 197.617 98.8234C197.619 98.8271 197.614 98.8192 197.614 98.8H198.114H198.614C198.614 98.5094 198.474 98.2606 198.308 98.0944C198.141 97.9283 197.893 97.788 197.602 97.788V98.288ZM198.114 98.8H197.614C197.614 98.8594 197.613 98.8949 197.601 98.9346C197.591 98.9688 197.57 99.0213 197.504 99.0864L197.858 99.44L198.212 99.7936C198.612 99.3936 198.614 98.9669 198.614 98.8H198.114ZM197.858 99.44L197.478 99.115C188.806 109.253 170.725 125.773 151.493 140.24C141.881 147.472 131.992 154.182 122.859 159.322C113.714 164.469 105.372 168.015 98.8423 168.961L98.914 169.456L98.9857 169.951C105.704 168.977 114.178 165.355 123.349 160.194C132.532 155.026 142.459 148.288 152.095 141.04C171.359 126.547 189.502 109.979 198.238 99.765L197.858 99.44ZM98.914 169.456L98.852 168.96C96.8199 169.214 95.0491 169.34 93.282 169.34V169.84V170.34C95.099 170.34 96.9121 170.21 98.976 169.952L98.914 169.456ZM144.098 33.648L144.183 34.1408C150.499 33.0562 166.949 30.7149 181.807 26.868C189.235 24.9451 196.299 22.6378 201.516 19.907C204.124 18.5419 206.297 17.0575 207.824 15.4414C209.353 13.8224 210.262 12.0397 210.262 10.096H209.762H209.262C209.262 11.7043 208.515 13.2536 207.097 14.7546C205.676 16.2585 203.61 17.6821 201.052 19.021C195.937 21.6982 188.961 23.9828 181.557 25.9C166.751 29.7331 150.369 32.0638 144.013 33.1552L144.098 33.648ZM209.762 10.096H210.262C210.262 9.38762 210.12 8.68477 209.842 7.9903L209.378 8.17599L208.914 8.36169C209.148 8.94722 209.262 9.52437 209.262 10.096H209.762ZM209.378 8.17599L209.856 8.02895C209.31 6.25381 208.306 4.99458 206.907 4.19054C205.524 3.39503 203.795 3.06799 201.826 3.06799V3.56799V4.06799C203.697 4.06799 205.232 4.38096 206.409 5.05745C207.57 5.72541 208.422 6.77017 208.9 8.32304L209.378 8.17599ZM201.826 3.56799V3.06799C197.623 3.06799 192.225 4.71942 186.452 7.21504C180.664 9.71692 174.444 13.0928 168.578 16.5947C156.847 23.5979 146.493 31.13 143.789 33.2548L144.098 33.648L144.407 34.0412C147.079 31.942 157.397 24.4341 169.09 17.4533C174.936 13.9632 181.116 10.6111 186.848 8.13295C192.595 5.64857 197.837 4.06799 201.826 4.06799V3.56799ZM209.035 128.24V128.74L209.049 128.74L209.035 128.24ZM207.755 109.552L208.205 109.77L207.457 109.151L207.755 109.552ZM203.915 94.32L204.047 94.8024L204.06 94.7987L204.073 94.7943L203.915 94.32ZM214.027 98.928L213.618 99.2157L214.038 99.8127L214.443 99.2053L214.027 98.928ZM215.819 96.24L216.235 96.5173L216.252 96.4914L216.266 96.4636L215.819 96.24ZM218.635 97.648L219.109 97.8061L219.135 97.7291V97.648H218.635ZM218.507 98.032L218.899 98.3423L218.954 98.2735L218.981 98.1901L218.507 98.032ZM211.083 109.808L211.52 110.052L211.52 110.051L211.083 109.808ZM209.163 126.32L209.113 126.818L209.138 126.82H209.163V126.32ZM254.091 98.16L253.97 97.6748L253.957 97.6782L254.091 98.16ZM254.603 98.032V97.532H254.541L254.482 97.5469L254.603 98.032ZM254.731 99.184L254.923 99.6458L255.014 99.6077L255.085 99.5376L254.731 99.184ZM212.747 100.72L213.143 101.026L213.348 100.76L213.18 100.47L212.747 100.72ZM196.875 102.896L197.271 103.201L197.275 103.196L196.875 102.896ZM209.035 128.24V127.74H208.651V128.24V128.74H209.035V128.24ZM208.651 128.24V127.74C207.356 127.74 206.493 127.193 205.927 126.254C205.339 125.279 205.055 123.849 205.055 122.096H204.555H204.055C204.055 123.927 204.347 125.569 205.071 126.77C205.817 128.007 207.002 128.74 208.651 128.74V128.24ZM204.555 122.096H205.055C205.055 118.601 206.183 113.94 208.205 109.77L207.755 109.552L207.305 109.334C205.231 113.612 204.055 118.423 204.055 122.096H204.555ZM207.755 109.552L207.457 109.151C202.499 112.837 198.765 114.172 196.235 114.172V114.672V115.172C199.081 115.172 203.027 113.691 208.053 109.953L207.755 109.552ZM196.235 114.672V114.172C194.564 114.172 193.401 113.61 192.647 112.731C191.882 111.839 191.487 110.56 191.487 109.04H190.987H190.487C190.487 110.72 190.924 112.257 191.887 113.381C192.861 114.518 194.322 115.172 196.235 115.172V114.672ZM190.987 109.04H191.487C191.487 104.034 195.8 97.0514 204.047 94.8024L203.915 94.32L203.783 93.8376C195.134 96.1966 190.487 103.55 190.487 109.04H190.987ZM203.915 94.32L204.073 94.7943C204.75 94.5686 205.561 94.564 206.347 94.564V94.064V93.564C205.597 93.564 204.616 93.5594 203.757 93.8457L203.915 94.32ZM206.347 94.064V94.564C208.947 94.564 211.244 95.8425 213.618 99.2157L214.027 98.928L214.436 98.6403C211.946 95.1015 209.379 93.564 206.347 93.564V94.064ZM214.027 98.928L214.443 99.2053L216.235 96.5173L215.819 96.24L215.403 95.9626L213.611 98.6506L214.027 98.928ZM215.819 96.24L216.266 96.4636C216.28 96.4354 216.317 96.356 216.587 96.356V95.856V95.356C216.089 95.356 215.614 95.5326 215.372 96.0164L215.819 96.24ZM216.587 95.856V96.356C216.867 96.356 217.266 96.5308 217.617 96.8394C217.784 96.987 217.921 97.1481 218.012 97.3006C218.106 97.4574 218.135 97.5762 218.135 97.648H218.635H219.135C219.135 97.3358 219.02 97.0386 218.87 96.7874C218.717 96.5319 218.51 96.293 218.277 96.0886C217.828 95.6932 217.203 95.356 216.587 95.356V95.856ZM218.635 97.648L218.161 97.4899L218.033 97.8739L218.507 98.032L218.981 98.1901L219.109 97.8061L218.635 97.648ZM218.507 98.032L218.115 97.7216C215.655 100.829 213.206 104.956 210.646 109.565L211.083 109.808L211.52 110.051C214.08 105.444 216.495 101.379 218.899 98.3423L218.507 98.032ZM211.083 109.808L210.646 109.564C207.549 115.114 206.487 119.423 206.487 122.224H206.987H207.487C207.487 119.649 208.473 115.51 211.52 110.052L211.083 109.808ZM206.987 122.224H206.487C206.487 123.554 206.718 124.639 207.158 125.428C207.606 126.229 208.28 126.734 209.113 126.818L209.163 126.32L209.213 125.822C208.766 125.778 208.352 125.515 208.032 124.94C207.704 124.353 207.487 123.454 207.487 122.224H206.987ZM209.163 126.32V126.82H209.419V126.32V125.82H209.163V126.32ZM209.419 126.32V126.82C210.583 126.82 211.971 126.395 213.499 125.696C215.037 124.993 216.763 123.991 218.615 122.789C222.318 120.387 226.574 117.155 230.907 113.837C235.247 110.514 239.667 107.103 243.722 104.322C247.79 101.533 251.433 99.4173 254.225 98.6418L254.091 98.16L253.957 97.6782C250.989 98.5027 247.224 100.707 243.156 103.498C239.075 106.297 234.631 109.726 230.299 113.043C225.96 116.365 221.736 119.573 218.071 121.951C216.239 123.139 214.559 124.112 213.084 124.787C211.599 125.465 210.367 125.82 209.419 125.82V126.32ZM254.091 98.16L254.212 98.6451L254.724 98.5171L254.603 98.032L254.482 97.5469L253.97 97.6749L254.091 98.16ZM254.603 98.032V98.532C254.683 98.532 254.725 98.5577 254.742 98.5716C254.762 98.5887 254.743 98.585 254.743 98.544H255.243H255.743C255.743 97.9423 255.188 97.532 254.603 97.532V98.032ZM255.243 98.544H254.743C254.743 98.4799 254.758 98.4357 254.764 98.4202C254.771 98.4029 254.775 98.3962 254.772 98.402C254.764 98.4148 254.744 98.4434 254.703 98.4906C254.623 98.5849 254.51 98.6981 254.377 98.8304L254.731 99.184L255.085 99.5376C255.208 99.4138 255.351 99.2711 255.463 99.1414C255.518 99.0766 255.578 99.0012 255.626 98.922C255.664 98.859 255.743 98.7197 255.743 98.544H255.243ZM254.731 99.184L254.539 98.7222C246.91 101.89 237.758 109.145 229.418 115.572C225.231 118.798 221.245 121.82 217.725 124.052C215.966 125.167 214.335 126.078 212.863 126.717C211.386 127.357 210.099 127.711 209.021 127.74L209.035 128.24L209.049 128.74C210.307 128.705 211.728 128.299 213.261 127.634C214.798 126.967 216.478 126.027 218.261 124.896C221.825 122.636 225.847 119.586 230.028 116.364C238.424 109.895 247.448 102.75 254.923 99.6458L254.731 99.184ZM196.107 113.008V113.508C197.987 113.508 200.618 112.48 203.56 110.443C206.52 108.394 209.852 105.284 213.143 101.026L212.747 100.72L212.351 100.414C209.114 104.604 205.854 107.638 202.99 109.621C200.108 111.616 197.683 112.508 196.107 112.508V113.008ZM212.747 100.72L213.18 100.47C211.206 97.0481 208.89 95.612 206.475 95.612V96.112V96.612C208.412 96.612 210.448 97.7359 212.314 100.97L212.747 100.72ZM206.475 96.112V95.612C204.593 95.612 202.76 96.4808 201.083 97.7628C199.402 99.0483 197.835 100.783 196.475 102.596L196.875 102.896L197.275 103.196C198.603 101.425 200.108 99.7677 201.691 98.5572C203.278 97.3432 204.901 96.612 206.475 96.612V96.112ZM196.875 102.896L196.479 102.591C193.903 105.939 192.791 108.484 192.791 110.448H193.291H193.791C193.791 108.828 194.727 106.509 197.271 103.201L196.875 102.896ZM193.291 110.448H192.791C192.791 111.385 193.083 112.175 193.693 112.724C194.294 113.265 195.134 113.508 196.107 113.508V113.008V112.508C195.288 112.508 194.72 112.303 194.361 111.98C194.011 111.665 193.791 111.175 193.791 110.448H193.291ZM252.851 125.168L252.769 125.661L252.81 125.668H252.851V125.168ZM251.315 124.912L251.166 125.389L251.199 125.4L251.233 125.405L251.315 124.912ZM254.643 104.304L255.119 104.457L255.122 104.449L255.124 104.441L254.643 104.304ZM254.387 99.696L254.687 99.296L254.662 99.2773L254.635 99.2619L254.387 99.696ZM260.531 89.712L260.629 89.2217L260.581 89.212H260.531V89.712ZM261.171 89.84L261.292 89.3549L261.281 89.352L261.269 89.3497L261.171 89.84ZM256.051 98.16L255.794 97.7313L255.205 98.0844L255.722 98.5363L256.051 98.16ZM251.955 122.864L252.113 122.39L252.113 122.39L251.955 122.864ZM296.115 98.544L295.838 98.1279L295.831 98.1326L296.115 98.544ZM296.755 99.312L296.531 98.8648L296.498 98.8813L296.468 98.9024L296.755 99.312ZM255.411 97.008H254.911V97.8413L255.646 97.4492L255.411 97.008ZM259.891 91.632V91.132H259.764L259.652 91.193L259.891 91.632ZM252.851 125.168L252.933 124.675L251.397 124.419L251.315 124.912L251.233 125.405L252.769 125.661L252.851 125.168ZM251.315 124.912L251.464 124.435C250.538 124.145 249.938 123.668 249.561 123.076C249.179 122.475 248.999 121.713 248.999 120.816H248.499H247.999C247.999 121.839 248.203 122.805 248.717 123.612C249.236 124.428 250.044 125.039 251.166 125.389L251.315 124.912ZM248.499 120.816H248.999C248.999 118.444 250.197 115.306 251.594 112.239C252.288 110.716 253.014 109.244 253.649 107.909C254.277 106.586 254.819 105.389 255.119 104.457L254.643 104.304L254.167 104.151C253.891 105.011 253.377 106.15 252.745 107.479C252.12 108.796 251.382 110.292 250.684 111.825C249.297 114.87 247.999 118.196 247.999 120.816H248.499ZM254.643 104.304L255.124 104.441C255.378 103.552 255.655 102.464 255.655 101.616H255.155H254.655C254.655 102.304 254.42 103.264 254.162 104.167L254.643 104.304ZM255.155 101.616H255.655C255.655 100.63 255.37 99.8085 254.687 99.296L254.387 99.696L254.087 100.096C254.428 100.352 254.655 100.81 254.655 101.616H255.155ZM254.387 99.696L254.635 99.2619C253.902 98.8432 253.607 98.2454 253.607 97.52H253.107H252.607C252.607 98.5866 253.08 99.5248 254.139 100.13L254.387 99.696ZM253.107 97.52H253.607C253.607 96.8585 253.837 96.0663 254.263 95.2309C254.685 94.4008 255.285 93.5584 255.985 92.8042C256.686 92.0498 257.476 91.3952 258.272 90.9322C259.073 90.4667 259.849 90.212 260.531 90.212V89.712V89.212C259.613 89.212 258.661 89.5493 257.77 90.0678C256.874 90.5888 256.008 91.3102 255.253 92.1238C254.497 92.9376 253.841 93.8551 253.371 94.7771C252.905 95.6937 252.607 96.6455 252.607 97.52H253.107ZM260.531 89.712L260.433 90.2023L261.073 90.3303L261.171 89.84L261.269 89.3497L260.629 89.2217L260.531 89.712ZM261.171 89.84L261.05 90.3251C261.256 90.3767 261.339 90.4374 261.373 90.4762C261.399 90.5048 261.439 90.5663 261.439 90.736H261.939H262.439C262.439 90.3937 262.351 90.0712 262.121 89.8118C261.899 89.5626 261.598 89.4313 261.292 89.3549L261.171 89.84ZM261.939 90.736H261.439C261.439 91.0762 261.251 91.6106 260.856 92.2939C260.473 92.9571 259.936 93.693 259.332 94.4151C258.114 95.8704 256.684 97.1973 255.794 97.7313L256.051 98.16L256.308 98.5887C257.338 97.9707 258.852 96.5456 260.098 95.0569C260.726 94.307 261.301 93.5229 261.722 92.7941C262.131 92.0854 262.439 91.3558 262.439 90.736H261.939ZM256.051 98.16L255.722 98.5363C256.6 99.305 256.959 100.422 256.959 101.744H257.459H257.959C257.959 100.25 257.55 98.807 256.38 97.7837L256.051 98.16ZM257.459 101.744H256.959C256.959 103.126 256.544 104.723 255.892 106.434C255.242 108.14 254.372 109.919 253.493 111.663C252.618 113.397 251.728 115.103 251.061 116.628C250.4 118.137 249.919 119.55 249.919 120.688H250.419H250.919C250.919 119.778 251.318 118.535 251.977 117.028C252.63 115.537 253.5 113.867 254.385 112.113C255.266 110.369 256.156 108.548 256.826 106.79C257.494 105.037 257.959 103.306 257.959 101.744H257.459ZM250.419 120.688H249.919C249.919 121.313 250.022 121.876 250.342 122.346C250.665 122.819 251.16 123.126 251.797 123.338L251.955 122.864L252.113 122.39C251.598 122.218 251.325 122.013 251.168 121.782C251.008 121.548 250.919 121.215 250.919 120.688H250.419ZM251.955 122.864L251.797 123.338C252.272 123.497 252.741 123.492 253.235 123.492V122.992V122.492C252.705 122.492 252.406 122.487 252.113 122.39L251.955 122.864ZM253.235 122.992V123.492C254.404 123.492 255.841 123.166 257.45 122.614C259.066 122.06 260.888 121.266 262.838 120.304C266.738 118.381 271.183 115.771 275.565 113.015C284.329 107.504 292.888 101.381 296.399 98.9554L296.115 98.544L295.831 98.1326C292.302 100.571 283.773 106.672 275.033 112.169C270.663 114.917 266.252 117.507 262.396 119.408C260.468 120.358 258.687 121.132 257.126 121.668C255.557 122.206 254.242 122.492 253.235 122.492V122.992ZM296.115 98.544L296.392 98.96C296.539 98.8623 296.642 98.8252 296.719 98.8081C296.803 98.7895 296.879 98.788 297.011 98.788V98.288V97.788C296.887 97.788 296.707 97.7865 296.503 97.8319C296.292 97.8788 296.075 97.9697 295.838 98.128L296.115 98.544ZM297.011 98.288V98.788C297.081 98.788 297.115 98.7884 297.137 98.7903C297.162 98.7923 297.128 98.7933 297.075 98.7672C297.046 98.7523 297.012 98.7296 296.98 98.6968C296.949 98.6639 296.928 98.6293 296.914 98.5991C296.89 98.545 296.895 98.5142 296.895 98.544H297.395H297.895C297.895 98.4458 297.884 98.319 297.828 98.1929C297.764 98.0495 297.657 97.9399 297.523 97.8728C297.406 97.8147 297.292 97.7997 297.221 97.7937C297.147 97.7876 297.069 97.788 297.011 97.788V98.288ZM297.395 98.544H296.895C296.895 98.5048 296.902 98.4962 296.894 98.519C296.888 98.5362 296.876 98.5659 296.851 98.6026C296.804 98.6737 296.71 98.7754 296.531 98.8648L296.755 99.312L296.979 99.7592C297.635 99.4309 297.895 98.8876 297.895 98.544H297.395ZM296.755 99.312L296.468 98.9024C292.6 101.61 284.124 108.049 275.344 113.839C270.959 116.73 266.517 119.446 262.564 121.437C258.587 123.441 255.185 124.668 252.851 124.668V125.168V125.668C255.445 125.668 259.035 124.335 263.014 122.331C267.017 120.314 271.495 117.574 275.894 114.673C284.682 108.879 293.23 102.39 297.042 99.7216L296.755 99.312ZM255.411 97.008L255.646 97.4492C256.702 96.8863 257.907 95.6322 258.823 94.5077C259.288 93.936 259.695 93.3773 259.989 92.9235C260.135 92.6975 260.258 92.4904 260.346 92.3164C260.39 92.2298 260.429 92.1437 260.458 92.0626C260.484 91.9928 260.519 91.8815 260.519 91.76H260.019H259.519C259.519 91.7025 259.533 91.6802 259.518 91.7216C259.507 91.7515 259.487 91.7987 259.454 91.8646C259.387 91.9956 259.285 92.1705 259.149 92.3805C258.879 92.7987 258.494 93.328 258.047 93.8763C257.139 94.9918 256.04 96.1056 255.176 96.5668L255.411 97.008ZM260.019 91.76H260.519C260.519 91.7402 260.52 91.683 260.514 91.6308C260.509 91.5823 260.488 91.4264 260.357 91.2944C260.225 91.1625 260.069 91.1424 260.02 91.1371C259.968 91.1313 259.911 91.132 259.891 91.132V91.632V92.132C259.935 92.132 259.926 92.1327 259.91 92.1309C259.897 92.1295 259.765 92.1175 259.649 92.0015C259.534 91.8856 259.521 91.7537 259.52 91.7412C259.518 91.725 259.519 91.7158 259.519 91.76H260.019ZM259.891 91.632L259.652 91.193C259.241 91.4169 258.747 91.8215 258.254 92.2861C257.753 92.7583 257.225 93.3196 256.743 93.8831C256.262 94.4456 255.82 95.0191 255.495 95.5163C255.332 95.7643 255.193 96.0024 255.093 96.2167C255 96.4148 254.911 96.6525 254.911 96.88H255.411H255.911C255.911 96.8835 255.918 96.8132 255.999 96.6408C256.072 96.4846 256.184 96.2897 256.331 96.0637C256.626 95.6129 257.04 95.0744 257.503 94.5329C257.965 93.9924 258.469 93.4577 258.94 93.0139C259.419 92.5625 259.837 92.2311 260.13 92.0709L259.891 91.632ZM255.411 96.88H254.911V97.008H255.411H255.911V96.88H255.411ZM273.216 160.88L272.749 161.059L272.758 161.082L272.769 161.104L273.216 160.88ZM326.848 50.544L327.263 50.8235L327.685 50.1973L326.943 50.0532L326.848 50.544ZM250.56 52.08L250.746 52.5442L250.787 52.5278L250.824 52.5043L250.56 52.08ZM249.92 52.336V52.836H250.016L250.106 52.8002L249.92 52.336ZM250.048 50.928L249.782 50.5041L249.771 50.512L250.048 50.928ZM328.384 48.112L328.296 48.6042L328.612 48.6609L328.795 48.3966L328.384 48.112ZM348.224 21.104L347.87 20.7504L347.85 20.7708L347.832 20.7935L348.224 21.104ZM351.68 22.64L351.326 22.2864L351.302 22.3107L351.282 22.3379L351.68 22.64ZM332.864 49.008L332.445 48.7346L332.004 49.4103L332.806 49.5046L332.864 49.008ZM339.136 50.032L339.216 49.5384L339.207 49.537L339.198 49.5359L339.136 50.032ZM420.288 48.112L420.011 47.696L419.995 47.7067L419.979 47.7186L420.288 48.112ZM421.184 49.136L420.907 48.72L420.891 48.7303L420.877 48.7417L421.184 49.136ZM338.496 52.592L338.58 52.0991L338.578 52.0988L338.496 52.592ZM331.2 51.312L331.274 50.8175L330.972 50.7722L330.794 51.0202L331.2 51.312ZM274.496 160.24L274.981 160.119L274.971 160.077L274.953 160.037L274.496 160.24ZM274.624 160.752H275.124V160.69L275.109 160.631L274.624 160.752ZM273.984 161.648V161.148C274.035 161.148 274.027 161.176 273.954 161.102C273.879 161.028 273.779 160.889 273.663 160.656L273.216 160.88L272.769 161.104C272.909 161.383 273.065 161.628 273.246 161.81C273.429 161.992 273.677 162.148 273.984 162.148V161.648ZM273.216 160.88L273.683 160.701C273.072 159.112 272.82 157.258 272.82 155.248H272.32H271.82C271.82 157.334 272.08 159.32 272.749 161.059L273.216 160.88ZM272.32 155.248H272.82C272.82 148.732 275.464 140.036 279.661 130.339C283.851 120.657 289.564 110.037 295.647 99.6935C307.813 79.0064 321.433 59.4714 327.263 50.8235L326.848 50.544L326.433 50.2645C320.615 58.8966 306.971 78.4656 294.785 99.1865C288.692 109.547 282.957 120.207 278.743 129.941C274.536 139.66 271.82 148.516 271.82 155.248H272.32ZM326.848 50.544L326.943 50.0532C313.128 47.3668 297.08 44.284 282.048 44.284V44.784V45.284C296.968 45.284 312.92 48.3452 326.753 51.0348L326.848 50.544ZM282.048 44.784V44.284C270.359 44.284 259.242 46.0803 250.296 51.6556L250.56 52.08L250.824 52.5043C259.542 47.0717 270.441 45.284 282.048 45.284V44.784ZM250.56 52.08L250.374 51.6158L249.734 51.8718L249.92 52.336L250.106 52.8002L250.746 52.5442L250.56 52.08ZM249.92 52.336V51.836C249.879 51.836 249.868 51.8293 249.873 51.8317C249.876 51.8328 249.881 51.8354 249.887 51.8401C249.894 51.8448 249.899 51.8503 249.904 51.8559C249.914 51.8673 249.915 51.8739 249.913 51.8683C249.912 51.8656 249.911 51.8604 249.91 51.8526C249.909 51.8449 249.908 51.8353 249.908 51.824H249.408H248.908C248.908 52.0263 248.958 52.2821 249.136 52.4961C249.328 52.7261 249.608 52.836 249.92 52.836V52.336ZM249.408 51.824H249.908C249.908 51.8424 249.909 51.7836 249.994 51.6627C250.069 51.5546 250.184 51.4381 250.325 51.344L250.048 50.928L249.771 50.512C249.528 50.6739 249.323 50.8774 249.174 51.0893C249.035 51.2884 248.908 51.5496 248.908 51.824H249.408ZM250.048 50.928L250.314 51.3517C259.8 45.4068 271.724 43.364 284.352 43.364V42.864V42.364C271.636 42.364 259.496 44.4172 249.782 50.5043L250.048 50.928ZM284.352 42.864V43.364C299.148 43.364 314.719 46.1706 328.296 48.6042L328.384 48.112L328.472 47.6198C314.913 45.1894 299.252 42.364 284.352 42.364V42.864ZM328.384 48.112L328.795 48.3966C333.399 41.7458 343.249 28.1872 348.616 21.4145L348.224 21.104L347.832 20.7935C342.447 27.5888 332.585 41.1662 327.973 47.8274L328.384 48.112ZM348.224 21.104L348.578 21.4575C348.999 21.0363 349.513 20.836 350.016 20.836V20.336V19.836C349.239 19.836 348.473 20.1477 347.87 20.7504L348.224 21.104ZM350.016 20.336V20.836C350.431 20.836 350.846 20.9678 351.147 21.168C351.458 21.3754 351.564 21.5935 351.564 21.744H352.064H352.564C352.564 21.1265 352.158 20.6406 351.701 20.336C351.234 20.0242 350.625 19.836 350.016 19.836V20.336ZM352.064 21.744H351.564C351.564 21.7972 351.549 21.894 351.504 22.0063C351.46 22.1164 351.398 22.2153 351.326 22.2864L351.68 22.64L352.034 22.9935C352.389 22.6377 352.564 22.1237 352.564 21.744H352.064ZM351.68 22.64L351.282 22.3379C345.261 30.2794 336.55 42.4494 332.445 48.7346L332.864 49.008L333.283 49.2814C337.37 43.0225 346.067 30.8726 352.078 22.942L351.68 22.64ZM332.864 49.008L332.806 49.5046C333.875 49.6304 334.916 49.8195 335.957 50.0117C336.993 50.203 338.033 50.398 339.074 50.5281L339.136 50.032L339.198 49.5359C338.191 49.41 337.183 49.221 336.139 49.0283C335.1 48.8365 334.029 48.6416 332.922 48.5114L332.864 49.008ZM339.136 50.032L339.056 50.5256C350.96 52.4456 370.708 55.396 388.288 55.396V54.896V54.396C370.796 54.396 351.12 51.4584 339.216 49.5384L339.136 50.032ZM388.288 54.896V55.396C394.962 55.396 401.364 54.9792 406.926 53.9151C412.48 52.8525 417.242 51.1363 420.597 48.5054L420.288 48.112L419.979 47.7186C416.806 50.2077 412.224 51.8835 406.738 52.9329C401.26 53.9808 394.926 54.396 388.288 54.396V54.896ZM420.288 48.112L420.565 48.528C420.954 48.2691 421.095 48.228 421.184 48.228V47.728V47.228C420.761 47.228 420.39 47.4429 420.011 47.696L420.288 48.112ZM421.184 47.728V48.228C421.165 48.228 421.157 48.2234 421.161 48.2251C421.162 48.2258 421.165 48.2274 421.169 48.2304C421.173 48.2333 421.178 48.2371 421.182 48.2416C421.187 48.246 421.191 48.2505 421.194 48.2547C421.197 48.2589 421.198 48.262 421.199 48.2634C421.201 48.2671 421.196 48.2592 421.196 48.24H421.696H422.196C422.196 47.9494 422.056 47.7006 421.89 47.5344C421.723 47.3683 421.475 47.228 421.184 47.228V47.728ZM421.696 48.24H421.196C421.196 48.3503 421.135 48.568 420.907 48.72L421.184 49.136L421.461 49.552C422.001 49.192 422.196 48.6416 422.196 48.24H421.696ZM421.184 49.136L420.877 48.7417C417.191 51.6155 411.872 53.5475 405.57 54.757C399.276 55.9649 392.046 56.444 384.576 56.444V56.944V57.444C392.082 57.444 399.38 56.9631 405.758 55.739C412.128 54.5165 417.625 52.5445 421.491 49.5303L421.184 49.136ZM384.576 56.944V56.444C367.848 56.444 349.832 54.017 338.58 52.0991L338.496 52.592L338.412 53.0849C349.688 55.007 367.768 57.444 384.576 57.444V56.944ZM338.496 52.592L338.578 52.0988C336.314 51.7214 333.828 51.2006 331.274 50.8175L331.2 51.312L331.126 51.8065C333.692 52.1914 336.07 52.6946 338.414 53.0852L338.496 52.592ZM331.2 51.312L330.794 51.0202C324.583 59.6642 310.206 80.0923 297.381 101.229C290.968 111.796 284.937 122.55 280.508 132.102C276.09 141.63 273.228 150.039 273.228 155.888H273.728H274.228C274.228 150.281 276.998 142.05 281.416 132.522C285.823 123.018 291.832 112.3 298.235 101.747C311.042 80.6437 325.401 60.2398 331.606 51.6038L331.2 51.312ZM273.728 155.888H273.228C273.228 157.595 273.489 159.206 274.039 160.443L274.496 160.24L274.953 160.037C274.479 158.97 274.228 157.509 274.228 155.888H273.728ZM274.496 160.24L274.011 160.361L274.139 160.873L274.624 160.752L275.109 160.631L274.981 160.119L274.496 160.24ZM274.624 160.752H274.124C274.124 160.931 274.079 161.048 274.038 161.105C274.005 161.153 273.988 161.148 273.984 161.148V161.648V162.148C274.364 162.148 274.667 161.951 274.858 161.679C275.041 161.416 275.124 161.085 275.124 160.752H274.624ZM338.16 128.24V128.74L338.174 128.74L338.16 128.24ZM336.88 109.552L337.33 109.77L336.582 109.151L336.88 109.552ZM333.04 94.32L333.172 94.8024L333.185 94.7987L333.198 94.7943L333.04 94.32ZM343.152 98.928L342.743 99.2157L343.163 99.8127L343.568 99.2053L343.152 98.928ZM344.944 96.24L345.36 96.5173L345.377 96.4914L345.391 96.4636L344.944 96.24ZM347.76 97.648L348.234 97.8061L348.26 97.7291V97.648H347.76ZM347.632 98.032L348.024 98.3423L348.079 98.2735L348.106 98.1901L347.632 98.032ZM340.208 109.808L340.645 110.052L340.645 110.051L340.208 109.808ZM338.288 126.32L338.238 126.818L338.263 126.82H338.288V126.32ZM383.216 98.16L383.095 97.6748L383.082 97.6782L383.216 98.16ZM383.728 98.032V97.532H383.666L383.607 97.5469L383.728 98.032ZM383.856 99.184L384.048 99.6458L384.139 99.6077L384.21 99.5376L383.856 99.184ZM341.872 100.72L342.268 101.026L342.473 100.76L342.305 100.47L341.872 100.72ZM326 102.896L326.396 103.201L326.4 103.196L326 102.896ZM338.16 128.24V127.74H337.776V128.24V128.74H338.16V128.24ZM337.776 128.24V127.74C336.481 127.74 335.618 127.193 335.052 126.254C334.464 125.279 334.18 123.849 334.18 122.096H333.68H333.18C333.18 123.927 333.472 125.569 334.196 126.77C334.942 128.007 336.127 128.74 337.776 128.74V128.24ZM333.68 122.096H334.18C334.18 118.601 335.308 113.94 337.33 109.77L336.88 109.552L336.43 109.334C334.356 113.612 333.18 118.423 333.18 122.096H333.68ZM336.88 109.552L336.582 109.151C331.624 112.837 327.89 114.172 325.36 114.172V114.672V115.172C328.206 115.172 332.152 113.691 337.178 109.953L336.88 109.552ZM325.36 114.672V114.172C323.689 114.172 322.526 113.61 321.772 112.731C321.007 111.839 320.612 110.56 320.612 109.04H320.112H319.612C319.612 110.72 320.049 112.257 321.012 113.381C321.986 114.518 323.447 115.172 325.36 115.172V114.672ZM320.112 109.04H320.612C320.612 104.034 324.925 97.0514 333.172 94.8024L333.04 94.32L332.908 93.8376C324.259 96.1966 319.612 103.55 319.612 109.04H320.112ZM333.04 94.32L333.198 94.7943C333.875 94.5686 334.686 94.564 335.472 94.564V94.064V93.564C334.722 93.564 333.741 93.5594 332.882 93.8457L333.04 94.32ZM335.472 94.064V94.564C338.072 94.564 340.369 95.8425 342.743 99.2157L343.152 98.928L343.561 98.6403C341.071 95.1015 338.504 93.564 335.472 93.564V94.064ZM343.152 98.928L343.568 99.2053L345.36 96.5173L344.944 96.24L344.528 95.9626L342.736 98.6506L343.152 98.928ZM344.944 96.24L345.391 96.4636C345.405 96.4354 345.442 96.356 345.712 96.356V95.856V95.356C345.214 95.356 344.739 95.5326 344.497 96.0164L344.944 96.24ZM345.712 95.856V96.356C345.992 96.356 346.391 96.5308 346.742 96.8394C346.909 96.987 347.046 97.1481 347.137 97.3006C347.231 97.4574 347.26 97.5762 347.26 97.648H347.76H348.26C348.26 97.3358 348.145 97.0386 347.995 96.7874C347.842 96.5319 347.635 96.293 347.402 96.0886C346.953 95.6932 346.328 95.356 345.712 95.356V95.856ZM347.76 97.648L347.286 97.4899L347.158 97.8739L347.632 98.032L348.106 98.1901L348.234 97.8061L347.76 97.648ZM347.632 98.032L347.24 97.7216C344.78 100.829 342.331 104.956 339.771 109.565L340.208 109.808L340.645 110.051C343.205 105.444 345.62 101.379 348.024 98.3423L347.632 98.032ZM340.208 109.808L339.771 109.564C336.674 115.114 335.612 119.423 335.612 122.224H336.112H336.612C336.612 119.649 337.598 115.51 340.645 110.052L340.208 109.808ZM336.112 122.224H335.612C335.612 123.554 335.843 124.639 336.283 125.428C336.731 126.229 337.405 126.734 338.238 126.818L338.288 126.32L338.338 125.822C337.891 125.778 337.477 125.515 337.157 124.94C336.829 124.353 336.612 123.454 336.612 122.224H336.112ZM338.288 126.32V126.82H338.544V126.32V125.82H338.288V126.32ZM338.544 126.32V126.82C339.708 126.82 341.096 126.395 342.624 125.696C344.162 124.993 345.888 123.991 347.74 122.789C351.443 120.387 355.699 117.155 360.032 113.837C364.372 110.514 368.792 107.103 372.847 104.322C376.915 101.533 380.558 99.4173 383.35 98.6418L383.216 98.16L383.082 97.6782C380.114 98.5027 376.349 100.707 372.281 103.498C368.2 106.297 363.756 109.726 359.424 113.043C355.085 116.365 350.861 119.573 347.196 121.951C345.364 123.139 343.684 124.112 342.209 124.787C340.724 125.465 339.492 125.82 338.544 125.82V126.32ZM383.216 98.16L383.337 98.6451L383.849 98.5171L383.728 98.032L383.607 97.5469L383.095 97.6749L383.216 98.16ZM383.728 98.032V98.532C383.808 98.532 383.85 98.5577 383.867 98.5716C383.887 98.5887 383.868 98.585 383.868 98.544H384.368H384.868C384.868 97.9423 384.313 97.532 383.728 97.532V98.032ZM384.368 98.544H383.868C383.868 98.4799 383.883 98.4357 383.889 98.4202C383.896 98.4029 383.9 98.3962 383.897 98.402C383.889 98.4148 383.869 98.4434 383.828 98.4906C383.748 98.5849 383.635 98.6981 383.502 98.8304L383.856 99.184L384.21 99.5376C384.333 99.4138 384.476 99.2711 384.588 99.1414C384.643 99.0766 384.703 99.0012 384.751 98.922C384.789 98.859 384.868 98.7197 384.868 98.544H384.368ZM383.856 99.184L383.664 98.7222C376.035 101.89 366.883 109.145 358.543 115.572C354.356 118.798 350.37 121.82 346.85 124.052C345.091 125.167 343.46 126.078 341.988 126.717C340.511 127.357 339.224 127.711 338.146 127.74L338.16 128.24L338.174 128.74C339.432 128.705 340.853 128.299 342.386 127.634C343.923 126.967 345.603 126.027 347.386 124.896C350.95 122.636 354.972 119.586 359.153 116.364C367.549 109.895 376.573 102.75 384.048 99.6458L383.856 99.184ZM325.232 113.008V113.508C327.112 113.508 329.743 112.48 332.685 110.443C335.645 108.394 338.977 105.284 342.268 101.026L341.872 100.72L341.476 100.414C338.239 104.604 334.979 107.638 332.115 109.621C329.233 111.616 326.808 112.508 325.232 112.508V113.008ZM341.872 100.72L342.305 100.47C340.331 97.0481 338.015 95.612 335.6 95.612V96.112V96.612C337.537 96.612 339.573 97.7359 341.439 100.97L341.872 100.72ZM335.6 96.112V95.612C333.718 95.612 331.885 96.4808 330.208 97.7628C328.527 99.0483 326.96 100.783 325.6 102.596L326 102.896L326.4 103.196C327.728 101.425 329.233 99.7677 330.816 98.5572C332.403 97.3432 334.026 96.612 335.6 96.612V96.112ZM326 102.896L325.604 102.591C323.028 105.939 321.916 108.484 321.916 110.448H322.416H322.916C322.916 108.828 323.852 106.509 326.396 103.201L326 102.896ZM322.416 110.448H321.916C321.916 111.385 322.208 112.175 322.818 112.724C323.419 113.265 324.259 113.508 325.232 113.508V113.008V112.508C324.413 112.508 323.845 112.303 323.486 111.98C323.136 111.665 322.916 111.175 322.916 110.448H322.416ZM328.344 202.352L328.502 201.878L328.494 201.875L328.486 201.873L328.344 202.352ZM348.44 158.832L348.088 158.476L348.086 158.478L348.44 158.832ZM394.648 120.048L394.948 120.448L395.027 120.389L395.077 120.304L394.648 120.048ZM404.888 102.896L405.317 103.152L404.539 102.538L404.888 102.896ZM377.624 114.16L377.25 114.492L377.26 114.503L377.27 114.514L377.624 114.16ZM383.896 97.52L383.604 97.1139L383.596 97.12L383.896 97.52ZM407.832 97.904L407.451 98.2282L407.863 98.7115L408.236 98.1981L407.832 97.904ZM410.264 94.448L410.576 94.8384L410.598 94.8211L410.618 94.8016L410.264 94.448ZM412.696 95.216L413.143 95.4396L413.196 95.334V95.216H412.696ZM412.568 95.472L413.005 95.7148L413.01 95.7053L413.015 95.6956L412.568 95.472ZM399.768 117.488L399.34 117.23L400.036 117.91L399.768 117.488ZM432.408 98.288L432.25 97.8137L432.199 97.8306L432.153 97.8579L432.408 98.288ZM432.792 98.16V97.66H432.711L432.634 97.6857L432.792 98.16ZM433.304 98.672L433.751 98.8956L433.804 98.79V98.672H433.304ZM433.048 99.184L433.314 99.6071L433.433 99.5326L433.495 99.4076L433.048 99.184ZM397.72 120.816L397.435 120.405L397.347 120.466L397.292 120.558L397.72 120.816ZM390.552 132.72L390.124 132.462L390.118 132.471L390.552 132.72ZM392.344 123.76L392.774 124.015L392.053 123.353L392.344 123.76ZM349.72 160.112L349.363 159.762L349.362 159.762L349.72 160.112ZM329.112 200.432L328.975 200.913L328.994 200.918L329.014 200.922L329.112 200.432ZM406.936 99.312L407.28 99.6747L407.623 99.3496L407.318 98.989L406.936 99.312ZM385.688 100.592L386.008 100.976L386.008 100.976L385.688 100.592ZM379.928 112.624L379.538 112.936L379.555 112.958L379.574 112.978L379.928 112.624ZM330.52 202.608V202.108C329.748 202.108 329.184 202.105 328.502 201.878L328.344 202.352L328.186 202.826C329.04 203.111 329.756 203.108 330.52 203.108V202.608ZM328.344 202.352L328.486 201.873C326.833 201.383 325.719 200.633 325.015 199.699C324.312 198.766 323.98 197.599 323.98 196.208H323.48H322.98C322.98 197.761 323.352 199.154 324.217 200.301C325.081 201.447 326.399 202.297 328.202 202.831L328.344 202.352ZM323.48 196.208H323.98C323.98 193.584 325.178 190.275 327.118 186.663C329.051 183.065 331.686 179.229 334.485 175.568C340.084 168.246 346.308 161.671 348.794 159.186L348.44 158.832L348.086 158.478C345.58 160.985 339.324 167.594 333.691 174.96C330.874 178.643 328.205 182.527 326.238 186.189C324.278 189.837 322.98 193.328 322.98 196.208H323.48ZM348.44 158.832L348.792 159.188C371.802 136.433 392.888 121.993 394.948 120.448L394.648 120.048L394.348 119.648C392.312 121.175 371.158 135.663 348.088 158.476L348.44 158.832ZM394.648 120.048L395.077 120.304L405.317 103.152L404.888 102.896L404.459 102.64L394.219 119.792L394.648 120.048ZM404.888 102.896L404.539 102.538C402.208 104.806 398.019 107.951 393.566 110.527C391.341 111.814 389.062 112.953 386.926 113.769C384.782 114.587 382.816 115.068 381.208 115.068V115.568V116.068C382.992 116.068 385.09 115.541 387.282 114.703C389.482 113.863 391.811 112.698 394.066 111.393C398.573 108.785 402.832 105.594 405.237 103.254L404.888 102.896ZM381.208 115.568V115.068C379.92 115.068 378.771 114.6 377.978 113.806L377.624 114.16L377.27 114.514C378.269 115.512 379.68 116.068 381.208 116.068V115.568ZM377.624 114.16L377.998 113.828C377.074 112.788 376.716 111.509 376.716 110.192H376.216H375.716C375.716 111.691 376.126 113.228 377.25 114.492L377.624 114.16ZM376.216 110.192H376.716C376.716 108.025 377.685 105.625 379.131 103.409C380.572 101.2 382.452 99.2277 384.196 97.92L383.896 97.52L383.596 97.12C381.756 98.5003 379.796 100.56 378.293 102.863C376.795 105.159 375.716 107.751 375.716 110.192H376.216ZM383.896 97.52L384.188 97.926C388.219 95.0284 392.599 93.412 396.824 93.412V92.912V92.412C392.345 92.412 387.765 94.1236 383.604 97.114L383.896 97.52ZM396.824 92.912V93.412C400.915 93.412 404.611 94.8938 407.451 98.2282L407.832 97.904L408.213 97.5798C405.165 94.0022 401.181 92.412 396.824 92.412V92.912ZM407.832 97.904L408.236 98.1981C408.76 97.4783 409.221 96.721 409.613 96.1098C410.026 95.4658 410.334 95.0327 410.576 94.8384L410.264 94.448L409.952 94.0576C409.554 94.3753 409.158 94.9662 408.771 95.5702C408.363 96.207 407.928 96.9217 407.428 97.6099L407.832 97.904ZM410.264 94.448L410.618 94.8016C410.629 94.7904 410.668 94.7593 410.733 94.7316C410.796 94.7047 410.856 94.692 410.904 94.692V94.192V93.692C410.507 93.692 410.126 93.879 409.91 94.0944L410.264 94.448ZM410.904 94.192V94.692C411.217 94.692 411.588 94.7729 411.864 94.9112C412.169 95.0634 412.196 95.1912 412.196 95.216H412.696H413.196C413.196 94.6008 412.711 94.2166 412.312 94.0168C411.884 93.8031 411.359 93.692 410.904 93.692V94.192ZM412.696 95.216L412.249 94.9924L412.121 95.2484L412.568 95.472L413.015 95.6956L413.143 95.4396L412.696 95.216ZM412.568 95.472L412.131 95.2292C408.294 102.135 403.434 110.449 399.34 117.23L399.768 117.488L400.196 117.746C404.294 110.959 409.162 102.633 413.005 95.7148L412.568 95.472ZM399.768 117.488L400.036 117.91C407.069 113.434 418.817 106.923 432.663 98.7181L432.408 98.288L432.153 97.8579C418.351 106.037 406.547 112.582 399.5 117.066L399.768 117.488ZM432.408 98.288L432.566 98.7623L432.95 98.6343L432.792 98.16L432.634 97.6857L432.25 97.8137L432.408 98.288ZM432.792 98.16V98.66C432.773 98.66 432.765 98.6554 432.769 98.6571C432.77 98.6578 432.773 98.6594 432.777 98.6624C432.781 98.6653 432.786 98.6691 432.79 98.6736C432.795 98.678 432.799 98.6825 432.802 98.6867C432.805 98.6909 432.806 98.694 432.807 98.6954C432.809 98.6991 432.804 98.6912 432.804 98.672H433.304H433.804C433.804 98.3814 433.664 98.1326 433.498 97.9664C433.331 97.8003 433.083 97.66 432.792 97.66V98.16ZM433.304 98.672L432.857 98.4484L432.601 98.9604L433.048 99.184L433.495 99.4076L433.751 98.8956L433.304 98.672ZM433.048 99.184L432.782 98.7609C425.879 103.107 420.386 106.205 414.94 109.376C409.495 112.547 404.107 115.786 397.435 120.405L397.72 120.816L398.005 121.227C404.645 116.63 410.009 113.405 415.444 110.24C420.878 107.075 426.393 103.965 433.314 99.6071L433.048 99.184ZM397.72 120.816L397.292 120.558L390.124 132.462L390.552 132.72L390.98 132.978L398.148 121.074L397.72 120.816ZM390.552 132.72L390.118 132.471C387.113 137.715 376.916 155.167 365.077 171.304C359.156 179.374 352.837 187.099 346.81 192.801C343.797 195.652 340.869 197.986 338.112 199.604C335.35 201.226 332.796 202.108 330.52 202.108V202.608V203.108C333.044 203.108 335.778 202.134 338.618 200.467C341.464 198.796 344.453 196.408 347.498 193.527C353.587 187.765 359.948 179.986 365.883 171.896C377.756 155.713 387.975 138.221 390.986 132.969L390.552 132.72ZM331.16 200.688V201.188C333.566 201.188 336.173 200.183 338.887 198.461C341.606 196.736 344.474 194.264 347.413 191.268C353.291 185.276 359.502 177.132 365.428 168.507C377.281 151.257 388.047 132 392.774 124.015L392.344 123.76L391.914 123.505C387.169 131.52 376.431 150.727 364.604 167.941C358.69 176.548 352.517 184.636 346.699 190.568C343.79 193.534 340.982 195.947 338.351 197.617C335.715 199.289 333.298 200.188 331.16 200.188V200.688ZM392.344 123.76L392.053 123.353C379.489 132.328 362.826 146.042 349.363 159.762L349.72 160.112L350.077 160.462C363.494 146.79 380.111 133.112 392.635 124.167L392.344 123.76ZM349.72 160.112L349.362 159.762C346.539 162.65 340.444 169.161 335.052 176.159C332.356 179.657 329.827 183.287 327.97 186.655C326.123 190.004 324.9 193.162 324.9 195.696H325.4H325.9C325.9 193.43 327.013 190.46 328.846 187.137C330.669 183.833 333.164 180.247 335.844 176.769C341.204 169.815 347.269 163.334 350.078 160.462L349.72 160.112ZM325.4 195.696H324.9C324.9 196.921 325.173 198.028 325.846 198.937C326.52 199.848 327.555 200.507 328.975 200.913L329.112 200.432L329.249 199.951C327.981 199.589 327.16 199.032 326.65 198.343C326.139 197.652 325.9 196.775 325.9 195.696H325.4ZM329.112 200.432L329.014 200.922C329.652 201.05 330.336 201.188 331.16 201.188V200.688V200.188C330.448 200.188 329.852 200.07 329.21 199.942L329.112 200.432ZM382.488 113.52V114.02C384.131 114.02 386.193 113.393 388.399 112.424C390.619 111.449 393.037 110.103 395.41 108.616C400.152 105.642 404.755 102.07 407.28 99.6747L406.936 99.312L406.592 98.9493C404.125 101.29 399.576 104.822 394.878 107.768C392.531 109.241 390.157 110.559 387.997 111.508C385.823 112.463 383.917 113.02 382.488 113.02V113.52ZM406.936 99.312L407.318 98.989C404.419 95.5632 401.213 94.204 398.104 94.204V94.704V95.204C400.883 95.204 403.821 96.4048 406.554 99.635L406.936 99.312ZM398.104 94.704V94.204C393.56 94.204 389.216 97.0015 385.368 100.208L385.688 100.592L386.008 100.976C389.84 97.7825 393.944 95.204 398.104 95.204V94.704ZM385.688 100.592L385.368 100.208C384.188 101.191 382.527 102.852 381.157 104.711C379.804 106.549 378.66 108.677 378.66 110.576H379.16H379.66C379.66 109.019 380.628 107.115 381.963 105.305C383.281 103.516 384.884 101.913 386.008 100.976L385.688 100.592ZM379.16 110.576H378.66C378.66 111.476 378.967 112.223 379.538 112.936L379.928 112.624L380.318 112.312C379.865 111.745 379.66 111.212 379.66 110.576H379.16ZM379.928 112.624L379.574 112.978C380.336 113.739 381.249 114.02 382.488 114.02V113.52V113.02C381.423 113.02 380.8 112.789 380.282 112.27L379.928 112.624ZM428.931 119.28L429.134 118.823L429.128 118.82L428.931 119.28ZM427.651 104.048L427.215 103.803L427.213 103.807L427.651 104.048ZM430.723 104.816L430.627 104.325L430.386 104.372L430.276 104.592L430.723 104.816ZM433.539 117.872L433.517 118.372L433.528 118.372H433.539V117.872ZM472.707 98.416L472.521 97.9518L472.461 97.976L472.408 98.0149L472.707 98.416ZM473.347 98.16V97.66H473.251L473.161 97.6958L473.347 98.16ZM473.347 99.312L473.07 98.896L473.056 98.9048L473.044 98.9145L473.347 99.312ZM431.747 102.896L431.331 102.619L430.755 103.482L431.789 103.394L431.747 102.896ZM445.059 94.448L445.413 94.0944L445.413 94.0944L445.059 94.448ZM432.771 120.048V119.548C431.425 119.548 430.215 119.304 429.134 118.823L428.931 119.28L428.728 119.737C429.951 120.28 431.301 120.548 432.771 120.548V120.048ZM428.931 119.28L429.128 118.82C426.697 117.778 425.719 115.461 425.719 112.624H425.219H424.719C424.719 115.675 425.789 118.478 428.734 119.74L428.931 119.28ZM425.219 112.624H425.719C425.719 109.788 426.709 106.799 428.089 104.289L427.651 104.048L427.213 103.807C425.777 106.417 424.719 109.572 424.719 112.624H425.219ZM427.651 104.048L428.087 104.293C433.146 95.3139 439.273 92.644 443.011 92.644V92.144V91.644C438.813 91.644 432.396 94.6061 427.215 103.803L427.651 104.048ZM443.011 92.144V92.644C444.106 92.644 444.973 92.8582 445.547 93.1861C446.115 93.5106 446.351 93.9118 446.351 94.32H446.851H447.351C447.351 93.4482 446.819 92.7614 446.043 92.3179C445.273 91.8778 444.22 91.644 443.011 91.644V92.144ZM446.851 94.32H446.351C446.351 94.9792 446.057 95.8067 445.399 96.7324C444.746 97.6521 443.757 98.635 442.43 99.5949C439.778 101.514 435.816 103.313 430.627 104.325L430.723 104.816L430.819 105.307C436.126 104.271 440.228 102.422 443.016 100.405C444.409 99.397 445.484 98.3399 446.215 97.3116C446.941 96.2892 447.351 95.2608 447.351 94.32H446.851ZM430.723 104.816L430.276 104.592C428.592 107.96 427.919 110.599 427.919 112.624H428.419H428.919C428.919 110.809 429.526 108.328 431.17 105.04L430.723 104.816ZM428.419 112.624H427.919C427.919 114.522 428.499 115.947 429.535 116.91C430.561 117.865 431.97 118.304 433.517 118.372L433.539 117.872L433.561 117.372C432.164 117.312 431.013 116.919 430.215 116.178C429.427 115.445 428.919 114.31 428.919 112.624H428.419ZM433.539 117.872V118.372H434.179V117.872V117.372H433.539V117.872ZM434.179 117.872V118.372C436.663 118.372 439.614 117.67 442.8 116.508C445.993 115.343 449.452 113.703 452.961 111.8C459.98 107.993 467.233 103.115 473.006 98.8171L472.707 98.416L472.408 98.0149C466.661 102.293 459.45 107.143 452.485 110.92C449.002 112.809 445.589 114.425 442.458 115.568C439.32 116.714 436.495 117.372 434.179 117.372V117.872ZM472.707 98.416L472.893 98.8802L473.533 98.6242L473.347 98.16L473.161 97.6958L472.521 97.9518L472.707 98.416ZM473.347 98.16V98.66C473.329 98.66 473.325 98.6558 473.336 98.6608C473.347 98.6656 473.363 98.6749 473.379 98.6881C473.396 98.702 473.401 98.711 473.399 98.7073C473.398 98.7052 473.39 98.6936 473.382 98.6723C473.374 98.653 473.359 98.6079 473.359 98.544H473.859H474.359C474.359 98.3663 474.28 98.2262 474.231 98.1526C474.173 98.065 474.098 97.986 474.019 97.9199C473.87 97.7953 473.632 97.66 473.347 97.66V98.16ZM473.859 98.544H473.359C473.359 98.5819 473.351 98.6175 473.323 98.663C473.291 98.7146 473.221 98.7952 473.07 98.896L473.347 99.312L473.624 99.728C474.103 99.4092 474.359 99.0148 474.359 98.544H473.859ZM473.347 99.312L473.044 98.9145C466.849 103.64 459.287 108.809 452.003 112.793C444.694 116.792 437.753 119.548 432.771 119.548V120.048V120.548C438.029 120.548 445.168 117.672 452.483 113.671C459.823 109.655 467.429 104.456 473.65 99.7095L473.347 99.312ZM431.747 102.896L431.789 103.394C434.893 103.13 438.388 101.785 441.102 100.208C442.461 99.4188 443.646 98.5591 444.498 97.7279C444.924 97.3125 445.278 96.8936 445.528 96.4838C445.775 96.0785 445.943 95.6469 445.943 95.216H445.443H444.943C444.943 95.3931 444.871 95.6414 444.674 95.9627C444.481 96.2794 444.188 96.6335 443.8 97.0121C443.024 97.7689 441.913 98.5812 440.6 99.3436C437.97 100.871 434.617 102.15 431.705 102.398L431.747 102.896ZM445.443 95.216H445.943C445.943 94.7806 445.723 94.4049 445.413 94.0944L445.059 94.448L444.705 94.8016C444.907 95.0031 444.943 95.1394 444.943 95.216H445.443ZM445.059 94.448L445.413 94.0944C445.057 93.7385 444.415 93.436 443.651 93.436V93.936V94.436C444.167 94.436 444.549 94.6454 444.705 94.8016L445.059 94.448ZM443.651 93.936V93.436C442.236 93.436 440.251 94.0977 438.091 95.5534C435.921 97.0171 433.54 99.3056 431.331 102.619L431.747 102.896L432.163 103.173C434.306 99.9584 436.597 97.7669 438.651 96.3826C440.715 94.9903 442.506 94.436 443.651 94.436V93.936ZM460.468 123.376V123.876H460.564L460.654 123.84L460.468 123.376ZM459.444 121.84L458.976 121.664L458.944 121.749V121.84H459.444ZM464.18 111.344L464.609 111.601L464.611 111.597L464.18 111.344ZM473.908 95.984L473.554 95.6304L473.541 95.644L473.528 95.6586L473.908 95.984ZM476.34 97.392L475.986 97.0384L475.96 97.0646L475.938 97.0944L476.34 97.392ZM461.62 120.432L461.173 120.208L461.997 120.76L461.62 120.432ZM487.86 102L488.355 102.071L488.36 102.036V102H487.86ZM487.732 102.896L488.221 103.001L488.225 102.984L488.227 102.967L487.732 102.896ZM493.492 120.432L493.478 120.932H493.492V120.432ZM529.332 98.16V97.66H529.202L529.089 97.7233L529.332 98.16ZM529.844 98.928L529.62 98.4808L529.592 98.4951L529.565 98.5129L529.844 98.928ZM492.724 122.224L492.708 122.724L492.716 122.724H492.724V122.224ZM483.508 103.536H484.008V102.673L483.259 103.102L483.508 103.536ZM461.108 123.12L461.294 123.584L461.389 123.546L461.462 123.474L461.108 123.12ZM460.468 123.376V122.876C460.269 122.876 459.944 122.626 459.944 122.224H459.444H458.944C458.944 123.102 459.643 123.876 460.468 123.876V123.376ZM459.444 122.224H459.944V121.84H459.444H458.944V122.224H459.444ZM459.444 121.84L459.912 122.016C461.07 118.929 461.949 116.034 464.609 111.601L464.18 111.344L463.751 111.087C461.035 115.614 460.122 118.607 458.976 121.664L459.444 121.84ZM464.18 111.344L464.611 111.597C466.784 107.891 469.02 104.281 470.809 101.486C471.704 100.088 472.485 98.8953 473.091 97.9975C473.704 97.0878 474.118 96.5068 474.288 96.3094L473.908 95.984L473.528 95.6586C473.314 95.9092 472.864 96.5441 472.261 97.4385C471.651 98.3447 470.864 99.5442 469.967 100.946C468.172 103.751 465.928 107.373 463.749 111.091L464.18 111.344ZM473.908 95.984L474.262 96.3376C474.438 96.1612 474.554 96.0763 474.644 96.0312C474.722 95.992 474.803 95.972 474.932 95.972V95.472V94.972C474.677 94.972 474.438 95.016 474.196 95.1368C473.966 95.2517 473.762 95.4228 473.554 95.6304L473.908 95.984ZM474.932 95.472V95.972C475.163 95.972 475.469 96.0965 475.728 96.317C476 96.5476 476.096 96.7731 476.096 96.88H476.596H477.096C477.096 96.3469 476.744 95.8684 476.376 95.555C475.995 95.2315 475.469 94.972 474.932 94.972V95.472ZM476.596 96.88H476.096C476.096 96.8562 476.099 96.8416 476.099 96.8391C476.1 96.8356 476.1 96.8373 476.098 96.8444C476.093 96.8592 476.084 96.8829 476.069 96.9124C476.054 96.9413 476.038 96.9698 476.021 96.9943C476.003 97.0199 475.991 97.034 475.986 97.0384L476.34 97.392L476.694 97.7456C476.807 97.6321 476.9 97.4866 476.963 97.3596C477.019 97.2484 477.096 97.0654 477.096 96.88H476.596ZM476.34 97.392L475.938 97.0944C470.813 104.014 465.032 112.489 461.173 120.208L461.62 120.432L462.067 120.656C465.888 113.015 471.627 104.594 476.742 97.6896L476.34 97.392ZM461.62 120.432L461.997 120.76C463.719 118.783 468.218 113.806 473.033 109.326C475.441 107.085 477.916 104.98 480.156 103.438C481.275 102.667 482.326 102.043 483.271 101.615C484.223 101.183 485.034 100.964 485.684 100.964V100.464V99.964C484.83 99.964 483.869 100.245 482.858 100.704C481.84 101.166 480.737 101.823 479.588 102.614C477.292 104.196 474.775 106.339 472.351 108.594C467.502 113.106 462.977 118.113 461.243 120.104L461.62 120.432ZM485.684 100.464V100.964C486.218 100.964 486.447 100.976 486.687 101.136L486.964 100.72L487.241 100.304C486.713 99.9515 486.174 99.964 485.684 99.964V100.464ZM486.964 100.72L486.687 101.136C486.791 101.206 486.938 101.288 487.006 101.329C487.096 101.384 487.156 101.427 487.202 101.474C487.27 101.541 487.36 101.663 487.36 102H487.86H488.36C488.36 101.441 488.194 101.051 487.91 100.766C487.78 100.637 487.64 100.544 487.526 100.475C487.39 100.392 487.329 100.362 487.241 100.304L486.964 100.72ZM487.86 102L487.365 101.929L487.237 102.825L487.732 102.896L488.227 102.967L488.355 102.071L487.86 102ZM487.732 102.896L487.243 102.791C486.852 104.617 486.592 106.828 486.592 109.04H487.092H487.592C487.592 106.9 487.844 104.759 488.221 103.001L487.732 102.896ZM487.092 109.04H486.592C486.592 111.893 487.012 114.792 488.064 117.014C489.125 119.253 490.864 120.861 493.478 120.932L493.492 120.432L493.506 119.932C491.384 119.875 489.923 118.603 488.968 116.586C488.004 114.552 487.592 111.819 487.592 109.04H487.092ZM493.492 120.432V120.932C495.962 120.932 498.976 119.757 502.176 118.002C505.394 116.238 508.871 113.847 512.285 111.33C515.697 108.815 519.068 106.159 522.056 103.873C525.057 101.577 527.66 99.6641 529.575 98.5967L529.332 98.16L529.089 97.7233C527.1 98.8319 524.439 100.791 521.448 103.079C518.444 105.377 515.095 108.017 511.691 110.526C508.289 113.033 504.854 115.394 501.696 117.126C498.52 118.867 495.694 119.932 493.492 119.932V120.432ZM529.332 98.16V98.66H529.716V98.16V97.66H529.332V98.16ZM529.716 98.16V98.66C529.739 98.66 529.76 98.663 529.775 98.6671C529.791 98.6713 529.795 98.675 529.791 98.672C529.786 98.6686 529.768 98.6555 529.752 98.6279C529.735 98.5981 529.728 98.5669 529.728 98.544H530.228H530.728C530.728 98.222 530.557 97.9808 530.345 97.84C530.149 97.709 529.918 97.66 529.716 97.66V98.16ZM530.228 98.544H529.728C529.728 98.4896 529.742 98.4455 529.757 98.4164C529.77 98.3895 529.782 98.3789 529.778 98.3824C529.775 98.3858 529.762 98.3975 529.735 98.416C529.707 98.4341 529.67 98.456 529.62 98.4808L529.844 98.928L530.068 99.3752C530.219 99.2994 530.368 99.207 530.486 99.0896C530.604 98.9711 530.728 98.7874 530.728 98.544H530.228ZM529.844 98.928L529.565 98.5129C527.306 100.03 524.466 102.251 521.344 104.713C518.216 107.181 514.795 109.899 511.356 112.429C507.915 114.96 504.469 117.292 501.294 118.989C498.105 120.694 495.252 121.724 492.98 121.724V122.224V122.724C495.508 122.724 498.543 121.594 501.766 119.871C505.003 118.14 508.493 115.776 511.948 113.235C515.405 110.693 518.84 107.963 521.964 105.499C525.094 103.029 527.902 100.834 530.123 99.3431L529.844 98.928ZM492.98 122.224V121.724H492.724V122.224V122.724H492.98V122.224ZM492.724 122.224L492.74 121.724C490.824 121.663 489.345 121.081 488.193 120.165C487.035 119.243 486.179 117.962 485.553 116.463C484.297 113.455 484.008 109.665 484.008 106.48H483.508H483.008C483.008 109.695 483.295 113.649 484.631 116.849C485.301 118.454 486.245 119.893 487.571 120.947C488.903 122.007 490.592 122.657 492.708 122.724L492.724 122.224ZM483.508 106.48H484.008V103.536H483.508H483.008V106.48H483.508ZM483.508 103.536L483.259 103.102C474.48 108.137 464.815 118.706 460.754 122.766L461.108 123.12L461.462 123.474C465.593 119.342 475.128 108.919 483.757 103.97L483.508 103.536ZM461.108 123.12L460.922 122.656L460.282 122.912L460.468 123.376L460.654 123.84L461.294 123.584L461.108 123.12ZM540.91 128.24V128.74L540.924 128.74L540.91 128.24ZM539.63 109.552L540.08 109.77L539.332 109.151L539.63 109.552ZM535.79 94.32L535.922 94.8024L535.935 94.7987L535.948 94.7943L535.79 94.32ZM545.902 98.928L545.493 99.2157L545.913 99.8127L546.318 99.2053L545.902 98.928ZM547.694 96.24L548.11 96.5173L548.127 96.4914L548.141 96.4636L547.694 96.24ZM550.51 97.648L550.984 97.8061L551.01 97.7291V97.648H550.51ZM550.382 98.032L550.774 98.3423L550.829 98.2735L550.856 98.1901L550.382 98.032ZM542.958 109.808L543.395 110.052L543.395 110.051L542.958 109.808ZM541.038 126.32L540.988 126.818L541.013 126.82H541.038V126.32ZM585.966 98.16L585.845 97.6748L585.832 97.6782L585.966 98.16ZM586.478 98.032V97.532H586.416L586.357 97.5469L586.478 98.032ZM586.606 99.184L586.798 99.6458L586.889 99.6077L586.96 99.5376L586.606 99.184ZM544.622 100.72L545.018 101.026L545.223 100.76L545.055 100.47L544.622 100.72ZM528.75 102.896L529.146 103.201L529.15 103.196L528.75 102.896ZM540.91 128.24V127.74H540.526V128.24V128.74H540.91V128.24ZM540.526 128.24V127.74C539.231 127.74 538.368 127.193 537.802 126.254C537.214 125.279 536.93 123.849 536.93 122.096H536.43H535.93C535.93 123.927 536.222 125.569 536.946 126.77C537.692 128.007 538.877 128.74 540.526 128.74V128.24ZM536.43 122.096H536.93C536.93 118.601 538.058 113.94 540.08 109.77L539.63 109.552L539.18 109.334C537.106 113.612 535.93 118.423 535.93 122.096H536.43ZM539.63 109.552L539.332 109.151C534.374 112.837 530.64 114.172 528.11 114.172V114.672V115.172C530.956 115.172 534.902 113.691 539.928 109.953L539.63 109.552ZM528.11 114.672V114.172C526.439 114.172 525.276 113.61 524.522 112.731C523.757 111.839 523.362 110.56 523.362 109.04H522.862H522.362C522.362 110.72 522.799 112.257 523.762 113.381C524.736 114.518 526.197 115.172 528.11 115.172V114.672ZM522.862 109.04H523.362C523.362 104.034 527.675 97.0514 535.922 94.8024L535.79 94.32L535.658 93.8376C527.009 96.1966 522.362 103.55 522.362 109.04H522.862ZM535.79 94.32L535.948 94.7943C536.625 94.5686 537.436 94.564 538.222 94.564V94.064V93.564C537.472 93.564 536.491 93.5594 535.632 93.8457L535.79 94.32ZM538.222 94.064V94.564C540.822 94.564 543.119 95.8425 545.493 99.2157L545.902 98.928L546.311 98.6403C543.821 95.1015 541.254 93.564 538.222 93.564V94.064ZM545.902 98.928L546.318 99.2053L548.11 96.5173L547.694 96.24L547.278 95.9626L545.486 98.6506L545.902 98.928ZM547.694 96.24L548.141 96.4636C548.155 96.4354 548.192 96.356 548.462 96.356V95.856V95.356C547.964 95.356 547.489 95.5326 547.247 96.0164L547.694 96.24ZM548.462 95.856V96.356C548.742 96.356 549.141 96.5308 549.492 96.8394C549.659 96.987 549.796 97.1481 549.887 97.3006C549.981 97.4574 550.01 97.5762 550.01 97.648H550.51H551.01C551.01 97.3358 550.895 97.0386 550.745 96.7874C550.592 96.5319 550.385 96.293 550.152 96.0886C549.703 95.6932 549.078 95.356 548.462 95.356V95.856ZM550.51 97.648L550.036 97.4899L549.908 97.8739L550.382 98.032L550.856 98.1901L550.984 97.8061L550.51 97.648ZM550.382 98.032L549.99 97.7216C547.53 100.829 545.081 104.956 542.521 109.565L542.958 109.808L543.395 110.051C545.955 105.444 548.37 101.379 550.774 98.3423L550.382 98.032ZM542.958 109.808L542.521 109.564C539.424 115.114 538.362 119.423 538.362 122.224H538.862H539.362C539.362 119.649 540.348 115.51 543.395 110.052L542.958 109.808ZM538.862 122.224H538.362C538.362 123.554 538.593 124.639 539.033 125.428C539.481 126.229 540.155 126.734 540.988 126.818L541.038 126.32L541.088 125.822C540.641 125.778 540.227 125.515 539.907 124.94C539.579 124.353 539.362 123.454 539.362 122.224H538.862ZM541.038 126.32V126.82H541.294V126.32V125.82H541.038V126.32ZM541.294 126.32V126.82C542.458 126.82 543.846 126.395 545.374 125.696C546.912 124.993 548.638 123.991 550.49 122.789C554.193 120.387 558.449 117.155 562.782 113.837C567.122 110.514 571.542 107.103 575.597 104.322C579.665 101.533 583.308 99.4173 586.1 98.6418L585.966 98.16L585.832 97.6782C582.864 98.5027 579.099 100.707 575.031 103.498C570.95 106.297 566.506 109.726 562.174 113.043C557.835 116.365 553.611 119.573 549.946 121.951C548.114 123.139 546.434 124.112 544.959 124.787C543.474 125.465 542.242 125.82 541.294 125.82V126.32ZM585.966 98.16L586.087 98.6451L586.599 98.5171L586.478 98.032L586.357 97.5469L585.845 97.6749L585.966 98.16ZM586.478 98.032V98.532C586.558 98.532 586.6 98.5577 586.617 98.5716C586.637 98.5887 586.618 98.585 586.618 98.544H587.118H587.618C587.618 97.9423 587.063 97.532 586.478 97.532V98.032ZM587.118 98.544H586.618C586.618 98.4799 586.633 98.4357 586.639 98.4202C586.646 98.4029 586.65 98.3962 586.647 98.402C586.639 98.4148 586.619 98.4434 586.578 98.4906C586.498 98.5849 586.385 98.6981 586.252 98.8304L586.606 99.184L586.96 99.5376C587.083 99.4138 587.226 99.2711 587.338 99.1414C587.393 99.0766 587.453 99.0012 587.501 98.922C587.539 98.859 587.618 98.7197 587.618 98.544H587.118ZM586.606 99.184L586.414 98.7222C578.785 101.89 569.633 109.145 561.293 115.572C557.106 118.798 553.12 121.82 549.6 124.052C547.841 125.167 546.21 126.078 544.738 126.717C543.261 127.357 541.974 127.711 540.896 127.74L540.91 128.24L540.924 128.74C542.182 128.705 543.603 128.299 545.136 127.634C546.673 126.967 548.353 126.027 550.136 124.896C553.7 122.636 557.722 119.586 561.903 116.364C570.299 109.895 579.323 102.75 586.798 99.6458L586.606 99.184ZM527.982 113.008V113.508C529.862 113.508 532.493 112.48 535.435 110.443C538.395 108.394 541.727 105.284 545.018 101.026L544.622 100.72L544.226 100.414C540.989 104.604 537.729 107.638 534.865 109.621C531.983 111.616 529.558 112.508 527.982 112.508V113.008ZM544.622 100.72L545.055 100.47C543.081 97.0481 540.765 95.612 538.35 95.612V96.112V96.612C540.287 96.612 542.323 97.7359 544.189 100.97L544.622 100.72ZM538.35 96.112V95.612C536.468 95.612 534.635 96.4808 532.958 97.7628C531.277 99.0483 529.71 100.783 528.35 102.596L528.75 102.896L529.15 103.196C530.478 101.425 531.983 99.7677 533.566 98.5572C535.153 97.3432 536.776 96.612 538.35 96.612V96.112ZM528.75 102.896L528.354 102.591C525.778 105.939 524.666 108.484 524.666 110.448H525.166H525.666C525.666 108.828 526.602 106.509 529.146 103.201L528.75 102.896ZM525.166 110.448H524.666C524.666 111.385 524.958 112.175 525.568 112.724C526.169 113.265 527.009 113.508 527.982 113.508V113.008V112.508C527.163 112.508 526.595 112.303 526.236 111.98C525.886 111.665 525.666 111.175 525.666 110.448H525.166Z" fill="#8B9B68" mask="url(#path-1-outside-1_37_833)"/>
</svg>
