<svg width="264" height="81" viewBox="0 0 264 81" fill="none" xmlns="http://www.w3.org/2000/svg">
<mask id="path-1-outside-1_2008_7841" maskUnits="userSpaceOnUse" x="0" y="0" width="264" height="81" fill="black">
<rect fill="white" width="264" height="81"/>
<path d="M58.5246 79.608C56.7966 79.608 55.5726 78.096 54.9246 74.64C54.6366 72.984 54.5646 71.112 54.5646 69.096C54.5646 57 59.3886 39.504 64.5726 30.648C60.4686 33.168 38.7246 57.504 27.9966 61.896C27.3486 62.184 26.8446 62.256 26.3406 62.256C24.8286 62.256 24.0366 61.104 24.0366 58.944C24.0366 51.816 32.8206 34.392 50.5326 19.488C39.4446 23.016 2.07663 29.28 2.07663 34.392L2.14863 34.752C2.14863 35.04 1.93263 35.256 1.71663 35.256C1.42863 35.256 1.21263 35.04 1.14062 34.608V34.32C1.14062 27.264 43.4046 21.864 53.5566 16.968L53.9166 16.896C54.4926 16.896 55.5006 17.472 55.5006 18.12C55.5006 18.336 55.3566 18.552 54.9966 18.768C51.1806 21.216 43.0446 29.568 37.0686 38.064C31.0206 46.632 26.3406 55.416 26.3406 58.872C26.3406 59.808 26.7006 60.312 27.4926 60.312C28.0686 60.312 29.0046 59.952 30.1566 59.232C41.5326 52.248 62.3406 29.136 66.7326 27.48H66.9486C67.7406 27.48 69.1806 28.272 69.1806 28.848L69.1086 28.992C61.7646 39.072 56.6526 60.024 56.6526 70.752C56.6526 74.784 57.3726 77.376 59.0286 77.376C69.4686 77.016 102.949 10.92 126.349 1.128C126.565 1.05599 126.709 1.05599 126.781 1.05599C127.069 1.05599 127.213 1.128 127.213 1.272C127.213 1.416 127.069 1.632 126.781 1.704C105.757 9.912 70.3326 79.608 58.5246 79.608ZM99.0274 58.152C98.2354 58.152 97.5154 58.008 96.8674 57.72C95.3554 57.072 94.7794 55.632 94.7794 53.976C94.7794 52.32 95.3554 50.592 96.1474 49.152C99.0274 44.04 102.555 42.456 104.787 42.456C106.083 42.456 106.947 42.96 106.947 43.68C106.947 45.48 103.779 48.432 97.8754 49.584C96.9394 51.456 96.5794 52.896 96.5794 53.976C96.5794 55.992 97.8034 56.856 99.4594 56.928H99.8194C105.219 56.928 115.011 50.808 121.491 45.984L121.851 45.84C121.995 45.84 122.139 45.984 122.139 46.056C122.139 46.2 122.067 46.344 121.851 46.488C114.867 51.816 104.787 58.152 99.0274 58.152ZM98.4514 48.504C101.835 48.216 106.155 45.552 106.155 44.184C106.155 44.04 106.083 43.896 105.939 43.752C105.795 43.608 105.507 43.464 105.147 43.464C103.707 43.464 100.899 44.832 98.4514 48.504ZM117.847 68.952C117.415 68.952 116.983 68.88 116.551 68.664C115.111 67.944 114.535 66.432 114.535 64.416C114.535 57.432 121.879 44.4 126.055 37.92C136.567 21.72 151.615 9.192 156.295 9.192C156.799 9.192 157.159 9.336 157.375 9.624C157.663 9.912 157.735 10.272 157.735 10.704C157.735 17.544 129.295 41.016 123.463 46.344C122.671 47.352 116.551 59.664 116.551 65.064C116.551 66.576 117.055 67.512 118.279 67.512C125.983 67.368 140.455 49.656 149.095 45.84L149.455 45.768C149.671 45.768 149.815 45.912 149.815 46.056C149.815 46.2 149.671 46.416 149.383 46.488C142.399 49.152 124.975 68.952 117.847 68.952ZM124.399 44.472C130.519 38.928 138.799 31.656 145.711 24.744C151.543 18.912 156.655 12.72 156.655 10.992L156.583 10.704C156.511 10.632 156.439 10.56 156.223 10.56C154.999 10.56 151.399 12.504 145.855 17.616C138.367 24.528 130.303 34.536 124.399 44.472ZM149.94 58.224C149.148 58.224 148.428 58.08 147.78 57.792C146.196 57.072 145.548 55.488 145.548 53.688C145.548 52.176 146.052 50.52 146.7 49.224C149.364 44.472 152.46 42.816 154.62 42.816C156.348 42.816 157.5 43.752 157.572 44.976C157.572 45.408 157.356 45.624 157.14 45.624C156.924 45.624 156.78 45.48 156.708 45.264C156.636 44.904 156.492 44.616 156.276 44.472C155.916 44.112 155.484 43.968 154.98 43.968C152.964 43.968 150.156 46.56 148.86 49.08C147.708 51.168 147.276 52.752 147.276 53.976C147.276 55.992 148.644 56.856 150.3 56.928H150.66C156.06 56.928 165.636 50.808 172.044 45.984L172.404 45.84C172.548 45.84 172.692 45.984 172.692 46.128C172.692 46.2 172.62 46.344 172.404 46.488C165.636 51.816 155.7 58.224 149.94 58.224ZM168.691 58.368C168.259 58.368 167.827 58.224 167.467 57.864C167.035 57.432 166.891 56.784 166.891 56.064C166.891 54.408 167.755 52.248 168.475 50.88C169.483 48.72 170.923 46.704 172.219 45.48C171.427 44.832 171.139 44.256 171.139 43.824C171.139 43.248 171.715 42.888 172.435 42.888C173.083 42.888 173.875 43.176 174.379 43.896C176.251 46.344 174.235 45.768 176.899 47.136C178.483 47.928 180.499 48.216 182.515 48.216C186.331 48.216 190.435 47.136 192.955 45.912L193.243 45.84C193.387 45.84 193.531 45.912 193.531 46.056C193.531 46.128 193.387 46.272 193.171 46.416C190.291 47.784 186.187 49.008 182.155 49.008C179.851 49.008 177.619 48.576 175.603 47.568V47.64C175.603 52.248 171.499 58.368 168.691 58.368ZM173.587 44.904L172.651 44.112C172.867 44.4 173.155 44.616 173.587 44.904ZM169.123 57.288C171.139 57.288 174.451 51.312 174.451 47.928L174.307 46.92L173.731 46.56C169.915 50.376 168.475 54.84 168.475 56.496C168.475 56.856 168.547 57.072 168.619 57.144C168.763 57.216 168.907 57.288 169.123 57.288ZM184.462 61.104C184.174 61.104 183.958 60.96 183.958 60.672C183.958 60.528 183.958 60.384 184.03 60.24C185.758 55.848 190.726 48 194.182 44.112C194.326 43.968 194.47 43.896 194.614 43.896C195.046 43.896 195.694 44.472 195.694 44.904C195.694 45.048 195.694 45.192 195.55 45.264C192.598 48.648 188.494 54.336 186.334 58.44C188.854 55.92 201.382 45.336 204.694 45.336C205.126 45.336 205.414 45.552 205.414 46.056C203.758 49.656 202.102 53.976 200.734 57.648C202.39 54.912 209.302 49.152 211.678 49.152C212.254 49.152 212.542 49.44 212.542 50.088V50.664C212.542 56.784 213.766 58.656 215.638 59.448C215.998 59.592 216.358 59.664 216.79 59.664C222.262 59.664 234.934 47.928 239.326 45.984L239.686 45.912C239.758 45.912 239.83 45.984 239.83 46.056C239.83 46.128 239.758 46.272 239.542 46.344C235.222 48.576 222.766 60.672 216.142 60.672L215.35 60.6C212.614 60.096 210.742 58.08 210.742 51.528V50.448C206.566 51.96 200.23 59.016 200.23 59.016C199.87 59.448 199.582 59.592 199.438 59.592C199.078 59.592 199.006 59.232 199.006 58.584C199.006 56.208 200.734 50.304 202.606 47.352C197.494 49.512 186.838 58.944 185.038 60.888C184.966 61.032 184.678 61.104 184.462 61.104ZM239.512 58.152C238.72 58.152 238 58.008 237.352 57.72C235.84 57.072 235.264 55.632 235.264 53.976C235.264 52.32 235.84 50.592 236.632 49.152C239.512 44.04 243.04 42.456 245.272 42.456C246.568 42.456 247.432 42.96 247.432 43.68C247.432 45.48 244.264 48.432 238.36 49.584C237.424 51.456 237.064 52.896 237.064 53.976C237.064 55.992 238.288 56.856 239.944 56.928H240.304C245.704 56.928 255.496 50.808 261.976 45.984L262.336 45.84C262.48 45.84 262.624 45.984 262.624 46.056C262.624 46.2 262.552 46.344 262.336 46.488C255.352 51.816 245.272 58.152 239.512 58.152ZM238.936 48.504C242.32 48.216 246.64 45.552 246.64 44.184C246.64 44.04 246.568 43.896 246.424 43.752C246.28 43.608 245.992 43.464 245.632 43.464C244.192 43.464 241.384 44.832 238.936 48.504Z"/>
</mask>
<path d="M58.5246 79.608C56.7966 79.608 55.5726 78.096 54.9246 74.64C54.6366 72.984 54.5646 71.112 54.5646 69.096C54.5646 57 59.3886 39.504 64.5726 30.648C60.4686 33.168 38.7246 57.504 27.9966 61.896C27.3486 62.184 26.8446 62.256 26.3406 62.256C24.8286 62.256 24.0366 61.104 24.0366 58.944C24.0366 51.816 32.8206 34.392 50.5326 19.488C39.4446 23.016 2.07663 29.28 2.07663 34.392L2.14863 34.752C2.14863 35.04 1.93263 35.256 1.71663 35.256C1.42863 35.256 1.21263 35.04 1.14062 34.608V34.32C1.14062 27.264 43.4046 21.864 53.5566 16.968L53.9166 16.896C54.4926 16.896 55.5006 17.472 55.5006 18.12C55.5006 18.336 55.3566 18.552 54.9966 18.768C51.1806 21.216 43.0446 29.568 37.0686 38.064C31.0206 46.632 26.3406 55.416 26.3406 58.872C26.3406 59.808 26.7006 60.312 27.4926 60.312C28.0686 60.312 29.0046 59.952 30.1566 59.232C41.5326 52.248 62.3406 29.136 66.7326 27.48H66.9486C67.7406 27.48 69.1806 28.272 69.1806 28.848L69.1086 28.992C61.7646 39.072 56.6526 60.024 56.6526 70.752C56.6526 74.784 57.3726 77.376 59.0286 77.376C69.4686 77.016 102.949 10.92 126.349 1.128C126.565 1.05599 126.709 1.05599 126.781 1.05599C127.069 1.05599 127.213 1.128 127.213 1.272C127.213 1.416 127.069 1.632 126.781 1.704C105.757 9.912 70.3326 79.608 58.5246 79.608ZM99.0274 58.152C98.2354 58.152 97.5154 58.008 96.8674 57.72C95.3554 57.072 94.7794 55.632 94.7794 53.976C94.7794 52.32 95.3554 50.592 96.1474 49.152C99.0274 44.04 102.555 42.456 104.787 42.456C106.083 42.456 106.947 42.96 106.947 43.68C106.947 45.48 103.779 48.432 97.8754 49.584C96.9394 51.456 96.5794 52.896 96.5794 53.976C96.5794 55.992 97.8034 56.856 99.4594 56.928H99.8194C105.219 56.928 115.011 50.808 121.491 45.984L121.851 45.84C121.995 45.84 122.139 45.984 122.139 46.056C122.139 46.2 122.067 46.344 121.851 46.488C114.867 51.816 104.787 58.152 99.0274 58.152ZM98.4514 48.504C101.835 48.216 106.155 45.552 106.155 44.184C106.155 44.04 106.083 43.896 105.939 43.752C105.795 43.608 105.507 43.464 105.147 43.464C103.707 43.464 100.899 44.832 98.4514 48.504ZM117.847 68.952C117.415 68.952 116.983 68.88 116.551 68.664C115.111 67.944 114.535 66.432 114.535 64.416C114.535 57.432 121.879 44.4 126.055 37.92C136.567 21.72 151.615 9.192 156.295 9.192C156.799 9.192 157.159 9.336 157.375 9.624C157.663 9.912 157.735 10.272 157.735 10.704C157.735 17.544 129.295 41.016 123.463 46.344C122.671 47.352 116.551 59.664 116.551 65.064C116.551 66.576 117.055 67.512 118.279 67.512C125.983 67.368 140.455 49.656 149.095 45.84L149.455 45.768C149.671 45.768 149.815 45.912 149.815 46.056C149.815 46.2 149.671 46.416 149.383 46.488C142.399 49.152 124.975 68.952 117.847 68.952ZM124.399 44.472C130.519 38.928 138.799 31.656 145.711 24.744C151.543 18.912 156.655 12.72 156.655 10.992L156.583 10.704C156.511 10.632 156.439 10.56 156.223 10.56C154.999 10.56 151.399 12.504 145.855 17.616C138.367 24.528 130.303 34.536 124.399 44.472ZM149.94 58.224C149.148 58.224 148.428 58.08 147.78 57.792C146.196 57.072 145.548 55.488 145.548 53.688C145.548 52.176 146.052 50.52 146.7 49.224C149.364 44.472 152.46 42.816 154.62 42.816C156.348 42.816 157.5 43.752 157.572 44.976C157.572 45.408 157.356 45.624 157.14 45.624C156.924 45.624 156.78 45.48 156.708 45.264C156.636 44.904 156.492 44.616 156.276 44.472C155.916 44.112 155.484 43.968 154.98 43.968C152.964 43.968 150.156 46.56 148.86 49.08C147.708 51.168 147.276 52.752 147.276 53.976C147.276 55.992 148.644 56.856 150.3 56.928H150.66C156.06 56.928 165.636 50.808 172.044 45.984L172.404 45.84C172.548 45.84 172.692 45.984 172.692 46.128C172.692 46.2 172.62 46.344 172.404 46.488C165.636 51.816 155.7 58.224 149.94 58.224ZM168.691 58.368C168.259 58.368 167.827 58.224 167.467 57.864C167.035 57.432 166.891 56.784 166.891 56.064C166.891 54.408 167.755 52.248 168.475 50.88C169.483 48.72 170.923 46.704 172.219 45.48C171.427 44.832 171.139 44.256 171.139 43.824C171.139 43.248 171.715 42.888 172.435 42.888C173.083 42.888 173.875 43.176 174.379 43.896C176.251 46.344 174.235 45.768 176.899 47.136C178.483 47.928 180.499 48.216 182.515 48.216C186.331 48.216 190.435 47.136 192.955 45.912L193.243 45.84C193.387 45.84 193.531 45.912 193.531 46.056C193.531 46.128 193.387 46.272 193.171 46.416C190.291 47.784 186.187 49.008 182.155 49.008C179.851 49.008 177.619 48.576 175.603 47.568V47.64C175.603 52.248 171.499 58.368 168.691 58.368ZM173.587 44.904L172.651 44.112C172.867 44.4 173.155 44.616 173.587 44.904ZM169.123 57.288C171.139 57.288 174.451 51.312 174.451 47.928L174.307 46.92L173.731 46.56C169.915 50.376 168.475 54.84 168.475 56.496C168.475 56.856 168.547 57.072 168.619 57.144C168.763 57.216 168.907 57.288 169.123 57.288ZM184.462 61.104C184.174 61.104 183.958 60.96 183.958 60.672C183.958 60.528 183.958 60.384 184.03 60.24C185.758 55.848 190.726 48 194.182 44.112C194.326 43.968 194.47 43.896 194.614 43.896C195.046 43.896 195.694 44.472 195.694 44.904C195.694 45.048 195.694 45.192 195.55 45.264C192.598 48.648 188.494 54.336 186.334 58.44C188.854 55.92 201.382 45.336 204.694 45.336C205.126 45.336 205.414 45.552 205.414 46.056C203.758 49.656 202.102 53.976 200.734 57.648C202.39 54.912 209.302 49.152 211.678 49.152C212.254 49.152 212.542 49.44 212.542 50.088V50.664C212.542 56.784 213.766 58.656 215.638 59.448C215.998 59.592 216.358 59.664 216.79 59.664C222.262 59.664 234.934 47.928 239.326 45.984L239.686 45.912C239.758 45.912 239.83 45.984 239.83 46.056C239.83 46.128 239.758 46.272 239.542 46.344C235.222 48.576 222.766 60.672 216.142 60.672L215.35 60.6C212.614 60.096 210.742 58.08 210.742 51.528V50.448C206.566 51.96 200.23 59.016 200.23 59.016C199.87 59.448 199.582 59.592 199.438 59.592C199.078 59.592 199.006 59.232 199.006 58.584C199.006 56.208 200.734 50.304 202.606 47.352C197.494 49.512 186.838 58.944 185.038 60.888C184.966 61.032 184.678 61.104 184.462 61.104ZM239.512 58.152C238.72 58.152 238 58.008 237.352 57.72C235.84 57.072 235.264 55.632 235.264 53.976C235.264 52.32 235.84 50.592 236.632 49.152C239.512 44.04 243.04 42.456 245.272 42.456C246.568 42.456 247.432 42.96 247.432 43.68C247.432 45.48 244.264 48.432 238.36 49.584C237.424 51.456 237.064 52.896 237.064 53.976C237.064 55.992 238.288 56.856 239.944 56.928H240.304C245.704 56.928 255.496 50.808 261.976 45.984L262.336 45.84C262.48 45.84 262.624 45.984 262.624 46.056C262.624 46.2 262.552 46.344 262.336 46.488C255.352 51.816 245.272 58.152 239.512 58.152ZM238.936 48.504C242.32 48.216 246.64 45.552 246.64 44.184C246.64 44.04 246.568 43.896 246.424 43.752C246.28 43.608 245.992 43.464 245.632 43.464C244.192 43.464 241.384 44.832 238.936 48.504Z" fill="#8B9B68"/>
<path d="M54.9246 74.64L54.432 74.7257L54.4332 74.7321L54.9246 74.64ZM64.5726 30.648L65.0041 30.9006L64.311 30.2219L64.5726 30.648ZM27.9966 61.896L27.8072 61.4333L27.8003 61.4361L27.7936 61.4391L27.9966 61.896ZM50.5326 19.488L50.8546 19.8706L50.381 19.0115L50.5326 19.488ZM2.07662 34.392H1.57662V34.4415L1.58633 34.4901L2.07662 34.392ZM2.14863 34.752H2.64863V34.7025L2.63892 34.6539L2.14863 34.752ZM1.14062 34.608H0.640625V34.6494L0.647428 34.6902L1.14062 34.608ZM53.5566 16.968L53.4586 16.4777L53.3965 16.4901L53.3394 16.5176L53.5566 16.968ZM53.9166 16.896V16.396H53.8671L53.8186 16.4057L53.9166 16.896ZM54.9966 18.768L54.7394 18.3393L54.733 18.3431L54.7267 18.3472L54.9966 18.768ZM37.0686 38.064L37.4771 38.3523L37.4776 38.3517L37.0686 38.064ZM30.1566 59.232L29.895 58.8059L29.8916 58.808L30.1566 59.232ZM66.7326 27.48V26.98H66.6415L66.5562 27.0121L66.7326 27.48ZM69.1806 28.848L69.6278 29.0716L69.6806 28.966V28.848H69.1806ZM69.1086 28.992L69.5127 29.2864L69.5372 29.2528L69.5558 29.2156L69.1086 28.992ZM59.0286 77.376V77.876H59.0372L59.0459 77.8757L59.0286 77.376ZM126.349 1.128L126.191 0.653658L126.173 0.659555L126.156 0.666754L126.349 1.128ZM126.781 1.70399L126.659 1.21892L126.628 1.22665L126.599 1.23823L126.781 1.70399ZM58.5246 79.608V79.108C57.8358 79.108 57.2401 78.8191 56.7207 78.1214C56.1837 77.4 55.7342 76.2444 55.4161 74.5479L54.9246 74.64L54.4332 74.7321C54.7631 76.4916 55.2496 77.82 55.9186 78.7186C56.6052 79.6409 57.4855 80.108 58.5246 80.108V79.608ZM54.9246 74.64L55.4172 74.5543C55.1368 72.942 55.0646 71.105 55.0646 69.096H54.5646H54.0646C54.0646 71.119 54.1364 73.026 54.432 74.7257L54.9246 74.64ZM54.5646 69.096H55.0646C55.0646 63.1051 56.2608 55.7522 58.1079 48.7851C59.9556 41.816 62.4434 35.2752 65.0041 30.9006L64.5726 30.648L64.1411 30.3954C61.5179 34.8767 59.0017 41.512 57.1413 48.5289C55.2804 55.5478 54.0646 62.9909 54.0646 69.096H54.5646ZM64.5726 30.648L64.311 30.2219C63.7526 30.5648 62.9316 31.2517 61.9267 32.1638C60.9117 33.0851 59.6787 34.2645 58.2864 35.6174C55.4974 38.3276 52.0668 41.7358 48.4237 45.2081C44.782 48.6789 40.941 52.2009 37.3448 55.1272C33.7383 58.0618 30.4161 60.3652 27.8072 61.4333L27.9966 61.896L28.1861 62.3587C30.9411 61.2308 34.36 58.8452 37.976 55.9028C41.6023 52.9521 45.4653 49.4091 49.1136 45.9319C52.7604 42.4562 56.2059 39.0334 58.9833 36.3346C60.3743 34.983 61.5972 33.8134 62.5988 32.9043C63.6104 31.9861 64.3667 31.3612 64.8343 31.0741L64.5726 30.648ZM27.9966 61.896L27.7936 61.4391C27.2166 61.6955 26.7829 61.756 26.3406 61.756V62.256V62.756C26.9064 62.756 27.4807 62.6725 28.1997 62.3529L27.9966 61.896ZM26.3406 62.256V61.756C25.7306 61.756 25.3163 61.5343 25.0325 61.1251C24.7282 60.6863 24.5366 59.9763 24.5366 58.944H24.0366H23.5366C23.5366 60.0717 23.7411 61.0177 24.2108 61.6949C24.7009 62.4017 25.4386 62.756 26.3406 62.756V62.256ZM24.0366 58.944H24.5366C24.5366 57.2496 25.0624 54.8897 26.1527 52.0468C27.2398 49.2123 28.8762 45.9286 31.0675 42.3955C35.4502 35.3297 42.0396 27.288 50.8546 19.8706L50.5326 19.488L50.2107 19.1054C41.3136 26.592 34.6551 34.7143 30.2177 41.8685C27.9991 45.4454 26.3324 48.7857 25.219 51.6887C24.1089 54.5833 23.5366 57.0744 23.5366 58.944H24.0366ZM50.5326 19.488L50.381 19.0115C44.8556 20.7696 32.7995 23.2035 22.0269 25.8605C16.6607 27.1841 11.6198 28.5621 7.91501 29.9339C6.06579 30.6185 4.52322 31.311 3.43452 32.0074C2.89057 32.3553 2.4381 32.7178 2.11686 33.0985C1.7957 33.4791 1.57662 33.9136 1.57662 34.392H2.07662H2.57662C2.57662 34.2314 2.64949 34.0179 2.88112 33.7434C3.11268 33.469 3.47387 33.1693 3.97335 32.8498C4.97153 32.2113 6.43496 31.5482 8.26224 30.8716C11.9104 29.5209 16.9045 28.1539 22.2664 26.8315C32.9498 24.1964 45.1216 21.7344 50.6842 19.9645L50.5326 19.488ZM2.07662 34.392L1.58633 34.4901L1.65833 34.8501L2.14863 34.752L2.63892 34.6539L2.56692 34.2939L2.07662 34.392ZM2.14863 34.752H1.64863C1.64863 34.761 1.647 34.7672 1.6455 34.771C1.64469 34.7731 1.64385 34.7747 1.64314 34.7759C1.64241 34.777 1.64194 34.7776 1.64198 34.7775C1.642 34.7775 1.64282 34.7766 1.64478 34.7751C1.64673 34.7736 1.65023 34.7712 1.65565 34.7686C1.66623 34.7634 1.68691 34.756 1.71663 34.756V35.256V35.756C2.25702 35.756 2.64863 35.2653 2.64863 34.752H2.14863ZM1.71663 35.256V34.756C1.70822 34.756 1.70941 34.7547 1.71522 34.7572C1.72118 34.7598 1.72144 34.7619 1.7162 34.7561C1.70294 34.7417 1.6597 34.6811 1.63382 34.5258L1.14062 34.608L0.647428 34.6902C0.693548 34.9669 0.794314 35.2303 0.979048 35.4319C1.17421 35.6448 1.43464 35.756 1.71663 35.756V35.256ZM1.14062 34.608H1.64062V34.32H1.14062H0.640625V34.608H1.14062ZM1.14062 34.32H1.64062C1.64062 33.6972 2.11572 32.9717 3.26546 32.1574C4.38998 31.361 6.03474 30.5698 8.08151 29.7875C12.1692 28.2252 17.7415 26.742 23.6585 25.3202C26.614 24.6099 29.6493 23.9164 32.622 23.2368C35.5935 22.5574 38.5028 21.8918 41.2014 21.2385C46.58 19.9362 51.1792 18.6696 53.7738 17.4184L53.5566 16.968L53.3394 16.5176C50.858 17.7143 46.3672 18.9588 40.9661 20.2665C38.2748 20.9182 35.3718 21.5823 32.3991 22.2619C29.4276 22.9413 26.3867 23.6361 23.4248 24.3478C17.5068 25.77 11.8785 27.2658 7.72449 28.8534C5.65039 29.6462 3.91396 30.4727 2.68751 31.3413C1.48628 32.1921 0.640625 33.1788 0.640625 34.32H1.14062ZM53.5566 16.968L53.6547 17.4583L54.0147 17.3863L53.9166 16.896L53.8186 16.4057L53.4586 16.4777L53.5566 16.968ZM53.9166 16.896V17.396C54.0724 17.396 54.3703 17.4888 54.6394 17.6757C54.9248 17.8739 55.0006 18.0494 55.0006 18.12H55.5006H56.0006C56.0006 17.5426 55.5724 17.1061 55.2098 16.8543C54.831 16.5912 54.3368 16.396 53.9166 16.396V16.896ZM55.5006 18.12H55.0006C55.0006 18.1071 55.0078 18.1118 54.9836 18.144C54.9541 18.1834 54.8854 18.2516 54.7394 18.3393L54.9966 18.768L55.2539 19.1967C55.6709 18.9465 56.0006 18.5985 56.0006 18.12H55.5006ZM54.9966 18.768L54.7267 18.3472C52.7643 19.606 49.7417 22.3439 46.4788 25.805C43.2069 29.2757 39.6633 33.5061 36.6597 37.7763L37.0686 38.064L37.4776 38.3517C40.4499 34.1259 43.9623 29.9323 47.2064 26.491C50.4596 23.0401 53.4129 20.378 55.2666 19.1888L54.9966 18.768ZM37.0686 38.064L36.6601 37.7757C33.626 42.074 30.9316 46.4312 28.9931 50.1541C28.0241 52.0151 27.2402 53.7249 26.6974 55.1944C26.159 56.6516 25.8406 57.9166 25.8406 58.872H26.3406H26.8406C26.8406 58.0994 27.1073 56.9704 27.6354 55.5409C28.159 54.1236 28.9231 52.4539 29.8801 50.6159C31.7937 46.9408 34.4632 42.622 37.4771 38.3523L37.0686 38.064ZM26.3406 58.872H25.8406C25.8406 59.3899 25.9378 59.8807 26.225 60.25C26.531 60.6435 26.9828 60.812 27.4926 60.812V60.312V59.812C27.2104 59.812 27.0862 59.7285 27.0143 59.636C26.9235 59.5193 26.8406 59.2901 26.8406 58.872H26.3406ZM27.4926 60.312V60.812C27.8718 60.812 28.3179 60.6968 28.7943 60.5062C29.2785 60.3126 29.8273 60.0275 30.4216 59.656L30.1566 59.232L29.8916 58.808C29.334 59.1565 28.8388 59.4114 28.4229 59.5778C27.9994 59.7472 27.6894 59.812 27.4926 59.812V60.312ZM30.1566 59.232L30.4182 59.6581C36.1618 56.132 44.2503 48.5639 51.4092 41.7194C54.9999 38.2863 58.3612 35.0306 61.1017 32.5269C62.4718 31.2752 63.6795 30.2183 64.6778 29.4247C65.6921 28.6184 66.4422 28.1239 66.909 27.9478L66.7326 27.48L66.5562 27.0121C65.9251 27.2501 65.0641 27.8401 64.0555 28.6419C63.0307 29.4566 61.8033 30.5315 60.4273 31.7886C57.6756 34.3024 54.3003 37.5717 50.7181 40.9966C43.5309 47.8681 35.5274 55.348 29.895 58.8059L30.1566 59.232ZM66.7326 27.48V27.98H66.9486V27.48V26.98H66.7326V27.48ZM66.9486 27.48V27.98C67.2186 27.98 67.6863 28.1308 68.1081 28.379C68.3117 28.4987 68.4751 28.6243 68.5806 28.7355C68.7015 28.8628 68.6806 28.9 68.6806 28.848H69.1806H69.6806C69.6806 28.508 69.4797 28.2302 69.3059 28.047C69.1166 27.8477 68.8706 27.6673 68.6151 27.517C68.1189 27.2252 67.4706 26.98 66.9486 26.98V27.48ZM69.1806 28.848L68.7334 28.6244L68.6614 28.7684L69.1086 28.992L69.5558 29.2156L69.6278 29.0716L69.1806 28.848ZM69.1086 28.992L68.7045 28.6976C64.9806 33.8088 61.8471 41.6338 59.6452 49.4941C57.4419 57.3589 56.1526 65.3268 56.1526 70.752H56.6526H57.1526C57.1526 65.4492 58.4193 57.5771 60.6081 49.7639C62.7981 41.9462 65.8926 34.2552 69.5127 29.2864L69.1086 28.992ZM56.6526 70.752H56.1526C56.1526 72.7856 56.3327 74.506 56.7457 75.7352C57.1512 76.9423 57.8626 77.876 59.0286 77.876V77.376V76.876C58.5387 76.876 58.0621 76.5137 57.6936 75.4168C57.3325 74.342 57.1526 72.7504 57.1526 70.752H56.6526ZM59.0286 77.376L59.0459 77.8757C59.821 77.849 60.6502 77.5218 61.5097 76.994C62.3747 76.4628 63.3092 75.7042 64.3032 74.7606C66.2912 72.8734 68.5652 70.2001 71.056 66.9941C76.0375 60.5824 81.9445 51.9634 88.2367 43.078C94.5361 34.1822 101.229 25.0089 107.803 17.4503C114.392 9.87563 120.807 3.98889 126.542 1.58924L126.349 1.128L126.156 0.666754C120.19 3.16311 113.645 9.21036 107.049 16.794C100.439 24.3936 93.7211 33.6028 87.4206 42.5C81.1128 51.4076 75.2297 59.9921 70.2663 66.3806C67.7846 69.5748 65.5473 72.2008 63.6147 74.0354C62.6484 74.9527 61.7702 75.6605 60.9864 76.1419C60.197 76.6266 59.5412 76.858 59.0114 76.8763L59.0286 77.376ZM126.349 1.128L126.507 1.60234C126.582 1.57711 126.64 1.5662 126.681 1.56113C126.721 1.55613 126.749 1.556 126.781 1.556V1.056V0.555996C126.682 0.555996 126.478 0.557739 126.191 0.653658L126.349 1.128ZM126.781 1.056V1.556C126.833 1.556 126.868 1.55937 126.887 1.56269C126.909 1.56623 126.902 1.56789 126.881 1.55721C126.858 1.54555 126.81 1.51571 126.77 1.45484C126.727 1.39085 126.713 1.32349 126.713 1.272H127.213H127.713C127.713 1.1485 127.68 1.01815 127.602 0.90015C127.525 0.785284 127.424 0.710443 127.328 0.662785C127.152 0.574543 126.95 0.555996 126.781 0.555996V1.056ZM127.213 1.272H126.713C126.713 1.22734 126.723 1.20022 126.727 1.19167C126.731 1.18144 126.734 1.17953 126.731 1.18282C126.726 1.18805 126.706 1.20714 126.659 1.21892L126.781 1.70399L126.902 2.18907C127.358 2.07502 127.713 1.6971 127.713 1.272H127.213ZM126.781 1.70399L126.599 1.23823C123.89 2.29565 120.985 4.32705 117.962 7.03563C114.934 9.74842 111.763 13.1635 108.524 17.0175C102.046 24.7247 95.2664 34.2231 88.7875 43.4466C82.3017 52.6798 76.1215 61.6311 70.8236 68.2781C68.1743 71.6021 65.7601 74.3312 63.6513 76.2252C62.597 77.1721 61.6312 77.8991 60.7614 78.3872C59.8877 78.8776 59.144 79.108 58.5246 79.108V79.608V80.108C59.3813 80.108 60.2981 79.7939 61.2508 79.2593C62.2074 78.7225 63.234 77.9441 64.3195 76.9692C66.4902 75.0197 68.945 72.2396 71.6056 68.9014C76.9278 62.2239 83.1316 53.2382 89.6058 44.0214C96.0868 34.7949 102.843 25.3303 109.289 17.661C112.512 13.8267 115.65 10.4502 118.63 7.78042C121.614 5.10644 124.415 3.16434 126.962 2.16976L126.781 1.70399ZM96.8674 57.72L97.0705 57.2631L97.0644 57.2604L96.8674 57.72ZM96.1474 49.152L95.7118 48.9066L95.7093 48.911L96.1474 49.152ZM97.8754 49.584L97.7797 49.0933L97.5382 49.1404L97.4282 49.3604L97.8754 49.584ZM99.4594 56.928L99.4377 57.4275L99.4486 57.428H99.4594V56.928ZM121.491 45.984L121.306 45.5198L121.245 45.544L121.193 45.5829L121.491 45.984ZM121.851 45.84V45.34H121.755L121.666 45.3758L121.851 45.84ZM121.851 46.488L121.574 46.072L121.561 46.0808L121.548 46.0905L121.851 46.488ZM98.4514 48.504L98.0354 48.2266L97.4597 49.0902L98.4938 49.0022L98.4514 48.504ZM105.939 43.752L106.293 43.3984L105.939 43.752ZM99.0274 58.152V57.652C98.2972 57.652 97.6475 57.5195 97.0705 57.2631L96.8674 57.72L96.6644 58.1769C97.3834 58.4965 98.1737 58.652 99.0274 58.652V58.152ZM96.8674 57.72L97.0644 57.2604C95.809 56.7224 95.2794 55.5254 95.2794 53.976H94.7794H94.2794C94.2794 55.7386 94.9018 57.4216 96.6705 58.1796L96.8674 57.72ZM94.7794 53.976H95.2794C95.2794 52.4279 95.821 50.7831 96.5855 49.393L96.1474 49.152L95.7093 48.911C94.8899 50.4009 94.2794 52.2121 94.2794 53.976H94.7794ZM96.1474 49.152L96.5831 49.3974C99.402 44.3939 102.786 42.956 104.787 42.956V42.456V41.956C102.325 41.956 98.6529 43.6861 95.7118 48.9066L96.1474 49.152ZM104.787 42.456V42.956C105.379 42.956 105.826 43.0722 106.105 43.2321C106.379 43.3886 106.447 43.5518 106.447 43.68H106.947H107.447C107.447 43.0882 107.084 42.6394 106.602 42.3639C106.125 42.0918 105.492 41.956 104.787 41.956V42.456ZM106.947 43.68H106.447C106.447 43.9892 106.307 44.4108 105.953 44.9103C105.602 45.4039 105.064 45.9405 104.332 46.4699C102.87 47.5279 100.672 48.5289 97.7797 49.0933L97.8754 49.584L97.9712 50.0747C100.983 49.4871 103.321 48.4361 104.919 47.2801C105.717 46.7025 106.34 46.0916 106.768 45.4895C107.191 44.8932 107.447 44.2708 107.447 43.68H106.947ZM97.8754 49.584L97.4282 49.3604C96.4725 51.2717 96.0794 52.7906 96.0794 53.976H96.5794H97.0794C97.0794 53.0014 97.4063 51.6403 98.3227 49.8076L97.8754 49.584ZM96.5794 53.976H96.0794C96.0794 55.0896 96.4211 55.955 97.058 56.5472C97.6854 57.1306 98.5347 57.3883 99.4377 57.4275L99.4594 56.928L99.4812 56.4285C98.7282 56.3957 98.1375 56.1854 97.7389 55.8148C97.3497 55.453 97.0794 54.8784 97.0794 53.976H96.5794ZM99.4594 56.928V57.428H99.8194V56.928V56.428H99.4594V56.928ZM99.8194 56.928V57.428C101.254 57.428 102.941 57.024 104.744 56.3661C106.553 55.7059 108.509 54.7783 110.489 53.7045C114.449 51.5569 118.537 48.8066 121.79 46.3851L121.491 45.984L121.193 45.5829C117.966 47.9854 113.918 50.7071 110.012 52.8255C108.059 53.8847 106.149 54.7886 104.401 55.4267C102.647 56.067 101.085 56.428 99.8194 56.428V56.928ZM121.491 45.984L121.677 46.4482L122.037 46.3042L121.851 45.84L121.666 45.3758L121.306 45.5198L121.491 45.984ZM121.851 45.84V46.34C121.805 46.34 121.773 46.3288 121.758 46.3224C121.743 46.3159 121.735 46.3094 121.729 46.3051C121.725 46.3015 121.713 46.2913 121.699 46.2692C121.691 46.2579 121.679 46.2374 121.667 46.2076C121.656 46.1799 121.639 46.1269 121.639 46.056H122.139H122.639C122.639 45.8923 122.567 45.7697 122.531 45.7145C122.485 45.6452 122.428 45.5855 122.37 45.5369C122.262 45.4473 122.08 45.34 121.851 45.34V45.84ZM122.139 46.056H121.639C121.639 46.0497 121.64 46.0399 121.643 46.0286C121.647 46.0173 121.651 46.0098 121.652 46.007C121.655 46.0026 121.641 46.0272 121.574 46.072L121.851 46.488L122.129 46.904C122.439 46.6972 122.639 46.4148 122.639 46.056H122.139ZM121.851 46.488L121.548 46.0905C118.07 48.7441 113.825 51.6448 109.74 53.8793C105.63 56.1277 101.769 57.652 99.0274 57.652V58.152V58.652C102.046 58.652 106.104 57.0083 110.22 54.7567C114.362 52.4912 118.649 49.5599 122.155 46.8855L121.851 46.488ZM98.4514 48.504L98.4938 49.0022C100.281 48.8501 102.279 48.0787 103.824 47.1814C104.598 46.7313 105.281 46.2374 105.777 45.7535C106.025 45.5118 106.237 45.2621 106.39 45.0111C106.54 44.7648 106.655 44.4819 106.655 44.184H106.155H105.655C105.655 44.2281 105.636 44.3277 105.536 44.4901C105.44 44.6478 105.288 44.8328 105.078 45.0377C104.659 45.4471 104.049 45.8937 103.321 46.3166C101.86 47.1653 100.006 47.8699 98.409 48.0058L98.4514 48.504ZM106.155 44.184H106.655C106.655 43.8606 106.491 43.5969 106.293 43.3984L105.939 43.752L105.586 44.1056C105.629 44.1491 105.648 44.1785 105.654 44.1916C105.66 44.2025 105.655 44.1984 105.655 44.184H106.155ZM105.939 43.752L106.293 43.3984C106.049 43.1545 105.631 42.964 105.147 42.964V43.464V43.964C105.384 43.964 105.542 44.0615 105.586 44.1056L105.939 43.752ZM105.147 43.464V42.964C104.292 42.964 103.133 43.3597 101.898 44.1924C100.651 45.0331 99.2921 46.3416 98.0354 48.2266L98.4514 48.504L98.8675 48.7813C100.059 46.9944 101.328 45.7829 102.457 45.0216C103.598 44.2523 104.563 43.964 105.147 43.964V43.464ZM116.551 68.664L116.775 68.2168L116.551 68.664ZM126.055 37.92L125.636 37.6478L125.635 37.6491L126.055 37.92ZM157.375 9.624L156.975 9.924L156.996 9.95242L157.021 9.97755L157.375 9.624ZM123.463 46.344L123.126 45.9749L123.095 46.0027L123.07 46.0351L123.463 46.344ZM118.279 67.512V68.0121L118.288 68.0119L118.279 67.512ZM149.095 45.84L148.997 45.3497L148.943 45.3605L148.893 45.3826L149.095 45.84ZM149.455 45.768V45.268H149.405L149.357 45.2777L149.455 45.768ZM149.383 46.488L149.262 46.0029L149.233 46.0102L149.205 46.0208L149.383 46.488ZM124.399 44.472L123.969 44.2166L124.735 44.8426L124.399 44.472ZM145.711 24.744L146.065 25.0976L145.711 24.744ZM156.655 10.992H157.155V10.9304L157.14 10.8707L156.655 10.992ZM156.583 10.704L157.068 10.5827L157.034 10.4484L156.937 10.3505L156.583 10.704ZM145.855 17.616L145.516 17.2484L145.516 17.2486L145.855 17.616ZM117.847 68.952V68.452C117.474 68.452 117.122 68.3904 116.775 68.2168L116.551 68.664L116.327 69.1112C116.844 69.3696 117.356 69.452 117.847 69.452V68.952ZM116.551 68.664L116.775 68.2168C115.586 67.6223 115.035 66.3556 115.035 64.416H114.535H114.035C114.035 66.5084 114.636 68.2657 116.327 69.1112L116.551 68.664ZM114.535 64.416H115.035C115.035 62.7468 115.476 60.6807 116.223 58.3963C116.968 56.1182 118.007 53.6528 119.18 51.1944C121.527 46.2772 124.396 41.4181 126.475 38.1908L126.055 37.92L125.635 37.6491C123.538 40.9019 120.647 45.7988 118.278 50.7636C117.093 53.2462 116.035 55.7533 115.273 58.0855C114.512 60.4113 114.035 62.5932 114.035 64.416H114.535ZM126.055 37.92L126.474 38.1922C131.705 30.131 138.067 22.9813 143.699 17.8506C146.515 15.285 149.141 13.232 151.343 11.8239C152.445 11.1197 153.432 10.5821 154.279 10.2221C155.134 9.85852 155.808 9.692 156.295 9.692V9.192V8.692C155.612 8.692 154.792 8.91698 153.887 9.30183C152.974 9.69023 151.936 10.2579 150.805 10.9814C148.541 12.4285 145.87 14.52 143.025 17.1114C137.335 22.2947 130.917 29.509 125.636 37.6478L126.055 37.92ZM156.295 9.192V9.692C156.709 9.692 156.887 9.8073 156.975 9.924L157.375 9.624L157.775 9.324C157.431 8.86469 156.889 8.692 156.295 8.692V9.192ZM157.375 9.624L157.021 9.97755C157.17 10.1265 157.235 10.3228 157.235 10.704H157.735H158.235C158.235 10.2212 158.156 9.69748 157.729 9.27044L157.375 9.624ZM157.735 10.704H157.235C157.235 11.4142 156.854 12.4289 156.074 13.7223C155.304 14.9966 154.189 16.4724 152.819 18.0854C150.08 21.3099 146.358 25.0368 142.443 28.7272C134.595 36.1249 126.079 43.2769 123.126 45.9749L123.463 46.344L123.8 46.7131C126.679 44.0831 135.299 36.8351 143.129 29.4548C147.053 25.7562 150.806 21.9996 153.581 18.7329C154.968 17.1002 156.121 15.5784 156.93 14.2391C157.727 12.9188 158.235 11.7038 158.235 10.704H157.735ZM123.463 46.344L123.07 46.0351C122.941 46.1992 122.739 46.5393 122.5 46.976C122.253 47.4272 121.946 48.0182 121.601 48.7126C120.912 50.1017 120.068 51.9135 119.249 53.8634C118.431 55.8124 117.634 57.9061 117.041 59.8573C116.452 61.7983 116.051 63.6379 116.051 65.064H116.551H117.051C117.051 63.7901 117.415 62.0657 117.998 60.148C118.578 58.2404 119.36 56.1806 120.171 54.2506C120.981 52.3215 121.816 50.5288 122.497 49.1572C122.837 48.4712 123.138 47.8928 123.377 47.4566C123.624 47.0059 123.787 46.7408 123.856 46.6529L123.463 46.344ZM116.551 65.064H116.051C116.051 65.86 116.181 66.5879 116.539 67.1303C116.92 67.7085 117.518 68.012 118.279 68.012V67.512V67.012C117.816 67.012 117.55 66.8475 117.373 66.5797C117.173 66.2761 117.051 65.78 117.051 65.064H116.551ZM118.279 67.512L118.288 68.0119C120.372 67.973 122.827 66.7609 125.409 65.0159C128.012 63.2568 130.833 60.8921 133.664 58.4303C136.504 55.9604 139.35 53.396 142.035 51.2031C144.724 49.0062 147.204 47.2219 149.297 46.2974L149.095 45.84L148.893 45.3826C146.666 46.3661 144.097 48.2268 141.402 50.4287C138.702 52.6345 135.829 55.2226 133.008 57.6757C130.178 60.1369 127.397 62.4657 124.849 64.1874C122.281 65.9231 120.038 66.979 118.27 67.0121L118.279 67.512ZM149.095 45.84L149.193 46.3303L149.553 46.2583L149.455 45.768L149.357 45.2777L148.997 45.3497L149.095 45.84ZM149.455 45.768V46.268C149.451 46.268 149.423 46.2657 149.391 46.2376C149.362 46.2127 149.315 46.153 149.315 46.056H149.815H150.315C150.315 45.5663 149.872 45.268 149.455 45.268V45.768ZM149.815 46.056H149.315C149.315 46.0113 149.325 45.9842 149.329 45.9757C149.333 45.9654 149.336 45.9635 149.333 45.9668C149.329 45.972 149.309 45.9911 149.262 46.0029L149.383 46.488L149.504 46.9731C149.96 46.859 150.315 46.4811 150.315 46.056H149.815ZM149.383 46.488L149.205 46.0208C147.372 46.7201 144.914 48.5108 142.195 50.7349C139.461 52.9712 136.393 55.707 133.342 58.3405C130.283 60.9817 127.236 63.5242 124.515 65.4053C123.155 66.3457 121.888 67.1126 120.751 67.6429C119.607 68.1763 118.632 68.452 117.847 68.452V68.952V69.452C118.844 69.452 119.973 69.109 121.173 68.5492C122.381 67.9862 123.699 67.1854 125.084 66.2279C127.853 64.3133 130.935 61.7393 133.996 59.0975C137.065 56.448 140.108 53.7343 142.828 51.5089C145.563 49.2712 147.902 47.5879 149.561 46.9552L149.383 46.488ZM124.399 44.472L124.735 44.8426C130.846 39.3065 139.141 32.0211 146.065 25.0976L145.711 24.744L145.357 24.3904C138.457 31.2909 130.192 38.5495 124.063 44.1014L124.399 44.472ZM145.711 24.744L146.065 25.0976C148.99 22.1723 151.739 19.1528 153.759 16.6425C154.769 15.3884 155.604 14.2527 156.189 13.3142C156.482 12.8453 156.718 12.4163 156.882 12.04C157.042 11.675 157.155 11.3127 157.155 10.992H156.655H156.155C156.155 11.1033 156.109 11.3125 155.966 11.6397C155.828 11.9555 155.619 12.3393 155.341 12.785C154.785 13.6758 153.978 14.7766 152.981 16.0155C150.987 18.4912 148.264 21.4837 145.357 24.3904L145.711 24.744ZM156.655 10.992L157.14 10.8707L157.068 10.5827L156.583 10.704L156.098 10.8253L156.17 11.1133L156.655 10.992ZM156.583 10.704L156.937 10.3505C156.903 10.3172 156.816 10.2254 156.681 10.1578C156.541 10.0878 156.388 10.06 156.223 10.06V10.56V11.06C156.25 11.06 156.26 11.0622 156.259 11.0621C156.259 11.062 156.256 11.0613 156.251 11.0597C156.246 11.0579 156.24 11.0555 156.233 11.0522C156.227 11.0489 156.221 11.0454 156.216 11.042C156.211 11.0387 156.208 11.0362 156.207 11.0352C156.206 11.0344 156.207 11.0351 156.21 11.0388C156.212 11.0406 156.215 11.043 156.218 11.0461C156.221 11.0494 156.225 11.0529 156.229 11.0575L156.583 10.704ZM156.223 10.56V10.06C155.81 10.06 155.278 10.2164 154.665 10.4859C154.038 10.7617 153.276 11.1787 152.388 11.7507C150.612 12.8953 148.303 14.6787 145.516 17.2484L145.855 17.616L146.194 17.9836C148.951 15.4413 151.214 13.6967 152.93 12.5913C153.788 12.0383 154.502 11.6498 155.067 11.4013C155.647 11.1466 156.024 11.06 156.223 11.06V10.56ZM145.855 17.616L145.516 17.2486C137.99 24.1958 129.896 34.2423 123.969 44.2166L124.399 44.472L124.829 44.7274C130.71 34.8297 138.744 24.8602 146.194 17.9834L145.855 17.616ZM147.78 57.792L147.574 58.2472L147.577 58.2489L147.78 57.792ZM146.7 49.224L146.264 48.9795L146.259 48.9898L146.253 49.0004L146.7 49.224ZM157.572 44.976H158.072V44.9613L158.072 44.9466L157.572 44.976ZM156.708 45.264L156.218 45.3621L156.224 45.3926L156.234 45.4221L156.708 45.264ZM156.276 44.472L155.923 44.8256L155.958 44.8606L155.999 44.888L156.276 44.472ZM148.86 49.08L149.298 49.3215L149.302 49.3152L149.305 49.3087L148.86 49.08ZM150.3 56.928L150.279 57.4275L150.29 57.428H150.3V56.928ZM172.044 45.984L171.859 45.5198L171.797 45.5445L171.744 45.5845L172.044 45.984ZM172.404 45.84V45.34H172.308L172.219 45.3758L172.404 45.84ZM172.404 46.488L172.127 46.072L172.111 46.0829L172.095 46.0951L172.404 46.488ZM149.94 58.224V57.724C149.21 57.724 148.56 57.5915 147.984 57.3351L147.78 57.792L147.577 58.2489C148.296 58.5685 149.087 58.724 149.94 58.724V58.224ZM147.78 57.792L147.987 57.3368C146.65 56.7291 146.048 55.3803 146.048 53.688H145.548H145.048C145.048 55.5957 145.743 57.4149 147.574 58.2472L147.78 57.792ZM145.548 53.688H146.048C146.048 52.2743 146.524 50.6954 147.148 49.4476L146.7 49.224L146.253 49.0004C145.581 50.3446 145.048 52.0777 145.048 53.688H145.548ZM146.7 49.224L147.137 49.4685C149.754 44.7997 152.713 43.316 154.62 43.316V42.816V42.316C152.208 42.316 148.975 44.1443 146.264 48.9795L146.7 49.224ZM154.62 42.816V43.316C156.19 43.316 157.022 44.14 157.073 45.0054L157.572 44.976L158.072 44.9466C157.978 43.364 156.507 42.316 154.62 42.316V42.816ZM157.572 44.976H157.072C157.072 45.112 157.038 45.1607 157.037 45.162C157.037 45.1624 157.045 45.1526 157.064 45.1423C157.083 45.1319 157.11 45.124 157.14 45.124V45.624V46.124C157.756 46.124 158.072 45.5413 158.072 44.976H157.572ZM157.14 45.624V45.124C157.143 45.124 157.153 45.1246 157.167 45.13C157.182 45.1353 157.193 45.1427 157.2 45.1487C157.206 45.1542 157.206 45.156 157.202 45.1493C157.198 45.1425 157.19 45.1287 157.183 45.1059L156.708 45.264L156.234 45.4221C156.348 45.7641 156.637 46.124 157.14 46.124V45.624ZM156.708 45.264L157.199 45.1659C157.117 44.7552 156.933 44.3087 156.554 44.056L156.276 44.472L155.999 44.888C156.052 44.9233 156.156 45.0528 156.218 45.3621L156.708 45.264ZM156.276 44.472L156.63 44.1184C156.16 43.6481 155.592 43.468 154.98 43.468V43.968V44.468C155.377 44.468 155.673 44.5759 155.923 44.8256L156.276 44.472ZM154.98 43.968V43.468C153.788 43.468 152.465 44.2153 151.324 45.2005C150.163 46.2023 149.095 47.5302 148.416 48.8513L148.86 49.08L149.305 49.3087C149.922 48.1098 150.906 46.8817 151.977 45.9575C153.067 45.0167 154.157 44.468 154.98 44.468V43.968ZM148.86 49.08L148.423 48.8385C147.248 50.9677 146.776 52.6367 146.776 53.976H147.276H147.776C147.776 52.8673 148.169 51.3683 149.298 49.3215L148.86 49.08ZM147.276 53.976H146.776C146.776 55.107 147.166 55.9731 147.84 56.5584C148.499 57.1319 149.377 57.3883 150.279 57.4275L150.3 56.928L150.322 56.4285C149.568 56.3957 148.933 56.1841 148.495 55.8036C148.071 55.4349 147.776 54.861 147.776 53.976H147.276ZM150.3 56.928V57.428H150.66V56.928V56.428H150.3V56.928ZM150.66 56.928V57.428C152.095 57.428 153.77 57.0237 155.552 56.3654C157.34 55.7049 159.267 54.7769 161.216 53.7029C165.113 51.5549 169.129 48.8043 172.345 46.3835L172.044 45.984L171.744 45.5845C168.551 47.9877 164.576 50.7091 160.733 52.8271C158.812 53.8861 156.932 54.7896 155.205 55.4274C153.473 56.0673 151.926 56.428 150.66 56.428V56.928ZM172.044 45.984L172.23 46.4482L172.59 46.3042L172.404 45.84L172.219 45.3758L171.859 45.5198L172.044 45.984ZM172.404 45.84V46.34C172.314 46.34 172.265 46.2997 172.249 46.2836C172.233 46.2674 172.192 46.2186 172.192 46.128H172.692H173.192C173.192 45.8934 173.08 45.7006 172.956 45.5764C172.832 45.4523 172.639 45.34 172.404 45.34V45.84ZM172.692 46.128H172.192C172.192 46.0962 172.196 46.0707 172.2 46.053C172.204 46.035 172.209 46.0213 172.212 46.0122C172.219 45.9943 172.225 45.9875 172.223 45.9904C172.219 45.9961 172.194 46.0277 172.127 46.072L172.404 46.488L172.682 46.904C172.831 46.8043 172.95 46.6919 173.036 46.5716C173.114 46.4631 173.192 46.3079 173.192 46.128H172.692ZM172.404 46.488L172.095 46.0951C168.725 48.748 164.571 51.6659 160.55 53.9177C156.504 56.1837 152.68 57.724 149.94 57.724V58.224V58.724C152.961 58.724 156.985 57.0603 161.039 54.7903C165.118 52.5061 169.316 49.556 172.714 46.8809L172.404 46.488ZM168.475 50.88L168.918 51.1129L168.923 51.1023L168.928 51.0914L168.475 50.88ZM172.219 45.48L172.563 45.8435L172.976 45.4531L172.536 45.093L172.219 45.48ZM174.379 43.896L173.97 44.1827L173.976 44.1914L173.982 44.1997L174.379 43.896ZM176.899 47.136L176.671 47.5808L176.676 47.5832L176.899 47.136ZM192.955 45.912L192.834 45.4269L192.784 45.4395L192.737 45.4622L192.955 45.912ZM193.243 45.84V45.34H193.182L193.122 45.3549L193.243 45.84ZM193.171 46.416L193.386 46.8676L193.419 46.8521L193.449 46.832L193.171 46.416ZM175.603 47.568L175.827 47.1208L175.103 46.759V47.568H175.603ZM173.587 44.904L173.31 45.32L173.91 44.5223L173.587 44.904ZM172.651 44.112L172.974 43.7303L172.251 44.412L172.651 44.112ZM174.451 47.928H174.951V47.8925L174.946 47.8573L174.451 47.928ZM174.307 46.92L174.802 46.8493L174.769 46.6192L174.572 46.496L174.307 46.92ZM173.731 46.56L173.996 46.136L173.659 45.9252L173.378 46.2064L173.731 46.56ZM168.619 57.144L168.266 57.4976L168.323 57.5549L168.396 57.5912L168.619 57.144ZM168.691 58.368V57.868C168.377 57.868 168.077 57.7669 167.821 57.5104L167.467 57.864L167.114 58.2176C167.577 58.6811 168.141 58.868 168.691 58.868V58.368ZM167.467 57.864L167.821 57.5104C167.53 57.2195 167.391 56.7381 167.391 56.064H166.891H166.391C166.391 56.8299 166.541 57.6445 167.114 58.2176L167.467 57.864ZM166.891 56.064H167.391C167.391 54.5349 168.206 52.4651 168.918 51.1129L168.475 50.88L168.033 50.6471C167.305 52.0309 166.391 54.2811 166.391 56.064H166.891ZM168.475 50.88L168.928 51.0914C169.914 48.9789 171.32 47.0174 172.563 45.8435L172.219 45.48L171.876 45.1165C170.527 46.3906 169.052 48.4611 168.022 50.6686L168.475 50.88ZM172.219 45.48L172.536 45.093C171.792 44.4843 171.639 44.036 171.639 43.824H171.139H170.639C170.639 44.476 171.063 45.1797 171.903 45.867L172.219 45.48ZM171.139 43.824H171.639C171.639 43.7251 171.681 43.6349 171.802 43.5511C171.934 43.4598 172.152 43.388 172.435 43.388V42.888V42.388C171.999 42.388 171.569 42.4962 171.233 42.7289C170.886 42.9691 170.639 43.3469 170.639 43.824H171.139ZM172.435 42.888V43.388C172.95 43.388 173.575 43.6187 173.97 44.1827L174.379 43.896L174.789 43.6093C174.176 42.7333 173.217 42.388 172.435 42.388V42.888ZM174.379 43.896L173.982 44.1997C174.431 44.7864 174.626 45.1658 174.72 45.4169C174.816 45.6757 174.808 45.7841 174.851 46.0139C174.873 46.1293 174.91 46.2655 174.994 46.4091C175.077 46.5497 175.19 46.6698 175.327 46.7831C175.589 46.9984 176.009 47.2407 176.671 47.5808L176.899 47.136L177.128 46.6912C176.458 46.3473 176.13 46.1486 175.962 46.0106C175.886 45.9473 175.862 45.9127 175.856 45.9012C175.851 45.8926 175.843 45.8792 175.834 45.8281C175.814 45.7249 175.792 45.4328 175.657 45.0684C175.518 44.6962 175.264 44.2296 174.777 43.5923L174.379 43.896ZM176.899 47.136L176.676 47.5832C178.359 48.4247 180.463 48.716 182.515 48.716V48.216V47.716C180.535 47.716 178.608 47.4313 177.123 46.6888L176.899 47.136ZM182.515 48.216V48.716C186.409 48.716 190.587 47.6181 193.174 46.3618L192.955 45.912L192.737 45.4622C190.283 46.6539 186.254 47.716 182.515 47.716V48.216ZM192.955 45.912L193.077 46.3971L193.365 46.3251L193.243 45.84L193.122 45.3549L192.834 45.4269L192.955 45.912ZM193.243 45.84V46.34C193.241 46.34 193.21 46.341 193.164 46.31C193.138 46.2926 193.103 46.262 193.075 46.2134C193.045 46.1626 193.031 46.1069 193.031 46.056H193.531H194.031C194.031 45.79 193.888 45.5908 193.719 45.478C193.564 45.375 193.39 45.34 193.243 45.34V45.84ZM193.531 46.056H193.031C193.031 45.9843 193.049 45.9309 193.059 45.9036C193.071 45.8748 193.082 45.8563 193.087 45.8492C193.095 45.8361 193.096 45.8382 193.079 45.8554C193.046 45.8886 192.984 45.9402 192.894 46L193.171 46.416L193.449 46.832C193.575 46.7478 193.693 46.6554 193.786 46.5626C193.832 46.5168 193.882 46.4604 193.924 46.3955C193.957 46.3449 194.031 46.2216 194.031 46.056H193.531ZM193.171 46.416L192.957 45.9644C190.127 47.3084 186.097 48.508 182.155 48.508V49.008V49.508C186.278 49.508 190.455 48.2596 193.386 46.8676L193.171 46.416ZM182.155 49.008V48.508C179.913 48.508 177.761 48.0877 175.827 47.1208L175.603 47.568L175.38 48.0152C177.478 49.0643 179.789 49.508 182.155 49.508V49.008ZM175.603 47.568H175.103V47.64H175.603H176.103V47.568H175.603ZM175.603 47.64H175.103C175.103 49.8162 174.125 52.4036 172.782 54.4584C172.113 55.4811 171.369 56.3487 170.637 56.9547C169.894 57.5705 169.222 57.868 168.691 57.868V58.368V58.868C169.564 58.868 170.459 58.4005 171.275 57.7248C172.103 57.0393 172.911 56.0889 173.619 55.0056C175.029 52.8484 176.103 50.0718 176.103 47.64H175.603ZM173.587 44.904L173.91 44.5223L172.974 43.7303L172.651 44.112L172.328 44.4937L173.264 45.2857L173.587 44.904ZM172.651 44.112L172.251 44.412C172.524 44.775 172.877 45.0315 173.31 45.32L173.587 44.904L173.865 44.488C173.433 44.2005 173.211 44.025 173.051 43.812L172.651 44.112ZM169.123 57.288V57.788C169.497 57.788 169.859 57.6511 170.188 57.4534C170.52 57.2542 170.849 56.9759 171.165 56.6493C171.798 55.996 172.426 55.1048 172.979 54.1224C174.078 52.1723 174.951 49.7438 174.951 47.928H174.451H173.951C173.951 49.4962 173.169 51.7477 172.108 53.6316C171.581 54.5662 171.002 55.3805 170.447 55.9535C170.17 56.2399 169.909 56.455 169.674 56.5958C169.437 56.7382 169.254 56.788 169.123 56.788V57.288ZM174.451 47.928L174.946 47.8573L174.802 46.8493L174.307 46.92L173.812 46.9907L173.956 47.9987L174.451 47.928ZM174.307 46.92L174.572 46.496L173.996 46.136L173.731 46.56L173.466 46.984L174.042 47.344L174.307 46.92ZM173.731 46.56L173.378 46.2064C171.424 48.1605 170.078 50.2804 169.219 52.1272C168.367 53.9591 167.975 55.5651 167.975 56.496H168.475H168.975C168.975 55.7709 169.304 54.3169 170.126 52.5488C170.941 50.7956 172.223 48.7755 174.085 46.9136L173.731 46.56ZM168.475 56.496H167.975C167.975 56.7073 167.996 56.8933 168.035 57.0493C168.07 57.1865 168.133 57.3651 168.266 57.4976L168.619 57.144L168.973 56.7904C168.993 56.8102 169.005 56.8269 169.011 56.8359C169.014 56.8408 169.016 56.8445 169.017 56.8469C169.019 56.8493 169.019 56.8506 169.019 56.8508C169.019 56.8509 169.018 56.8475 169.015 56.8397C169.012 56.8321 169.009 56.8212 169.005 56.8067C168.99 56.7467 168.975 56.6447 168.975 56.496H168.475ZM168.619 57.144L168.396 57.5912C168.544 57.6652 168.78 57.788 169.123 57.788V57.288V56.788C169.075 56.788 169.038 56.7805 169.002 56.7687C168.96 56.7546 168.919 56.7348 168.843 56.6968L168.619 57.144ZM184.03 60.24L184.477 60.4636L184.487 60.4437L184.495 60.4231L184.03 60.24ZM194.182 44.112L193.829 43.7584L193.818 43.7688L193.808 43.7798L194.182 44.112ZM195.55 45.264L195.327 44.8168L195.238 44.8609L195.173 44.9353L195.55 45.264ZM186.334 58.44L185.892 58.2071L186.688 58.7936L186.334 58.44ZM205.414 46.056L205.868 46.265L205.914 46.1655V46.056H205.414ZM200.734 57.648L200.266 57.4734L201.162 57.9069L200.734 57.648ZM215.638 59.448L215.443 59.9086L215.452 59.9122L215.638 59.448ZM239.326 45.984L239.228 45.4937L239.174 45.5045L239.124 45.5268L239.326 45.984ZM239.686 45.912V45.412H239.637L239.588 45.4217L239.686 45.912ZM239.542 46.344L239.384 45.8697L239.347 45.8819L239.313 45.8998L239.542 46.344ZM216.142 60.672L216.097 61.1699L216.12 61.172H216.142V60.672ZM215.35 60.6L215.26 61.0917L215.282 61.0959L215.305 61.0979L215.35 60.6ZM210.742 50.448H211.242V49.7352L210.572 49.9779L210.742 50.448ZM200.23 59.016L199.858 58.6819L199.852 58.6888L199.846 58.6959L200.23 59.016ZM202.606 47.352L203.028 47.6198L203.885 46.2688L202.412 46.8914L202.606 47.352ZM185.038 60.888L184.671 60.5483L184.623 60.6006L184.591 60.6644L185.038 60.888ZM184.462 61.104V60.604C184.431 60.604 184.412 60.6 184.404 60.5976C184.396 60.5953 184.402 60.5956 184.415 60.6056C184.428 60.6165 184.442 60.6331 184.451 60.6527C184.46 60.6715 184.458 60.6808 184.458 60.672H183.958H183.458C183.458 60.9541 183.571 61.2113 183.79 61.3864C183.994 61.5496 184.242 61.604 184.462 61.604V61.104ZM183.958 60.672H184.458C184.458 60.5154 184.465 60.4874 184.477 60.4636L184.03 60.24L183.583 60.0164C183.451 60.2806 183.458 60.5406 183.458 60.672H183.958ZM184.03 60.24L184.495 60.4231C186.199 56.093 191.133 48.2945 194.556 44.4442L194.182 44.112L193.808 43.7798C190.319 47.7055 185.317 55.603 183.565 60.0569L184.03 60.24ZM194.182 44.112L194.536 44.4656C194.579 44.422 194.609 44.4038 194.622 44.3972C194.633 44.3918 194.629 44.396 194.614 44.396V43.896V43.396C194.291 43.396 194.027 43.5599 193.829 43.7584L194.182 44.112ZM194.614 43.896V44.396C194.614 44.396 194.625 44.3961 194.649 44.403C194.673 44.4097 194.704 44.4214 194.742 44.44C194.817 44.4776 194.901 44.5353 194.978 44.6066C195.056 44.6782 195.117 44.753 195.155 44.8178C195.196 44.8871 195.194 44.9156 195.194 44.904H195.694H196.194C196.194 44.6763 196.111 44.4709 196.017 44.3107C195.92 44.146 195.792 43.9958 195.654 43.8694C195.4 43.637 195.014 43.396 194.614 43.396V43.896ZM195.694 44.904H195.194C195.194 44.9431 195.194 44.9627 195.193 44.9787C195.192 44.9936 195.191 44.9888 195.195 44.9736C195.2 44.9563 195.213 44.9242 195.24 44.8895C195.268 44.8534 195.3 44.8299 195.327 44.8168L195.55 45.264L195.774 45.7112C195.989 45.6035 196.106 45.4254 196.157 45.2484C196.198 45.1053 196.194 44.9588 196.194 44.904H195.694ZM195.55 45.264L195.173 44.9353C192.202 48.3411 188.074 54.061 185.892 58.2071L186.334 58.44L186.777 58.6729C188.914 54.611 192.994 48.9549 195.927 45.5927L195.55 45.264ZM186.334 58.44L186.688 58.7936C187.926 57.555 191.669 54.2938 195.521 51.3398C197.446 49.8639 199.386 48.4739 201.044 47.4552C201.874 46.9455 202.624 46.5347 203.26 46.2529C203.911 45.9646 204.389 45.836 204.694 45.836V45.336V44.836C204.171 44.836 203.533 45.0381 202.855 45.3385C202.163 45.6454 201.371 46.0811 200.521 46.6031C198.82 47.6476 196.85 49.0611 194.913 50.5462C191.043 53.5142 187.262 56.805 185.981 58.0864L186.334 58.44ZM204.694 45.336V45.836C204.834 45.836 204.873 45.8709 204.876 45.8734C204.878 45.8751 204.885 45.8819 204.894 45.9045C204.903 45.9294 204.914 45.9767 204.914 46.056H205.414H205.914C205.914 45.7087 205.812 45.3783 205.556 45.1406C205.307 44.9091 204.987 44.836 204.694 44.836V45.336ZM205.414 46.056L204.96 45.847C203.295 49.4656 201.634 53.801 200.266 57.4734L200.734 57.648L201.203 57.8226C202.571 54.151 204.221 49.8464 205.868 46.265L205.414 46.056ZM200.734 57.648L201.162 57.9069C201.942 56.6186 204.024 54.5402 206.248 52.7647C207.352 51.8837 208.469 51.0941 209.449 50.5276C209.939 50.2443 210.386 50.0216 210.775 49.871C211.17 49.7176 211.471 49.652 211.678 49.652V49.152V48.652C211.292 48.652 210.857 48.7664 210.413 48.9387C209.962 49.1138 209.466 49.3624 208.948 49.6619C207.912 50.2609 206.753 51.0823 205.624 51.9833C203.384 53.7718 201.183 55.9414 200.306 57.3891L200.734 57.648ZM211.678 49.152V49.652C211.889 49.652 211.947 49.704 211.962 49.7197C211.983 49.7417 212.042 49.8268 212.042 50.088H212.542H213.042C213.042 49.7012 212.958 49.3183 212.69 49.0343C212.417 48.744 212.043 48.652 211.678 48.652V49.152ZM212.542 50.088H212.042V50.664H212.542H213.042V50.088H212.542ZM212.542 50.664H212.042C212.042 53.7448 212.348 55.82 212.925 57.2419C213.515 58.6978 214.386 59.4613 215.443 59.9085L215.638 59.448L215.833 58.9875C215.018 58.6427 214.341 58.0742 213.852 56.8661C213.348 55.624 213.042 53.7032 213.042 50.664H212.542ZM215.638 59.448L215.452 59.9122C215.873 60.0804 216.296 60.164 216.79 60.164V59.664V59.164C216.42 59.164 216.124 59.1036 215.824 58.9838L215.638 59.448ZM216.79 59.664V60.164C218.299 60.164 220.217 59.369 222.246 58.2365C224.298 57.0912 226.552 55.5496 228.756 53.9584C230.935 52.385 233.159 50.6949 235.015 49.3462C236.916 47.9658 238.488 46.9018 239.529 46.4412L239.326 45.984L239.124 45.5268C237.968 46.0382 236.31 47.1702 234.428 48.5371C232.502 49.9356 230.392 51.544 228.171 53.1476C225.974 54.7334 223.759 56.2473 221.759 57.3633C219.736 58.492 218.018 59.164 216.79 59.164V59.664ZM239.326 45.984L239.424 46.4743L239.784 46.4023L239.686 45.912L239.588 45.4217L239.228 45.4937L239.326 45.984ZM239.686 45.912V46.412C239.56 46.412 239.475 46.3537 239.432 46.3106C239.388 46.2674 239.33 46.1826 239.33 46.056H239.83H240.33C240.33 45.8574 240.236 45.7006 240.139 45.6034C240.042 45.5063 239.885 45.412 239.686 45.412V45.912ZM239.83 46.056H239.33C239.33 45.9959 239.344 45.9538 239.353 45.9319C239.363 45.9071 239.374 45.8903 239.383 45.8799C239.402 45.8568 239.411 45.8606 239.384 45.8697L239.542 46.344L239.7 46.8183C240.063 46.6974 240.33 46.3981 240.33 46.056H239.83ZM239.542 46.344L239.313 45.8998C238.184 46.4827 236.558 47.6886 234.69 49.1283C232.803 50.5821 230.645 52.2952 228.41 53.9425C226.175 55.5892 223.884 57.1548 221.748 58.3071C219.597 59.4673 217.669 60.172 216.142 60.172V60.672V61.172C217.928 61.172 220.04 60.3647 222.223 59.1872C224.42 58.0017 226.755 56.4038 229.003 54.7475C231.25 53.0918 233.429 51.3624 235.3 49.9204C237.189 48.4644 238.74 47.3213 239.772 46.7882L239.542 46.344ZM216.142 60.672L216.187 60.1741L215.395 60.1021L215.35 60.6L215.305 61.0979L216.097 61.1699L216.142 60.672ZM215.35 60.6L215.441 60.1083C214.187 59.8774 213.175 59.317 212.452 58.0797C211.708 56.8073 211.242 54.7714 211.242 51.528H210.742H210.242C210.242 54.8366 210.712 57.0847 211.589 58.5843C212.485 60.119 213.777 60.8186 215.26 61.0917L215.35 60.6ZM210.742 51.528H211.242V50.448H210.742H210.242V51.528H210.742ZM210.742 50.448L210.572 49.9779C209.46 50.3803 208.236 51.1382 207.041 52.0227C205.839 52.9116 204.641 53.9485 203.58 54.9324C202.518 55.917 201.589 56.8533 200.925 57.5432C200.593 57.8883 200.327 58.1722 200.144 58.3701C200.052 58.4691 199.981 58.5466 199.933 58.5996C199.909 58.6261 199.89 58.6465 199.878 58.6603C199.871 58.6673 199.867 58.6726 199.863 58.6762C199.862 58.678 199.86 58.6794 199.86 58.6803C199.859 58.6808 199.859 58.6812 199.859 58.6815C199.858 58.6816 199.858 58.6817 199.858 58.6818C199.858 58.6819 199.858 58.6819 200.23 59.016C200.602 59.3501 200.602 59.3501 200.602 59.3501C200.602 59.35 200.602 59.35 200.602 59.3499C200.603 59.3497 200.603 59.3495 200.603 59.3491C200.604 59.3484 200.605 59.3472 200.606 59.3456C200.609 59.3424 200.613 59.3376 200.619 59.3311C200.631 59.3181 200.649 59.2987 200.672 59.2731C200.719 59.222 200.788 59.1465 200.877 59.0496C201.057 58.8558 201.319 58.5766 201.646 58.2366C202.3 57.5562 203.216 56.634 204.26 55.6656C205.305 54.6965 206.474 53.6859 207.635 52.8265C208.803 51.9628 209.936 51.2717 210.912 50.9181L210.742 50.448ZM200.23 59.016L199.846 58.6959C199.689 58.8842 199.562 58.9926 199.476 59.05C199.376 59.1162 199.367 59.092 199.438 59.092V59.592V60.092C199.653 60.092 199.86 59.9958 200.031 59.882C200.214 59.7594 200.411 59.5798 200.614 59.3361L200.23 59.016ZM199.438 59.592V59.092C199.436 59.092 199.476 59.0932 199.523 59.1284C199.563 59.1595 199.567 59.1859 199.556 59.1581C199.545 59.1284 199.531 59.0694 199.521 58.9656C199.511 58.8642 199.506 58.7387 199.506 58.584H199.006H198.506C198.506 58.9029 198.52 59.2389 198.618 59.5039C198.671 59.6471 198.76 59.804 198.915 59.9228C199.076 60.0458 199.261 60.092 199.438 60.092V59.592ZM199.006 58.584H199.506C199.506 57.4751 199.919 55.465 200.582 53.3325C201.242 51.2084 202.126 49.0421 203.028 47.6198L202.606 47.352L202.184 47.0842C201.214 48.6139 200.298 50.8756 199.627 53.0355C198.958 55.187 198.506 57.3169 198.506 58.584H199.006ZM202.606 47.352L202.412 46.8914C199.78 48.0034 195.785 50.948 192.265 53.8132C188.733 56.6873 185.596 59.5494 184.671 60.5483L185.038 60.888L185.405 61.2277C186.28 60.2826 189.372 57.4567 192.896 54.5888C196.431 51.712 200.32 48.8606 202.801 47.8126L202.606 47.352ZM185.038 60.888L184.591 60.6644C184.624 60.5977 184.666 60.5695 184.671 60.5665C184.677 60.5621 184.671 60.5673 184.646 60.5757C184.623 60.5835 184.592 60.591 184.557 60.5963C184.523 60.6016 184.489 60.604 184.462 60.604V61.104V61.604C184.618 61.604 184.798 61.579 184.962 61.5243C185.097 61.4796 185.356 61.3712 185.485 61.1116L185.038 60.888ZM237.352 57.72L237.555 57.2631L237.549 57.2604L237.352 57.72ZM236.632 49.152L236.196 48.9066L236.194 48.911L236.632 49.152ZM238.36 49.584L238.264 49.0933L238.023 49.1404L237.913 49.3604L238.36 49.584ZM239.944 56.928L239.922 57.4275L239.933 57.428H239.944V56.928ZM261.976 45.984L261.79 45.5198L261.73 45.544L261.677 45.5829L261.976 45.984ZM262.336 45.84V45.34H262.24L262.15 45.3758L262.336 45.84ZM262.336 46.488L262.058 46.072L262.045 46.0808L262.033 46.0905L262.336 46.488ZM238.936 48.504L238.52 48.2266L237.944 49.0902L238.978 49.0022L238.936 48.504ZM246.424 43.752L246.777 43.3984H246.777L246.424 43.752ZM239.512 58.152V57.652C238.782 57.652 238.132 57.5195 237.555 57.2631L237.352 57.72L237.149 58.1769C237.868 58.4965 238.658 58.652 239.512 58.652V58.152ZM237.352 57.72L237.549 57.2604C236.293 56.7224 235.764 55.5254 235.764 53.976H235.264H234.764C234.764 55.7386 235.386 57.4216 237.155 58.1796L237.352 57.72ZM235.264 53.976H235.764C235.764 52.4279 236.305 50.7831 237.07 49.393L236.632 49.152L236.194 48.911C235.374 50.4009 234.764 52.2121 234.764 53.976H235.264ZM236.632 49.152L237.067 49.3974C239.886 44.3939 243.27 42.956 245.272 42.956V42.456V41.956C242.809 41.956 239.137 43.6861 236.196 48.9066L236.632 49.152ZM245.272 42.456V42.956C245.863 42.956 246.31 43.0722 246.59 43.2321C246.864 43.3886 246.932 43.5518 246.932 43.68H247.432H247.932C247.932 43.0882 247.568 42.6394 247.086 42.3639C246.61 42.0918 245.976 41.956 245.272 41.956V42.456ZM247.432 43.68H246.932C246.932 43.9892 246.792 44.4108 246.437 44.9103C246.086 45.4039 245.548 45.9405 244.817 46.4699C243.354 47.5279 241.157 48.5289 238.264 49.0933L238.36 49.584L238.456 50.0747C241.467 49.4871 243.805 48.4361 245.403 47.2801C246.201 46.7025 246.824 46.0916 247.252 45.4895C247.676 44.8932 247.932 44.2708 247.932 43.68H247.432ZM238.36 49.584L237.913 49.3604C236.957 51.2717 236.564 52.7906 236.564 53.976H237.064H237.564C237.564 53.0014 237.891 51.6403 238.807 49.8076L238.36 49.584ZM237.064 53.976H236.564C236.564 55.0896 236.906 55.955 237.542 56.5472C238.17 57.1306 239.019 57.3883 239.922 57.4275L239.944 56.928L239.966 56.4285C239.213 56.3957 238.622 56.1854 238.223 55.8148C237.834 55.453 237.564 54.8784 237.564 53.976H237.064ZM239.944 56.928V57.428H240.304V56.928V56.428H239.944V56.928ZM240.304 56.928V57.428C241.738 57.428 243.426 57.024 245.228 56.3661C247.037 55.7059 248.993 54.7783 250.973 53.7045C254.933 51.5569 259.022 48.8066 262.274 46.3851L261.976 45.984L261.677 45.5829C258.45 47.9854 254.403 50.7071 250.496 52.8255C248.543 53.8847 246.634 54.7886 244.886 55.4267C243.131 56.067 241.57 56.428 240.304 56.428V56.928ZM261.976 45.984L262.161 46.4482L262.522 46.3042L262.336 45.84L262.15 45.3758L261.79 45.5198L261.976 45.984ZM262.336 45.84V46.34C262.289 46.34 262.257 46.3288 262.243 46.3224C262.228 46.3159 262.219 46.3094 262.214 46.3051C262.209 46.3015 262.198 46.2913 262.183 46.2692C262.176 46.2579 262.163 46.2374 262.151 46.2076C262.141 46.1799 262.124 46.1269 262.124 46.056H262.624H263.124C263.124 45.8923 263.052 45.7697 263.015 45.7145C262.969 45.6452 262.912 45.5855 262.854 45.5369C262.746 45.4473 262.565 45.34 262.336 45.34V45.84ZM262.624 46.056H262.124C262.124 46.0497 262.125 46.0399 262.128 46.0286C262.131 46.0173 262.135 46.0098 262.137 46.007C262.14 46.0026 262.126 46.0272 262.058 46.072L262.336 46.488L262.613 46.904C262.923 46.6972 263.124 46.4148 263.124 46.056H262.624ZM262.336 46.488L262.033 46.0905C258.554 48.7441 254.31 51.6448 250.225 53.8793C246.115 56.1277 242.253 57.652 239.512 57.652V58.152V58.652C242.53 58.652 246.589 57.0083 250.705 54.7567C254.846 52.4912 259.134 49.5599 262.639 46.8855L262.336 46.488ZM238.936 48.504L238.978 49.0022C240.765 48.8501 242.763 48.0787 244.308 47.1814C245.083 46.7313 245.765 46.2374 246.261 45.7535C246.509 45.5118 246.721 45.2621 246.874 45.0111C247.025 44.7648 247.14 44.4819 247.14 44.184H246.64H246.14C246.14 44.2281 246.12 44.3277 246.021 44.4901C245.925 44.6478 245.773 44.8328 245.563 45.0377C245.143 45.4471 244.534 45.8937 243.806 46.3166C242.345 47.1653 240.49 47.8699 238.893 48.0058L238.936 48.504ZM246.64 44.184H247.14C247.14 43.8606 246.976 43.5969 246.777 43.3984L246.424 43.752L246.07 44.1056C246.114 44.1491 246.132 44.1785 246.139 44.1916C246.144 44.2025 246.14 44.1984 246.14 44.184H246.64ZM246.424 43.752L246.777 43.3984C246.533 43.1545 246.115 42.964 245.632 42.964V43.464V43.964C245.868 43.964 246.026 44.0615 246.07 44.1056L246.424 43.752ZM245.632 43.464V42.964C244.777 42.964 243.617 43.3597 242.382 44.1924C241.135 45.0331 239.777 46.3416 238.52 48.2266L238.936 48.504L239.352 48.7813C240.543 46.9944 241.812 45.7829 242.941 45.0216C244.082 44.2523 245.047 43.964 245.632 43.964V43.464Z" fill="#8B9B68" mask="url(#path-1-outside-1_2008_7841)"/>
</svg>
