<svg width="357" height="101" viewBox="0 0 357 101" fill="none" xmlns="http://www.w3.org/2000/svg">
<path d="M356.387 60.0557C356.386 59.9118 356.242 59.7676 356.026 59.7676L355.738 59.8398C349.258 61.6402 335.362 75.6797 330.61 75.6797V75.1797C331.096 75.1797 331.755 74.9958 332.581 74.6182C333.397 74.2451 334.332 73.7047 335.358 73.0391C337.411 71.7072 339.781 69.908 342.223 68.0381C344.657 66.1739 347.162 64.2406 349.464 62.6621C351.752 61.0927 353.896 59.833 355.604 59.3584L355.617 59.3545L355.905 59.2832L355.965 59.2676H356.026C356.443 59.2676 356.887 59.5662 356.887 60.0557C356.887 60.2174 356.815 60.3399 356.789 60.3828C356.753 60.4417 356.711 60.494 356.677 60.5342C356.608 60.6149 356.52 60.7018 356.452 60.7695L356.382 60.8398L356.29 60.8779C352.119 62.6101 347.071 66.6048 342.337 70.2529C339.986 72.0645 337.716 73.786 335.701 75.0635C334.693 75.7027 333.738 76.2388 332.858 76.6201C331.984 76.9994 331.155 77.2393 330.408 77.2598H330.179C329.174 77.2598 328.436 76.8068 327.978 76.0459C327.541 75.321 327.375 74.3506 327.375 73.3037C327.375 71.6551 327.788 69.6187 328.532 67.6455C326.355 69.038 324.572 69.6279 323.194 69.6279C322.065 69.6279 321.179 69.2391 320.583 68.544C319.997 67.8606 319.743 66.9402 319.743 65.96C319.743 64.8376 320.075 63.5892 320.721 62.3828C321.042 62.1727 321.358 61.9735 321.665 61.7852C320.725 63.1704 320.243 64.6686 320.243 65.96L320.254 66.292C320.364 67.9254 321.304 69.1278 323.194 69.1279C324.706 69.1279 326.867 68.3361 329.675 66.2481C328.523 68.6239 327.875 71.2878 327.875 73.3037L327.883 73.6748C327.957 75.4336 328.582 76.6751 330.026 76.7559L330.179 76.7598H330.395C335.568 76.618 347.231 64.3367 355.698 60.5879L356.099 60.416C356.225 60.2899 356.35 60.1637 356.38 60.0859L356.387 60.0557ZM329.243 73.376C329.243 71.9584 329.749 69.7816 331.236 66.9639L331.547 66.3916C332.987 63.7998 334.355 61.4955 335.723 59.7676L335.795 59.5518C335.795 59.1198 335.146 58.544 334.643 58.544C334.427 58.544 334.283 58.616 334.211 58.7598L333.203 60.2725C331.92 58.4498 330.637 57.6389 329.177 57.5449L328.883 57.5361C328.451 57.5361 327.947 57.5357 327.515 57.6797C325.71 58.1719 324.227 59.0593 323.082 60.1318C322.658 60.3386 322.199 60.5912 321.711 60.8799C323.002 59.2606 324.91 57.8717 327.383 57.1973V57.1982C327.899 57.0326 328.475 57.0361 328.883 57.0361C330.502 57.0362 331.879 57.7831 333.178 59.4082L333.795 58.4824C333.988 58.1537 334.33 58.044 334.643 58.044C335.062 58.044 335.464 58.2693 335.738 58.5107C335.883 58.6381 336.015 58.7899 336.114 58.9561C336.211 59.118 336.295 59.3238 336.295 59.5518V59.6328L336.269 59.71L336.197 59.9258L336.169 60.0098L336.114 60.0781C334.774 61.7712 333.423 64.0436 331.983 66.6348V66.6357C330.281 69.6859 329.743 71.977 329.743 73.376C329.743 74.0458 329.861 74.5101 330.021 74.7969C330.169 75.0605 330.337 75.158 330.498 75.1797H330.61V75.6797H330.467L330.334 75.6582C329.729 75.5166 329.302 74.8272 329.248 73.6387L329.243 73.376ZM321.539 66.752C321.539 65.744 322.115 64.3759 323.555 62.5039C325.067 60.4879 327.011 58.6885 328.955 58.6885L329.185 58.6963C330.331 58.7824 331.47 59.5255 332.482 61.2803C328.811 66.0318 325.067 68.1921 323.123 68.1924V67.6924C323.943 67.6923 325.262 67.2197 326.87 66.1065C328.398 65.0484 330.136 63.4444 331.875 61.2422C330.901 59.6912 329.884 59.1886 328.955 59.1885C328.137 59.1885 327.27 59.5693 326.396 60.2373C325.528 60.9017 324.695 61.8171 323.955 62.8037L323.951 62.8086C322.527 64.6604 322.039 65.9164 322.039 66.752C322.039 67.1144 322.147 67.3248 322.287 67.4512C322.436 67.585 322.696 67.6924 323.123 67.6924V68.1924L322.938 68.1865C322.105 68.1316 321.608 67.694 321.545 66.9229L321.539 66.752Z" fill="#8B9B68"/>
<path d="M321.665 61.7852C321.454 62.0961 321.266 62.4128 321.102 62.7314C320.243 63.2891 319.328 63.9255 318.372 64.6172C316.103 66.2581 313.66 68.1584 311.177 69.998C308.708 71.827 306.221 73.5796 303.925 74.876C301.646 76.1626 299.479 77.0439 297.667 77.0439C296.661 77.0439 295.618 76.7207 294.829 75.8896C294.041 75.0593 293.566 73.7862 293.566 72.0078C293.566 70.3443 294.015 68.222 295.122 65.6846C293.161 67.0835 291.441 68.1122 289.953 68.8232C288.075 69.7208 286.54 70.1318 285.354 70.1318C284.251 70.1318 283.384 69.8141 282.796 69.1924C282.213 68.5757 281.975 67.7337 281.975 66.8242C281.975 65.3278 282.64 63.5972 283.735 61.9629C284.123 61.7181 284.493 61.4948 284.843 61.2949C283.372 63.1382 282.475 65.1734 282.475 66.8242L282.485 67.1289C282.588 68.6196 283.465 69.6317 285.354 69.6318C287.514 69.6318 291.186 68.1198 296.442 64.0879C294.714 67.3998 294.066 70.0638 294.066 72.0078C294.066 75.1806 295.649 76.3915 297.33 76.5303L297.667 76.5439C303.625 76.5437 314.601 66.113 321.665 61.7852ZM295.795 72.584C295.795 70.424 296.731 66.9677 299.539 61.9277C305.731 57.3198 311.706 51.2715 317.61 45.2236C327.306 35.2492 331.528 27.978 331.782 24.9805L331.795 24.7041C331.795 23.6241 331.146 23.2637 330.354 23.2637C323.73 23.2645 301.843 53.7205 298.675 59.9844C298.27 57.4194 296.599 56.3727 294.553 56.252L294.139 56.2402C291.062 56.2403 288.132 57.8775 285.978 60.0273C285.609 60.1775 285.2 60.3738 284.76 60.6113C285.044 60.2773 285.344 59.9508 285.66 59.6377C287.871 57.446 290.906 55.7403 294.139 55.7402C295.325 55.7402 296.467 56.0077 297.38 56.6846C298.016 57.1564 298.513 57.808 298.838 58.6504C301.082 54.7714 306.789 46.536 312.828 38.9629C316.182 34.7576 319.652 30.7368 322.707 27.7627C324.233 26.2766 325.667 25.0399 326.939 24.1719C328.19 23.3185 329.365 22.7638 330.354 22.7637C330.816 22.7637 331.312 22.8677 331.698 23.2002C332.098 23.5447 332.295 24.0609 332.295 24.7041C332.295 25.5097 332.001 26.5757 331.444 27.8477C330.882 29.1315 330.032 30.6687 328.874 32.4307C326.558 35.9553 322.99 40.4078 317.97 45.5723L317.969 45.5732C312.097 51.5877 306.123 57.6338 299.926 62.2607C297.173 67.2218 296.295 70.561 296.295 72.584C296.295 73.6738 296.535 74.2916 296.83 74.6328C297.114 74.9606 297.514 75.1083 298.026 75.1084V75.6084L297.8 75.5996C296.755 75.5179 295.914 74.8433 295.807 72.998L295.795 72.584ZM323.66 59.6309C323.459 59.7927 323.266 59.9596 323.082 60.1318C316.898 63.145 303.375 75.6084 298.026 75.6084V75.1084C298.628 75.1084 299.391 74.924 300.299 74.5635C301.201 74.2053 302.215 73.6861 303.31 73.0469C305.5 71.768 307.976 70.0325 310.477 68.2109C312.967 66.3967 315.492 64.489 317.745 62.8975C319.991 61.3109 322.024 59.9956 323.542 59.377L323.558 59.3711L323.572 59.3652L323.66 59.6309ZM297.095 61.3516C297.095 60.0614 296.773 59.2887 296.336 58.8379C295.901 58.3893 295.276 58.1797 294.499 58.1797C292.716 58.1797 290.457 59.2576 289.012 60.6338L289.001 60.6436C287.974 61.5676 286.999 62.9038 286.28 64.2275C285.551 65.5702 285.135 66.8102 285.135 67.5439C285.135 67.7127 285.164 67.8213 285.193 67.877C285.206 67.9014 285.216 67.9097 285.218 67.9111C285.218 67.9114 285.221 67.9126 285.229 67.915L285.744 67.9785C286.233 67.9729 286.892 67.829 287.702 67.5312C288.521 67.23 289.464 66.784 290.492 66.208C292.497 65.0847 294.797 63.4813 297.095 61.5488V61.3516ZM323.946 59.2676C324.005 59.2676 324.063 59.2735 324.118 59.2832C323.961 59.3958 323.808 59.5118 323.66 59.6309L323.572 59.3652L323.789 59.2939L323.865 59.2676H323.946ZM330.503 24.7041C330.503 24.6071 330.498 24.5368 330.49 24.4854L330.489 24.4844C330.424 24.4876 330.273 24.5235 330.018 24.6523C329.762 24.781 329.449 24.9777 329.083 25.2432C328.353 25.7735 327.453 26.5488 326.454 27.5117C319.799 34.0413 308.793 48.8009 303.158 56.9951C307.985 52.8463 315.97 45.2334 322.057 38.2012C324.562 35.2297 326.688 32.3174 328.184 29.8955C328.932 28.6834 329.518 27.6013 329.915 26.7021C330.32 25.786 330.503 25.1156 330.503 24.7041ZM297.595 61.7842C292.843 65.8161 288.019 68.4804 285.715 68.4805L285.139 68.4082C284.824 68.3452 284.674 68.0615 284.642 67.7021L284.635 67.5439C284.635 65.87 286.391 62.4392 288.465 60.459L288.667 60.2725C290.179 58.8325 292.555 57.6797 294.499 57.6797L294.818 57.6914C296.392 57.8043 297.595 58.7869 297.595 61.3516V61.7842ZM330.992 24.9102C330.781 27.1518 327.317 32.7389 322.435 38.5283C315.019 47.0961 304.795 56.5276 300.835 59.5518C305.443 52.4957 318.546 34.5684 326.106 27.1523C328.122 25.2083 329.779 23.9844 330.499 23.9844L330.645 23.9971C330.948 24.0581 331.003 24.3261 331.003 24.7041L330.992 24.9102Z" fill="#8B9B68"/>
<path d="M284.843 61.2949C284.572 61.634 284.322 61.9806 284.093 62.3291C283.545 62.6736 282.954 63.0641 282.329 63.4902C280.546 64.706 278.569 66.145 276.514 67.5684C274.477 68.979 272.396 70.3492 270.483 71.3682C268.59 72.377 266.785 73.084 265.32 73.084C264.858 73.0839 264.253 73.01 263.779 72.7305V72.7314C263.776 72.7296 263.773 72.7275 263.77 72.7256L263.768 72.7246V72.7236C262.426 71.9624 261.869 70.6185 261.869 69.1279C261.869 67.037 262.88 64.4469 264.139 62.0596C264.475 61.8012 264.8 61.5534 265.113 61.3203C263.62 63.9565 262.369 66.887 262.369 69.1279L262.375 69.3818C262.435 70.6379 262.945 71.6884 264.024 72.2959C264.384 72.5118 264.888 72.5839 265.32 72.584C270.081 72.584 279.67 64.252 284.843 61.2949ZM263.593 69.1279C263.593 65.9553 267.327 60.1881 270.048 56.9287L270.577 56.3115L270.721 56.0244C270.721 55.6193 270.277 55.1504 269.807 55.0938L269.713 55.0879C269.569 55.0879 269.424 55.1597 269.28 55.3037C268.464 56.2109 267.116 58.0083 265.825 60.1172C265.528 60.3 265.208 60.5095 264.869 60.7422C266.32 58.2371 267.955 56.0303 268.909 54.9697L268.927 54.9502C269.125 54.7517 269.39 54.5879 269.713 54.5879C270.126 54.5879 270.496 54.789 270.751 55.0322C271.001 55.2705 271.221 55.627 271.221 56.0244V56.1416L271.168 56.248L270.995 56.5938L270.951 56.6436C269.605 58.167 267.878 60.4988 266.49 62.8652C265.797 64.0477 265.193 65.2296 264.765 66.3164C264.333 67.4112 264.093 68.3737 264.093 69.1279C264.093 70.013 264.398 70.5194 264.896 70.7686C265.096 70.8681 265.373 70.9316 265.753 70.9316V71.4316L265.442 71.4189C265.195 71.3965 264.975 71.3454 264.784 71.2666L264.673 71.2158C263.998 70.8783 263.639 70.2245 263.597 69.3135L263.593 69.1279ZM286.633 59.3398C286.659 59.3398 286.685 59.3412 286.713 59.3428C286.459 59.5643 286.213 59.7921 285.978 60.0273C281.331 61.9194 270.474 71.4314 265.753 71.4316V70.9316C266.824 70.9316 268.334 70.3676 270.132 69.4131C271.908 68.4701 273.886 67.1911 275.868 65.8516C277.839 64.52 279.83 63.1179 281.587 61.9629C283.338 60.8121 284.924 59.8595 286.105 59.4404L286.14 59.4287L286.175 59.4219L286.535 59.3496L286.583 59.3398H286.633ZM271.157 52.4238C271.157 52.008 271.348 51.5521 271.528 51.2822L271.557 51.2412L271.591 51.2061C271.763 51.0336 271.941 50.8993 272.144 50.8125C272.35 50.724 272.548 50.7002 272.736 50.7002C273.316 50.7002 273.8 50.9806 274.104 51.3574C274.344 51.5984 274.677 52.0072 274.677 52.5684C274.677 52.9013 274.564 53.212 274.377 53.4932C274.229 53.7506 273.998 53.8973 273.776 53.9756C273.547 54.0565 273.303 54.0762 273.097 54.0762C272.697 54.0762 272.22 54.0003 271.884 53.7764L271.872 53.7686L271.86 53.7598C271.474 53.4696 271.157 52.972 271.157 52.4238ZM271.667 52.5586C271.712 52.8716 271.909 53.1713 272.161 53.3604C272.323 53.4682 272.566 53.5355 272.829 53.5625L273.097 53.5762C273.457 53.5762 273.817 53.5038 273.961 53.2158C274.069 53.0541 274.136 52.8922 274.163 52.7305L274.177 52.5684C274.177 52.2085 273.961 51.9201 273.745 51.7041C273.556 51.4522 273.257 51.2553 272.896 51.21L272.736 51.2002C272.449 51.2003 272.232 51.2717 271.944 51.5596C271.8 51.7755 271.657 52.1359 271.657 52.4238L271.667 52.5586Z" fill="#8B9B68"/>
<path d="M265.113 61.3203C264.914 61.6721 264.718 62.0288 264.53 62.3887C263.829 62.926 263.077 63.5164 262.287 64.1396C260.531 65.5248 258.595 67.0634 256.647 68.4961C254.701 69.9278 252.728 71.2644 250.894 72.2451C249.074 73.2182 247.326 73.876 245.848 73.876H245.688C244.454 73.8368 243.457 73.4563 242.669 72.8291C241.887 72.2067 241.337 71.3632 240.95 70.4365C240.181 68.5952 240.021 66.3341 240.021 64.5195V63.749C235.406 66.6548 230.492 72.0146 228.273 74.2334L228.201 74.3057L228.105 74.3447L227.746 74.4883L227.656 74.5244H227.561C226.959 74.5244 226.484 73.9737 226.484 73.376V73.0693L226.516 72.9844C227.158 71.2716 227.678 69.5681 229.217 67.0029L230.14 65.4492C230.729 64.4693 231.31 63.5254 231.851 62.6621C232.219 62.4001 232.581 62.137 232.938 61.876C231.967 63.4021 230.792 65.3053 229.648 67.2559C228.136 69.7759 227.632 71.4322 226.984 73.1602V73.376L226.997 73.5068C227.048 73.7611 227.24 73.9594 227.453 74.0107L227.561 74.0244L227.92 73.8799C230.224 71.5759 235.625 65.6723 240.521 62.8643V64.5195L240.528 65.2109C240.616 68.7394 241.452 73.241 245.704 73.376H245.848C250.765 73.376 259.742 65.3166 265.113 61.3203ZM266.312 59.3398C266.149 59.5932 265.987 59.8529 265.825 60.1172C261.192 62.9652 251.212 72.3682 246.136 72.3682L245.892 72.3525C243.574 72.1148 242.656 69.4137 242.547 66.5537L242.536 65.96C242.536 64.889 242.646 63.8179 242.818 62.8916L242.896 62.5039L242.968 62C242.968 61.622 242.806 61.4874 242.634 61.3828L242.464 61.2803C242.302 61.1722 242.14 61.1454 241.947 61.1387L241.744 61.1357C238.36 61.1357 230.152 70.1362 228.208 72.3682C230.368 68.0482 233.608 63.2962 236.488 59.4082C236.542 59.3542 236.596 59.2598 236.62 59.1855L236.632 59.1201C236.632 58.7825 236.189 58.3815 235.777 58.333L235.696 58.3281C235.48 58.3281 235.336 58.4002 235.12 58.6162L235.015 58.75C234.806 59.0278 234.415 59.6005 233.903 60.3799C233.537 60.6488 233.162 60.921 232.778 61.1953C233.259 60.4457 233.682 59.8027 234.013 59.3115C234.349 58.8123 234.609 58.4438 234.74 58.291L234.753 58.2764L234.767 58.2627C234.89 58.139 235.025 58.0233 235.185 57.9434C235.356 57.8577 235.526 57.8281 235.696 57.8281C236.065 57.8282 236.41 58.0035 236.65 58.208C236.879 58.4024 237.132 58.7272 237.132 59.1201C237.132 59.2773 237.069 59.418 237.034 59.4873C236.998 59.5588 236.946 59.6428 236.88 59.7188C234.802 62.5241 232.546 65.7696 230.647 68.9688C231.676 67.8927 232.867 66.6923 234.096 65.5488C235.463 64.2771 236.887 63.0635 238.191 62.165C238.844 61.7159 239.476 61.3381 240.064 61.0713C240.646 60.8074 241.22 60.6357 241.744 60.6357C242.01 60.6357 242.381 60.6238 242.741 60.8643C242.787 60.8948 242.803 60.8999 242.894 60.9551C242.963 60.9976 243.059 61.0602 243.15 61.1514C243.358 61.3586 243.468 61.6373 243.468 62V62.0352L243.463 62.0703L243.391 62.5752L243.389 62.5918L243.385 62.6084C243.176 63.5831 243.036 64.7723 243.036 65.96C243.036 67.507 243.267 69.0082 243.789 70.1113C244.303 71.1958 245.062 71.836 246.145 71.8672C247.324 71.8645 248.869 71.2905 250.646 70.3164C252.409 69.3493 254.332 68.028 256.243 66.6191C258.156 65.2096 260.035 63.7289 261.729 62.4336C263.408 61.1484 264.918 60.036 266.053 59.4033L266.166 59.3398H266.312Z" fill="#8B9B68"/>
<path d="M232.938 61.876C232.71 62.235 232.471 62.6152 232.223 63.0117C229.376 65.0416 226.236 67.0819 223.174 68.7568C219.058 71.0085 214.999 72.6523 211.98 72.6523C211.127 72.6523 210.336 72.4963 209.617 72.1768V72.1758C207.854 71.4164 207.232 69.736 207.232 67.9756C207.233 66.2119 207.843 64.4009 208.662 62.9111L208.665 62.9062C208.943 62.4135 209.227 61.9516 209.516 61.5195C209.825 61.3937 210.119 61.2666 210.393 61.1406C209.952 61.7407 209.519 62.4091 209.101 63.1523C208.309 64.5922 207.733 66.3198 207.732 67.9756C207.732 69.6315 208.309 71.0717 209.82 71.7197C210.387 71.9717 211.009 72.114 211.687 72.1455L211.98 72.1523C217.246 72.1523 226.118 66.855 232.938 61.876ZM209.532 67.9756C209.532 66.8957 209.892 65.4557 210.828 63.584C216.732 62.432 219.9 59.4797 219.9 57.6797C219.9 57.0049 219.141 56.5199 217.979 56.4619L217.74 56.4561C215.985 56.4562 213.428 57.4362 211.015 60.3418C210.717 60.4856 210.39 60.6325 210.038 60.7783C212.686 57.2043 215.649 55.9562 217.74 55.9561C218.445 55.9561 219.079 56.0922 219.555 56.3643C220.037 56.6398 220.4 57.0881 220.4 57.6797C220.4 58.2705 220.144 58.8931 219.721 59.4893C219.293 60.0914 218.67 60.7027 217.872 61.2803C216.318 62.4044 214.064 63.4274 211.172 64.0234C210.336 65.7478 210.032 67.0395 210.032 67.9756C210.032 68.878 210.303 69.4526 210.692 69.8145C211.089 70.183 211.675 70.3932 212.422 70.4277H212.772V70.9277H212.412C210.756 70.8556 209.532 69.9914 209.532 67.9756ZM234.559 59.3994C234.374 59.6707 234.152 60.0005 233.903 60.3799C227.43 65.1355 218.025 70.9277 212.772 70.9277V70.4277C214.038 70.4277 215.6 70.0671 217.354 69.4268C219.103 68.7887 221.012 67.8843 222.965 66.8252C226.871 64.7069 230.918 61.9854 234.146 59.583L234.198 59.5439L234.259 59.5195L234.559 59.3994ZM218.232 57.4707C218.53 57.5003 218.767 57.626 218.893 57.752C219.036 57.8958 219.108 58.0397 219.108 58.1836C219.108 59.5516 214.788 62.2159 211.404 62.5039C213.852 58.8319 216.661 57.4639 218.101 57.4639L218.232 57.4707ZM218.101 57.9639C217.516 57.9639 216.551 58.2523 215.41 59.0215C214.496 59.638 213.489 60.5497 212.507 61.8232C213.798 61.5338 215.152 60.9681 216.274 60.3164C217.002 59.8936 217.612 59.4474 218.031 59.0381C218.241 58.8333 218.393 58.6479 218.489 58.4902C218.564 58.3685 218.593 58.2818 218.604 58.2275L218.607 58.1914C218.601 58.1782 218.583 58.1489 218.539 58.1055C218.495 58.0614 218.337 57.9639 218.101 57.9639Z" fill="#8B9B68"/>
<path d="M195.204 60.4883C196.757 62.3784 199.069 63.066 201.429 63.1445L201.9 63.1523C205.027 63.1523 208.282 62.1108 210.393 61.1406C210.209 61.3905 210.027 61.6517 209.847 61.9258C207.704 62.813 204.756 63.6523 201.9 63.6523C199.512 63.6523 197.031 63.0859 195.255 61.2891C194.712 62.0209 193.903 62.952 192.955 63.9551C191.75 65.2307 190.298 66.6512 188.836 67.9775C187.375 69.3028 185.894 70.5426 184.633 71.4541C184.003 71.9091 183.418 72.2898 182.91 72.5586C182.424 72.8159 181.936 73.0117 181.524 73.0117H181.443L181.366 72.9863L181.15 72.9141C180.804 72.7984 180.662 72.4847 180.604 72.2842C180.539 72.0643 180.521 71.8113 180.521 71.5762C180.521 70.7102 180.795 69.4004 181.185 67.9619C181.579 66.5068 182.108 64.8661 182.646 63.3125C182.849 62.7233 183.055 62.1458 183.255 61.5947C183.506 61.4049 183.751 61.2228 183.987 61.0498C182.685 64.5612 181.021 69.5584 181.021 71.5762L181.024 71.7344C181.041 72.0936 181.12 72.3774 181.309 72.4404L181.524 72.5117C183.756 72.5117 193.331 63.4407 195.204 60.4883ZM197.005 56.7441C197.005 55.8801 196.572 55.5195 195.996 55.5195C195.276 55.5199 194.269 56.3843 194.269 57.9678C194.269 58.4718 194.341 58.976 194.557 59.624C191.605 63.872 186.564 68.3358 182.316 71.2158C183.684 66.6799 185.269 62.4317 187.213 57.9678C187.249 57.8959 187.266 57.8239 187.275 57.752L187.284 57.5361C187.284 57.0952 187.009 56.8744 186.603 56.8262L186.421 56.8164C186.061 56.8164 185.7 56.9603 185.484 57.3203C185.375 57.4963 184.919 58.5887 184.339 60.1133C184.115 60.2505 183.88 60.4034 183.633 60.5693C183.823 60.0602 184.004 59.5865 184.169 59.1631C184.388 58.6026 184.58 58.1284 184.729 57.7744C184.865 57.4495 184.984 57.1811 185.056 57.0625C185.381 56.5197 185.927 56.3164 186.421 56.3164C186.733 56.3165 187.073 56.3815 187.346 56.5898C187.64 56.8148 187.784 57.1519 187.784 57.5361C187.784 57.6636 187.79 57.9112 187.67 58.167L187.671 58.168C185.935 62.1539 184.489 65.9648 183.228 69.9629C187.091 67.1701 191.357 63.2693 194.005 59.5361C193.832 58.9515 193.769 58.4608 193.769 57.9678C193.769 56.2016 194.915 55.0199 195.996 55.0195C196.39 55.0195 196.791 55.1461 197.087 55.4717C197.377 55.7911 197.505 56.2343 197.505 56.7441C197.505 57.5511 197.134 58.5614 196.32 59.8164C197.639 61.4337 199.718 62.0039 202.116 62.0039V62.5039C199.524 62.5038 197.149 61.8557 195.709 59.8398C196.586 58.5578 196.957 57.5917 197 56.8828L197.005 56.7441ZM211.902 59.3623C211.605 59.6612 211.309 59.9873 211.015 60.3418C208.921 61.3524 205.382 62.5039 202.116 62.5039V62.0039C205.755 62.0039 209.774 60.5244 211.587 59.4785L211.631 59.4541L211.679 59.4375L211.895 59.3652L211.902 59.3623ZM195.925 56.2402C196.069 56.2403 196.141 56.3121 196.141 56.5996L196.13 56.752C196.079 57.1467 195.834 57.824 195.204 58.832C195.096 58.5622 195.069 58.2922 195.062 58.0527L195.061 57.8242C195.061 56.8162 195.565 56.2402 195.925 56.2402Z" fill="#8B9B68"/>
<path d="M183.987 61.0498C183.885 61.3261 183.781 61.6118 183.675 61.9043C182.799 62.562 181.83 63.3231 180.795 64.1396C179.039 65.5248 177.103 67.0634 175.155 68.4961C173.209 69.9278 171.236 71.2644 169.401 72.2451C167.581 73.2182 165.834 73.876 164.355 73.876H164.196C162.962 73.8368 161.965 73.4563 161.177 72.8291C160.394 72.2067 159.845 71.3632 159.458 70.4365C158.689 68.5952 158.528 66.3341 158.528 64.5195V63.749C153.914 66.6548 149 72.0146 146.781 74.2334L146.709 74.3057L146.613 74.3447L146.254 74.4883L146.164 74.5244H146.068C145.467 74.5244 144.992 73.9737 144.992 73.376V73.0693L145.023 72.9844C145.666 71.2716 146.186 69.5681 147.725 67.0029L148.647 65.4492C149.237 64.4693 149.818 63.5254 150.358 62.6621C150.726 62.4001 151.089 62.137 151.446 61.876C150.475 63.4021 149.3 65.3053 148.156 67.2559C146.644 69.7759 146.14 71.4322 145.492 73.1602V73.376L145.505 73.5068C145.555 73.7611 145.748 73.9594 145.961 74.0107L146.068 74.0244L146.428 73.8799C148.732 71.5759 154.132 65.6723 159.028 62.8643V64.5195L159.036 65.2109C159.124 68.7394 159.959 73.241 164.212 73.376H164.355C169.386 73.376 178.666 64.9398 183.987 61.0498ZM184.339 60.1133C179.708 62.9569 169.722 72.3682 164.644 72.3682L164.399 72.3525C162.082 72.1148 161.164 69.4137 161.055 66.5537L161.044 65.96C161.044 64.889 161.154 63.8179 161.326 62.8916L161.404 62.5039L161.476 62C161.476 61.622 161.314 61.4874 161.142 61.3828L160.972 61.2803C160.81 61.1722 160.648 61.1454 160.455 61.1387L160.252 61.1357C156.868 61.1357 148.66 70.1362 146.716 72.3682C148.876 68.0482 152.116 63.2962 154.996 59.4082C155.05 59.3542 155.104 59.2598 155.128 59.1855L155.14 59.1201C155.14 58.7825 154.697 58.3815 154.285 58.333L154.204 58.3281C153.988 58.3281 153.844 58.4002 153.628 58.6162L153.522 58.75C153.314 59.0278 152.922 59.6005 152.411 60.3799C152.045 60.6488 151.67 60.921 151.286 61.1953C151.767 60.4457 152.189 59.8027 152.521 59.3115C152.857 58.8123 153.117 58.4438 153.248 58.291L153.261 58.2764L153.274 58.2627C153.398 58.139 153.532 58.0233 153.692 57.9434C153.864 57.8577 154.033 57.8281 154.204 57.8281C154.573 57.8282 154.918 58.0035 155.158 58.208C155.387 58.4024 155.64 58.7272 155.64 59.1201C155.64 59.2773 155.577 59.418 155.542 59.4873C155.506 59.5588 155.454 59.6428 155.388 59.7188C153.31 62.5241 151.054 65.7696 149.155 68.9688C150.184 67.8927 151.375 66.6923 152.604 65.5488C153.97 64.2771 155.395 63.0635 156.699 62.165C157.351 61.7159 157.984 61.3381 158.572 61.0713C159.154 60.8074 159.727 60.6357 160.252 60.6357C160.518 60.6357 160.888 60.6238 161.249 60.8643C161.295 60.8948 161.311 60.8999 161.401 60.9551C161.471 60.9976 161.567 61.0602 161.658 61.1514C161.865 61.3586 161.976 61.6373 161.976 62V62.0352L161.971 62.0703L161.898 62.5752L161.896 62.5918L161.893 62.6084C161.684 63.5831 161.544 64.7723 161.544 65.96C161.544 67.507 161.774 69.0082 162.297 70.1113C162.811 71.1958 163.569 71.836 164.652 71.8672C165.832 71.8645 167.377 71.2905 169.153 70.3164C170.917 69.3493 172.84 68.028 174.751 66.6191C176.663 65.2096 178.543 63.7289 180.236 62.4336C181.916 61.1484 183.425 60.036 184.561 59.4033L184.626 59.3662C184.535 59.6007 184.439 59.8507 184.339 60.1133Z" fill="#8B9B68"/>
<path d="M151.446 61.876C151.218 62.235 150.978 62.6152 150.73 63.0117C147.884 65.0416 144.743 67.0819 141.682 68.7568C137.566 71.0085 133.507 72.6523 130.488 72.6523C129.635 72.6523 128.844 72.4963 128.125 72.1768V72.1758C126.362 71.4164 125.74 69.736 125.74 67.9756C125.74 66.2119 126.351 64.4009 127.17 62.9111L127.173 62.9062C127.408 62.4881 127.65 62.093 127.894 61.7188C128.25 61.4995 128.591 61.3001 128.912 61.124C128.468 61.7283 128.031 62.4024 127.608 63.1523C126.817 64.5922 126.24 66.3198 126.24 67.9756C126.24 69.6315 126.816 71.0717 128.328 71.7197C128.895 71.9717 129.517 72.114 130.194 72.1455L130.488 72.1523C135.753 72.1523 144.626 66.855 151.446 61.876ZM128.04 67.9756C128.04 66.8957 128.4 65.4557 129.336 63.584C135.24 62.432 138.408 59.4797 138.408 57.6797C138.408 57.0049 137.649 56.5199 136.486 56.4619L136.248 56.4561C134.563 56.4562 132.141 57.3586 129.815 59.999C129.496 60.1252 129.146 60.2872 128.771 60.4824C131.36 57.1354 134.216 55.9562 136.248 55.9561C136.953 55.9561 137.586 56.0922 138.062 56.3643C138.545 56.6398 138.908 57.0881 138.908 57.6797C138.908 58.2705 138.652 58.8931 138.229 59.4893C137.801 60.0914 137.178 60.7027 136.38 61.2803C134.826 62.4044 132.572 63.4274 129.68 64.0234C128.844 65.7478 128.54 67.0395 128.54 67.9756C128.54 68.878 128.811 69.4526 129.2 69.8145C129.597 70.183 130.183 70.3932 130.93 70.4277H131.28V70.9277H130.92C129.264 70.8556 128.04 69.9914 128.04 67.9756ZM153.066 59.3994C152.882 59.6707 152.66 60.0005 152.411 60.3799C145.938 65.1355 136.533 70.9277 131.28 70.9277V70.4277C132.546 70.4277 134.108 70.0671 135.862 69.4268C137.611 68.7887 139.52 67.8843 141.473 66.8252C145.379 64.7069 149.426 61.9854 152.653 59.583L152.706 59.5439L152.767 59.5195L153.066 59.3994ZM136.74 57.4707C137.038 57.5003 137.274 57.626 137.4 57.752C137.544 57.8958 137.616 58.0397 137.616 58.1836C137.616 59.5516 133.296 62.2159 129.912 62.5039C132.36 58.8319 135.168 57.4639 136.608 57.4639L136.74 57.4707ZM136.608 57.9639C136.024 57.9639 135.059 58.2523 133.918 59.0215C133.004 59.638 131.997 60.5497 131.015 61.8232C132.306 61.5338 133.66 60.9681 134.782 60.3164C135.51 59.8936 136.119 59.4474 136.539 59.0381C136.749 58.8333 136.901 58.6479 136.997 58.4902C137.071 58.3685 137.101 58.2818 137.111 58.2275L137.115 58.1914C137.109 58.1782 137.09 58.1489 137.047 58.1055C137.003 58.0614 136.845 57.9639 136.608 57.9639Z" fill="#8B9B68"/>
<path d="M107.358 69.1279C107.358 65.9553 111.092 60.1881 113.813 56.9287L114.343 56.3115L114.486 56.0244C114.486 55.6193 114.043 55.1504 113.572 55.0938L113.479 55.0879C113.335 55.0879 113.19 55.1597 113.046 55.3037C111.102 57.4638 106.135 64.664 106.135 69.1279L106.141 69.3818C106.2 70.6379 106.71 71.6884 107.79 72.2959C108.15 72.5118 108.654 72.5839 109.086 72.584C113.941 72.584 123.819 63.9159 128.912 61.124C128.689 61.4272 128.468 61.7478 128.25 62.0869C127.595 62.4864 126.872 62.9607 126.095 63.4902C124.311 64.706 122.335 66.145 120.279 67.5684C118.242 68.979 116.161 70.3492 114.249 71.3682C112.356 72.377 110.551 73.084 109.086 73.084C108.624 73.0839 108.018 73.01 107.545 72.7305V72.7314C107.542 72.7296 107.538 72.7275 107.535 72.7256L107.533 72.7246V72.7236C106.191 71.9624 105.635 70.6185 105.635 69.1279C105.635 66.7549 106.938 63.7395 108.426 61.1064C109.925 58.4526 111.674 56.0814 112.675 54.9697L112.692 54.9502C112.891 54.7517 113.155 54.5879 113.479 54.5879C113.891 54.5879 114.261 54.789 114.517 55.0322C114.767 55.2705 114.986 55.627 114.986 56.0244V56.1416L114.934 56.248L114.761 56.5938L114.717 56.6436C113.371 58.167 111.644 60.4988 110.256 62.8652C109.562 64.0477 108.959 65.2296 108.53 66.3164C108.099 67.4112 107.858 68.3737 107.858 69.1279C107.858 70.013 108.164 70.5194 108.662 70.7686C108.861 70.8681 109.139 70.9316 109.519 70.9316V71.4316L109.208 71.4189C108.96 71.3965 108.741 71.3454 108.55 71.2666L108.438 71.2158C107.763 70.8783 107.404 70.2245 107.362 69.3135L107.358 69.1279ZM130.398 59.3398C130.409 59.3398 130.42 59.3406 130.431 59.3408C130.225 59.5469 130.02 59.7665 129.815 59.999C125.21 61.8207 114.264 71.4314 109.519 71.4316V70.9316C110.59 70.9316 112.1 70.3676 113.897 69.4131C115.674 68.4701 117.651 67.1911 119.634 65.8516C121.604 64.52 123.595 63.1179 125.353 61.9629C127.103 60.8121 128.69 59.8595 129.871 59.4404L129.905 59.4287L129.94 59.4219L130.301 59.3496L130.349 59.3398H130.398ZM114.923 52.4238C114.923 52.008 115.114 51.5521 115.294 51.2822L115.322 51.2412L115.356 51.2061C115.529 51.0336 115.707 50.8993 115.909 50.8125C116.116 50.724 116.314 50.7002 116.502 50.7002C117.082 50.7002 117.566 50.9806 117.87 51.3574C118.11 51.5984 118.442 52.0072 118.442 52.5684C118.442 52.9013 118.33 53.212 118.143 53.4932C117.994 53.7506 117.764 53.8973 117.542 53.9756C117.313 54.0565 117.068 54.0762 116.862 54.0762C116.463 54.0762 115.986 54.0003 115.649 53.7764L115.638 53.7686L115.626 53.7598C115.239 53.4696 114.923 52.972 114.923 52.4238ZM115.433 52.5586C115.478 52.8716 115.675 53.1713 115.927 53.3604C116.089 53.4682 116.332 53.5355 116.595 53.5625L116.862 53.5762C117.222 53.5762 117.583 53.5038 117.727 53.2158C117.834 53.0541 117.902 52.8922 117.929 52.7305L117.942 52.5684C117.942 52.2085 117.727 51.9201 117.511 51.7041C117.322 51.4522 117.022 51.2553 116.661 51.21L116.502 51.2002C116.214 51.2003 115.998 51.2717 115.71 51.5596C115.566 51.7755 115.423 52.1359 115.423 52.4238L115.433 52.5586Z" fill="#8B9B68"/>
<path d="M96.7871 61.4961C96.7871 55.1112 93.2309 50.1292 88.9307 46.7227C86.7826 45.021 84.4609 43.7234 82.335 42.8525C80.2108 41.9824 78.3157 41.552 77.002 41.5479L76.4688 41.5967C64.85 58.5501 50.8928 77.4126 38.1563 89.0283C41.146 94.2607 47.6458 96.9238 55.4551 96.9238V97.4238L54.7022 97.416C46.9669 97.2459 40.4559 94.4379 37.5264 88.9277C50.3423 77.3358 64.4545 58.2561 76.1905 41.1201L76.9825 41.0479C82.5985 41.0479 97.2871 48.3201 97.2871 61.4961L97.2823 61.877C97.2398 63.7916 96.8772 65.8881 96.1348 68.0479C89.4388 87.6317 70.3591 97.4237 55.4551 97.4238V96.9238C70.1793 96.9237 89.0457 87.2376 95.6621 67.8867V67.8857C96.4372 65.6309 96.7871 63.4535 96.7871 61.4961ZM79.2871 33.2725L74.3965 40.4121C62.7395 57.3582 49.4697 75.8962 36.8067 87.4883C35.7941 85.1932 35.2878 82.708 35.2286 80.2705L35.2227 79.7842C35.2227 70.1363 41.9906 60.1998 51.5664 54.7998C51.7824 54.6558 51.9268 54.4399 51.9268 54.2959C51.9268 53.9359 51.7106 53.6484 51.3506 53.6484L51.0625 53.7197C40.9827 59.4077 34.0714 69.9199 34.0713 79.9277L34.0772 80.4668C34.1449 83.1582 34.7236 85.7827 35.8711 88.2803C28.4551 94.8323 21.3267 98.9355 14.8467 98.9355C14.4149 98.9356 14.1994 99.1519 14.1993 99.2959C14.1993 99.4849 14.3641 99.6189 14.6465 99.6494L14.7745 99.6562C21.4703 99.6562 29.0307 96.2722 36.5186 89.6484C39.7271 95.4374 46.7872 98.4556 55.1455 98.6387L55.959 98.6484C71.871 98.6484 91.9589 88.6397 98.7989 68.5518C99.4918 66.6618 99.7993 64.772 99.8653 62.9785L99.8789 62.2158C99.8788 50.768 88.5751 42.6319 79.2871 40.2559C86.8473 39.9678 104.271 38.5278 108.447 26.792C109.023 25.208 109.311 23.6958 109.311 22.2559C109.311 16.955 105.595 13.0735 100.911 12.8359L100.455 12.8242C98.6551 12.8242 96.6384 13.4003 94.6944 14.6963C97.8442 10.4125 99.0654 8.93954 99.5625 8.44531L99.7344 8.28809C99.8784 8.07208 106.647 4.75961 106.647 2.59961C106.646 2.43784 106.566 2.27602 106.465 2.11426L106.358 1.95215C105.998 1.52024 105.566 1.37598 105.063 1.37598C102.831 1.37634 99.4469 5.19186 96.9991 8.43164C92.1751 10.5916 84.9746 12.8242 74.1026 14.4082C51.5665 17.7922 7.79126 22.6881 1.45511 39.752C1.38318 39.8958 1.38285 40.0397 1.38285 40.1836C1.38285 40.3273 1.45455 40.4711 1.5264 40.4717C1.6704 40.4717 1.88702 40.3278 1.95902 39.9678C7.71931 24.8481 46.2384 19.5918 68.4864 16.4238C79.6463 14.8398 87.5669 13.5444 95.6309 10.2324L79.2871 33.2725ZM107.299 21.6797C107.299 17.4418 104.379 14.1162 100.383 14.1162C98.5134 14.1162 96.2661 14.846 93.9825 16.6982L79.1387 37.8242C82.2167 37.654 87.5327 37.3837 92.7715 35.9492C98.6682 34.3345 104.323 31.2833 106.612 25.3867H106.613C107.093 24.1528 107.299 22.9183 107.299 21.6797ZM105.279 2.52832H105.351C105.423 2.60031 105.495 2.67244 105.495 2.81641L105.485 2.90625C105.295 3.87189 102.215 5.72094 100.959 6.48828C102.849 3.92354 104.485 2.68669 105.157 2.54199L105.279 2.52832ZM104.357 3.56055C104.241 3.64947 104.116 3.74869 103.984 3.86133C103.948 3.89248 103.911 3.92512 103.874 3.95801C104.05 3.82136 104.213 3.68898 104.357 3.56055ZM107.788 22.166C107.74 23.3 107.52 24.4344 107.079 25.5684L106.846 26.1328C101.747 37.8146 83.5922 38.0294 78.1348 38.3838L93.6153 16.3516C95.9911 14.4078 98.367 13.6162 100.383 13.6162L100.784 13.626C104.893 13.8413 107.799 17.3553 107.799 21.6797L107.788 22.166ZM107.147 2.59961C107.147 2.9977 106.993 3.37864 106.78 3.71973C106.566 4.06405 106.271 4.40352 105.936 4.72852C105.265 5.3785 104.384 6.02201 103.52 6.59082C102.651 7.16194 101.781 7.66982 101.124 8.0459C100.792 8.23607 100.522 8.38826 100.324 8.50293C100.226 8.55994 100.154 8.60309 100.106 8.63379C100.099 8.63763 100.093 8.64059 100.089 8.64355L100.047 8.67871C99.9168 8.78291 99.5901 9.11725 98.8204 10.0771C98.2694 10.7642 97.5032 11.7552 96.4366 13.1836C97.8086 12.5981 99.178 12.3242 100.455 12.3242C105.648 12.3244 109.811 16.5288 109.811 22.2559C109.811 23.7631 109.51 25.3333 108.917 26.9629C106.75 33.0475 101.167 36.4121 95.2881 38.293C90.6848 39.7657 85.8301 40.3515 82.1192 40.6064C86.0568 42.024 90.1192 44.3664 93.4092 47.4707C97.4644 51.2971 100.379 56.3161 100.379 62.2158C100.379 64.2792 100.084 66.4997 99.2686 68.7246C92.3422 89.0478 72.0362 99.1484 55.959 99.1484C47.4144 99.1484 39.9629 96.2681 36.3907 90.4219C28.9976 96.8302 21.4969 100.156 14.7745 100.156C14.5369 100.156 14.2887 100.109 14.083 99.9785C13.8882 99.8544 13.7401 99.6559 13.7061 99.4062L13.6993 99.2959L13.708 99.1855C13.7494 98.9363 13.9247 98.7511 14.083 98.6455C14.286 98.5102 14.5487 98.4356 14.8467 98.4355C21.0546 98.4355 27.9655 94.5395 35.2637 88.1455C34.1136 85.515 33.5713 82.7529 33.5713 79.9277C33.5714 69.7035 40.6144 59.0416 50.8174 53.2842L50.876 53.251L50.9414 53.2354L51.2295 53.1631L51.2891 53.1484H51.3506C51.6754 53.1484 51.96 53.283 52.1553 53.5137C52.3436 53.7362 52.4268 54.0194 52.4268 54.2959C52.4268 54.5143 52.3277 54.7058 52.2373 54.835C52.1381 54.9767 52.0025 55.11 51.8438 55.2158L51.8291 55.2266L51.8125 55.2354C42.3543 60.569 35.7227 70.3578 35.7227 79.7842C35.7227 82.0837 36.1312 84.4371 36.9942 86.6338C51.2579 73.3782 66.2732 51.4288 78.8741 32.9902L78.8789 32.9824L94.2481 11.3145C86.6488 14.201 78.9942 15.4376 68.5577 16.9189C57.4257 18.5041 42.2666 20.6063 29.1719 24.1963C22.6245 25.9913 16.6179 28.1517 11.8995 30.792C7.17825 33.4338 3.81406 36.518 2.43168 40.1299C2.31399 40.6044 1.9687 40.9717 1.5264 40.9717C1.33694 40.9715 1.203 40.878 1.13285 40.8125C1.05991 40.7444 1.01161 40.6677 0.980505 40.6055C0.918051 40.4805 0.882849 40.3314 0.882849 40.1836C0.882835 40.0579 0.877788 39.816 0.992224 39.5645C2.64149 35.1379 6.68822 31.561 12.0713 28.6299C17.4699 25.6904 24.2844 23.3603 31.5782 21.4658C46.164 17.6773 62.7795 15.6022 74.0284 13.9131H74.0303C84.7825 12.3465 91.9077 10.1456 96.6797 8.02441C97.8943 6.42399 99.3394 4.68251 100.768 3.32617C101.497 2.63338 102.235 2.02921 102.945 1.5957C103.648 1.16716 104.371 0.876065 105.063 0.875977C105.643 0.875977 106.195 1.03995 106.652 1.5293L106.743 1.63184L106.76 1.65234L106.774 1.6748C106.843 1.77705 106.933 1.91177 107.004 2.05273C107.075 2.19472 107.146 2.3826 107.147 2.59961Z" fill="#8B9B68"/>
</svg>
